<svg xmlns="http://www.w3.org/2000/svg" width="602.7" height="295.947" viewBox="0 0 602.7 295.947">
  <g id="cloud2" transform="translate(-1560.299 -1091.453)">
    <path id="Path_5375" data-name="Path 5375" d="M1698.9,1235.1c1.7-23.5,30.8-42.2,66.4-42.2a98.305,98.305,0,0,1,15.5,1.2c12.1-11,31.6-18.1,53.7-18.2,24.8,0,46.5,9,57.9,22.5,33.1,2.5,58.8,21.3,58.8,44,0,24.5-29.8,44.4-66.5,44.4h-3.1c-11.5,13.3-33,22.2-57.6,22.2a91.225,91.225,0,0,1-37.7-7.8c-12.2,9-29.8,14.7-49.5,14.7-36.7,0-66.5-19.8-66.5-44.3-.1-15.2,11.3-28.5,28.6-36.5" transform="translate(-109.5)" fill="#e1c058" stroke="#030000" stroke-miterlimit="10" stroke-width="1"/>
    <path id="Path_5377" data-name="Path 5377" d="M1871.1,1258.6c2.7-37.3,48.9-67.1,105.6-67.1a163.485,163.485,0,0,1,24.6,1.9c19.2-17.5,50.3-28.8,85.3-28.9,39.4,0,73.8,14.4,92,35.7,52.6,4,93.4,33.8,93.4,70,0,38.9-47.3,70.5-105.7,70.5-1.6,0-3.3,0-4.9-.1-18.3,21.1-52.4,35.3-91.6,35.3-22.3,0-42.9-4.6-59.9-12.4-19.3,14.4-47.4,23.4-78.6,23.4-58.4,0-105.7-31.5-105.7-70.4,0-23.9,18-45.2,45.5-57.9" transform="translate(-109.5)" fill="#ededec" stroke="#030000" stroke-miterlimit="10" stroke-width="1"/>
    <path id="Path_5378" data-name="Path 5378" d="M1867.9,1135c-2.7,9.9-16.7,15.6-32,12.6a41.113,41.113,0,0,1-6.5-1.8c-6.1,3.7-15.1,5.2-24.5,3.3-10.7-2.1-19.2-7.7-23-14.5-14-3.8-23.5-14-21.6-23.8,2-10.5,16.5-16.6,32.2-13.5.4.1.9.2,1.3.3,6-4.7,16-6.8,26.6-4.7a40.336,40.336,0,0,1,15.5,6.5c6-2.9,14-3.8,22.5-2.2,15.8,3.1,26.9,14,24.9,24.6-1.3,6.4-7.3,11.2-15.4,13.2" transform="translate(-109.5)" fill="#d75562" stroke="#030000" stroke-miterlimit="10" stroke-width="1"/>
  </g>
</svg>
