<svg xmlns="http://www.w3.org/2000/svg" width="227.239" height="128.485" viewBox="0 0 227.239 128.485">
  <g id="cloud1" transform="translate(-81.766 -1411.034)">
    <path id="Path_5376" data-name="Path 5376" d="M77.2,1433.7c6-18,32.4-26.7,60.2-19.6a81.7,81.7,0,0,1,11.8,4c11.6-6.1,28.3-7.8,45.4-3.4,19.3,5,34.4,16.3,40.6,29.1,25.3,8.6,41.5,28.3,37,46-4.9,19.1-32,28.6-60.7,21.2l-2.4-.6c-11.6,8-30.1,10.7-49.3,5.8a73.058,73.058,0,0,1-27.8-13.6c-11.3,4.6-26.2,5.5-41.5,1.6-28.6-7.3-47.8-28.7-42.9-47.8,3-11.8,14.5-19.9,29.6-22.7" transform="translate(35.5)" fill="#e1c058" stroke="#030000" stroke-miterlimit="10" stroke-width="1"/>
    <path id="Path_5379" data-name="Path 5379" d="M315.7,1524c-2.7,9.9-16.7,15.6-32,12.6a41.115,41.115,0,0,1-6.5-1.8c-6.1,3.7-15.1,5.2-24.5,3.3-10.7-2.1-19.2-7.7-23-14.5-14-3.8-23.5-14-21.6-23.8,2-10.5,16.5-16.6,32.2-13.5.4.1.9.2,1.3.3,6-4.7,16-6.8,26.6-4.7a40.337,40.337,0,0,1,15.5,6.5c6-2.9,14-3.8,22.5-2.2,15.8,3.1,26.9,14,24.9,24.6-1.3,6.5-7.3,11.2-15.4,13.2" transform="translate(-109.5)" fill="#71bf87" stroke="#030000" stroke-miterlimit="10" stroke-width="1"/>
  </g>
</svg>
