<svg xmlns="http://www.w3.org/2000/svg" width="394.552" height="261.488" viewBox="0 0 394.552 261.488">
  <g id="desc8" transform="translate(-84.606 -10239.555)">
    <path id="Path_4585" data-name="Path 4585" d="M90.6,10247.377l.141,1.178-.9.326q-.7.255-1.09.377v5.168q0,1.055-.65,1.336a6.927,6.927,0,0,1-2.391.211,3.884,3.884,0,0,0-.386-1.213q1.387.035,1.775,0a.3.3,0,0,0,.334-.334v-4.729q-.369.123-1.187.414t-1.2.412l-.439-1.371q.58-.141,2.83-.809v-4.008h-2.6v-1.248h2.6v-3.516h1.318v3.516h1.987v1.248H88.754v3.6Zm8.613-.141.879.37a11.388,11.388,0,0,1-3.322,5.237,12.591,12.591,0,0,0,4.658,1.951,4.656,4.656,0,0,0-.879,1.2,12.9,12.9,0,0,1-4.851-2.285,15.948,15.948,0,0,1-5.1,2.3,3.8,3.8,0,0,0-.721-1.194,14.708,14.708,0,0,0,4.8-2,12.128,12.128,0,0,1-2.584-4.008l.967-.281H91.5v-1.23h7.47Zm-5.4-5.7v.545a5.445,5.445,0,0,1-2.426,4.853,3.314,3.314,0,0,0-.9-.968,4.337,4.337,0,0,0,2.056-3.9v-1.793h5.907v4.29a.691.691,0,0,0,.07.4.438.438,0,0,0,.316.078h.967q.264,0,.352-.387a11.057,11.057,0,0,0,.1-1.74,2.786,2.786,0,0,0,1.108.51,5.812,5.812,0,0,1-.37,2.18,1.089,1.089,0,0,1-1.054.563h-1.3a1.6,1.6,0,0,1-1.16-.316,1.913,1.913,0,0,1-.3-1.266v-3.041Zm4.5,6.979H93.342a9.657,9.657,0,0,0,2.409,3.463A9.591,9.591,0,0,0,98.317,10248.52Z"/>
    <path id="Path_4586" data-name="Path 4586" d="M108.576,10243.457l.123.967q-.528.158-5.045,1.424l-.457-1.09Q103.864,10244.617,108.576,10243.457Zm.123,9.844,1.213.58a23.729,23.729,0,0,1-5.485,2.162,12.438,12.438,0,0,0-1-1A19.523,19.523,0,0,0,108.7,10253.3Zm-.229-12.444v1.071h-4.658v-1.071Zm-2.777,12.269v-7.225h11.654v7.225Zm1.3-6.31v1.194h9.017v-1.194Zm0,2.056v1.248h9.017v-1.248Zm0,2.11v1.265h9.017v-1.265Zm6.064-9.106h-1.9a9.228,9.228,0,0,1-1.6,1.565,2.955,2.955,0,0,0-1.019-.669,7.643,7.643,0,0,0,2.724-3.217l1.195.193q-.228.492-.6,1.125h6.152l.211-.053.9.264a11.761,11.761,0,0,1-1.793,2.549l-1.09-.369a6.2,6.2,0,0,0,1.107-1.389h-2.883a4.069,4.069,0,0,0,.466,1.029,3.8,3.8,0,0,0,.844.887,5.212,5.212,0,0,0,1.5.774,13.222,13.222,0,0,0,2.285.544,3.146,3.146,0,0,0-.685,1.09q-3.869-.686-5.045-2.988a4.116,4.116,0,0,1-1.618,1.662,9.552,9.552,0,0,1-2.97,1.01,2.916,2.916,0,0,0-.633-.949,7.963,7.963,0,0,0,3.129-1.09A3.4,3.4,0,0,0,113.058,10241.875Zm-.158,12.164,1.09-.686a51.389,51.389,0,0,1,5.414,2l-1.477.668A36.334,36.334,0,0,0,112.9,10254.039Z"/>
    <path id="Path_4587" data-name="Path 4587" d="M136.43,10250.594h1.564v1.23h-16.26v-1.23h1.618l-.3-10.09,1.054.264a19.279,19.279,0,0,0,1.987-1.107l.756.809h6.117v10.125h2.3c.011-.129.032-.459.061-.992s.05-.959.062-1.275h-1.916v-1.125h1.951q.071-1.406.088-2.215h-2v-1.107h2.039c0-.258,0-.641.009-1.15s.014-.889.026-1.135h-2.2v-1.125h3.357Q136.676,10246.287,136.43,10250.594Zm-9.528,1.529,1.283.809a24.319,24.319,0,0,1-5.29,3.076,9.189,9.189,0,0,0-1.038-.949,23.193,23.193,0,0,0,2.813-1.4A13.872,13.872,0,0,0,126.9,10252.123Zm-2.461-3.8.071,2.268H126.8v-9.791q-1.23.582-2.549,1.055l.07,2.021h1.934v1.107h-1.9l.052,2.215h1.828v1.125Zm7.524-6.785H127.8v9.053h4.166Zm-.563,1.16v.914h-3.058v-.914Zm-2.882,6.223v-4.113h2.707v4.113Zm.685-3.252v2.392h1.318v-2.392Zm2.285,7.365.95-.9a44.945,44.945,0,0,1,5.484,2.953l-1.248.932A34.653,34.653,0,0,0,131.49,10253.037Z"/>
    <path id="Path_4588" data-name="Path 4588" d="M144.632,10245.76l.773.193a21.507,21.507,0,0,1-1.476,6.24,6.414,6.414,0,0,0,2.962,1.592,17.922,17.922,0,0,0,4.227.43q4.606,0,5.537-.018a3.971,3.971,0,0,0-.562,1.318h-5.01a18.746,18.746,0,0,1-4.544-.475,7.3,7.3,0,0,1-3.208-1.705,8.168,8.168,0,0,1-2.355,2.689,3.412,3.412,0,0,0-1-.932,7.925,7.925,0,0,0,2.461-2.777,11.69,11.69,0,0,1-1.688-3.516l1.037-.387a9.091,9.091,0,0,0,1.213,2.672,16.709,16.709,0,0,0,1.02-4.1h-2.075l-.369.7-1.23-.352q1.335-2.5,2.672-5.449h-2.9v-1.2h3.569l.211-.07.914.281q-.562,1.336-2.285,4.887h1.863Zm5.291-.018v-1.336h-4.94v-1.055h4.94v-1.3h-3.674V10241h3.674v-1.3h1.3v1.3h3.955v2.355h1.353v1.055h-1.353v2.426h-3.955v1.318h4.13v1.038h-4.13v1.423h4.9v1.09h-4.9v1.916h-1.3v-1.916h-4.711v-1.09h4.711v-1.423h-3.885v-1.038h3.885v-1.318h-3.8v-1.09Zm1.3-3.691v1.3h2.654v-1.3Zm2.654,3.691v-1.336h-2.654v1.336Z"/>
    <path id="Path_4589" data-name="Path 4589" d="M167.722,10244.451a1.428,1.428,0,0,1-1.933,0,1.378,1.378,0,0,1,0-1.951,1.422,1.422,0,0,1,1.933,0,1.378,1.378,0,0,1,0,1.951Zm0,8.824a1.428,1.428,0,0,1-1.933,0,1.276,1.276,0,0,1-.4-.977,1.3,1.3,0,0,1,.4-.983,1.4,1.4,0,0,1,1.933,0,1.3,1.3,0,0,1,.4.983A1.276,1.276,0,0,1,167.722,10253.275Z"/>
    <path id="Path_4590" data-name="Path 4590" d="M188.9,10254.408h2.32a.788.788,0,0,0,.44-.105.832.832,0,0,0,.255-.492,5.909,5.909,0,0,0,.14-.957q.045-.571.079-1.68a3.55,3.55,0,0,0,1.248.6,8.755,8.755,0,0,1-.509,3.111,1.589,1.589,0,0,1-1.565.791h-2.566a2.345,2.345,0,0,1-1.617-.412,2.208,2.208,0,0,1-.422-1.573v-6.417h-3.358q-.1,1.266-.281,2.232a12,12,0,0,1-.554,2,7.356,7.356,0,0,1-.94,1.8,7.237,7.237,0,0,1-1.468,1.469,9.029,9.029,0,0,1-2.118,1.186,2.952,2.952,0,0,0-.844-1.055,7.575,7.575,0,0,0,1.943-1.044,6.806,6.806,0,0,0,1.318-1.293,5.919,5.919,0,0,0,.826-1.591,10.694,10.694,0,0,0,.466-1.75q.141-.826.228-1.951h-4.552v-1.3h15.75v1.3h-5.063v6.4a.814.814,0,0,0,.158.6A1.121,1.121,0,0,0,188.9,10254.408Zm2.707-13.43v1.283H178.93v-1.283Z"/>
    <path id="Path_4591" data-name="Path 4591" d="M204.271,10254.6h7.242v.984h-15.68v-.984h7.12v-.949h-5.4v-.879h5.4v-.914q-1.266.018-3.305.035t-2.443.018l-.071-.914q.774.018,2.637.018.422-.422.9-.984h-2.759v-.826h11.425v.826h-2.2a18.718,18.718,0,0,1,3.3,1.811l-.791.722a9.225,9.225,0,0,0-1.178-.774q-1.389.037-4.2.07v.914H209.9v.879h-5.625Zm-1.318-12.111v-.932h-7.1v-.949h7.1v-1.055h1.318v1.055H211.5v.949h-7.225v.932H210.2v.879H197.134v-.879Zm8.191,7.559H209.9v-1.617H197.38v1.617h-1.213v-2.566h14.977Zm-13.2-5.924h11.478v2.6H197.943Zm10.178,1.811v-1.02h-8.93v1.02Zm-2.25,4.1h-3.657q-.439.475-.984,1,3.8,0,5.818-.018-1.055-.491-1.564-.668Z"/>
    <path id="Path_4592" data-name="Path 4592" d="M218.432,10245.76l.773.193a21.539,21.539,0,0,1-1.476,6.24,6.411,6.411,0,0,0,2.961,1.592,17.931,17.931,0,0,0,4.228.43q4.605,0,5.537-.018a3.95,3.95,0,0,0-.562,1.318h-5.01a18.746,18.746,0,0,1-4.544-.475,7.29,7.29,0,0,1-3.208-1.705,8.159,8.159,0,0,1-2.356,2.689,3.412,3.412,0,0,0-1-.932,7.905,7.905,0,0,0,2.461-2.777,11.714,11.714,0,0,1-1.687-3.516l1.037-.387a9.091,9.091,0,0,0,1.213,2.672,16.711,16.711,0,0,0,1.019-4.1h-2.074l-.369.7-1.23-.352q1.335-2.5,2.672-5.449h-2.9v-1.2h3.568l.211-.07.914.281q-.562,1.336-2.285,4.887h1.863Zm5.291-.018v-1.336h-4.94v-1.055h4.94v-1.3h-3.674V10241h3.674v-1.3h1.3v1.3h3.956v2.355h1.353v1.055h-1.353v2.426h-3.956v1.318h4.131v1.038h-4.131v1.423h4.9v1.09h-4.9v1.916h-1.3v-1.916h-4.711v-1.09h4.711v-1.423h-3.885v-1.038h3.885v-1.318h-3.8v-1.09Zm1.3-3.691v1.3h2.655v-1.3Zm2.655,3.691v-1.336h-2.655v1.336Z"/>
    <path id="Path_4593" data-name="Path 4593" d="M239.1,10242.543v1.09h-6.786v-1.09Zm-.633,7.225v5.186H234.3v.844H233.12v-6.029Zm-5.309-3.727v-1.072h5.326v1.072Zm0,2.391v-1.09h5.326v1.09Zm5.274-8.243v1.071h-5.186v-1.071Zm-1.125,10.669H234.3v3.023H237.3Zm4.482-9.544v1a5.241,5.241,0,0,1-2.3,4.692,5,5,0,0,0-.984-.879,4.226,4.226,0,0,0,2-3.832v-2.162h5.607v4.395a.644.644,0,0,0,.071.379.373.373,0,0,0,.281.078h.9q.247,0,.334-.352a9.169,9.169,0,0,0,.106-1.6,2.5,2.5,0,0,0,1.107.475,5.418,5.418,0,0,1-.369,2.1,1.069,1.069,0,0,1-1.019.535h-1.231a1.485,1.485,0,0,1-1.125-.333,2,2,0,0,1-.3-1.284v-3.216Zm5.186,5.923.861.352a11.63,11.63,0,0,1-3.041,5.309,11.664,11.664,0,0,0,4.131,1.934,4.479,4.479,0,0,0-.862,1.143,12.618,12.618,0,0,1-4.288-2.215,13.927,13.927,0,0,1-4.518,2.232,3.372,3.372,0,0,0-.721-1.177,12.5,12.5,0,0,0,4.254-1.97,12.271,12.271,0,0,1-2.514-3.937l1.178-.352a9.962,9.962,0,0,0,2.321,3.48,9.782,9.782,0,0,0,2.355-3.516h-6.8v-1.23h7.4Z"/>
    <path id="Path_4594" data-name="Path 4594" d="M266.863,10243.141H257.2q-.545,1.143-1.108,2.074h8.684v9.105a2.053,2.053,0,0,1-.167.932,1.042,1.042,0,0,1-.589.475,12.157,12.157,0,0,1-3.146.246,4.818,4.818,0,0,0-.422-1.318q.791.035,2.584.036.422-.019.422-.37v-1.88h-7.506v3.55h-1.319v-8.684a14.545,14.545,0,0,1-3.005,2.848,4.771,4.771,0,0,0-.844-1.02,14.9,14.9,0,0,0,4.957-5.994h-4.518v-1.266h5.063a22,22,0,0,0,.791-2.32l1.336.316q-.387,1.213-.7,2h9.158Zm-3.41,5.115v-1.828h-7.506v1.828Zm-7.506,3.041h7.506v-1.881h-7.506Z"/>
    <path id="Path_4595" data-name="Path 4595" d="M274.608,10240.275l.879.545q-1.109,2.99-1.969,4.746a5.429,5.429,0,0,1,1.775,3.867,2.9,2.9,0,0,1-.386,1.715,1.855,1.855,0,0,1-1.354.693,9.06,9.06,0,0,1-1.336.018,2.53,2.53,0,0,0-.334-1.213,3.48,3.48,0,0,0,1.793-.123q.423-.281.422-1.23a5.133,5.133,0,0,0-1.81-3.568q.563-1.266,1.6-4.166h-2.636v14.432h-1.266v-15.662H274.4Zm9.633,8.438,1.037.738a23.788,23.788,0,0,1-2.883,2.355,7.652,7.652,0,0,0,3.34,3.023,3.342,3.342,0,0,0-.879,1.108q-3.744-1.917-5.15-7.647h-1.952v5.537q.6-.123,1.758-.352t1.67-.334l.088,1.16q-1.213.281-3.41.766t-2.971.658l-.439-1.283c.2-.035.524-.1.975-.184l1.046-.2v-13.711h8.051v7.945h-3.656a12.359,12.359,0,0,0,.984,2.584A18.787,18.787,0,0,0,284.241,10248.713Zm-1.037-7.172h-5.45v2.18h5.45Zm-5.45,3.322v2.232h5.45v-2.232Z"/>
    <path id="Path_4596" data-name="Path 4596" d="M291.669,10242.191l1.442.422a17.82,17.82,0,0,1-1.907,3.041,13.946,13.946,0,0,1-2.435,2.5,7.47,7.47,0,0,0-1.055-.914,12.426,12.426,0,0,0,2.3-2.311A12.168,12.168,0,0,0,291.669,10242.191Zm6.434,7.787,1.23-.58q1.266,1.406,2.505,3.094a26.351,26.351,0,0,1,1.89,2.883l-1.283.721q-.23-.457-.844-1.477-9.932.492-12.8.615l-.176-1.389,2.532-.088a46.984,46.984,0,0,0,3.392-7.857l1.53.387a79.81,79.81,0,0,1-3.428,7.418q.456-.018,8.068-.352A35.82,35.82,0,0,0,298.1,10249.979Zm-5.221-9.633h6.592a17.425,17.425,0,0,0,2.109,3.72,13.954,13.954,0,0,0,2.725,2.873,4.36,4.36,0,0,0-1.178.948,15.135,15.135,0,0,1-2.487-2.732,23.03,23.03,0,0,1-2.1-3.49h-5.66Z"/>
    <path id="Path_4597" data-name="Path 4597" d="M321.281,10240.715V10254a2.561,2.561,0,0,1-.176,1.072,1.1,1.1,0,0,1-.632.545,12.742,12.742,0,0,1-3.34.264,4.257,4.257,0,0,0-.475-1.441q2.04.053,2.848.018a.5.5,0,0,0,.334-.113.519.519,0,0,0,.088-.344V10242H306.99v-1.283Zm-3.392,3.164v1.2H307.113v-1.2Zm-1.231,8.842h-7.084v1.318h-1.318v-7.031h8.4Zm-1.318-4.535h-5.766v3.357h5.766Z"/>
    <path id="Path_4598" data-name="Path 4598" d="M93.641,10288.283h7.365v1.336H84.94v-1.336h7.242v-10.336H85.889v-1.354H100.11v1.354H93.641Z"/>
    <path id="Path_4599" data-name="Path 4599" d="M110.017,10284.416l-.791,1.037a22.706,22.706,0,0,0-1.635-2.18v7.7h-1.318v-7.963a17.767,17.767,0,0,1-2.6,4.693,5.265,5.265,0,0,0-.668-1.213,13.847,13.847,0,0,0,1.705-2.514,19.112,19.112,0,0,0,1.389-3.129h-2.76v-1.248h2.936v-2.725q-1.687.3-2.619.44a4.489,4.489,0,0,0-.422-1.056,23.445,23.445,0,0,0,5.766-1.441l.914,1.038a17.8,17.8,0,0,1-2.321.72v3.023h2.233v1.248h-2.233v1.107q.387.353,1.266,1.248T110.017,10284.416Zm9.51,2.514H115.15v2.427h3.8v1.177h-8.965v-1.177h3.85v-2.427H109.4v-1.143h4.43v-2.162q-1.284.141-3.2.246a3.747,3.747,0,0,0-.369-1.02,35.736,35.736,0,0,0,7.471-1.02l.9.967a19.949,19.949,0,0,1-3.48.668v2.32h4.377Zm-.932-11.461v5.7h-8.051v-5.7Zm-1.3,4.518v-3.357H111.81v3.357Z"/>
    <path id="Path_4600" data-name="Path 4600" d="M129.065,10279.248l-.809.844a29.411,29.411,0,0,0-2.479-1.687,5.9,5.9,0,0,1-3.392,1.916,2.461,2.461,0,0,0-.281-.5,2.691,2.691,0,0,0-.387-.467,8.2,8.2,0,0,0,1.916-.641,3.1,3.1,0,0,0,1.16-.984,3.812,3.812,0,0,0,.589-1.328,11.693,11.693,0,0,0,.237-1.846H126.8a9.989,9.989,0,0,1-.51,2.918Q128.273,10278.65,129.065,10279.248Zm-5.467-3.885.9.316a4.375,4.375,0,0,1-1.512,2.232l-.843-.51A3.674,3.674,0,0,0,123.6,10275.363Zm13.957,4.166-.686.809h.475v3.252h-1.319v-2.18H123.7v2.18h-1.3v-3.252h14.186a30.072,30.072,0,0,0-3.252-1.986,5.82,5.82,0,0,1-3.3,1.863,2.775,2.775,0,0,0-.668-1,4.971,4.971,0,0,0,2.918-1.52,5.84,5.84,0,0,0,.879-3.139h1.248a9.665,9.665,0,0,1-.545,2.848A28.206,28.206,0,0,1,137.555,10279.529Zm-2.813,6.24h-4.2q-.07.158-.457,1.09h6.135v4.113H134.9v-.475h-9.755v.492h-1.266v-4.131H128.8q.123-.4.3-1.09h-4.043v-3.234h9.685Zm.158,3.727v-1.635h-9.755v1.635Zm-8.595-6.047v1.407h7.119v-1.407Zm2.215-8.033,1.107.44a15.82,15.82,0,0,1-1.6,1.774l-.808-.352A10.567,10.567,0,0,0,128.52,10275.416Zm1.933,2.5-.861-.527a4.161,4.161,0,0,0,1.512-2l.9.334A4.873,4.873,0,0,1,130.453,10277.912Zm5.959-2.531,1.125.439a16.972,16.972,0,0,1-1.758,1.863l-.844-.368A11.759,11.759,0,0,0,136.412,10275.381Z"/>
    <path id="Path_4601" data-name="Path 4601" d="M143.858,10282.887v4.5q1.231,1.9,4.536,2.039,4.5.123,8.208-.123a3.714,3.714,0,0,0-.456,1.3q-4.149.141-7.735.053a6.771,6.771,0,0,1-5.15-2.109q-.915.879-2.6,2.3l-.685-1.318q1.441-1.055,2.566-2.057v-3.34H140.2v-1.248Zm.44-2.426-.932.949a11.351,11.351,0,0,0-3.093-2.162l.878-.861A11.563,11.563,0,0,1,144.3,10280.461Zm.527-3.516-.931.914a10.864,10.864,0,0,0-2.918-2.25l.878-.826A11.052,11.052,0,0,1,144.825,10276.945Zm5.1,1.037h-2.707a12.994,12.994,0,0,1-1.371,1.9,6.28,6.28,0,0,0-1.16-.668,10.268,10.268,0,0,0,2.619-4.412l1.248.316q-.193.563-.7,1.705h2.074v-2.232h1.318v2.232h4.289v1.16h-4.289v2.3H156.3v1.16H144.825v-1.16h5.1Zm5.045,10.318h-1.319v-.6h-5.906v.65H146.46v-5.52h8.508Zm-7.225-1.74h5.906v-2.637h-5.906Z"/>
    <path id="Path_4602" data-name="Path 4602" d="M167.722,10279.451a1.428,1.428,0,0,1-1.933,0,1.378,1.378,0,0,1,0-1.951,1.422,1.422,0,0,1,1.933,0,1.378,1.378,0,0,1,0,1.951Zm0,8.824a1.428,1.428,0,0,1-1.933,0,1.276,1.276,0,0,1-.4-.977,1.3,1.3,0,0,1,.4-.983,1.4,1.4,0,0,1,1.933,0,1.3,1.3,0,0,1,.4.983A1.276,1.276,0,0,1,167.722,10288.275Z"/>
    <path id="Path_4603" data-name="Path 4603" d="M189.67,10277.315h3.147v3.69h-1.3v-2.549h-12.48v2.549h-1.284v-3.69h2.866a13.533,13.533,0,0,0-1.371-2.04l1.16-.492a10.222,10.222,0,0,1,1.582,2.215l-.668.317H184.5v-2.761h1.336v2.761h3.024l-.51-.212a14.427,14.427,0,0,0,1.6-2.391l1.353.476A24.352,24.352,0,0,1,189.67,10277.315Zm-10.687,13.71v-6.469h12.744v6.434h-1.318v-.475H180.266v.51Zm5.607-5.432h-4.324v1.441h4.324Zm-4.324,3.885h4.324V10288h-4.324Zm.369-9.7h9.317v3.744h-9.317Zm8.016,2.707v-1.705h-6.768v1.705Zm1.758,4.553v-1.441h-4.536v1.441Zm-4.536,2.443h4.536V10288h-4.536Z"/>
    <path id="Path_4604" data-name="Path 4604" d="M200.316,10274.766l1.248.4a24.455,24.455,0,0,1-1.916,3.639v12.164h-1.354v-10.248a20.618,20.618,0,0,1-2.408,2.654,6.152,6.152,0,0,0-.773-1.3,18,18,0,0,0,2.935-3.26A20.542,20.542,0,0,0,200.316,10274.766Zm11.443,5.8-5.431.686q1.019,7.928,3.691,8.174.738.053,1-3.094a4.511,4.511,0,0,0,1.107.7,9.1,9.1,0,0,1-.791,3.094,1.379,1.379,0,0,1-1.248.861,4.058,4.058,0,0,1-3.322-2.627,22.309,22.309,0,0,1-1.758-6.936l-4.324.545-.176-1.266,4.36-.545q-.282-3.234-.352-5.326h1.336q.089,2.9.334,5.15l5.4-.686Zm-.351-2.742-1.037.721a11.772,11.772,0,0,0-1.257-1.432q-.835-.835-1.644-1.521l.967-.65A17.142,17.142,0,0,1,211.408,10277.824Z"/>
    <path id="Path_4605" data-name="Path 4605" d="M221.315,10279.248l-.809.844a29.41,29.41,0,0,0-2.479-1.687,5.9,5.9,0,0,1-3.392,1.916,2.461,2.461,0,0,0-.281-.5,2.691,2.691,0,0,0-.387-.467,8.2,8.2,0,0,0,1.916-.641,3.1,3.1,0,0,0,1.16-.984,3.812,3.812,0,0,0,.589-1.328,11.692,11.692,0,0,0,.237-1.846h1.178a9.988,9.988,0,0,1-.51,2.918Q220.523,10278.65,221.315,10279.248Zm-5.467-3.885.9.316a4.375,4.375,0,0,1-1.512,2.232l-.843-.51A3.675,3.675,0,0,0,215.848,10275.363Zm13.957,4.166-.686.809h.475v3.252h-1.319v-2.18H215.953v2.18h-1.3v-3.252h14.186a30.072,30.072,0,0,0-3.252-1.986,5.82,5.82,0,0,1-3.3,1.863,2.775,2.775,0,0,0-.668-1,4.971,4.971,0,0,0,2.918-1.52,5.84,5.84,0,0,0,.879-3.139h1.248a9.665,9.665,0,0,1-.545,2.848A28.206,28.206,0,0,1,229.8,10279.529Zm-2.813,6.24h-4.2q-.07.158-.457,1.09h6.135v4.113H227.15v-.475H217.4v.492h-1.266v-4.131h4.922q.123-.4.3-1.09h-4.043v-3.234h9.685Zm.158,3.727v-1.635H217.4v1.635Zm-8.6-6.047v1.407h7.119v-1.407Zm2.215-8.033,1.107.44a15.82,15.82,0,0,1-1.6,1.774l-.808-.352A10.567,10.567,0,0,0,220.77,10275.416Zm1.933,2.5-.861-.527a4.161,4.161,0,0,0,1.512-2l.9.334A4.873,4.873,0,0,1,222.7,10277.912Zm5.959-2.531,1.125.439a16.972,16.972,0,0,1-1.758,1.863l-.844-.368A11.759,11.759,0,0,0,228.662,10275.381Z"/>
    <path id="Path_4606" data-name="Path 4606" d="M236.108,10282.887v4.5q1.231,1.9,4.536,2.039,4.5.123,8.208-.123a3.714,3.714,0,0,0-.456,1.3q-4.149.141-7.735.053a6.771,6.771,0,0,1-5.15-2.109q-.915.879-2.6,2.3l-.685-1.318q1.441-1.055,2.566-2.057v-3.34h-2.338v-1.248Zm.44-2.426-.932.949a11.351,11.351,0,0,0-3.093-2.162l.878-.861A11.563,11.563,0,0,1,236.548,10280.461Zm.527-3.516-.931.914a10.864,10.864,0,0,0-2.918-2.25l.878-.826A11.052,11.052,0,0,1,237.075,10276.945Zm5.1,1.037h-2.707a12.994,12.994,0,0,1-1.371,1.9,6.28,6.28,0,0,0-1.16-.668,10.268,10.268,0,0,0,2.619-4.412l1.248.316q-.193.563-.7,1.705h2.074v-2.232h1.318v2.232h4.289v1.16h-4.289v2.3h5.063v1.16H237.075v-1.16h5.1Zm5.045,10.318H245.9v-.6h-5.906v.65H238.71v-5.52h8.508Zm-7.225-1.74H245.9v-2.637h-5.906Z"/>
    <path id="Path_4607" data-name="Path 4607" d="M266.863,10278.141H257.2q-.545,1.143-1.108,2.074h8.684v9.105a2.053,2.053,0,0,1-.167.932,1.042,1.042,0,0,1-.589.475,12.157,12.157,0,0,1-3.146.246,4.818,4.818,0,0,0-.422-1.318q.791.035,2.584.036.422-.019.422-.37v-1.88h-7.506v3.55h-1.319v-8.684a14.545,14.545,0,0,1-3.005,2.848,4.771,4.771,0,0,0-.844-1.02,14.9,14.9,0,0,0,4.957-5.994h-4.518v-1.266h5.063a22,22,0,0,0,.791-2.32l1.336.316q-.387,1.213-.7,2h9.158Zm-3.41,5.115v-1.828h-7.506v1.828Zm-7.506,3.041h7.506v-1.881h-7.506Z"/>
    <path id="Path_4608" data-name="Path 4608" d="M274.608,10275.275l.879.545q-1.109,2.99-1.969,4.746a5.429,5.429,0,0,1,1.775,3.867,2.9,2.9,0,0,1-.386,1.715,1.855,1.855,0,0,1-1.354.693,9.06,9.06,0,0,1-1.336.018,2.53,2.53,0,0,0-.334-1.213,3.48,3.48,0,0,0,1.793-.123q.423-.281.422-1.23a5.133,5.133,0,0,0-1.81-3.568q.563-1.266,1.6-4.166h-2.636v14.432h-1.266v-15.662H274.4Zm9.633,8.438,1.037.738a23.788,23.788,0,0,1-2.883,2.355,7.652,7.652,0,0,0,3.34,3.023,3.342,3.342,0,0,0-.879,1.108q-3.744-1.917-5.15-7.647h-1.952v5.537q.6-.123,1.758-.352t1.67-.334l.088,1.16q-1.213.281-3.41.766t-2.971.658l-.439-1.283c.2-.035.524-.1.975-.184l1.046-.2v-13.711h8.051v7.945h-3.656a12.359,12.359,0,0,0,.984,2.584A18.787,18.787,0,0,0,284.241,10283.713Zm-1.037-7.172h-5.45v2.18h5.45Zm-5.45,3.322v2.232h5.45v-2.232Z"/>
    <path id="Path_4609" data-name="Path 4609" d="M291.669,10277.191l1.442.422a17.82,17.82,0,0,1-1.907,3.041,13.946,13.946,0,0,1-2.435,2.5,7.47,7.47,0,0,0-1.055-.914,12.426,12.426,0,0,0,2.3-2.311A12.168,12.168,0,0,0,291.669,10277.191Zm6.434,7.787,1.23-.58q1.266,1.406,2.505,3.094a26.351,26.351,0,0,1,1.89,2.883l-1.283.721q-.23-.457-.844-1.477-9.932.492-12.8.615l-.176-1.389,2.532-.088a46.984,46.984,0,0,0,3.392-7.857l1.53.387a79.81,79.81,0,0,1-3.428,7.418q.456-.018,8.068-.352A35.82,35.82,0,0,0,298.1,10284.979Zm-5.221-9.633h6.592a17.425,17.425,0,0,0,2.109,3.72,13.954,13.954,0,0,0,2.725,2.873,4.36,4.36,0,0,0-1.178.948,15.135,15.135,0,0,1-2.487-2.732,23.03,23.03,0,0,1-2.1-3.49h-5.66Z"/>
    <path id="Path_4610" data-name="Path 4610" d="M321.281,10275.715V10289a2.561,2.561,0,0,1-.176,1.072,1.1,1.1,0,0,1-.632.545,12.742,12.742,0,0,1-3.34.264,4.257,4.257,0,0,0-.475-1.441q2.04.053,2.848.018a.5.5,0,0,0,.334-.113.519.519,0,0,0,.088-.344V10277H306.99v-1.283Zm-3.392,3.164v1.2H307.113v-1.2Zm-1.231,8.842h-7.084v1.318h-1.318v-7.031h8.4Zm-1.318-4.535h-5.766v3.357h5.766Z"/>
    <path id="Path_4611" data-name="Path 4611" d="M89.282,10315.76l.773.193a21.539,21.539,0,0,1-1.476,6.24,6.409,6.409,0,0,0,2.962,1.592,17.922,17.922,0,0,0,4.227.43q4.6,0,5.537-.018a3.971,3.971,0,0,0-.562,1.318h-5.01a18.746,18.746,0,0,1-4.544-.475,7.3,7.3,0,0,1-3.208-1.705,8.168,8.168,0,0,1-2.355,2.689,3.415,3.415,0,0,0-1-.932,7.905,7.905,0,0,0,2.461-2.777,11.714,11.714,0,0,1-1.687-3.516l1.037-.387a9.09,9.09,0,0,0,1.213,2.672,16.71,16.71,0,0,0,1.02-4.1H86.592l-.369.7-1.23-.352q1.335-2.5,2.672-5.449h-2.9v-1.2h3.569l.21-.07.915.281q-.562,1.336-2.286,4.887h1.864Zm5.291-.018v-1.336h-4.94v-1.055h4.94v-1.3H90.9V10311h3.674v-1.3h1.3v1.3h3.956v2.355h1.353v1.055H99.829v2.426H95.873v1.318H100v1.038H95.873v1.423h4.9v1.09h-4.9v1.916h-1.3v-1.916H89.862v-1.09h4.711v-1.423H90.688v-1.038h3.885v-1.318h-3.8v-1.09Zm1.3-3.691v1.3h2.655v-1.3Zm2.655,3.691v-1.336H95.873v1.336Z"/>
    <path id="Path_4612" data-name="Path 4612" d="M119.685,10317.184c-.012.387-.023.674-.035.861a4.325,4.325,0,0,1-.1.644,1.038,1.038,0,0,1-.237.517,1.333,1.333,0,0,1-.431.273,1.808,1.808,0,0,1-.694.113h-.826a1.394,1.394,0,0,1-.985-.3,2.214,2.214,0,0,1-.334-1.494v-2.707h-2.5v.316a6.814,6.814,0,0,1-.052.844h1.88v.967h-2.144a4.18,4.18,0,0,1-1.811,1.986h.616v1.354h7.382v1.09h-6.345a13.623,13.623,0,0,0,3.032,1.627,19.968,19.968,0,0,0,3.647,1.081,4.711,4.711,0,0,0-.861,1.125,20.261,20.261,0,0,1-3.735-1.372,13.747,13.747,0,0,1-3.12-1.986v3.85h-1.284v-3.866a14.088,14.088,0,0,1-3.128,2.048,18.245,18.245,0,0,1-3.71,1.379,3.956,3.956,0,0,0-.843-1.072,20.2,20.2,0,0,0,3.586-1.143,13.171,13.171,0,0,0,2.97-1.67h-6.187v-1.09h7.312v-1a8.636,8.636,0,0,1-.914.387,3.26,3.26,0,0,0-.808-.878,5.377,5.377,0,0,0,2.865-1.847h-1.811v-.967H112.3a3.725,3.725,0,0,0,.088-.861v-.3h-1.529v-.949h6.433v3.709c0,.363.03.568.088.615a.454.454,0,0,0,.282.07h.474a.66.66,0,0,0,.4-.1.538.538,0,0,0,.159-.361q.035-.229.07-1.389A2.534,2.534,0,0,0,119.685,10317.184Zm-13.131-5.15h-.791a12.039,12.039,0,0,1-1.529,1.863,6.182,6.182,0,0,0-1.072-.738,9.3,9.3,0,0,0,2.566-3.674l1.248.316q-.123.3-.545,1.143h4.746v1.038a8.01,8.01,0,0,0,1.582-2.5l1.283.3a9.867,9.867,0,0,1-.562,1.16h5.906v1.09h-3.814a6.652,6.652,0,0,1,.914,1.424l-1.143.4a8.223,8.223,0,0,0-1.16-1.828h-1.441a11.775,11.775,0,0,1-1.6,1.688,8.526,8.526,0,0,0-1.16-.65,7.375,7.375,0,0,0,1.142-1.037h-3.357a6.819,6.819,0,0,1,.7,1.459l-1.09.334A10.364,10.364,0,0,0,106.554,10312.033Zm-3.094,7.225-.158-1.125,2.9-.369v-2.443h-2.532v-.984h6.223v.984h-2.461v2.286q.791-.125,2.444-.37l.052,1.055q-1.125.176-3.357.5T103.46,10319.258Z"/>
    <path id="Path_4613" data-name="Path 4613" d="M128.4,10312.543v1.09h-6.785v-1.09Zm-.632,7.225v5.186H123.6v.844H122.42v-6.029Zm-5.309-3.727v-1.072h5.326v1.072Zm0,2.391v-1.09h5.326v1.09Zm5.274-8.243v1.071h-5.186v-1.071Zm-1.125,10.669H123.6v3.023H126.6Zm4.482-9.544v1a5.243,5.243,0,0,1-2.3,4.692,5,5,0,0,0-.984-.879,4.226,4.226,0,0,0,2-3.832v-2.162h5.607v4.395a.654.654,0,0,0,.07.379.377.377,0,0,0,.282.078h.9c.164,0,.276-.117.334-.352a9.17,9.17,0,0,0,.106-1.6,2.5,2.5,0,0,0,1.107.475,5.418,5.418,0,0,1-.369,2.1,1.07,1.07,0,0,1-1.02.535h-1.23a1.485,1.485,0,0,1-1.125-.333,2,2,0,0,1-.3-1.284v-3.216Zm5.185,5.923.862.352a11.63,11.63,0,0,1-3.041,5.309,11.664,11.664,0,0,0,4.131,1.934,4.48,4.48,0,0,0-.862,1.143,12.623,12.623,0,0,1-4.289-2.215,13.921,13.921,0,0,1-4.517,2.232,3.371,3.371,0,0,0-.721-1.177,12.5,12.5,0,0,0,4.254-1.97,12.271,12.271,0,0,1-2.514-3.937l1.178-.352a9.973,9.973,0,0,0,2.32,3.48,9.771,9.771,0,0,0,2.356-3.516h-6.8v-1.23h7.4Z"/>
    <path id="Path_4614" data-name="Path 4614" d="M147.146,10312.543v1.09h-7.085v-1.09Zm-.7,7.225v5.186h-4.359v.844h-1.195v-6.029Zm-5.537-3.727v-1.072h5.59v1.072Zm0,2.391v-1.09h5.59v1.09Zm5.59-8.243v1.071h-5.5v-1.071Zm-1.266,10.669h-3.146v3.023h3.146Zm11.479-5.186v1.318h-4.025v9h-1.336v-9h-4.219v-1.318h4.219v-6.064h1.336v6.064Z"/>
    <path id="Path_4615" data-name="Path 4615" d="M167.722,10314.451a1.428,1.428,0,0,1-1.933,0,1.378,1.378,0,0,1,0-1.951,1.422,1.422,0,0,1,1.933,0,1.378,1.378,0,0,1,0,1.951Zm0,8.824a1.428,1.428,0,0,1-1.933,0,1.276,1.276,0,0,1-.4-.977,1.3,1.3,0,0,1,.4-.983,1.4,1.4,0,0,1,1.933,0,1.3,1.3,0,0,1,.4.983A1.276,1.276,0,0,1,167.722,10323.275Z"/>
    <path id="Path_4616" data-name="Path 4616" d="M179.668,10312.4v4.079q0,6.45-1.757,9.579a2.937,2.937,0,0,0-1.073-.721q1.564-2.812,1.565-8.858v-5.274h6.644v-1.635h1.371v1.635h6.8v1.2Zm4.782,10.055.228.984q-3.409,1.424-4.447,1.846l-.615-1.09Q181.813,10323.477,184.45,10322.457Zm7.207-2.953H187.28a9.269,9.269,0,0,0,1.336,2.3,19.846,19.846,0,0,0,2.812-1.986l1.02.791a29.876,29.876,0,0,1-3.164,1.952,8.724,8.724,0,0,0,3.779,2.179,3.48,3.48,0,0,0-.826,1.055,9.232,9.232,0,0,1-5.4-4.693v3.357a1.856,1.856,0,0,1-.175.914,1.046,1.046,0,0,1-.6.44,13.652,13.652,0,0,1-3.006.192,4.514,4.514,0,0,0-.4-1.16q1.581.053,2.5,0a.478.478,0,0,0,.316-.078.411.411,0,0,0,.088-.309v-4.957h-4.324v-.967h4.324v-1.424h-5.449v-1h5.449v-1.318h-4.2v-.984h4.2v-1.266h1.283v1.266h4.817v2.3h1.775v1h-1.775Zm-11.092.949.756-.738a15.6,15.6,0,0,1,2.654,1.863l-.808.809A13.366,13.366,0,0,0,180.565,10320.453Zm6.275-5.66v1.318h3.551v-1.318Zm0,2.32v1.424h3.551v-1.424Z"/>
    <path id="Path_4617" data-name="Path 4617" d="M211.777,10313.914H209a19.407,19.407,0,0,1-4.359,7.207,17.4,17.4,0,0,0,7.313,3.569,4.536,4.536,0,0,0-.95,1.3,17.4,17.4,0,0,1-7.435-3.85,20.993,20.993,0,0,1-7.313,3.867,4.322,4.322,0,0,0-.843-1.283,19.994,19.994,0,0,0,7.154-3.568,20.345,20.345,0,0,1-4.289-7.242h-2.654v-1.318h7.33v-3.041h1.353v3.041h7.471Zm-4.324,0h-7.7a17.326,17.326,0,0,0,3.868,6.276A17.105,17.105,0,0,0,207.453,10313.914Z"/>
    <path id="Path_4618" data-name="Path 4618" d="M220.664,10312.35h9.264v1.266h-9.809a25.561,25.561,0,0,1-2.179,3.674v8.649h-1.3v-7.067a14.2,14.2,0,0,1-2.092,1.828,4.455,4.455,0,0,0-.686-1.213,15,15,0,0,0,4.746-5.871H214.3v-1.266h4.9a21.009,21.009,0,0,0,.949-2.795l1.371.334Q221.263,10310.82,220.664,10312.35Zm4.518,6.908v5.063h4.746v1.248H219.117v-1.248h4.729v-5.062H219.82v-1.266h4.026v-3.427h1.336v3.427h4.06v1.266Z"/>
    <path id="Path_4619" data-name="Path 4619" d="M236.882,10315.76l.773.193a21.507,21.507,0,0,1-1.476,6.24,6.414,6.414,0,0,0,2.962,1.592,17.922,17.922,0,0,0,4.227.43q4.606,0,5.537-.018a3.971,3.971,0,0,0-.562,1.318h-5.01a18.746,18.746,0,0,1-4.544-.475,7.3,7.3,0,0,1-3.208-1.705,8.168,8.168,0,0,1-2.355,2.689,3.412,3.412,0,0,0-1-.932,7.925,7.925,0,0,0,2.461-2.777A11.69,11.69,0,0,1,233,10318.8l1.037-.387a9.091,9.091,0,0,0,1.213,2.672,16.709,16.709,0,0,0,1.02-4.1h-2.075l-.369.7-1.23-.352q1.335-2.5,2.672-5.449h-2.9v-1.2h3.569l.211-.07.914.281q-.562,1.336-2.285,4.887h1.863Zm5.291-.018v-1.336h-4.94v-1.055h4.94v-1.3H238.5V10311h3.674v-1.3h1.3v1.3h3.955v2.355h1.353v1.055h-1.353v2.426h-3.955v1.318h4.13v1.038h-4.13v1.423h4.9v1.09h-4.9v1.916h-1.3v-1.916h-4.711v-1.09h4.711v-1.423h-3.885v-1.038h3.885v-1.318h-3.8v-1.09Zm1.3-3.691v1.3h2.654v-1.3Zm2.654,3.691v-1.336h-2.654v1.336Z"/>
    <path id="Path_4620" data-name="Path 4620" d="M267.285,10317.184q-.018.58-.036.861a4.186,4.186,0,0,1-.1.644,1.047,1.047,0,0,1-.237.517,1.332,1.332,0,0,1-.431.273,1.811,1.811,0,0,1-.694.113h-.827a1.393,1.393,0,0,1-.984-.3,2.208,2.208,0,0,1-.334-1.494v-2.707h-2.5v.316a6.814,6.814,0,0,1-.053.844h1.881v.967h-2.145a4.173,4.173,0,0,1-1.81,1.986h.615v1.354h7.383v1.09h-6.346a13.655,13.655,0,0,0,3.033,1.627,19.921,19.921,0,0,0,3.647,1.081,4.66,4.66,0,0,0-.861,1.125,20.271,20.271,0,0,1-3.736-1.372,13.747,13.747,0,0,1-3.12-1.986v3.85h-1.283v-3.866a14.12,14.12,0,0,1-3.129,2.048,18.215,18.215,0,0,1-3.709,1.379,3.978,3.978,0,0,0-.844-1.072,20.151,20.151,0,0,0,3.586-1.143,13.158,13.158,0,0,0,2.971-1.67h-6.188v-1.09h7.313v-1a8.817,8.817,0,0,1-.914.387,3.263,3.263,0,0,0-.809-.878,5.384,5.384,0,0,0,2.866-1.847h-1.811v-.967H259.9a3.781,3.781,0,0,0,.088-.861v-.3h-1.53v-.949h6.434v3.709q0,.545.088.615a.45.45,0,0,0,.281.07h.475a.662.662,0,0,0,.4-.1.533.533,0,0,0,.158-.361q.036-.229.071-1.389A2.525,2.525,0,0,0,267.285,10317.184Zm-13.131-5.15h-.791a12.038,12.038,0,0,1-1.53,1.863,6.142,6.142,0,0,0-1.072-.738,9.3,9.3,0,0,0,2.567-3.674l1.248.316q-.123.3-.545,1.143h4.746v1.038a8.01,8.01,0,0,0,1.582-2.5l1.283.3a10.028,10.028,0,0,1-.562,1.16h5.906v1.09h-3.815a6.612,6.612,0,0,1,.914,1.424l-1.142.4a8.26,8.26,0,0,0-1.16-1.828h-1.442a11.717,11.717,0,0,1-1.6,1.688,8.526,8.526,0,0,0-1.16-.65,7.375,7.375,0,0,0,1.142-1.037h-3.357a6.869,6.869,0,0,1,.7,1.459l-1.09.334A10.441,10.441,0,0,0,254.154,10312.033Zm-3.094,7.225-.158-1.125,2.9-.369v-2.443h-2.531v-.984h6.223v.984h-2.461v2.286q.79-.125,2.443-.37l.053,1.055q-1.125.176-3.358.5T251.06,10319.258Z"/>
    <path id="Path_4621" data-name="Path 4621" d="M271.18,10317.184v1.67H275.5v5.379H271.18v1.213h-1.23v-13.184h1.511a17.78,17.78,0,0,0,.774-2.707l1.441.211q-.369,1.055-.984,2.5h2.637v4.922Zm2.971-3.779H271.18v2.654h2.971Zm.158,6.609H271.18v3.076h3.129Zm11.285-8.3h-4.183v2.215h3.638v7.963q0,.932-.527,1.178a5.8,5.8,0,0,1-1.986.211,4.423,4.423,0,0,0-.369-1.16q.65.018,1.388.018.246,0,.246-.264v-6.732h-2.39v10.828h-1.248v-10.828h-2.215v8.156h-1.231v-9.369h3.446v-2.215h-4.114v-1.213h9.545Z"/>
    <path id="Path_4622" data-name="Path 4622" d="M304.027,10319.838v1.055h-1.863v3.182h-1.319v-.809h-4.324v1.248a1.689,1.689,0,0,1-.185.889,1.174,1.174,0,0,1-.606.447,12.342,12.342,0,0,1-2.988.211,3.676,3.676,0,0,0-.475-1.143q.545.018,2.461.018.457-.018.457-.422v-1.248h-5.818v-1.02h5.818v-1.354H287.82v-1.055h7.365v-1.266h-5.643v-.984h5.643v-1.266h-5.15v-3.164h5.15v-1.055h-7.014v-1.09h7.014v-1.441h1.336v1.441h7.154v1.09h-7.154v1.055h5.361v3.164h-5.361v1.266h5.643v2.25Zm-12.709-4.447h3.867v-1.3h-3.867Zm9.228-1.3h-4.025v1.3h4.025Zm-4.025,4.482v1.266h4.324v-1.266Zm4.324,3.674v-1.354h-4.324v1.354Z"/>
    <path id="Path_4623" data-name="Path 4623" d="M312.334,10320.383l-.914-.457a17.477,17.477,0,0,0,.967-2.9h-1.723v7.418a1.273,1.273,0,0,1-.6,1.266,7.67,7.67,0,0,1-2.25.211,3.89,3.89,0,0,0-.4-1.229q.774.016,1.705.017c.188-.012.281-.1.281-.264v-5.783a13.694,13.694,0,0,1-2.619,4.43,6.267,6.267,0,0,0-.7-1.248,10.054,10.054,0,0,0,1.6-2.092,15.7,15.7,0,0,0,1.3-2.725h-2.725v-1.178h4.834a16.235,16.235,0,0,0-4.008-2.407l.826-.862q.722.3,1.758.826a13.424,13.424,0,0,0,1.881-1.775h-5.1v-1.178h6.065l.228-.053.862.545a12.593,12.593,0,0,1-2.936,3.059,10,10,0,0,1,1.512,1.072l-.686.773h1.336l.194-.07.808.3-.263.949a11.777,11.777,0,0,0,3.216-1.389,10.411,10.411,0,0,1-1.846-2.2,13.855,13.855,0,0,1-1.3,1.282,7.288,7.288,0,0,0-1.09-.773,10.444,10.444,0,0,0,3.41-4.395l1.283.334a15.935,15.935,0,0,1-.826,1.547h5.977v1.143H321a8.62,8.62,0,0,1-2.162,3.059,11.608,11.608,0,0,0,3.9,1.564,5,5,0,0,0-.844,1.16,13.29,13.29,0,0,1-4.078-1.916,14.265,14.265,0,0,1-3.937,1.846,4.346,4.346,0,0,0-.475-.7A14.454,14.454,0,0,1,312.334,10320.383Zm5.449-.791h4.2q-.017.369-.035.58-.422,4.482-1.178,5.238a1.788,1.788,0,0,1-1.125.475q-1.071.035-2-.018a2.966,2.966,0,0,0-.352-1.248q.966.088,1.775.088a.9.9,0,0,0,.616-.176q.526-.527.878-3.814h-3.023a8.189,8.189,0,0,1-1.617,3.174,7.628,7.628,0,0,1-3.147,2.1,3.71,3.71,0,0,0-.791-1.037,6.72,6.72,0,0,0,2.734-1.7,6.575,6.575,0,0,0,1.432-2.541h-2.794v-1.125h3.093q.141-.79.229-1.775h1.353Q317.958,10318.607,317.783,10319.592Zm1.758-7.014h-3.779a8.221,8.221,0,0,0,2.039,2.32A7.1,7.1,0,0,0,319.541,10312.578Z"/>
    <path id="Path_4624" data-name="Path 4624" d="M332.349,10319.574h-5.414a15.032,15.032,0,0,1-1.547,6.311,2.647,2.647,0,0,0-.466-.492,2.55,2.55,0,0,0-.554-.387,9.183,9.183,0,0,0,.87-2.5,17.542,17.542,0,0,0,.369-2.549q.062-1.081.062-2.576v-6.293l.879.264a24.688,24.688,0,0,0,4.8-1.564l1.107,1a30.834,30.834,0,0,1-5.467,1.617v1.582h5.362Zm-1.284-4.395h-4.078v2.232q0,.65-.017.967h4.1Zm10.055.457v1.3h-1.986v9.052h-1.3v-9.052h-3.111q-.141,5.922-3.059,9.017a3.334,3.334,0,0,0-.457-.51,2.117,2.117,0,0,0-.527-.387,9.387,9.387,0,0,0,1.467-2.092,9.211,9.211,0,0,0,.844-2.391,20.26,20.26,0,0,0,.343-2.25q.088-1,.088-2.215v-4.781l1.055.281a21.806,21.806,0,0,0,5.1-1.828l1.2,1a30.407,30.407,0,0,1-6.03,1.969v2.883Z"/>
    <path id="Path_4625" data-name="Path 4625" d="M88.719,10347.191l1.442.422a17.766,17.766,0,0,1-1.908,3.041,13.907,13.907,0,0,1-2.434,2.5,7.526,7.526,0,0,0-1.055-.914,12.457,12.457,0,0,0,2.3-2.311A12.205,12.205,0,0,0,88.719,10347.191Zm6.434,7.787,1.23-.58q1.266,1.406,2.5,3.094a26.5,26.5,0,0,1,1.89,2.883l-1.283.721q-.229-.457-.844-1.477-9.932.492-12.8.615l-.176-1.389,2.531-.088a46.9,46.9,0,0,0,3.393-7.857l1.529.387a79.826,79.826,0,0,1-3.427,7.418q.456-.018,8.068-.352A35.822,35.822,0,0,0,95.153,10354.979Zm-5.221-9.633h6.592a17.425,17.425,0,0,0,2.109,3.72,13.955,13.955,0,0,0,2.725,2.873,4.361,4.361,0,0,0-1.178.948,15.063,15.063,0,0,1-2.487-2.732,22.948,22.948,0,0,1-2.1-3.49h-5.66Z"/>
    <path id="Path_4626" data-name="Path 4626" d="M109.947,10347.543v1.09h-6.785v-1.09Zm-.633,7.225v5.186h-4.166v.844H103.97v-6.029Zm-5.309-3.727v-1.072h5.327v1.072Zm0,2.391v-1.09h5.327v1.09Zm5.274-8.243v1.071h-5.186v-1.071Zm-1.125,10.669h-3.006v3.023h3.006Zm4.482-9.544v1a5.241,5.241,0,0,1-2.3,4.692,4.972,4.972,0,0,0-.984-.879,4.226,4.226,0,0,0,2-3.832v-2.162h5.607v4.395a.644.644,0,0,0,.071.379.374.374,0,0,0,.281.078h.9q.248,0,.334-.352a9.169,9.169,0,0,0,.106-1.6,2.5,2.5,0,0,0,1.107.475,5.418,5.418,0,0,1-.369,2.1,1.069,1.069,0,0,1-1.019.535h-1.231a1.485,1.485,0,0,1-1.125-.333,2,2,0,0,1-.3-1.284v-3.216Zm5.186,5.923.861.352a11.63,11.63,0,0,1-3.041,5.309,11.664,11.664,0,0,0,4.131,1.934,4.477,4.477,0,0,0-.861,1.143,12.614,12.614,0,0,1-4.289-2.215,13.927,13.927,0,0,1-4.518,2.232,3.372,3.372,0,0,0-.721-1.177,12.5,12.5,0,0,0,4.254-1.97,12.271,12.271,0,0,1-2.514-3.937l1.178-.352a9.975,9.975,0,0,0,2.321,3.48,9.781,9.781,0,0,0,2.355-3.516h-6.8v-1.23h7.4Z"/>
    <path id="Path_4627" data-name="Path 4627" d="M128.4,10347.543v1.09h-6.785v-1.09Zm-.632,7.225v5.186H123.6v.844H122.42v-6.029Zm-5.309-3.727v-1.072h5.326v1.072Zm0,2.391v-1.09h5.326v1.09Zm5.274-8.243v1.071h-5.186v-1.071Zm-1.125,10.669H123.6v3.023H126.6Zm4.482-9.544v1a5.243,5.243,0,0,1-2.3,4.692,5,5,0,0,0-.984-.879,4.226,4.226,0,0,0,2-3.832v-2.162h5.607v4.395a.654.654,0,0,0,.07.379.377.377,0,0,0,.282.078h.9c.164,0,.276-.117.334-.352a9.17,9.17,0,0,0,.106-1.6,2.5,2.5,0,0,0,1.107.475,5.418,5.418,0,0,1-.369,2.1,1.07,1.07,0,0,1-1.02.535h-1.23a1.485,1.485,0,0,1-1.125-.333,2,2,0,0,1-.3-1.284v-3.216Zm5.185,5.923.862.352a11.63,11.63,0,0,1-3.041,5.309,11.664,11.664,0,0,0,4.131,1.934,4.48,4.48,0,0,0-.862,1.143,12.623,12.623,0,0,1-4.289-2.215,13.921,13.921,0,0,1-4.517,2.232,3.371,3.371,0,0,0-.721-1.177,12.5,12.5,0,0,0,4.254-1.97,12.271,12.271,0,0,1-2.514-3.937l1.178-.352a9.973,9.973,0,0,0,2.32,3.48,9.771,9.771,0,0,0,2.356-3.516h-6.8v-1.23h7.4Z"/>
    <path id="Path_4628" data-name="Path 4628" d="M147.146,10347.543v1.09h-7.085v-1.09Zm-.7,7.225v5.186h-4.359v.844h-1.195v-6.029Zm-5.537-3.727v-1.072h5.59v1.072Zm0,2.391v-1.09h5.59v1.09Zm5.59-8.243v1.071h-5.5v-1.071Zm-1.266,10.669h-3.146v3.023h3.146Zm11.479-5.186v1.318h-4.025v9h-1.336v-9h-4.219v-1.318h4.219v-6.064h1.336v6.064Z"/>
    <path id="Path_4629" data-name="Path 4629" d="M167.722,10349.451a1.428,1.428,0,0,1-1.933,0,1.378,1.378,0,0,1,0-1.951,1.422,1.422,0,0,1,1.933,0,1.378,1.378,0,0,1,0,1.951Zm0,8.824a1.428,1.428,0,0,1-1.933,0,1.276,1.276,0,0,1-.4-.977,1.3,1.3,0,0,1,.4-.983,1.4,1.4,0,0,1,1.933,0,1.3,1.3,0,0,1,.4.983A1.276,1.276,0,0,1,167.722,10358.275Z"/>
    <path id="Path_4630" data-name="Path 4630" d="M177.752,10360.99l-.9-.492a5.689,5.689,0,0,0,1.178-3.27l.967.246A6.3,6.3,0,0,1,177.752,10360.99Zm-.544-4.482-.071-1.16c.305-.012.835-.034,1.591-.07s1.351-.064,1.784-.087v-1.407h-2.97v-1.055h2.97v-1.247h-2.847v-6.259h7.048v6.259h-3.005v1.247h3.111v1.055h-3.111v1.336q1.089-.053,3.41-.193l-.035,1.072Q180.283,10356.35,177.208,10356.508Zm1.494-10.317v4.323h1.951v-4.323Zm.263.878.668-.176a10.237,10.237,0,0,1,.6,2.725l-.721.193A10.056,10.056,0,0,0,178.965,10347.068Zm.6,10.213.879-.088a11.131,11.131,0,0,1,.475,3.094l-.915.123A13.386,13.386,0,0,0,179.563,10357.281Zm1.723-.088.843-.176a10.966,10.966,0,0,1,.932,2.865l-.914.211A10.153,10.153,0,0,0,181.286,10357.193Zm2.355-6.68v-4.323h-2.074v4.323Zm-1.213-.58-.58-.229a22.439,22.439,0,0,0,.774-2.865l.791.281Q182.587,10349.547,182.428,10349.934Zm.563,7.014.826-.334a10.665,10.665,0,0,1,1.547,2.689l-.9.388A10.223,10.223,0,0,0,182.991,10356.947Zm10.459-7.225h-3.832v3.322h3.111v7.857h-1.266v-.773h-4.535v.844h-1.213v-7.928H188.3v-8.455h1.319v3.867h3.832Zm-1.987,9.193v-4.623h-4.535v4.623Z"/>
    <path id="Path_4631" data-name="Path 4631" d="M211.443,10347.262h-8.895a26.708,26.708,0,0,1-2.162,4.677h9.967v9.052h-1.389v-1.248h-8.543v1.266h-1.336v-7.137a15.578,15.578,0,0,1-2.988,3.041,4.779,4.779,0,0,0-.931-1.02,14.407,14.407,0,0,0,3.506-3.779,20.8,20.8,0,0,0,2.347-4.852H195.9v-1.318h15.539Zm-2.479,5.941h-8.543v5.238h8.543Z"/>
    <path id="Path_4632" data-name="Path 4632" d="M222.738,10359.285h7.33v1.2H214.213v-1.2h7.172v-2.25h-5.52v-1.2h5.52v-2.021q-1.3.035-3.507.115t-2.276.078l-.071-1.23q.387-.018,1.231-.025t1.283-.01a24.506,24.506,0,0,0,1.529-2.619h-3.322v-1.178h11.83v1.178H221.1q-.95,1.564-1.67,2.584,5.536-.141,6.539-.176-.827-.668-1.793-1.354l.949-.668a23.581,23.581,0,0,1,2.373,1.715,12.873,12.873,0,0,1,1.811,1.73l-1.02.756a11.129,11.129,0,0,0-1.055-1.09q-2.918.105-4.5.141v2.074H228.5v1.2h-5.766Zm-7.031-12.146v2.074h-1.266v-3.3h6.944v-1.336h1.353v1.336h7.084v3.3H228.5v-2.074Z"/>
    <path id="Path_4633" data-name="Path 4633" d="M247.622,10348.545v10.688a2.473,2.473,0,0,1-.167,1.012,1,1,0,0,1-.606.518,13.526,13.526,0,0,1-3.164.211,4.011,4.011,0,0,0-.44-1.354q1.863.053,2.637.018a.5.5,0,0,0,.316-.105.412.412,0,0,0,.088-.3v-9.369H241.7q1.072,4.342,4.377,5.748a6.014,6.014,0,0,0-.931,1.16,8.9,8.9,0,0,1-4.518-5.889,9.028,9.028,0,0,1-4.623,5.977,5.306,5.306,0,0,0-.9-1.055,8.171,8.171,0,0,0,4.5-5.941h-4.693v11.127H233.6v-12.445h6.539q-.141-1.055-.194-1.986h-3.234v-1.2h4.377a25.915,25.915,0,0,0,.316,3.182Z"/>
    <path id="Path_4634" data-name="Path 4634" d="M257.546,10347.543v1.09h-6.785v-1.09Zm-.632,7.225v5.186h-4.166v.844H251.57v-6.029Zm-5.309-3.727v-1.072h5.326v1.072Zm0,2.391v-1.09h5.326v1.09Zm5.273-8.243v1.071h-5.185v-1.071Zm-1.125,10.669h-3.005v3.023h3.005Zm4.483-9.544v1a5.243,5.243,0,0,1-2.3,4.692,5,5,0,0,0-.984-.879,4.226,4.226,0,0,0,2-3.832v-2.162h5.607v4.395a.646.646,0,0,0,.07.379.377.377,0,0,0,.282.078h.9q.246,0,.334-.352a9.169,9.169,0,0,0,.106-1.6,2.5,2.5,0,0,0,1.107.475,5.418,5.418,0,0,1-.369,2.1,1.07,1.07,0,0,1-1.02.535h-1.23a1.485,1.485,0,0,1-1.125-.333,2,2,0,0,1-.3-1.284v-3.216Zm5.185,5.923.862.352a11.63,11.63,0,0,1-3.041,5.309,11.664,11.664,0,0,0,4.131,1.934,4.48,4.48,0,0,0-.862,1.143,12.623,12.623,0,0,1-4.289-2.215,13.931,13.931,0,0,1-4.517,2.232,3.371,3.371,0,0,0-.721-1.177,12.517,12.517,0,0,0,4.254-1.97,12.271,12.271,0,0,1-2.514-3.937l1.178-.352a9.972,9.972,0,0,0,2.32,3.48,9.784,9.784,0,0,0,2.356-3.516h-6.8v-1.23h7.4Z"/>
    <path id="Path_4635" data-name="Path 4635" d="M276.3,10347.543v1.09h-7.084v-1.09Zm-.7,7.225v5.186h-4.359v.844h-1.2v-6.029Zm-5.537-3.727v-1.072h5.59v1.072Zm0,2.391v-1.09h5.59v1.09Zm5.59-8.243v1.071h-5.5v-1.071Zm-1.266,10.669h-3.146v3.023h3.146Zm11.479-5.186v1.318h-4.025v9H280.5v-9h-4.219v-1.318H280.5v-6.064h1.336v6.064Z"/>
    <path id="Path_4636" data-name="Path 4636" d="M89.211,10392.51l1.231.492a18.791,18.791,0,0,1-4.658,2.689,6.337,6.337,0,0,0-.967-.949A16.07,16.07,0,0,0,89.211,10392.51Zm11.6-6.187v1.09H85.028v-1.09h7.224v-1.125H87.12v-4.992H98.792v4.992h-5.2v1.125Zm-2.373,5.8H93.623v2.584a1.5,1.5,0,0,1-.149.748.844.844,0,0,1-.536.36,11.209,11.209,0,0,1-2.619.175,3.612,3.612,0,0,0-.387-1.09q.915.035,2.057.035a.452.452,0,0,0,.237-.07.246.246,0,0,0,.062-.193v-2.549H87.542v-3.762h10.9Zm-10.037-11v1.143h9.07v-1.143Zm0,2.021v1.143h9.07v-1.143Zm.4,6.205v1.775h8.315v-1.775Zm6.434,3.886.861-.757a22.777,22.777,0,0,1,4.746,2.339l-.931.825A22.4,22.4,0,0,0,95.241,10393.231Z"/>
    <path id="Path_4637" data-name="Path 4637" d="M117.488,10394.584h.826a.261.261,0,0,0,.193-.07.752.752,0,0,0,.132-.323,3.74,3.74,0,0,0,.079-.7c.012-.3.024-.713.035-1.24a3.957,3.957,0,0,0,1.02.457,7.079,7.079,0,0,1-.334,2.383,1,1,0,0,1-.984.605h-1.143a1.3,1.3,0,0,1-1.037-.324,2.074,2.074,0,0,1-.264-1.24v-3.9h-1.195a9.776,9.776,0,0,1-.835,3.691,4.551,4.551,0,0,1-2.417,2.074,3.907,3.907,0,0,0-.756-.967l.123-.07H105.57v.879h-1.108v-5.414a8.081,8.081,0,0,1-.861,1.107,5.788,5.788,0,0,0-.721-.9,10.412,10.412,0,0,0,2.338-4.043h-1.424v-3.287h3.428v3.287H105.64l.651.193q-.177.457-.528,1.284h1.969q.458-1.232.527-1.478h-.246v-3.287h3.569v3.287h-3.165l.967.264-.58,1.214h2.883v.983h-3.094v1.037h2.725v.879h-2.725v1.072h2.725v.9h-2.725v1.055h3.147v.563a3.409,3.409,0,0,0,1.424-1.643,8.621,8.621,0,0,0,.492-2.682h-1.143v-9.967h6.364v9.967h-1.706v3.9a.833.833,0,0,0,.053.379C117.259,10394.559,117.347,10394.584,117.488,10394.584Zm-12.182-11.672v-1.16h-1.969v-.967h1.969v-1.178h1.16v1.178h2.391v-1.178H110v1.178h1.881v.967H110v1.16h-1.142v-1.16h-2.391v1.16Zm-.562,1.283v1.512h1.511v-1.512Zm2.742,5.889v-1.037H105.57v1.037Zm0,1.951v-1.072H105.57v1.072Zm-1.916.9v1.055h1.916v-1.055Zm3.41-8.736v1.512H110.6v-1.512Zm4.693-2.76v1.811h3.991v-1.811Zm0,2.883v1.811h3.991v-1.811Zm0,2.883v1.846h3.991v-1.846Z"/>
    <path id="Path_4638" data-name="Path 4638" d="M128.4,10382.543v1.09h-6.785v-1.09Zm-.632,7.225v5.186H123.6v.844H122.42v-6.029Zm-5.309-3.727v-1.072h5.326v1.072Zm0,2.391v-1.09h5.326v1.09Zm5.274-8.243v1.071h-5.186v-1.071Zm-1.125,10.669H123.6v3.023H126.6Zm4.482-9.544v1a5.243,5.243,0,0,1-2.3,4.692,5,5,0,0,0-.984-.879,4.226,4.226,0,0,0,2-3.832v-2.162h5.607v4.395a.654.654,0,0,0,.07.379.377.377,0,0,0,.282.078h.9c.164,0,.276-.117.334-.352a9.17,9.17,0,0,0,.106-1.6,2.5,2.5,0,0,0,1.107.475,5.418,5.418,0,0,1-.369,2.1,1.07,1.07,0,0,1-1.02.535h-1.23a1.485,1.485,0,0,1-1.125-.333,2,2,0,0,1-.3-1.284v-3.216Zm5.185,5.923.862.352a11.63,11.63,0,0,1-3.041,5.309,11.664,11.664,0,0,0,4.131,1.934,4.48,4.48,0,0,0-.862,1.143,12.623,12.623,0,0,1-4.289-2.215,13.921,13.921,0,0,1-4.517,2.232,3.371,3.371,0,0,0-.721-1.177,12.5,12.5,0,0,0,4.254-1.97,12.271,12.271,0,0,1-2.514-3.937l1.178-.352a9.973,9.973,0,0,0,2.32,3.48,9.771,9.771,0,0,0,2.356-3.516h-6.8v-1.23h7.4Z"/>
    <path id="Path_4639" data-name="Path 4639" d="M147.146,10382.543v1.09h-7.085v-1.09Zm-.7,7.225v5.186h-4.359v.844h-1.195v-6.029Zm-5.537-3.727v-1.072h5.59v1.072Zm0,2.391v-1.09h5.59v1.09Zm5.59-8.243v1.071h-5.5v-1.071Zm-1.266,10.669h-3.146v3.023h3.146Zm11.479-5.186v1.318h-4.025v9h-1.336v-9h-4.219v-1.318h4.219v-6.064h1.336v6.064Z"/>
    <path id="Path_4640" data-name="Path 4640" d="M167.722,10384.451a1.428,1.428,0,0,1-1.933,0,1.378,1.378,0,0,1,0-1.951,1.422,1.422,0,0,1,1.933,0,1.378,1.378,0,0,1,0,1.951Zm0,8.824a1.428,1.428,0,0,1-1.933,0,1.276,1.276,0,0,1-.4-.977,1.3,1.3,0,0,1,.4-.983,1.4,1.4,0,0,1,1.933,0,1.3,1.3,0,0,1,.4.983A1.276,1.276,0,0,1,167.722,10393.275Z"/>
    <path id="Path_4641" data-name="Path 4641" d="M180.442,10379.66l1.23.352a29.615,29.615,0,0,1-1.441,3.552v12.427H179v-10.107a17.881,17.881,0,0,1-1.706,2.391,8.387,8.387,0,0,0-.685-1.354,16.445,16.445,0,0,0,2.171-3.252A24.4,24.4,0,0,0,180.442,10379.66Zm9.65,15.258h1.793a.438.438,0,0,0,.44-.219,3.615,3.615,0,0,0,.123-1.117,2.775,2.775,0,0,0,1.019.422,3.076,3.076,0,0,1-.395,1.539,1.271,1.271,0,0,1-1.064.4h-2.056a2.122,2.122,0,0,1-1.31-.282,1.531,1.531,0,0,1-.325-1.16v-3.533H185.17v1.09h2.461v.9H185.17v1.617q2.18-.192,2.62-.229l.017,1.02q-3.551.387-4.939.51l-.141-1.09,1.3-.105v-3.709h-1.09a11.2,11.2,0,0,1-1.477,4.976,3.345,3.345,0,0,0-.984-.792q1.389-2.18,1.389-6.469v-2.918h4.9v-.65H185.8v-2.3h-2.847v2.338h-.985V10382h4.852v2.69h1.213V10382H192.9v3.111h-1.02v-2.3H189.02v2.338h-.984v.615h5.291v1.02H189.6v1h3.287v3.182h-3.41v1.494a20.994,20.994,0,0,0,2.566-.932l.774.844a21.66,21.66,0,0,1-3.34,1.02v1.09c0,.2.035.322.106.369A1.118,1.118,0,0,0,190.092,10394.918Zm-2.953-14.625v.949h-5.431v-.949Zm-4.1,8.367v.035q0,.4-.035,1.389h2.162v-1.424Zm2.127-1.881h-2.127v1h2.127Zm-1.16-3.516h.774v1.723h-.774Zm4.43,4.518v-1h-2.127v1Zm-2.127,2.3h2.127v-1.424h-2.127Zm6.943-9.791v.949h-5.537v-.949Zm-1.511,8.367H189.6v1.424h2.145Zm-.932-3.674h-.773v-1.723h.773Z"/>
    <path id="Path_4642" data-name="Path 4642" d="M199.912,10392.51l1.23.492a18.791,18.791,0,0,1-4.658,2.689,6.245,6.245,0,0,0-.967-.949A16.093,16.093,0,0,0,199.912,10392.51Zm11.6-6.187v1.09H195.728v-1.09h7.225v-1.125H197.82v-4.992h11.672v4.992h-5.2v1.125Zm-2.373,5.8h-4.816v2.584a1.5,1.5,0,0,1-.15.748.841.841,0,0,1-.536.36,11.209,11.209,0,0,1-2.619.175,3.612,3.612,0,0,0-.387-1.09q.915.035,2.057.035a.452.452,0,0,0,.237-.07.246.246,0,0,0,.062-.193v-2.549h-4.746v-3.762h10.9Zm-10.037-11v1.143h9.07v-1.143Zm0,2.021v1.143h9.07v-1.143Zm.4,6.205v1.775h8.315v-1.775Zm6.434,3.886.861-.757a22.777,22.777,0,0,1,4.746,2.339l-.931.825A22.4,22.4,0,0,0,205.941,10393.231Z"/>
    <path id="Path_4643" data-name="Path 4643" d="M214.635,10380.346h14.941v15.645h-1.318v-.756h-12.34v.756h-1.283Zm1.283,13.676h12.34v-12.445h-12.34Zm10.389-4.764.861.527a15.332,15.332,0,0,1-2.25,1.53,11.229,11.229,0,0,0,2.848,1.159,3.12,3.12,0,0,0-.739.879,12.162,12.162,0,0,1-2.5-1.133,10.371,10.371,0,0,1-2.127-1.645v2.936h-1.2v-2.672a19.53,19.53,0,0,1-3.955,2.074,4.168,4.168,0,0,0-.791-.9,14.74,14.74,0,0,0,4.746-2.408H217.94v-3.041h8.367Zm1.054-4.377v.861H216.8v-.861h4.641v-1.125h-3.6v-.844h3.6v-1h1.212v1h3.762v.844H222.65v1.125Zm-8.3,2.479v1.424h6.046v-1.424Zm6.8,2.25h-3.076a8.464,8.464,0,0,0,1.389,1.23Q225.2,10390.137,225.867,10389.609Z"/>
    <path id="Path_4644" data-name="Path 4644" d="M232.558,10393.213v-.861h15.978v.861H243.79a17.139,17.139,0,0,1,2.241,1.135,15.135,15.135,0,0,1,1.872,1.273l-.914.65a7.755,7.755,0,0,0-1.3-.949q-7.576.422-11.971.633l-.141-.984,2.444-.088a12.565,12.565,0,0,0,1.107-1.67Zm4.746-7.7h-1.477a2.169,2.169,0,0,1-.826,1.223,4.762,4.762,0,0,1-1.846.693,1.921,1.921,0,0,0-.527-.7,5.083,5.083,0,0,0,1.564-.43,1.379,1.379,0,0,0,.686-.783h-1.986v-.791h3.287v-.738h-2.426v-.773h2.426v-.6h1.16v.6h2.373v.773h-2.373v.738h3.2v.791h-2.355v.545c0,.13.02.211.061.246a.421.421,0,0,0,.255.053h.967a.317.317,0,0,0,.281-.105,1.1,1.1,0,0,0,.088-.475,2.4,2.4,0,0,0,.738.281,1.335,1.335,0,0,1-.281.773.914.914,0,0,1-.668.211h-1.23a1.43,1.43,0,0,1-.879-.184,1.082,1.082,0,0,1-.211-.8Zm-.4-2.936v-.826h-4.253v-1.02H236.9v-1.178h1.319v1.178h4.64v-1.178h1.319v1.178H248.5v1.02h-4.324v.826h-1.319v-.826h-4.64v.826Zm9.756,5.8a2.066,2.066,0,0,0,.044.545c.03.082.126.123.29.123h.387a.427.427,0,0,0,.492-.422q.036-.264.071-1.389a2.381,2.381,0,0,0,.808.439,5.64,5.64,0,0,1-.211,1.775,1.108,1.108,0,0,1-1.09.545h-.72a1.169,1.169,0,0,1-.862-.3q-.3-.246-.3-1.389v-3.322h-1.494a8.151,8.151,0,0,1-.281,1.811,7.612,7.612,0,0,1,1.424,1.072l-.686.844a7.025,7.025,0,0,0-1.125-.914,6.484,6.484,0,0,1-2.461,2.549,3.261,3.261,0,0,0-.685-.633q-5.222.4-7.348.545l-.088-.879q.51-.018,3.358-.176v-.879h-2.6v-.773h2.6v-.932h1.16v.932h2.637v.773h-2.637v.809l3.164-.211v.457a6.129,6.129,0,0,0,1.969-2.2q-1.072-.6-1.705-.879l.65-.756q.3.123,1.406.668a7.009,7.009,0,0,0,.176-1.23h-2v-1h2.022v-1.23h1.072v1.23h2.566Zm-11.847,2.215h11.584v.861H234.808Zm8.841,2.619h-5.168q-.772,1.125-1.16,1.617,3.165-.105,7.049-.3a16.457,16.457,0,0,0-1.564-.756Z"/>
    <path id="Path_4645" data-name="Path 4645" d="M85.661,10418.123l.949.123a8.049,8.049,0,0,1-1.09,4.623l-.9-.439A7.622,7.622,0,0,0,85.661,10418.123Zm5.256,9.861-.915.967a24.217,24.217,0,0,0-1.9-2.742,10.522,10.522,0,0,1-2.584,4.764,3.054,3.054,0,0,0-.879-.9,8.862,8.862,0,0,0,1.477-2.039,9.072,9.072,0,0,0,.843-2.373,19.285,19.285,0,0,0,.352-2.338q.088-1.072.088-2.5v-6.047H88.6v5.66a15.624,15.624,0,0,0,1.354-3.234l1.09.457q-1.284,2.6-1.635,3.2l-.809-.387v.352a28.108,28.108,0,0,1-.228,3.99Q88.842,10425.348,90.917,10427.984Zm9.263-11.162.862.756q-1,.756-1.987,1.354a8.937,8.937,0,0,0,2.549,1.882,4.218,4.218,0,0,0-.861,1.019,9.594,9.594,0,0,1-2.532-2.039v.861h-5.08v-.756a9.714,9.714,0,0,1-2.865,2.408,3.4,3.4,0,0,0-.7-.9,8.052,8.052,0,0,0,2.83-2.355,11.072,11.072,0,0,0-1.424-1.23l.668-.738a9.1,9.1,0,0,1,1.389,1.09,9.15,9.15,0,0,0,.9-1.846H91.163v-1.02h3.216l.211-.053.7.3a11.514,11.514,0,0,1-1.88,4.009h4.6a14.412,14.412,0,0,1-2.566-4.782l1.054-.281a10.937,10.937,0,0,0,.774,1.846,11.667,11.667,0,0,0,1.512-1.441l.861.721q-.861.738-1.951,1.512a9.557,9.557,0,0,0,.756,1.107A15.351,15.351,0,0,0,100.18,10416.822Zm-10.037,13.746v-1.125h10.863v1.125Zm9.4-8.578v4.078H91.795v-4.078Zm-4.9,6.979-1.16.422a7.086,7.086,0,0,0-.949-2.654l1.107-.352A8.384,8.384,0,0,1,94.643,10428.969Zm3.639-3.937v-2H93.008v2Zm-.686,4.342-1.09-.334a12.074,12.074,0,0,0,1-2.742l1.3.316Q97.948,10428.652,97.6,10429.373Z"/>
    <path id="Path_4646" data-name="Path 4646" d="M115.132,10429.707h2.338a.666.666,0,0,0,.686-.545,13.411,13.411,0,0,0,.228-2.479,3.342,3.342,0,0,0,1.231.6,8.11,8.11,0,0,1-.519,2.936,1.563,1.563,0,0,1-1.52.738h-2.584a2.388,2.388,0,0,1-1.609-.4,2.114,2.114,0,0,1-.43-1.547v-6.346h-3.305a21.113,21.113,0,0,1-.29,2.242,10.746,10.746,0,0,1-.58,1.951,6.229,6.229,0,0,1-1,1.714,7.185,7.185,0,0,1-1.573,1.353,9.855,9.855,0,0,1-2.286,1.072,3.472,3.472,0,0,0-.36-.605,2.841,2.841,0,0,0-.466-.537,8.707,8.707,0,0,0,2.118-.922,6.407,6.407,0,0,0,1.424-1.16,4.913,4.913,0,0,0,.879-1.477,9.03,9.03,0,0,0,.492-1.68,18.919,18.919,0,0,0,.238-1.951h-4.8v-1.283h7.242v-6.82h1.336v6.82h7.4v1.283h-5.115v6.328a.782.782,0,0,0,.158.59A1.14,1.14,0,0,0,115.132,10429.707Zm-6.8-9.861-1.266.511a16.79,16.79,0,0,0-2.127-4.466l1.213-.457A15.355,15.355,0,0,1,108.33,10419.846Zm8.367-4.605,1.353.492a36.139,36.139,0,0,1-2.5,4.57l-1.125-.457A23.391,23.391,0,0,0,116.7,10415.24Z"/>
    <path id="Path_4647" data-name="Path 4647" d="M128.4,10417.543v1.09h-6.785v-1.09Zm-.632,7.225v5.186H123.6v.844H122.42v-6.029Zm-5.309-3.727v-1.072h5.326v1.072Zm0,2.391v-1.09h5.326v1.09Zm5.274-8.243v1.071h-5.186v-1.071Zm-1.125,10.669H123.6v3.023H126.6Zm4.482-9.544v1a5.243,5.243,0,0,1-2.3,4.692,5,5,0,0,0-.984-.879,4.226,4.226,0,0,0,2-3.832v-2.162h5.607v4.395a.654.654,0,0,0,.07.379.377.377,0,0,0,.282.078h.9c.164,0,.276-.117.334-.352a9.17,9.17,0,0,0,.106-1.6,2.5,2.5,0,0,0,1.107.475,5.418,5.418,0,0,1-.369,2.1,1.07,1.07,0,0,1-1.02.535h-1.23a1.485,1.485,0,0,1-1.125-.333,2,2,0,0,1-.3-1.284v-3.216Zm5.185,5.923.862.352a11.63,11.63,0,0,1-3.041,5.309,11.664,11.664,0,0,0,4.131,1.934,4.48,4.48,0,0,0-.862,1.143,12.623,12.623,0,0,1-4.289-2.215,13.921,13.921,0,0,1-4.517,2.232,3.371,3.371,0,0,0-.721-1.177,12.5,12.5,0,0,0,4.254-1.97,12.271,12.271,0,0,1-2.514-3.937l1.178-.352a9.973,9.973,0,0,0,2.32,3.48,9.771,9.771,0,0,0,2.356-3.516h-6.8v-1.23h7.4Z"/>
    <path id="Path_4648" data-name="Path 4648" d="M147.146,10417.543v1.09h-7.085v-1.09Zm-.7,7.225v5.186h-4.359v.844h-1.195v-6.029Zm-5.537-3.727v-1.072h5.59v1.072Zm0,2.391v-1.09h5.59v1.09Zm5.59-8.243v1.071h-5.5v-1.071Zm-1.266,10.669h-3.146v3.023h3.146Zm11.479-5.186v1.318h-4.025v9h-1.336v-9h-4.219v-1.318h4.219v-6.064h1.336v6.064Z"/>
    <path id="Path_4649" data-name="Path 4649" d="M167.722,10419.451a1.428,1.428,0,0,1-1.933,0,1.378,1.378,0,0,1,0-1.951,1.422,1.422,0,0,1,1.933,0,1.378,1.378,0,0,1,0,1.951Zm0,8.824a1.428,1.428,0,0,1-1.933,0,1.276,1.276,0,0,1-.4-.977,1.3,1.3,0,0,1,.4-.983,1.4,1.4,0,0,1,1.933,0,1.3,1.3,0,0,1,.4.983A1.276,1.276,0,0,1,167.722,10428.275Z"/>
    <path id="Path_4650" data-name="Path 4650" d="M179.844,10417.262v3.938q0,6.469-1.9,9.633a3.952,3.952,0,0,0-1.108-.686q1.74-2.865,1.741-8.947v-5.115h6.4v-1.512h1.318v1.512h6.838v1.178h-3.269v1.179h2.953v.9h-2.953v2.057h-6.715v-2.057h-3.111v-.9h3.111v-1.179Zm4.448,11.427,1.089.72a17.1,17.1,0,0,1-4.8,1.617,11.866,11.866,0,0,0-.809-.879,19.156,19.156,0,0,0,2.487-.633A11.637,11.637,0,0,0,184.292,10428.688Zm8.771-5.644h-6.012v.879h4.922v4.535h-10.81v-4.535h4.64v-.879h-5.765v-.932h13.025Zm-10.687,1.652v1.107H185.8v-1.107Zm0,1.863v1.125H185.8v-1.125Zm6.169-8.12v-1.179h-4.113v1.179Zm0,2.108v-1.213h-4.113v1.213Zm2.163,4.148h-3.657v1.107h3.657Zm0,2.988v-1.125h-3.657v1.125Zm-3.129,1.811.914-.756a40.432,40.432,0,0,1,4.763,1.512l-1.23.791A28.126,28.126,0,0,0,187.579,10429.5Z"/>
    <path id="Path_4651" data-name="Path 4651" d="M199.4,10418.457l1.178.4a27.044,27.044,0,0,1-1.459,2.531v9.6h-1.248v-7.822q-1,1.283-1.776,2.092a7.245,7.245,0,0,0-.826-1.178,17.739,17.739,0,0,0,2.25-2.566A21.369,21.369,0,0,0,199.4,10418.457Zm-.334-3.885,1.2.475a25.384,25.384,0,0,1-4.148,4.254,5.005,5.005,0,0,0-.756-.967,20.17,20.17,0,0,0,2.065-1.818A13.122,13.122,0,0,0,199.068,10414.572Zm1.775,16.137-.984-.7a5.221,5.221,0,0,0,1.635-3.129l1.107.334A6.293,6.293,0,0,1,200.843,10430.709Zm11.039-6.644v1.089h-7a12,12,0,0,1,2.936,1.6l-.721.9a12.316,12.316,0,0,0-3.023-1.74l.615-.756h-4.184v-1.089Zm-10.529-5.625h3.832q.089-.6.158-1.319h-4.781v-1.09h4.887c.011-.105.029-.341.053-.711s.04-.643.052-.818l1.371.07-.176,1.459h5.045v1.09h-5.167c-.024.188-.056.444-.1.766s-.068.506-.079.554h4.693v4.429h-9.791Zm2.883,3.444v-2.461h-1.828v2.461Zm1.125,7.787h1.951a.472.472,0,0,0,.483-.254,4.328,4.328,0,0,0,.15-1.24,2.579,2.579,0,0,0,1.072.457,3.516,3.516,0,0,1-.413,1.705,1.323,1.323,0,0,1-1.134.439H205.2a2.164,2.164,0,0,1-1.4-.316,1.671,1.671,0,0,1-.343-1.23v-2.443h1.231v2.426c0,.2.038.326.114.379A1.185,1.185,0,0,0,205.361,10429.672Zm1.74-7.787v-2.461H205.22v2.461Zm.984-2.461v2.461H210v-2.461Zm.493,7.717.984-.51a12.072,12.072,0,0,1,2.408,3.393l-1.054.563a10.109,10.109,0,0,0-.958-1.7A14.425,14.425,0,0,0,208.578,10427.141Z"/>
    <path id="Path_4652" data-name="Path 4652" d="M225.832,10429.707h2.338a.665.665,0,0,0,.685-.545,13.286,13.286,0,0,0,.229-2.479,3.342,3.342,0,0,0,1.231.6,8.133,8.133,0,0,1-.519,2.936,1.566,1.566,0,0,1-1.521.738h-2.584a2.385,2.385,0,0,1-1.608-.4,2.113,2.113,0,0,1-.431-1.547v-6.346h-3.3a21.38,21.38,0,0,1-.29,2.242,10.752,10.752,0,0,1-.581,1.951,6.2,6.2,0,0,1-1,1.714,7.192,7.192,0,0,1-1.574,1.353,9.827,9.827,0,0,1-2.285,1.072,3.473,3.473,0,0,0-.36-.605,2.841,2.841,0,0,0-.466-.537,8.741,8.741,0,0,0,2.118-.922,6.407,6.407,0,0,0,1.424-1.16,4.954,4.954,0,0,0,.879-1.477,9.185,9.185,0,0,0,.492-1.68,18.671,18.671,0,0,0,.237-1.951h-4.8v-1.283h7.242v-6.82h1.336v6.82h7.4v1.283h-5.115v6.328a.782.782,0,0,0,.158.59A1.14,1.14,0,0,0,225.832,10429.707Zm-6.8-9.861-1.265.511a16.79,16.79,0,0,0-2.127-4.466l1.213-.457A15.348,15.348,0,0,1,219.029,10419.846Zm8.367-4.605,1.354.492a36.138,36.138,0,0,1-2.5,4.57l-1.125-.457A23.332,23.332,0,0,0,227.4,10415.24Z"/>
    <path id="Path_4653" data-name="Path 4653" d="M239.852,10422.553v-4.112H234.21v2.513H233v-3.48h6.855v-1.107h-5.835v-1.037H247.1v1.037h-5.942v1.107h6.979v3.48h-1.248v-2.513h-5.731v4.112Zm2.567,7.225h4.008a.972.972,0,0,0,.923-.387,4.786,4.786,0,0,0,.29-1.74,3.335,3.335,0,0,0,1.177.457,4.247,4.247,0,0,1-.588,2.189,2.172,2.172,0,0,1-1.714.535h-4.149a3.951,3.951,0,0,1-2.048-.359,1.648,1.648,0,0,1-.518-1.434v-.58h-3.99v.949h-1.284v-6.258h12.129v5.309h-5.572v.58a.632.632,0,0,0,.246.6A2.618,2.618,0,0,0,242.419,10429.777Zm-7.629-7.7v-.844h4.149v.844Zm4.149-2.672v.826h-3.8v-.826Zm.861,4.729h-3.99v1.23h3.99Zm-3.99,3.357h3.99v-1.213h-3.99Zm9.544-2.127v-1.23h-4.271v1.23Zm-4.271,2.127h4.271v-1.213h-4.271Zm1.019-8.086h3.85v.826H242.1Zm0,2.672v-.844h4.29v.844Z"/>
    <path id="Path_4654" data-name="Path 4654" d="M89.282,10455.76l.773.193a21.539,21.539,0,0,1-1.476,6.24,6.409,6.409,0,0,0,2.962,1.592,17.922,17.922,0,0,0,4.227.43q4.6,0,5.537-.018a3.971,3.971,0,0,0-.562,1.318h-5.01a18.746,18.746,0,0,1-4.544-.475,7.3,7.3,0,0,1-3.208-1.705,8.168,8.168,0,0,1-2.355,2.689,3.415,3.415,0,0,0-1-.932,7.905,7.905,0,0,0,2.461-2.777,11.714,11.714,0,0,1-1.687-3.516l1.037-.387a9.09,9.09,0,0,0,1.213,2.672,16.71,16.71,0,0,0,1.02-4.1H86.592l-.369.7-1.23-.352q1.335-2.5,2.672-5.449h-2.9v-1.2h3.569l.21-.07.915.281q-.562,1.336-2.286,4.887h1.864Zm5.291-.018v-1.336h-4.94v-1.055h4.94v-1.3H90.9V10451h3.674v-1.3h1.3v1.3h3.956v2.355h1.353v1.055H99.829v2.426H95.873v1.318H100v1.038H95.873v1.423h4.9v1.09h-4.9v1.916h-1.3v-1.916H89.862v-1.09h4.711v-1.423H90.688v-1.038h3.885v-1.318h-3.8v-1.09Zm1.3-3.691v1.3h2.655v-1.3Zm2.655,3.691v-1.336H95.873v1.336Z"/>
    <path id="Path_4655" data-name="Path 4655" d="M104.515,10466.078l-1.283-.58a14.547,14.547,0,0,0,2.355-3.674l1.266.369A17.691,17.691,0,0,1,104.515,10466.078Zm.879-5.5v.914h-1.266v-11.162h5.2v10.248Zm2.707-9.035h-2.707v3.129H108.1Zm-2.707,7.822H108.1v-3.516h-2.707Zm3.147,2.988,1.248-.123a21.935,21.935,0,0,1,.439,3.5l-1.3.212A19,19,0,0,0,108.541,10462.352Zm9.087-10.846h-3.2a5.8,5.8,0,0,1-1.248,2.787,6.085,6.085,0,0,1-2.883,1.643,2.994,2.994,0,0,0-.72-1,5.335,5.335,0,0,0,2.461-1.273,4.3,4.3,0,0,0,1.072-2.154h-2.988v-1.2h8.841c-.011.234-.023.41-.035.527q-.123,1.986-.272,2.865a2.369,2.369,0,0,1-.449,1.2,1.384,1.384,0,0,1-1.037.422,13.092,13.092,0,0,1-2.021-.018,2.621,2.621,0,0,0-.352-1.107q.986.088,1.793.088a.746.746,0,0,0,.563-.158A6.223,6.223,0,0,0,117.628,10451.506Zm.827,4.693v4.939H110.65v-4.939Zm-1.3,3.832v-2.742h-5.238v2.742Zm-4.781,2.268,1.248-.246a17.247,17.247,0,0,1,1.177,3.516l-1.318.334A18.6,18.6,0,0,0,112.373,10462.3Zm3.656-.105,1.195-.51a22.848,22.848,0,0,1,2.338,3.779l-1.283.563A22.153,22.153,0,0,0,116.029,10462.193Z"/>
    <path id="Path_4656" data-name="Path 4656" d="M124.055,10459.24h3.48c-.012.258-.023.439-.035.545q-.211,2.777-.448,4.043a3.809,3.809,0,0,1-.607,1.688,1.527,1.527,0,0,1-1.09.475,11.127,11.127,0,0,1-1.863-.018,2.563,2.563,0,0,0-.351-1.159q.756.069,1.722.069a.638.638,0,0,0,.58-.176q.51-.475.791-4.342h-2.443q-.159.668-.3,1.143l-1.195-.211q.563-1.916.9-3.639h-1.547v-1.2h6.733v1.2h-3.955Zm3.55-9v4.957h-5.132v-4.957Zm-1.248,3.85v-2.742h-2.689v2.742Zm3.727.123v3.48q0,5.625-1.916,8.4a2.724,2.724,0,0,0-1.02-.738q1.723-2.514,1.723-7.664v-4.587h3.516v-3.552h1.283v1.266h3.621v1.072H133.67v1.214h3.48l.194-.054.844.211q-.371,1.881-.739,3.182l-1-.246q.229-1.141.352-1.986Zm1.441,5.5H132.7a12.819,12.819,0,0,1-.712,4,4.58,4.58,0,0,1-2.153,2.346,2.535,2.535,0,0,0-.773-.967,3.649,3.649,0,0,0,1.863-1.924A11.116,11.116,0,0,0,131.525,10459.715Zm2.69-1.758h1.652a.436.436,0,0,0,.422-.193,2.6,2.6,0,0,0,.123-.932,3.67,3.67,0,0,0,1.02.387,2.5,2.5,0,0,1-.369,1.371,1.3,1.3,0,0,1-1.038.352h-1.951a2.176,2.176,0,0,1-1.309-.271,1.442,1.442,0,0,1-.325-1.117v-.721l-1.829.176-.123-.932,1.952-.211v-1.547h1.212v1.424l2.145-.211.123.932-2.268.229v.844a.447.447,0,0,0,.1.344A.86.86,0,0,0,134.215,10457.957Zm1.09,6.152c0,.27.181.4.545.4h.632c.446,0,.7-.157.756-.475a12.932,12.932,0,0,0,.071-1.775,2.8,2.8,0,0,0,.984.545,10.388,10.388,0,0,1-.176,2.039q-.281.861-1.529.861h-1a1.653,1.653,0,0,1-1.072-.281.8.8,0,0,1-.3-.446,3.972,3.972,0,0,1-.07-.89v-4.377h1.16Z"/>
    <path id="Path_4657" data-name="Path 4657" d="M146.126,10463.705h-3.48v1.477H141.5v-5.941a11.349,11.349,0,0,1-.9,1.547,4.571,4.571,0,0,0-.791-1.178q1.705-2.514,2.514-7.963h-2.092v-1.23h6.574v1.23h-3.2a36.607,36.607,0,0,1-.9,4.359h3.41Zm-1.16-1.178v-5.379h-2.32v5.379Zm1.986,2.654-.931-.545a7.15,7.15,0,0,0,1.3-3.9l1,.247A7.835,7.835,0,0,1,146.952,10465.182Zm5.52-6.5h3.779q0,.387-.018.563-.14,3.113-.334,4.475a3.771,3.771,0,0,1-.545,1.767,1.47,1.47,0,0,1-1.054.509,12.643,12.643,0,0,1-1.986-.018,2.49,2.49,0,0,0-.317-1.159q.95.086,1.74.087a.786.786,0,0,0,.58-.193q.457-.545.668-4.851h-7.418v-9.528h8.315v1.178h-3.41v1.635h3.005v1.072h-3.005v1.67h3.005v1.09h-3.005Zm-1.2-7.172H148.8v1.635h2.478Zm0,4.377v-1.67H148.8v1.67Zm-2.478,1.09v1.705h2.478v-1.705Zm.246,4.324.914-.158a15,15,0,0,1,.352,3.3l-1,.158A15.56,15.56,0,0,0,149.044,10461.3Zm1.916-.158.861-.229a10.316,10.316,0,0,1,.844,2.742l-.914.264A12.385,12.385,0,0,0,150.96,10461.139Zm3.762,1.389-.774.387a9.338,9.338,0,0,0-1.213-2.162l.739-.316A8.847,8.847,0,0,1,154.722,10462.527Z"/>
    <path id="Path_4658" data-name="Path 4658" d="M167.722,10454.451a1.428,1.428,0,0,1-1.933,0,1.378,1.378,0,0,1,0-1.951,1.422,1.422,0,0,1,1.933,0,1.378,1.378,0,0,1,0,1.951Zm0,8.824a1.428,1.428,0,0,1-1.933,0,1.276,1.276,0,0,1-.4-.977,1.3,1.3,0,0,1,.4-.983,1.4,1.4,0,0,1,1.933,0,1.3,1.3,0,0,1,.4.983A1.276,1.276,0,0,1,167.722,10463.275Z"/>
    <path id="Path_4659" data-name="Path 4659" d="M184.988,10468.17a17.062,17.062,0,0,1,0-18.281l1.019.475a17.43,17.43,0,0,0,0,17.314Z"/>
    <path id="Path_4660" data-name="Path 4660" d="M188.795,10464.619v-1.371h2.935v-9.844h-2.337v-1.037a8.037,8.037,0,0,0,2.742-.949h1.248v11.83h2.654v1.371Z"/>
    <path id="Path_4661" data-name="Path 4661" d="M202.657,10464.848a3.409,3.409,0,0,1-3.032-1.748,9.731,9.731,0,0,1-1.1-5.125,9.539,9.539,0,0,1,1.1-5.08,3.507,3.507,0,0,1,6.038,0,9.594,9.594,0,0,1,1.09,5.08,9.787,9.787,0,0,1-1.09,5.125A3.376,3.376,0,0,1,202.657,10464.848Zm0-1.3a2.035,2.035,0,0,0,1.828-1.379,10.049,10.049,0,0,0,.668-4.193,9.79,9.79,0,0,0-.659-4.121,2.027,2.027,0,0,0-1.837-1.346,2.06,2.06,0,0,0-1.854,1.346,9.574,9.574,0,0,0-.677,4.121,9.946,9.946,0,0,0,.677,4.193A2.061,2.061,0,0,0,202.657,10463.547Z"/>
    <path id="Path_4662" data-name="Path 4662" d="M211.65,10464.619a25.552,25.552,0,0,1,.984-6.469,19,19,0,0,1,2.725-5.326h-6.4v-1.406h8.262v1a16.4,16.4,0,0,0-2.953,5.414,28.9,28.9,0,0,0-.914,6.785Z"/>
    <path id="Path_4663" data-name="Path 4663" d="M220.292,10468.17l-1-.492a17.43,17.43,0,0,0,0-17.314l1-.475a16.976,16.976,0,0,1,0,18.281Z"/>
    <path id="Path_4664" data-name="Path 4664" d="M231.675,10457.94l-.826,1a24.222,24.222,0,0,0-1.371-2.479v9.527H228.2v-8.262a18.537,18.537,0,0,1-1.863,4.641,6.257,6.257,0,0,0-.686-1.318,14.112,14.112,0,0,0,1.424-3.023,25.089,25.089,0,0,0,1.037-3.762h-2.2v-1.248H228.2v-3.463h1.283v3.463h1.74v1.248h-1.74v.58q.405.527,1.2,1.627T231.675,10457.94Zm2.953-.985v-7.383h1.213v7.383q0,1.125-.07,2a14.475,14.475,0,0,1-.316,1.979,8.851,8.851,0,0,1-.668,1.958,7.252,7.252,0,0,1-1.213,1.715,7.51,7.51,0,0,1-1.864,1.449,3.819,3.819,0,0,0-.843-.984,6.542,6.542,0,0,0,3.656-5.59q-1.266,1.09-2.654,2.215l-.651-1.2q.756-.51,3.393-2.408C234.623,10457.828,234.628,10457.447,234.628,10456.955Zm-.246-1.055-1.037.492a18.114,18.114,0,0,0-1.582-3.744l.985-.387A16.157,16.157,0,0,1,234.382,10455.9Zm4.957,8.631h1.494c.188,0,.311-.143.37-.43a12.916,12.916,0,0,0,.123-1.768,3.459,3.459,0,0,0,1.142.527,6.032,6.032,0,0,1-.413,2.25,1.188,1.188,0,0,1-1.151.615h-1.74a1.556,1.556,0,0,1-1.257-.4,2.729,2.729,0,0,1-.325-1.6v-14.15h1.248v8.525l.509-.457a25.283,25.283,0,0,1,3.094,3.059l-.844.844a22.739,22.739,0,0,0-2.759-2.918v5.115a1.5,1.5,0,0,0,.087.65C238.976,10464.484,239.117,10464.531,239.339,10464.531Zm1.565-12.428,1.23.527q-1.476,2.777-2.092,3.709l-.949-.475A20.608,20.608,0,0,0,240.9,10452.1Z"/>
    <path id="Path_4665" data-name="Path 4665" d="M260.566,10453.352h-7.435v2.426h5.783v6.311a1.954,1.954,0,0,1-.167.906,1.054,1.054,0,0,1-.606.465,12.141,12.141,0,0,1-3.164.246,5.741,5.741,0,0,0-.457-1.318q1.212.035,2.6.035a.815.815,0,0,0,.317-.1.276.276,0,0,0,.087-.238v-5.027h-4.394v8.982H251.76v-8.982h-4.114v6.715H246.31v-8h5.45v-2.426h-7.295v-1.318h7.277v-2.549h1.406v2.549h7.418Z"/>
    <path id="Path_4666" data-name="Path 4666" d="M270.843,10450.24l1.177.387a26.835,26.835,0,0,1-2.566,4.43h2.637v1.16h-3.516a25.663,25.663,0,0,1-2.039,2.215H270a7.11,7.11,0,0,0-1.529-1.493l.879-.669a6.631,6.631,0,0,1,1.67,1.547l-.774.615h.949v7.207h-1.23v-.756h-3.9v.914h-1.2v-5.906a14.6,14.6,0,0,1-1.652,1.178,7.031,7.031,0,0,0-.879-1.037,20.174,20.174,0,0,0,4.623-3.814h-4.219v-1.16h3.3v-2.162h-2.531v-1.16h2.531v-2.092h1.23v2.092h2.356v.826A17.816,17.816,0,0,0,270.843,10450.24Zm-.879,10.881v-1.617h-3.9v1.617Zm-3.9,2.689h3.9v-1.652h-3.9Zm1.213-8.754h.651a24.3,24.3,0,0,0,1.511-2.162h-2.162Zm11-4.535.949.615q-1.476,3.287-2.583,5.4a5.955,5.955,0,0,1,2.355,4.359q.036,2.514-2.127,2.76a10.981,10.981,0,0,1-1.67.018,3.081,3.081,0,0,0-.387-1.318,4.994,4.994,0,0,0,2.356-.158q.563-.316.527-1.424,0-2.057-2.443-4.043.949-1.846,2.215-4.887H274.1v14.15h-1.319v-15.416h5.274Z"/>
    <path id="Path_4667" data-name="Path 4667" d="M285.724,10455.76l.774.193a21.505,21.505,0,0,1-1.477,6.24,6.419,6.419,0,0,0,2.962,1.592,17.922,17.922,0,0,0,4.227.43q4.607,0,5.538-.018a3.973,3.973,0,0,0-.563,1.318h-5.01a18.746,18.746,0,0,1-4.544-.475,7.3,7.3,0,0,1-3.208-1.705,8.146,8.146,0,0,1-2.355,2.689,3.412,3.412,0,0,0-1-.932,7.915,7.915,0,0,0,2.461-2.777,11.714,11.714,0,0,1-1.688-3.516l1.038-.387a9.064,9.064,0,0,0,1.212,2.672,16.708,16.708,0,0,0,1.02-4.1h-2.074l-.369.7-1.231-.352q1.336-2.5,2.672-5.449h-2.9v-1.2h3.568l.211-.07.914.281q-.562,1.336-2.285,4.887h1.863Zm5.291-.018v-1.336h-4.939v-1.055h4.939v-1.3h-3.674V10451h3.674v-1.3h1.3v1.3h3.955v2.355h1.353v1.055h-1.353v2.426h-3.955v1.318h4.131v1.038h-4.131v1.423h4.9v1.09h-4.9v1.916h-1.3v-1.916H286.3v-1.09h4.711v-1.423H287.13v-1.038h3.885v-1.318h-3.8v-1.09Zm1.3-3.691v1.3h2.654v-1.3Zm2.654,3.691v-1.336h-2.654v1.336Z"/>
    <path id="Path_4668" data-name="Path 4668" d="M311.047,10453.07h3.393q-.105,7.207.07,9.158.193,2.268.774,2.426.053.018.105-.4t.1-1.143q.044-.721.044-1.529a3.594,3.594,0,0,0,.843.826,13.066,13.066,0,0,1-.254,2.418,1.93,1.93,0,0,1-.51,1.08.788.788,0,0,1-.782.053,1.8,1.8,0,0,1-1.029-1.178,8.728,8.728,0,0,1-.492-2.486q-.114-1.521-.149-3.56t0-4.413h-2.11v.633a25.422,25.422,0,0,1-.263,3.9,14.527,14.527,0,0,1,2.127,2.039l-.791,1.055a14.516,14.516,0,0,0-1.635-1.705,10.617,10.617,0,0,1-3.832,5.783,3.879,3.879,0,0,0-1.02-.826,9.836,9.836,0,0,0,3.762-5.854,22.812,22.812,0,0,0-2.2-1.582l.72-.914q.74.439,1.7,1.143a22.6,22.6,0,0,0,.194-3.041v-.633h-2.162v1.09h-2.039l1,.264q-.528,1.477-1,2.5h1.775v1.178H304.3v1.863h2.813v1.143H304.3v3.6h-1.248v-3.6h-2.935v-1.143h2.935v-1.863H299.9v-1.178H301.7a10.74,10.74,0,0,0-.791-2.5l1-.264a7.986,7.986,0,0,1,.879,2.566l-.633.193h2.988l-.58-.176a15.085,15.085,0,0,0,.914-2.584h-5.818v-1.143h3.392v-1.705h-2.707v-1.16h2.707v-1.846H304.3v1.846h2.637v1.16H304.3v1.705h3.059v-1.2h2.461v-3.5h1.23Z"/>
    <path id="Path_4669" data-name="Path 4669" d="M319.408,10466.078l-1.284-.58a14.576,14.576,0,0,0,2.356-3.674l1.266.369A17.73,17.73,0,0,1,319.408,10466.078Zm.879-5.5v.914h-1.266v-11.162h5.2v10.248Zm2.707-9.035h-2.707v3.129h2.707Zm-2.707,7.822h2.707v-3.516h-2.707Zm3.146,2.988,1.248-.123a21.956,21.956,0,0,1,.44,3.5l-1.3.212A18.927,18.927,0,0,0,323.433,10462.352Zm9.088-10.846h-3.2a5.819,5.819,0,0,1-1.248,2.787,6.1,6.1,0,0,1-2.883,1.643,2.983,2.983,0,0,0-.721-1,5.33,5.33,0,0,0,2.461-1.273,4.286,4.286,0,0,0,1.072-2.154h-2.988v-1.2h8.842c-.012.234-.024.41-.035.527q-.123,1.986-.273,2.865a2.37,2.37,0,0,1-.448,1.2,1.386,1.386,0,0,1-1.037.422,13.105,13.105,0,0,1-2.022-.018,2.621,2.621,0,0,0-.351-1.107q.984.088,1.793.088a.743.743,0,0,0,.562-.158A6.216,6.216,0,0,0,332.521,10451.506Zm.826,4.693v4.939h-7.8v-4.939Zm-1.3,3.832v-2.742h-5.238v2.742Zm-4.781,2.268,1.248-.246a17.26,17.26,0,0,1,1.178,3.516l-1.318.334A18.538,18.538,0,0,0,327.265,10462.3Zm3.656-.105,1.2-.51a22.983,22.983,0,0,1,2.338,3.779l-1.284.563A22.022,22.022,0,0,0,330.921,10462.193Z"/>
    <path id="Path_4670" data-name="Path 4670" d="M352.465,10459.205v1.266h-7v3.867a1.838,1.838,0,0,1-.185.914,1.137,1.137,0,0,1-.659.475,12.637,12.637,0,0,1-3.059.229,4.89,4.89,0,0,0-.615-1.318q2.022.053,2.707.018a.582.582,0,0,0,.325-.088.315.315,0,0,0,.08-.246v-3.85h-6.979v-1.266h6.979v-1.336h.667a13.556,13.556,0,0,0,2.532-1.916h-7.278v-1.23h8.526l.281-.07.9.668a15.383,15.383,0,0,1-4.219,3.322v.563Zm-13.9-6.451v2.953h-1.318v-4.2h6.785v-1.969h1.389v1.969h6.82v4.2h-1.371v-2.953Z"/>
    <path id="Path_4671" data-name="Path 4671" d="M358.347,10452.191h-.7a13.854,13.854,0,0,1-1.705,2.215,6.345,6.345,0,0,0-1.09-.721,10.368,10.368,0,0,0,2.689-4.2l1.266.316q-.141.387-.58,1.318h4.728v1.072h-3.3a8.244,8.244,0,0,1,.65,1.652l-1.143.457A10.143,10.143,0,0,0,358.347,10452.191Zm5.5,8h6.837c-.011.233-.023.416-.035.544q-.333,3.41-.949,4.025a1.6,1.6,0,0,1-1.142.439q-.774.053-2.268,0a2.381,2.381,0,0,0-.352-1.23q.879.07,2.039.07a1.061,1.061,0,0,0,.633-.123,5.613,5.613,0,0,0,.633-2.566h-5.4v4.641h-1.3v-4.236a15,15,0,0,1-3.05,2.3,18.067,18.067,0,0,1-3.612,1.635,4.776,4.776,0,0,0-.844-1.055,18.329,18.329,0,0,0,3.4-1.354,14.575,14.575,0,0,0,2.927-1.934h-3.551l-.1.344a2.605,2.605,0,0,1-.079.254l-1.3-.193q.686-2.284,1.107-4.359h5.1v-1.811h-5.977v-1.143h13.078v4.1h-5.8Zm-1.3-1.653h-4.025c-.047.2-.118.484-.212.854s-.158.635-.193.8h4.43Zm2.707-7.418H371.3v1.072h-4.008a8.081,8.081,0,0,1,1.037,1.688l-1.178.457a8.267,8.267,0,0,0-1.265-2.145H364.6a11.866,11.866,0,0,1-1.863,2.145,5.669,5.669,0,0,0-1.072-.772,8.618,8.618,0,0,0,1.714-1.812,9.59,9.59,0,0,0,1.2-2.268l1.283.316A10.983,10.983,0,0,1,365.255,10451.119Zm-1.406,4.465v1.811h4.482v-1.811Z"/>
    <path id="Path_4672" data-name="Path 4672" d="M380.874,10449.555h1.249a16.4,16.4,0,0,0,3.612,2.611,21.715,21.715,0,0,0,4.28,1.8,6.651,6.651,0,0,0-.791,1.107,24.439,24.439,0,0,1-4.43-2.057v.773h-6.24v-.826a27.35,27.35,0,0,1-4.517,2.232,4.318,4.318,0,0,0-.721-1.037,21.719,21.719,0,0,0,4.359-2.039A13.5,13.5,0,0,0,380.874,10449.555Zm-5.238,9.721v-4.535H387.8v4.535Zm1.055,6.715v-5.871H386.8v5.836h-1.353v-.527h-7.453v.563Zm.1-10.318v2.689h4.237v-2.689Zm1.073.51.949-.316a6.249,6.249,0,0,1,1.09,2.039l-1.037.387A6.587,6.587,0,0,0,377.869,10456.182Zm7.576,4.887h-7.453v1.213h7.453Zm-7.453,3.41h7.453v-1.247h-7.453Zm.808-11.672h5.678a16.8,16.8,0,0,1-2.918-2.18A17.056,17.056,0,0,1,378.8,10452.807Zm7.787,5.555v-2.689H382.14v2.689Zm-2.373-.07-.931-.334a15.153,15.153,0,0,0,1.037-2.162l1.125.369Q384.671,10457.588,384.214,10458.291Z"/>
    <path id="Path_4673" data-name="Path 4673" d="M395.844,10453.457l1.178.4a26.822,26.822,0,0,1-1.459,2.531v9.6h-1.248v-7.822q-1,1.283-1.775,2.092a7.313,7.313,0,0,0-.827-1.178,17.741,17.741,0,0,0,2.25-2.566A21.192,21.192,0,0,0,395.844,10453.457Zm-.334-3.885,1.2.475a25.352,25.352,0,0,1-4.149,4.254,5.005,5.005,0,0,0-.756-.967,20.284,20.284,0,0,0,2.066-1.818A13.111,13.111,0,0,0,395.51,10449.572Zm1.776,16.137-.985-.7a5.21,5.21,0,0,0,1.635-3.129l1.107.334A6.286,6.286,0,0,1,397.286,10465.709Zm11.039-6.644v1.089h-7a11.994,11.994,0,0,1,2.935,1.6l-.721.9a12.316,12.316,0,0,0-3.023-1.74l.615-.756h-4.183v-1.089Zm-10.53-5.625h3.832q.088-.6.159-1.319H397v-1.09h4.887c.012-.105.029-.341.053-.711s.041-.643.053-.818l1.371.07-.176,1.459h5.045v1.09h-5.168c-.024.188-.056.444-.1.766s-.067.506-.079.554h4.693v4.429H397.8Zm2.883,3.444v-2.461H398.85v2.461Zm1.125,7.787h1.951a.473.473,0,0,0,.484-.254,4.341,4.341,0,0,0,.149-1.24,2.585,2.585,0,0,0,1.072.457,3.5,3.5,0,0,1-.413,1.705,1.319,1.319,0,0,1-1.133.439h-2.268a2.161,2.161,0,0,1-1.4-.316,1.667,1.667,0,0,1-.343-1.23v-2.443h1.23v2.426c0,.2.038.326.114.379A1.188,1.188,0,0,0,401.8,10464.672Zm1.74-7.787v-2.461h-1.88v2.461Zm.985-2.461v2.461h1.916v-2.461Zm.492,7.717.984-.51a12.1,12.1,0,0,1,2.409,3.393l-1.055.563a10.04,10.04,0,0,0-.958-1.7A14.327,14.327,0,0,0,405.02,10462.141Z"/>
    <path id="Path_4674" data-name="Path 4674" d="M414.558,10464.848a3.409,3.409,0,0,1-3.032-1.748,9.721,9.721,0,0,1-1.1-5.125,9.53,9.53,0,0,1,1.1-5.08,3.507,3.507,0,0,1,6.038,0,9.594,9.594,0,0,1,1.09,5.08,9.787,9.787,0,0,1-1.09,5.125A3.377,3.377,0,0,1,414.558,10464.848Zm0-1.3a2.035,2.035,0,0,0,1.828-1.379,10.049,10.049,0,0,0,.668-4.193,9.806,9.806,0,0,0-.659-4.121,2.027,2.027,0,0,0-1.837-1.346,2.06,2.06,0,0,0-1.854,1.346,9.559,9.559,0,0,0-.677,4.121,9.93,9.93,0,0,0,.677,4.193A2.061,2.061,0,0,0,414.558,10463.547Z"/>
    <path id="Path_4675" data-name="Path 4675" d="M421.565,10464.619v-1.371H424.5v-9.844h-2.338v-1.037a8.037,8.037,0,0,0,2.742-.949h1.248v11.83h2.655v1.371Z"/>
    <path id="Path_4676" data-name="Path 4676" d="M432,10464.619v-1.371h2.936v-9.844H432.6v-1.037a8.037,8.037,0,0,0,2.742-.949h1.248v11.83h2.654v1.371Z"/>
    <path id="Path_4677" data-name="Path 4677" d="M448.858,10463.881a4.478,4.478,0,0,1-2.98.967,4.6,4.6,0,0,1-3.023-.984,3.113,3.113,0,0,1-1.2-2.514,3.527,3.527,0,0,1,.694-2.152,5.043,5.043,0,0,1,1.731-1.486v-.088a3.616,3.616,0,0,1-1.775-3.041,3.133,3.133,0,0,1,1.02-2.426,3.706,3.706,0,0,1,2.6-.932,3.6,3.6,0,0,1,2.646.967,3.385,3.385,0,0,1,.975,2.514,3.29,3.29,0,0,1-.536,1.793,5.376,5.376,0,0,1-1.239,1.389v.088a3.88,3.88,0,0,1,2.232,3.464A3.053,3.053,0,0,1,448.858,10463.881Zm-2.944-.246a2.651,2.651,0,0,0,1.828-.623,2.056,2.056,0,0,0,.7-1.609,2.356,2.356,0,0,0-.255-1.115,2.5,2.5,0,0,0-.835-.879,7.93,7.93,0,0,0-1.046-.615q-.467-.22-1.362-.59a3.457,3.457,0,0,0-1.793,2.988,2.242,2.242,0,0,0,.782,1.75A2.87,2.87,0,0,0,445.914,10463.635Zm.861-6.187a3.523,3.523,0,0,0,1.371-2.654,2.422,2.422,0,0,0-.606-1.678,2.1,2.1,0,0,0-1.644-.677,2.02,2.02,0,0,0-1.5.6,2.113,2.113,0,0,0-.589,1.547,2.19,2.19,0,0,0,.229,1.012,2.224,2.224,0,0,0,.7.791,6.958,6.958,0,0,0,.9.563Q446.072,10457.167,446.775,10457.447Z"/>
    <path id="Path_4678" data-name="Path 4678" d="M456.3,10464.848a3.411,3.411,0,0,1-3.032-1.748,9.732,9.732,0,0,1-1.1-5.125,9.54,9.54,0,0,1,1.1-5.08,3.422,3.422,0,0,1,3.032-1.723,3.386,3.386,0,0,1,3.006,1.723,9.594,9.594,0,0,1,1.09,5.08,9.787,9.787,0,0,1-1.09,5.125A3.375,3.375,0,0,1,456.3,10464.848Zm0-1.3a2.035,2.035,0,0,0,1.828-1.379,10.046,10.046,0,0,0,.669-4.193,9.788,9.788,0,0,0-.66-4.121,2.026,2.026,0,0,0-1.837-1.346,2.06,2.06,0,0,0-1.854,1.346,9.574,9.574,0,0,0-.677,4.121,9.945,9.945,0,0,0,.677,4.193A2.061,2.061,0,0,0,456.3,10463.547Z"/>
    <path id="Path_4679" data-name="Path 4679" d="M464.919,10459.24H468.4c-.012.258-.023.439-.035.545q-.211,2.777-.448,4.043a3.821,3.821,0,0,1-.607,1.688,1.527,1.527,0,0,1-1.09.475,11.127,11.127,0,0,1-1.863-.018,2.576,2.576,0,0,0-.352-1.159q.756.069,1.723.069a.638.638,0,0,0,.58-.176q.51-.475.791-4.342h-2.443q-.159.668-.3,1.143l-1.2-.211q.563-1.916.9-3.639h-1.547v-1.2h6.733v1.2h-3.955Zm3.551-9v4.957h-5.133v-4.957Zm-1.248,3.85v-2.742h-2.689v2.742Zm3.727.123v3.48q0,5.625-1.916,8.4a2.732,2.732,0,0,0-1.02-.738q1.723-2.514,1.723-7.664v-4.587h3.516v-3.552h1.283v1.266h3.621v1.072h-3.621v1.214h3.48l.193-.054.844.211q-.369,1.881-.738,3.182l-1-.246q.228-1.141.352-1.986Zm1.441,5.5h1.178a12.848,12.848,0,0,1-.712,4,4.584,4.584,0,0,1-2.153,2.346,2.537,2.537,0,0,0-.774-.967,3.649,3.649,0,0,0,1.863-1.924A11.082,11.082,0,0,0,472.39,10459.715Zm2.69-1.758h1.652a.437.437,0,0,0,.422-.193,2.6,2.6,0,0,0,.123-.932,3.673,3.673,0,0,0,1.019.387,2.493,2.493,0,0,1-.369,1.371,1.3,1.3,0,0,1-1.037.352h-1.951a2.181,2.181,0,0,1-1.31-.271,1.446,1.446,0,0,1-.325-1.117v-.721l-1.828.176-.123-.932,1.951-.211v-1.547h1.213v1.424l2.145-.211.123.932-2.268.229v.844a.443.443,0,0,0,.1.344A.855.855,0,0,0,475.08,10457.957Zm1.089,6.152q0,.4.545.4h.633c.445,0,.7-.157.756-.475a13,13,0,0,0,.07-1.775,2.809,2.809,0,0,0,.985.545,10.468,10.468,0,0,1-.176,2.039q-.282.861-1.529.861h-1a1.656,1.656,0,0,1-1.073-.281.806.806,0,0,1-.3-.446,3.957,3.957,0,0,1-.071-.89v-4.377h1.16Z"/>
    <path id="Path_4680" data-name="Path 4680" d="M92.129,10484.52h1.354a20.168,20.168,0,0,0,3.524,3.973,21.185,21.185,0,0,0,4.316,3.006,6.86,6.86,0,0,0-.879,1.16,25.2,25.2,0,0,1-4.254-3.119,19.572,19.572,0,0,1-3.305-3.7,18.954,18.954,0,0,1-3.137,3.684,24.605,24.605,0,0,1-4.281,3.242,3.977,3.977,0,0,0-.844-1.055,20.7,20.7,0,0,0,4.369-3.295A18.067,18.067,0,0,0,92.129,10484.52Zm1.618,10.266v4.447h6.837v1.249H85.379v-1.249h2.25v-6.609h1.336v6.609h3.393v-9.861h1.389v4.2h5.168v1.213Z"/>
    <path id="Path_4681" data-name="Path 4681" d="M103.3,10500.551l-.105-1.072q.228-.018,10.318-.475l-.035,1.037Q105.288,10500.463,103.3,10500.551Zm9.123-14.836v1.74h1.125v.914h-1.125v1.811H108.91v.826h3.779v.844H108.91v.826h4.535v.932H103.32v-.932h4.359v-.826h-3.515v-.844h3.515v-.826H104.3v-.844h3.375v-.967h-4.465v-.914h4.465v-.879h-3.305v-.861h3.305v-1.143h1.231v1.143Zm-8.015,8.666h8v3.955h-8Zm1.089.738v.862h2.321v-.862Zm0,1.6v.861h2.321v-.861Zm3.411-10.143v.879h2.355v-.879Zm2.355,2.76v-.967H108.91v.967Zm.018,6.646v-.862h-2.3v.862Zm0,1.6v-.861h-2.3v.861Zm4.148-10.863v9.9h-1.213v-9.9Zm2.18-1.811h1.266v14.414a2.1,2.1,0,0,1-.168.941,1.1,1.1,0,0,1-.553.5,10.168,10.168,0,0,1-2.795.229,4.041,4.041,0,0,0-.4-1.3c1.125.034,1.869.041,2.232.017q.421-.018.422-.387Z"/>
    <path id="Path_4682" data-name="Path 4682" d="M126.41,10488.387l1.248.475a23.125,23.125,0,0,1-1.986,2.707v9.475h-1.318v-8a21.1,21.1,0,0,1-2.039,1.881,9.96,9.96,0,0,0-.932-1.125,20.146,20.146,0,0,0,5.027-5.414Zm-.738-3.832,1.283.511a19.566,19.566,0,0,1-2.118,2.373,22.258,22.258,0,0,1-2.487,2.091,12.292,12.292,0,0,0-.791-1.072,17.774,17.774,0,0,0,2.285-1.854A13.978,13.978,0,0,0,125.672,10484.555Zm12.322,6.012v1.283H135.27v7.436a2.073,2.073,0,0,1-.176.959,1.074,1.074,0,0,1-.615.482,15.45,15.45,0,0,1-3.375.212,4.4,4.4,0,0,0-.44-1.3q2.074.053,2.813.018a.614.614,0,0,0,.351-.1.382.382,0,0,0,.088-.291v-7.418H127.9v-1.283Zm-.527-4.922v1.266h-8.789v-1.266Z"/>
    <path id="Path_4683" data-name="Path 4683" d="M144.386,10498.459l2.883-.545.07,1.125q-3.6.791-6.873,1.406l-.317-1.213q2.04-.352,3.059-.544v-5.5h-2.883v-1.16h2.883v-1.9h-1.951v-.65a5.509,5.509,0,0,1-.58.563,2.828,2.828,0,0,0-.844-.861,11.661,11.661,0,0,0,1.951-2.2,12.626,12.626,0,0,0,1.318-2.409h1.2a19.473,19.473,0,0,1,3.2,3.34l-.861,1.09a18.416,18.416,0,0,0-2.725-3.182,17.008,17.008,0,0,1-2.2,3.164h4.728v1.143h-2.056v1.9h2.6v1.16h-2.6Zm-3.657-4.008.932-.229a12.794,12.794,0,0,1,.774,3.287l-.985.3A13.538,13.538,0,0,0,140.729,10494.451Zm5.116,3.164-.862-.281a27.133,27.133,0,0,0,.844-3.322l1.055.316Q146.16,10496.736,145.845,10497.615Zm3.094-12.076,1.265.281a12.8,12.8,0,0,1-2.2,4.236,9.063,9.063,0,0,0-1.09-.721A8.913,8.913,0,0,0,148.939,10485.539Zm6.7,4.641v9.264q0,1.055-.633,1.318a8.157,8.157,0,0,1-2.443.229,4.707,4.707,0,0,0-.422-1.283q1.371.053,1.9.018.316,0,.316-.3v-2.039h-5.009v3.586H148.06v-10.793H151.1v-5.625h1.265v5.625Zm-1.284,1.178h-5.009v1.846h5.009Zm-5.009,4.922h5.009v-1.934h-5.009Zm7.295-6.961-1.125.615a15.722,15.722,0,0,0-2.373-3.9l1.072-.527a19.76,19.76,0,0,1,1.424,1.979A12.927,12.927,0,0,1,156.638,10489.318Z"/>
    <path id="Path_4684" data-name="Path 4684" d="M167.722,10489.451a1.428,1.428,0,0,1-1.933,0,1.378,1.378,0,0,1,0-1.951,1.422,1.422,0,0,1,1.933,0,1.378,1.378,0,0,1,0,1.951Zm0,8.824a1.428,1.428,0,0,1-1.933,0,1.276,1.276,0,0,1-.4-.977,1.3,1.3,0,0,1,.4-.983,1.4,1.4,0,0,1,1.933,0,1.3,1.3,0,0,1,.4.983A1.276,1.276,0,0,1,167.722,10498.275Z"/>
    <path id="Path_4685" data-name="Path 4685" d="M182.059,10494.275h10.283c-.023.246-.041.428-.052.545q-.193,2.848-.4,4.078a3.4,3.4,0,0,1-.571,1.635,1.647,1.647,0,0,1-1.072.475,17.15,17.15,0,0,1-2.04-.018,2.947,2.947,0,0,0-.228-.949h-6.856v.756h-1.283v-4.254a14.909,14.909,0,0,1-2.092,1.494,2.5,2.5,0,0,0-.4-.482,4.7,4.7,0,0,0-.484-.432,12.74,12.74,0,0,0,4.43-3.92h-1.652v-5.01h11.267v5.01h-8.085Q182.463,10493.766,182.059,10494.275Zm6.82-8.719h4.114v1.143h-4.114v1.16h-1.336v-1.16h-4.728v1.16H181.5v-1.16h-4.061v-1.143H181.5v-.984h1.318v.984h4.728v-.984h1.336Zm-.334,13.43v.9q.51.035,1.143.035a.762.762,0,0,0,.58-.176q.474-.51.738-4.429h-9.843l-.563.562h.527v3.111Zm-7.628-9.914v1.2H189.6v-1.2Zm0,2.039v1.213H189.6v-1.213Zm3.831,4.236,1.073.176a5.077,5.077,0,0,1-.545,1.055,21.622,21.622,0,0,1,2.584,1.6l-.7.756a19.79,19.79,0,0,0-2.444-1.635,8.308,8.308,0,0,1-2.056,1.529,4.436,4.436,0,0,0-.844-.721A5.326,5.326,0,0,0,184.748,10495.348Z"/>
    <path id="Path_4686" data-name="Path 4686" d="M204.464,10499.162h7.207v1.319H195.693v-1.319h7.277v-2.479h-6.064v-1.318h6.064v-2h-5.484v-8.1h12.621v8.1h-5.643v2h6.223v1.318h-6.223Zm-5.607-12.639v2.162h4.2v-2.162Zm0,3.357v2.215h4.2v-2.215Zm9.826-1.2v-2.162h-4.306v2.162Zm0,3.41v-2.215h-4.306v2.215Z"/>
    <path id="Path_4687" data-name="Path 4687" d="M217.852,10488.457l1.177.4a26.607,26.607,0,0,1-1.459,2.531v9.6h-1.248v-7.822q-1,1.283-1.775,2.092a7.308,7.308,0,0,0-.826-1.178,17.862,17.862,0,0,0,2.25-2.566A21.371,21.371,0,0,0,217.852,10488.457Zm-.334-3.885,1.195.475a25.384,25.384,0,0,1-4.148,4.254,5.005,5.005,0,0,0-.756-.967,20.277,20.277,0,0,0,2.065-1.818A13.184,13.184,0,0,0,217.518,10484.572Zm1.775,16.137-.984-.7a5.215,5.215,0,0,0,1.634-3.129l1.108.334A6.293,6.293,0,0,1,219.293,10500.709Zm11.039-6.644v1.089h-7a11.975,11.975,0,0,1,2.935,1.6l-.72.9a12.307,12.307,0,0,0-3.024-1.74l.616-.756h-4.184v-1.089Zm-10.529-5.625h3.832q.087-.6.158-1.319h-4.781v-1.09H223.9c.012-.105.03-.341.053-.711s.041-.643.053-.818l1.371.07-.176,1.459h5.045v1.09h-5.168c-.023.188-.055.444-.1.766s-.067.506-.079.554h4.694v4.429H219.8Zm2.882,3.444v-2.461h-1.828v2.461Zm1.125,7.787h1.952a.472.472,0,0,0,.483-.254,4.366,4.366,0,0,0,.15-1.24,2.574,2.574,0,0,0,1.072.457,3.516,3.516,0,0,1-.413,1.705,1.323,1.323,0,0,1-1.134.439h-2.268a2.161,2.161,0,0,1-1.4-.316,1.667,1.667,0,0,1-.343-1.23v-2.443h1.231v2.426c0,.2.038.326.114.379A1.182,1.182,0,0,0,223.81,10499.672Zm1.741-7.787v-2.461H223.67v2.461Zm.984-2.461v2.461h1.916v-2.461Zm.492,7.717.985-.51a12.072,12.072,0,0,1,2.408,3.393l-1.055.563a9.97,9.97,0,0,0-.958-1.7A14.231,14.231,0,0,0,227.027,10497.141Z"/>
    <path id="Path_4688" data-name="Path 4688" d="M235.194,10487.262v3.938q0,6.469-1.9,9.633a3.962,3.962,0,0,0-1.107-.686q1.74-2.865,1.74-8.947v-5.115h6.4v-1.512h1.319v1.512h6.837v1.178h-3.269v1.179h2.953v.9h-2.953v2.057H238.5v-2.057h-3.111v-.9H238.5v-1.179Zm4.448,11.427,1.089.72a17.1,17.1,0,0,1-4.8,1.617,11.865,11.865,0,0,0-.809-.879,19.156,19.156,0,0,0,2.487-.633A11.637,11.637,0,0,0,239.642,10498.688Zm8.771-5.644H242.4v.879h4.922v4.535h-10.81v-4.535h4.64v-.879h-5.765v-.932h13.025Zm-10.687,1.652v1.107h3.427v-1.107Zm0,1.863v1.125h3.427v-1.125Zm6.17-8.12v-1.179h-4.114v1.179Zm0,2.108v-1.213h-4.114v1.213Zm2.162,4.148H242.4v1.107h3.657Zm0,2.988v-1.125H242.4v1.125Zm-3.129,1.811.914-.756a40.434,40.434,0,0,1,4.763,1.512l-1.23.791A28.126,28.126,0,0,0,242.929,10499.5Z"/>
    <path id="Path_4689" data-name="Path 4689" d="M259.673,10490.848h7.348v1.248h-7.348v1.775H258.3v-1.775h-7.26v-1.248h7.26v-2.479h-3.937a15.667,15.667,0,0,1-1.705,2.426,6.87,6.87,0,0,0-1.248-.738,13.427,13.427,0,0,0,3.093-5.325l1.389.315q-.246.721-.879,2.092H258.3v-2.584h1.371v2.584h5.819v1.23h-5.819Zm-6.24,10.143v-6.8h11.356v6.784h-1.407v-.756h-8.613v.773Zm9.949-5.572h-8.613v3.568h8.613Z"/>
    <path id="Path_4690" data-name="Path 4690" d="M276.032,10490.373a28.124,28.124,0,0,1,4.025,3.99l-1.213,1.02a28.512,28.512,0,0,0-3.972-3.99Z"/>
    <path id="Path_4691" data-name="Path 4691" d="M296.539,10499.32h7.189v1.178H288.136v-1.178h7.084v-2.162H289.7v-1.177h5.519v-1.776h-4.254v-4.166h9.95v4.166h-4.377v1.776h5.835v1.177h-5.835Zm-7.049-10.705v2.742h-1.213v-3.919h3.094a12.109,12.109,0,0,0-1.459-2.2l1.177-.475a9.292,9.292,0,0,1,1.653,2.355l-.668.317h3.146v-2.884h1.319v2.884h3.3l-.773-.317a16.528,16.528,0,0,0,1.635-2.426l1.371.493a19.9,19.9,0,0,1-1.811,2.25h3.34v3.919h-1.283v-2.742Zm2.742,2.514v1.986H299.6v-1.986Z"/>
    <path id="Path_4692" data-name="Path 4692" d="M322.389,10496.877h-6.68a5.2,5.2,0,0,0,2.549,2.049,14.25,14.25,0,0,0,4.377.869,3.91,3.91,0,0,0-.791,1.248,13.119,13.119,0,0,1-4.746-1.283,6.465,6.465,0,0,1-2.76-2.812,5.6,5.6,0,0,1-2.479,2.646,14.676,14.676,0,0,1-5.132,1.414,2.963,2.963,0,0,0-.616-1.125,15.447,15.447,0,0,0,4.518-1.072,4.763,4.763,0,0,0,2.232-1.934H306.34v-1.143h7.014q.069-.316.211-1.02h1.406a9.817,9.817,0,0,1-.211,1.02h7.629Zm-13.114-9.773v8.139h-1.248v-9.229h5.239q.422-1.037.544-1.441l1.424.176c-.07.176-.184.42-.342.73s-.249.488-.273.535h6.311v9.229h-1.3v-8.139Zm5.608,7.119H313.81v-2.057a10.775,10.775,0,0,1-3.251,2.479,3.444,3.444,0,0,0-.7-.791,9.816,9.816,0,0,0,3.393-2.391H310.1v-.879h1.793a5.147,5.147,0,0,0-.633-1.3l.826-.264a4.163,4.163,0,0,1,.685,1.354l-.562.211h1.6v-1.793q-1.633.105-3.2.105a2.95,2.95,0,0,0-.246-.773,53.018,53.018,0,0,0,7.418-.58l.615.773q-1.037.193-3.515.387v1.881h1.529l-.51-.211a13.77,13.77,0,0,0,.791-1.547l.9.3q-.141.246-.9,1.459h2.022v.879h-3.762a32.509,32.509,0,0,1,3.815,2.215l-.6.773q-1.337-.932-3.287-2.021Z"/>
    <path id="Path_4693" data-name="Path 4693" d="M327.444,10487.262v3.938q0,6.469-1.9,9.633a3.962,3.962,0,0,0-1.107-.686q1.74-2.865,1.74-8.947v-5.115h6.4v-1.512h1.318v1.512h6.838v1.178h-3.269v1.179h2.953v.9h-2.953v2.057h-6.715v-2.057h-3.111v-.9h3.111v-1.179Zm4.448,11.427,1.089.72a17.1,17.1,0,0,1-4.8,1.617,11.872,11.872,0,0,0-.809-.879,19.156,19.156,0,0,0,2.487-.633A11.636,11.636,0,0,0,331.892,10498.688Zm8.771-5.644h-6.012v.879h4.922v4.535h-10.81v-4.535h4.64v-.879h-5.765v-.932h13.025Zm-10.687,1.652v1.107H333.4v-1.107Zm0,1.863v1.125H333.4v-1.125Zm6.169-8.12v-1.179h-4.113v1.179Zm0,2.108v-1.213h-4.113v1.213Zm2.163,4.148h-3.657v1.107h3.657Zm0,2.988v-1.125h-3.657v1.125Zm-3.129,1.811.914-.756a40.431,40.431,0,0,1,4.763,1.512l-1.23.791A28.126,28.126,0,0,0,335.179,10499.5Z"/>
    <path id="Path_4694" data-name="Path 4694" d="M351.923,10490.848h7.348v1.248h-7.348v1.775h-1.371v-1.775h-7.26v-1.248h7.26v-2.479h-3.937a15.668,15.668,0,0,1-1.7,2.426,6.87,6.87,0,0,0-1.248-.738,13.427,13.427,0,0,0,3.093-5.325l1.389.315q-.246.721-.879,2.092h3.287v-2.584h1.371v2.584h5.819v1.23h-5.819Zm-6.24,10.143v-6.8h11.356v6.784h-1.407v-.756h-8.613v.773Zm9.949-5.572h-8.613v3.568h8.613Z"/>
  </g>
</svg>
