<svg xmlns="http://www.w3.org/2000/svg" width="128.121" height="37.05" viewBox="0 0 128.121 37.05">
  <g id="facebook" transform="translate(-85.249 -8867.377)">
    <g id="Group_208" data-name="Group 208">
      <path id="Path_2751" data-name="Path 2751" d="M133.015,8895.357v-18.842H143.9v2.008h-8.48v6.373H142.6v2.006h-7.176v8.455Z" fill="#b7852c"/>
      <path id="Path_2752" data-name="Path 2752" d="M147.832,8895.357v-18.842h5.62a8.674,8.674,0,0,1,4.754,1.117,3.871,3.871,0,0,1,1.719,3.5,4.506,4.506,0,0,1-.74,2.547,3.8,3.8,0,0,1-2.045,1.543v.126a4.892,4.892,0,0,1,2.81,1.479,4.293,4.293,0,0,1,1.054,3.011,4.765,4.765,0,0,1-1.945,4.1,8.655,8.655,0,0,1-5.205,1.417Zm2.409-10.813h2.784q4.542,0,4.541-3.11a2.562,2.562,0,0,0-1.091-2.334,6.308,6.308,0,0,0-3.349-.7h-2.885Zm0,8.907h3.286q5.144,0,5.143-3.688,0-3.388-5.143-3.388h-3.286Z" fill="#b7852c"/>
      <path id="Path_2753" data-name="Path 2753" d="M169.524,8876.541l1.982.451a24.238,24.238,0,0,1-2.6,5.156,19.145,19.145,0,0,1-3.475,4,9.7,9.7,0,0,0-1.606-1.381,15.663,15.663,0,0,0,3.337-3.588A19.265,19.265,0,0,0,169.524,8876.541Zm-1.881,7.376H183.1c-.017.418-.034.72-.051.9q-.325,5.821-.7,8.329a6.654,6.654,0,0,1-1.054,3.237,2.7,2.7,0,0,1-1.957.877,33.768,33.768,0,0,1-3.587-.05,3.519,3.519,0,0,0-.628-1.831q1.48.125,3.512.125a1.372,1.372,0,0,0,1.029-.3q.954-.954,1.43-9.484h-6.6a18.489,18.489,0,0,1-2.785,7.088,14.021,14.021,0,0,1-5.244,4.5,7.673,7.673,0,0,0-1.48-1.481,11.825,11.825,0,0,0,4.9-3.852,15.5,15.5,0,0,0,2.522-6.26h-4.767Zm4.616-9.609h8.029a19.133,19.133,0,0,0,2.872,5.884,14.1,14.1,0,0,0,4.4,4.1,6.057,6.057,0,0,0-1.331,1.682,16.366,16.366,0,0,1-4.327-4.19,22.072,22.072,0,0,1-3-5.694h-6.649Z" fill="#b7852c"/>
      <path id="Path_2754" data-name="Path 2754" d="M213.37,8890.741v1.631H202.907v3.011a2.225,2.225,0,0,1-.263,1.2,1.53,1.53,0,0,1-.941.577,29.193,29.193,0,0,1-4.666.2,6.127,6.127,0,0,0-.653-1.582q.877.026,3.914.025a1.111,1.111,0,0,0,.5-.112.427.427,0,0,0,.125-.364v-2.96H190.589v-1.631h10.336v-1.53h1.129a28.331,28.331,0,0,0,4.341-1.556H193v-1.581h16.157l.452-.075,1.254,1.028a30.1,30.1,0,0,1-7.953,3.288v.426Zm-.352-14.651v1.68H190.839v-1.68H200.9v-2.233h1.982v2.233Zm-2.985,8.43H194.076V8879.4h15.957Zm-14.1-3.738v2.357h12.092v-2.357Z" fill="#b7852c"/>
    </g>
    <g id="facebook-2" data-name="facebook">
      <circle id="Ellipse_1457" data-name="Ellipse 1457" cx="16.898" cy="16.898" r="16.898" transform="matrix(-0.017, -1, 1, -0.017, 87.173, 8903.093)" fill="#b7852c"/>
      <path id="Path_2767" data-name="Path 2767" d="M103.774,8904.427A18.525,18.525,0,1,1,122.3,8885.9,18.547,18.547,0,0,1,103.774,8904.427Zm0-36.05A17.525,17.525,0,1,0,121.3,8885.9,17.545,17.545,0,0,0,103.774,8868.377Z" fill="#b7852c"/>
      <path id="Path_2768" data-name="Path 2768" d="M109,8887.515l1.2-4.83H105.14a.414.414,0,0,1-.054-.271q0-1.006,0-2.012c0-.389-.009-.775-.027-1.162a.571.571,0,0,1,.046-.318.029.029,0,0,0,.02-.009c.008-.007,0-.016-.012-.028a1.33,1.33,0,0,1,.029-.2,1.711,1.711,0,0,1,1.754-1.225.286.286,0,0,0,.3-.014c.135-.008.269-.024.4-.024.688,0,1.376-.008,2.064,0,.191,0,.243-.054.242-.245q-.012-1.885,0-3.77c0-.2-.069-.258-.253-.274a33.057,33.057,0,0,0-3.612-.151c-.167,0-.333.016-.5.027l.01-.012c-2.742.15-3.9.66-4.939,1.963-.751.939-.507,4.311-.507,4.311l.012-.015c-.007.949-.011,1.9,0,2.847,0,.188-.02.384-.038.579h-4.14v4.83h3.976l.041.018a.311.311,0,0,0,.123.021h.042l.049.153a.237.237,0,0,1,.043.087,3.528,3.528,0,0,1,.007.356q0,5.525,0,11.05a1.238,1.238,0,0,0,.019.354c.081.125.211.087.324.087,1.361,0,2.723,0,4.085,0,.106-.015.219.02.315-.051h0a.582.582,0,0,0,.05-.371c0-3.779,0-7.924,0-11.708Z" fill="#f6f6f6"/>
    </g>
  </g>
</svg>
