<svg xmlns="http://www.w3.org/2000/svg" width="522.254" height="542.507" viewBox="0 0 522.254 542.507">
  <g id="feature6" transform="translate(0.541 0.513)">
    <g id="Group_646" data-name="Group 646" transform="translate(89.003 189.833)">
      <path id="Path_7144" data-name="Path 7144" d="M1437.595,2538.205a3.382,3.382,0,0,1,4.638-.928,3.3,3.3,0,0,1,.58,4.638,3.264,3.264,0,0,1-4.522.927,3.216,3.216,0,0,1-.7-4.637" transform="translate(-1393.903 -2511.169)" fill="#e73e6b" stroke="#030000" stroke-miterlimit="10" stroke-width="1"/>
      <path id="Path_7145" data-name="Path 7145" d="M1444.743,2559.675s-4.174-12.521-3.478-22.724c.58-8-15.188-12.869-16.347,1.739-.812,10.434,2.435,24.579,5.913,31.419" transform="translate(-1395.833 -2512.351)" fill="#e73e6b" stroke="#030000" stroke-miterlimit="10" stroke-width="1"/>
      <path id="Path_7146" data-name="Path 7146" d="M1500.553,2751.2v47.3a14.473,14.473,0,0,1-14.376,14.492h0A14.473,14.473,0,0,1,1471.8,2798.5v-47.3" transform="translate(-1388.342 -2476.986)" fill="#e73e6b" stroke="#030000" stroke-miterlimit="10" stroke-width="1"/>
      <path id="Path_7147" data-name="Path 7147" d="M1425.42,2584.6c-45.911,67.823-28.4,159.878,39.071,205.441s159.3,27.593,205.21-40.23,28.289-159.878-39.071-205.441c-67.476-45.68-159.3-27.593-205.21,40.23" transform="translate(-1399.814 -2513.97)" fill="#e73e6b" stroke="#030000" stroke-miterlimit="10" stroke-width="1"/>
      <path id="Path_7148" data-name="Path 7148" d="M1615.761,2614.678a3.353,3.353,0,0,0-3.13-3.478,3.28,3.28,0,0,0-3.13,3.478,3.353,3.353,0,0,0,3.13,3.478,3.28,3.28,0,0,0,3.13-3.478" transform="translate(-1366.395 -2499.298)" fill="#e73e6b" stroke="#030000" stroke-miterlimit="10" stroke-width="1"/>
      <path id="Path_7149" data-name="Path 7149" d="M1601.1,2628.579s10.666-7.768,16-16.463c4.174-6.84,19.825-1.623,12.289,11.014-5.333,9.043-16.347,18.55-23.072,22.144" transform="translate(-1367.734 -2499.634)" fill="#e73e6b" stroke="#030000" stroke-miterlimit="10" stroke-width="1"/>
      <path id="Path_7150" data-name="Path 7150" d="M1504.867,2608.833a19.172,19.172,0,0,1-1.739,2.9c-6.029,8.927-15.42,12.985-20.985,9.275-5.565-3.826-5.217-14.029.812-22.84a22.609,22.609,0,0,1,1.971-2.667Z" transform="translate(-1387.323 -2501.8)" fill="#fff"/>
      <path id="Path_7151" data-name="Path 7151" d="M1504.867,2608.833a19.172,19.172,0,0,1-1.739,2.9c-6.029,8.927-15.42,12.985-20.985,9.275-5.565-3.826-5.217-14.029.812-22.84a22.609,22.609,0,0,1,1.971-2.667Z" transform="translate(-1387.323 -2501.8)" fill="none" stroke="#231815" stroke-miterlimit="10" stroke-width="1"/>
      <path id="Path_7152" data-name="Path 7152" d="M1483.556,2598.291c-3.246,4.869-3.478,10.434-.464,12.521s8.232-.232,11.478-4.985c3.246-4.869,3.478-10.434.464-12.521s-8.116.232-11.478,4.985" transform="translate(-1386.88 -2502.273)" fill="#231815"/>
      <path id="Path_7153" data-name="Path 7153" d="M1503.014,2589.89c4.985,3.362,5.217,11.941.928,20.057L1484,2596.5c6.029-6.957,14.028-9.971,19.014-6.608" transform="translate(-1386.397 -2502.914)" fill="#e73e6b" stroke="#030000" stroke-miterlimit="10" stroke-width="1"/>
      <path id="Path_7154" data-name="Path 7154" d="M1503.014,2589.89c4.985,3.362,5.217,11.941.928,20.057L1484,2596.5C1490.029,2589.542,1498.028,2586.527,1503.014,2589.89Z" transform="translate(-1386.397 -2502.914)" fill="none" stroke="#231815" stroke-miterlimit="10" stroke-width="1"/>
      <path id="Path_7155" data-name="Path 7155" d="M1509.249,2598.9a5.527,5.527,0,0,1-5.449.116" transform="translate(-1383.241 -2501.259)" fill="none" stroke="#231815" stroke-linecap="round" stroke-miterlimit="10" stroke-width="1"/>
      <path id="Path_7156" data-name="Path 7156" d="M1509.149,2601.664a5.668,5.668,0,0,1-5.449-.464" transform="translate(-1383.257 -2500.892)" fill="none" stroke="#231815" stroke-linecap="round" stroke-miterlimit="10" stroke-width="1"/>
      <path id="Path_7157" data-name="Path 7157" d="M1509.249,2596.4a5.517,5.517,0,0,1-5.449.348" transform="translate(-1383.241 -2501.657)" fill="none" stroke="#231815" stroke-linecap="round" stroke-miterlimit="10" stroke-width="1"/>
      <path id="Path_7158" data-name="Path 7158" d="M1452.126,2573.2a22.606,22.606,0,0,0-1.971,2.667c-6.029,8.927-6.377,19.13-.812,22.84,5.565,3.826,14.956-.348,20.985-9.275.58-.927,1.159-1.855,1.739-2.9Z" transform="translate(-1392.551 -2505.354)" fill="#fff"/>
      <path id="Path_7159" data-name="Path 7159" d="M1452.126,2573.2a22.606,22.606,0,0,0-1.971,2.667c-6.029,8.927-6.377,19.13-.812,22.84,5.565,3.826,14.956-.348,20.985-9.275.58-.927,1.159-1.855,1.739-2.9Z" transform="translate(-1392.551 -2505.354)" fill="none" stroke="#231815" stroke-miterlimit="10" stroke-width="1"/>
      <path id="Path_7160" data-name="Path 7160" d="M1461.775,2583.62c-3.246,4.869-8.347,7.072-11.478,5.1-3.014-2.087-2.9-7.652.464-12.521,3.246-4.869,8.464-7.073,11.478-5.1s2.782,7.652-.464,12.521" transform="translate(-1392.113 -2505.804)" fill="#231815"/>
      <path id="Path_7161" data-name="Path 7161" d="M1470.1,2567.692c-4.985-3.362-12.985-.464-18.9,6.608l19.941,13.449c4.174-8.116,3.942-16.7-1.043-20.057" transform="translate(-1391.625 -2506.455)" fill="#e73e6b" stroke="#030000" stroke-miterlimit="10" stroke-width="1"/>
      <path id="Path_7162" data-name="Path 7162" d="M1470.1,2567.692c-4.985-3.362-12.985-.464-18.9,6.608l19.941,13.449C1475.315,2579.634,1475.083,2571.054,1470.1,2567.692Z" transform="translate(-1391.625 -2506.455)" fill="none" stroke="#231815" stroke-miterlimit="10" stroke-width="1"/>
      <path id="Path_7163" data-name="Path 7163" d="M1456.008,2563.4a5.469,5.469,0,0,0,1.971,5.1" transform="translate(-1390.867 -2506.916)" fill="none" stroke="#231815" stroke-linecap="round" stroke-miterlimit="10" stroke-width="1"/>
      <path id="Path_7164" data-name="Path 7164" d="M1453.6,2564.5a5.565,5.565,0,0,0,2.435,4.869" transform="translate(-1391.243 -2506.741)" fill="none" stroke="#231815" stroke-linecap="round" stroke-miterlimit="10" stroke-width="1"/>
      <path id="Path_7165" data-name="Path 7165" d="M1458.314,2562.5a5.784,5.784,0,0,0,1.623,5.217" transform="translate(-1390.506 -2507.06)" fill="none" stroke="#231815" stroke-linecap="round" stroke-miterlimit="10" stroke-width="1"/>
      <path id="Path_7166" data-name="Path 7166" d="M1473.089,2622s-8.579,1.391-7.884,11.71" transform="translate(-1389.399 -2497.577)" fill="none" stroke="#231815" stroke-linecap="round" stroke-miterlimit="10" stroke-width="1"/>
      <path id="Path_7167" data-name="Path 7167" d="M1450.184,2606.6s1.855,8.464-7.884,11.71" transform="translate(-1393.043 -2500.031)" fill="none" stroke="#231815" stroke-linecap="round" stroke-miterlimit="10" stroke-width="1"/>
      <line id="Line_30" data-name="Line 30" x1="21.796" y1="14.724" transform="translate(55.518 113.989)" fill="none" stroke="#231815" stroke-miterlimit="10" stroke-width="1"/>
      <path id="Path_7168" data-name="Path 7168" d="M1451.344,2615.6l2.551,1.739,2.551,1.739s-1.391,3.13-3.826,1.507l-.58-.348-.58-.348c-2.55-1.855-.116-4.29-.116-4.29" transform="translate(-1391.769 -2498.597)" fill="#fff"/>
      <path id="Path_7169" data-name="Path 7169" d="M1451.473,2615.5l2.551,1.739,2.551,1.739s-1.623,3.594-4.174,1.855l-.58-.348-.58-.348C1448.806,2618.282,1451.473,2615.5,1451.473,2615.5Z" transform="translate(-1391.781 -2498.613)" fill="none" stroke="#231815" stroke-miterlimit="10" stroke-width="1"/>
      <path id="Path_7170" data-name="Path 7170" d="M1458.644,2620.5l2.551,1.739,2.551,1.739s-1.391,3.13-3.826,1.507l-.58-.348-.58-.348c-2.55-1.855-.116-4.29-.116-4.29" transform="translate(-1390.605 -2497.816)" fill="#fff"/>
      <path id="Path_7171" data-name="Path 7171" d="M1458.78,2620.4l2.551,1.739,2.551,1.739s-1.623,3.594-4.174,1.855l-.58-.348-.58-.348C1456,2623.183,1458.78,2620.4,1458.78,2620.4Z" transform="translate(-1390.625 -2497.832)" fill="none" stroke="#231815" stroke-miterlimit="10" stroke-width="1"/>
      <path id="Path_7172" data-name="Path 7172" d="M1563.153,2764.7V2812a14.473,14.473,0,0,1-14.376,14.492h0A14.473,14.473,0,0,1,1534.4,2812v-41.158" transform="translate(-1378.365 -2474.834)" fill="#e73e6b" stroke="#030000" stroke-miterlimit="10" stroke-width="1"/>
      <path id="Path_7173" data-name="Path 7173" d="M1606.988,2547.514s-16.231-9.623-20.405-31.767c0,0-.7-2.319-3.014-.116,0,0-15.768,13.912-11.362,25.39" transform="translate(-1372.463 -2514.681)" fill="#e73e6b" stroke="#030000" stroke-miterlimit="10" stroke-width="1"/>
    </g>
    <path id="Path_7174" data-name="Path 7174" d="M1711.384,2676.678l-381.319-167.646a11.888,11.888,0,0,1-4.29-18.434l114.894-135.531a11.771,11.771,0,0,1,13.681-3.13l384.217,168.805a9.459,9.459,0,0,1,3.362,14.84l-116.865,137.966A11.692,11.692,0,0,1,1711.384,2676.678Z" transform="translate(-1323.046 -2350.943)" fill="#fdf42d" stroke="#231815" stroke-miterlimit="10" stroke-width="1"/>
    <g id="Group_647" data-name="Group 647" transform="translate(176.839 77.391)">
      <path id="Path_7175" data-name="Path 7175" d="M1521.052,2430.222a26.994,26.994,0,0,1,4.522,2.2,1.557,1.557,0,0,1,.812,1.623,2.466,2.466,0,0,1-.812,1.739,113.708,113.708,0,0,1-22.724,19.246c-.232.232-.464.464-.348.7a40.32,40.32,0,0,1,.812,4.406,3.637,3.637,0,0,1-1.159,2.9,8.563,8.563,0,0,1-2.9,1.971l-2.2.812a3.1,3.1,0,0,1-2.667.116h0a1.693,1.693,0,0,1-1.159-1.623c0-.927-.116-1.971-.232-3.246,0-.232-.232-.348-.58-.116a63.736,63.736,0,0,1-13.333,4.29,4.082,4.082,0,0,1-2.087-.116,2.533,2.533,0,0,1-.58-.348,2.161,2.161,0,0,1-.812-2.2c0-.58.116-1.043.116-1.623a3.154,3.154,0,0,1,.927-1.855,1.6,1.6,0,0,0,.348-.464,6.317,6.317,0,0,1,2.782-1.391,41.836,41.836,0,0,0,11.13-3.71c.348-.116.464-.348.348-.58l-.348-1.276c0-.116-.116-.116-.232,0a2.06,2.06,0,0,1-1.159.464.9.9,0,0,1-.812-.348l-1.507-2.435a2.815,2.815,0,0,1-.116-2.551,6.912,6.912,0,0,1,1.043-1.739,4.2,4.2,0,0,1,1.043-.927c3.71-2.9,8.347-6.608,13.8-11.13.232-.232.348-.464,0-.58l-.232-.116a2.1,2.1,0,0,1-1.507-1.855,3.086,3.086,0,0,1,1.043-2.551l.928-.928a5.73,5.73,0,0,1,2.782-1.739,4.453,4.453,0,0,1,3.014,0l1.623.7c.232.116.464,0,.812-.232,2.087-1.855,4.522-3.942,7.3-6.376a6.577,6.577,0,0,1,3.13-1.507,4.1,4.1,0,0,1,2.667.232c.116,0,.232.116.348.232l1.043.58a2.04,2.04,0,0,1,1.159,1.971,3.829,3.829,0,0,1-.928,1.971l-.464.464c-2.319,1.971-4.522,3.826-6.725,5.681-.232.232-.232.348,0,.464Zm-7.536,7.072c.232-.232.348-.464,0-.58l-2.435-1.043a.768.768,0,0,0-.812.232q-3.652,2.956-10.782,8.7c-.232.232-.348.464-.232.7a11.965,11.965,0,0,1,.812,2.435c.116.232.232.232.58,0A115.874,115.874,0,0,0,1513.516,2437.294Zm31.651,17.506a2.234,2.234,0,0,1,1.507,1.855,3.086,3.086,0,0,1-1.043,2.551l-1.043,1.159a6.715,6.715,0,0,1-2.9,1.739,3.811,3.811,0,0,1-3.014-.116l-8-3.362a.768.768,0,0,0-.812.232l-12.058,13.449a22.85,22.85,0,0,1-4.521,4.058,10.447,10.447,0,0,1-4.637,1.507,20.307,20.307,0,0,1-7.42-1.391c-.116,0-.116-.116-.232-.116a2.8,2.8,0,0,1-1.623-1.623,3.593,3.593,0,0,1,.464-2.782,15.493,15.493,0,0,0,.812-2.087,2.079,2.079,0,0,1,.58-.812,5.148,5.148,0,0,1,1.275-.928,3.008,3.008,0,0,1,2.435-.116h0c.812.348,1.391.58,1.855.812s.812.348,1.043.464a2.293,2.293,0,0,0,1.159.232,1.777,1.777,0,0,0,.812-.58l11.942-13.333c.232-.232.232-.464-.116-.58l-7.3-3.13a2.273,2.273,0,0,1-1.507-1.855,3.344,3.344,0,0,1,.927-2.551l1.043-1.159a6.1,6.1,0,0,1,2.9-1.739,4.453,4.453,0,0,1,3.014,0l7.3,3.13a.768.768,0,0,0,.811-.232l2.9-3.246a3.894,3.894,0,0,1,1.855-1.159,2.858,2.858,0,0,1,1.971,0,.527.527,0,0,0,.58,0,71.571,71.571,0,0,0,8.231-3.478c.116,0,.116-.116.232-.232,0-.116,0-.116-.116-.232l-11.942-4.985a2.234,2.234,0,0,1-1.507-1.855,3.345,3.345,0,0,1,.927-2.551l.812-.927a6.714,6.714,0,0,1,2.9-1.739,3.813,3.813,0,0,1,3.014.116l17.159,7.188c.116.116.232.116.464.116a2.188,2.188,0,0,1,.928.232,1.935,1.935,0,0,1,1.275,1.391l.58,1.623a3.023,3.023,0,0,1-.58,2.551,2.539,2.539,0,0,1-.464.58,6.186,6.186,0,0,1-2.2,1.507c-6.492,2.782-12.174,4.869-16.927,6.376a1.873,1.873,0,0,0-.812.464l-1.275,1.391c-.232.232-.232.464.116.58Z" transform="translate(-1475.575 -2417.696)" fill="#d75562" stroke="#030000" stroke-miterlimit="10" stroke-width="1"/>
      <path id="Path_7176" data-name="Path 7176" d="M1568.652,2450.222a27,27,0,0,1,4.521,2.2,1.557,1.557,0,0,1,.812,1.623,2.466,2.466,0,0,1-.812,1.739,113.706,113.706,0,0,1-22.724,19.246c-.232.232-.464.464-.348.7a35.912,35.912,0,0,1,.812,4.406,3.637,3.637,0,0,1-1.159,2.9,8.561,8.561,0,0,1-2.9,1.971l-2.2.812a3.1,3.1,0,0,1-2.667.116h0a1.693,1.693,0,0,1-1.159-1.623c0-.927-.116-1.971-.232-3.246,0-.232-.232-.348-.58-.116a63.745,63.745,0,0,1-13.333,4.29,4.082,4.082,0,0,1-2.087-.116,2.535,2.535,0,0,1-.58-.348,2.161,2.161,0,0,1-.812-2.2c0-.58.116-1.043.116-1.623a3.157,3.157,0,0,1,.927-1.855,1.6,1.6,0,0,0,.348-.464,6.32,6.32,0,0,1,2.782-1.391,43.223,43.223,0,0,0,11.13-3.71c.348-.116.464-.348.348-.58l-.348-1.275c0-.116-.116-.116-.232,0a2.061,2.061,0,0,1-1.159.464.9.9,0,0,1-.812-.348l-1.507-2.435a2.814,2.814,0,0,1-.116-2.551,6.926,6.926,0,0,1,1.043-1.739,4.218,4.218,0,0,1,1.043-.927c3.71-2.9,8.347-6.608,13.8-11.13.232-.232.348-.464,0-.58l-.232-.116a2.233,2.233,0,0,1-1.507-1.855,3.085,3.085,0,0,1,1.043-2.551l.927-.928a5.732,5.732,0,0,1,2.783-1.739,4.452,4.452,0,0,1,3.014,0l1.623.7c.232.116.464,0,.812-.232,2.087-1.855,4.521-3.942,7.3-6.376a6.578,6.578,0,0,1,3.13-1.507,4.1,4.1,0,0,1,2.667.232c.116,0,.232.116.348.232l1.043.58a2.04,2.04,0,0,1,1.159,1.971,3.831,3.831,0,0,1-.927,1.971l-.464.464c-2.319,1.971-4.521,3.826-6.724,5.681-.232.232-.232.348,0,.464Zm-7.536,7.072c.232-.232.348-.464,0-.58l-2.435-1.043a.768.768,0,0,0-.812.232q-3.652,2.956-10.782,8.7c-.232.232-.348.464-.232.7a11.98,11.98,0,0,1,.812,2.435c.116.232.232.232.58,0A97.906,97.906,0,0,0,1561.116,2457.294Zm31.767,17.622a2.234,2.234,0,0,1,1.507,1.855,3.086,3.086,0,0,1-1.043,2.551l-1.043,1.159a6.714,6.714,0,0,1-2.9,1.739,3.813,3.813,0,0,1-3.014-.116l-8-3.362a.717.717,0,0,0-.812.232l-12.058,13.449a22.865,22.865,0,0,1-4.521,4.058,10.448,10.448,0,0,1-4.637,1.507,20.733,20.733,0,0,1-7.42-1.391c-.116,0-.116-.116-.232-.116a2.8,2.8,0,0,1-1.623-1.623,3.593,3.593,0,0,1,.464-2.782,15.48,15.48,0,0,0,.812-2.087,2.081,2.081,0,0,1,.58-.812,5.141,5.141,0,0,1,1.275-.927,3.007,3.007,0,0,1,2.435-.116h0c.812.348,1.391.58,1.855.811s.812.348,1.043.464a2.3,2.3,0,0,0,1.159.232,1.776,1.776,0,0,0,.812-.58l11.942-13.333c.232-.232.232-.464-.116-.58l-7.3-3.13a2.273,2.273,0,0,1-1.507-1.855,3.344,3.344,0,0,1,.927-2.551l1.043-1.159a6.1,6.1,0,0,1,2.9-1.739,4.453,4.453,0,0,1,3.014,0l7.3,3.13a.768.768,0,0,0,.812-.232l2.9-3.246a3.9,3.9,0,0,1,1.855-1.159,2.861,2.861,0,0,1,1.971,0,.526.526,0,0,0,.58,0,71.593,71.593,0,0,0,8.232-3.478c.116,0,.116-.116.232-.232,0-.116,0-.116-.116-.232l-11.942-4.986a2.233,2.233,0,0,1-1.507-1.855,3.086,3.086,0,0,1,1.043-2.551l.812-.927a6.713,6.713,0,0,1,2.9-1.739,3.811,3.811,0,0,1,3.014.116l17.159,7.188c.116.116.232.116.464.116a2.187,2.187,0,0,1,.927.232,1.935,1.935,0,0,1,1.275,1.391l.58,1.623a3.023,3.023,0,0,1-.58,2.551,2.535,2.535,0,0,1-.464.58,6.185,6.185,0,0,1-2.2,1.507c-6.492,2.782-12.173,4.869-16.927,6.377a1.868,1.868,0,0,0-.812.464l-1.275,1.391c-.232.232-.232.464.116.58Z" transform="translate(-1467.989 -2414.508)" fill="#d75562" stroke="#030000" stroke-miterlimit="10" stroke-width="1"/>
      <path id="Path_7177" data-name="Path 7177" d="M1632.353,2496.869c-5.681,6.377-12.058,10.667-19.014,12.753a28.706,28.706,0,0,1-19.941-.928q-9.217-3.825-10.087-11.826-.869-7.825,7.652-17.391c5.681-6.26,11.942-10.434,18.9-12.405a28.65,28.65,0,0,1,19.709,1.043c6.145,2.551,9.623,6.493,10.2,11.594C1640.468,2484.927,1637.918,2490.608,1632.353,2496.869Zm-31.187-13.1c-3.362,3.826-5.1,7.188-5.217,10.318-.116,3.014,1.507,5.217,4.637,6.608,3.246,1.391,6.724,1.275,10.666-.116s7.536-4.058,11.014-7.884c3.362-3.71,5.1-7.072,5.1-10.086,0-2.9-1.623-5.1-4.869-6.493a13.836,13.836,0,0,0-10.55,0A27.311,27.311,0,0,0,1601.166,2483.768Z" transform="translate(-1458.418 -2410.026)" fill="#d75562" stroke="#030000" stroke-miterlimit="10" stroke-width="1"/>
    </g>
    <g id="Group_648" data-name="Group 648" transform="translate(70.973 120.013)">
      <path id="Path_7178" data-name="Path 7178" d="M1402.16,2466.564a1.237,1.237,0,0,1,.812,1.043,2.73,2.73,0,0,1-.58,1.507L1395.32,2477a.879.879,0,0,0-.232.464c-.464,2.319.812,4.29,4.058,5.8,1.159.58,2.782,1.275,4.637,2.087.58.232,1.275.58,1.971.812,2.783,1.159,5.449,2.2,7.768,3.014h.116a.66.66,0,0,1,.464.812,1.471,1.471,0,0,1-.464.812,1.6,1.6,0,0,1-.464.348h0a6.15,6.15,0,0,1-1.971.927,3.306,3.306,0,0,1-1.855-.116c-2.667-1.043-5.1-1.971-7.3-2.9-2.087-.927-4.058-1.855-5.8-2.667a13.066,13.066,0,0,1-4.058-2.9,6.009,6.009,0,0,1-1.159-3.826c0-.116-.116-.232-.232-.116-1.623.464-3.246.927-4.637,1.391a2.366,2.366,0,0,1-1.275,0c-.116,0-.116-.116-.232-.116a1.05,1.05,0,0,1-.348-1.159l.116-.348a4.691,4.691,0,0,1,.58-1.043,2.518,2.518,0,0,1,.58-.464,3.81,3.81,0,0,1,1.855-.812c1.275-.232,2.551-.464,3.594-.7.232,0,.348-.116.464-.348l5.8-6.376a.217.217,0,0,0,0-.348l-1.275-.58a1.474,1.474,0,0,1-.812-1.043,1.836,1.836,0,0,1,.58-1.391,2.875,2.875,0,0,1,1.623-.928,1.962,1.962,0,0,1,1.623,0Zm15.652-4.521c-.116-.116-.232,0-.464.116l-4.406,4.754c-5.1,5.681-9.855,9.739-14.144,12.173a2.2,2.2,0,0,1-1.623.348c-.116,0-.232-.116-.348-.116a1.045,1.045,0,0,1-.7-.7,1.492,1.492,0,0,1,.116-1.391c.116-.232.232-.348.348-.58a6.46,6.46,0,0,1,.928-.7c3.594-2.087,7.652-5.565,12.057-10.55l5.681-6.26a4.867,4.867,0,0,1,1.623-1.043,2.243,2.243,0,0,1,1.739,0l14.376,6.26a1.238,1.238,0,0,1,.811,1.043,2.078,2.078,0,0,1-.58,1.507l-16,17.623a8.445,8.445,0,0,1-1.971,1.739,4,4,0,0,1-2.087.58,10.821,10.821,0,0,1-3.362-.7h-.116a1.3,1.3,0,0,1-.812-.927,2.423,2.423,0,0,1,.232-1.507l.348-.348a4.91,4.91,0,0,1,.811-.58,1.68,1.68,0,0,1,1.275-.116l.348.232a2.761,2.761,0,0,1,.812.348,1.045,1.045,0,0,0,.58.116c.116,0,.348-.232.464-.348l14.724-16.115a.217.217,0,0,0,0-.348Zm-11.246,18.318a.426.426,0,0,0-.348.116,2.406,2.406,0,0,1-1.159.7,2.366,2.366,0,0,1-1.275,0l-.116-.116a.872.872,0,0,1-.58-.812,1.661,1.661,0,0,1,.464-1.159l4.753-5.217a4.865,4.865,0,0,1,1.623-1.043,2.24,2.24,0,0,1,1.739,0l4.753,2.087a1.238,1.238,0,0,1,.812,1.043,2.078,2.078,0,0,1-.58,1.507l-3.13,3.478a4.861,4.861,0,0,1-1.623,1.043,2.24,2.24,0,0,1-1.739,0Zm3.826-20.985a1.726,1.726,0,0,1-.464,1.043l-.348.348a3.812,3.812,0,0,1-1.855.812h-.232a3.567,3.567,0,0,1-1.159-.116c-.116,0-.232-.116-.348-.232a1.288,1.288,0,0,1-.464-1.276,30.613,30.613,0,0,0,.232-3.362,2.447,2.447,0,0,1,.464-1.159c0-.116.116-.116.116-.232a2.106,2.106,0,0,1,1.623-.7,3.207,3.207,0,0,1,1.507.116c.116,0,.116.116.232.116a1.4,1.4,0,0,1,.811,1.159A30.407,30.407,0,0,1,1410.392,2459.376Zm2.782,17.739a.217.217,0,0,0,0-.348l-2.319-1.043c-.116-.116-.232,0-.464.116l-1.623,1.739a.218.218,0,0,0,0,.348l2.319,1.043c.116.116.348,0,.464-.116Zm-1.855-6.608a1.415,1.415,0,0,1,.464-1.043,2.4,2.4,0,0,1,1.159-.7,2.371,2.371,0,0,1,1.275,0l1.623.7c.116.116.348,0,.464-.116l1.043-1.159a.218.218,0,0,0,0-.348l-1.507-.58a.735.735,0,0,1-.58-.7,1.416,1.416,0,0,1,.464-1.043,2.408,2.408,0,0,1,1.159-.7,2.371,2.371,0,0,1,1.275,0l1.507.7a.426.426,0,0,0,.348-.116,3,3,0,0,1,1.275-.812,2.815,2.815,0,0,1,1.391,0l.232.116a.872.872,0,0,1,.58.812,1.661,1.661,0,0,1-.464,1.159c-.116.116-.116.232,0,.232l1.855.812a.735.735,0,0,1,.58.7,1.416,1.416,0,0,1-.464,1.043,2.406,2.406,0,0,1-1.159.7,2.366,2.366,0,0,1-1.275,0l-1.739-.812c-.116-.116-.348,0-.464.116l-1.043,1.159a.217.217,0,0,0,0,.348l1.855.812a.735.735,0,0,1,.58.7,1.416,1.416,0,0,1-.464,1.043,2.407,2.407,0,0,1-1.159.7,2.366,2.366,0,0,1-1.275,0l-7.072-3.014C1411.552,2471.2,1411.319,2470.854,1411.319,2470.506Z" transform="translate(-1384.263 -2454.458)" fill="#231815"/>
      <path id="Path_7179" data-name="Path 7179" d="M1449.268,2489.565a4.368,4.368,0,0,1-1.739,1.043,2.937,2.937,0,0,1-1.739,0l-6.377-2.782h-.232a.114.114,0,0,0-.116.116,18.953,18.953,0,0,0,.58,5.681,19.671,19.671,0,0,0,2.087,5.333,1.287,1.287,0,0,1-.116,1.275c0,.116-.116.116-.232.232a2.407,2.407,0,0,1-1.159.7l-1.043.348a4,4,0,0,1-1.971.232c-.116,0-.348-.116-.464-.116a1.045,1.045,0,0,1-.7-.7,24.515,24.515,0,0,1-1.623-11.13h-.232l-7.3,8.115a4.369,4.369,0,0,1-1.739,1.043,2.937,2.937,0,0,1-1.739,0l-.348-.116a1.237,1.237,0,0,1-.812-1.043,2.079,2.079,0,0,1,.58-1.507l7.072-7.884v-.116h-.116a64.848,64.848,0,0,1-15.188,3.826,4.346,4.346,0,0,1-1.275-.116c-.116-.116-.232-.116-.348-.232a1.862,1.862,0,0,1-.58-1.275v-.7a1.415,1.415,0,0,1,.464-1.043l.232-.232a2.443,2.443,0,0,1,1.507-.58,50.526,50.526,0,0,0,8-1.043,52.218,52.218,0,0,0,7.884-2.2c.116,0,.116,0,.116-.116v-.116l-6.377-2.782a1.238,1.238,0,0,1-.812-1.043,2.261,2.261,0,0,1,.58-1.507v-.116a4.861,4.861,0,0,1,1.623-1.043,2.24,2.24,0,0,1,1.739,0l8.232,3.594c.116.116.232,0,.464-.116l3.246-3.594a.217.217,0,0,0,0-.348l-9.623-4.174a1.238,1.238,0,0,1-.811-1.043,2.262,2.262,0,0,1,.58-1.507l.116-.116a4.861,4.861,0,0,1,1.623-1.043,2.24,2.24,0,0,1,1.739,0l9.623,4.174c.116.116.232,0,.464-.116l2.435-2.667a4.368,4.368,0,0,1,1.739-1.043,2.937,2.937,0,0,1,1.739,0l.348.116a1.237,1.237,0,0,1,.812,1.043,2.079,2.079,0,0,1-.58,1.507l-2.435,2.667a.217.217,0,0,0,0,.348l9.971,4.29a1.237,1.237,0,0,1,.812,1.043,2.079,2.079,0,0,1-.58,1.507l-.116.116a4.369,4.369,0,0,1-1.739,1.043,2.937,2.937,0,0,1-1.739,0l-9.971-4.29c-.116-.116-.348,0-.464.116l-3.246,3.594a.218.218,0,0,0,0,.348l8.464,3.594a1.237,1.237,0,0,1,.812,1.043c.7.464.579.928,0,1.507Z" transform="translate(-1379.778 -2452.069)" fill="#231815"/>
      <path id="Path_7180" data-name="Path 7180" d="M1466.993,2509.034a4.862,4.862,0,0,1-1.623,1.043,2.24,2.24,0,0,1-1.739,0l-2.551-1.159h0v.116q2.435,2.261,4.522,4.521c.232.232.232.58-.116.927a1.13,1.13,0,0,1-1.043.464h-.927a4.422,4.422,0,0,1-2.2-.348,5.138,5.138,0,0,1-1.275-.927c-1.043-1.275-2.2-2.551-3.478-3.942a.7.7,0,0,1,0-.927,1.67,1.67,0,0,1,1.159-.7l1.159-.116a.114.114,0,0,0,.116-.116v-.116l-8.579-3.71h-.116l.927,1.159c.232.232.232.58-.116.928a1.427,1.427,0,0,1-1.159.58,43.943,43.943,0,0,1-8.347-.58c-.232-.116-.58-.116-.812-.232a5.053,5.053,0,0,1-.812-.464,2.441,2.441,0,0,1-.58-1.507v-.348a1.65,1.65,0,0,1,.232-.7c.116-.116.232-.232.348-.232a1.428,1.428,0,0,1,1.159-.232,34.986,34.986,0,0,0,8,1.275h.116l-2.551-1.043a1.237,1.237,0,0,1-.812-1.043,2.079,2.079,0,0,1,.58-1.507l6.84-7.536a4.866,4.866,0,0,1,1.623-1.043,2.242,2.242,0,0,1,1.739,0l17.043,7.3a1.238,1.238,0,0,1,.812,1.043,2.078,2.078,0,0,1-.58,1.507Zm-15.536-8.579c-.116-.116-.348,0-.464.116l-.58.7a.218.218,0,0,0,0,.348l12.869,5.565c.116.116.232,0,.464-.116l.58-.7a.218.218,0,0,0,0-.348Zm2.667-2.9c-.116-.116-.348,0-.464.116l-.58.58a.218.218,0,0,0,0,.348l12.869,5.565c.116.116.348,0,.464-.116l.58-.58a.217.217,0,0,0,0-.348Zm2.783-3.014c-.116-.116-.348,0-.464.116l-.58.58a.217.217,0,0,0,0,.348l12.869,5.565c.116.116.232,0,.464-.116l.58-.58a.218.218,0,0,0,0-.348Zm5.333-10.9c-.116-.116-.232,0-.464.116l-1.275,1.391a3.933,3.933,0,0,1-1.623,1.043,2.958,2.958,0,0,1-1.739,0,1.475,1.475,0,0,1-.812-1.043,1.836,1.836,0,0,1,.58-1.391l2.2-2.319a4.863,4.863,0,0,1,1.623-1.043,2.24,2.24,0,0,1,1.739,0l2.319,1.043h.116a.114.114,0,0,0,.116-.116,7.414,7.414,0,0,0,.232-.812,2.452,2.452,0,0,1,.348-.812,1.6,1.6,0,0,1,.464-.348,1.759,1.759,0,0,1,1.507-.348,1.677,1.677,0,0,1,.812.232,2.424,2.424,0,0,1,.7.464,1.491,1.491,0,0,1,.464,1.391l-.348,1.739a.249.249,0,0,1-.232.232.426.426,0,0,1-.348.116l3.13,1.391c.116.116.348,0,.464-.116l1.043-1.159a4.861,4.861,0,0,1,1.623-1.043,2.24,2.24,0,0,1,1.739,0h.116a1.237,1.237,0,0,1,.811,1.043,2.079,2.079,0,0,1-.58,1.507l-1.043,1.159a.217.217,0,0,0,0,.348l3.014,1.275c.116.116.348,0,.464,0,.812-.348,1.507-.7,2.319-1.043a4.549,4.549,0,0,1,2.087-.464,3.435,3.435,0,0,1,1.159.232c.116.116.348.116.464.232l.232.232a.755.755,0,0,1,.232,1.043c-.116.116-.232.348-.348.464a1.83,1.83,0,0,1-.927.58c-.348.116-.812.348-1.275.464a.113.113,0,0,0-.116.116v.116l2.319,1.043a1.238,1.238,0,0,1,.812,1.043,2.078,2.078,0,0,1-.58,1.507l-2.087,2.319a4.861,4.861,0,0,1-1.623,1.043,2.24,2.24,0,0,1-1.739,0,1.237,1.237,0,0,1-.812-1.043,2.078,2.078,0,0,1,.58-1.507l1.275-1.391a.218.218,0,0,0,0-.348Zm13.8,12.405a4.862,4.862,0,0,1-1.623,1.043,2.937,2.937,0,0,1-1.739,0l-13.1-5.681a1.237,1.237,0,0,1-.811-1.043,2.262,2.262,0,0,1,.58-1.507l1.623-1.855a4.863,4.863,0,0,1,1.623-1.043,2.243,2.243,0,0,1,1.739,0l13.1,5.681a1.237,1.237,0,0,1,.812,1.043,2.079,2.079,0,0,1-.58,1.507Zm-11.71-7.072c-.116-.116-.348,0-.464.116l-.812.812a.218.218,0,0,0,0,.348l9.043,3.942c.116.116.348,0,.464-.116l.811-.812a.217.217,0,0,0,0-.348Z" transform="translate(-1375.475 -2450.553)" fill="#231815"/>
      <path id="Path_7181" data-name="Path 7181" d="M1495.084,2523.63a1.475,1.475,0,0,1,.812,1.043,1.836,1.836,0,0,1-.58,1.391,2.991,2.991,0,0,1-1.507.928,2.584,2.584,0,0,1-1.623,0l-22.144-9.507c-.116,0-.116,0-.232.116a1.561,1.561,0,0,1-1.043.58,1.961,1.961,0,0,1-1.159,0l-.7-.348a1.237,1.237,0,0,1-.812-1.043,2.079,2.079,0,0,1,.58-1.507l21.912-24.115a4.866,4.866,0,0,1,1.623-1.043,2.242,2.242,0,0,1,1.739,0l23.419,10.087c.464.232.7.464.7.927a1.836,1.836,0,0,1-.58,1.391,2.992,2.992,0,0,1-1.507.928,3.819,3.819,0,0,1-1.623,0l-21.333-9.159c-.116-.116-.232,0-.464.116l-17.739,19.478a.217.217,0,0,0,0,.348Zm-17.159-9.623a1.237,1.237,0,0,1-.812-1.043,2.079,2.079,0,0,1,.58-1.507l4.29-4.754a4.368,4.368,0,0,1,1.739-1.043,2.936,2.936,0,0,1,1.739,0l5.1,2.2a1.238,1.238,0,0,1,.812,1.043,2.078,2.078,0,0,1-.58,1.507l-4.29,4.754a4.365,4.365,0,0,1-1.739,1.043,2.933,2.933,0,0,1-1.739,0Zm6.724-5.1c-.116-.116-.232,0-.464.116l-2.667,2.9a.218.218,0,0,0,0,.348l1.971.812c.116.116.232,0,.348-.116l2.667-2.9a.217.217,0,0,0,0-.348Zm16.115,3.478a1.238,1.238,0,0,1,.811,1.043,2.078,2.078,0,0,1-.58,1.507l-4.29,4.754a4.365,4.365,0,0,1-1.739,1.043,2.933,2.933,0,0,1-1.739,0l-5.217-2.319a1.238,1.238,0,0,1-.812-1.043,2.078,2.078,0,0,1,.58-1.507l4.29-4.754a4.864,4.864,0,0,1,1.623-1.043,2.934,2.934,0,0,1,1.739,0Zm4.521-10.086a1.237,1.237,0,0,1,.812,1.043,2.079,2.079,0,0,1-.58,1.507l-3.478,3.826a4.867,4.867,0,0,1-1.623,1.043,2.243,2.243,0,0,1-1.739,0l-8.7-3.71a1.238,1.238,0,0,1-.812-1.043,2.078,2.078,0,0,1,.58-1.507l3.478-3.826a4.861,4.861,0,0,1,1.623-1.043,2.24,2.24,0,0,1,1.739,0Zm-11.362,15.188c.116.116.232,0,.464-.116l2.667-2.9a.218.218,0,0,0,0-.348l-2.087-.927c-.116-.116-.348,0-.464.116l-2.667,2.9a.218.218,0,0,0,0,.348Zm4.753-11.246c.116.116.348,0,.464-.116l1.855-2.087a.218.218,0,0,0,0-.348l-4.753-2.087c-.116-.116-.348,0-.464.116l-1.855,2.087a.218.218,0,0,0,0,.348Z" transform="translate(-1371.22 -2448.802)" fill="#231815"/>
      <path id="Path_7182" data-name="Path 7182" d="M1521.582,2536.076l3.014,1.275a1.257,1.257,0,0,0,1.275,0,6.609,6.609,0,0,0,1.855-1.623,1.92,1.92,0,0,1,1.391-.58,1.715,1.715,0,0,1,.812.116c.116.116.348.116.464.348a.114.114,0,0,0,.116.116,1.6,1.6,0,0,1,.348,1.391,3.489,3.489,0,0,1-.7,1.276c-.116.116-.232.232-.348.232a12.329,12.329,0,0,1-4.29,2.667,5.236,5.236,0,0,1-3.71-.348l-4.058-1.739c-1.855-.811-2.782-1.623-2.782-2.551s.7-2.2,2.2-3.942l5.449-5.913a.217.217,0,0,0,0-.348l-3.13-1.391c-.116-.116-.348,0-.464.116a39.242,39.242,0,0,1-3.826,3.014,18.083,18.083,0,0,1-3.942,2.087,20.386,20.386,0,0,1-4.753,1.159,32.868,32.868,0,0,1-5.8-.116,5.01,5.01,0,0,1-.58-.116,1.188,1.188,0,0,1-.7-.58,2.211,2.211,0,0,1-.232-1.507.426.426,0,0,1,.116-.348,1.541,1.541,0,0,1,.348-.812,2.551,2.551,0,0,1,1.855-.7,20.729,20.729,0,0,0,4.522.232,11.637,11.637,0,0,0,3.594-.7,10.428,10.428,0,0,0,2.782-1.391,16.9,16.9,0,0,0,2.551-1.971.218.218,0,0,0,0-.348l-3.362-1.507a1.238,1.238,0,0,1-.811-1.043,2.078,2.078,0,0,1,.58-1.507l5.217-5.681c.116-.116.116-.116,0-.116a1.715,1.715,0,0,1-.812-.116.423.423,0,0,1-.232-.58,3.89,3.89,0,0,0,0-1.159,1.845,1.845,0,0,1,.58-1.159l.116-.116a2.77,2.77,0,0,1,1.507-.812,46.581,46.581,0,0,0,11.478-3.13,4.546,4.546,0,0,1,2.087-.464,2.292,2.292,0,0,1,1.275.232c.116.116.348.116.464.232l.7.464c.348.232.348.464.232.928-.116.116-.116.348-.348.464a1.157,1.157,0,0,1-.58.464.114.114,0,0,0-.116.116v.116l5.913,2.551c.116,0,.116,0,.116.116a.426.426,0,0,1,.348.116.907.907,0,0,1,.464.464l.348.928a1.68,1.68,0,0,1-.116,1.275c-.116.116-.116.232-.232.348a6.447,6.447,0,0,1-.927.7c-1.275.58-2.551,1.043-4.058,1.623a.114.114,0,0,0-.116.116v.116l6.261,2.667a1.238,1.238,0,0,1,.812,1.043,2.731,2.731,0,0,1-.58,1.507l-6.377,7.072a4.861,4.861,0,0,1-1.623,1.043,2.24,2.24,0,0,1-1.739,0l-4.638-1.971c-.116-.116-.348,0-.464.116l-5.333,5.8a1.568,1.568,0,0,0-.58,1.043A5.085,5.085,0,0,0,1521.582,2536.076Zm-1.043-20.637c-.116-.116-.348,0-.464.116l-3.246,3.594a.217.217,0,0,0,0,.348l5.333,2.319c.116.116.348,0,.464-.116l3.246-3.594a.217.217,0,0,0,0-.348Zm13.449-1.739.116-.116a.114.114,0,0,0-.116-.116l-5.913-2.551a.517.517,0,0,0-.58,0c-1.391.464-2.782.927-3.942,1.275-.116,0-.116,0-.116.116v.116l6.492,2.782a.352.352,0,0,0,.464,0A33.429,33.429,0,0,0,1533.988,2513.7Zm-1.739,12.521c.116.116.232,0,.464-.116l3.246-3.594a.217.217,0,0,0,0-.348l-5.913-2.551c-.116-.116-.348,0-.464.116l-3.246,3.594a.217.217,0,0,0,0,.348Z" transform="translate(-1365.95 -2446.292)" fill="#231815"/>
      <path id="Path_7183" data-name="Path 7183" d="M1555.4,2546.74a4.861,4.861,0,0,1-1.623,1.043,2.933,2.933,0,0,1-1.739,0l-2.667-1.159h-.116v.116c1.623,1.739,3.13,3.362,4.406,4.985.232.232.232.58-.116.927a1.416,1.416,0,0,1-1.043.464h-1.159a4.414,4.414,0,0,1-1.855-.348,2.705,2.705,0,0,1-1.391-1.159,32.635,32.635,0,0,0-3.362-4.058c-.232-.232-.232-.58.116-.928a1.384,1.384,0,0,1,1.043-.58l1.043-.116h.116v-.116l-8-3.478h-.116v.116l.348.58c.232.348.116.7-.232,1.043a1.61,1.61,0,0,1-1.159.58,56.894,56.894,0,0,1-8.7-.464,1.678,1.678,0,0,1-.812-.232,2.429,2.429,0,0,1-.7-.464,2.021,2.021,0,0,1-.7-1.391v-.116a1.1,1.1,0,0,1,.232-.812c.116-.116.232-.116.348-.232a1.381,1.381,0,0,1,1.275-.348,59.318,59.318,0,0,0,7.884,1.043h.116v-.116l-2.2-.927a1.238,1.238,0,0,1-.812-1.043,2.078,2.078,0,0,1,.58-1.507l6.492-7.073c.116-.116.116-.232,0-.232s-.348-.116-.464-.116-.348-.116-.464-.116a1.558,1.558,0,0,1-.812-.7,2.21,2.21,0,0,1-.232-1.507,2.536,2.536,0,0,1,.348-.58,1.6,1.6,0,0,1,.464-.348,1.533,1.533,0,0,1,1.391-.232,18.744,18.744,0,0,0,7.3.58.113.113,0,0,0,.116-.116v-.116l-2.435-1.043h-.116a.526.526,0,0,1-.58,0l-1.391-.7c-.348-.232-.58-.464-.464-.927a2.43,2.43,0,0,1,.464-.7c.116-.116.348-.232.464-.464.927-.58,1.855-1.275,2.9-1.971a4.208,4.208,0,0,1,1.971-.812,3.225,3.225,0,0,1,1.855.116l3.942,1.739c.116.116.232,0,.464-.116l.7-.812a.217.217,0,0,0,0-.348l-5.913-2.551a.636.636,0,0,1-.464-.7,1.542,1.542,0,0,1,.348-.927,2.241,2.241,0,0,1,1.043-.58,1.605,1.605,0,0,1,1.043,0l5.913,2.551a.425.425,0,0,0,.348-.116,2.406,2.406,0,0,1,1.159-.7,1.961,1.961,0,0,1,1.159,0l1.043.464c.348.116.464.348.58.7a1.317,1.317,0,0,1-.348.928c-.116.116-.116.116,0,.232l3.13,1.391a.426.426,0,0,0,.348-.116,2.407,2.407,0,0,1,1.159-.7,1.965,1.965,0,0,1,1.159,0l1.159.464c.348.116.464.348.58.7a1.315,1.315,0,0,1-.348.927c-.116.116-.116.116,0,.232l4.753,2.087a1.238,1.238,0,0,1,.812,1.043,2.078,2.078,0,0,1-.58,1.507l-1.739,1.971a4.861,4.861,0,0,1-1.623,1.043,2.24,2.24,0,0,1-1.739,0l-4.638-1.971c-.116-.116-.348,0-.464.116l-.7.7a.217.217,0,0,0,0,.348l6.724,2.9a1.474,1.474,0,0,1,.812,1.043,1.744,1.744,0,0,1-.464,1.275c0,.116-.116.116-.232.116a16.6,16.6,0,0,1-3.362,2.551,3.455,3.455,0,0,1-2.435-.116.359.359,0,0,1-.232-.116c-.116-.116-.348,0-.464.116Zm-15.767-8.927c-.116-.116-.232,0-.464.116l-.7.812a.218.218,0,0,0,0,.348l13.1,5.681c.116.116.232,0,.464-.116l.7-.812a.217.217,0,0,0,0-.348Zm14.956,3.71c.116.116.232,0,.464-.116l.7-.812a.218.218,0,0,0,0-.348l-13.1-5.681c-.116-.116-.232,0-.464.116l-.7.812a.217.217,0,0,0,0,.348Zm2.9-3.246c.116.116.232,0,.464-.116l.7-.7a.218.218,0,0,0,0-.348l-13.1-5.681c-.116-.116-.232,0-.348.116l-.7.7a.218.218,0,0,0,0,.348Zm-7.072-15.072c-.116-.116-.348,0-.464.116l-1.044.7-.116.116c0,.116,0,.116.116.116l3.014,1.275c.116.116.348,0,.464-.116.232-.232.58-.464.812-.7a.217.217,0,0,0,0-.348Zm6.609,7.884a.218.218,0,0,0,0-.348l-3.71-1.623a.353.353,0,0,0-.464,0,28.373,28.373,0,0,1-2.783,1.159.113.113,0,0,0-.116.116v.116l5.333,2.319c.116.116.232,0,.464-.116Zm1.971-2.435c.116.116.232,0,.464-.116l.7-.7a.218.218,0,0,0,0-.348l-3.014-1.275c-.116-.116-.348,0-.464.116l-.7.7a.217.217,0,0,0,0,.348Zm1.159-5.913c-.116-.116-.232,0-.464.116l-.7.812a.218.218,0,0,0,0,.348l3.014,1.275c.116.116.232,0,.464-.116l.7-.811a.218.218,0,0,0,0-.348Zm5.565,12.058a.218.218,0,0,0,0-.348l-4.522-1.971c-.116-.116-.348,0-.464.116l-1.391,1.623a.218.218,0,0,0,0,.348l2.319,1.043c.116,0,.116,0,.232-.116a1.159,1.159,0,0,1,.58-.464.99.99,0,0,1,.812,0,1.889,1.889,0,0,1,.7.348,1.278,1.278,0,0,0,.928,0A2.884,2.884,0,0,1,1565.723,2534.8Zm4.29-7.42a.218.218,0,0,0,0-.348l-2.783-1.159c-.116-.116-.348,0-.464.116l-.7.812a.217.217,0,0,0,0,.348l2.782,1.159c.116.116.348,0,.464-.116Z" transform="translate(-1361.514 -2444.551)" fill="#231815"/>
      <path id="Path_7184" data-name="Path 7184" d="M1572.024,2557.407l7.072,3.015a1.977,1.977,0,0,0,1.623,0,8.259,8.259,0,0,0,2.435-1.855,2.645,2.645,0,0,1,1.391-.7,1.715,1.715,0,0,1,.812.116c.116.116.232.116.348.348a1.847,1.847,0,0,1,.464,1.391,3.13,3.13,0,0,1-.58,1.275l-.232.232a21.327,21.327,0,0,1-2.9,2.2,5.551,5.551,0,0,1-2.435,1.043,7.222,7.222,0,0,1-2.2.116,9.568,9.568,0,0,1-2.2-.7l-6.724-2.9c-2.087-.927-3.246-1.855-3.594-3.014s.116-2.435,1.275-3.71a13.953,13.953,0,0,1,1.391-1.276,11.114,11.114,0,0,1,2.435-1.275q1.739-.7,4.869-1.739c2.087-.58,4.753-1.275,7.884-1.971.116,0,.116,0,.116-.116v-.116l-3.942-1.739a1.237,1.237,0,0,1-.812-1.043,2.079,2.079,0,0,1,.58-1.507l1.275-1.391v-.116h-.116a1.681,1.681,0,0,1-1.275.116h-.116c-.348-.116-.464-.348-.58-.7-.116-.58-.232-1.159-.348-1.623h-.116c-.116,0-.116,0-.116.116l-8.116,8.927a4.368,4.368,0,0,1-1.739,1.043,2.937,2.937,0,0,1-1.739,0l-3.826-1.623c-.116-.116-.348,0-.464.116l-.464.58a2.872,2.872,0,0,1-1.623.927,1.977,1.977,0,0,1-1.623,0,1.475,1.475,0,0,1-.812-1.043,1.836,1.836,0,0,1,.58-1.391l15.767-17.275a4.863,4.863,0,0,1,1.623-1.043,2.936,2.936,0,0,1,1.739,0l5.681,2.435a1.237,1.237,0,0,1,.812,1.043,2.078,2.078,0,0,1-.58,1.507l-3.942,4.406v.116h.116a46.453,46.453,0,0,0,10.782-5.333,6.066,6.066,0,0,1,1.855-.7,3.566,3.566,0,0,1,1.159.116c.116.116.348.116.464.232l.116.116a1.237,1.237,0,0,1,.348,1.275,1.868,1.868,0,0,1-.464.812c-.116.232-.348.348-.58.58-.58.348-1.275.812-2.087,1.275a.116.116,0,0,0,0,.232l9.159,3.942a1.475,1.475,0,0,1,.812,1.043,1.836,1.836,0,0,1-.58,1.391,3.932,3.932,0,0,1-1.623,1.043,2.242,2.242,0,0,1-1.739,0l-10.9-4.754c-.116-.116-.348,0-.464,0-1.275.58-2.667,1.275-4.406,1.971l-.116.116v.116l9.855,4.29a4.349,4.349,0,0,1,2.2,1.739,1.126,1.126,0,0,1-.116,1.043c0,.116-.116.116-.116.232a2.527,2.527,0,0,1-.927.58c-4.29.812-7.884,1.507-10.666,2.2-2.782.58-4.869,1.159-6.261,1.507a12.9,12.9,0,0,0-2.783,1.043,3.307,3.307,0,0,0-1.159.812C1570.285,2556.132,1570.633,2556.828,1572.024,2557.407Zm-4.29-11.825c.116.116.232,0,.464-.116l9.855-10.782a.217.217,0,0,0,0-.348l-2.087-.927c-.116-.116-.348,0-.464.116l-9.855,10.782a.217.217,0,0,0,0,.348Z" transform="translate(-1356.684 -2442.581)" fill="#231815"/>
      <path id="Path_7185" data-name="Path 7185" d="M1613.518,2542.4a1.238,1.238,0,0,1,.811,1.043,2.078,2.078,0,0,1-.58,1.507l-19.825,21.8a10.792,10.792,0,0,1-2.2,1.971,5.2,5.2,0,0,1-2.087.812,7.9,7.9,0,0,1-3.13-.463h-.116a1.3,1.3,0,0,1-.812-.928,2.2,2.2,0,0,1,.348-1.623v-.116c.116-.116.232-.348.348-.463a2.52,2.52,0,0,1,.927-.58,2.309,2.309,0,0,1,1.507-.116c.116,0,.232.116.464.232a.9.9,0,0,0,.348.116c.232.116.348.116.464,0a.621.621,0,0,0,.464-.348l5.333-5.913a.217.217,0,0,0,0-.348l-2.667-1.16c-.116-.116-.348,0-.464.116a67.879,67.879,0,0,1-9.159,7.652,2.9,2.9,0,0,1-1.623.464c-.232,0-.348-.116-.464-.116a1.4,1.4,0,0,1-.58-.58,1.459,1.459,0,0,1,0-1.391,2.9,2.9,0,0,1,.464-.812,3.66,3.66,0,0,1,.7-.58,47.006,47.006,0,0,0,6.608-5.449c2.2-2.087,4.522-4.521,6.956-7.188l8.464-9.275a4.365,4.365,0,0,1,1.739-1.043,2.934,2.934,0,0,1,1.739,0Zm-17.159,11.826a.217.217,0,0,0,0,.348l2.551,1.043c.116.116.232,0,.464-.116l3.014-3.247a.217.217,0,0,0,0-.348l-2.551-1.043c-.116-.116-.232,0-.464.116l-.464.58C1597.751,2552.719,1596.939,2553.647,1596.36,2554.227Zm19.13,6.145c-.116-.116-.348,0-.464.116l-2.783,3.015a.217.217,0,0,0,0,.348l4.638,1.971a1.237,1.237,0,0,1,.812,1.043,2.261,2.261,0,0,1-.58,1.507,3.931,3.931,0,0,1-1.623,1.043,2.24,2.24,0,0,1-1.739,0l-4.638-1.971c-.116-.116-.348,0-.464.116l-5.8,6.376a4.863,4.863,0,0,1-1.623,1.043,2.24,2.24,0,0,1-1.739,0h-.116a1.238,1.238,0,0,1-.812-1.043,2.078,2.078,0,0,1,.58-1.507l5.8-6.377a.217.217,0,0,0,0-.348l-4.522-1.971a1.238,1.238,0,0,1-.812-1.043,2.261,2.261,0,0,1,.58-1.507,3.935,3.935,0,0,1,1.623-1.043,2.244,2.244,0,0,1,1.739,0l4.522,1.971c.116.116.232,0,.464-.116l2.783-3.015a.217.217,0,0,0,0-.348l-3.594-1.507a1.237,1.237,0,0,1-.812-1.043,2.262,2.262,0,0,1,.58-1.507l.58-.7a2.356,2.356,0,0,1,1.043-.7,1.564,1.564,0,0,1,1.043,0h.116v-.116a10.776,10.776,0,0,0-.464-1.507,1.264,1.264,0,0,1,.232-1.391c.116-.116.232-.348.348-.463a6.325,6.325,0,0,1,1.043-.812c1.391-.7,2.782-1.507,4.174-2.319a6.06,6.06,0,0,1,1.855-.7,3.566,3.566,0,0,1,1.159.116c.116.116.348.116.464.231h0a1.238,1.238,0,0,1,.348,1.275,1.863,1.863,0,0,1-.464.812,1.064,1.064,0,0,1-.7.464,63.545,63.545,0,0,1-7.652,4.058l-.116.116a.114.114,0,0,0,.116.116l3.71,1.623c.116.116.232,0,.464-.116l7.072-7.768a4.365,4.365,0,0,1,1.739-1.043,2.933,2.933,0,0,1,1.739,0h.116a1.237,1.237,0,0,1,.812,1.043,2.261,2.261,0,0,1-.58,1.507l-7.072,7.768a.217.217,0,0,0,0,.348l3.594,1.507a1.238,1.238,0,0,1,.812,1.043,2.08,2.08,0,0,1-.58,1.507,3.93,3.93,0,0,1-1.623,1.043,2.24,2.24,0,0,1-1.739,0Zm-6.84-15.072a.217.217,0,0,0,0-.348l-2.551-1.043c-.116-.116-.232,0-.464.116l-2.783,3.13a.217.217,0,0,0,0,.348l2.551,1.043c.116.116.348,0,.464-.116Zm19.593,10.2a3.472,3.472,0,0,1-.464.928l-.58.58a4.078,4.078,0,0,1-1.855.7,2.256,2.256,0,0,1-.928-.116c-.116-.116-.348-.232-.464-.348a1.039,1.039,0,0,1-.116-1.275c.464-1.392.812-2.667,1.159-4.058a3.469,3.469,0,0,1,.464-.927,1.6,1.6,0,0,1,.464-.348,2.771,2.771,0,0,1,1.623-.58,3.566,3.566,0,0,1,1.159.116c.116.116.232.116.348.231a1.287,1.287,0,0,1,.464,1.275A24.709,24.709,0,0,0,1628.242,2555.5Z" transform="translate(-1352.963 -2440.907)" fill="#231815"/>
      <path id="Path_7186" data-name="Path 7186" d="M1647.96,2573.58a4.861,4.861,0,0,1-1.623,1.043,2.24,2.24,0,0,1-1.739,0l-10.9-4.753c-.116-.116-.348,0-.464.116l-2.087,2.319v.116h.116a3.09,3.09,0,0,1,1.391-.348,1.467,1.467,0,0,1,.7.116c.116.116.348.116.348.232a66.576,66.576,0,0,1,5.217,5.8,1.46,1.46,0,0,1,0,1.391,1.6,1.6,0,0,1-.348.464,6.447,6.447,0,0,1-.927.7l-.348.232a2.8,2.8,0,0,1-1.855.348c-.232,0-.464-.116-.7-.116a3.073,3.073,0,0,1-.7-.58,55.758,55.758,0,0,0-4.753-5.913h-.232c-.116,0-.116,0-.116.116l-6.608,7.3a4.365,4.365,0,0,1-1.739,1.043,2.933,2.933,0,0,1-1.739,0l-.348-.116a1.238,1.238,0,0,1-.812-1.043,2.078,2.078,0,0,1,.58-1.507l11.13-12.29a.217.217,0,0,0,0-.348l-9.507-4.058a1.237,1.237,0,0,1-.812-1.043,2.079,2.079,0,0,1,.58-1.507l.116-.116a4.867,4.867,0,0,1,1.623-1.043,2.243,2.243,0,0,1,1.739,0l9.507,4.058c.116.116.348,0,.464-.116l8-8.812a4.365,4.365,0,0,1,1.739-1.043,2.936,2.936,0,0,1,1.739,0l.348.116a1.238,1.238,0,0,1,.812,1.043,2.078,2.078,0,0,1-.58,1.507l-1.507,1.739a.217.217,0,0,0,0,.348l7.536,3.246a1.238,1.238,0,0,1,.811,1.043,2.261,2.261,0,0,1-.58,1.507,4.863,4.863,0,0,1-1.623,1.043,2.243,2.243,0,0,1-1.739,0l-7.536-3.246c-.116-.116-.348,0-.464.116l-2.783,3.13a.218.218,0,0,0,0,.348l10.9,4.753a1.238,1.238,0,0,1,.812,1.043,12.684,12.684,0,0,1-1.043,1.624Z" transform="translate(-1347.058 -2438.581)" fill="#231815"/>
    </g>
  </g>
</svg>
