<svg xmlns="http://www.w3.org/2000/svg" width="522.254" height="540.189" viewBox="0 0 522.254 540.189">
  <g id="feature1" transform="translate(0.54 0.513)">
    <path id="Path_6968" data-name="Path 6968" d="M508.688,2190.2a3.383,3.383,0,0,1,4.638-.927,3.3,3.3,0,0,1,.58,4.637,3.205,3.205,0,1,1-5.217-3.71" transform="translate(-375.413 -1975.655)" fill="#ef8619" stroke="#030000" stroke-miterlimit="10" stroke-width="1"/>
    <path id="Path_6969" data-name="Path 6969" d="M515.843,2211.775s-4.174-12.521-3.478-22.724c.58-8-15.188-12.869-16.347,1.739-.812,10.434,2.435,24.579,5.913,31.419" transform="translate(-377.351 -1976.82)" fill="#ef8619" stroke="#030000" stroke-miterlimit="10" stroke-width="1"/>
    <path id="Path_6970" data-name="Path 6970" d="M571.653,2403.3v47.3a14.473,14.473,0,0,1-14.376,14.492h0A14.473,14.473,0,0,1,542.9,2450.6v-47.3" transform="translate(-369.859 -1941.455)" fill="#ef8619" stroke="#030000" stroke-miterlimit="10" stroke-width="1"/>
    <path id="Path_6971" data-name="Path 6971" d="M496.62,2236.7c-45.911,67.823-28.4,159.878,39.071,205.441s159.3,27.593,205.21-40.23,28.289-159.878-39.071-205.441c-67.476-45.679-159.414-27.709-205.21,40.23" transform="translate(-381.315 -1978.443)" fill="#ef8619" stroke="#030000" stroke-miterlimit="10" stroke-width="1"/>
    <path id="Path_6972" data-name="Path 6972" d="M686.961,2266.778a3.353,3.353,0,0,0-3.13-3.478,3.28,3.28,0,0,0-3.13,3.478,3.148,3.148,0,1,0,6.261,0" transform="translate(-347.896 -1963.767)" fill="#ef8619" stroke="#030000" stroke-miterlimit="10" stroke-width="1"/>
    <path id="Path_6973" data-name="Path 6973" d="M672.2,2280.679s10.666-7.768,16-16.463c4.174-6.84,19.825-1.623,12.289,11.014-5.333,9.043-16.347,18.55-23.072,22.144" transform="translate(-349.251 -1964.103)" fill="#ef8619" stroke="#030000" stroke-miterlimit="10" stroke-width="1"/>
    <path id="Path_6974" data-name="Path 6974" d="M575.967,2260.933a19.171,19.171,0,0,1-1.739,2.9c-6.029,8.927-15.42,12.985-20.985,9.275-5.565-3.826-5.217-14.029.812-22.84a22.6,22.6,0,0,1,1.971-2.667Z" transform="translate(-368.84 -1966.269)" fill="#fff"/>
    <path id="Path_6975" data-name="Path 6975" d="M575.967,2260.933a19.171,19.171,0,0,1-1.739,2.9c-6.029,8.927-15.42,12.985-20.985,9.275-5.565-3.826-5.217-14.029.812-22.84a22.6,22.6,0,0,1,1.971-2.667Z" transform="translate(-368.84 -1966.269)" fill="none" stroke="#231815" stroke-miterlimit="10" stroke-width="1"/>
    <path id="Path_6976" data-name="Path 6976" d="M554.756,2250.4c-3.246,4.869-3.478,10.434-.464,12.521s8.232-.232,11.478-5.1,3.478-10.435.464-12.521c-3.13-1.971-8.232.232-11.478,5.1" transform="translate(-368.381 -1966.751)" fill="#231815"/>
    <path id="Path_6977" data-name="Path 6977" d="M574.114,2241.992c4.985,3.362,5.217,11.942.927,20.057L555.1,2248.6c6.029-7.072,14.029-9.971,19.014-6.608" transform="translate(-367.914 -1967.386)" fill="#ef8619"/>
    <path id="Path_6978" data-name="Path 6978" d="M574.114,2241.992c4.985,3.362,5.217,11.942.927,20.057L555.1,2248.6C561.129,2241.529,569.129,2238.63,574.114,2241.992Z" transform="translate(-367.914 -1967.386)" fill="none" stroke="#231815" stroke-miterlimit="10" stroke-width="1"/>
    <path id="Path_6979" data-name="Path 6979" d="M580.449,2251a5.527,5.527,0,0,1-5.449.116" transform="translate(-364.743 -1965.728)" fill="none" stroke="#231815" stroke-linecap="round" stroke-miterlimit="10" stroke-width="1"/>
    <path id="Path_6980" data-name="Path 6980" d="M580.349,2253.664a5.669,5.669,0,0,1-5.449-.464" transform="translate(-364.759 -1965.377)" fill="none" stroke="#231815" stroke-linecap="round" stroke-miterlimit="10" stroke-width="1"/>
    <path id="Path_6981" data-name="Path 6981" d="M580.349,2248.4a5.516,5.516,0,0,1-5.449.348" transform="translate(-364.759 -1966.142)" fill="none" stroke="#231815" stroke-linecap="round" stroke-miterlimit="10" stroke-width="1"/>
    <path id="Path_6982" data-name="Path 6982" d="M523.226,2225.3a22.637,22.637,0,0,0-1.971,2.667c-6.029,8.927-6.377,19.13-.812,22.84,5.565,3.826,14.956-.348,20.985-9.275.58-.928,1.159-1.855,1.739-2.9Z" transform="translate(-374.068 -1969.823)" fill="#fff"/>
    <path id="Path_6983" data-name="Path 6983" d="M523.226,2225.3a22.637,22.637,0,0,0-1.971,2.667c-6.029,8.927-6.377,19.13-.812,22.84,5.565,3.826,14.956-.348,20.985-9.275.58-.928,1.159-1.855,1.739-2.9Z" transform="translate(-374.068 -1969.823)" fill="none" stroke="#231815" stroke-miterlimit="10" stroke-width="1"/>
    <path id="Path_6984" data-name="Path 6984" d="M532.875,2235.62c-3.246,4.87-8.348,7.073-11.478,5.1-3.014-2.087-2.9-7.652.464-12.521,3.246-4.869,8.463-7.072,11.478-5.1,3.014,2.087,2.782,7.652-.464,12.521" transform="translate(-373.631 -1970.289)" fill="#231815"/>
    <path id="Path_6985" data-name="Path 6985" d="M541.3,2219.792c-4.985-3.362-12.985-.464-18.9,6.608l19.941,13.449c4.174-8.116,3.942-16.7-1.043-20.057" transform="translate(-373.126 -1970.924)" fill="#ef8619"/>
    <path id="Path_6986" data-name="Path 6986" d="M541.3,2219.792c-4.985-3.362-12.985-.464-18.9,6.608l19.941,13.449C546.515,2231.734,546.283,2223.155,541.3,2219.792Z" transform="translate(-373.126 -1970.924)" fill="none" stroke="#231815" stroke-miterlimit="10" stroke-width="1"/>
    <path id="Path_6987" data-name="Path 6987" d="M527.108,2215.4a5.47,5.47,0,0,0,1.971,5.1" transform="translate(-372.384 -1971.401)" fill="none" stroke="#231815" stroke-linecap="round" stroke-miterlimit="10" stroke-width="1"/>
    <path id="Path_6988" data-name="Path 6988" d="M524.7,2216.5a5.564,5.564,0,0,0,2.435,4.869" transform="translate(-372.76 -1971.226)" fill="none" stroke="#231815" stroke-linecap="round" stroke-miterlimit="10" stroke-width="1"/>
    <path id="Path_6989" data-name="Path 6989" d="M529.413,2214.6a5.784,5.784,0,0,0,1.623,5.217" transform="translate(-372.024 -1971.529)" fill="none" stroke="#231815" stroke-linecap="round" stroke-miterlimit="10" stroke-width="1"/>
    <path id="Path_6990" data-name="Path 6990" d="M544.189,2274.1s-8.579,1.391-7.884,11.71" transform="translate(-370.916 -1962.046)" fill="none" stroke="#231815" stroke-linecap="round" stroke-miterlimit="10" stroke-width="1"/>
    <path id="Path_6991" data-name="Path 6991" d="M521.284,2258.6s1.855,8.463-7.884,11.71" transform="translate(-374.56 -1964.516)" fill="none" stroke="#231815" stroke-linecap="round" stroke-miterlimit="10" stroke-width="1"/>
    <line id="Line_26" data-name="Line 26" x1="21.912" y1="14.84" transform="translate(145.1 301.504)" fill="none" stroke="#231815" stroke-miterlimit="10" stroke-width="1"/>
    <path id="Path_6992" data-name="Path 6992" d="M522.437,2267.6l2.551,1.739,2.551,1.739s-1.391,3.13-3.826,1.507l-.58-.348-.58-.348c-2.435-1.739-.116-4.29-.116-4.29" transform="translate(-373.279 -1963.082)" fill="#fff"/>
    <path id="Path_6993" data-name="Path 6993" d="M522.573,2267.5l2.551,1.739,2.551,1.739s-1.623,3.594-4.174,1.855l-.58-.348-.58-.348C519.906,2270.4,522.573,2267.5,522.573,2267.5Z" transform="translate(-373.299 -1963.098)" fill="none" stroke="#231815" stroke-miterlimit="10" stroke-width="1"/>
    <path id="Path_6994" data-name="Path 6994" d="M529.744,2272.6l2.551,1.739,2.551,1.739s-1.391,3.13-3.826,1.507l-.58-.348-.58-.348c-2.551-1.855-.116-4.29-.116-4.29" transform="translate(-372.122 -1962.285)" fill="#fff"/>
    <path id="Path_6995" data-name="Path 6995" d="M529.873,2272.5l2.551,1.739,2.551,1.739s-1.623,3.594-4.174,1.855l-.58-.348-.58-.348C527.206,2275.283,529.873,2272.5,529.873,2272.5Z" transform="translate(-372.135 -1962.301)" fill="none" stroke="#231815" stroke-miterlimit="10" stroke-width="1"/>
    <path id="Path_6996" data-name="Path 6996" d="M678.088,2199.614s-16.231-9.623-20.4-31.767c0,0-.7-2.319-3.014-.116,0,0-15.768,13.912-11.362,25.39" transform="translate(-353.98 -1979.15)" fill="#ef8619"/>
    <path id="Path_6997" data-name="Path 6997" d="M678.188,2199.513s-16.231-9.623-20.4-31.767c0,0-.7-2.319-3.014-.116,0,0-15.768,13.913-11.362,25.39" transform="translate(-353.964 -1979.166)" fill="none" stroke="#030000" stroke-miterlimit="10" stroke-width="0.855"/>
    <path id="Path_6998" data-name="Path 6998" d="M634.353,2416.7V2464a14.473,14.473,0,0,1-14.376,14.492h0A14.473,14.473,0,0,1,605.6,2464v-41.042" transform="translate(-359.866 -1939.319)" fill="#ef8619" stroke="#030000" stroke-miterlimit="10" stroke-width="1"/>
    <path id="Path_6999" data-name="Path 6999" d="M781.984,2330.678,400.665,2163.032a11.888,11.888,0,0,1-4.29-18.434l114.894-135.531a11.771,11.771,0,0,1,13.681-3.13l384.217,168.805a9.459,9.459,0,0,1,3.362,14.84L795.664,2327.548A11.6,11.6,0,0,1,781.984,2330.678Z" transform="translate(-393.646 -2004.943)" fill="#fff" stroke="#231815" stroke-miterlimit="10" stroke-width="1"/>
    <g id="Group_631" data-name="Group 631" transform="translate(176.723 77.507)">
      <path id="Path_7000" data-name="Path 7000" d="M591.552,2084.322a27,27,0,0,1,4.522,2.2,1.557,1.557,0,0,1,.812,1.623,2.465,2.465,0,0,1-.812,1.739,113.707,113.707,0,0,1-22.724,19.246c-.232.232-.464.464-.348.7a35.916,35.916,0,0,1,.812,4.406,3.638,3.638,0,0,1-1.159,2.9,8.561,8.561,0,0,1-2.9,1.971l-2.2.812a3.1,3.1,0,0,1-2.667.116h0a1.693,1.693,0,0,1-1.159-1.623c0-.928-.116-1.971-.232-3.246,0-.232-.232-.348-.58-.116a63.742,63.742,0,0,1-13.333,4.29,4.084,4.084,0,0,1-2.087-.116,2.533,2.533,0,0,1-.58-.348,2.162,2.162,0,0,1-.812-2.2c0-.58.116-1.043.116-1.623a3.155,3.155,0,0,1,.927-1.855,1.6,1.6,0,0,0,.348-.464,6.315,6.315,0,0,1,2.783-1.391,43.242,43.242,0,0,0,11.13-3.71c.348-.116.464-.348.348-.58l-.348-1.275c0-.116-.116-.116-.232,0a2.059,2.059,0,0,1-1.159.464.9.9,0,0,1-.812-.348l-1.507-2.435a2.814,2.814,0,0,1-.116-2.551,6.918,6.918,0,0,1,1.043-1.739,4.21,4.21,0,0,1,1.043-.927c3.71-2.9,8.348-6.608,13.8-11.13.232-.232.348-.464,0-.58l-.232-.116a2.234,2.234,0,0,1-1.507-1.855A3.086,3.086,0,0,1,572.77,2082l.927-.927a5.731,5.731,0,0,1,2.783-1.739,4.453,4.453,0,0,1,3.014,0l1.623.7c.232.116.464,0,.812-.232,2.087-1.855,4.522-3.942,7.3-6.376a6.575,6.575,0,0,1,3.13-1.507,4.1,4.1,0,0,1,2.667.232c.116,0,.232.116.348.232l1.043.58a2.04,2.04,0,0,1,1.159,1.971,3.83,3.83,0,0,1-.927,1.971l-.464.464c-2.319,1.971-4.522,3.826-6.724,5.681-.232.232-.232.348,0,.464Zm-7.536,7.072c.232-.232.348-.464,0-.58l-2.435-1.043a.768.768,0,0,0-.812.232q-3.652,2.956-10.782,8.7c-.232.232-.348.464-.232.7a11.977,11.977,0,0,1,.812,2.435c.116.232.232.232.58,0A115.833,115.833,0,0,0,584.016,2091.394Zm31.767,17.507a2.233,2.233,0,0,1,1.507,1.855,3.086,3.086,0,0,1-1.043,2.551l-1.044,1.159a6.712,6.712,0,0,1-2.9,1.739,3.812,3.812,0,0,1-3.014-.116l-8-3.362a.717.717,0,0,0-.812.232l-12.058,13.449a22.855,22.855,0,0,1-4.522,4.058,10.451,10.451,0,0,1-4.638,1.507,20.3,20.3,0,0,1-7.42-1.391c-.116,0-.116-.116-.232-.116a2.794,2.794,0,0,1-1.623-1.623,3.592,3.592,0,0,1,.464-2.782,15.476,15.476,0,0,0,.812-2.087,2.079,2.079,0,0,1,.58-.812,5.148,5.148,0,0,1,1.275-.927,3.007,3.007,0,0,1,2.435-.116h0c.812.348,1.391.58,1.855.812s.812.348,1.043.464a2.3,2.3,0,0,0,1.159.232,1.774,1.774,0,0,0,.812-.58l11.942-13.333c.232-.232.232-.464-.116-.58l-7.3-3.13a2.273,2.273,0,0,1-1.507-1.855,3.345,3.345,0,0,1,.927-2.551l1.043-1.159a6.1,6.1,0,0,1,2.9-1.739,4.453,4.453,0,0,1,3.014,0l7.3,3.13a.768.768,0,0,0,.812-.232l2.9-3.246a3.9,3.9,0,0,1,1.855-1.159,2.861,2.861,0,0,1,1.971,0,.525.525,0,0,0,.58,0,71.592,71.592,0,0,0,8.232-3.478c.116,0,.116-.116.232-.232,0-.116,0-.116-.116-.232l-11.942-4.985a2.234,2.234,0,0,1-1.507-1.855,3.086,3.086,0,0,1,1.043-2.551l.812-.927a6.714,6.714,0,0,1,2.9-1.739,3.813,3.813,0,0,1,3.014.116l17.159,7.188c.116.116.232.116.464.116a2.188,2.188,0,0,1,.927.232,1.935,1.935,0,0,1,1.275,1.391l.58,1.623a3.023,3.023,0,0,1-.58,2.551,2.532,2.532,0,0,1-.464.58,6.183,6.183,0,0,1-2.2,1.507c-6.492,2.782-12.173,4.869-16.927,6.377a1.869,1.869,0,0,0-.812.464l-1.275,1.391c-.232.232-.232.464.116.58Z" transform="translate(-546.076 -2071.795)" fill="#71bf87" stroke="#030000" stroke-miterlimit="10" stroke-width="1"/>
      <path id="Path_7001" data-name="Path 7001" d="M639.251,2104.322a27,27,0,0,1,4.522,2.2,1.557,1.557,0,0,1,.812,1.623,2.466,2.466,0,0,1-.812,1.739,113.716,113.716,0,0,1-22.724,19.246c-.232.232-.464.464-.348.7a35.927,35.927,0,0,1,.812,4.406,3.638,3.638,0,0,1-1.159,2.9,8.561,8.561,0,0,1-2.9,1.971l-2.2.812a3.1,3.1,0,0,1-2.667.116h0a1.693,1.693,0,0,1-1.159-1.623c0-.927-.116-1.971-.232-3.246,0-.232-.232-.348-.58-.116a63.755,63.755,0,0,1-13.333,4.29,4.087,4.087,0,0,1-2.087-.116,2.541,2.541,0,0,1-.58-.348,2.162,2.162,0,0,1-.812-2.2c0-.58.116-1.043.116-1.623a3.156,3.156,0,0,1,.927-1.855,1.6,1.6,0,0,0,.348-.464,6.315,6.315,0,0,1,2.783-1.391,43.242,43.242,0,0,0,11.13-3.71c.348-.116.464-.348.348-.58l-.348-1.275c0-.116-.116-.116-.232,0a2.059,2.059,0,0,1-1.159.464.9.9,0,0,1-.812-.348l-1.507-2.435a2.814,2.814,0,0,1-.116-2.551,6.919,6.919,0,0,1,1.043-1.739,4.211,4.211,0,0,1,1.043-.927c3.71-2.9,8.348-6.608,13.8-11.13.232-.232.348-.464,0-.58l-.232-.116a2.233,2.233,0,0,1-1.507-1.855A3.086,3.086,0,0,1,620.47,2102l.927-.927a5.731,5.731,0,0,1,2.783-1.739,4.453,4.453,0,0,1,3.014,0l1.623.7c.232.116.464,0,.812-.232,2.087-1.855,4.522-3.942,7.3-6.376a6.575,6.575,0,0,1,3.13-1.507,4.1,4.1,0,0,1,2.667.232c.116,0,.232.116.348.232l1.043.58a2.04,2.04,0,0,1,1.159,1.971,3.83,3.83,0,0,1-.927,1.971l-.464.464c-2.319,1.971-4.522,3.826-6.724,5.681-.232.232-.232.348,0,.464Zm-7.536,7.072c.232-.232.348-.464,0-.58l-2.435-1.043a.768.768,0,0,0-.812.232q-3.652,2.956-10.782,8.7c-.232.232-.348.464-.232.7a11.974,11.974,0,0,1,.812,2.435c.116.232.232.232.58,0A115.833,115.833,0,0,0,631.716,2111.394Zm31.767,17.507a2.233,2.233,0,0,1,1.507,1.855,3.086,3.086,0,0,1-1.043,2.551l-1.043,1.159a6.711,6.711,0,0,1-2.9,1.739,3.812,3.812,0,0,1-3.014-.116l-8-3.362a.717.717,0,0,0-.812.232l-12.058,13.449a22.855,22.855,0,0,1-4.522,4.058,10.451,10.451,0,0,1-4.638,1.507,20.733,20.733,0,0,1-7.42-1.391c-.116,0-.116-.116-.232-.116a2.794,2.794,0,0,1-1.623-1.623,3.592,3.592,0,0,1,.464-2.782,15.468,15.468,0,0,0,.812-2.087,2.079,2.079,0,0,1,.58-.812,5.153,5.153,0,0,1,1.275-.927,3.007,3.007,0,0,1,2.435-.116h0c.812.348,1.391.58,1.855.812s.812.348,1.043.464a2.3,2.3,0,0,0,1.159.232,1.775,1.775,0,0,0,.812-.58l11.942-13.333c.232-.232.232-.464-.116-.58l-7.3-3.13a2.273,2.273,0,0,1-1.507-1.855,3.345,3.345,0,0,1,.927-2.551l1.043-1.159a6.1,6.1,0,0,1,2.9-1.739,4.453,4.453,0,0,1,3.014,0l7.3,3.13a.768.768,0,0,0,.812-.232l2.9-3.246a3.9,3.9,0,0,1,1.855-1.159,2.861,2.861,0,0,1,1.971,0,.526.526,0,0,0,.58,0,71.552,71.552,0,0,0,8.232-3.478c.116,0,.116-.116.232-.232,0-.116,0-.116-.116-.232l-11.942-4.985a2.234,2.234,0,0,1-1.507-1.855,3.086,3.086,0,0,1,1.043-2.551l.812-.927a6.711,6.711,0,0,1,2.9-1.739,3.813,3.813,0,0,1,3.014.116l17.159,7.188c.116.116.232.116.464.116a2.187,2.187,0,0,1,.927.232,1.935,1.935,0,0,1,1.275,1.391l.58,1.623a3.023,3.023,0,0,1-.58,2.551,2.528,2.528,0,0,1-.464.58,6.187,6.187,0,0,1-2.2,1.507c-6.492,2.782-12.173,4.869-16.927,6.376a1.87,1.87,0,0,0-.812.464l-1.275,1.391c-.232.232-.232.464.116.58Z" transform="translate(-538.473 -2068.608)" fill="#71bf87" stroke="#030000" stroke-miterlimit="10" stroke-width="1"/>
      <path id="Path_7002" data-name="Path 7002" d="M725.558,2131.022a1.984,1.984,0,0,1,1.391,1.855,3.345,3.345,0,0,1-.927,2.551l-2.087,2.319a6.1,6.1,0,0,1-2.9,1.739,4.453,4.453,0,0,1-3.014,0l-2.667-1.159h-.116v.116a2.75,2.75,0,0,1,.812,2.319,2.409,2.409,0,0,1-.58,1.391,2.525,2.525,0,0,1-1.044.812,8.313,8.313,0,0,1-4.174,1.275,11.548,11.548,0,0,1-4.522-1.043l-6.029-2.551c-3.362-1.391-5.1-2.782-5.449-4.174s.58-3.246,2.783-5.681l2.087-2.319c.232-.232.232-.464,0-.464l-2.319-1.043a.714.714,0,0,0-.812.116,25.6,25.6,0,0,1-8.348,4.753,26.366,26.366,0,0,1-10.318.58h-.116v.116l26.9,11.246a1.985,1.985,0,0,1,1.391,1.855,3.345,3.345,0,0,1-.927,2.551l-7.536,8.463c-.232.232-.232.464,0,.58l1.855.812a2.273,2.273,0,0,1,1.507,1.855,3.345,3.345,0,0,1-.927,2.551l-7.536,8.464a18.43,18.43,0,0,1-4.058,3.594,8.934,8.934,0,0,1-4.174,1.391,14.907,14.907,0,0,1-5.681-.927c-.116,0-.116-.116-.232-.116a2.518,2.518,0,0,1-1.507-1.739,4.059,4.059,0,0,1,.348-2.782c.58-1.276,1.159-2.551,1.623-3.826a.116.116,0,1,0-.232,0l-.812.928a6.716,6.716,0,0,1-2.9,1.739,3.811,3.811,0,0,1-3.014-.116l-9.739-4.058a.426.426,0,0,0-.348.116,4.786,4.786,0,0,1-1.275.812,2.825,2.825,0,0,1-1.391,0l-2.435-1.043a2.233,2.233,0,0,1-1.507-1.855,3.085,3.085,0,0,1,1.043-2.551l4.29-4.869a6.713,6.713,0,0,1,2.9-1.739,3.812,3.812,0,0,1,3.014.116l13.8,5.8a2.234,2.234,0,0,1,1.507,1.855,3.086,3.086,0,0,1-1.044,2.551l-1.275,1.507c-.232.232-.232.464.116.58.927.464,2.087.927,3.594,1.623.348.116.58.232.812.116.232,0,.464-.232.7-.464l4.869-5.449c.232-.232.232-.464-.116-.58l-28.869-12.173c-.232-.116-.464,0-.7.232l-8.811,9.854a6.714,6.714,0,0,1-2.9,1.739,3.813,3.813,0,0,1-3.014-.116l-1.507-.58a2.273,2.273,0,0,1-1.507-1.855,3.345,3.345,0,0,1,.927-2.551l11.362-12.637a6.714,6.714,0,0,1,2.9-1.739,3.813,3.813,0,0,1,3.014.116l1.855.812a.768.768,0,0,0,.812-.232l9.159-10.318c.232-.232.116-.348-.116-.464a5.018,5.018,0,0,1-.58-.116,1.647,1.647,0,0,1-.7-.232,2.741,2.741,0,0,1-1.507-1.275,5.066,5.066,0,0,1-.232-3.246,2.73,2.73,0,0,1,.58-1.159,5.056,5.056,0,0,1,.812-.7,2.846,2.846,0,0,1,2.319-.348,38.1,38.1,0,0,0,7.188,1.507,12.673,12.673,0,0,0,4.522-.348,10.2,10.2,0,0,0,3.478-1.855.426.426,0,0,0,.116-.348c0-.116,0-.116-.116-.232l-5.449-2.319c-.232-.116-.464,0-.7.232l-.232.348a6.716,6.716,0,0,1-2.9,1.739,3.811,3.811,0,0,1-3.014-.116l-1.391-.58a2.273,2.273,0,0,1-1.507-1.855,3.345,3.345,0,0,1,.927-2.551l3.13-3.478a6.1,6.1,0,0,1,2.9-1.739,4.453,4.453,0,0,1,3.014,0l17.159,7.188c.232.116.464,0,.7-.232a5.762,5.762,0,0,1,2.9-1.739,4.453,4.453,0,0,1,3.014,0l1.971.812a1.984,1.984,0,0,1,1.391,1.855,3.345,3.345,0,0,1-.927,2.551c-.232.232-.232.464,0,.58Zm-55.65,32c.232.116.464,0,.7-.232l.927-1.043c.232-.232.232-.464,0-.464l-4.985-2.087c-.232-.116-.464,0-.7.232l-.927,1.043c-.232.232-.232.464,0,.464Zm24.347-15.652c.232-.232.232-.464,0-.464l-18.666-7.884c-.232-.116-.464,0-.7.232l-5.217,5.8c-.232.232-.232.464,0,.58l5.333,2.2c.232.116.464,0,.7-.232l1.507-1.739a6.1,6.1,0,0,1,2.9-1.739,4.453,4.453,0,0,1,3.014,0l9.855,4.174c.232.116.464,0,.7-.232Zm-5.913,6.029c.232.116.464,0,.7-.232l.7-.7c.232-.232.232-.464,0-.464l-5.449-2.319c-.232-.116-.464,0-.7.232l-.7.7c-.232.232-.232.464,0,.58Zm16.927-17.159,3.71,1.507a2.262,2.262,0,0,0,1.507.116,5.57,5.57,0,0,0,1.739-1.159.852.852,0,0,1,.7-.232.887.887,0,0,1,.58.232c0,.116.116,0,.232,0l1.275-1.391c.232-.232.232-.464,0-.464l-7.3-3.13c-.232-.116-.464,0-.7.232l-2.087,2.319a2.965,2.965,0,0,0-.812,1.391Z" transform="translate(-530.87 -2065.281)" fill="#71bf87" stroke="#030000" stroke-miterlimit="10" stroke-width="1"/>
    </g>
    <g id="Group_632" data-name="Group 632" transform="translate(81.103 123.018)">
      <path id="Path_7003" data-name="Path 7003" d="M464.412,2136.846a1.237,1.237,0,0,1-.812-1.043,2.079,2.079,0,0,1,.58-1.507l15.42-16.927a.218.218,0,0,0,0-.348l-4.522-1.971a1.238,1.238,0,0,1-.812-1.043,2.262,2.262,0,0,1,.58-1.507l.232-.232a4.866,4.866,0,0,1,1.623-1.043,2.242,2.242,0,0,1,1.739,0l14.26,6.145a1.238,1.238,0,0,1,.812,1.043,2.078,2.078,0,0,1-.58,1.507l-.232.232a4.861,4.861,0,0,1-1.623,1.043,2.24,2.24,0,0,1-1.739,0l-4.522-1.971c-.116-.116-.348,0-.464.116l-15.42,16.927a4.866,4.866,0,0,1-1.623,1.043,2.242,2.242,0,0,1-1.739,0Z" transform="translate(-463.6 -2111.05)" fill="#231815"/>
      <path id="Path_7004" data-name="Path 7004" d="M489.335,2146.729a1.512,1.512,0,0,1-1.043-1.159,2.779,2.779,0,0,1,.232-1.623l2.435-4.406c.116-.232.116-.348-.116-.348l-7.072-3.015c-.116-.116-.348,0-.464.116l-4.638,3.478a4.207,4.207,0,0,1-1.971.812,3.23,3.23,0,0,1-1.855-.116l-1.159-.464a1.086,1.086,0,0,1-.116-1.855,1.605,1.605,0,0,1,.464-.348l24-16.579a4.208,4.208,0,0,1,1.971-.812,3.227,3.227,0,0,1,1.855.116l1.855.812a1.558,1.558,0,0,1,1.043,1.043,2.094,2.094,0,0,1-.232,1.623l-11.246,22.144c-.116.116-.232.348-.348.464a2.527,2.527,0,0,1-.927.58,2.344,2.344,0,0,1-1.507.116Zm-1.275-13.8a.114.114,0,0,0-.116.116c0,.116,0,.116.116.116l5.1,2.2h.232c.116,0,.116-.116.232-.116l1.391-2.551c.58-1.043,1.391-2.551,2.551-4.521s1.855-3.246,2.2-3.826v-.116h-.116c-2.782,2.2-5.681,4.406-8.7,6.493Z" transform="translate(-462.09 -2109.571)" fill="#231815"/>
      <path id="Path_7005" data-name="Path 7005" d="M493.712,2149.164a1.238,1.238,0,0,1-.812-1.043,2.078,2.078,0,0,1,.58-1.507l17.507-19.246a4.86,4.86,0,0,1,1.623-1.043,2.24,2.24,0,0,1,1.739,0l1.507.7a1.513,1.513,0,0,1,1.043,1.16,2.66,2.66,0,0,1-.116,1.623l-4.753,10.434c-.116.232-.927,1.855-2.551,4.87v.116h.116a24.928,24.928,0,0,0,2.551-1.855c1.159-.812,2.087-1.507,2.667-1.855l11.478-7.536a4.168,4.168,0,0,1,2.087-.812,3.231,3.231,0,0,1,1.855.116l1.507.7a1.238,1.238,0,0,1,.812,1.043,2.078,2.078,0,0,1-.58,1.507l-17.507,19.246a4.87,4.87,0,0,1-1.623,1.043,2.245,2.245,0,0,1-1.739,0l-.58-.232a1.238,1.238,0,0,1-.812-1.043,2.079,2.079,0,0,1,.58-1.507l7.072-7.652c1.159-1.275,3.594-3.71,7.3-7.188,0,0,.116,0,0-.116h-.116l-6.724,4.521-10.782,6.956a3.416,3.416,0,0,1-1.507.58,2.609,2.609,0,0,1-1.391-.116,1.4,1.4,0,0,1-.812-.812,1.371,1.371,0,0,1,.116-1.159l4.406-9.739,3.014-6.029v-.116h-.116c-3.13,3.942-5.1,6.493-6.145,7.652l-7.072,7.652a4.87,4.87,0,0,1-1.623,1.043,2.244,2.244,0,0,1-1.739,0Z" transform="translate(-458.93 -2108.644)" fill="#231815"/>
      <path id="Path_7006" data-name="Path 7006" d="M530.035,2164.328a1.512,1.512,0,0,1-1.043-1.159,2.78,2.78,0,0,1,.232-1.623l2.435-4.406c.116-.232.116-.348-.116-.348l-7.072-3.014c-.116-.116-.348,0-.464.116l-4.638,3.478a4.208,4.208,0,0,1-1.971.812,3.225,3.225,0,0,1-1.855-.116l-1.159-.464a1.086,1.086,0,0,1-.116-1.855,1.6,1.6,0,0,1,.464-.348l24-16.579a4.207,4.207,0,0,1,1.971-.811,3.225,3.225,0,0,1,1.855.116l1.855.812a1.559,1.559,0,0,1,1.043,1.043,2.094,2.094,0,0,1-.232,1.623l-11.246,22.144c-.116.116-.232.348-.348.464a2.527,2.527,0,0,1-.927.58,2.342,2.342,0,0,1-1.507.116Zm-1.275-13.913a.114.114,0,0,0-.116.116c0,.116,0,.116.116.116l5.1,2.2h.232c.116,0,.116-.116.232-.116l1.391-2.551c.58-1.043,1.391-2.551,2.551-4.521s1.855-3.246,2.2-3.826v-.116h-.116c-2.783,2.2-5.681,4.406-8.7,6.493Z" transform="translate(-455.603 -2106.766)" fill="#231815"/>
      <path id="Path_7007" data-name="Path 7007" d="M551.091,2171.633c-.116.232-.232.348-.348.58a2.528,2.528,0,0,1-.58.464,1.493,1.493,0,0,1-1.391.116l-1.623-.7a2.073,2.073,0,0,1-1.159-1.043,2.547,2.547,0,0,1-.116-1.623l2.435-8.464c0-.232,0-.348-.116-.348l-2.783-1.159c-.116-.116-.232,0-.464.116l-6.029,6.608a4.862,4.862,0,0,1-1.623,1.043,2.24,2.24,0,0,1-1.739,0l-1.043-.464a1.237,1.237,0,0,1-.812-1.043,2.079,2.079,0,0,1,.58-1.507l17.507-19.246a4.866,4.866,0,0,1,1.623-1.043,2.242,2.242,0,0,1,1.739,0l6.261,2.667c5.913,2.551,6.724,6.029,2.551,10.666a15.168,15.168,0,0,1-4.753,3.594,10.73,10.73,0,0,1-5.333,1.043c-.232,0-.348.116-.348.232Zm3.826-22.84c-.116-.116-.348,0-.464.116l-5.913,6.493a.218.218,0,0,0,0,.348l2.783,1.159a7.07,7.07,0,0,0,4.29.58,6.931,6.931,0,0,0,3.71-2.2c1.043-1.159,1.507-2.2,1.159-3.015a4.714,4.714,0,0,0-2.783-2.2Z" transform="translate(-452.428 -2105.839)" fill="#231815"/>
      <path id="Path_7008" data-name="Path 7008" d="M553.012,2174.664a1.237,1.237,0,0,1-.812-1.043,2.079,2.079,0,0,1,.58-1.507l17.507-19.246a4.866,4.866,0,0,1,1.623-1.043,2.242,2.242,0,0,1,1.739,0l1.043.464a1.238,1.238,0,0,1,.812,1.043,2.078,2.078,0,0,1-.58,1.507l-17.507,19.246a4.866,4.866,0,0,1-1.623,1.043,2.242,2.242,0,0,1-1.739,0Z" transform="translate(-449.479 -2104.58)" fill="#231815"/>
      <path id="Path_7009" data-name="Path 7009" d="M561.912,2178.464a1.237,1.237,0,0,1-.812-1.043,2.079,2.079,0,0,1,.58-1.507l17.507-19.246a4.862,4.862,0,0,1,1.623-1.043,2.24,2.24,0,0,1,1.739,0l5.913,2.551c5.681,2.435,6.724,5.565,3.362,9.275a10.136,10.136,0,0,1-3.594,2.551,7.518,7.518,0,0,1-3.942.927h-.232c0,.116-.116.116,0,.116a4.052,4.052,0,0,1,1.507,3.13c0,1.275-.7,2.551-2.087,4.058a12.106,12.106,0,0,1-7.072,3.942,14.371,14.371,0,0,1-8.116-1.159Zm6.261-2.435a.217.217,0,0,0,0,.348l3.014,1.275c3.246,1.391,6.029.928,8.116-1.275,1.043-1.043,1.275-2.087.927-2.9a5.529,5.529,0,0,0-3.014-2.319l-3.014-1.275c-.116-.116-.348,0-.464.116Zm9.159-9.97a.218.218,0,0,0,0,.348l2.551,1.043a7,7,0,0,0,3.942.58,5.345,5.345,0,0,0,3.014-1.739,2.56,2.56,0,0,0,.927-2.551,4.744,4.744,0,0,0-2.551-1.971l-2.551-1.159c-.116-.116-.232,0-.464.116Z" transform="translate(-448.061 -2103.974)" fill="#231815"/>
      <path id="Path_7010" data-name="Path 7010" d="M593.535,2191.628a1.512,1.512,0,0,1-1.043-1.159,2.78,2.78,0,0,1,.232-1.623l2.435-4.406c.116-.232.116-.348-.116-.348l-7.072-3.015c-.116-.116-.348,0-.464.116l-4.638,3.478a4.208,4.208,0,0,1-1.971.812,3.23,3.23,0,0,1-1.855-.116l-1.159-.464a1.086,1.086,0,0,1-.116-1.855,1.6,1.6,0,0,1,.464-.348l24-16.579a4.208,4.208,0,0,1,1.971-.812,3.23,3.23,0,0,1,1.855.116l1.855.812a1.559,1.559,0,0,1,1.043,1.043,2.1,2.1,0,0,1-.232,1.623l-11.246,22.144c-.116.116-.232.348-.348.464a2.525,2.525,0,0,1-.927.58,2.344,2.344,0,0,1-1.507.116Zm-1.275-13.913a.114.114,0,0,0-.116.116c0,.116,0,.116.116.116l5.1,2.2h.232c.116,0,.116-.116.232-.116l1.391-2.551c.58-1.043,1.391-2.551,2.551-4.521s1.855-3.246,2.2-3.826v-.116h-.116c-2.783,2.2-5.681,4.406-8.7,6.493Z" transform="translate(-445.483 -2102.415)" fill="#231815"/>
      <path id="Path_7011" data-name="Path 7011" d="M621.59,2203.648l.348.116a.571.571,0,0,0,.348.116c.116,0,.116,0,.348-.116a2.423,2.423,0,0,0,.7-.464c.348-.348.927-.927,1.739-1.855a2.327,2.327,0,0,1,.927-.464.7.7,0,0,1,.7.348,1.329,1.329,0,0,1,.116,1.159,2.368,2.368,0,0,1-.58,1.043,16.4,16.4,0,0,1-2.667,2.435,4.308,4.308,0,0,1-2.2,1.043,2.854,2.854,0,0,1-1.971-.232l-1.507-.7a1.809,1.809,0,0,1-1.275-1.507,2.591,2.591,0,0,1,.348-1.159c.232-.348.812-1.043,1.507-1.855l1.855-2.087v-.116H620.2a48.388,48.388,0,0,1-9.043,2.9,2.3,2.3,0,0,1-1.275-.116c-.116,0-.116-.116-.232-.116a1.688,1.688,0,0,1-.7-1.043,1.873,1.873,0,0,1,.464-1.159,2.15,2.15,0,0,1,1.391-.812c.7-.116,1.391-.348,2.087-.464h0a.425.425,0,0,1-.348-.116v-.348a10.655,10.655,0,0,0,.58-.927c0-.116,0-.232-.116-.232-1.971-.116-4.174-.232-6.84-.348-.348,0-.58-.116-.812-.116a1.157,1.157,0,0,1-.58-.464,1.427,1.427,0,0,1-.116-1.391v-.116l.348-.7a2.079,2.079,0,0,1,.812-.58,2.387,2.387,0,0,1,1.739-.348c.232,0,.348,0,.464-.232l5.333-5.913v-.116h-.116l-1.391.7a1.68,1.68,0,0,1-1.275.116h-.116a.73.73,0,0,1-.348-.928c.116-.348.232-.7.348-1.159h-.232l-10.087,11.13a2.989,2.989,0,0,1-1.507.928,2.584,2.584,0,0,1-1.623,0,1.475,1.475,0,0,1-.812-1.043,1.836,1.836,0,0,1,.58-1.391l7.884-8.7h-.116c-1.623,1.159-3.246,2.087-4.638,2.9a1.405,1.405,0,0,1-1.159.116h0a.6.6,0,0,1-.348-.812v-.116a4.364,4.364,0,0,1,1.044-1.739,11.4,11.4,0,0,1,1.739-1.391,79.635,79.635,0,0,0,11.13-7.652.218.218,0,0,0,0-.348l-1.275-.58a1.475,1.475,0,0,1-.812-1.043,1.836,1.836,0,0,1,.58-1.391,2.874,2.874,0,0,1,1.623-.928,1.977,1.977,0,0,1,1.623,0l1.391.58c.116.116.348,0,.464-.116l3.826-4.29a2.989,2.989,0,0,1,1.507-.927,2.583,2.583,0,0,1,1.623,0,1.474,1.474,0,0,1,.812,1.043,1.837,1.837,0,0,1-.58,1.391l-3.826,4.29a.218.218,0,0,0,0,.348l.464.232a1.114,1.114,0,0,1,.7,1.043,1.836,1.836,0,0,1-.58,1.391,2.991,2.991,0,0,1-1.507.928,2.584,2.584,0,0,1-1.623,0l-.464-.232c-.116-.116-.348,0-.464.116l-1.391,1.507a.88.88,0,0,0-.232.464c0,1.275,0,2.667-.116,4.174v.116h.116l10.318-11.362a4.365,4.365,0,0,1,1.739-1.043,2.933,2.933,0,0,1,1.739,0l4.522,1.971a1.238,1.238,0,0,1,.812,1.043,2.078,2.078,0,0,1-.58,1.507l-9.275,10.087a4.862,4.862,0,0,1-1.623,1.043,2.24,2.24,0,0,1-1.739,0l-3.13-1.391c-.116-.116-.232,0-.464.116l-5.1,5.565a.114.114,0,0,1-.116.116l.116.116,2.667.348c.232,0,.348,0,.464-.232.232-.58.58-1.159.812-1.739.116-.232.232-.348.348-.58a3.677,3.677,0,0,1,.7-.58,1.846,1.846,0,0,1,1.507-.348,5.018,5.018,0,0,1,.58.116.907.907,0,0,1,.464.464,1.044,1.044,0,0,1,.116,1.159,49.619,49.619,0,0,1-2.2,4.869v.116h.116a34.118,34.118,0,0,0,9.043-4.869.116.116,0,0,0,0-.232l-2.667-1.159c-.464-.232-.7-.464-.7-.927a1.744,1.744,0,0,1,.464-1.275l.464-.58a2.527,2.527,0,0,1,.927-.58,1.605,1.605,0,0,1,1.043,0h.232l6.956-7.652c.116-.116.116-.116,0-.116-.232-.116-.348-.232-.348-.464a1.649,1.649,0,0,1,.232-.7l.58-.7a2.958,2.958,0,0,1,1.391-.927,3.3,3.3,0,0,1,1.507,0l6.956,3.014c.464.232.7.464.7.928a1.932,1.932,0,0,1-.464,1.275h0a2.956,2.956,0,0,1-1.391.927,2.235,2.235,0,0,1-1.507,0,.426.426,0,0,0-.348.116l-1.855,2.087a55.371,55.371,0,0,1-5.217,5.217.218.218,0,0,0,0,.348l.7.348c.464.232.7.464.7.927a1.477,1.477,0,0,1-.58,1.275,3.331,3.331,0,0,1-1.507.928,2.216,2.216,0,0,1-1.507,0l-1.275-.58c-.116-.116-.348,0-.464.116l-.348.232c-.116.116-.348.232-.464.464l-7.536,8.232c-.232.232-.348.348-.348.464A5.306,5.306,0,0,1,621.59,2203.648Zm-1.391-19.13a.218.218,0,0,0,0,.348l1.739.7c.116.116.232,0,.464-.116l1.971-2.2a.218.218,0,0,0,0-.348l-1.739-.7c-.116-.116-.232,0-.464.116Zm8.927-6.493a.218.218,0,0,0,0-.348l-1.739-.7c-.116-.116-.232,0-.464.116l-1.855,2.087a.218.218,0,0,0,0,.348l1.739.7c.116.116.232,0,.348-.116Zm.58,10.782a.218.218,0,0,0,0,.348l.7.348c.116.116.348,0,.464-.116q2.435-2.261,5.217-5.217l1.855-2.087a.218.218,0,0,0,0-.348l-1.043-.464c-.116-.116-.348,0-.464.116Z" transform="translate(-442.467 -2101.913)" fill="#231815"/>
      <path id="Path_7012" data-name="Path 7012" d="M625.843,2206.16a3.873,3.873,0,0,1-1.971.116c-.116,0-.116,0-.232-.116a1.809,1.809,0,0,1-.927-.927v-.116c-.232-.464,0-.928.464-1.391a4.169,4.169,0,0,1,1.391-.927,23.779,23.779,0,0,0,5.913-3.014,5.465,5.465,0,0,1,1.739-.7,3.21,3.21,0,0,1,1.044.116c.116.116.348.232.464.348a1.308,1.308,0,0,1,.348,1.275,2.331,2.331,0,0,1-.464.928,1.158,1.158,0,0,1-.58.464A32.3,32.3,0,0,1,625.843,2206.16Zm10.318,2.551,3.71,1.623a1.4,1.4,0,0,0,1.159.116,5.842,5.842,0,0,0,1.507-1.043,1.92,1.92,0,0,1,1.391-.58,1.719,1.719,0,0,1,.812.116c.116.116.348.116.464.348a1.6,1.6,0,0,1,.348,1.391,2.21,2.21,0,0,1-.58,1.159l-.348.348a9.038,9.038,0,0,1-3.826,2.087,6.325,6.325,0,0,1-3.478-.464l-4.522-1.971c-1.855-.812-2.9-1.623-3.014-2.551-.116-.812.58-2.087,2.087-3.71l2.9-3.13a4.368,4.368,0,0,1,1.739-1.043,2.937,2.937,0,0,1,1.739,0h.116a1.238,1.238,0,0,1,.812,1.043,2.078,2.078,0,0,1-.58,1.507l-2.9,3.13c-.348.464-.58.7-.464.927C635.118,2208.131,635.466,2208.363,636.161,2208.711Zm11.478-16.927c-.464-.232-.7-.464-.7-.927a1.614,1.614,0,0,1,.58-1.275v-.116h-.116c-2.551.232-5.1.348-7.536.348-.348,0-.58-.116-.927-.116a1.157,1.157,0,0,1-.58-.464,1.445,1.445,0,0,1-.348-1.391c0-.116,0-.232.116-.232a1.173,1.173,0,0,1,.464-.812,1.6,1.6,0,0,1,.464-.348,2.549,2.549,0,0,1,1.507-.464,42.269,42.269,0,0,0,7.652-.348,56.494,56.494,0,0,0,7.188-1.391,6.344,6.344,0,0,1,4.174,0l.232.116a3,3,0,0,1,1.971,2.551A18.9,18.9,0,0,0,666.769,2197a1.044,1.044,0,0,1,.116,1.159c-.116.116-.232.348-.348.464a1.831,1.831,0,0,1-.927.58c-.232.116-.464.116-.58.232a3.126,3.126,0,0,1-1.971.348c-.348,0-.58-.116-.812-.116a1.157,1.157,0,0,1-.58-.464,25.7,25.7,0,0,1-2.9-4.869h-.116c-.116,0-.116,0-.116.116a3.328,3.328,0,0,1-1.507.927,3.819,3.819,0,0,1-1.623,0Zm9.623,6.029c.116,0,.232.116.348.116a.907.907,0,0,1,.464.464l.348.812a1.372,1.372,0,0,1-.116,1.159c-.116.116-.232.348-.348.464a2.08,2.08,0,0,1-.812.58q-3.478,1.739-7.652,3.478a2.275,2.275,0,0,1-1.739.116c-.116,0-.232-.116-.348-.116a1.045,1.045,0,0,1-.7-.7,1.68,1.68,0,0,1,.116-1.275c.116-.116.116-.232.232-.348a4.059,4.059,0,0,1,1.043-.7,27.881,27.881,0,0,0,3.826-1.739l.116-.116v-.116l-13.333-5.681c-.464-.232-.7-.464-.7-.927a1.933,1.933,0,0,1,.464-1.276,2.958,2.958,0,0,1,1.391-.927,3.3,3.3,0,0,1,1.507,0l15.42,6.608A1.814,1.814,0,0,0,657.262,2197.813Zm-17.159,3.478a1.107,1.107,0,0,1,.232-1.159c0-.116.116-.116.232-.232.232-.348.7-.464,1.159-.7a3.445,3.445,0,0,1,1.855-.116c.116,0,.348.116.464.116a1.56,1.56,0,0,1,.812.7,25.976,25.976,0,0,1,1.391,3.362,1.7,1.7,0,0,1-.58,1.507,3.93,3.93,0,0,1-1.623,1.043h0a2.24,2.24,0,0,1-1.739,0,1.645,1.645,0,0,1-.927-1.043A21.056,21.056,0,0,0,640.1,2201.291Zm7.768,7.3a1.661,1.661,0,0,1,.464-1.159c0-.116.116-.116.232-.232a2.29,2.29,0,0,1,1.623-.7,2.211,2.211,0,0,1,1.507.232c.116,0,.232.116.348.116a1.332,1.332,0,0,1,.7,1.275,22.933,22.933,0,0,1-.348,5.8,2.367,2.367,0,0,1-.58,1.043l-.464.464a4.208,4.208,0,0,1-1.971.811h-.348a2.573,2.573,0,0,1-1.043-.116c-.116-.116-.348-.116-.348-.348a1.238,1.238,0,0,1-.348-1.275A30.035,30.035,0,0,0,647.871,2208.595Zm2.9-19.593h0c-.116.116-.116.116-.116.232l7.188,3.13h.116l.116-.116a16.665,16.665,0,0,1-.927-4.406c0-.116-.116-.232-.348-.116C654.943,2188.074,652.972,2188.537,650.769,2189Z" transform="translate(-438.256 -2099.44)" fill="#231815"/>
      <path id="Path_7013" data-name="Path 7013" d="M677.809,2226.91a.872.872,0,0,1,.58.812,1.66,1.66,0,0,1-.464,1.159,3,3,0,0,1-1.275.812,2.809,2.809,0,0,1-1.391,0l-21.217-9.159c-.116,0-.116,0-.232.116a2.528,2.528,0,0,1-.927.58,1.27,1.27,0,0,1-.927,0l-1.043-.464a1.238,1.238,0,0,1-.812-1.043,2.261,2.261,0,0,1,.58-1.507l10.782-11.826a4.861,4.861,0,0,1,1.623-1.043,2.24,2.24,0,0,1,1.739,0l.232.116a1.238,1.238,0,0,1,.812,1.043,2.078,2.078,0,0,1-.58,1.507l-8.7,9.507a.218.218,0,0,0,0,.348Zm-10.087-18.434a4.366,4.366,0,0,1,1.739-1.043,2.933,2.933,0,0,1,1.739,0l1.971.812c.116.116.348,0,.464-.116a5.054,5.054,0,0,1,.812-.7.218.218,0,0,0,0-.348l-10.087-4.406a.872.872,0,0,1-.58-.812,1.661,1.661,0,0,1,.464-1.159,4.787,4.787,0,0,1,1.275-.812,2.37,2.37,0,0,1,1.275,0l10.434,4.521c.116.116.348,0,.464-.116l.7-.7a.218.218,0,0,0,0-.348l-8.7-3.71a1.237,1.237,0,0,1-.812-1.043,2.079,2.079,0,0,1,.58-1.507l2.9-3.13a4.866,4.866,0,0,1,1.623-1.043,2.242,2.242,0,0,1,1.739,0l21.333,9.159a1.238,1.238,0,0,1,.812,1.043,2.078,2.078,0,0,1-.58,1.507l-2.9,3.13a4.862,4.862,0,0,1-1.623,1.043,2.24,2.24,0,0,1-1.739,0l-8.463-3.594c-.116-.116-.348,0-.464.116l-.812.7a.218.218,0,0,0,0,.348l10.2,4.406a.872.872,0,0,1,.58.812,1.874,1.874,0,0,1-.464,1.159,4.787,4.787,0,0,1-1.275.812,2.37,2.37,0,0,1-1.275,0l-10.55-4.521c-.116-.116-.348,0-.464.116l-.812.7a.218.218,0,0,0,0,.348l8.116,3.478a1.238,1.238,0,0,1,.812,1.043,2.079,2.079,0,0,1-.58,1.507l-6.608,7.188a4.365,4.365,0,0,1-1.739,1.043,2.933,2.933,0,0,1-1.739,0l-14.144-6.145a1.238,1.238,0,0,1-.812-1.043,2.079,2.079,0,0,1,.58-1.507Zm7.536,13.1c.116.116.348,0,.464-.116l.58-.7a.218.218,0,0,0,0-.348l-10.2-4.406c-.116-.116-.232,0-.464.116l-.58.7a.218.218,0,0,0,0,.348Zm2.667-3.014c.116.116.348,0,.464-.116l.58-.58a.218.218,0,0,0,0-.348l-10.2-4.406c-.116-.116-.232,0-.464.116l-.58.58a.218.218,0,0,0,0,.348Zm2.667-2.9c.116.116.348,0,.464-.116l.58-.58a.218.218,0,0,0,0-.348l-10.2-4.406c-.116-.116-.232,0-.464.116l-.58.58a.218.218,0,0,0,0,.348ZM677,2199.549c.116.116.348,0,.464-.116l1.275-1.391a.218.218,0,0,0,0-.348l-3.014-1.275c-.116-.116-.348,0-.464.116l-1.275,1.391a.217.217,0,0,0,0,.348Zm5.565-.232c-.116-.116-.232,0-.464.116l-1.275,1.391a.217.217,0,0,0,0,.348l3.13,1.391c.116.116.348,0,.464-.116l1.275-1.391a.218.218,0,0,0,0-.348Zm6.956,3.014c-.116-.116-.232,0-.464.116l-1.275,1.391a.217.217,0,0,0,0,.348l3.246,1.391c.116.116.348,0,.464-.116l1.275-1.391a.217.217,0,0,0,0-.348Z" transform="translate(-433.876 -2098.045)" fill="#231815"/>
      <path id="Path_7014" data-name="Path 7014" d="M703.59,2207.167a4.861,4.861,0,0,1,1.623-1.043,2.24,2.24,0,0,1,1.739,0l7.3,3.13a1.238,1.238,0,0,1,.812,1.043,2.078,2.078,0,0,1-.58,1.507c-8.232,9.623-10.9,18.2-8.232,25.622a1.4,1.4,0,0,1-.464,1.391,3,3,0,0,1-1.275.812c-.348.116-.812.232-1.159.348a3.445,3.445,0,0,1-1.855.116c-.116,0-.232-.116-.348-.116a1.354,1.354,0,0,1-.7-.7c-1.739-5.333-.927-11.362,2.667-18.318v-.116h-.116c-7.884,5.333-15.536,8.464-22.84,9.623a3.206,3.206,0,0,1-1.507-.116c-.116,0-.116-.116-.232-.116a1.676,1.676,0,0,1-.812-1.159c0-.348-.116-.58-.116-.927-.116-.348.116-.7.348-1.043a2.769,2.769,0,0,1,1.507-.812c7.652-.812,15.536-4.29,23.535-10.434a2.786,2.786,0,0,1,1.739-.7,3.566,3.566,0,0,1,1.159.116c.116,0,.232.116.348.232h.232c.116,0,.116,0,.116-.116a23.479,23.479,0,0,1,2.319-3.015c.116-.116.116-.232-.116-.348l-5.1-2.2a1.237,1.237,0,0,1-.812-1.043,2.079,2.079,0,0,1,.58-1.507Z" transform="translate(-429.514 -2095.926)" fill="#231815"/>
    </g>
  </g>
</svg>
