<svg xmlns="http://www.w3.org/2000/svg" width="522.254" height="540.189" viewBox="0 0 522.254 540.189">
  <g id="feature2" transform="translate(0.54 0.513)">
    <g id="Group_638" data-name="Group 638" transform="translate(89.699 187.515)">
      <path id="Path_7058" data-name="Path 7058" d="M973.5,2190.2a3.383,3.383,0,0,1,4.638-.927,3.3,3.3,0,0,1,.58,4.637,3.263,3.263,0,0,1-4.522.928,3.1,3.1,0,0,1-.7-4.638" transform="translate(-929.808 -2163.169)" fill="#e73e6b" stroke="#030000" stroke-miterlimit="10" stroke-width="1"/>
      <path id="Path_7059" data-name="Path 7059" d="M980.543,2211.775s-4.174-12.521-3.478-22.724c.58-8-15.188-12.869-16.347,1.739-.812,10.434,2.435,24.579,5.913,31.419" transform="translate(-931.749 -2164.334)" fill="#e73e6b" stroke="#030000" stroke-miterlimit="10" stroke-width="1"/>
      <path id="Path_7060" data-name="Path 7060" d="M1036.353,2403.3v47.3a14.473,14.473,0,0,1-14.376,14.492h0A14.473,14.473,0,0,1,1007.6,2450.6v-47.3" transform="translate(-924.257 -2128.97)" fill="#e73e6b" stroke="#030000" stroke-miterlimit="10" stroke-width="1"/>
      <path id="Path_7061" data-name="Path 7061" d="M961.32,2236.7c-45.911,67.823-28.4,159.878,39.071,205.441s159.3,27.593,205.21-40.23,28.289-159.878-39.071-205.441c-67.476-45.679-159.3-27.709-205.21,40.23" transform="translate(-935.714 -2165.958)" fill="#e73e6b" stroke="#030000" stroke-miterlimit="10" stroke-width="1"/>
      <path id="Path_7062" data-name="Path 7062" d="M1151.661,2266.778a3.353,3.353,0,0,0-3.13-3.478,3.28,3.28,0,0,0-3.13,3.478,3.148,3.148,0,1,0,6.261,0" transform="translate(-902.295 -2151.282)" fill="#e73e6b" stroke="#030000" stroke-miterlimit="10" stroke-width="1"/>
      <path id="Path_7063" data-name="Path 7063" d="M1137,2280.679s10.666-7.768,16-16.463c4.174-6.84,19.825-1.623,12.289,11.014-5.333,9.043-16.347,18.55-23.072,22.144" transform="translate(-903.634 -2151.618)" fill="#e73e6b" stroke="#030000" stroke-miterlimit="10" stroke-width="1"/>
      <path id="Path_7064" data-name="Path 7064" d="M1040.767,2260.933a19.171,19.171,0,0,1-1.739,2.9c-6.029,8.927-15.42,12.985-20.985,9.275-5.565-3.826-5.217-14.029.812-22.84a22.609,22.609,0,0,1,1.971-2.667Z" transform="translate(-923.223 -2153.784)" fill="#fff"/>
      <path id="Path_7065" data-name="Path 7065" d="M1040.767,2260.933a19.171,19.171,0,0,1-1.739,2.9c-6.029,8.927-15.42,12.985-20.985,9.275-5.565-3.826-5.217-14.029.812-22.84a22.609,22.609,0,0,1,1.971-2.667Z" transform="translate(-923.223 -2153.784)" fill="none" stroke="#231815" stroke-miterlimit="10" stroke-width="1"/>
      <path id="Path_7066" data-name="Path 7066" d="M1019.456,2250.4c-3.246,4.869-3.478,10.434-.464,12.521s8.232-.232,11.478-5.1,3.478-10.435.464-12.521c-3.13-1.971-8.232.232-11.478,5.1" transform="translate(-922.78 -2154.266)" fill="#231815"/>
      <path id="Path_7067" data-name="Path 7067" d="M1038.914,2241.992c4.985,3.362,5.217,11.942.928,20.057L1019.9,2248.6c5.913-7.072,14.028-9.971,19.014-6.608" transform="translate(-922.297 -2154.901)" fill="#e73e6b" stroke="#030000" stroke-miterlimit="10" stroke-width="1"/>
      <path id="Path_7068" data-name="Path 7068" d="M1038.914,2241.992c4.985,3.362,5.217,11.942.928,20.057L1019.9,2248.6C1025.813,2241.529,1033.928,2238.63,1038.914,2241.992Z" transform="translate(-922.297 -2154.901)" fill="none" stroke="#231815" stroke-miterlimit="10" stroke-width="1"/>
      <path id="Path_7069" data-name="Path 7069" d="M1045.149,2251a5.527,5.527,0,0,1-5.449.116" transform="translate(-919.141 -2153.243)" fill="none" stroke="#231815" stroke-linecap="round" stroke-miterlimit="10" stroke-width="1"/>
      <path id="Path_7070" data-name="Path 7070" d="M1045.049,2253.664a5.669,5.669,0,0,1-5.449-.464" transform="translate(-919.157 -2152.892)" fill="none" stroke="#231815" stroke-linecap="round" stroke-miterlimit="10" stroke-width="1"/>
      <path id="Path_7071" data-name="Path 7071" d="M1045.149,2248.4a5.516,5.516,0,0,1-5.449.348" transform="translate(-919.141 -2153.657)" fill="none" stroke="#231815" stroke-linecap="round" stroke-miterlimit="10" stroke-width="1"/>
      <path id="Path_7072" data-name="Path 7072" d="M987.926,2225.3a22.643,22.643,0,0,0-1.971,2.667c-6.029,8.927-6.377,19.13-.812,22.84,5.565,3.826,14.956-.348,20.985-9.275.58-.928,1.159-1.855,1.739-2.9Z" transform="translate(-928.466 -2157.338)" fill="#fff"/>
      <path id="Path_7073" data-name="Path 7073" d="M987.926,2225.3a22.643,22.643,0,0,0-1.971,2.667c-6.029,8.927-6.377,19.13-.812,22.84,5.565,3.826,14.956-.348,20.985-9.275.58-.928,1.159-1.855,1.739-2.9Z" transform="translate(-928.466 -2157.338)" fill="none" stroke="#231815" stroke-miterlimit="10" stroke-width="1"/>
      <path id="Path_7074" data-name="Path 7074" d="M997.575,2235.62c-3.246,4.87-8.348,7.073-11.478,5.1-3.014-2.087-2.9-7.652.464-12.521,3.246-4.869,8.464-7.072,11.478-5.1,3.014,2.087,2.9,7.652-.464,12.521" transform="translate(-928.029 -2157.804)" fill="#231815"/>
      <path id="Path_7075" data-name="Path 7075" d="M1006,2219.792c-4.985-3.362-12.985-.464-18.9,6.608l19.941,13.449c4.174-8.116,3.942-16.7-1.044-20.057" transform="translate(-927.525 -2158.439)" fill="#e73e6b" stroke="#030000" stroke-miterlimit="10" stroke-width="1"/>
      <path id="Path_7076" data-name="Path 7076" d="M1006,2219.792c-4.985-3.362-12.985-.464-18.9,6.608l19.941,13.449C1011.215,2231.734,1010.983,2223.155,1006,2219.792Z" transform="translate(-927.525 -2158.439)" fill="none" stroke="#231815" stroke-miterlimit="10" stroke-width="1"/>
      <path id="Path_7077" data-name="Path 7077" d="M991.908,2215.4a5.47,5.47,0,0,0,1.971,5.1" transform="translate(-926.767 -2158.917)" fill="none" stroke="#231815" stroke-linecap="round" stroke-miterlimit="10" stroke-width="1"/>
      <path id="Path_7078" data-name="Path 7078" d="M989.4,2216.5a5.564,5.564,0,0,0,2.435,4.869" transform="translate(-927.159 -2158.741)" fill="none" stroke="#231815" stroke-linecap="round" stroke-miterlimit="10" stroke-width="1"/>
      <path id="Path_7079" data-name="Path 7079" d="M994.213,2214.6a5.784,5.784,0,0,0,1.623,5.217" transform="translate(-926.406 -2159.044)" fill="none" stroke="#231815" stroke-linecap="round" stroke-miterlimit="10" stroke-width="1"/>
      <path id="Path_7080" data-name="Path 7080" d="M1008.889,2274.1s-8.579,1.391-7.884,11.71" transform="translate(-925.315 -2149.561)" fill="none" stroke="#231815" stroke-linecap="round" stroke-miterlimit="10" stroke-width="1"/>
      <path id="Path_7081" data-name="Path 7081" d="M986.084,2258.6s1.855,8.463-7.884,11.71" transform="translate(-928.943 -2152.031)" fill="none" stroke="#231815" stroke-linecap="round" stroke-miterlimit="10" stroke-width="1"/>
      <line id="Line_28" data-name="Line 28" x1="21.796" y1="14.84" transform="translate(55.518 113.989)" fill="none" stroke="#231815" stroke-miterlimit="10" stroke-width="1"/>
      <path id="Path_7082" data-name="Path 7082" d="M987.244,2267.6l2.551,1.739,2.551,1.739s-1.391,3.13-3.826,1.507l-.58-.348-.58-.348c-2.551-1.739-.116-4.29-.116-4.29" transform="translate(-927.669 -2150.597)" fill="#fff"/>
      <path id="Path_7083" data-name="Path 7083" d="M987.273,2267.5l2.551,1.739,2.551,1.739s-1.623,3.594-4.174,1.855l-.58-.348-.58-.348C984.606,2270.4,987.273,2267.5,987.273,2267.5Z" transform="translate(-927.697 -2150.613)" fill="none" stroke="#231815" stroke-miterlimit="10" stroke-width="1"/>
      <path id="Path_7084" data-name="Path 7084" d="M994.544,2272.6l2.551,1.739,2.551,1.739s-1.391,3.13-3.826,1.507l-.58-.348-.58-.348c-2.551-1.855-.116-4.29-.116-4.29" transform="translate(-926.505 -2149.8)" fill="#fff"/>
      <path id="Path_7085" data-name="Path 7085" d="M994.573,2272.5l2.551,1.739,2.551,1.739s-1.623,3.594-4.174,1.855l-.58-.348-.58-.348C991.906,2275.283,994.573,2272.5,994.573,2272.5Z" transform="translate(-926.534 -2149.816)" fill="none" stroke="#231815" stroke-miterlimit="10" stroke-width="1"/>
      <path id="Path_7086" data-name="Path 7086" d="M1142.788,2199.614s-16.231-9.623-20.405-31.767c0,0-.7-2.319-3.014-.116,0,0-15.768,13.912-11.362,25.39" transform="translate(-908.379 -2166.665)" fill="#ef8619"/>
      <path id="Path_7087" data-name="Path 7087" d="M1142.888,2199.513s-16.231-9.623-20.405-31.767c0,0-.7-2.319-3.014-.116,0,0-15.767,13.913-11.362,25.39" transform="translate(-908.363 -2166.681)" fill="none" stroke="#030000" stroke-miterlimit="10" stroke-width="0.855"/>
      <path id="Path_7088" data-name="Path 7088" d="M1099.053,2416.7V2464a14.473,14.473,0,0,1-14.376,14.492h0A14.473,14.473,0,0,1,1070.3,2464v-41.042" transform="translate(-914.265 -2126.834)" fill="#e73e6b" stroke="#030000" stroke-miterlimit="10" stroke-width="1"/>
    </g>
    <path id="Path_7089" data-name="Path 7089" d="M1246.684,2330.678,865.365,2163.032a11.888,11.888,0,0,1-4.29-18.434l114.894-135.531a11.771,11.771,0,0,1,13.681-3.13l384.217,168.805a9.459,9.459,0,0,1,3.362,14.84l-116.865,137.966A11.6,11.6,0,0,1,1246.684,2330.678Z" transform="translate(-858.346 -2004.943)" fill="#fdf42d" stroke="#231815" stroke-miterlimit="10" stroke-width="1"/>
    <g id="Group_639" data-name="Group 639" transform="translate(176.723 77.507)">
      <path id="Path_7090" data-name="Path 7090" d="M1056.251,2084.322a27,27,0,0,1,4.522,2.2,1.558,1.558,0,0,1,.812,1.623,2.466,2.466,0,0,1-.812,1.739,113.708,113.708,0,0,1-22.724,19.246c-.232.232-.464.464-.348.7a40.368,40.368,0,0,1,.812,4.406,3.637,3.637,0,0,1-1.159,2.9,8.558,8.558,0,0,1-2.9,1.971l-2.2.812a3.1,3.1,0,0,1-2.667.116h0a1.693,1.693,0,0,1-1.159-1.623c0-.928-.116-1.971-.232-3.246,0-.232-.232-.348-.58-.116a63.739,63.739,0,0,1-13.333,4.29,4.084,4.084,0,0,1-2.087-.116,2.534,2.534,0,0,1-.58-.348,2.162,2.162,0,0,1-.812-2.2c0-.58.116-1.043.116-1.623a3.157,3.157,0,0,1,.927-1.855,1.6,1.6,0,0,0,.348-.464,6.315,6.315,0,0,1,2.782-1.391,43.244,43.244,0,0,0,11.13-3.71c.348-.116.464-.348.348-.58l-.348-1.275c0-.116-.116-.116-.232,0a2.059,2.059,0,0,1-1.159.464.9.9,0,0,1-.811-.348l-1.507-2.435a2.815,2.815,0,0,1-.116-2.551,6.918,6.918,0,0,1,1.044-1.739,4.208,4.208,0,0,1,1.043-.927c3.71-2.9,8.347-6.608,13.8-11.13.232-.232.348-.464,0-.58l-.232-.116a2.1,2.1,0,0,1-1.507-1.855,3.085,3.085,0,0,1,1.043-2.551l.927-.927a5.73,5.73,0,0,1,2.782-1.739,4.453,4.453,0,0,1,3.014,0l1.623.7c.232.116.464,0,.811-.232,2.087-1.855,4.522-3.942,7.3-6.376a6.574,6.574,0,0,1,3.13-1.507,4.1,4.1,0,0,1,2.667.232c.116,0,.232.116.348.232l1.043.58a2.04,2.04,0,0,1,1.159,1.971,3.831,3.831,0,0,1-.927,1.971l-.464.464c-2.319,1.971-4.521,3.826-6.724,5.681-.232.232-.232.348,0,.464Zm-7.536,7.072c.232-.232.348-.464,0-.58l-2.435-1.043a.768.768,0,0,0-.812.232q-3.652,2.956-10.782,8.7c-.232.232-.348.464-.232.7a11.97,11.97,0,0,1,.812,2.435c.116.232.232.232.58,0A97.869,97.869,0,0,0,1048.716,2091.394Zm31.767,17.507a2.233,2.233,0,0,1,1.507,1.855,3.085,3.085,0,0,1-1.043,2.551l-1.043,1.159a6.712,6.712,0,0,1-2.9,1.739,3.813,3.813,0,0,1-3.014-.116l-8-3.362a.769.769,0,0,0-.812.232l-12.057,13.449a22.857,22.857,0,0,1-4.522,4.058,10.451,10.451,0,0,1-4.637,1.507,20.733,20.733,0,0,1-7.42-1.391c-.116,0-.116-.116-.232-.116a2.794,2.794,0,0,1-1.623-1.623,3.592,3.592,0,0,1,.464-2.782,15.435,15.435,0,0,0,.812-2.087,2.079,2.079,0,0,1,.58-.812,5.141,5.141,0,0,1,1.275-.927,3.007,3.007,0,0,1,2.435-.116h0c.812.348,1.391.58,1.855.812s.812.348,1.043.464a2.3,2.3,0,0,0,1.159.232,1.773,1.773,0,0,0,.812-.58l11.942-13.333c.232-.232.232-.464-.116-.58l-7.3-3.13a2.274,2.274,0,0,1-1.507-1.855,3.345,3.345,0,0,1,.927-2.551l1.043-1.159a6.1,6.1,0,0,1,2.9-1.739,4.453,4.453,0,0,1,3.014,0l7.3,3.13a.768.768,0,0,0,.812-.232l2.9-3.246a3.9,3.9,0,0,1,1.855-1.159,2.86,2.86,0,0,1,1.971,0,.526.526,0,0,0,.58,0,71.591,71.591,0,0,0,8.231-3.478c.116,0,.116-.116.232-.232,0-.116,0-.116-.116-.232l-11.942-4.985a2.234,2.234,0,0,1-1.507-1.855,3.086,3.086,0,0,1,1.043-2.551l.812-.927a6.714,6.714,0,0,1,2.9-1.739,3.813,3.813,0,0,1,3.014.116l17.159,7.188c.116.116.232.116.464.116a2.188,2.188,0,0,1,.928.232,1.935,1.935,0,0,1,1.275,1.391l.58,1.623a3.023,3.023,0,0,1-.58,2.551,2.541,2.541,0,0,1-.464.58,6.186,6.186,0,0,1-2.2,1.507c-6.492,2.782-12.174,4.869-16.927,6.377a1.868,1.868,0,0,0-.812.464l-1.275,1.391c-.232.232-.232.464.116.58Z" transform="translate(-1010.775 -2071.795)" fill="#d75562" stroke="#030000" stroke-miterlimit="10" stroke-width="1"/>
      <path id="Path_7091" data-name="Path 7091" d="M1103.951,2104.322a26.986,26.986,0,0,1,4.522,2.2,1.557,1.557,0,0,1,.812,1.623,2.466,2.466,0,0,1-.812,1.739,113.711,113.711,0,0,1-22.724,19.246c-.232.232-.464.464-.348.7a35.927,35.927,0,0,1,.812,4.406,3.638,3.638,0,0,1-1.159,2.9,8.56,8.56,0,0,1-2.9,1.971l-2.2.812a3.1,3.1,0,0,1-2.667.116h0a1.693,1.693,0,0,1-1.159-1.623c0-.927-.116-1.971-.232-3.246,0-.232-.232-.348-.58-.116a63.758,63.758,0,0,1-13.333,4.29,4.087,4.087,0,0,1-2.087-.116,2.545,2.545,0,0,1-.58-.348,2.162,2.162,0,0,1-.812-2.2c0-.58.116-1.043.116-1.623a3.155,3.155,0,0,1,.928-1.855,1.6,1.6,0,0,0,.348-.464,6.315,6.315,0,0,1,2.783-1.391,43.244,43.244,0,0,0,11.13-3.71c.348-.116.464-.348.348-.58l-.348-1.275c0-.116-.116-.116-.232,0a2.06,2.06,0,0,1-1.159.464.9.9,0,0,1-.812-.348l-1.507-2.435a2.814,2.814,0,0,1-.116-2.551,6.918,6.918,0,0,1,1.043-1.739,4.209,4.209,0,0,1,1.043-.927c3.71-2.9,8.348-6.608,13.8-11.13.232-.232.348-.464,0-.58l-.232-.116a2.234,2.234,0,0,1-1.507-1.855,3.086,3.086,0,0,1,1.043-2.551l.927-.927a5.731,5.731,0,0,1,2.783-1.739,4.452,4.452,0,0,1,3.014,0l1.623.7c.232.116.464,0,.812-.232,2.087-1.855,4.522-3.942,7.3-6.376a6.574,6.574,0,0,1,3.13-1.507,4.1,4.1,0,0,1,2.667.232c.116,0,.232.116.348.232l1.043.58a2.04,2.04,0,0,1,1.159,1.971,3.83,3.83,0,0,1-.927,1.971l-.464.464c-2.319,1.971-4.522,3.826-6.724,5.681-.232.232-.232.348,0,.464Zm-7.536,7.072c.232-.232.348-.464,0-.58l-2.435-1.043a.768.768,0,0,0-.812.232q-3.652,2.956-10.782,8.7c-.232.232-.348.464-.232.7a11.962,11.962,0,0,1,.812,2.435c.116.232.232.232.58,0A106.086,106.086,0,0,0,1096.416,2111.394Zm31.767,17.507a2.234,2.234,0,0,1,1.507,1.855,3.085,3.085,0,0,1-1.043,2.551l-1.043,1.159a6.71,6.71,0,0,1-2.9,1.739,3.813,3.813,0,0,1-3.014-.116l-8-3.362a.717.717,0,0,0-.812.232l-12.058,13.449a22.85,22.85,0,0,1-4.522,4.058,10.451,10.451,0,0,1-4.637,1.507,20.3,20.3,0,0,1-7.42-1.391c-.116,0-.116-.116-.232-.116a2.8,2.8,0,0,1-1.623-1.623,3.593,3.593,0,0,1,.464-2.782,15.451,15.451,0,0,0,.812-2.087,2.08,2.08,0,0,1,.58-.812,5.155,5.155,0,0,1,1.275-.927,3.007,3.007,0,0,1,2.435-.116h0c.812.348,1.391.58,1.855.812s.812.348,1.043.464a2.3,2.3,0,0,0,1.159.232,1.774,1.774,0,0,0,.811-.58l11.942-13.333c.232-.232.232-.464-.116-.58l-7.3-3.13a2.274,2.274,0,0,1-1.507-1.855,3.345,3.345,0,0,1,.928-2.551l1.043-1.159a6.1,6.1,0,0,1,2.9-1.739,4.453,4.453,0,0,1,3.014,0l7.3,3.13a.768.768,0,0,0,.812-.232l2.9-3.246a3.9,3.9,0,0,1,1.855-1.159,2.861,2.861,0,0,1,1.971,0,.526.526,0,0,0,.58,0,71.548,71.548,0,0,0,8.232-3.478c.116,0,.116-.116.232-.232,0-.116,0-.116-.116-.232l-11.942-4.985a2.234,2.234,0,0,1-1.507-1.855,3.085,3.085,0,0,1,1.043-2.551l.812-.927a6.71,6.71,0,0,1,2.9-1.739,3.812,3.812,0,0,1,3.014.116l17.159,7.188c.116.116.232.116.464.116a2.187,2.187,0,0,1,.927.232,1.935,1.935,0,0,1,1.275,1.391l.58,1.623a3.023,3.023,0,0,1-.58,2.551,2.53,2.53,0,0,1-.464.58,6.188,6.188,0,0,1-2.2,1.507c-6.493,2.782-12.173,4.869-16.927,6.376a1.87,1.87,0,0,0-.812.464l-1.275,1.391c-.232.232-.232.464.116.58Z" transform="translate(-1003.173 -2068.608)" fill="#d75562" stroke="#030000" stroke-miterlimit="10" stroke-width="1"/>
      <path id="Path_7092" data-name="Path 7092" d="M1176.615,2142.1a7.05,7.05,0,0,1-2.782,1.739,4.489,4.489,0,0,1-2.783-.116l-13.449-5.681-6.608,7.42c-3.246,3.71-6.956,4.638-11.13,2.9a20.208,20.208,0,0,0-6.956-1.507c-3.478-.116-6.261.812-8.116,2.9-1.971,2.2-2.087,4.406-.348,6.724a13.427,13.427,0,0,0,6.029,4.406c4.753,1.971,9.971,1.855,15.536-.464,2.435-.928,4.058-1.275,4.985-.812a2.519,2.519,0,0,1,1.507,1.739,2.982,2.982,0,0,1-.811,2.435q-1.391,1.565-6.608,3.13c-7.3,2.2-13.913,2.2-19.709-.232-4.406-1.855-7.3-4.406-8.927-7.652-1.971-3.826-1.159-7.768,2.435-11.71a19.428,19.428,0,0,1,13.565-6.493c4.29-.464,7.884-.116,10.782,1.159a3.044,3.044,0,0,0,3.71-.812l4.869-5.449-17.275-7.3a1.953,1.953,0,0,1-1.391-1.623,2.878,2.878,0,0,1,1.043-2.435,5.733,5.733,0,0,1,2.667-1.623,3.59,3.59,0,0,1,2.9.116l36.752,15.42a2.14,2.14,0,0,1,1.391,1.739A9.084,9.084,0,0,1,1176.615,2142.1Z" transform="translate(-994.101 -2063.717)" fill="#d75562" stroke="#030000" stroke-miterlimit="10" stroke-width="1"/>
    </g>
    <g id="Group_640" data-name="Group 640" transform="translate(86.393 127.047)">
      <path id="Path_7093" data-name="Path 7093" d="M952.5,2129.1c.232,0,.348.116.464.116a1.4,1.4,0,0,1,.58.58,1.311,1.311,0,0,1-.232,1.275l-.232.231a3.63,3.63,0,0,1-1.275.928,2.8,2.8,0,0,1-1.855.348c-.58-.116-1.043-.116-1.507-.232-.232,0-.348,0-.464.232l-6.84,7.536a15.22,15.22,0,0,1-2.087,1.971,4.071,4.071,0,0,1-2.087.7,7.9,7.9,0,0,1-3.13-.463h-.116a1.55,1.55,0,0,1-.812-.928,2.2,2.2,0,0,1,.348-1.623l.348-.348a6.436,6.436,0,0,1,.927-.7,2.308,2.308,0,0,1,1.507-.116,2.769,2.769,0,0,1,.812.348.878.878,0,0,0,.464.116.621.621,0,0,0,.464-.348l6.029-6.608a.114.114,0,0,1,.116-.116l-.116-.116c-.348,0-.812-.116-1.275-.116-.232,0-.348-.116-.58-.116a3.064,3.064,0,0,1-.7-.58,1.264,1.264,0,0,1,.232-1.391v-.116c.116-.116.232-.348.348-.463a4.156,4.156,0,0,1,1.159-.812,2.8,2.8,0,0,1,1.855-.348,5.9,5.9,0,0,1,1.043.232,7.391,7.391,0,0,1,1.043.232c.232,0,.348,0,.464-.232l4.406-4.869a.218.218,0,0,0,0-.348l-1.391-.58a1.475,1.475,0,0,1-.812-1.043,1.837,1.837,0,0,1,.58-1.391,2.872,2.872,0,0,1,1.623-.927,1.96,1.96,0,0,1,1.623,0l1.391.58c.116.116.232,0,.464-.116l3.594-3.942a2.872,2.872,0,0,1,1.623-.927,3.812,3.812,0,0,1,1.623,0,1.474,1.474,0,0,1,.812,1.043,1.5,1.5,0,0,1-.58,1.392l-3.594,3.941a.218.218,0,0,0,0,.348l.927.348a1.475,1.475,0,0,1,.812,1.043,1.836,1.836,0,0,1-.58,1.391,2.872,2.872,0,0,1-1.623.928,2.26,2.26,0,0,1-1.739,0l-.927-.348c-.116-.116-.348,0-.464.116l-3.594,3.942c0,.116-.116.116,0,.116l.116.116Zm14.26,13.217a1.237,1.237,0,0,1,.812,1.043,2.078,2.078,0,0,1-.58,1.507l-5.217,5.8a4.483,4.483,0,0,1-3.246,1.855,6.444,6.444,0,0,1-1.971-.348c-.116,0-.116,0-.116-.116a1.3,1.3,0,0,1-.812-.928,2.1,2.1,0,0,1,.232-1.623c0-.116.116-.116.116-.231h0a.6.6,0,0,1-.464.231h-.464l-4.985-2.087h-.232a.638.638,0,0,1-.58.348.74.74,0,0,1-.7,0l-.7-.348a.871.871,0,0,1-.58-.812,1.414,1.414,0,0,1,.464-1.043l2.435-2.783c.116-.116.116-.116,0-.116a1.353,1.353,0,0,1-.812-.232,1,1,0,0,1-.348-.7v-.464h-.116l-3.362,3.71a2.956,2.956,0,0,1-1.391.927,3.291,3.291,0,0,1-1.507,0c-.464-.231-.7-.463-.7-.927a1.614,1.614,0,0,1,.58-1.275l6.261-6.84a4.862,4.862,0,0,1,1.623-1.043,2.24,2.24,0,0,1,1.739,0Zm-15.188-3.362c-.116-.116-.232,0-.348.116l-1.159,1.275v.116l.116.116a7.589,7.589,0,0,0,3.362-.58l.116-.116a.113.113,0,0,0-.116-.116Zm2.435,7.884c.116.116.348,0,.464-.116l.58-.7a.217.217,0,0,0,0-.348l-2.319-1.043c-.116-.116-.348,0-.464.116l-.58.7a.218.218,0,0,0,0,.348Zm3.826-4.87a.217.217,0,0,0,0-.348l-1.275-.58c-.116-.116-.348,0-.464.116a9.365,9.365,0,0,1-3.13,1.275.114.114,0,0,0-.116.116v.116l3.594,1.507h.116l.116-.116c-.116-.464.232-1.16,1.159-2.087Zm7.072-4.753a.217.217,0,0,0,0,.348l5.333,2.319a.77.77,0,0,1,.464.58,1.253,1.253,0,0,1-.348.812,2.521,2.521,0,0,1-.927.58,1.267,1.267,0,0,1-.927,0l-14.26-6.145a1.238,1.238,0,0,1-.812-1.043,2.261,2.261,0,0,1,.58-1.507l3.362-3.71h-.116a.952.952,0,0,1-.812-.116c-.232-.116-.348-.232-.348-.464s-.116-.58-.116-.812a1.276,1.276,0,0,1,.464-1.159,2.779,2.779,0,0,1,1.391-.812,30.393,30.393,0,0,0,6.145-2.319l.116-.116v-.116h0a1.237,1.237,0,0,1-.812-1.043,2.078,2.078,0,0,1,.58-1.507l1.507-1.623a3.329,3.329,0,0,1,1.507-.928,3.827,3.827,0,0,1,1.623,0c.464.232.7.464.7.928a1.477,1.477,0,0,1-.58,1.275l-.7.812a.217.217,0,0,0,0,.348l3.13,1.392c.116.116.232,0,.464-.116l1.275-1.391a3.931,3.931,0,0,1,1.623-1.043,2.24,2.24,0,0,1,1.739,0,1.238,1.238,0,0,1,.812,1.043,2.262,2.262,0,0,1-.58,1.507l-1.275,1.391a.217.217,0,0,0,0,.348l3.13,1.391c.116.116.348,0,.464-.116l.7-.7a2.989,2.989,0,0,1,1.507-.928,2.584,2.584,0,0,1,1.623,0,1.114,1.114,0,0,1,.7,1.043,1.836,1.836,0,0,1-.58,1.391l-1.391,1.623a4.865,4.865,0,0,1-1.623,1.043,2.24,2.24,0,0,1-1.739,0l-3.362-1.391a.113.113,0,0,1-.116.116,6.873,6.873,0,0,0-.927.464,6.79,6.79,0,0,1-.927.463l-.116.116v.116l4.753,2.087a.77.77,0,0,1,.464.58,1.252,1.252,0,0,1-.348.812,2.528,2.528,0,0,1-.927.58,1.267,1.267,0,0,1-.927,0l-4.869-2.087c-.116-.116-.232,0-.464.116l-.464.463a.218.218,0,0,0,0,.348l3.942,1.739a.536.536,0,0,1,.348.58.826.826,0,0,1-.348.7,1.174,1.174,0,0,1-.812.464c-.348,0-.58.116-.812,0l-3.942-1.739c-.116-.116-.232,0-.464.116l-.464.464a.217.217,0,0,0,0,.348l3.942,1.739c.232.116.348.231.348.463a1,1,0,0,1-.348.7,1.866,1.866,0,0,1-.812.463.978.978,0,0,1-.812,0l-3.942-1.739c-.116-.116-.232,0-.464.116Zm-5.681,8.7c-.116-.116-.232,0-.348.116l-2.319,2.551a.217.217,0,0,0,0,.348c.348.116.58.348.812.348a.878.878,0,0,0,.464.116c.232.116.464,0,.7-.231l2.2-2.435a.217.217,0,0,0,0-.348Zm-.464-12.521c-.116-.116-.348,0-.464.116l-.464.58a.217.217,0,0,0,0,.348l3.246,1.391c.116.116.348,0,.464-.116l.464-.58a.218.218,0,0,0,0-.348Zm3.594,11.362c.116.116.348,0,.464-.232l.348-.348a.217.217,0,0,0,0-.348l-2.2-.928c-.116-.116-.348,0-.464.116l-.116.116a1.06,1.06,0,0,0-.348.58q0,.174.348.348l1.623.7Zm1.159-11.594c.116.116.348,0,.464-.116l.464-.463a.217.217,0,0,0,0-.348l-3.246-1.392c-.116-.116-.348,0-.464.116l-.464.464a.217.217,0,0,0,0,.348Zm2.435-2.667c.116.116.348,0,.464-.116l.464-.463a.218.218,0,0,0,0-.348l-3.246-1.391c-.116-.116-.348,0-.464.116l-.464.463a.218.218,0,0,0,0,.348Zm4.753-3.942.116-.116c0-.116,0-.116-.116-.116l-3.13-1.275c.116.116,0,.232-.116.232a15.93,15.93,0,0,1-1.623.928l-.116.116v.116l2.783,1.159a.352.352,0,0,0,.464,0A11.462,11.462,0,0,0,970.7,2126.554Z" transform="translate(-932.863 -2114.525)" fill="#231815"/>
      <path id="Path_7094" data-name="Path 7094" d="M996.218,2151.362a1.237,1.237,0,0,1,.812,1.043,2.079,2.079,0,0,1-.58,1.507h0a4.866,4.866,0,0,1-1.623,1.043,2.242,2.242,0,0,1-1.739,0l-10.434-4.521c-.116-.116-.232,0-.464.116l-4.406,4.754a8.6,8.6,0,0,1-2.667,2.2,5.461,5.461,0,0,1-2.783.58,18.856,18.856,0,0,1-5.681-1.623h0a2.273,2.273,0,0,1-1.043-1.043,2.659,2.659,0,0,1,.116-1.623c.116-.116.116-.232.116-.464a1.594,1.594,0,0,1,.348-.464,1.063,1.063,0,0,1,.7-.464,1.679,1.679,0,0,1,1.275-.116h0c1.159.58,2.435,1.043,3.826,1.739a1.375,1.375,0,0,0,.927.116,1.775,1.775,0,0,0,.812-.58l4.29-4.754a.217.217,0,0,0,0-.348l-10.434-4.521a1.237,1.237,0,0,1-.812-1.043,2.079,2.079,0,0,1,.58-1.507h0a4.861,4.861,0,0,1,1.623-1.043,2.24,2.24,0,0,1,1.739,0l10.434,4.521c.116.116.348,0,.464-.116l2.783-3.13a.218.218,0,0,0,0-.348l-8.348-3.594a1.237,1.237,0,0,1-.812-1.043,2.262,2.262,0,0,1,.58-1.507,4.866,4.866,0,0,1,1.623-1.043,2.242,2.242,0,0,1,1.739,0l8.348,3.594c.116.116.348,0,.464-.116l2.9-3.13a.217.217,0,0,0,0-.348c-2.551-.811-5.333-1.739-8.231-2.782h-.116a1.3,1.3,0,0,1-.812-.927,1.934,1.934,0,0,1,.348-1.507c.116-.116.232-.348.348-.464a2.528,2.528,0,0,1,.927-.58,2.012,2.012,0,0,1,1.391-.116,137.534,137.534,0,0,0,19.709,5.8,1.647,1.647,0,0,1,.7.232,2.079,2.079,0,0,1,.812.58,1.92,1.92,0,0,1,.58,1.391v.464a1.052,1.052,0,0,1-.348.812l-.348.348a1.759,1.759,0,0,1-1.507.348q-3.826-.7-8.7-2.087a.463.463,0,0,0-.464.232l-3.246,3.594a.217.217,0,0,0,0,.348l8.579,3.71a1.238,1.238,0,0,1,.812,1.043,2.078,2.078,0,0,1-.58,1.507,4.867,4.867,0,0,1-1.623,1.043,2.938,2.938,0,0,1-1.739,0l-8.579-3.71c-.116-.116-.232,0-.464.116l-2.783,3.13a.218.218,0,0,0,0,.348Z" transform="translate(-927.656 -2112.436)" fill="#231815"/>
      <path id="Path_7095" data-name="Path 7095" d="M1006.219,2150.252a1.238,1.238,0,0,1,.812,1.043,2.078,2.078,0,0,1-.58,1.507l-6.956,7.652a.879.879,0,0,0-.232.464c-.464,2.319,1.043,4.174,4.29,5.8,1.507.7,3.014,1.391,4.753,2.2,2.551,1.159,5.449,2.2,8.579,3.362H1017a.733.733,0,0,1,.464.928,1.052,1.052,0,0,1-.348.812,1.6,1.6,0,0,1-.464.348c-.116.116-.232.116-.348.232a7.566,7.566,0,0,1-1.971.927,3.225,3.225,0,0,1-1.855-.116c-2.435-.927-4.753-1.855-6.84-2.782-1.855-.812-3.71-1.623-5.217-2.435a12.128,12.128,0,0,1-4.174-3.014,5.47,5.47,0,0,1-1.275-3.826c0-.116-.116-.232-.232-.116-2.2.464-3.826.928-5.1,1.159a1.961,1.961,0,0,1-1.159,0,.249.249,0,0,1-.232-.232.9.9,0,0,1-.232-1.159l.232-.7a2.05,2.05,0,0,1,.58-.927l.58-.58a4.21,4.21,0,0,1,1.971-.812,39.043,39.043,0,0,0,4.174-.7.6.6,0,0,0,.464-.232l5.449-6.029a.218.218,0,0,0,0-.348l-1.623-.7a1.474,1.474,0,0,1-.812-1.043,1.837,1.837,0,0,1,.58-1.391,2.872,2.872,0,0,1,1.623-.927,1.96,1.96,0,0,1,1.623,0Zm12.985,18.318a4.865,4.865,0,0,1-1.623,1.043,2.24,2.24,0,0,1-1.739,0l-12.289-5.217a1.237,1.237,0,0,1-.812-1.043,2.078,2.078,0,0,1,.58-1.507l4.869-5.449a4.365,4.365,0,0,1,1.739-1.043,2.933,2.933,0,0,1,1.739,0l12.289,5.217a1.238,1.238,0,0,1,.812,1.043,2.078,2.078,0,0,1-.58,1.507Zm-8.116-9.507c-.116-.116-.348,0-.464.116l-2.435,2.667a.217.217,0,0,0,0,.348l7.884,3.362c.116.116.232,0,.464-.116l2.435-2.667a.217.217,0,0,0,0-.348Zm3.826-16.115a1.477,1.477,0,0,1-.58,1.275.114.114,0,0,1-.116.116,3.191,3.191,0,0,1-1.739.927l-.348.116a1.823,1.823,0,0,1-1.391-.116c-.116,0-.116-.116-.232-.116a1.177,1.177,0,0,1-.58-1.159,19.59,19.59,0,0,0-.348-3.478,1.4,1.4,0,0,1,.464-1.391,2.423,2.423,0,0,1,1.507-.811,3.306,3.306,0,0,1,1.855.116h.116a1.644,1.644,0,0,1,.927,1.043C1014.566,2140.745,1014.8,2141.9,1014.914,2142.948Zm-5.217,8.579a1.932,1.932,0,0,1,.464-1.275,2.955,2.955,0,0,1,1.391-.927,3.3,3.3,0,0,1,1.507,0l.58.232h.116s.116-.116,0-.116a4.721,4.721,0,0,0-.7-1.275,1.353,1.353,0,0,1,.232-1.275c0-.116.116-.116.232-.232a2.407,2.407,0,0,1,1.159-.7,47.144,47.144,0,0,0,6.492-3.13,7.419,7.419,0,0,1,1.855-.7,3.224,3.224,0,0,1,1.159.116c.116.116.232.116.464.232a1.238,1.238,0,0,1,.348,1.275,2.9,2.9,0,0,1-.464.812,1.064,1.064,0,0,1-.7.464,2.434,2.434,0,0,0-.7.464l-.116.116a.114.114,0,0,0,.116.116l1.739.7c.116.116.348,0,.464-.116l1.275-1.391a4.861,4.861,0,0,1,1.623-1.043,2.933,2.933,0,0,1,1.739,0h.116a1.237,1.237,0,0,1,.812,1.043,2.079,2.079,0,0,1-.58,1.507l-1.275,1.391a.217.217,0,0,0,0,.348l5.1,2.2c.464.232.7.464.7.927a1.477,1.477,0,0,1-.58,1.276,2.807,2.807,0,0,1-1.507.927,2.216,2.216,0,0,1-1.507,0l-5.1-2.2c-.116-.116-.232,0-.464.116l-1.971,2.2a.218.218,0,0,0,0,.348l6.376,2.782c.464.232.7.464.7.927a1.932,1.932,0,0,1-.464,1.275,2.15,2.15,0,0,1-1.391.812,3.3,3.3,0,0,1-1.507,0l-17.159-7.42A.872.872,0,0,1,1009.7,2151.527Zm12.521-1.623a.217.217,0,0,0,0-.348l-3.478-1.507c-.116-.116-.348,0-.464,0-1.391.58-2.667,1.159-3.826,1.507l-.116.116v.116l5.565,2.435c.116.116.348,0,.464-.116Z" transform="translate(-924.092 -2110.746)" fill="#231815"/>
      <path id="Path_7096" data-name="Path 7096" d="M1024.383,2163.777a4.364,4.364,0,0,1,1.739-1.043,2.937,2.937,0,0,1,1.739,0l24.115,10.434a1.238,1.238,0,0,1,.812,1.043,2.078,2.078,0,0,1-.58,1.507l-1.739,1.971a4.866,4.866,0,0,1-1.623,1.043,2.242,2.242,0,0,1-1.739,0h-.116a1.238,1.238,0,0,1-.812-1.043,2.079,2.079,0,0,1,.58-1.507l.7-.7a.217.217,0,0,0,0-.348l-9.855-4.29c-.116-.116-.348,0-.58,0-.7.232-1.275.464-1.739.58a.113.113,0,0,0-.116.116v.116l6.608,2.9h.232c.116,0,.232.116.348.116a1.156,1.156,0,0,1,.58.464l.348.58a1.127,1.127,0,0,1-.116,1.043c-.116.116-.116.232-.232.348a2.081,2.081,0,0,1-.812.58c-6.492,2.782-14.376,3.13-23.419,1.043-.116,0-.348-.116-.464-.116a1.559,1.559,0,0,1-.812-.7,2.2,2.2,0,0,1-.116-1.507c.116-.232.348-.58.464-.812a1.866,1.866,0,0,1,.812-.464,1.27,1.27,0,0,1,.927,0,50.439,50.439,0,0,0,6.84,1.275h.116l.116-.116a20.178,20.178,0,0,0-1.623-3.13.426.426,0,0,0-.348-.116h-1.739a2.188,2.188,0,0,1-.927-.232c-.232-.116-.348-.232-.58-.348a1.743,1.743,0,0,1-.464-1.275,1.253,1.253,0,0,1,.348-.812l.232-.232a1.931,1.931,0,0,1,1.275-.464,30.965,30.965,0,0,0,9.391-.7.114.114,0,0,0,.116-.116v-.116l-5.333-2.319c-.116-.116-.348,0-.464.116l-.7.812a2.871,2.871,0,0,1-1.623.927,2.24,2.24,0,0,1-1.739,0,1.237,1.237,0,0,1-.812-1.043,1.836,1.836,0,0,1,.58-1.391Zm5.449,8.927h0a34.833,34.833,0,0,1,1.739,3.71c0,.116.116.232.348.232a18.68,18.68,0,0,0,5.1-.7.113.113,0,0,0,.116-.116v-.116Zm1.391-9.971a1.237,1.237,0,0,1-.812-1.043,2.078,2.078,0,0,1,.58-1.507l2.9-3.246a4.366,4.366,0,0,1,1.739-1.043,2.934,2.934,0,0,1,1.739,0l19.478,8.347a1.238,1.238,0,0,1,.812,1.043,2.079,2.079,0,0,1-.58,1.507l-2.9,3.246a4.861,4.861,0,0,1-1.623,1.043,2.24,2.24,0,0,1-1.739,0Zm5.8-3.71c-.116-.116-.348,0-.464.116l-1.391,1.623a.217.217,0,0,0,0,.348l2.782,1.159c.116.116.232,0,.464-.116l1.391-1.623a.217.217,0,0,0,0-.348Zm4.29-2.087a.536.536,0,0,1-.348-.58,1.541,1.541,0,0,1,.348-.812c.116-.116.116-.116,0-.116l-4.985-2.087c-.464-.232-.7-.464-.7-.927a1.615,1.615,0,0,1,.58-1.275,3.329,3.329,0,0,1,1.507-.927,3.292,3.292,0,0,1,1.507,0l4.869,2.087c.116.116.232,0,.348-.116a2.876,2.876,0,0,1,2.782-.812l.7.348a1.151,1.151,0,0,1,.7.928,1.661,1.661,0,0,1-.464,1.159c-.116.116-.116.232,0,.232l6.376,2.667c.116.116.232,0,.348-.116a2.876,2.876,0,0,1,2.782-.812l.812.348a1.151,1.151,0,0,1,.7.927,1.661,1.661,0,0,1-.464,1.159c-.116.116-.116.232,0,.232l4.985,2.2c.464.232.7.464.7.927a1.745,1.745,0,0,1-.464,1.275,3.333,3.333,0,0,1-1.507.928,3.266,3.266,0,0,1-1.507,0l-5.1-2.2c-.116,0-.116,0-.232.116a2.529,2.529,0,0,1-.927.58,1.27,1.27,0,0,1-.928,0l-1.855-.812a.536.536,0,0,1-.348-.58,1.541,1.541,0,0,1,.348-.812c.116-.116.116-.116,0-.116l-6.492-2.782c-.116,0-.116,0-.232.116a2.525,2.525,0,0,1-.928.58,1.267,1.267,0,0,1-.927,0Zm2.087,4.869c-.116-.116-.348,0-.464.116l-1.391,1.623a.217.217,0,0,0,0,.348l2.9,1.275c.116.116.232,0,.464-.116l1.391-1.623a.217.217,0,0,0,0-.348Zm6.492,2.783c-.116-.116-.348,0-.464.116l-1.391,1.623a.218.218,0,0,0,0,.348l3.014,1.275c.116.116.232,0,.464-.116l1.391-1.623a.217.217,0,0,0,0-.348Z" transform="translate(-919.416 -2108.851)" fill="#231815"/>
      <path id="Path_7097" data-name="Path 7097" d="M1086.625,2186.051a.217.217,0,0,0,0,.348l.812.348c.464.232.7.464.7.927a1.477,1.477,0,0,1-.58,1.275,3.331,3.331,0,0,1-1.507.928,3.3,3.3,0,0,1-1.507,0l-16-6.84h0c0,.232-.116.348-.464.464l-1.971.812a1.965,1.965,0,0,1-1.159,0h-.116a.777.777,0,0,1-.348-.927c.232-.58.464-1.275.7-1.971h-.232l-9.971,11.014a2.872,2.872,0,0,1-1.623.927,2.24,2.24,0,0,1-1.739,0,1.475,1.475,0,0,1-.812-1.043,1.836,1.836,0,0,1,.58-1.391l8.811-9.739h0a67.1,67.1,0,0,1-6.261,3.71,1.405,1.405,0,0,1-1.159.116h-.116a.73.73,0,0,1-.348-.927c0-.116,0-.116.116-.232a3.562,3.562,0,0,1,.927-1.507,6.066,6.066,0,0,1,1.971-1.391,67.5,67.5,0,0,0,11.362-7.072c.232-.116.232-.232.116-.348l-1.855-.812a1.474,1.474,0,0,1-.812-1.043,1.837,1.837,0,0,1,.58-1.391,2.873,2.873,0,0,1,1.623-.927,1.962,1.962,0,0,1,1.623,0l2.2.927c.116.116.348,0,.464-.116l3.942-4.406a3.931,3.931,0,0,1,1.623-1.043,2.956,2.956,0,0,1,1.739,0,1.474,1.474,0,0,1,.811,1.043,1.837,1.837,0,0,1-.58,1.391l-3.942,4.406a.217.217,0,0,0,0,.348l1.623.7a1.237,1.237,0,0,1,.812,1.043,1.837,1.837,0,0,1-.58,1.391,2.873,2.873,0,0,1-1.623.927,2.956,2.956,0,0,1-1.739,0l-1.623-.7c-.116-.116-.348,0-.464.116l-1.043,1.159a.88.88,0,0,0-.232.464c0,.927-.232,2.435-.464,4.637v.116H1069l.116-.116a4.368,4.368,0,0,1,1.739-1.043,2.938,2.938,0,0,1,1.739,0l1.623.7c.116.116.348,0,.464-.116q1.217-1.044,3.13-2.435.348-.174,0-.348l-.812-.348c-.464-.232-.7-.464-.7-.927a1.932,1.932,0,0,1,.464-1.275,2.955,2.955,0,0,1,1.391-.928,3.3,3.3,0,0,1,1.507,0l1.391.58c.116.116.348,0,.464-.116.232-.232.58-.464,1.043-.927a9.513,9.513,0,0,0,1.043-.927.217.217,0,0,0,0-.348l-2.551-1.159c-.464-.232-.7-.464-.7-.927a1.477,1.477,0,0,1,.58-1.275,3.332,3.332,0,0,1,1.507-.928,3.266,3.266,0,0,1,1.507,0l13.217,5.681c.464.232.7.464.7.927a1.477,1.477,0,0,1-.58,1.276,3.33,3.33,0,0,1-1.507.927,3.819,3.819,0,0,1-1.623,0l-6.377-2.782c-.116-.116-.348,0-.464.116l-2.087,1.739c-.116.116-.116.232,0,.232l4.753,2.087a1.238,1.238,0,0,1,.812,1.043,2.078,2.078,0,0,1-.58,1.507Zm-26.434,10.9a1.237,1.237,0,0,1-.812-1.043,1.836,1.836,0,0,1,.58-1.391l6.956-7.652a4.864,4.864,0,0,1,1.623-1.043,2.24,2.24,0,0,1,1.739,0l11.014,4.753a1.238,1.238,0,0,1,.812,1.043,2.078,2.078,0,0,1-.58,1.507l-6.84,7.536a4.368,4.368,0,0,1-1.739,1.043,2.935,2.935,0,0,1-1.739,0l-.812-.348a.636.636,0,0,1-.464-.7,1.542,1.542,0,0,1,.348-.927c.116-.116.116-.116,0-.232l-7.072-3.015a.426.426,0,0,0-.348.116,2.74,2.74,0,0,1-1.043.7,1.961,1.961,0,0,1-1.159,0Zm16.231-3.71a.217.217,0,0,0,0-.348l-6.956-3.015c-.116-.116-.348,0-.464.116l-2.782,3.13a.217.217,0,0,0,0,.348l6.956,3.014c.116.116.232,0,.464-.116Zm9.043-11.362a.217.217,0,0,0,0-.348l-3.478-1.507c-.116-.116-.348,0-.464.116q-2.435,1.913-3.13,2.435c-.116.116-.232.232,0,.232l4.174,1.855c.116.116.232,0,.464-.116Z" transform="translate(-914.066 -2106.547)" fill="#231815"/>
      <path id="Path_7098" data-name="Path 7098" d="M1113.409,2200.15a4.368,4.368,0,0,1-1.739,1.043,2.936,2.936,0,0,1-1.739,0l-5.565-2.435c-.116-.116-.348,0-.58,0l-1.275.7-.116.116v.116l8.347,3.594a.872.872,0,0,1,.58.812,1.661,1.661,0,0,1-.464,1.159,3,3,0,0,1-1.275.812,2.783,2.783,0,0,1-1.391,0l-1.623-.7c-.116-.116-.348,0-.464.116a18.478,18.478,0,0,1-4.985,2.551c-.232.116-.232.116-.116.232a27.738,27.738,0,0,1,1.855,2.551,1.063,1.063,0,0,1-.116,1.275c-.116.116-.116.232-.232.232a2.407,2.407,0,0,1-1.159.7,3.445,3.445,0,0,1-1.855.116c-.116,0-.348-.116-.464-.116a1.226,1.226,0,0,1-.812-.7q-.87-1.391-2.087-3.13c-.116-.116-.232-.232-.464-.116a36.256,36.256,0,0,1-9.855-1.159c-.116,0-.232-.116-.348-.116a1.045,1.045,0,0,1-.7-.7,2.236,2.236,0,0,1,0-1.507,3.077,3.077,0,0,1,.58-.7,2.326,2.326,0,0,1,.928-.464,1.267,1.267,0,0,1,.927,0,25.974,25.974,0,0,0,5.913,1.275h.116s.116-.116,0-.116a6.527,6.527,0,0,0-1.275-1.276h-.116q-.522.174-.7,0l-.811-.812a.836.836,0,0,1-.116-1.043c.116-.116.232-.348.348-.464a2.419,2.419,0,0,1,.7-.464c.928-.464,1.855-.812,2.667-1.275l.116-.116v-.116l-1.507-.7a1.237,1.237,0,0,1-.812-1.043,2.079,2.079,0,0,1,.58-1.507l.348-.464v-.116h-.116a1.049,1.049,0,0,1-1.159,0c-.348-.232-.348-.464-.232-.812.348-.812.58-1.623.927-2.667v-.116h-.116l-10.2,11.246a2.872,2.872,0,0,1-1.623.927,2.581,2.581,0,0,1-1.623,0,1.474,1.474,0,0,1-.812-1.043,1.836,1.836,0,0,1,.58-1.391l8.7-9.623v-.116h0c-2.087,1.391-4.058,2.551-5.8,3.478a1.4,1.4,0,0,1-1.159.116h-.116a.73.73,0,0,1-.348-.928v-.116a7.385,7.385,0,0,1,.927-1.623,12.872,12.872,0,0,1,1.855-1.391,61.666,61.666,0,0,0,11.014-7.188.217.217,0,0,0,0-.348l-1.507-.7a1.475,1.475,0,0,1-.812-1.043,1.5,1.5,0,0,1,.58-1.391,2.872,2.872,0,0,1,1.623-.927,1.96,1.96,0,0,1,1.623,0l1.855.812c.116.116.348,0,.464-.116l4.058-4.406a2.991,2.991,0,0,1,1.507-.928,2.584,2.584,0,0,1,1.623,0,1.475,1.475,0,0,1,.812,1.043,1.836,1.836,0,0,1-.58,1.391l-4.058,4.406a.218.218,0,0,0,0,.348l1.159.464a1.474,1.474,0,0,1,.812,1.043,1.837,1.837,0,0,1-.58,1.391,2.872,2.872,0,0,1-1.623.927,1.962,1.962,0,0,1-1.623,0l-1.159-.464c-.116-.116-.232,0-.464.116l-.927,1.043a.6.6,0,0,0-.232.464,59.284,59.284,0,0,1-1.159,6.029,1.322,1.322,0,0,1-.348.7,2.523,2.523,0,0,1-.927.58v.116h0l4.522,1.971a.353.353,0,0,0,.464,0,8.526,8.526,0,0,1,1.275-.7l.116-.116v-.116l-2.551-1.043a.872.872,0,0,1-.58-.812,1.416,1.416,0,0,1,.464-1.043,2.4,2.4,0,0,1,1.159-.7,2.366,2.366,0,0,1,1.275,0l4.29,1.855c.116.116.348,0,.464-.116l.7-.812a.217.217,0,0,0,0-.348l-5.681-2.435a.872.872,0,0,1-.58-.812,1.415,1.415,0,0,1,.464-1.043,2.29,2.29,0,0,1,1.275-.7,2.366,2.366,0,0,1,1.275,0l5.681,2.435c.116.116.348,0,.464-.116l.58-.7a.218.218,0,0,0,0-.348l-4.29-1.855a.872.872,0,0,1-.58-.812,1.415,1.415,0,0,1,.464-1.043,2.4,2.4,0,0,1,1.159-.7,2.37,2.37,0,0,1,1.275,0l4.29,1.855c.116.116.348,0,.464-.116l.58-.7a.217.217,0,0,0,0-.348l-5.333-2.319a.872.872,0,0,1-.58-.812,1.661,1.661,0,0,1,.464-1.159,3,3,0,0,1,1.275-.812,2.815,2.815,0,0,1,1.391,0l5.333,2.319c.116.116.348,0,.464-.116l.232-.348a3.932,3.932,0,0,1,1.623-1.043,2.242,2.242,0,0,1,1.739,0,1.238,1.238,0,0,1,.812,1.043,2.261,2.261,0,0,1-.58,1.507l-.232.348a.218.218,0,0,0,0,.348l5.565,2.435a.872.872,0,0,1,.58.812,1.661,1.661,0,0,1-.464,1.159,3,3,0,0,1-1.275.812,2.814,2.814,0,0,1-1.391,0l-5.565-2.435c-.116-.116-.348,0-.464.116l-.58.7a.217.217,0,0,0,0,.348l4.174,1.739a1.238,1.238,0,0,1,.812,1.043,2.078,2.078,0,0,1-.58,1.507l-1.391,1.507c-.116.116-.116.232,0,.232a.872.872,0,0,1,.58.812,1.661,1.661,0,0,1-.464,1.159l-.232.232a3,3,0,0,1-1.275.812,2.818,2.818,0,0,1-1.391,0,.426.426,0,0,0-.348.116Zm-11.014,3.594.116-.116a.114.114,0,0,0-.116-.116l-4.29-1.855a.517.517,0,0,0-.58,0l-1.391.7c-.232.116-.232.232-.116.348.464.464,1.275,1.276,2.435,2.551.116.116.232.116.464.116A23.375,23.375,0,0,0,1102.395,2203.743Zm6.956-8.231c-.116-.116-.348,0-.464.116l-.7.812a.217.217,0,0,0,0,.348l2.2.928c.116.116.232,0,.464-.116l.7-.812a.217.217,0,0,0,0-.348Zm3.362-3.594c-.116-.116-.348,0-.464.116l-.58.7a.217.217,0,0,0,0,.348l2.2.928c.116.116.232,0,.464-.116l.58-.7a.218.218,0,0,0,0-.348Z" transform="translate(-909.779 -2104.762)" fill="#231815"/>
      <path id="Path_7099" data-name="Path 7099" d="M1114.088,2209.624a4.26,4.26,0,0,1,2.087-.116,1.651,1.651,0,0,1,.7.232,1.71,1.71,0,0,1,.7.58l.348.464a1.048,1.048,0,0,1,0,1.159c-.116.116-.116.232-.232.348a2.248,2.248,0,0,1-1.043.58,65.571,65.571,0,0,1-10.55,2.2,3.2,3.2,0,0,1-1.507-.116c-.116,0-.116-.116-.232-.116a2.194,2.194,0,0,1-.927-1.16.426.426,0,0,0-.116-.348.991.991,0,0,1,.348-1.043,2.771,2.771,0,0,1,1.507-.812A57.4,57.4,0,0,0,1114.088,2209.624Zm20.637.232a.217.217,0,0,0,0,.348l4.869,2.087a1.238,1.238,0,0,1,.811,1.043,2.078,2.078,0,0,1-.58,1.507,4.371,4.371,0,0,1-1.739,1.043,2.941,2.941,0,0,1-1.739,0L1111.19,2205.1a1.238,1.238,0,0,1-.812-1.043,2.079,2.079,0,0,1,.58-1.507,4.365,4.365,0,0,1,1.739-1.043,2.937,2.937,0,0,1,1.739,0l4.753,2.087c.116.116.232,0,.464-.116l4.985-5.449a.217.217,0,0,0,0-.348l-3.594-1.623a1.238,1.238,0,0,1-.812-1.043,2.261,2.261,0,0,1,.58-1.507,4.87,4.87,0,0,1,1.623-1.043,2.244,2.244,0,0,1,1.739,0l3.594,1.623c.116.116.232,0,.464-.116l3.362-3.71a4.365,4.365,0,0,1,1.739-1.043,2.933,2.933,0,0,1,1.739,0l.232.116a1.237,1.237,0,0,1,.812,1.043,2.079,2.079,0,0,1-.58,1.507l-3.362,3.71a.218.218,0,0,0,0,.348l6.724,2.9c.116.116.348,0,.464-.116l3.362-3.71a4.862,4.862,0,0,1,1.623-1.043,2.937,2.937,0,0,1,1.739,0l.232.116a1.237,1.237,0,0,1,.812,1.043,2.078,2.078,0,0,1-.58,1.507l-3.362,3.71a.218.218,0,0,0,0,.348l3.826,1.623a1.238,1.238,0,0,1,.812,1.043,2.731,2.731,0,0,1-.58,1.507,4.863,4.863,0,0,1-1.623,1.043,2.934,2.934,0,0,1-1.739,0l-3.826-1.623c-.116-.116-.232,0-.464.116Zm-5.8-10.435c-.116-.116-.348,0-.464.116l-4.985,5.449a.218.218,0,0,0,0,.348l6.724,2.9c.116.116.348,0,.464-.116l4.985-5.449a.218.218,0,0,0,0-.348Zm-5.217,16.463a.991.991,0,0,1,.348-1.043,2.1,2.1,0,0,1,1.623-.7h.348a4.506,4.506,0,0,1,1.739.232c.116,0,.116,0,.232.116a2.539,2.539,0,0,1,1.043,1.16c.348,1.275.7,2.435,1.043,3.594s.58,2.319.812,3.246a1.177,1.177,0,0,1-.348,1.16.114.114,0,0,1-.116.116,2.1,2.1,0,0,1-1.623.7l-.927.116a2.51,2.51,0,0,1-1.391-.232c-.116,0-.232-.116-.348-.116a1.9,1.9,0,0,1-.812-1.275C1124.87,2220.985,1124.407,2218.667,1123.711,2215.884Z" transform="translate(-905.705 -2102.642)" fill="#231815"/>
      <path id="Path_7100" data-name="Path 7100" d="M1157.1,2207.131a13.465,13.465,0,0,1,2.2,1.043.9.9,0,0,1,.348.812,1.43,1.43,0,0,1-.464.927,87.53,87.53,0,0,1-13.681,11.13c-.232.116-.232.232-.232.348.232.927.348,1.855.464,2.551a1.639,1.639,0,0,1-.7,1.623,5.229,5.229,0,0,1-1.623,1.159l-.232.116a2.61,2.61,0,0,1-1.623.116h-.116c-.464-.232-.7-.464-.7-.928,0-.58-.116-1.275-.116-2.087,0-.116-.116-.232-.348-.116a39.015,39.015,0,0,1-8.116,2.667,1.8,1.8,0,0,1-1.159-.116c-.116,0-.232-.116-.348-.232a1.288,1.288,0,0,1-.464-1.276v-.116a2.08,2.08,0,0,1,.464-1.043l.232-.232a3.091,3.091,0,0,1,1.623-.812,24.461,24.461,0,0,0,7.072-2.435c.232-.116.232-.232.232-.348-.116-.348-.232-.927-.464-1.623,0-.116-.116-.116-.232,0a1.672,1.672,0,0,1-.812.232.886.886,0,0,1-.58-.232l-.464-.7a1.479,1.479,0,0,1,0-1.391,2.527,2.527,0,0,1,.58-.927,1.158,1.158,0,0,1,.58-.464q3.652-2.782,8.7-6.956c.116-.116.116-.232,0-.232l-.464-.232a1.474,1.474,0,0,1-.812-1.043,1.836,1.836,0,0,1,.58-1.391,2.872,2.872,0,0,1,1.623-.927,1.962,1.962,0,0,1,1.623,0l1.159.464c.116.116.348,0,.464-.116q2.609-2.087,4.522-3.826a3.044,3.044,0,0,1,1.739-.812,2.2,2.2,0,0,1,1.507.116.113.113,0,0,1,.116.116.957.957,0,0,1,.58,1.159,1.845,1.845,0,0,1-.58,1.159c-.116.116-.232.232-.348.232-1.275,1.159-2.783,2.319-4.29,3.478a.217.217,0,0,0,0,.348Zm-3.594,3.362a.218.218,0,0,0,0-.348l-2.2-.927c-.116-.116-.348,0-.464.116-1.855,1.507-4.29,3.478-7.188,5.681-.116.116-.232.232-.116.348a19.781,19.781,0,0,0,.811,2.087q0,.174.348,0A75.943,75.943,0,0,0,1153.508,2210.493Zm16.695,10.666a1.238,1.238,0,0,1,.812,1.043,1.836,1.836,0,0,1-.58,1.391,3.934,3.934,0,0,1-1.623,1.043,2.243,2.243,0,0,1-1.739,0l-4.985-2.087c-.116-.116-.232,0-.464.116l-8,8.811a16.92,16.92,0,0,1-2.319,2.087,5.4,5.4,0,0,1-2.319.7,11.916,11.916,0,0,1-4.058-.812h-.116a1.645,1.645,0,0,1-.927-1.043,2.094,2.094,0,0,1,.232-1.623c0-.116.116-.232.116-.348.116-.116.116-.348.348-.464a4.906,4.906,0,0,1,.812-.58,1.94,1.94,0,0,1,1.391-.116h0a11.341,11.341,0,0,0,1.275.58,1.647,1.647,0,0,0,.7.232,1.258,1.258,0,0,0,.58.116,1.061,1.061,0,0,0,.58-.348l8-8.812a.218.218,0,0,0,0-.348l-4.638-1.971a1.475,1.475,0,0,1-.812-1.043,1.836,1.836,0,0,1,.58-1.391,3.933,3.933,0,0,1,1.623-1.043,2.242,2.242,0,0,1,1.739,0l4.638,1.971c.116.116.232,0,.464-.116l2.087-2.319a2.526,2.526,0,0,1,.928-.58,1.605,1.605,0,0,1,1.043,0h.348a54.205,54.205,0,0,0,5.913-2.2l.116-.116v-.116l-7.884-3.362a1.475,1.475,0,0,1-.811-1.043,1.836,1.836,0,0,1,.58-1.391,2.873,2.873,0,0,1,1.623-.927,1.96,1.96,0,0,1,1.623,0l10.55,4.521h.232c.232,0,.348.116.464.116a.952.952,0,0,1,.58.58l.232.812a1.7,1.7,0,0,1-.232,1.275c-.116.116-.116.232-.232.232a2.74,2.74,0,0,1-1.043.7,107.406,107.406,0,0,1-10.55,3.71c-.232,0-.348.116-.464.348l-1.159,1.275a.218.218,0,0,0,0,.348Z" transform="translate(-901.416 -2100.96)" fill="#231815"/>
    </g>
  </g>
</svg>
