<svg xmlns="http://www.w3.org/2000/svg" width="522.254" height="542.507" viewBox="0 0 522.254 542.507">
  <g id="feature4" transform="translate(0.54 0.513)">
    <g id="Group_642" data-name="Group 642" transform="translate(87.96 189.833)">
      <path id="Path_7101" data-name="Path 7101" d="M507.188,2538.205a3.382,3.382,0,0,1,4.637-.928,3.3,3.3,0,0,1,.58,4.638,3.263,3.263,0,0,1-4.522.927,3.314,3.314,0,0,1-.7-4.637" transform="translate(-463.612 -2511.169)" fill="#e73e6b" stroke="#030000" stroke-miterlimit="10" stroke-width="1"/>
      <path id="Path_7102" data-name="Path 7102" d="M514.343,2559.675s-4.174-12.521-3.478-22.724c.58-8-15.188-12.869-16.347,1.739-.812,10.434,2.435,24.579,5.913,31.419" transform="translate(-465.549 -2512.351)" fill="#e73e6b" stroke="#030000" stroke-miterlimit="10" stroke-width="1"/>
      <path id="Path_7103" data-name="Path 7103" d="M570.153,2751.2v47.3a14.473,14.473,0,0,1-14.376,14.492h0A14.473,14.473,0,0,1,541.4,2798.5v-47.3" transform="translate(-458.057 -2476.986)" fill="#e73e6b" stroke="#030000" stroke-miterlimit="10" stroke-width="1"/>
      <path id="Path_7104" data-name="Path 7104" d="M495.12,2584.6c-45.911,67.823-28.4,159.878,39.071,205.441s159.3,27.593,205.21-40.23,28.289-159.878-39.071-205.441c-67.476-45.68-159.414-27.593-205.21,40.23" transform="translate(-469.514 -2513.97)" fill="#e73e6b" stroke="#030000" stroke-miterlimit="10" stroke-width="1"/>
      <path id="Path_7105" data-name="Path 7105" d="M685.461,2614.678a3.353,3.353,0,0,0-3.13-3.478,3.28,3.28,0,0,0-3.13,3.478,3.353,3.353,0,0,0,3.13,3.478,3.28,3.28,0,0,0,3.13-3.478" transform="translate(-436.095 -2499.298)" fill="#e73e6b" stroke="#030000" stroke-miterlimit="10" stroke-width="1"/>
      <path id="Path_7106" data-name="Path 7106" d="M670.7,2628.579s10.666-7.768,16-16.463c4.174-6.84,19.825-1.623,12.289,11.014-5.333,9.043-16.347,18.55-23.072,22.144" transform="translate(-437.45 -2499.634)" fill="#e73e6b" stroke="#030000" stroke-miterlimit="10" stroke-width="1"/>
      <path id="Path_7107" data-name="Path 7107" d="M574.567,2608.833a19.166,19.166,0,0,1-1.739,2.9c-6.029,8.927-15.42,12.985-20.985,9.275-5.565-3.826-5.217-14.029.812-22.84a22.609,22.609,0,0,1,1.971-2.667Z" transform="translate(-457.023 -2501.8)" fill="#fff"/>
      <path id="Path_7108" data-name="Path 7108" d="M574.567,2608.833a19.166,19.166,0,0,1-1.739,2.9c-6.029,8.927-15.42,12.985-20.985,9.275-5.565-3.826-5.217-14.029.812-22.84a22.609,22.609,0,0,1,1.971-2.667Z" transform="translate(-457.023 -2501.8)" fill="none" stroke="#231815" stroke-miterlimit="10" stroke-width="1"/>
      <path id="Path_7109" data-name="Path 7109" d="M553.256,2598.291c-3.246,4.869-3.478,10.434-.464,12.521s8.232-.232,11.478-4.985c3.246-4.869,3.478-10.434.464-12.521-3.13-2.087-8.232.232-11.478,4.985" transform="translate(-456.58 -2502.273)" fill="#231815"/>
      <path id="Path_7110" data-name="Path 7110" d="M572.614,2589.89c4.985,3.362,5.217,11.941.927,20.057L553.6,2596.5c6.029-6.957,14.029-9.971,19.014-6.608" transform="translate(-456.113 -2502.914)" fill="#e73e6b" stroke="#030000" stroke-miterlimit="10" stroke-width="1"/>
      <path id="Path_7111" data-name="Path 7111" d="M572.614,2589.89c4.985,3.362,5.217,11.941.927,20.057L553.6,2596.5C559.629,2589.542,567.629,2586.527,572.614,2589.89Z" transform="translate(-456.113 -2502.914)" fill="none" stroke="#231815" stroke-miterlimit="10" stroke-width="1"/>
      <path id="Path_7112" data-name="Path 7112" d="M578.949,2598.9a5.527,5.527,0,0,1-5.449.116" transform="translate(-452.941 -2501.259)" fill="none" stroke="#231815" stroke-linecap="round" stroke-miterlimit="10" stroke-width="1"/>
      <path id="Path_7113" data-name="Path 7113" d="M578.849,2601.664a5.669,5.669,0,0,1-5.449-.464" transform="translate(-452.957 -2500.892)" fill="none" stroke="#231815" stroke-linecap="round" stroke-miterlimit="10" stroke-width="1"/>
      <path id="Path_7114" data-name="Path 7114" d="M578.849,2596.4a5.517,5.517,0,0,1-5.449.348" transform="translate(-452.957 -2501.657)" fill="none" stroke="#231815" stroke-linecap="round" stroke-miterlimit="10" stroke-width="1"/>
      <path id="Path_7115" data-name="Path 7115" d="M521.726,2573.2a22.607,22.607,0,0,0-1.971,2.667c-6.029,8.927-6.377,19.13-.812,22.84,5.565,3.826,14.956-.348,20.985-9.275.58-.927,1.159-1.855,1.739-2.9Z" transform="translate(-462.266 -2505.354)" fill="#fff"/>
      <path id="Path_7116" data-name="Path 7116" d="M521.726,2573.2a22.607,22.607,0,0,0-1.971,2.667c-6.029,8.927-6.377,19.13-.812,22.84,5.565,3.826,14.956-.348,20.985-9.275.58-.927,1.159-1.855,1.739-2.9Z" transform="translate(-462.266 -2505.354)" fill="none" stroke="#231815" stroke-miterlimit="10" stroke-width="1"/>
      <path id="Path_7117" data-name="Path 7117" d="M531.375,2583.62c-3.246,4.869-8.347,7.072-11.478,5.1-3.014-2.087-2.9-7.652.464-12.521,3.246-4.869,8.463-7.073,11.478-5.1s2.782,7.652-.464,12.521" transform="translate(-461.829 -2505.804)" fill="#231815"/>
      <path id="Path_7118" data-name="Path 7118" d="M539.8,2567.692c-4.985-3.362-12.985-.464-18.9,6.608l19.941,13.449c4.174-8.116,3.942-16.7-1.043-20.057" transform="translate(-461.325 -2506.455)" fill="#e73e6b" stroke="#030000" stroke-miterlimit="10" stroke-width="1"/>
      <path id="Path_7119" data-name="Path 7119" d="M539.8,2567.692c-4.985-3.362-12.985-.464-18.9,6.608l19.941,13.449C545.015,2579.634,544.783,2571.054,539.8,2567.692Z" transform="translate(-461.325 -2506.455)" fill="none" stroke="#231815" stroke-miterlimit="10" stroke-width="1"/>
      <path id="Path_7120" data-name="Path 7120" d="M525.608,2563.4a5.469,5.469,0,0,0,1.971,5.1" transform="translate(-460.583 -2506.916)" fill="none" stroke="#231815" stroke-linecap="round" stroke-miterlimit="10" stroke-width="1"/>
      <path id="Path_7121" data-name="Path 7121" d="M523.2,2564.5a5.564,5.564,0,0,0,2.435,4.869" transform="translate(-460.959 -2506.741)" fill="none" stroke="#231815" stroke-linecap="round" stroke-miterlimit="10" stroke-width="1"/>
      <path id="Path_7122" data-name="Path 7122" d="M527.914,2562.5a5.783,5.783,0,0,0,1.623,5.217" transform="translate(-460.222 -2507.06)" fill="none" stroke="#231815" stroke-linecap="round" stroke-miterlimit="10" stroke-width="1"/>
      <path id="Path_7123" data-name="Path 7123" d="M542.689,2622s-8.579,1.391-7.884,11.71" transform="translate(-459.115 -2497.577)" fill="none" stroke="#231815" stroke-linecap="round" stroke-miterlimit="10" stroke-width="1"/>
      <path id="Path_7124" data-name="Path 7124" d="M519.884,2606.6s1.855,8.464-7.884,11.71" transform="translate(-462.743 -2500.031)" fill="none" stroke="#231815" stroke-linecap="round" stroke-miterlimit="10" stroke-width="1"/>
      <line id="Line_29" data-name="Line 29" x1="21.796" y1="14.724" transform="translate(55.518 113.989)" fill="none" stroke="#231815" stroke-miterlimit="10" stroke-width="1"/>
      <path id="Path_7125" data-name="Path 7125" d="M520.937,2615.6l2.551,1.739,2.551,1.739s-1.391,3.13-3.826,1.507l-.58-.348-.58-.348c-2.435-1.855-.116-4.29-.116-4.29" transform="translate(-461.478 -2498.597)" fill="#fff"/>
      <path id="Path_7126" data-name="Path 7126" d="M521.073,2615.5l2.551,1.739,2.551,1.739s-1.623,3.594-4.174,1.855l-.58-.348-.58-.348C518.406,2618.282,521.073,2615.5,521.073,2615.5Z" transform="translate(-461.497 -2498.613)" fill="none" stroke="#231815" stroke-miterlimit="10" stroke-width="1"/>
      <path id="Path_7127" data-name="Path 7127" d="M528.244,2620.5l2.551,1.739,2.551,1.739s-1.391,3.13-3.826,1.507l-.58-.348-.58-.348c-2.551-1.855-.116-4.29-.116-4.29" transform="translate(-460.321 -2497.816)" fill="#fff"/>
      <path id="Path_7128" data-name="Path 7128" d="M528.373,2620.4l2.551,1.739,2.551,1.739s-1.623,3.594-4.174,1.855l-.58-.348-.58-.348C525.706,2623.183,528.373,2620.4,528.373,2620.4Z" transform="translate(-460.334 -2497.832)" fill="none" stroke="#231815" stroke-miterlimit="10" stroke-width="1"/>
      <path id="Path_7129" data-name="Path 7129" d="M632.853,2764.7V2812a14.473,14.473,0,0,1-14.376,14.492h0A14.473,14.473,0,0,1,604.1,2812v-41.158" transform="translate(-448.064 -2474.834)" fill="#e73e6b" stroke="#030000" stroke-miterlimit="10" stroke-width="1"/>
      <path id="Path_7130" data-name="Path 7130" d="M676.588,2547.514s-16.231-9.623-20.4-31.767c0,0-.7-2.319-3.014-.116,0,0-15.768,13.912-11.362,25.39" transform="translate(-442.179 -2514.681)" fill="#e73e6b" stroke="#030000" stroke-miterlimit="10" stroke-width="1"/>
    </g>
    <path id="Path_7131" data-name="Path 7131" d="M781.984,2676.678,400.665,2509.032a11.888,11.888,0,0,1-4.29-18.434l114.894-135.531a11.771,11.771,0,0,1,13.681-3.13l384.217,168.805a9.459,9.459,0,0,1,3.362,14.84L795.664,2673.548A11.771,11.771,0,0,1,781.984,2676.678Z" transform="translate(-393.646 -2350.943)" fill="#fdf42d" stroke="#231815" stroke-miterlimit="10" stroke-width="1"/>
    <g id="Group_643" data-name="Group 643" transform="translate(176.723 77.391)">
      <path id="Path_7132" data-name="Path 7132" d="M591.552,2430.222a27,27,0,0,1,4.522,2.2,1.557,1.557,0,0,1,.812,1.623,2.465,2.465,0,0,1-.812,1.739,113.707,113.707,0,0,1-22.724,19.246c-.232.232-.464.464-.348.7a40.4,40.4,0,0,1,.812,4.406,3.637,3.637,0,0,1-1.159,2.9,8.562,8.562,0,0,1-2.9,1.971l-2.2.812a3.1,3.1,0,0,1-2.667.116h0a1.693,1.693,0,0,1-1.159-1.623c0-.927-.116-1.971-.232-3.246,0-.232-.232-.348-.58-.116a63.741,63.741,0,0,1-13.333,4.29,4.082,4.082,0,0,1-2.087-.116,2.533,2.533,0,0,1-.58-.348,2.161,2.161,0,0,1-.812-2.2c0-.58.116-1.043.116-1.623a3.156,3.156,0,0,1,.927-1.855,1.6,1.6,0,0,0,.348-.464,6.318,6.318,0,0,1,2.783-1.391,43.233,43.233,0,0,0,11.13-3.71c.348-.116.464-.348.348-.58l-.348-1.276c0-.116-.116-.116-.232,0a2.06,2.06,0,0,1-1.159.464.9.9,0,0,1-.812-.348l-1.507-2.435a2.814,2.814,0,0,1-.116-2.551,6.919,6.919,0,0,1,1.043-1.739,4.21,4.21,0,0,1,1.043-.927c3.71-2.9,8.348-6.608,13.8-11.13.232-.232.348-.464,0-.58l-.232-.116a2.1,2.1,0,0,1-1.507-1.855,3.086,3.086,0,0,1,1.043-2.551l.927-.928a5.731,5.731,0,0,1,2.783-1.739,4.453,4.453,0,0,1,3.014,0l1.623.7c.232.116.464,0,.812-.232,2.087-1.855,4.522-3.942,7.3-6.376a6.577,6.577,0,0,1,3.13-1.507,4.1,4.1,0,0,1,2.667.232c.116,0,.232.116.348.232l1.043.58a2.04,2.04,0,0,1,1.159,1.971,3.829,3.829,0,0,1-.927,1.971l-.464.464c-2.319,1.971-4.522,3.826-6.724,5.681-.232.232-.232.348,0,.464Zm-7.536,7.072c.232-.232.348-.464,0-.58l-2.435-1.043a.769.769,0,0,0-.812.232q-3.652,2.956-10.782,8.7c-.232.232-.348.464-.232.7a11.988,11.988,0,0,1,.812,2.435c.116.232.232.232.58,0A115.885,115.885,0,0,0,584.016,2437.294Zm31.767,17.506a2.233,2.233,0,0,1,1.507,1.855,3.086,3.086,0,0,1-1.043,2.551l-1.044,1.159a6.715,6.715,0,0,1-2.9,1.739,3.811,3.811,0,0,1-3.014-.116l-8-3.362a.717.717,0,0,0-.812.232l-12.058,13.449a22.855,22.855,0,0,1-4.522,4.058,10.448,10.448,0,0,1-4.638,1.507,20.306,20.306,0,0,1-7.42-1.391c-.116,0-.116-.116-.232-.116a2.794,2.794,0,0,1-1.623-1.623,3.592,3.592,0,0,1,.464-2.782,15.5,15.5,0,0,0,.812-2.087,2.077,2.077,0,0,1,.58-.812,5.148,5.148,0,0,1,1.275-.928,3.008,3.008,0,0,1,2.435-.116h0c.812.348,1.391.58,1.855.812s.812.348,1.043.464a2.293,2.293,0,0,0,1.159.232,1.777,1.777,0,0,0,.812-.58l11.942-13.333c.232-.232.232-.464-.116-.58l-7.3-3.13a2.273,2.273,0,0,1-1.507-1.855,3.345,3.345,0,0,1,.927-2.551l1.043-1.159a6.1,6.1,0,0,1,2.9-1.739,4.453,4.453,0,0,1,3.014,0l7.3,3.13a.717.717,0,0,0,.812-.232l2.9-3.246a3.9,3.9,0,0,1,1.855-1.159,2.858,2.858,0,0,1,1.971,0,.526.526,0,0,0,.58,0,71.554,71.554,0,0,0,8.232-3.478c.116,0,.116-.116.232-.232,0-.116,0-.116-.116-.232l-11.942-4.985a2.233,2.233,0,0,1-1.507-1.855,3.086,3.086,0,0,1,1.043-2.551l.812-.927a6.713,6.713,0,0,1,2.9-1.739,3.812,3.812,0,0,1,3.014.116l17.159,7.188c.116.116.232.116.464.116a2.188,2.188,0,0,1,.927.232,1.935,1.935,0,0,1,1.275,1.391l.58,1.623a3.023,3.023,0,0,1-.58,2.551,2.53,2.53,0,0,1-.464.58,6.184,6.184,0,0,1-2.2,1.507c-6.492,2.782-12.173,4.869-16.927,6.376a1.874,1.874,0,0,0-.812.464l-1.275,1.391c-.232.232-.232.464.116.58Z" transform="translate(-546.076 -2417.696)" fill="#d75562" stroke="#030000" stroke-miterlimit="10" stroke-width="1"/>
      <path id="Path_7133" data-name="Path 7133" d="M639.251,2450.222a27,27,0,0,1,4.522,2.2,1.557,1.557,0,0,1,.812,1.623,2.465,2.465,0,0,1-.812,1.739,113.709,113.709,0,0,1-22.724,19.246c-.232.232-.464.464-.348.7a40.408,40.408,0,0,1,.812,4.406,3.637,3.637,0,0,1-1.159,2.9,8.562,8.562,0,0,1-2.9,1.971l-2.2.812a3.1,3.1,0,0,1-2.667.116h0a1.693,1.693,0,0,1-1.159-1.623c0-.927-.116-1.971-.232-3.246,0-.232-.232-.348-.58-.116a63.741,63.741,0,0,1-13.333,4.29,4.082,4.082,0,0,1-2.087-.116,2.532,2.532,0,0,1-.58-.348,2.161,2.161,0,0,1-.812-2.2c0-.58.116-1.043.116-1.623a3.156,3.156,0,0,1,.927-1.855,1.6,1.6,0,0,0,.348-.464,6.32,6.32,0,0,1,2.783-1.391,43.224,43.224,0,0,0,11.13-3.71c.348-.116.464-.348.348-.58l-.348-1.275c0-.116-.116-.116-.232,0a2.061,2.061,0,0,1-1.159.464.9.9,0,0,1-.812-.348l-1.507-2.435a2.815,2.815,0,0,1-.116-2.551,6.921,6.921,0,0,1,1.043-1.739,4.216,4.216,0,0,1,1.043-.927c3.71-2.9,8.348-6.608,13.8-11.13.232-.232.348-.464,0-.58l-.232-.116a2.1,2.1,0,0,1-1.507-1.855,3.086,3.086,0,0,1,1.043-2.551l.927-.928a5.732,5.732,0,0,1,2.783-1.739,4.453,4.453,0,0,1,3.014,0l1.623.7c.232.116.464,0,.812-.232,2.087-1.855,4.522-3.942,7.3-6.376a6.577,6.577,0,0,1,3.13-1.507,4.1,4.1,0,0,1,2.667.232c.116,0,.232.116.348.232l1.043.58a2.04,2.04,0,0,1,1.159,1.971,3.83,3.83,0,0,1-.927,1.971l-.464.464c-2.319,1.971-4.522,3.826-6.724,5.681-.232.232-.232.348,0,.464Zm-7.536,7.072c.232-.232.348-.464,0-.58l-2.435-1.043a.768.768,0,0,0-.812.232q-3.652,2.956-10.782,8.7c-.232.232-.348.464-.232.7a11.984,11.984,0,0,1,.812,2.435c.116.232.232.232.58,0A115.885,115.885,0,0,0,631.716,2457.294Zm31.767,17.622a2.234,2.234,0,0,1,1.507,1.855,3.086,3.086,0,0,1-1.043,2.551l-1.043,1.159a6.713,6.713,0,0,1-2.9,1.739,3.812,3.812,0,0,1-3.014-.116l-8-3.362a.717.717,0,0,0-.812.232l-12.058,13.449a22.87,22.87,0,0,1-4.522,4.058,10.448,10.448,0,0,1-4.638,1.507,20.733,20.733,0,0,1-7.42-1.391c-.116,0-.116-.116-.232-.116a2.8,2.8,0,0,1-1.623-1.623,3.592,3.592,0,0,1,.464-2.782,15.48,15.48,0,0,0,.812-2.087,2.079,2.079,0,0,1,.58-.812,5.141,5.141,0,0,1,1.275-.927,3.007,3.007,0,0,1,2.435-.116h0c.812.348,1.391.58,1.855.811s.812.348,1.043.464a2.3,2.3,0,0,0,1.159.232,1.775,1.775,0,0,0,.812-.58l11.942-13.333c.232-.232.232-.464-.116-.58l-7.3-3.13a2.273,2.273,0,0,1-1.507-1.855,3.345,3.345,0,0,1,.927-2.551l1.043-1.159a6.1,6.1,0,0,1,2.9-1.739,4.453,4.453,0,0,1,3.014,0l7.3,3.13a.768.768,0,0,0,.812-.232l2.9-3.246a3.9,3.9,0,0,1,1.855-1.159,2.861,2.861,0,0,1,1.971,0,.526.526,0,0,0,.58,0,71.6,71.6,0,0,0,8.232-3.478c.116,0,.116-.116.232-.232,0-.116,0-.116-.116-.232l-11.942-4.986a2.233,2.233,0,0,1-1.507-1.855,3.086,3.086,0,0,1,1.043-2.551l.812-.927a6.714,6.714,0,0,1,2.9-1.739,3.811,3.811,0,0,1,3.014.116l17.159,7.188c.116.116.232.116.464.116a2.187,2.187,0,0,1,.927.232,1.935,1.935,0,0,1,1.275,1.391l.58,1.623a3.023,3.023,0,0,1-.58,2.551,2.533,2.533,0,0,1-.464.58,6.187,6.187,0,0,1-2.2,1.507c-6.492,2.782-12.173,4.869-16.927,6.377a1.868,1.868,0,0,0-.812.464l-1.275,1.391c-.232.232-.232.464.116.58Z" transform="translate(-538.473 -2414.508)" fill="#d75562" stroke="#030000" stroke-miterlimit="10" stroke-width="1"/>
      <path id="Path_7134" data-name="Path 7134" d="M666.449,2492.433a6.1,6.1,0,0,1-2.9,1.739,4.453,4.453,0,0,1-3.014,0l-4.753-1.971c-.232-.116-.464,0-.7.232l-.7.812a5.731,5.731,0,0,1-2.783,1.739,4.47,4.47,0,0,1-3.014,0,1.985,1.985,0,0,1-1.391-1.855,3.108,3.108,0,0,1,.927-2.435l25.506-28.521a6.713,6.713,0,0,1,2.9-1.739,3.813,3.813,0,0,1,3.014.116l8.232,3.478a2.273,2.273,0,0,1,1.507,1.855,3.345,3.345,0,0,1-.927,2.551Zm33.97,17.854a5.73,5.73,0,0,1-2.783,1.739,4.453,4.453,0,0,1-3.014,0l-8.463-3.594h-.348c-.116,0-.116.116-.116.232q0,4.869,4.869,8.7a1.276,1.276,0,0,1,.348,1.739,2.432,2.432,0,0,1-.464.7,6.064,6.064,0,0,1-1.275.927c-.58.232-1.159.464-1.855.812a7.769,7.769,0,0,1-3.594.812,9.025,9.025,0,0,1-1.855-.232,2.527,2.527,0,0,1-.927-.58,13.462,13.462,0,0,1-4.058-11.826c0-.116,0-.232-.116-.232h-.348q-8,3.478-19.477,2.087a3.7,3.7,0,0,1-1.043-.348,2.537,2.537,0,0,1-1.159-1.043,3.2,3.2,0,0,1-.348-2.551c.116-.348.116-.812.232-1.159a2.406,2.406,0,0,1,.7-1.159c.232-.232.58-.464.812-.7a3.2,3.2,0,0,1,2.435-.58c5.8.927,10.666.7,14.492-.58a.249.249,0,0,0,.232-.232c0-.116,0-.116-.116-.232l-8-3.362a2.233,2.233,0,0,1-1.507-1.855,3.086,3.086,0,0,1,1.043-2.551l.116-.116a5.731,5.731,0,0,1,2.783-1.739,4.453,4.453,0,0,1,3.014,0l10.434,4.406c.232.116.464,0,.7-.232.58-.464,1.275-1.159,2.2-1.971a.991.991,0,0,1,.7-.348c.348,0,.58-.116.7,0h.232l2.319-2.667c.116-.116.116-.116,0-.232,0-.116-.116-.116-.232,0-.58.116-1.159.348-1.855.464a5.175,5.175,0,0,1-2.667,0,.4.4,0,0,1-.232-.116,2.309,2.309,0,0,1-1.275-2.087v-.348c0-.116,0-.116-.116-.116s-.232,0-.232.116l-.7.812a6.713,6.713,0,0,1-2.9,1.739,3.812,3.812,0,0,1-3.014-.116l-.232-.116a2.273,2.273,0,0,1-1.507-1.855,3.345,3.345,0,0,1,.927-2.551l17.623-19.709a6.712,6.712,0,0,1,2.9-1.739,3.812,3.812,0,0,1,3.014.116l7.072,3.015a.768.768,0,0,0,.812-.232c.464-.348.927-.7,1.507-1.159a6.574,6.574,0,0,1,3.13-1.507,4.583,4.583,0,0,1,2.551.116c.116,0,.232.116.348.232l2.2,1.276a1.513,1.513,0,0,1,.812,1.855,2.407,2.407,0,0,1-.7,1.159,2.525,2.525,0,0,1-1.044.812c-.348.232-.58.348-.927.58-.116,0-.116.116-.232.232,0,.116,0,.232.116.232l8.811,3.71a2.234,2.234,0,0,1,1.507,1.855,3.086,3.086,0,0,1-1.043,2.551l-17.391,19.478a6.711,6.711,0,0,1-2.9,1.739,3.812,3.812,0,0,1-3.014-.116l-.464-.232a2.273,2.273,0,0,1-1.507-1.855,3.345,3.345,0,0,1,.927-2.551l15.072-16.927c.232-.232.232-.464,0-.464l-2.2-.928h-.116a.114.114,0,0,0-.116.116,1.5,1.5,0,0,1-.58,1.391,2.13,2.13,0,0,1-1.739.58c-1.159-.116-2.319-.348-3.478-.58a.678.678,0,0,0-.812.348l-3.478,3.942c-.232.232-.232.464,0,.58l1.159.464.116-.116a1.348,1.348,0,0,1-.232-1.159,2.193,2.193,0,0,1,.927-1.159,10.677,10.677,0,0,1,.927-.58,5.555,5.555,0,0,1,2.319-.812,4.346,4.346,0,0,1,1.275.116,2.533,2.533,0,0,1,.58.348,1.2,1.2,0,0,1,.116,1.507,2.971,2.971,0,0,1-1.507,1.391c-.464.232-1.159.58-2.319,1.043-.232.116-.232.232-.116.232a1.3,1.3,0,0,1,.812.927,1.7,1.7,0,0,1-.464,1.391l-.464.464a3.133,3.133,0,0,1-1.971,1.159,3.2,3.2,0,0,1-2.087,0l-1.507-.58h-.232c-.116.116-.116.116,0,.232.232.7.58,1.391.927,2.319a2.119,2.119,0,0,1-.348,1.971c-.116.116-.232.348-.348.464a8.238,8.238,0,0,1-1.623,1.159,2.932,2.932,0,0,1-2.2.116.114.114,0,0,1-.116-.116,1.377,1.377,0,0,1-.927-1.159,8.778,8.778,0,0,1-.116-1.739l-.116-.116c-.116,0-.232,0-.232.116l-2.667,2.9c-.116.116-.116.232,0,.232a.636.636,0,0,1,.464.7,1.2,1.2,0,0,1-.464.927l-1.623,1.623c-.232.232-.232.348,0,.464l10.9,4.521a2.234,2.234,0,0,1,1.507,1.855,2.453,2.453,0,0,1-.464,3.131Zm-22.144-40.694c.232-.232.232-.464-.116-.58l-1.275-.58c-.232-.116-.464,0-.7.232l-14.376,16.115c-.232.232-.232.464,0,.58l1.275.58a.768.768,0,0,0,.812-.232Zm18.55,4.29c-.232-.116-.464,0-.7.232l-12.869,14.376a.359.359,0,0,0-.116.232c0,.116.116.116.232.116a51.522,51.522,0,0,0,6.492-1.159c.116,0,.116,0,.232-.116,0-.116,0-.116-.116-.116l-1.159-.464a1.671,1.671,0,0,1-1.043-1.275,1.915,1.915,0,0,1,.7-1.739l.7-.812a3.449,3.449,0,0,1,1.275-.812,1.6,1.6,0,0,1,1.275.116.426.426,0,0,0,.348-.116,13.6,13.6,0,0,0,.58-1.275,2.95,2.95,0,0,1,1.275-1.391,2.64,2.64,0,0,1,1.855-.464h0v-.116a1.325,1.325,0,0,1-.927-.812,1.913,1.913,0,0,1,0-1.391l.116-.116a1.559,1.559,0,0,1,1.044-1.043,2.317,2.317,0,0,1,1.507-.232c2.667.7,4.869,1.276,6.724,1.623h0Zm-1.971,9.623h-.116v.116l.812.348a.51.51,0,0,0,.58-.116c.116-.232.116-.232-.116-.348Zm1.855-.58h0c0,.116.116.116,0,0l2.319-2.435c.232-.232.116-.348-.116-.464l-.58-.232a.423.423,0,0,0-.58.232A26.74,26.74,0,0,1,696.708,2482.926Z" transform="translate(-529.962 -2410.924)" fill="#d75562" stroke="#030000" stroke-miterlimit="10" stroke-width="1"/>
    </g>
    <g id="Group_644" data-name="Group 644" transform="translate(71.364 123.796)">
      <path id="Path_7135" data-name="Path 7135" d="M476.069,2480.189c-.116-.116-.348,0-.464.116l-2.9,3.13a.217.217,0,0,0,0,.348l9.739,4.174a1.087,1.087,0,0,1,.7.927,1.837,1.837,0,0,1-.58,1.391,2.99,2.99,0,0,1-1.507.927,1.977,1.977,0,0,1-1.623,0L455.9,2481.116a1.114,1.114,0,0,1-.7-1.043,1.836,1.836,0,0,1,.58-1.391,2.991,2.991,0,0,1,1.507-.928,2.584,2.584,0,0,1,1.623,0l9.391,4.058c.116.116.232,0,.464-.116l2.9-3.13a.217.217,0,0,0,0-.348l-6.84-3.014c-.464-.232-.7-.464-.7-.927a1.477,1.477,0,0,1,.58-1.275,3.331,3.331,0,0,1,1.507-.928,3.819,3.819,0,0,1,1.623,0l6.84,3.015c.116.116.232,0,.464-.116l2.782-3.13a.217.217,0,0,0,0-.348l-5.1-2.2a1.238,1.238,0,0,1-.812-1.043,2.078,2.078,0,0,1,.58-1.507l.464-.464v-.116h-.116l-2.783.348a3.573,3.573,0,0,1-1.159-.116c-.116-.116-.232-.116-.464-.232a1.287,1.287,0,0,1-.464-1.275v-.232a2.083,2.083,0,0,1,.464-1.043l.232-.232a2.289,2.289,0,0,1,1.623-.7,57.01,57.01,0,0,0,9.391-1.623,71.885,71.885,0,0,0,8.811-2.782,5.313,5.313,0,0,1,4.174-.232l.232.116a2.432,2.432,0,0,1,1.623,2.667,24.016,24.016,0,0,0,.58,7.073,19.47,19.47,0,0,0,2.435,6.145,1.287,1.287,0,0,1-.116,1.275c-.116.116-.232.232-.232.348a1.689,1.689,0,0,1-1.043.7l-.7.348a3.57,3.57,0,0,1-1.855.232c-.232,0-.348-.116-.464-.116a1.045,1.045,0,0,1-.7-.7l-.7-1.739h-.116c-.116,0-.116,0-.116.116l-.348.464a4.861,4.861,0,0,1-1.623,1.043,2.24,2.24,0,0,1-1.739,0l-5.333-2.319c-.116-.116-.348,0-.464.116l-2.782,3.13a.217.217,0,0,0,0,.348l6.956,3.015c.464.232.7.464.7.927a1.477,1.477,0,0,1-.58,1.275,3.328,3.328,0,0,1-1.507.927,3.811,3.811,0,0,1-1.623,0Zm-.7-14.376h0l-.116.116,15.652,6.725h.116c.116,0,0,0,0-.116a26.924,26.924,0,0,1-1.159-10.666.114.114,0,0,0-.116-.116h-.232A67.688,67.688,0,0,1,475.373,2465.812Z" transform="translate(-455.2 -2457.722)" fill="#231815"/>
      <path id="Path_7136" data-name="Path 7136" d="M502.023,2484.241a3.232,3.232,0,0,1-.812,1.507,4.845,4.845,0,0,1-1.739,1.275,1.406,1.406,0,0,1-1.159.116H498.2a.73.73,0,0,1-.348-.927c.232-.7.464-1.507.812-2.551v-.116h-.116l-9.971,10.9a2.872,2.872,0,0,1-1.623.927,2.956,2.956,0,0,1-1.739,0,1.474,1.474,0,0,1-.812-1.043,1.837,1.837,0,0,1,.58-1.391l8.7-9.623h0a51.212,51.212,0,0,1-6.029,3.594,1.405,1.405,0,0,1-1.159.116h-.116a.73.73,0,0,1-.348-.927c0-.116,0-.116.116-.232a3.306,3.306,0,0,1,.927-1.623,5.038,5.038,0,0,1,1.971-1.391,63.194,63.194,0,0,0,11.246-7.188q.348-.174,0-.348l-1.739-.7a1.474,1.474,0,0,1-.812-1.043,1.837,1.837,0,0,1,.58-1.391,2.872,2.872,0,0,1,1.623-.927,1.962,1.962,0,0,1,1.623,0l1.971.812c.116.116.232,0,.464-.116l3.942-4.406a2.872,2.872,0,0,1,1.623-.927,2.954,2.954,0,0,1,1.739,0,1.474,1.474,0,0,1,.812,1.043,1.836,1.836,0,0,1-.58,1.391l-3.942,4.406a.218.218,0,0,0,0,.348l1.507.58a1.475,1.475,0,0,1,.812,1.043,1.836,1.836,0,0,1-.58,1.391,2.874,2.874,0,0,1-1.623.928,1.962,1.962,0,0,1-1.623,0l-1.507-.58c-.116-.116-.348,0-.464.116l-1.043,1.159a.6.6,0,0,0-.232.464A37.412,37.412,0,0,1,502.023,2484.241Zm16.231,9.043a4.866,4.866,0,0,1-1.623,1.043,2.958,2.958,0,0,1-1.739,0l-2.667-1.159h-.116a.114.114,0,0,0-.116.116,17.863,17.863,0,0,0,.464,6.608,1.667,1.667,0,0,1-.464,1.507,3,3,0,0,1-1.275.812c-.116,0-.232.116-.348.116a3.084,3.084,0,0,1-1.739.116H508.4a1.151,1.151,0,0,1-.7-.927,29.947,29.947,0,0,1,.348-6.26v-.116h-.116l-4.869,5.333a4.367,4.367,0,0,1-1.739,1.043,2.935,2.935,0,0,1-1.739,0,1.238,1.238,0,0,1-.812-1.043,2.079,2.079,0,0,1,.58-1.507l4.406-4.869v-.116h-.116a44.183,44.183,0,0,1-8.811,2.551,2.737,2.737,0,0,1-1.391-.116.4.4,0,0,1-.232-.116,1.36,1.36,0,0,1-.58-1.275v-.232a1.416,1.416,0,0,1,.464-1.043c0-.116.116-.116.232-.232a3.462,3.462,0,0,1,1.623-.7,38.126,38.126,0,0,0,10.087-2.667.114.114,0,0,0,.116-.116v-.116l-2.551-1.043a1.237,1.237,0,0,1-.812-1.043,2.079,2.079,0,0,1,.58-1.507l6.492-7.188a4.368,4.368,0,0,1,1.739-1.043,2.937,2.937,0,0,1,1.739,0l4.058,1.739c.116.116.348,0,.464-.116l1.159-1.275a.218.218,0,0,0,0-.348l-5.1-2.2c-.464-.232-.7-.464-.7-.927a1.615,1.615,0,0,1,.58-1.276,3.009,3.009,0,0,1,3.014-.927l5.1,2.2c.116.116.348,0,.464-.116l1.043-1.159a4.862,4.862,0,0,1,1.623-1.043,2.24,2.24,0,0,1,1.739,0,1.237,1.237,0,0,1,.812,1.043,2.079,2.079,0,0,1-.58,1.507l-1.043,1.159a.218.218,0,0,0,0,.348l5.1,2.2c.464.232.7.464.7.927a1.614,1.614,0,0,1-.58,1.275,4.091,4.091,0,0,1-1.507.928,2.236,2.236,0,0,1-1.507,0l-5.1-2.2c-.116-.116-.232,0-.464.116l-1.159,1.275a.218.218,0,0,0,0,.348l4.29,1.855a1.238,1.238,0,0,1,.812,1.043,2.078,2.078,0,0,1-.58,1.507Zm-10.318-7.768c-.116-.116-.232,0-.464.116l-1.043,1.159a.217.217,0,0,0,0,.348l2.2.927c.116.116.348,0,.464-.116l1.043-1.159a.217.217,0,0,0,0-.348Zm3.594-4.058c-.116-.116-.232,0-.464.116l-1.043,1.159a.218.218,0,0,0,0,.348l2.2.928c.116.116.348,0,.464-.116l1.043-1.159a.217.217,0,0,0,0-.348Zm3.71,9.391c.116.116.348,0,.464-.116l1.043-1.159a.218.218,0,0,0,0-.348l-2.435-1.043c-.116-.116-.232,0-.464.116l-1.043,1.159a.217.217,0,0,0,0,.348Zm5.1-5.217a.217.217,0,0,0,0-.348l-2.435-1.043c-.116-.116-.232,0-.464.116l-1.043,1.159a.217.217,0,0,0,0,.348l2.435,1.043c.116.116.348,0,.464-.116Z" transform="translate(-450.546 -2456.325)" fill="#231815"/>
      <path id="Path_7137" data-name="Path 7137" d="M544.955,2487.715l-.116.116a.114.114,0,0,0,.116.116l10.087,4.406a1.475,1.475,0,0,1,.812,1.043,1.837,1.837,0,0,1-.58,1.391c-4.522,4.985-9.275,9.739-14.26,14.376-2.9,2.783-4.985,4.406-6.377,4.87a6.765,6.765,0,0,1-2.319.58,7.509,7.509,0,0,1-2.2-.232,14.813,14.813,0,0,1-2.667-.928c-.116-.116-.348-.116-.464-.231a1.238,1.238,0,0,1-.812-1.043,2.2,2.2,0,0,1,.348-1.623c.116-.116.116-.232.232-.464.116-.116.116-.348.232-.463a4.879,4.879,0,0,1,.812-.58,1.68,1.68,0,0,1,1.275-.116h.116c.7.348,1.507.7,2.551,1.159a2.26,2.26,0,0,0,1.739,0c.927-.231,2.551-1.623,4.985-3.826,2.435-2.319,6.145-6.029,11.246-11.362a.217.217,0,0,0,0-.348L540.2,2490.5c-.116-.116-.348,0-.58.116a34.78,34.78,0,0,1-3.71,1.739l-.116.116v.116l6.724,2.9a1.475,1.475,0,0,1,.812,1.043,1.835,1.835,0,0,1-.58,1.391,2.989,2.989,0,0,1-1.507.928,2.584,2.584,0,0,1-1.623,0l-5.681-2.435a1.237,1.237,0,0,1-.812-1.043,2.078,2.078,0,0,1,.58-1.507l.58-.58v-.116h-.116a1.68,1.68,0,0,1-1.275.116h-.116a.954.954,0,0,1-.58-.58,21.931,21.931,0,0,0-.7-2.087.426.426,0,0,1,.116-.348c.116-.116.232-.232.348-.232h0l-1.275-.58c-.116-.116-.348,0-.464.116l-6.029,6.608v.116l.116.116a11.44,11.44,0,0,1,1.739.116,1.473,1.473,0,0,1,.7.116,1.159,1.159,0,0,1,.58.464,1.063,1.063,0,0,1-.116,1.275,1.592,1.592,0,0,1-.348.463,6.325,6.325,0,0,1-1.043.812,3.807,3.807,0,0,1-1.971.464c-2.9,0-6.145,0-9.739-.116a1.723,1.723,0,0,1-.812-.116,1.158,1.158,0,0,1-.58-.464,1.458,1.458,0,0,1,0-1.391l.232-.464a1.161,1.161,0,0,1,.464-.58,6.472,6.472,0,0,1,.927-.7,3.4,3.4,0,0,1,1.855-.463c.927.116,1.855.116,2.9.231a.6.6,0,0,0,.464-.231l7.3-8a.218.218,0,0,0,0-.348l-1.391-.58a1.475,1.475,0,0,1-.812-1.043,1.836,1.836,0,0,1,.58-1.391,3.93,3.93,0,0,1,1.623-1.043,2.244,2.244,0,0,1,1.739,0l1.391.58c.116.116.348,0,.464-.116l4.058-4.521a4.862,4.862,0,0,1,1.623-1.043,2.24,2.24,0,0,1,1.739,0,1.238,1.238,0,0,1,.812,1.043,2.079,2.079,0,0,1-.58,1.507l-4.058,4.521a.217.217,0,0,0,0,.348l1.159.464c.464.231.7.463.7.927a1.477,1.477,0,0,1-.58,1.275v.116h.116a53.515,53.515,0,0,0,9.623-5.333,3.083,3.083,0,0,1,1.855-.7,3.237,3.237,0,0,1,1.159.116c.116.116.232.116.348.232l.232.232a1.238,1.238,0,0,1,.348,1.275,3.479,3.479,0,0,1-.464.928,2.527,2.527,0,0,1-.58.463A26.322,26.322,0,0,1,544.955,2487.715Zm-7.536,14.492a1.047,1.047,0,0,1,.58.116.907.907,0,0,1,.464.464,1.066,1.066,0,0,1-.116,1.159l-.348.348a2.527,2.527,0,0,1-1.043.812,3.273,3.273,0,0,1-1.739.463c-2.783,0-6.029-.116-9.855-.231-.348,0-.58-.116-.812-.116a1.158,1.158,0,0,1-.58-.464,1.191,1.191,0,0,1-.116-1.391l.116-.232a2.428,2.428,0,0,1,.464-.7,2.083,2.083,0,0,1,.812-.58,3.4,3.4,0,0,1,1.855-.463C529.767,2501.627,533.245,2501.975,537.419,2502.207Z" transform="translate(-446.06 -2454.466)" fill="#231815"/>
      <path id="Path_7138" data-name="Path 7138" d="M546.328,2500.067a4.866,4.866,0,0,1,1.623-1.043,2.242,2.242,0,0,1,1.739,0l25.39,10.9a1.237,1.237,0,0,1,.812,1.043,2.079,2.079,0,0,1-.58,1.507l-.348.464a4.861,4.861,0,0,1-1.623,1.043,2.933,2.933,0,0,1-1.739,0l-25.39-10.9a1.238,1.238,0,0,1-.812-1.043,2.079,2.079,0,0,1,.58-1.507Z" transform="translate(-440.824 -2451.167)" fill="#231815"/>
      <path id="Path_7139" data-name="Path 7139" d="M590.59,2503.1a4.072,4.072,0,0,1,1.855-.7,3.21,3.21,0,0,1,1.043.116,1.605,1.605,0,0,1,.464.348,1.308,1.308,0,0,1,.348,1.275,1.867,1.867,0,0,1-.464.812,1.063,1.063,0,0,1-.7.464,61.946,61.946,0,0,1-5.449,3.362.907.907,0,0,0-.464.464l-17.854,19.709a4.861,4.861,0,0,1-1.623,1.043,2.24,2.24,0,0,1-1.739,0,1.237,1.237,0,0,1-.812-1.043,2.262,2.262,0,0,1,.58-1.507l12.173-13.333v-.116h-.116c-.58.232-1.043.464-1.507.7-.464.116-.812.232-1.159,0a.114.114,0,0,1-.116-.116.88.88,0,0,1-.348-1.043c.116-.232.232-.58.348-.812a8.655,8.655,0,0,1,.812-1.391c.116-.116.232-.232.348-.232a4.538,4.538,0,0,1,1.855-1.159A84.392,84.392,0,0,0,590.59,2503.1Zm4.058,30.491a4.866,4.866,0,0,1-1.623,1.043,2.242,2.242,0,0,1-1.739,0l-2.667-1.159H588.5a45.4,45.4,0,0,1,3.13,3.826c.232.348.116.7-.232,1.159a1.61,1.61,0,0,1-1.159.58h-.348a3.721,3.721,0,0,1-1.971-.232h-.116a2.422,2.422,0,0,1-1.159-.927,35.91,35.91,0,0,0-2.087-3.015.869.869,0,0,1,0-1.043l.232-.232a2.243,2.243,0,0,1,1.043-.58l.812-.232a.114.114,0,0,0,.116-.116v-.116l-5.681-2.435h-.116s-.116,0,0,.116l.116.464a1.177,1.177,0,0,1-.348,1.159,1.87,1.87,0,0,1-1.507.7,42.955,42.955,0,0,1-6.608-.232,5.019,5.019,0,0,1-.58-.116,2.428,2.428,0,0,1-.7-.464,1.66,1.66,0,0,1-.348-1.275,1,1,0,0,1,.348-.7c.116-.116.232-.232.348-.232a1.38,1.38,0,0,1,1.275-.348,42.358,42.358,0,0,0,6.377.464h.116l-2.435-1.043a1.237,1.237,0,0,1-.812-1.043,2.079,2.079,0,0,1,.58-1.507l7.188-7.884a4.368,4.368,0,0,1,1.739-1.043,2.937,2.937,0,0,1,1.739,0l14.26,6.145a1.238,1.238,0,0,1,.812,1.043,2.078,2.078,0,0,1-.58,1.507Zm-12.753-7.536c-.116-.116-.348,0-.464.116l-.58.7a.218.218,0,0,0,0,.348l10.318,4.406c.116.116.232,0,.464-.116l.58-.7a.218.218,0,0,0,0-.348Zm2.783-3.13c-.116-.116-.348,0-.464.116l-.58.7a.218.218,0,0,0,0,.348l10.318,4.406c.116.116.232,0,.464-.116l.58-.7a.218.218,0,0,0,0-.348Zm2.783-3.015c-.116-.116-.348,0-.464.116l-.58.7a.218.218,0,0,0,0,.348l10.318,4.406c.116.116.232,0,.464-.116l.58-.7a.218.218,0,0,0,0-.348Zm26.9-6.608a1.873,1.873,0,0,1-.464,1.159,3.449,3.449,0,0,1-1.275.812,2.37,2.37,0,0,1-1.275,0l-4.753-2.087c-.116-.116-.348,0-.464.116l-.812.928a.217.217,0,0,0,0,.348l3.362,1.391a1.237,1.237,0,0,1,.812,1.043,2.261,2.261,0,0,1-.58,1.507l-2.551,2.782a4.862,4.862,0,0,1-1.623,1.043,2.24,2.24,0,0,1-1.739,0l-14.956-6.493a1.237,1.237,0,0,1-.812-1.043,2.079,2.079,0,0,1,.58-1.507l2.551-2.782a4.368,4.368,0,0,1,1.739-1.043,2.935,2.935,0,0,1,1.739,0l3.13,1.391c.116.116.232,0,.464-.116l.812-.927a.218.218,0,0,0,0-.348l-4.174-1.739a.872.872,0,0,1-.58-.812,1.416,1.416,0,0,1,.464-1.043,3.452,3.452,0,0,1,1.275-.812,2.37,2.37,0,0,1,1.275,0l17.507,7.536A1.885,1.885,0,0,1,614.358,2513.3Zm-20.985-1.043c-.116-.116-.232,0-.464.116l-1.507,1.623a.218.218,0,0,0,0,.348l1.507.58c.116.116.232,0,.464-.116l1.507-1.623a.218.218,0,0,0,0-.348Zm4.985,2.087c-.116-.116-.348,0-.464.116l-1.507,1.623a.218.218,0,0,0,0,.348l1.623.7c.116.116.348,0,.464-.116l1.507-1.623a.217.217,0,0,0,0-.348Zm3.478-1.507c.116.116.348,0,.464-.116l.812-.928a.217.217,0,0,0,0-.348l-1.623-.7c-.116-.116-.348,0-.464.116l-.812.927a.218.218,0,0,0,0,.348Zm3.13,4.637a.218.218,0,0,0,0-.348l-1.507-.7c-.116-.116-.348,0-.464.116l-1.507,1.623a.218.218,0,0,0,0,.348l1.507.7c.116.116.348,0,.464-.116Z" transform="translate(-437.669 -2450.601)" fill="#231815"/>
      <path id="Path_7140" data-name="Path 7140" d="M619.75,2547.5l2.667,1.159a1.269,1.269,0,0,0,1.275-.116,8.271,8.271,0,0,0,2.087-1.855,1.92,1.92,0,0,1,1.391-.58,1.467,1.467,0,0,1,.7.116c.116.116.348.232.464.348a.114.114,0,0,1,.116.116,1.758,1.758,0,0,1,.348,1.507,3.485,3.485,0,0,1-.7,1.275c-.116.116-.232.232-.232.348a12.214,12.214,0,0,1-4.406,2.9,5.882,5.882,0,0,1-3.71-.232l-3.594-1.623c-1.739-.7-2.667-1.623-2.551-2.435,0-.927.812-2.2,2.435-4.058l6.608-7.188a.218.218,0,0,0,0-.348l-4.174-1.739c-.116-.116-.348,0-.464.116-1.159,1.043-2.2,1.855-3.13,2.667a22.689,22.689,0,0,1-3.246,2.2,26.514,26.514,0,0,1-3.594,1.855,31.848,31.848,0,0,1-3.942,1.159,20.3,20.3,0,0,1-4.638.464,2.255,2.255,0,0,1-.927-.116c-.232-.116-.348-.232-.58-.348a1.445,1.445,0,0,1-.348-1.391v-.464a1.173,1.173,0,0,1,.464-.812l.348-.348a1.825,1.825,0,0,1,1.507-.464,17.73,17.73,0,0,0,4.406-.464,15.472,15.472,0,0,0,3.71-1.275,14.873,14.873,0,0,0,3.014-1.855c.927-.7,1.855-1.391,2.9-2.319.116-.116.232-.232,0-.348l-5.449-2.319a1.237,1.237,0,0,1-.812-1.043,2.079,2.079,0,0,1,.58-1.507,4.862,4.862,0,0,1,1.623-1.043,2.933,2.933,0,0,1,1.739,0l10.087,4.29c.116.116.348,0,.464-.116l4.174-4.521a.218.218,0,0,0,0-.348l-4.985-2.087c-.116-.116-.348,0-.58.116-1.275.7-2.435,1.391-3.594,1.971a2.688,2.688,0,0,1-1.855.348.6.6,0,0,1-.464-.232,2.082,2.082,0,0,1-.812-.58h0a1.063,1.063,0,0,1,.116-1.275c.116-.116.232-.348.348-.464a6.454,6.454,0,0,1,.927-.7,58.97,58.97,0,0,0,8.811-5.449,2.843,2.843,0,0,1,1.855-.7,2.3,2.3,0,0,1,1.275.116c.116,0,.232.116.348.232l.232.232a1.288,1.288,0,0,1,.464,1.276,3.472,3.472,0,0,1-.464.927,2.521,2.521,0,0,1-.58.464c-.464.348-.812.58-1.275.927l-.116.116c0,.116,0,.116.116.116l3.594,1.507c.116.116.348,0,.464-.116l1.971-2.087a4.861,4.861,0,0,1,1.623-1.043,2.933,2.933,0,0,1,1.739,0l.116.116a1.237,1.237,0,0,1,.812,1.043,2.079,2.079,0,0,1-.58,1.507l-1.971,2.087a.218.218,0,0,0,0,.348l7.652,3.246a1.237,1.237,0,0,1,.812,1.043,2.261,2.261,0,0,1-.58,1.507,4.866,4.866,0,0,1-1.623,1.043,2.242,2.242,0,0,1-1.739,0l-7.652-3.246c-.116-.116-.348,0-.464.116l-4.174,4.521a.218.218,0,0,0,0,.348l10.087,4.29a1.238,1.238,0,0,1,.812,1.043,2.078,2.078,0,0,1-.58,1.507,4.866,4.866,0,0,1-1.623,1.043,2.937,2.937,0,0,1-1.739,0l-6.145-2.667c-.116-.116-.348,0-.464.116l-6.608,7.188q-.7.7-.7,1.043C619.054,2547.039,619.286,2547.271,619.75,2547.5Z" transform="translate(-432.511 -2448.169)" fill="#231815"/>
      <path id="Path_7141" data-name="Path 7141" d="M663.361,2533.953a5.264,5.264,0,0,1,3.942-.231,2.791,2.791,0,0,1,1.739,2.435,16.173,16.173,0,0,0,1.971,7.188,1.251,1.251,0,0,1,0,1.275,1.6,1.6,0,0,1-.348.464,6.465,6.465,0,0,1-.927.7.426.426,0,0,1-.348.116,2.8,2.8,0,0,1-1.855.348c-.232,0-.348-.116-.58-.116a1.188,1.188,0,0,1-.7-.58,9.231,9.231,0,0,1-.812-2.319h-.232a2.4,2.4,0,0,1-1.159.7,1.961,1.961,0,0,1-1.159,0l-6.724-2.9a.771.771,0,0,1-.464-.58,1.252,1.252,0,0,1,.348-.812h0c-1.391.232-2.667.463-3.942.58a2.255,2.255,0,0,1-.927-.116c-.116-.116-.232-.116-.348-.348-.348-.348-.348-.7-.232-1.275v-.116h-.116a2.421,2.421,0,0,1-.7.464.74.74,0,0,1-.7,0l-1.623-.7c-.116-.116-.232,0-.464.116l-3.71,4.058a.114.114,0,0,1-.116.116l.116.116,1.043.116c.116,0,.232.116.464.116a.77.77,0,0,1,.464.58,1.353,1.353,0,0,1-.232,1.275l-.232.232a4.167,4.167,0,0,1-1.159.812,2.389,2.389,0,0,1-1.739.348c-.348,0-.927-.116-1.623-.116-.232,0-.348,0-.464.232l-6.608,7.3a10.777,10.777,0,0,1-2.2,1.971,5.078,5.078,0,0,1-2.2.812,8.336,8.336,0,0,1-3.478-.58h-.116a1.55,1.55,0,0,1-.812-.928,2.2,2.2,0,0,1,.348-1.623v-.116a1.557,1.557,0,0,1,.7-.812,4.107,4.107,0,0,1,1.043-.464,1.232,1.232,0,0,1,.927.116c.58.232.927.348,1.159.464a1.047,1.047,0,0,0,.58.116.621.621,0,0,0,.464-.348l5.681-6.261v-.116c0-.116,0-.116-.116-.116l-1.623-.232a5.009,5.009,0,0,1-.58-.116,1.4,1.4,0,0,1-.58-.58,1.492,1.492,0,0,1,.116-1.391l.232-.232c.116-.116.116-.231.348-.463a4.157,4.157,0,0,1,1.159-.812,5.765,5.765,0,0,1,1.855-.348c.464.116,1.275.232,2.551.464.232,0,.348,0,.464-.232l4.522-4.869a.218.218,0,0,0,0-.348l-1.739-.812a1.474,1.474,0,0,1-.812-1.043,1.837,1.837,0,0,1,.58-1.392,2.874,2.874,0,0,1,1.623-.927,2.56,2.56,0,0,1,1.623,0l1.739.812c.116.116.348,0,.464-.116l3.594-3.942a3.929,3.929,0,0,1,1.623-1.043,2.24,2.24,0,0,1,1.739,0,1.237,1.237,0,0,1,.812,1.043,2.261,2.261,0,0,1-.58,1.507l-3.594,3.942a.217.217,0,0,0,0,.348l1.623.7c.232.116.232.232.232.464s-.116.348-.232.58v.116a51.629,51.629,0,0,0,5.681-.812C659.767,2535.112,661.622,2534.648,663.361,2533.953Zm-4.058,20.637a4.862,4.862,0,0,1-1.623,1.043,2.24,2.24,0,0,1-1.739,0l-10.2-4.406c-.116-.116-.348,0-.464.116a4.342,4.342,0,0,1-.927.7.217.217,0,0,0,0,.348l10.782,4.638a1.237,1.237,0,0,1,.812,1.043,2.078,2.078,0,0,1-.58,1.507l-4.174,4.638a3.328,3.328,0,0,1-1.507.927,2.581,2.581,0,0,1-1.623,0l-.927-.463c-.232-.116-.348-.232-.348-.464s.116-.348.232-.58v-.116l-6.724-2.9c-.116,0-.116,0-.232.116a2.421,2.421,0,0,1-.7.464q-.522.174-.7,0l-.812-.348c-.464-.231-.7-.463-.7-.927a1.477,1.477,0,0,1,.58-1.275l3.594-3.942h-.116a30.42,30.42,0,0,1-5.681,3.13,2.664,2.664,0,0,1-1.623.116,1.086,1.086,0,0,1-.7-.927,1.7,1.7,0,0,1,.464-1.391l.232-.232a5.142,5.142,0,0,1,1.275-.928,25.157,25.157,0,0,0,5.913-3.594,52.421,52.421,0,0,0,5.217-4.985l3.13-3.362a4.863,4.863,0,0,1,1.623-1.043,2.24,2.24,0,0,1,1.739,0l11.71,4.985a1.238,1.238,0,0,1,.812,1.043,2.08,2.08,0,0,1-.58,1.507Zm-8.232,4.522a.218.218,0,0,0,0-.348l-6.377-2.782c-.116-.116-.348,0-.464.116l-1.507,1.623a.217.217,0,0,0,0,.348l6.377,2.782c.116.116.232,0,.464-.116Zm-3.014-10.551a.218.218,0,0,0,0,.348l8.116,3.478c.116.116.348,0,.464-.116l.812-.812a.217.217,0,0,0,0-.348l-8-3.478c-.116-.116-.348,0-.464.116a1.6,1.6,0,0,0-.348.464C648.289,2548.329,648.173,2548.561,648.057,2548.561Zm12.173-.231a.218.218,0,0,0,0-.348l-8-3.478c-.116-.116-.348,0-.464.116l-.7.7a.217.217,0,0,0,0,.348l8,3.478c.116.116.348,0,.464-.116Zm-.812-9.739h0c-.116.116-.116.116-.116.232l5.217,2.2h.116l.116-.116a20.571,20.571,0,0,1-.232-3.71c0-.116-.116-.232-.232-.116A34.814,34.814,0,0,1,659.419,2538.59Z" transform="translate(-428.24 -2446.561)" fill="#231815"/>
      <path id="Path_7142" data-name="Path 7142" d="M674.25,2571l2.667,1.159a1.269,1.269,0,0,0,1.275-.116,8.272,8.272,0,0,0,2.087-1.855,1.92,1.92,0,0,1,1.391-.58,1.467,1.467,0,0,1,.7.116c.116.116.348.232.464.348a.114.114,0,0,1,.116.116,1.758,1.758,0,0,1,.348,1.507,3.486,3.486,0,0,1-.7,1.275c-.116.116-.232.232-.232.348a12.214,12.214,0,0,1-4.406,2.9,5.884,5.884,0,0,1-3.71-.232l-3.594-1.623c-1.739-.7-2.667-1.623-2.551-2.435,0-.927.812-2.2,2.435-4.058l6.608-7.188a.218.218,0,0,0,0-.348l-4.174-1.739c-.116-.116-.348,0-.464.116-1.159,1.043-2.2,1.855-3.13,2.667a22.712,22.712,0,0,1-3.246,2.2,26.515,26.515,0,0,1-3.594,1.855,31.844,31.844,0,0,1-3.942,1.159,20.3,20.3,0,0,1-4.638.464,2.26,2.26,0,0,1-.927-.116,2.524,2.524,0,0,1-.58-.348,1.445,1.445,0,0,1-.348-1.391v-.464a1.173,1.173,0,0,1,.464-.812l.348-.348a1.825,1.825,0,0,1,1.507-.464,17.729,17.729,0,0,0,4.406-.464,15.47,15.47,0,0,0,3.71-1.275,14.871,14.871,0,0,0,3.014-1.855c.927-.7,1.855-1.391,2.9-2.319.116-.116.232-.232,0-.348L663,2554.54a1.237,1.237,0,0,1-.812-1.043,2.079,2.079,0,0,1,.58-1.507,4.863,4.863,0,0,1,1.623-1.043,2.933,2.933,0,0,1,1.739,0l10.087,4.29c.116.116.348,0,.464-.116l4.174-4.521a.218.218,0,0,0,0-.348l-4.985-2.087c-.116-.116-.348,0-.58.116-1.275.7-2.435,1.391-3.594,1.971a2.688,2.688,0,0,1-1.855.348.6.6,0,0,1-.464-.232,2.081,2.081,0,0,1-.812-.58h0a1.063,1.063,0,0,1,.116-1.275c.116-.116.232-.348.348-.464a6.433,6.433,0,0,1,.927-.7,50.735,50.735,0,0,0,8.811-5.449,2.844,2.844,0,0,1,1.855-.7,2.3,2.3,0,0,1,1.275.116c.116,0,.232.116.348.232l.232.232a1.288,1.288,0,0,1,.464,1.275,3.474,3.474,0,0,1-.464.928,2.521,2.521,0,0,1-.58.464c-.464.348-.812.58-1.275.927l-.116.116c0,.116,0,.116.116.116l3.594,1.507c.116.116.348,0,.464-.116l1.971-2.087a4.863,4.863,0,0,1,1.623-1.043,2.933,2.933,0,0,1,1.739,0l.116.116a1.237,1.237,0,0,1,.812,1.043,2.261,2.261,0,0,1-.58,1.507l-1.971,2.087a.218.218,0,0,0,0,.348l7.652,3.246a1.237,1.237,0,0,1,.812,1.043,2.262,2.262,0,0,1-.58,1.507,3.555,3.555,0,0,1-1.623,1.043,2.24,2.24,0,0,1-1.739,0l-7.652-3.246c-.116-.116-.348,0-.464.116l-4.174,4.521a.218.218,0,0,0,0,.348l10.087,4.29a1.238,1.238,0,0,1,.812,1.043,2.078,2.078,0,0,1-.58,1.507,4.863,4.863,0,0,1-1.623,1.043,2.937,2.937,0,0,1-1.739,0l-6.145-2.667c-.116-.116-.348,0-.464.116l-6.608,7.188q-.7.7-.7,1.043C673.439,2570.539,673.786,2570.771,674.25,2571Z" transform="translate(-423.825 -2444.424)" fill="#231815"/>
      <path id="Path_7143" data-name="Path 7143" d="M705.784,2586.558l.348.116h.232a.426.426,0,0,0,.348-.116,6.792,6.792,0,0,1,.7-.464,12.86,12.86,0,0,0,1.275-1.276,1,1,0,0,1,.7-.348.886.886,0,0,1,.58.232,1.424,1.424,0,0,1-.232,1.739c-.812.812-1.507,1.507-2.087,1.971a3.941,3.941,0,0,1-1.739.812,2.665,2.665,0,0,1-1.623-.232l-1.159-.464c-.7-.348-1.043-.7-1.043-1.275a2.592,2.592,0,0,1,.348-1.159,9.91,9.91,0,0,1,1.739-2.087l1.855-2.087c.116-.116,0-.116-.116-.116a1.47,1.47,0,0,1-.7-.116c-.232-.116-.232-.348-.232-.58a3.309,3.309,0,0,0,0-1.507.114.114,0,0,0-.116-.116c-.116,0-.116,0-.116.116a25.388,25.388,0,0,1-6.608,5.1,2.378,2.378,0,0,1-1.739.232c-.116,0-.116,0-.232-.116a1.3,1.3,0,0,1-.812-.927.877.877,0,0,0-.232-.464c0-.116-.116-.116-.232-.116-.348,0-.58,0-.7-.116a.886.886,0,0,1-.232-.58c0-.348.116-.58.116-.928a2.082,2.082,0,0,1,.464-1.043c0-.116.116-.116.232-.232a3.593,3.593,0,0,1,1.507-.7h0v-.116l-3.246-1.391h-.116v.116l.116.116a1.063,1.063,0,0,1-.116,1.275c0,.116-.116.232-.232.348a2.406,2.406,0,0,1-1.159.7,10.829,10.829,0,0,1-1.855.464,2.836,2.836,0,0,1-1.739-.116h0a1.645,1.645,0,0,1-.927-1.043c0-.116-.116-.116-.348-.116a3.423,3.423,0,0,1-1.159.232,6.876,6.876,0,0,1-2.435-.464h-.116a1.046,1.046,0,0,1-.7-.7,1.505,1.505,0,0,1,.232-1.159,1.226,1.226,0,0,1,.812-.7,1.109,1.109,0,0,1,1.043,0,2.777,2.777,0,0,1,.812.348c.232,0,.348.116.348,0,.116,0,.232-.116.348-.232l1.855-1.971a.218.218,0,0,0,0-.348l-1.971-.812c-.116-.116-.348,0-.464.116a28.668,28.668,0,0,1-4.869,3.13,1.679,1.679,0,0,1-1.275.116h-.232c-.348-.116-.464-.348-.58-.7a1.182,1.182,0,0,1,.232-1.043c.116-.116.116-.232.232-.232a2.527,2.527,0,0,1,.927-.58,25.571,25.571,0,0,0,7.536-6.029l3.014-3.246a4.368,4.368,0,0,1,1.739-1.043,2.937,2.937,0,0,1,1.739,0l3.826,1.623a1.238,1.238,0,0,1,.812,1.043,2.078,2.078,0,0,1-.58,1.507l-8.811,9.739-.58.58v.116h.116a17.355,17.355,0,0,0,3.942-1.275c.116,0,.116-.116,0-.116a.771.771,0,0,1-.464-.58,1.252,1.252,0,0,1,.348-.812l6.608-7.188a4.866,4.866,0,0,1,1.623-1.043,2.935,2.935,0,0,1,1.739,0l3.71,1.623a1.237,1.237,0,0,1,.812,1.043,2.079,2.079,0,0,1-.58,1.507l-6.492,7.072a2.737,2.737,0,0,1-1.043.7,1.965,1.965,0,0,1-1.159,0h-.116v1.855c0,.116.116.232.232.116a20.792,20.792,0,0,0,5.8-4.869l3.826-4.174a4.368,4.368,0,0,1,1.739-1.043,2.937,2.937,0,0,1,1.739,0l3.942,1.739a1.237,1.237,0,0,1,.812,1.043,2.079,2.079,0,0,1-.58,1.507l-8,8.811c-.7.7-.927,1.043-.927,1.159C705.552,2586.441,705.552,2586.558,705.784,2586.558Zm-17.854-14.608a.218.218,0,0,0,0,.348l1.623.7c.116.116.348,0,.464-.116l.812-.928a.218.218,0,0,0,0-.348l-1.623-.7c-.116-.116-.348,0-.464.116l-.464.464A1.592,1.592,0,0,1,687.929,2571.949Zm6.029-3.478a.218.218,0,0,0,0-.348l-1.623-.7c-.116-.116-.348,0-.464.116l-.812.927a.218.218,0,0,0,0,.348l1.623.7c.116.116.348,0,.464-.116Zm3.246,9.275c.116.116.348,0,.464-.116l.464-.58a.218.218,0,0,0,0-.348l-1.855-.812c-.116-.116-.348,0-.464.116l-.464.58a.217.217,0,0,0,0,.348Zm-.927-12.985a1.238,1.238,0,0,1-.812-1.043,2.078,2.078,0,0,1,.58-1.507l1.391-1.623a4.867,4.867,0,0,1,1.623-1.043,2.257,2.257,0,0,1,1.739,0l17.623,7.536a1.237,1.237,0,0,1,.812,1.043,2.079,2.079,0,0,1-.58,1.507l-1.391,1.623a4.862,4.862,0,0,1-1.623,1.043,2.935,2.935,0,0,1-1.739,0Zm3.478,10.318c.116.116.348,0,.464-.116l.464-.58a.218.218,0,0,0,0-.348l-1.855-.812c-.116-.116-.348,0-.464.116l-.464.58a.218.218,0,0,0,0,.348Zm1.159-12.637c-.116-.116-.232,0-.464.116l-.58.58a.218.218,0,0,0,0,.348l13.913,6.029c.116.116.232,0,.464-.116l.58-.58a.218.218,0,0,0,0-.348Zm15.883,2.667-12.985-5.565c-2.087-.927-3.246-1.739-3.594-2.667-.232-.812.116-1.855,1.275-3.246l.464-.464a4.866,4.866,0,0,1,1.623-1.043,2.242,2.242,0,0,1,1.739,0l8.348,3.594a.426.426,0,0,0,.348-.116,3,3,0,0,1,1.275-.812,2.825,2.825,0,0,1,1.391,0l.927.464a.872.872,0,0,1,.58.812,1.874,1.874,0,0,1-.464,1.159c-.116.116-.116.232,0,.232l10.087,4.406a.735.735,0,0,1,.58.7,1.415,1.415,0,0,1-.464,1.043,2.406,2.406,0,0,1-1.159.7,1.965,1.965,0,0,1-1.159,0l-20.869-8.927a.222.222,0,0,0-.348.116.908.908,0,0,0-.116.927,4.857,4.857,0,0,0,1.507.927l12.289,5.333a54.255,54.255,0,0,0,5.565,2.087,1.046,1.046,0,0,1,.7.7.9.9,0,0,1-.232.927,2.522,2.522,0,0,1-1.043.812,1.4,1.4,0,0,1-1.159.116C720.74,2566.848,719.116,2566.152,716.8,2565.109Zm-14.608,7.3c.116.116.348,0,.464-.116l.464-.464a.218.218,0,0,0,0-.348l-1.855-.812c-.116-.116-.348,0-.464.116l-.464.464a.218.218,0,0,0,0,.348Zm4.637,4.869h0a1.715,1.715,0,0,1,.812.116c.232.116.348.232.348.464,0,.348.116.7.116,1.275a.114.114,0,0,0,.116.116c.116,0,.116,0,.116-.116l2.783-3.015a.217.217,0,0,0,0-.348l-1.855-.812c-.116-.116-.348,0-.464.116Z" transform="translate(-419.65 -2442.704)" fill="#231815"/>
    </g>
  </g>
</svg>
