<svg xmlns="http://www.w3.org/2000/svg" width="522.254" height="540.073" viewBox="0 0 522.254 540.073">
  <g id="feature5" transform="translate(0.54 0.513)">
    <path id="Path_7187" data-name="Path 7187" d="M973.5,2536.1a3.382,3.382,0,0,1,4.638-.927,3.3,3.3,0,0,1,.58,4.637,3.263,3.263,0,0,1-4.522.927,3.1,3.1,0,0,1-.7-4.637" transform="translate(-840.109 -2321.671)" fill="#ef8619" stroke="#030000" stroke-miterlimit="10" stroke-width="1"/>
    <path id="Path_7188" data-name="Path 7188" d="M980.543,2557.675s-4.174-12.521-3.478-22.724c.58-8-15.188-12.869-16.347,1.739-.812,10.435,2.435,24.579,5.913,31.419" transform="translate(-842.051 -2322.836)" fill="#ef8619" stroke="#030000" stroke-miterlimit="10" stroke-width="1"/>
    <path id="Path_7189" data-name="Path 7189" d="M1036.353,2749.2v47.3a14.473,14.473,0,0,1-14.376,14.492h0A14.473,14.473,0,0,1,1007.6,2796.5v-47.3" transform="translate(-834.559 -2287.471)" fill="#ef8619" stroke="#030000" stroke-miterlimit="10" stroke-width="1"/>
    <path id="Path_7190" data-name="Path 7190" d="M961.32,2582.6c-45.911,67.823-28.4,159.878,39.071,205.441s159.3,27.593,205.21-40.23,28.289-159.878-39.071-205.442c-67.476-45.679-159.3-27.593-205.21,40.23" transform="translate(-846.016 -2324.456)" fill="#ef8619" stroke="#030000" stroke-miterlimit="10" stroke-width="1"/>
    <path id="Path_7191" data-name="Path 7191" d="M1151.661,2612.678a3.353,3.353,0,0,0-3.13-3.478,3.28,3.28,0,0,0-3.13,3.478,3.353,3.353,0,0,0,3.13,3.478,3.28,3.28,0,0,0,3.13-3.478" transform="translate(-812.596 -2309.784)" fill="#ef8619" stroke="#030000" stroke-miterlimit="10" stroke-width="1"/>
    <path id="Path_7192" data-name="Path 7192" d="M1137,2626.579s10.666-7.768,16-16.463c4.174-6.84,19.825-1.623,12.289,11.014-5.333,9.043-16.347,18.55-23.072,22.144" transform="translate(-813.935 -2310.12)" fill="#ef8619" stroke="#030000" stroke-miterlimit="10" stroke-width="1"/>
    <path id="Path_7193" data-name="Path 7193" d="M1040.767,2606.833a19.2,19.2,0,0,1-1.739,2.9c-6.029,8.927-15.42,12.985-20.985,9.275-5.565-3.826-5.217-14.029.812-22.84a22.63,22.63,0,0,1,1.971-2.667Z" transform="translate(-833.524 -2312.286)" fill="#fff"/>
    <path id="Path_7194" data-name="Path 7194" d="M1040.767,2606.833a19.2,19.2,0,0,1-1.739,2.9c-6.029,8.927-15.42,12.985-20.985,9.275-5.565-3.826-5.217-14.029.812-22.84a22.63,22.63,0,0,1,1.971-2.667Z" transform="translate(-833.524 -2312.286)" fill="none" stroke="#231815" stroke-miterlimit="10" stroke-width="1"/>
    <path id="Path_7195" data-name="Path 7195" d="M1019.456,2596.3c-3.246,4.869-3.478,10.434-.464,12.521s8.232-.232,11.478-5.1,3.478-10.434.464-12.521c-3.13-1.971-8.232.232-11.478,5.1" transform="translate(-833.081 -2312.767)" fill="#231815"/>
    <path id="Path_7196" data-name="Path 7196" d="M1038.914,2587.889c4.985,3.362,5.217,11.942.928,20.057L1019.9,2594.5c5.913-6.956,14.028-9.97,19.014-6.608" transform="translate(-832.598 -2313.399)" fill="#ef8619"/>
    <path id="Path_7197" data-name="Path 7197" d="M1038.914,2587.889c4.985,3.362,5.217,11.942.928,20.057L1019.9,2594.5C1025.813,2587.542,1033.928,2584.527,1038.914,2587.889Z" transform="translate(-832.598 -2313.399)" fill="none" stroke="#231815" stroke-miterlimit="10" stroke-width="1"/>
    <path id="Path_7198" data-name="Path 7198" d="M1045.149,2596.9a5.526,5.526,0,0,1-5.449.116" transform="translate(-829.443 -2311.744)" fill="none" stroke="#231815" stroke-linecap="round" stroke-miterlimit="10" stroke-width="1"/>
    <path id="Path_7199" data-name="Path 7199" d="M1045.049,2599.564a5.668,5.668,0,0,1-5.449-.464" transform="translate(-829.459 -2311.393)" fill="none" stroke="#231815" stroke-linecap="round" stroke-miterlimit="10" stroke-width="1"/>
    <path id="Path_7200" data-name="Path 7200" d="M1045.149,2594.3a5.517,5.517,0,0,1-5.449.348" transform="translate(-829.443 -2312.158)" fill="none" stroke="#231815" stroke-linecap="round" stroke-miterlimit="10" stroke-width="1"/>
    <path id="Path_7201" data-name="Path 7201" d="M987.926,2571.2a22.62,22.62,0,0,0-1.971,2.667c-6.029,8.927-6.377,19.13-.812,22.84,5.565,3.826,14.956-.348,20.985-9.275.58-.927,1.159-1.855,1.739-2.9Z" transform="translate(-838.768 -2315.84)" fill="#fff"/>
    <path id="Path_7202" data-name="Path 7202" d="M987.926,2571.2a22.62,22.62,0,0,0-1.971,2.667c-6.029,8.927-6.377,19.13-.812,22.84,5.565,3.826,14.956-.348,20.985-9.275.58-.927,1.159-1.855,1.739-2.9Z" transform="translate(-838.768 -2315.84)" fill="none" stroke="#231815" stroke-miterlimit="10" stroke-width="1"/>
    <path id="Path_7203" data-name="Path 7203" d="M997.575,2581.52c-3.246,4.869-8.348,7.072-11.478,5.1-3.014-2.087-2.9-7.652.464-12.521,3.246-4.869,8.464-7.072,11.478-5.1,3.014,2.087,2.9,7.652-.464,12.521" transform="translate(-838.331 -2316.305)" fill="#231815"/>
    <path id="Path_7204" data-name="Path 7204" d="M1006,2565.692c-4.985-3.362-12.985-.464-18.9,6.608l19.941,13.449c4.174-8.116,3.942-16.7-1.044-20.057" transform="translate(-837.826 -2316.94)" fill="#ef8619"/>
    <path id="Path_7205" data-name="Path 7205" d="M1006,2565.692c-4.985-3.362-12.985-.464-18.9,6.608l19.941,13.449C1011.215,2577.634,1010.983,2569.054,1006,2565.692Z" transform="translate(-837.826 -2316.94)" fill="none" stroke="#231815" stroke-miterlimit="10" stroke-width="1"/>
    <path id="Path_7206" data-name="Path 7206" d="M991.908,2561.3a5.469,5.469,0,0,0,1.971,5.1" transform="translate(-837.069 -2317.417)" fill="none" stroke="#231815" stroke-linecap="round" stroke-miterlimit="10" stroke-width="1"/>
    <path id="Path_7207" data-name="Path 7207" d="M989.4,2562.4a5.564,5.564,0,0,0,2.435,4.869" transform="translate(-837.46 -2317.242)" fill="none" stroke="#231815" stroke-linecap="round" stroke-miterlimit="10" stroke-width="1"/>
    <path id="Path_7208" data-name="Path 7208" d="M994.213,2560.5a5.784,5.784,0,0,0,1.623,5.217" transform="translate(-836.708 -2317.545)" fill="none" stroke="#231815" stroke-linecap="round" stroke-miterlimit="10" stroke-width="1"/>
    <path id="Path_7209" data-name="Path 7209" d="M1008.889,2620s-8.579,1.391-7.884,11.71" transform="translate(-835.616 -2308.062)" fill="none" stroke="#231815" stroke-linecap="round" stroke-miterlimit="10" stroke-width="1"/>
    <path id="Path_7210" data-name="Path 7210" d="M986.084,2604.5s1.855,8.464-7.884,11.71" transform="translate(-839.244 -2310.532)" fill="none" stroke="#231815" stroke-linecap="round" stroke-miterlimit="10" stroke-width="1"/>
    <line id="Line_31" data-name="Line 31" x1="21.796" y1="14.84" transform="translate(145.216 301.387)" fill="none" stroke="#231815" stroke-miterlimit="10" stroke-width="1"/>
    <path id="Path_7211" data-name="Path 7211" d="M987.244,2613.6l2.551,1.739,2.551,1.739s-1.391,3.13-3.826,1.507l-.58-.348-.58-.348c-2.551-1.855-.116-4.29-.116-4.29" transform="translate(-837.97 -2309.082)" fill="#fff"/>
    <path id="Path_7212" data-name="Path 7212" d="M987.273,2613.4l2.551,1.739,2.551,1.739s-1.623,3.594-4.174,1.855l-.58-.348-.58-.348C984.606,2616.3,987.273,2613.4,987.273,2613.4Z" transform="translate(-837.999 -2309.114)" fill="none" stroke="#231815" stroke-miterlimit="10" stroke-width="1"/>
    <path id="Path_7213" data-name="Path 7213" d="M994.544,2618.5l2.551,1.739,2.551,1.739s-1.391,3.13-3.826,1.507l-.58-.348-.58-.348c-2.551-1.855-.116-4.29-.116-4.29" transform="translate(-836.807 -2308.302)" fill="#fff"/>
    <path id="Path_7214" data-name="Path 7214" d="M994.573,2618.4l2.551,1.739,2.551,1.739s-1.623,3.594-4.174,1.855l-.58-.348-.58-.348C991.906,2621.183,994.573,2618.4,994.573,2618.4Z" transform="translate(-836.835 -2308.317)" fill="none" stroke="#231815" stroke-miterlimit="10" stroke-width="1"/>
    <path id="Path_7215" data-name="Path 7215" d="M1142.788,2545.513s-16.231-9.623-20.405-31.767c0,0-.7-2.319-3.014-.116,0,0-15.768,13.913-11.362,25.39" transform="translate(-818.68 -2325.166)" fill="#ef8619"/>
    <path id="Path_7216" data-name="Path 7216" d="M1142.888,2545.414s-16.231-9.623-20.405-31.767c0,0-.7-2.319-3.014-.116,0,0-15.767,13.912-11.362,25.39" transform="translate(-818.664 -2325.182)" fill="none" stroke="#030000" stroke-miterlimit="10" stroke-width="0.855"/>
    <path id="Path_7217" data-name="Path 7217" d="M1099.053,2762.6v47.3a14.473,14.473,0,0,1-14.376,14.492h0A14.473,14.473,0,0,1,1070.3,2809.9v-41.042" transform="translate(-824.566 -2285.335)" fill="#ef8619" stroke="#030000" stroke-miterlimit="10" stroke-width="1"/>
    <path id="Path_7218" data-name="Path 7218" d="M1246.684,2676.678,865.365,2509.032a11.888,11.888,0,0,1-4.29-18.434l114.894-135.531a11.771,11.771,0,0,1,13.681-3.13l384.217,168.805a9.459,9.459,0,0,1,3.362,14.84l-116.865,137.966A11.771,11.771,0,0,1,1246.684,2676.678Z" transform="translate(-858.346 -2350.943)" fill="#fff" stroke="#231815" stroke-miterlimit="10" stroke-width="1"/>
    <g id="Group_650" data-name="Group 650" transform="translate(176.723 77.391)">
      <path id="Path_7219" data-name="Path 7219" d="M1056.251,2430.222a27,27,0,0,1,4.522,2.2,1.557,1.557,0,0,1,.812,1.623,2.466,2.466,0,0,1-.812,1.739,113.708,113.708,0,0,1-22.724,19.246c-.232.232-.464.464-.348.7a35.912,35.912,0,0,1,.812,4.406,3.636,3.636,0,0,1-1.159,2.9,8.558,8.558,0,0,1-2.9,1.971l-2.2.812a3.1,3.1,0,0,1-2.667.116h0a1.693,1.693,0,0,1-1.159-1.623c0-.927-.116-1.971-.232-3.246,0-.232-.232-.348-.58-.116a63.739,63.739,0,0,1-13.333,4.29,4.082,4.082,0,0,1-2.087-.116,2.534,2.534,0,0,1-.58-.348,2.161,2.161,0,0,1-.812-2.2c0-.58.116-1.043.116-1.623a3.157,3.157,0,0,1,.927-1.855,1.6,1.6,0,0,0,.348-.464,6.317,6.317,0,0,1,2.782-1.391,43.235,43.235,0,0,0,11.13-3.71c.348-.116.464-.348.348-.58l-.348-1.276c0-.116-.116-.116-.232,0a2.059,2.059,0,0,1-1.159.464.9.9,0,0,1-.811-.348l-1.507-2.435a2.815,2.815,0,0,1-.116-2.551,6.919,6.919,0,0,1,1.044-1.739,4.208,4.208,0,0,1,1.043-.927c3.71-2.9,8.347-6.608,13.8-11.13.232-.232.348-.464,0-.58l-.232-.116a2.1,2.1,0,0,1-1.507-1.855,3.085,3.085,0,0,1,1.043-2.551l.927-.928a5.73,5.73,0,0,1,2.782-1.739,4.453,4.453,0,0,1,3.014,0l1.623.7c.232.116.464,0,.811-.232,2.087-1.855,4.522-3.942,7.3-6.376a6.577,6.577,0,0,1,3.13-1.507,4.1,4.1,0,0,1,2.667.232c.116,0,.232.116.348.232l1.043.58a2.04,2.04,0,0,1,1.159,1.971,3.831,3.831,0,0,1-.927,1.971l-.464.464c-2.319,1.971-4.521,3.826-6.724,5.681-.232.232-.232.348,0,.464Zm-7.536,7.072c.232-.232.348-.464,0-.58l-2.435-1.043a.768.768,0,0,0-.812.232q-3.652,2.956-10.782,8.7c-.232.232-.348.464-.232.7a11.98,11.98,0,0,1,.812,2.435c.116.232.232.232.58,0A97.906,97.906,0,0,0,1048.716,2437.294Zm31.767,17.506a2.233,2.233,0,0,1,1.507,1.855,3.085,3.085,0,0,1-1.043,2.551l-1.043,1.159a6.715,6.715,0,0,1-2.9,1.739,3.811,3.811,0,0,1-3.014-.116l-8-3.362a.768.768,0,0,0-.812.232l-12.057,13.449a22.857,22.857,0,0,1-4.522,4.058,10.447,10.447,0,0,1-4.637,1.507,20.737,20.737,0,0,1-7.42-1.391c-.116,0-.116-.116-.232-.116a2.794,2.794,0,0,1-1.623-1.623,3.592,3.592,0,0,1,.464-2.782,15.46,15.46,0,0,0,.812-2.087,2.077,2.077,0,0,1,.58-.812,5.142,5.142,0,0,1,1.275-.928,3.008,3.008,0,0,1,2.435-.116h0c.812.348,1.391.58,1.855.812s.812.348,1.043.464a2.293,2.293,0,0,0,1.159.232,1.776,1.776,0,0,0,.812-.58l11.942-13.333c.232-.232.232-.464-.116-.58l-7.3-3.13a2.273,2.273,0,0,1-1.507-1.855,3.345,3.345,0,0,1,.927-2.551l1.043-1.159a6.1,6.1,0,0,1,2.9-1.739,4.453,4.453,0,0,1,3.014,0l7.3,3.13a.768.768,0,0,0,.812-.232l2.9-3.246a3.894,3.894,0,0,1,1.855-1.159,2.857,2.857,0,0,1,1.971,0,.527.527,0,0,0,.58,0,71.553,71.553,0,0,0,8.231-3.478c.116,0,.116-.116.232-.232,0-.116,0-.116-.116-.232l-11.942-4.985a2.234,2.234,0,0,1-1.507-1.855,3.087,3.087,0,0,1,1.043-2.551l.812-.927a6.714,6.714,0,0,1,2.9-1.739,3.813,3.813,0,0,1,3.014.116l17.159,7.188c.116.116.232.116.464.116a2.188,2.188,0,0,1,.928.232,1.935,1.935,0,0,1,1.275,1.391l.58,1.623a3.023,3.023,0,0,1-.58,2.551,2.539,2.539,0,0,1-.464.58,6.186,6.186,0,0,1-2.2,1.507c-6.492,2.782-12.174,4.869-16.927,6.376a1.873,1.873,0,0,0-.812.464l-1.275,1.391c-.232.232-.232.464.116.58Z" transform="translate(-1010.775 -2417.696)" fill="#71bf87" stroke="#030000" stroke-miterlimit="10" stroke-width="1"/>
      <path id="Path_7220" data-name="Path 7220" d="M1103.951,2450.222a26.991,26.991,0,0,1,4.522,2.2,1.557,1.557,0,0,1,.812,1.623,2.465,2.465,0,0,1-.812,1.739,113.7,113.7,0,0,1-22.724,19.246c-.232.232-.464.464-.348.7a40.408,40.408,0,0,1,.812,4.406,3.637,3.637,0,0,1-1.159,2.9,8.561,8.561,0,0,1-2.9,1.971l-2.2.812a3.1,3.1,0,0,1-2.667.116h0a1.693,1.693,0,0,1-1.159-1.623c0-.927-.116-1.971-.232-3.246,0-.232-.232-.348-.58-.116a63.744,63.744,0,0,1-13.333,4.29,4.082,4.082,0,0,1-2.087-.116,2.536,2.536,0,0,1-.58-.348,2.161,2.161,0,0,1-.812-2.2c0-.58.116-1.043.116-1.623a3.156,3.156,0,0,1,.928-1.855,1.6,1.6,0,0,0,.348-.464,6.32,6.32,0,0,1,2.783-1.391,43.226,43.226,0,0,0,11.13-3.71c.348-.116.464-.348.348-.58l-.348-1.275c0-.116-.116-.116-.232,0a2.061,2.061,0,0,1-1.159.464.9.9,0,0,1-.812-.348l-1.507-2.435a2.814,2.814,0,0,1-.116-2.551,6.919,6.919,0,0,1,1.043-1.739,4.214,4.214,0,0,1,1.043-.927c3.71-2.9,8.348-6.608,13.8-11.13.232-.232.348-.464,0-.58l-.232-.116a2.1,2.1,0,0,1-1.507-1.855,3.085,3.085,0,0,1,1.043-2.551l.927-.928a5.733,5.733,0,0,1,2.783-1.739,4.452,4.452,0,0,1,3.014,0l1.623.7c.232.116.464,0,.812-.232,2.087-1.855,4.522-3.942,7.3-6.376a6.576,6.576,0,0,1,3.13-1.507,4.1,4.1,0,0,1,2.667.232c.116,0,.232.116.348.232l1.043.58a2.04,2.04,0,0,1,1.159,1.971,3.83,3.83,0,0,1-.927,1.971l-.464.464c-2.319,1.971-4.522,3.826-6.724,5.681-.232.232-.232.348,0,.464Zm-7.536,7.072c.232-.232.348-.464,0-.58l-2.435-1.043a.768.768,0,0,0-.812.232q-3.652,2.956-10.782,8.7c-.232.232-.348.464-.232.7a11.973,11.973,0,0,1,.812,2.435c.116.232.232.232.58,0A115.885,115.885,0,0,0,1096.416,2457.294Zm31.767,17.622a2.234,2.234,0,0,1,1.507,1.855,3.085,3.085,0,0,1-1.043,2.551l-1.043,1.159a6.712,6.712,0,0,1-2.9,1.739,3.813,3.813,0,0,1-3.014-.116l-8-3.362a.717.717,0,0,0-.812.232l-12.058,13.449a22.865,22.865,0,0,1-4.522,4.058,10.447,10.447,0,0,1-4.637,1.507,20.733,20.733,0,0,1-7.42-1.391c-.116,0-.116-.116-.232-.116a2.8,2.8,0,0,1-1.623-1.623,3.593,3.593,0,0,1,.464-2.782,15.464,15.464,0,0,0,.812-2.087,2.08,2.08,0,0,1,.58-.812,5.142,5.142,0,0,1,1.275-.927,3.007,3.007,0,0,1,2.435-.116h0c.812.348,1.391.58,1.855.811s.812.348,1.043.464a2.3,2.3,0,0,0,1.159.232,1.774,1.774,0,0,0,.811-.58l11.942-13.333c.232-.232.232-.464-.116-.58l-7.3-3.13a2.273,2.273,0,0,1-1.507-1.855,3.345,3.345,0,0,1,.928-2.551l1.043-1.159a6.1,6.1,0,0,1,2.9-1.739,4.453,4.453,0,0,1,3.014,0l7.3,3.13a.717.717,0,0,0,.812-.232l2.9-3.246a3.9,3.9,0,0,1,1.855-1.159,2.861,2.861,0,0,1,1.971,0,.526.526,0,0,0,.58,0,71.592,71.592,0,0,0,8.232-3.478c.116,0,.116-.116.232-.232,0-.116,0-.116-.116-.232l-11.942-4.986a2.233,2.233,0,0,1-1.507-1.855,3.085,3.085,0,0,1,1.043-2.551l.812-.927a6.713,6.713,0,0,1,2.9-1.739,3.811,3.811,0,0,1,3.014.116l17.159,7.188c.116.116.232.116.464.116a2.187,2.187,0,0,1,.927.232,1.935,1.935,0,0,1,1.275,1.391l.58,1.623a3.024,3.024,0,0,1-.58,2.551,2.535,2.535,0,0,1-.464.58,6.187,6.187,0,0,1-2.2,1.507c-6.493,2.782-12.173,4.869-16.927,6.377a1.867,1.867,0,0,0-.812.464l-1.275,1.391c-.232.232-.232.464.116.58Z" transform="translate(-1003.173 -2414.508)" fill="#71bf87" stroke="#030000" stroke-miterlimit="10" stroke-width="1"/>
      <path id="Path_7221" data-name="Path 7221" d="M1133.724,2491.563a5.729,5.729,0,0,1-2.783,1.739,4.449,4.449,0,0,1-3.014,0l-5.333-2.2a.768.768,0,0,0-.812.232l-1.043,1.159a6.715,6.715,0,0,1-2.9,1.739,3.813,3.813,0,0,1-3.014-.116l-.116-.116a2.273,2.273,0,0,1-1.507-1.855,3.344,3.344,0,0,1,.927-2.55l26.086-29.216a6.1,6.1,0,0,1,2.9-1.739,4.456,4.456,0,0,1,3.014,0l9.159,3.826a2.234,2.234,0,0,1,1.507,1.855,3.086,3.086,0,0,1-1.043,2.551Zm15.767,19.709c-.232-.116-.464,0-.7.232l-1.971,2.2c-.232.232-.232.464,0,.464l7.884,3.362a2.141,2.141,0,0,1,1.391,1.739,2.752,2.752,0,0,1-.927,2.319,5.737,5.737,0,0,1-2.667,1.623,4.144,4.144,0,0,1-2.9,0l-23.419-9.855a2.14,2.14,0,0,1-1.391-1.739,2.752,2.752,0,0,1,.927-2.319,5.737,5.737,0,0,1,2.667-1.623,4.144,4.144,0,0,1,2.9,0l7.3,3.13c.232.116.464,0,.7-.232l1.971-2.2c.232-.232.232-.464,0-.464l-4.406-1.855a2.141,2.141,0,0,1-1.391-1.739,2.88,2.88,0,0,1,.928-2.318,6.426,6.426,0,0,1,2.551-1.623,3.823,3.823,0,0,1,2.782,0l4.406,1.855c.232.116.464,0,.7-.232l2.2-2.435c.232-.232.232-.464,0-.464l-7.188-2.782c-.348-.116-.348-.348-.116-.7a97.1,97.1,0,0,1-19.246,13.8,4.635,4.635,0,0,1-3.014.464,1.65,1.65,0,0,1-.7-.232,2.3,2.3,0,0,1-1.275-1.275,6.9,6.9,0,0,0-.464-.928,2.379,2.379,0,0,1,.116-2.319,2.081,2.081,0,0,1,.58-.812,6.106,6.106,0,0,1,1.623-1.275,70.2,70.2,0,0,0,8.7-5.333,78.084,78.084,0,0,0,8.232-6.84c2.667-2.435,4.869-4.637,6.724-6.608s3.942-4.174,6.029-6.608l10.319-11.594a6.1,6.1,0,0,1,2.9-1.739,4.45,4.45,0,0,1,3.014,0l25.042,10.55a1.984,1.984,0,0,1,1.391,1.855,3.344,3.344,0,0,1-.927,2.551l-7.072,7.884a6.71,6.71,0,0,1-2.9,1.739,3.812,3.812,0,0,1-3.014-.116l-20.4-8.58a.717.717,0,0,0-.812.232l-.232.348-.7.811c-.232.232-.232.464.116.58l21.333,8.927a2.141,2.141,0,0,1,1.391,1.739,3.108,3.108,0,0,1-.927,2.435,4.929,4.929,0,0,1-2.667,1.623,3.79,3.79,0,0,1-2.782-.116l-.927-.464h-.232a.114.114,0,0,0-.116.116,33.943,33.943,0,0,1-.464,6.145,3.089,3.089,0,0,1-.812,1.623,6.58,6.58,0,0,1-.927.812,5.086,5.086,0,0,1-3.13,1.043l-1.855.116a1.884,1.884,0,0,1-1.623-.58,1.383,1.383,0,0,1-.232-1.507c0-.116,0-.232-.232-.348-2.087-.7-5.449-1.971-10.2-3.71l2.319.928a1.96,1.96,0,0,1,1.391,1.739,3.108,3.108,0,0,1-.927,2.435c-.232.232-.232.464,0,.464l5.681,2.435a1.816,1.816,0,0,1,1.275,1.623,2.88,2.88,0,0,1-.928,2.319,6.426,6.426,0,0,1-2.551,1.623,3.828,3.828,0,0,1-2.782,0Zm-4.174-43.013c.232-.232.232-.464,0-.58l-1.391-.58a.769.769,0,0,0-.812.232l-14.608,16.348c-.232.231-.232.463.116.58l1.391.58c.232.116.464,0,.7-.232Zm7.884,20.869.232-.232c0-.116-.116-.116-.232-.231l-2.435-1.043a.465.465,0,0,0-.7.232c-1.043,1.043-1.855,1.971-2.551,2.55-.232.232-.232.348,0,.464l1.623.7a1.023,1.023,0,0,0,.927-.232C1151.231,2490.519,1152.274,2489.823,1153.2,2489.127Zm3.942,5.217c-.116,0-.116.116-.232.232,0,.116,0,.116.116.231l5.681,2.2c.232.116.232,0,.348-.116a1.963,1.963,0,0,1,.812-1.391,2.842,2.842,0,0,1,1.855-.7h1.043c.116,0,.116,0,.116-.116v-.116l-5.333-2.2a.714.714,0,0,0-.812.116A36.87,36.87,0,0,0,1157.143,2494.345Zm23.535-14.956c.232-.231.232-.463-.116-.58L1164.8,2472.2c-.348-.116-.58-.116-.812.232l-1.159,1.275c-.232.232-.232.464.116.58l15.768,6.608a.768.768,0,0,0,.812-.232Z" transform="translate(-994.454 -2411.212)" fill="#71bf87" stroke="#030000" stroke-miterlimit="10" stroke-width="1"/>
    </g>
    <g id="Group_651" data-name="Group 651" transform="translate(71.364 123.796)">
      <path id="Path_7222" data-name="Path 7222" d="M940.769,2480.189c-.116-.116-.348,0-.464.116l-2.9,3.13a.217.217,0,0,0,0,.348l9.739,4.174a1.087,1.087,0,0,1,.7.927,1.837,1.837,0,0,1-.58,1.391,2.991,2.991,0,0,1-1.507.927,1.977,1.977,0,0,1-1.623,0L920.6,2481.116a1.114,1.114,0,0,1-.7-1.043,1.836,1.836,0,0,1,.58-1.391,2.991,2.991,0,0,1,1.507-.928,2.584,2.584,0,0,1,1.623,0l9.391,4.058c.116.116.232,0,.464-.116l2.9-3.13a.217.217,0,0,0,0-.348l-6.84-3.014c-.464-.232-.7-.464-.7-.927a1.477,1.477,0,0,1,.58-1.275,6.575,6.575,0,0,1,1.507-.928,3.819,3.819,0,0,1,1.623,0l6.84,3.015c.116.116.232,0,.464-.116l2.782-3.13a.217.217,0,0,0,0-.348l-5.1-2.2a1.238,1.238,0,0,1-.812-1.043,2.078,2.078,0,0,1,.58-1.507l.464-.464v-.116h-.116l-2.782.348a3.574,3.574,0,0,1-1.159-.116c-.116-.116-.232-.116-.464-.232a1.287,1.287,0,0,1-.464-1.275v-.232a2.082,2.082,0,0,1,.464-1.043l.232-.232a2.289,2.289,0,0,1,1.623-.7,57.009,57.009,0,0,0,9.391-1.623,71.888,71.888,0,0,0,8.811-2.782,5.313,5.313,0,0,1,4.174-.232l.232.116a2.432,2.432,0,0,1,1.623,2.667,24.018,24.018,0,0,0,.58,7.073,19.47,19.47,0,0,0,2.435,6.145,1.287,1.287,0,0,1-.116,1.275c-.116.116-.232.232-.232.348a1.689,1.689,0,0,1-1.043.7l-.7.348a3.569,3.569,0,0,1-1.855.232c-.232,0-.348-.116-.464-.116a1.187,1.187,0,0,1-.7-.58l-.7-1.739h-.116c-.116,0-.116,0-.116.116l-.348.464a4.866,4.866,0,0,1-1.623,1.043,2.242,2.242,0,0,1-1.739,0l-5.333-2.319c-.116-.116-.348,0-.464.116l-2.783,3.13a.218.218,0,0,0,0,.348l6.956,3.014c.464.232.7.464.7.927a1.477,1.477,0,0,1-.58,1.276,3.331,3.331,0,0,1-1.507.927,3.819,3.819,0,0,1-1.623,0Zm-.7-14.376h0l-.116.116,15.652,6.725h.116v-.116a26.924,26.924,0,0,1-1.159-10.666.114.114,0,0,0-.116-.116h-.232A67.688,67.688,0,0,1,940.073,2465.812Z" transform="translate(-919.9 -2457.722)" fill="#231815"/>
      <path id="Path_7223" data-name="Path 7223" d="M964.786,2495.529a.218.218,0,0,0,0,.348l10.318,4.406c.464.232.7.464.7.927a1.836,1.836,0,0,1-.58,1.391,2.989,2.989,0,0,1-1.507.927,3.819,3.819,0,0,1-1.623,0L947.4,2492.863c-.464-.232-.7-.464-.7-.927a1.836,1.836,0,0,1,.58-1.391,2.991,2.991,0,0,1,1.507-.928,3.819,3.819,0,0,1,1.623,0l9.971,4.29c.116.116.348,0,.464-.116l1.739-1.855a.217.217,0,0,0,0-.348l-7.188-3.13c-.464-.232-.7-.464-.7-.927a1.477,1.477,0,0,1,.58-1.275,3.328,3.328,0,0,1,1.507-.927,3.291,3.291,0,0,1,1.507,0l7.188,3.13c.116.116.348,0,.464-.116l1.855-2.087a.217.217,0,0,0,0-.348c-.58-.232-1.739-.7-3.594-1.391s-3.246-1.275-4.058-1.623h-.116a1.3,1.3,0,0,1-.812-.927,2.261,2.261,0,0,1,.58-1.507,2.956,2.956,0,0,1,1.391-.927,1.975,1.975,0,0,1,1.623,0l2.667,1.043a.353.353,0,0,0,.464,0c1.391-.812,2.551-1.391,3.478-1.971a.116.116,0,0,0,0-.232l-2.551-1.043a1.237,1.237,0,0,1-.812-1.043,2.079,2.079,0,0,1,.58-1.507l.232-.232a.217.217,0,0,0,0-.348l-1.391-.58a1.237,1.237,0,0,1-.812-1.043,2.079,2.079,0,0,1,.58-1.507l2.551-2.9a4.861,4.861,0,0,1,1.623-1.043,2.24,2.24,0,0,1,1.739,0l9.739,4.174c.116.116.232,0,.464-.116a4.861,4.861,0,0,1,1.623-1.043,2.935,2.935,0,0,1,1.739,0l.232.116a1.238,1.238,0,0,1,.812,1.043,2.261,2.261,0,0,1-.58,1.507.218.218,0,0,0,0,.348l9.971,4.29a1.237,1.237,0,0,1,.812,1.043,2.079,2.079,0,0,1-.58,1.507l-2.551,2.9a4.365,4.365,0,0,1-1.739,1.043,2.934,2.934,0,0,1-1.739,0l-1.391-.58c-.116-.116-.232,0-.464.116l-.232.232a4.861,4.861,0,0,1-1.623,1.043,2.24,2.24,0,0,1-1.739,0l-1.855-.812h-.116v.116a24.965,24.965,0,0,1,1.159,6.029,1.661,1.661,0,0,1-.464,1.159c0,.116-.116.116-.116.232a3.09,3.09,0,0,1-1.623.811,1.822,1.822,0,0,1-1.391-.116.4.4,0,0,1-.232-.116,1.275,1.275,0,0,1-.7-1.159v-.348c0-.116-.116-.232-.232-.348l-6.029-2.435c-.232,0-.348,0-.464.116l-1.971,2.2a.217.217,0,0,0,0,.348l7.884,3.362c.464.232.7.464.7.927a1.744,1.744,0,0,1-.464,1.275,3.331,3.331,0,0,1-1.507.928,3.265,3.265,0,0,1-1.507,0l-7.884-3.362c-.116-.116-.348,0-.464.116Zm25.39-15.3a.217.217,0,0,0,0-.348l-19.709-8.464c-.116-.116-.348,0-.464.116l-1.623,1.739a.217.217,0,0,0,0,.348l19.709,8.463c.116.116.348,0,.464-.116Zm-9.855,3.015h0c.116-.116.116-.116,0-.116l-6.145-2.667c-.116-.116-.348,0-.464,0-.812.348-2.087,1.043-3.826,1.739a.114.114,0,0,0-.116.116v.116l7.768,3.13h.116l.116-.116v-.232a1.281,1.281,0,0,1,.464-1.276,2.423,2.423,0,0,1,1.507-.811Z" transform="translate(-915.629 -2456.251)" fill="#231815"/>
      <path id="Path_7224" data-name="Path 7224" d="M1005.351,2480.975c.348.116.7.232.812.464l.348.812a1.252,1.252,0,0,1,0,1.275,2.433,2.433,0,0,1-.464.7,2.519,2.519,0,0,1-.58.464q-5.565,3.826-8.7,5.913a1.6,1.6,0,0,0-.348.464,11.814,11.814,0,0,1-3.362,7.072c-1.855,1.971-3.594,3.13-5.1,3.362a5.756,5.756,0,0,1-2.435-.116c-.116,0-.232-.116-.348-.116h-.232c-.464-.232-.7-.464-.7-.928a2.415,2.415,0,0,1,.348-1.507c.116-.116.232-.232.232-.348a1.829,1.829,0,0,1,.927-.58,1.94,1.94,0,0,1,1.391-.116c.232,0,.58.116.812,0a4.892,4.892,0,0,0,2.2-1.507,9.649,9.649,0,0,0,2.435-4.521,4.955,4.955,0,0,1,1.275-2.435,8.439,8.439,0,0,1,1.043-.928q2.782-1.913,5.913-4.521a.217.217,0,0,0,0-.348l-2.319-1.043c-.116-.116-.348,0-.464.116l-20.173,22.144a3.932,3.932,0,0,1-1.623,1.043,2.958,2.958,0,0,1-1.739,0,1.475,1.475,0,0,1-.812-1.043,1.836,1.836,0,0,1,.58-1.391l21.68-23.883a4.867,4.867,0,0,1,1.623-1.043,2.243,2.243,0,0,1,1.739,0l5.565,2.435C1005.235,2480.975,1005.235,2480.975,1005.351,2480.975Zm16,12.637a1.837,1.837,0,0,1-.58,1.391,2.872,2.872,0,0,1-1.623.927,1.962,1.962,0,0,1-1.623,0l-8-3.478c-.116-.116-.348,0-.464.116-.812.812-1.739,1.855-3.014,3.13a.217.217,0,0,0,0,.348l6.608,2.9a1.238,1.238,0,0,1,.812,1.043,1.836,1.836,0,0,1-.58,1.391c-2.9,3.13-6.029,6.377-9.507,9.507a19.122,19.122,0,0,1-4.29,3.246,6.878,6.878,0,0,1-1.971.464,4.5,4.5,0,0,1-1.739-.232c-.58-.116-1.391-.464-2.435-.811a1.646,1.646,0,0,1-.927-1.043,2.2,2.2,0,0,1,.348-1.623c0-.116.116-.232.232-.348s.116-.232.232-.348a2.083,2.083,0,0,1,.812-.58,1.681,1.681,0,0,1,1.275-.116h.116l1.391.7a1.719,1.719,0,0,0,1.507,0c.58-.116,1.507-.927,2.9-2.2s3.594-3.478,6.493-6.608a.218.218,0,0,0,0-.348l-4.638-1.971c-.116-.116-.348,0-.464.116a55.239,55.239,0,0,1-8.579,6.26,31.726,31.726,0,0,1-9.159,3.13,3.566,3.566,0,0,1-1.159-.116c-.116-.116-.232-.116-.348-.232a1.288,1.288,0,0,1-.464-1.275v-.116a1.415,1.415,0,0,1,.464-1.043l.232-.232a3.814,3.814,0,0,1,1.507-.812,21.69,21.69,0,0,0,3.942-.927,21.155,21.155,0,0,0,3.71-1.623c1.159-.7,2.319-1.391,3.362-2.087s2.087-1.623,3.362-2.667c1.159-1.043,2.2-2.087,3.13-3.015s1.971-2.087,3.246-3.478a.218.218,0,0,0,0-.348l-2.319-1.043a1.237,1.237,0,0,1-.812-1.043,1.836,1.836,0,0,1,.58-1.391,2.874,2.874,0,0,1,1.623-.928,2.958,2.958,0,0,1,1.739,0l4.985,2.2c.116.116.348,0,.464-.116l2.667-2.9a4.862,4.862,0,0,1,1.623-1.043,2.935,2.935,0,0,1,1.739,0h.116a1.237,1.237,0,0,1,.812,1.043,2.262,2.262,0,0,1-.58,1.507l-2.667,2.9a.217.217,0,0,0,0,.348l5.217,2.319A1.411,1.411,0,0,1,1021.35,2493.612Z" transform="translate(-911.326 -2454.45)" fill="#231815"/>
      <path id="Path_7225" data-name="Path 7225" d="M1027.41,2497.182c-.116-.116-.348,0-.464.116l-5.217,5.681c-5.913,6.608-11.826,10.9-17.391,13.217a1.977,1.977,0,0,1-1.623,0h0a1.476,1.476,0,0,1-.812-1.043h0a2.078,2.078,0,0,1,.464-1.507c0-.116.116-.116.116-.232a2.956,2.956,0,0,1,1.391-.927,29.654,29.654,0,0,0,7.42-4.521l.116-.116s0-.116-.116,0c-.927.116-1.855.232-2.667.348a2.26,2.26,0,0,1-.927-.116c-.116-.116-.348-.232-.464-.348a1.251,1.251,0,0,1,0-1.275v-.116a2.426,2.426,0,0,1,.464-.7,2.791,2.791,0,0,1,.927-.7,3.907,3.907,0,0,1,1.971-.58c.464,0,1.971,0,4.522-.116a.6.6,0,0,0,.464-.232c1.043-1.159,1.855-1.971,2.435-2.667l.58-.58v-.116a.114.114,0,0,0-.116-.116l-1.275.116a1.715,1.715,0,0,1-.812-.116,1.6,1.6,0,0,1-.464-.348,1.252,1.252,0,0,1,0-1.275,27.712,27.712,0,0,0,1.507-3.246l.348-.7a1.156,1.156,0,0,1,.58-.464,2.549,2.549,0,0,1,1.507-.464,1.718,1.718,0,0,1,.812.116c.116.116.348.116.464.348a1.065,1.065,0,0,1,.232,1.159,23.946,23.946,0,0,1-1.739,3.942h0l4.869-5.449a4.866,4.866,0,0,1,1.623-1.043,2.242,2.242,0,0,1,1.739,0l7.42,3.246c.116.116.348,0,.464-.116l1.043-1.159a4.861,4.861,0,0,1,1.623-1.043,2.933,2.933,0,0,1,1.739,0l.348.116a1.238,1.238,0,0,1,.812,1.043,2.079,2.079,0,0,1-.58,1.507l-1.043,1.159a.218.218,0,0,0,0,.348l9.159,3.942a1.087,1.087,0,0,1,.7.928,1.836,1.836,0,0,1-.58,1.391,2.989,2.989,0,0,1-1.507.927,2.581,2.581,0,0,1-1.623,0Zm6.145,16.695c.116,0,.348.116.464.116a2.435,2.435,0,0,1,.7.464l.348.58c.232.232.232.58.116,1.043a1.594,1.594,0,0,1-.348.464,1.155,1.155,0,0,1-.58.464,30.749,30.749,0,0,1-9.159,3.594c-.116,0-.116,0-.116.116v.116a18.944,18.944,0,0,0,4.869,3.594.607.607,0,0,1,.232.927c-.116.116-.116.348-.348.464a1.064,1.064,0,0,1-.7.464c-.116.116-.348.116-.464.232a4.8,4.8,0,0,1-2.2.58,2.51,2.51,0,0,1-1.391-.232c-.116,0-.232-.116-.348-.232a18.974,18.974,0,0,1-5.565-5.333c0-.116-.232-.232-.348-.232a48.48,48.48,0,0,1-8.811-.927c-.116,0-.348-.116-.464-.116a1.56,1.56,0,0,1-.812-.7,2.2,2.2,0,0,1-.116-1.507l.348-.7a2.244,2.244,0,0,1,1.043-.58,1.27,1.27,0,0,1,.927,0,32.857,32.857,0,0,0,6.493,1.043c.116,0,.116,0,.232-.116l.116-.116a15.179,15.179,0,0,1,0-3.246,1.474,1.474,0,0,1,.464-.812,2.522,2.522,0,0,1,.58-.464,2.108,2.108,0,0,1,1.623-.348l.464.116h0l-2.2-.928c-.464-.232-.7-.464-.7-.927a1.932,1.932,0,0,1,.464-1.275l1.159-1.275a.425.425,0,0,1,.348-.116h0a4.776,4.776,0,0,0,.116-1.391,1.052,1.052,0,0,1,.348-.812c.116-.116.232-.232.348-.232a2.441,2.441,0,0,1,1.507-.58,7.935,7.935,0,0,0,3.13-.58,6.8,6.8,0,0,0,2.087-1.623l.812-.927a4.368,4.368,0,0,1,1.739-1.043,2.937,2.937,0,0,1,1.739,0l8.116,3.478a1.237,1.237,0,0,1,.812,1.043,2.262,2.262,0,0,1-.58,1.507l-2.2,2.435a8.531,8.531,0,0,0-.58.7q0,.174.348.348l1.159.464a.526.526,0,0,0,.58,0,9.278,9.278,0,0,0,.927-.7,1.862,1.862,0,0,1,1.275-.58,1.467,1.467,0,0,1,.7.116c.116.116.232.116.348.232a1.308,1.308,0,0,1,.348,1.275,2.368,2.368,0,0,1-.58,1.043l-.348.348a8.322,8.322,0,0,1-2.9,1.623,3.393,3.393,0,0,1-2.551-.348l-2.319-.928c-1.391-.58-2.087-1.275-2.087-1.971s.58-1.739,1.855-3.246l.928-1.043a.218.218,0,0,0,0-.348l-4.174-1.739c-.116-.116-.232,0-.464.116a12.071,12.071,0,0,1-8.927,3.71h0v.116l11.826,5.1C1033.439,2513.877,1033.439,2513.877,1033.555,2513.877Zm-5.217,2.2.116-.116v-.116l-5.913-2.551h-.232l-.116.116a7.182,7.182,0,0,0,.232,3.826c.116.116.232.232.348.116A26.1,26.1,0,0,0,1028.338,2516.08Z" transform="translate(-906.835 -2452.107)" fill="#231815"/>
      <path id="Path_7226" data-name="Path 7226" d="M1055.869,2529.689c-.116-.116-.348,0-.464.116l-2.9,3.13a.218.218,0,0,0,0,.348l9.739,4.174a1.087,1.087,0,0,1,.7.927,1.836,1.836,0,0,1-.58,1.391,2.991,2.991,0,0,1-1.507.928,1.977,1.977,0,0,1-1.623,0l-23.535-10.087a1.114,1.114,0,0,1-.7-1.043,1.837,1.837,0,0,1,.58-1.391,2.991,2.991,0,0,1,1.507-.927,2.584,2.584,0,0,1,1.623,0l9.391,4.058c.116.116.232,0,.464-.116l2.9-3.13a.217.217,0,0,0,0-.348l-6.84-3.014c-.464-.232-.7-.464-.7-.927a1.477,1.477,0,0,1,.58-1.276,3.33,3.33,0,0,1,1.507-.927,3.819,3.819,0,0,1,1.623,0l6.84,3.015c.116.116.232,0,.464-.116l2.783-3.13a.218.218,0,0,0,0-.348l-5.1-2.2a1.238,1.238,0,0,1-.812-1.043,2.079,2.079,0,0,1,.58-1.507l.464-.464v-.116h-.116l-2.783.348a3.573,3.573,0,0,1-1.159-.116c-.116-.116-.232-.116-.464-.232a1.288,1.288,0,0,1-.464-1.275v-.232a2.081,2.081,0,0,1,.464-1.043l.232-.232a2.29,2.29,0,0,1,1.623-.7,57.008,57.008,0,0,0,9.391-1.623,71.866,71.866,0,0,0,8.811-2.782,5.314,5.314,0,0,1,4.174-.232l.232.116a2.433,2.433,0,0,1,1.623,2.667,24.018,24.018,0,0,0,.58,7.073,19.467,19.467,0,0,0,2.435,6.145,1.288,1.288,0,0,1-.116,1.276c-.116.116-.232.232-.232.348a1.688,1.688,0,0,1-1.043.7l-.7.348a3.569,3.569,0,0,1-1.855.232c-.232,0-.348-.116-.464-.116a1.187,1.187,0,0,1-.7-.58l-.7-1.739h-.116c-.116,0-.116,0-.116.116l-.348.464a4.866,4.866,0,0,1-1.623,1.043,2.242,2.242,0,0,1-1.739,0l-5.333-2.319c-.116-.116-.348,0-.464.116l-2.782,3.13a.217.217,0,0,0,0,.348l6.956,3.014c.464.232.7.464.7.927a1.477,1.477,0,0,1-.58,1.275,3.33,3.33,0,0,1-1.507.928,3.819,3.819,0,0,1-1.623,0Zm-.7-14.376h0l-.116.116,15.652,6.725h.116v-.116a26.925,26.925,0,0,1-1.159-10.666.114.114,0,0,0-.116-.116h-.232A61.326,61.326,0,0,1,1055.173,2515.312Z" transform="translate(-901.556 -2449.833)" fill="#231815"/>
      <path id="Path_7227" data-name="Path 7227" d="M1065.534,2543.126a4.314,4.314,0,0,1-2.087.232,1.65,1.65,0,0,1-.7-.232,2.081,2.081,0,0,1-.812-.58l-.116-.116a1.049,1.049,0,0,1,0-1.159c.116-.116.116-.232.232-.348a1.689,1.689,0,0,1,1.043-.7,37.347,37.347,0,0,0,3.942-1.739,6.362,6.362,0,0,1,1.971-.58,3.574,3.574,0,0,1,1.159.116c.116.116.348.232.464.348l.116.116a1.238,1.238,0,0,1,.348,1.276l-.348.7c-.232.232-.464.348-.7.58A39.326,39.326,0,0,1,1065.534,2543.126Zm30.144.116.348.116a.352.352,0,0,0,.464,0,3.192,3.192,0,0,0,1.043-.927c.464-.348,1.043-1.043,2.087-2.087a2.326,2.326,0,0,1,.928-.464.7.7,0,0,1,.7.348,1.908,1.908,0,0,1,.232,1.159,2.367,2.367,0,0,1-.58,1.043,15.705,15.705,0,0,1-3.014,2.782,5.465,5.465,0,0,1-2.319,1.159,4.315,4.315,0,0,1-2.087-.232l-1.391-.58a2.153,2.153,0,0,1-1.391-1.623,2.765,2.765,0,0,1,.464-1.391,19.049,19.049,0,0,1,1.971-2.319l1.855-1.971v-.116h-.116l-.927.464a2.035,2.035,0,0,1-1.623.232.426.426,0,0,1-.348-.116c-.348-.116-.464-.348-.58-.7,0-.116-.116-.348-.116-.464s-.116-.116-.348,0a25.493,25.493,0,0,1-7.072,3.594,1.716,1.716,0,0,1-1.507,0,.113.113,0,0,1-.116-.116,1.164,1.164,0,0,1-.7-1.159v-.348h-.116c-4.637-1.391-9.043-2.782-13.217-4.058-.116,0-.116,0-.116-.116a.872.872,0,0,1-.58-.812,1.7,1.7,0,0,1,.464-1.391,3.453,3.453,0,0,1,1.275-.811,2.308,2.308,0,0,1,1.507-.116c1.275.464,2.667.927,4.058,1.391.116.116.348,0,.464-.116l1.275-1.391a.218.218,0,0,0,0-.348l-3.13-1.391a.872.872,0,0,1-.58-.812,1.416,1.416,0,0,1,.464-1.043,2.407,2.407,0,0,1,1.159-.7,2.37,2.37,0,0,1,1.275,0l3.13,1.391a.426.426,0,0,0,.348-.116,2.781,2.781,0,0,1,1.391-.811,3.292,3.292,0,0,1,1.507,0l1.391.58h.116v-.116c-.116-.58.348-1.391,1.507-2.667l.928-1.043a.218.218,0,0,0,0-.348l-1.159-.464c-.116-.116-.348,0-.464.116a12.039,12.039,0,0,1-3.594,2.2,9.439,9.439,0,0,1-4.174.464,1.045,1.045,0,0,1-.58-.116,1.6,1.6,0,0,1-.464-.348,1.908,1.908,0,0,1-.232-1.159c0-.348.232-.58.58-.812a1.871,1.871,0,0,1,1.043-.348,8.159,8.159,0,0,0,2.435-.116,6.444,6.444,0,0,0,1.971-1.043l.116-.116c0-.116,0-.116-.116-.116l-1.623-.7a.772.772,0,0,1-.58-.812,1.415,1.415,0,0,1,.464-1.043,2.408,2.408,0,0,1,1.159-.7,2.371,2.371,0,0,1,1.275,0l3.826,1.623c.116.116.232,0,.464-.116l.928-1.043a.218.218,0,0,0,0-.348l-2.667-1.159a.735.735,0,0,1-.58-.7,1.416,1.416,0,0,1,.464-1.043,2.406,2.406,0,0,1,1.159-.7,2.366,2.366,0,0,1,1.275,0l2.783,1.159a.426.426,0,0,0,.348-.116,2.15,2.15,0,0,1,1.391-.812,2.783,2.783,0,0,1,1.391,0l.348.116c.464.232.7.464.7.928a1.932,1.932,0,0,1-.464,1.275c-.116.116-.116.232,0,.232l2.782,1.159a.735.735,0,0,1,.58.7,1.415,1.415,0,0,1-.464,1.043,2.406,2.406,0,0,1-1.159.7,2.366,2.366,0,0,1-1.275,0l-2.667-1.159c-.116-.116-.232,0-.464.116l-.928,1.043a.218.218,0,0,0,0,.348l3.594,1.507a.772.772,0,0,1,.58.812,1.415,1.415,0,0,1-.464,1.043,2.406,2.406,0,0,1-1.159.7,2.37,2.37,0,0,1-1.275,0l-1.971-.812c-.116-.116-.348,0-.464.116l-.927,1.043a1.059,1.059,0,0,0-.348.58c0,.116.116.116.232.232l.7.348a.766.766,0,0,0,.7-.116,1.543,1.543,0,0,1,.927-.348.978.978,0,0,1,.812.232.9.9,0,0,1,.232.927,1.346,1.346,0,0,1-.7.927,4.568,4.568,0,0,1-1.855.928,2.387,2.387,0,0,1-1.739-.348l-1.623-.7a3.339,3.339,0,0,1-1.159-.7.217.217,0,0,0-.348,0l-1.043,1.159a.218.218,0,0,0,0,.348l2.783,1.159a.772.772,0,0,1,.58.812,1.415,1.415,0,0,1-.464,1.043,2.4,2.4,0,0,1-1.159.7,2.37,2.37,0,0,1-1.275,0l-2.783-1.159c-.116-.116-.348,0-.464.116l-1.043,1.159a.217.217,0,0,0,0,.348c.58.116,1.275.464,2.2.7.928.348,1.623.58,1.971.7a.9.9,0,0,1,.464.464.852.852,0,0,1-.232.7h0a22.127,22.127,0,0,0,6.84-3.71c.116-.116.232-.232.232-.348-.116-.464-.232-.812-.348-1.159a1.68,1.68,0,0,1,.116-1.275,1.594,1.594,0,0,1,.348-.464c.232-.232.58-.464.812-.7a4.55,4.55,0,0,1,1.623-.348c.232,0,.348.116.464.116a.771.771,0,0,1,.464.58h0a.114.114,0,0,1,.116.116h.116a19.775,19.775,0,0,0,2.2-2.2.218.218,0,0,0,0-.348l-.812-.348c-.464-.232-.7-.464-.7-.927a1.837,1.837,0,0,1,.58-1.391,2.99,2.99,0,0,1,1.507-.927,3.819,3.819,0,0,1,1.623,0l.812.348c.116.116.348,0,.464-.116.812-.812,1.391-1.507,1.971-2.087a3.332,3.332,0,0,1,1.507-.928,2.584,2.584,0,0,1,1.623,0,1.114,1.114,0,0,1,.7,1.043,2.408,2.408,0,0,1-.58,1.391c-.464.464-1.043,1.159-1.971,2.087a.217.217,0,0,0,0,.348l3.014,1.275a1.238,1.238,0,0,1,.812,1.043,2.078,2.078,0,0,1-.58,1.507l-9.971,11.014a4.466,4.466,0,0,0-1.043,1.275A3,3,0,0,0,1095.678,2543.242Zm-23.072-.812.232-.232a3,3,0,0,1,1.275-.812,2.276,2.276,0,0,1,1.739-.116c.116,0,.116,0,.232.116a1.386,1.386,0,0,1,.812.812,1.6,1.6,0,0,1-.348,1.391c-.464.7-.927,1.391-1.391,1.971,0,.116-.116.116-.232.232a4.165,4.165,0,0,1-1.391.927,3.443,3.443,0,0,1-1.855.116h-.116c-.116,0-.232,0-.232-.116a1.225,1.225,0,0,1-.7-.812,1.4,1.4,0,0,1,.464-1.391C1071.563,2543.821,1072.142,2543.126,1072.606,2542.43Zm6.724,2.782a1.592,1.592,0,0,1,.348-.464,6.44,6.44,0,0,1,.927-.7,2.779,2.779,0,0,1,1.623-.232c.116,0,.232.116.348.116a1.4,1.4,0,0,1,.812.812,1.438,1.438,0,0,1-.116,1.507,13.223,13.223,0,0,1-1.159,2.2,1.6,1.6,0,0,1-.348.464,1.688,1.688,0,0,1-1.043.7,2.684,2.684,0,0,1-1.855.232h-.232c-.116,0-.232-.116-.348-.116a1.017,1.017,0,0,1-.7-.812,1.265,1.265,0,0,1,.232-1.391A13.143,13.143,0,0,0,1079.331,2545.213Zm6.956,2.667a1.867,1.867,0,0,1,.464-.812l.464-.464a2.661,2.661,0,0,1,1.623-.464h.232a1.677,1.677,0,0,1,.812.232,2.424,2.424,0,0,1,.7.464,1.491,1.491,0,0,1,.464,1.391c-.232,1.391-.348,2.551-.58,3.594a1.473,1.473,0,0,1-.464.812,1.157,1.157,0,0,1-.58.464,3.271,3.271,0,0,1-1.739.464h-.464a1.647,1.647,0,0,1-.7-.232,2.424,2.424,0,0,1-.7-.464,1.654,1.654,0,0,1-.232-1.507Q1085.939,2549.792,1086.287,2547.879Zm15.42-16.927a.217.217,0,0,0,0-.348l-1.391-.58c-.116-.116-.348,0-.464.116-1.623,1.623-3.014,3.015-4.174,3.942-.116.116-.232.348-.116.464a16.944,16.944,0,0,1,.58,2.319.114.114,0,0,0,.116.116c.116,0,.116,0,.116-.116Z" transform="translate(-897.308 -2448.43)" fill="#231815"/>
      <path id="Path_7228" data-name="Path 7228" d="M1117.479,2547a4.272,4.272,0,0,1,1.971-.58c.464,0,.812,0,1.043.232.116.116.348.232.464.348l.348.348a1.058,1.058,0,0,1,.232,1.275,2.426,2.426,0,0,1-.464.7,2.082,2.082,0,0,1-.812.58,40.849,40.849,0,0,1-8.811,3.71c-.232,0-.348.116-.232.232a17.881,17.881,0,0,0,6.376,8.116c.348.232.348.58.232,1.043-.116.116-.116.348-.348.464a4.912,4.912,0,0,1-.812.58c-.232.116-.58.232-.812.348a4.546,4.546,0,0,1-2.087.464,3.436,3.436,0,0,1-1.159-.232c-.232-.116-.348-.232-.464-.232-3.362-2.782-5.449-5.8-6.261-9.159,0-.116-.116-.232-.348-.232a51.111,51.111,0,0,1-14.608.232,1.65,1.65,0,0,1-.7-.232,1.706,1.706,0,0,1-.7-.58,2.21,2.21,0,0,1-.232-1.507,1.471,1.471,0,0,1,.116-.7,1,1,0,0,1,.348-.7,1.6,1.6,0,0,1,.464-.348,1.759,1.759,0,0,1,1.507-.348,44.054,44.054,0,0,0,13.449.348c.232,0,.348-.116.348-.232a21.772,21.772,0,0,1,1.391-6.724,2.423,2.423,0,0,1,.464-.7,3.08,3.08,0,0,1,.7-.58,2.388,2.388,0,0,1,1.739-.348h.116c.232,0,.464.116.7.116a3.079,3.079,0,0,1,.7.58,1.492,1.492,0,0,1,.116,1.391,16.134,16.134,0,0,0-.812,5.1c0,.116.116.232.348.116A46.244,46.244,0,0,0,1117.479,2547Zm-5.565-10.087a4.314,4.314,0,0,1,2.087-.232,1.651,1.651,0,0,1,.7.232,2.08,2.08,0,0,1,.812.58l.348.348a1.049,1.049,0,0,1,0,1.159c-.116.116-.116.232-.232.348a2.243,2.243,0,0,1-1.043.58,61.081,61.081,0,0,1-10.782,2.551,3.207,3.207,0,0,1-1.507-.116c-.116,0-.116-.116-.232-.116a1.676,1.676,0,0,1-.812-1.159,1.473,1.473,0,0,0-.116-.7c-.116-.348.116-.7.348-1.043a2.723,2.723,0,0,1,1.623-.812A42.343,42.343,0,0,0,1111.914,2536.912Zm10.55,6.724a1.38,1.38,0,0,1,.348-1.275,2.423,2.423,0,0,1,1.507-.812l2.2-.348c.116,0,.116,0,.116-.116v-.116l-17.854-7.652a1.238,1.238,0,0,1-.812-1.043,2.078,2.078,0,0,1,.58-1.507h0a4.866,4.866,0,0,1,1.623-1.043,2.242,2.242,0,0,1,1.739,0l9.855,4.29c.116.116.232,0,.348-.116l1.391-1.507a4.368,4.368,0,0,1,1.739-1.043,2.937,2.937,0,0,1,1.739,0l.232.116a1.237,1.237,0,0,1,.812,1.043,2.079,2.079,0,0,1-.58,1.507l-1.391,1.507a.218.218,0,0,0,0,.348l10.087,4.29a1.237,1.237,0,0,1,.812,1.043,2.079,2.079,0,0,1-.58,1.507h0a4.365,4.365,0,0,1-1.739,1.043,2.936,2.936,0,0,1-1.739,0l-5.681-2.435h-.116s-.116,0,0,.116a45.623,45.623,0,0,1,2.087,8,1.744,1.744,0,0,1-.464,1.275,3.191,3.191,0,0,1-1.739.927l-.812.116a2.2,2.2,0,0,1-1.507-.116c-.116,0-.116-.116-.232-.116a1.275,1.275,0,0,1-.7-1.159A29.145,29.145,0,0,0,1122.464,2543.636Z" transform="translate(-892.908 -2446.274)" fill="#231815"/>
      <path id="Path_7229" data-name="Path 7229" d="M1135.7,2553.8c.232,0,.348.116.464.116a1.4,1.4,0,0,1,.58.58,1.311,1.311,0,0,1-.232,1.275l-.232.232a3.631,3.631,0,0,1-1.275.927,2.8,2.8,0,0,1-1.855.348c-.58-.116-1.044-.116-1.507-.232-.232,0-.348,0-.464.232l-6.84,7.536a15.2,15.2,0,0,1-2.087,1.971,4.069,4.069,0,0,1-2.087.7,7.906,7.906,0,0,1-3.13-.464h-.116a1.3,1.3,0,0,1-.812-.928,2.2,2.2,0,0,1,.348-1.623l.348-.348a6.442,6.442,0,0,1,.928-.7,2.306,2.306,0,0,1,1.507-.116,2.761,2.761,0,0,1,.812.348.876.876,0,0,0,.464.116.621.621,0,0,0,.464-.348l6.029-6.608a.113.113,0,0,1,.116-.116l-.116-.116c-.348,0-.812-.116-1.275-.116-.232,0-.348-.116-.58-.116a3.08,3.08,0,0,1-.7-.58,1.264,1.264,0,0,1,.232-1.391v-.116c.116-.116.232-.348.348-.464a4.16,4.16,0,0,1,1.159-.812,2.8,2.8,0,0,1,1.855-.348,5.9,5.9,0,0,1,1.043.232,7.462,7.462,0,0,1,1.043.232c.232,0,.348,0,.464-.232l4.406-4.869a.217.217,0,0,0,0-.348l-1.391-.58a1.474,1.474,0,0,1-.812-1.043,1.837,1.837,0,0,1,.58-1.391,2.872,2.872,0,0,1,1.623-.927,1.962,1.962,0,0,1,1.623,0l1.391.58c.116.116.232,0,.464-.116l3.594-3.942a2.874,2.874,0,0,1,1.623-.928,3.819,3.819,0,0,1,1.623,0,1.475,1.475,0,0,1,.812,1.043,1.836,1.836,0,0,1-.58,1.391l-3.594,3.942a.217.217,0,0,0,0,.348l1.971.812c.232.116.232.232.232.348a.877.877,0,0,1-.232.464v.116h0a30.68,30.68,0,0,0,8.579-3.13,4.272,4.272,0,0,1,1.971-.58,2.3,2.3,0,0,1,1.275.116c.116,0,.232.116.348.232h0a.88.88,0,0,1,.348,1.043l-.348.7a1.158,1.158,0,0,1-.58.464l-.116.116v.116l3.594,1.507h.116c.348,0,.58.232.811.58l.348.812a1.4,1.4,0,0,1-.116,1.159c-.116.116-.232.348-.348.464a2.081,2.081,0,0,1-.812.58q-1.565.869-3.478,1.739a.114.114,0,0,0-.116.116v.116l4.058,1.739a1.237,1.237,0,0,1,.812,1.043,2.078,2.078,0,0,1-.58,1.507l-6.145,6.725a3.331,3.331,0,0,1-1.507.927,3.3,3.3,0,0,1-1.507,0c-.464-.232-.7-.464-.7-.927a1.615,1.615,0,0,1,.58-1.276l.7-.7a.218.218,0,0,0,0-.348l-1.971-.812c-1.159-.464-1.739-1.043-1.739-1.623s.464-1.391,1.507-2.551l1.507-1.623a.217.217,0,0,0,0-.348l-.811-.348c-.116-.116-.348,0-.464.116a12.534,12.534,0,0,1-6.377,3.478,1.454,1.454,0,0,1-1.043-.116.25.25,0,0,1-.232-.232,1.344,1.344,0,0,1-.464-1.159v-.116h-.116l-1.391,1.507a2.958,2.958,0,0,1-1.391.927,3.3,3.3,0,0,1-1.507,0c-.464-.232-.7-.464-.7-.927a1.933,1.933,0,0,1,.464-1.276l6.145-6.724a.88.88,0,0,0,.232-.464,4.8,4.8,0,0,0-.116-1.159h-.232a2.406,2.406,0,0,1-1.159.7,2.37,2.37,0,0,1-1.275,0l-1.391-.58c-.116-.116-.348,0-.464.116l-3.594,3.942c0,.116-.116.116,0,.116l.116.116Zm15.767,14.376a1.932,1.932,0,0,1-.464,1.275,2.15,2.15,0,0,1-1.391.812,3.291,3.291,0,0,1-1.507,0l-5.217-2.2h-.232a.114.114,0,0,0-.116.116,6.171,6.171,0,0,0,2.2,6.145c.348.232.348.58.232,1.043-.116.116-.232.348-.348.464a4.906,4.906,0,0,1-.812.58.114.114,0,0,0-.116.116,4.549,4.549,0,0,1-2.087.464,3.392,3.392,0,0,1-1.043-.232,1.6,1.6,0,0,1-.464-.348,7.475,7.475,0,0,1-1.855-7.536v-.116h-.116a15.594,15.594,0,0,1-5.565,1.739,20.994,20.994,0,0,1-6.608,0,5.016,5.016,0,0,1-.58-.116,3.081,3.081,0,0,1-.7-.58,1.8,1.8,0,0,1-.232-1.391,1,1,0,0,1,.348-.7,2.552,2.552,0,0,1,1.855-.7,18.952,18.952,0,0,0,5.681.116,14.683,14.683,0,0,0,4.522-1.391l.116-.116v-.116l-5.1-2.2c-.464-.232-.7-.464-.7-.927a1.932,1.932,0,0,1,.464-1.275,2.956,2.956,0,0,1,1.391-.927,3.291,3.291,0,0,1,1.507,0l5.913,2.551c.116.116.348,0,.464-.116.232-.232.464-.348.7-.58a4.549,4.549,0,0,1,1.623-.927,3.78,3.78,0,0,1,1.623,0,1.087,1.087,0,0,1,.7.927,1.489,1.489,0,0,1-.464,1.159c0,.116-.116.116-.116.232l-.58.58a.217.217,0,0,0,0,.348l6.608,2.782A1.732,1.732,0,0,1,1151.467,2568.18Zm-6.377-14.84c-.116-.116-.348,0-.464.116l-2.551,2.9v.116l.116.116a8.37,8.37,0,0,0,4.406-2.2.217.217,0,0,0,0-.348Zm9.623-2.666.116-.116a.114.114,0,0,0-.116-.116l-3.362-1.391c-.116-.116-.348,0-.464,0-.927.348-2.087.812-3.246,1.159a.113.113,0,0,0-.116.116v.116l3.942,1.739a.517.517,0,0,0,.58,0C1153.09,2551.6,1153.9,2551.138,1154.713,2550.674Zm-1.275,9.507c.116,0,.232-.116.348-.232l1.623-1.855a.217.217,0,0,0,0-.348l-1.855-.812c-.116-.116-.232,0-.464.116l-1.507,1.623a2.008,2.008,0,0,0-.348.464c0,.116.116.232.348.232l1.275.58C1153.206,2560.181,1153.322,2560.181,1153.438,2560.181Z" transform="translate(-888.636 -2444.732)" fill="#231815"/>
      <path id="Path_7230" data-name="Path 7230" d="M1184.335,2573.373a1.477,1.477,0,0,1-.58,1.275,3.328,3.328,0,0,1-1.507.927,3.819,3.819,0,0,1-1.623,0l-5.449-2.319h-.116l-.116.116a14.6,14.6,0,0,0,3.478,6.029.863.863,0,0,1,.116,1.043c0,.116-.116.232-.232.348a1.83,1.83,0,0,1-.927.58c-.348.116-.58.232-.928.348a2.317,2.317,0,0,1-1.507.232,5.019,5.019,0,0,1-.58-.116,1.6,1.6,0,0,1-.464-.348c-.116-.116-.116-.116-.232,0l-5.1,5.565a2.872,2.872,0,0,1-1.623.927,2.562,2.562,0,0,1-1.623,0l-.812-.348a.536.536,0,0,1-.348-.58,1,1,0,0,1,.348-.7c.116-.116.116-.116,0-.116l-3.594-1.507c-.116,0-.116,0-.232.116a2.083,2.083,0,0,1-.812.58,1.28,1.28,0,0,1-.928,0l-.7-.348c-.464-.232-.7-.464-.7-.927a1.478,1.478,0,0,1,.58-1.276l6.377-7.072a4.863,4.863,0,0,1,1.623-1.043,2.24,2.24,0,0,1,1.739,0l2.667,1.159h.116v-.116a12.155,12.155,0,0,1-.58-4.521c0-.116,0-.232-.232-.348l-3.594-1.623a.517.517,0,0,0-.58,0,45.244,45.244,0,0,1-6.608,1.507h-.116v.116l2.782,1.159a1.238,1.238,0,0,1,.812,1.043,2.079,2.079,0,0,1-.58,1.507l-6.261,6.956a2.991,2.991,0,0,1-1.507.928,2.584,2.584,0,0,1-1.623,0l-.812-.348a.536.536,0,0,1-.348-.58,1,1,0,0,1,.348-.7c.116-.116.116-.116,0-.116l-3.594-1.507c-.116,0-.116,0-.232.116a3.519,3.519,0,0,1-.812.58,1.277,1.277,0,0,1-.927,0l-.7-.348c-.464-.232-.7-.464-.7-.928a1.477,1.477,0,0,1,.58-1.275l5.333-5.913c.116-.116.116-.116-.116-.116a1.47,1.47,0,0,1-.7-.116c-.116-.116-.348-.116-.464-.348a1.04,1.04,0,0,1-.232-1.043c0-.232.116-.348.116-.58,0-.348.232-.58.464-.927l.348-.348a1.826,1.826,0,0,1,1.507-.464,42.738,42.738,0,0,0,8.7-.58.114.114,0,0,0,.116-.116v-.116l-4.869-2.087c-.464-.232-.7-.464-.7-.927a1.477,1.477,0,0,1,.58-1.275,6.575,6.575,0,0,1,1.507-.928,3.819,3.819,0,0,1,1.623,0l8.348,3.594a.517.517,0,0,0,.58,0c.7-.232,1.391-.58,2.2-.927l.116-.116a.114.114,0,0,0-.116-.116l-7.42-3.13a1.237,1.237,0,0,1-.812-1.043,2.079,2.079,0,0,1,.58-1.507l4.869-5.333a4.861,4.861,0,0,1,1.623-1.043,2.24,2.24,0,0,1,1.739,0l7.188,3.13a1.238,1.238,0,0,1,.812,1.043,2.079,2.079,0,0,1-.58,1.507l-5.333,5.8c-.116.116-.116.348,0,.348l1.739,1.971s.116.116.116,0c.116,0,.116,0,.232-.116l6.145-6.84a4.365,4.365,0,0,1,1.739-1.043,2.936,2.936,0,0,1,1.739,0l7.188,3.13a1.238,1.238,0,0,1,.812,1.043,2.262,2.262,0,0,1-.58,1.507l-4.869,5.333a4.861,4.861,0,0,1-1.623,1.043,2.24,2.24,0,0,1-1.739,0l-8.927-3.826h0c-.58.348-1.391.7-2.2,1.159a.116.116,0,0,0,0,.232l11.942,5.1A3.441,3.441,0,0,1,1184.335,2573.373Zm-30.144,4.29c.116.116.232,0,.464-.116l2.667-2.9a.218.218,0,0,0,0-.348l-3.362-1.391c-.116-.116-.232,0-.464.116l-2.667,2.9a.217.217,0,0,0,0,.348Zm9.623,3.826a.217.217,0,0,0,0,.348l3.246,1.391c.116.116.232,0,.464-.116l2.667-2.9a.218.218,0,0,0,0-.348l-3.246-1.391c-.116-.116-.348,0-.464.116Zm6.029-21.448c.116.116.232,0,.464-.116l2.551-2.782a.218.218,0,0,0,0-.348l-3.362-1.391c-.116-.116-.348,0-.464.116l-2.551,2.782a.217.217,0,0,0,0,.348Zm13.217,1.275c-.116-.116-.232,0-.464.116l-2.551,2.782a.217.217,0,0,0,0,.348l3.362,1.391c.116.116.348,0,.464-.116l2.551-2.782a.217.217,0,0,0,0-.348Z" transform="translate(-884.056 -2442.736)" fill="#231815"/>
    </g>
  </g>
</svg>
