<svg xmlns="http://www.w3.org/2000/svg" width="522.254" height="540.189" viewBox="0 0 522.254 540.189">
  <g id="feature3" transform="translate(0.541 0.513)">
    <g id="Group_634" data-name="Group 634" transform="translate(89.699 187.515)">
      <path id="Path_7015" data-name="Path 7015" d="M1438.195,2190.2a3.382,3.382,0,0,1,4.637-.927,3.3,3.3,0,0,1,.58,4.637,3.263,3.263,0,0,1-4.522.928,3.185,3.185,0,0,1-.7-4.638" transform="translate(-1394.503 -2163.169)" fill="#ef8619" stroke="#030000" stroke-miterlimit="10" stroke-width="1"/>
      <path id="Path_7016" data-name="Path 7016" d="M1445.343,2211.775s-4.174-12.521-3.478-22.724c.58-8-15.188-12.869-16.347,1.739-.812,10.434,2.435,24.579,5.913,31.419" transform="translate(-1396.433 -2164.334)" fill="#ef8619" stroke="#030000" stroke-miterlimit="10" stroke-width="1"/>
      <path id="Path_7017" data-name="Path 7017" d="M1501.153,2403.3v47.3a14.473,14.473,0,0,1-14.376,14.492h0A14.473,14.473,0,0,1,1472.4,2450.6v-47.3" transform="translate(-1388.941 -2128.97)" fill="#ef8619" stroke="#030000" stroke-miterlimit="10" stroke-width="1"/>
      <path id="Path_7018" data-name="Path 7018" d="M1426.02,2236.7c-45.911,67.823-28.4,159.878,39.071,205.441s159.3,27.593,205.21-40.23,28.289-159.878-39.071-205.441c-67.476-45.679-159.3-27.709-205.21,40.23" transform="translate(-1400.414 -2165.958)" fill="#ef8619" stroke="#030000" stroke-miterlimit="10" stroke-width="1"/>
      <path id="Path_7019" data-name="Path 7019" d="M1616.361,2266.778a3.353,3.353,0,0,0-3.13-3.478,3.28,3.28,0,0,0-3.13,3.478,3.148,3.148,0,1,0,6.26,0" transform="translate(-1366.995 -2151.282)" fill="#ef8619" stroke="#030000" stroke-miterlimit="10" stroke-width="1"/>
      <path id="Path_7020" data-name="Path 7020" d="M1601.7,2280.679s10.666-7.768,16-16.463c4.174-6.84,19.825-1.623,12.289,11.014-5.333,9.043-16.347,18.55-23.072,22.144" transform="translate(-1368.334 -2151.618)" fill="#ef8619" stroke="#030000" stroke-miterlimit="10" stroke-width="1"/>
      <path id="Path_7021" data-name="Path 7021" d="M1505.467,2260.933a19.171,19.171,0,0,1-1.739,2.9c-6.029,8.927-15.42,12.985-20.985,9.275-5.565-3.826-5.217-14.029.812-22.84a22.609,22.609,0,0,1,1.971-2.667Z" transform="translate(-1387.923 -2153.784)" fill="#fff"/>
      <path id="Path_7022" data-name="Path 7022" d="M1505.467,2260.933a19.171,19.171,0,0,1-1.739,2.9c-6.029,8.927-15.42,12.985-20.985,9.275-5.565-3.826-5.217-14.029.812-22.84a22.609,22.609,0,0,1,1.971-2.667Z" transform="translate(-1387.923 -2153.784)" fill="none" stroke="#231815" stroke-miterlimit="10" stroke-width="1"/>
      <path id="Path_7023" data-name="Path 7023" d="M1484.156,2250.4c-3.246,4.869-3.478,10.434-.464,12.521s8.232-.232,11.478-5.1,3.478-10.435.464-12.521c-3.015-1.971-8.232.232-11.478,5.1" transform="translate(-1387.48 -2154.266)" fill="#231815"/>
      <path id="Path_7024" data-name="Path 7024" d="M1503.614,2241.992c4.985,3.362,5.217,11.942.927,20.057L1484.6,2248.6c6.029-7.072,14.028-9.971,19.014-6.608" transform="translate(-1386.997 -2154.901)" fill="#ef8619"/>
      <path id="Path_7025" data-name="Path 7025" d="M1503.614,2241.992c4.985,3.362,5.217,11.942.927,20.057L1484.6,2248.6C1490.629,2241.529,1498.628,2238.63,1503.614,2241.992Z" transform="translate(-1386.997 -2154.901)" fill="none" stroke="#231815" stroke-miterlimit="10" stroke-width="1"/>
      <path id="Path_7026" data-name="Path 7026" d="M1509.849,2251a5.527,5.527,0,0,1-5.449.116" transform="translate(-1383.841 -2153.243)" fill="none" stroke="#231815" stroke-linecap="round" stroke-miterlimit="10" stroke-width="1"/>
      <path id="Path_7027" data-name="Path 7027" d="M1509.749,2253.664a5.669,5.669,0,0,1-5.449-.464" transform="translate(-1383.857 -2152.892)" fill="none" stroke="#231815" stroke-linecap="round" stroke-miterlimit="10" stroke-width="1"/>
      <path id="Path_7028" data-name="Path 7028" d="M1509.849,2248.4a5.516,5.516,0,0,1-5.449.348" transform="translate(-1383.841 -2153.657)" fill="none" stroke="#231815" stroke-linecap="round" stroke-miterlimit="10" stroke-width="1"/>
      <path id="Path_7029" data-name="Path 7029" d="M1452.726,2225.3a22.63,22.63,0,0,0-1.971,2.667c-6.029,8.927-6.377,19.13-.812,22.84,5.565,3.826,14.956-.348,20.985-9.275.58-.928,1.159-1.855,1.739-2.9Z" transform="translate(-1393.151 -2157.338)" fill="#fff"/>
      <path id="Path_7030" data-name="Path 7030" d="M1452.726,2225.3a22.63,22.63,0,0,0-1.971,2.667c-6.029,8.927-6.377,19.13-.812,22.84,5.565,3.826,14.956-.348,20.985-9.275.58-.928,1.159-1.855,1.739-2.9Z" transform="translate(-1393.151 -2157.338)" fill="none" stroke="#231815" stroke-miterlimit="10" stroke-width="1"/>
      <path id="Path_7031" data-name="Path 7031" d="M1462.375,2235.62c-3.246,4.87-8.347,7.073-11.478,5.1-3.014-2.087-2.9-7.652.464-12.521,3.246-4.869,8.464-7.072,11.478-5.1,3.014,2.087,2.782,7.652-.464,12.521" transform="translate(-1392.713 -2157.804)" fill="#231815"/>
      <path id="Path_7032" data-name="Path 7032" d="M1470.7,2219.792c-4.985-3.362-12.985-.464-18.9,6.608l19.941,13.449c4.174-8.116,3.942-16.7-1.043-20.057" transform="translate(-1392.224 -2158.439)" fill="#ef8619"/>
      <path id="Path_7033" data-name="Path 7033" d="M1470.7,2219.792c-4.985-3.362-12.985-.464-18.9,6.608l19.941,13.449C1475.915,2231.734,1475.683,2223.155,1470.7,2219.792Z" transform="translate(-1392.224 -2158.439)" fill="none" stroke="#231815" stroke-miterlimit="10" stroke-width="1"/>
      <path id="Path_7034" data-name="Path 7034" d="M1456.608,2215.4a5.47,5.47,0,0,0,1.971,5.1" transform="translate(-1391.467 -2158.917)" fill="none" stroke="#231815" stroke-linecap="round" stroke-miterlimit="10" stroke-width="1"/>
      <path id="Path_7035" data-name="Path 7035" d="M1454.1,2216.5a5.565,5.565,0,0,0,2.435,4.869" transform="translate(-1391.859 -2158.741)" fill="none" stroke="#231815" stroke-linecap="round" stroke-miterlimit="10" stroke-width="1"/>
      <path id="Path_7036" data-name="Path 7036" d="M1458.913,2214.6a5.784,5.784,0,0,0,1.623,5.217" transform="translate(-1391.106 -2159.044)" fill="none" stroke="#231815" stroke-linecap="round" stroke-miterlimit="10" stroke-width="1"/>
      <path id="Path_7037" data-name="Path 7037" d="M1473.589,2274.1s-8.579,1.391-7.884,11.71" transform="translate(-1390.015 -2149.561)" fill="none" stroke="#231815" stroke-linecap="round" stroke-miterlimit="10" stroke-width="1"/>
      <path id="Path_7038" data-name="Path 7038" d="M1450.784,2258.6s1.855,8.463-7.884,11.71" transform="translate(-1393.643 -2152.031)" fill="none" stroke="#231815" stroke-linecap="round" stroke-miterlimit="10" stroke-width="1"/>
      <line id="Line_27" data-name="Line 27" x1="21.796" y1="14.84" transform="translate(55.518 113.989)" fill="none" stroke="#231815" stroke-miterlimit="10" stroke-width="1"/>
      <path id="Path_7039" data-name="Path 7039" d="M1451.944,2267.6l2.551,1.739,2.551,1.739s-1.391,3.13-3.826,1.507l-.58-.348-.58-.348c-2.551-1.739-.116-4.29-.116-4.29" transform="translate(-1392.369 -2150.597)" fill="#fff"/>
      <path id="Path_7040" data-name="Path 7040" d="M1452.073,2267.5l2.551,1.739,2.551,1.739s-1.623,3.594-4.174,1.855l-.58-.348-.58-.348C1449.406,2270.4,1452.073,2267.5,1452.073,2267.5Z" transform="translate(-1392.381 -2150.613)" fill="none" stroke="#231815" stroke-miterlimit="10" stroke-width="1"/>
      <path id="Path_7041" data-name="Path 7041" d="M1459.244,2272.6l2.551,1.739,2.551,1.739s-1.391,3.13-3.826,1.507l-.58-.348-.58-.348c-2.55-1.855-.116-4.29-.116-4.29" transform="translate(-1391.205 -2149.8)" fill="#fff"/>
      <path id="Path_7042" data-name="Path 7042" d="M1459.38,2272.5l2.551,1.739,2.551,1.739s-1.623,3.594-4.174,1.855l-.58-.348-.58-.348C1456.6,2275.283,1459.38,2272.5,1459.38,2272.5Z" transform="translate(-1391.225 -2149.816)" fill="none" stroke="#231815" stroke-miterlimit="10" stroke-width="1"/>
      <path id="Path_7043" data-name="Path 7043" d="M1607.588,2199.614s-16.231-9.623-20.405-31.767c0,0-.7-2.319-3.014-.116,0,0-15.767,13.912-11.362,25.39" transform="translate(-1373.063 -2166.665)" fill="#ef8619"/>
      <path id="Path_7044" data-name="Path 7044" d="M1607.688,2199.513s-16.231-9.623-20.405-31.767c0,0-.7-2.319-3.014-.116,0,0-15.768,13.913-11.362,25.39" transform="translate(-1373.047 -2166.681)" fill="none" stroke="#030000" stroke-miterlimit="10" stroke-width="0.855"/>
      <path id="Path_7045" data-name="Path 7045" d="M1563.753,2416.7V2464a14.473,14.473,0,0,1-14.376,14.492h0A14.473,14.473,0,0,1,1535,2464v-41.042" transform="translate(-1378.964 -2126.834)" fill="#ef8619" stroke="#030000" stroke-miterlimit="10" stroke-width="1"/>
    </g>
    <path id="Path_7046" data-name="Path 7046" d="M1711.384,2330.678l-381.319-167.646a11.888,11.888,0,0,1-4.29-18.434l114.894-135.531a11.771,11.771,0,0,1,13.681-3.13l384.217,168.805a9.459,9.459,0,0,1,3.362,14.84l-116.865,137.966A11.525,11.525,0,0,1,1711.384,2330.678Z" transform="translate(-1323.046 -2004.943)" fill="#fff" stroke="#231815" stroke-miterlimit="10" stroke-width="1"/>
    <g id="Group_635" data-name="Group 635" transform="translate(176.839 77.507)">
      <path id="Path_7047" data-name="Path 7047" d="M1521.052,2084.322a26.994,26.994,0,0,1,4.522,2.2,1.558,1.558,0,0,1,.812,1.623,2.466,2.466,0,0,1-.812,1.739,113.708,113.708,0,0,1-22.724,19.246c-.232.232-.464.464-.348.7a35.858,35.858,0,0,1,.812,4.406,3.637,3.637,0,0,1-1.159,2.9,8.562,8.562,0,0,1-2.9,1.971l-2.2.812a3.1,3.1,0,0,1-2.667.116h0a1.693,1.693,0,0,1-1.159-1.623c0-.928-.116-1.971-.232-3.246,0-.232-.232-.348-.58-.116a63.737,63.737,0,0,1-13.333,4.29,4.085,4.085,0,0,1-2.087-.116,2.533,2.533,0,0,1-.58-.348,2.161,2.161,0,0,1-.812-2.2c0-.58.116-1.043.116-1.623a3.154,3.154,0,0,1,.927-1.855,1.607,1.607,0,0,0,.348-.464,6.315,6.315,0,0,1,2.782-1.391,41.844,41.844,0,0,0,11.13-3.71c.348-.116.464-.348.348-.58l-.348-1.275c0-.116-.116-.116-.232,0a2.059,2.059,0,0,1-1.159.464.9.9,0,0,1-.812-.348l-1.507-2.435a2.815,2.815,0,0,1-.116-2.551,6.91,6.91,0,0,1,1.043-1.739,4.2,4.2,0,0,1,1.043-.927c3.71-2.9,8.347-6.608,13.8-11.13.232-.232.348-.464,0-.58l-.232-.116a2.234,2.234,0,0,1-1.507-1.855,3.086,3.086,0,0,1,1.043-2.551l.928-.927a5.73,5.73,0,0,1,2.782-1.739,4.453,4.453,0,0,1,3.014,0l1.623.7c.232.116.464,0,.812-.232,2.087-1.855,4.522-3.942,7.3-6.376a6.575,6.575,0,0,1,3.13-1.507,4.1,4.1,0,0,1,2.667.232c.116,0,.232.116.348.232l1.043.58a2.04,2.04,0,0,1,1.159,1.971,3.83,3.83,0,0,1-.928,1.971l-.464.464c-2.319,1.971-4.522,3.826-6.725,5.681-.232.232-.232.348,0,.464Zm-7.536,7.072c.232-.232.348-.464,0-.58l-2.435-1.043a.768.768,0,0,0-.812.232q-3.652,2.956-10.782,8.7c-.232.232-.348.464-.232.7a11.955,11.955,0,0,1,.812,2.435c.116.232.232.232.58,0A115.822,115.822,0,0,0,1513.516,2091.394Zm31.651,17.507a2.234,2.234,0,0,1,1.507,1.855,3.086,3.086,0,0,1-1.043,2.551l-1.043,1.159a6.712,6.712,0,0,1-2.9,1.739,3.813,3.813,0,0,1-3.014-.116l-8-3.362a.769.769,0,0,0-.812.232l-12.058,13.449a22.85,22.85,0,0,1-4.521,4.058,10.451,10.451,0,0,1-4.637,1.507,20.735,20.735,0,0,1-7.42-1.391c-.116,0-.116-.116-.232-.116a2.8,2.8,0,0,1-1.623-1.623,3.594,3.594,0,0,1,.464-2.782,15.467,15.467,0,0,0,.812-2.087,2.081,2.081,0,0,1,.58-.812,5.147,5.147,0,0,1,1.275-.927,3.007,3.007,0,0,1,2.435-.116h0c.812.348,1.391.58,1.855.812s.812.348,1.043.464a2.3,2.3,0,0,0,1.159.232,1.774,1.774,0,0,0,.812-.58l11.942-13.333c.232-.232.232-.464-.116-.58l-7.3-3.13a2.273,2.273,0,0,1-1.507-1.855,3.344,3.344,0,0,1,.927-2.551l1.043-1.159a6.1,6.1,0,0,1,2.9-1.739,4.453,4.453,0,0,1,3.014,0l7.3,3.13a.768.768,0,0,0,.811-.232l2.9-3.246a3.9,3.9,0,0,1,1.855-1.159,2.861,2.861,0,0,1,1.971,0,.526.526,0,0,0,.58,0,71.609,71.609,0,0,0,8.231-3.478c.116,0,.116-.116.232-.232,0-.116,0-.116-.116-.232l-11.942-4.985a2.234,2.234,0,0,1-1.507-1.855,3.086,3.086,0,0,1,1.043-2.551l.812-.927a6.713,6.713,0,0,1,2.9-1.739,3.813,3.813,0,0,1,3.014.116l17.159,7.188c.116.116.232.116.464.116a2.187,2.187,0,0,1,.927.232,1.935,1.935,0,0,1,1.275,1.391l.58,1.623a3.023,3.023,0,0,1-.58,2.551,2.535,2.535,0,0,1-.464.58,6.181,6.181,0,0,1-2.2,1.507c-6.492,2.782-12.173,4.869-16.927,6.377a1.868,1.868,0,0,0-.812.464l-1.275,1.391c-.232.232-.232.464.116.58Z" transform="translate(-1475.575 -2071.795)" fill="#71bf87" stroke="#030000" stroke-miterlimit="10" stroke-width="1"/>
      <path id="Path_7048" data-name="Path 7048" d="M1568.652,2104.322a26.993,26.993,0,0,1,4.521,2.2,1.556,1.556,0,0,1,.812,1.623,2.466,2.466,0,0,1-.812,1.739,113.714,113.714,0,0,1-22.724,19.246c-.232.232-.464.464-.348.7a35.9,35.9,0,0,1,.812,4.406,3.638,3.638,0,0,1-1.159,2.9,8.56,8.56,0,0,1-2.9,1.971l-2.2.812a3.1,3.1,0,0,1-2.667.116h0a1.693,1.693,0,0,1-1.159-1.623c0-.927-.116-1.971-.232-3.246,0-.232-.232-.348-.58-.116a63.759,63.759,0,0,1-13.333,4.29,4.087,4.087,0,0,1-2.087-.116,2.544,2.544,0,0,1-.58-.348,2.162,2.162,0,0,1-.812-2.2c0-.58.116-1.043.116-1.623a3.156,3.156,0,0,1,.927-1.855,1.6,1.6,0,0,0,.348-.464,6.315,6.315,0,0,1,2.782-1.391,41.843,41.843,0,0,0,11.13-3.71c.348-.116.464-.348.348-.58l-.348-1.275c0-.116-.116-.116-.232,0a2.059,2.059,0,0,1-1.159.464c-.464,0-.7-.116-.812-.348l-1.507-2.435a2.814,2.814,0,0,1-.116-2.551,6.925,6.925,0,0,1,1.043-1.739,4.214,4.214,0,0,1,1.043-.927c3.71-2.9,8.347-6.608,13.8-11.13.232-.232.348-.464,0-.58l-.232-.116a2.233,2.233,0,0,1-1.507-1.855,3.085,3.085,0,0,1,1.043-2.551l.927-.927a5.731,5.731,0,0,1,2.783-1.739,4.452,4.452,0,0,1,3.014,0l1.623.7c.232.116.464,0,.812-.232,2.087-1.855,4.521-3.942,7.3-6.376a6.576,6.576,0,0,1,3.13-1.507,4.1,4.1,0,0,1,2.667.232c.116,0,.232.116.348.232l1.043.58a2.04,2.04,0,0,1,1.159,1.971,3.831,3.831,0,0,1-.927,1.971l-.464.464c-2.319,1.971-4.521,3.826-6.724,5.681-.232.232-.232.348,0,.464Zm-7.536,7.072c.232-.232.348-.464,0-.58l-2.435-1.043a.768.768,0,0,0-.812.232q-3.652,2.956-10.782,8.7c-.232.232-.348.464-.232.7a11.97,11.97,0,0,1,.812,2.435c.116.232.232.232.58,0A97.869,97.869,0,0,0,1561.116,2111.394Zm31.767,17.507a2.234,2.234,0,0,1,1.507,1.855,3.086,3.086,0,0,1-1.043,2.551l-1.043,1.159a6.712,6.712,0,0,1-2.9,1.739,3.813,3.813,0,0,1-3.014-.116l-8-3.362a.768.768,0,0,0-.812.232l-12.058,13.449a22.85,22.85,0,0,1-4.521,4.058,10.452,10.452,0,0,1-4.637,1.507,20.3,20.3,0,0,1-7.42-1.391c-.116,0-.116-.116-.232-.116a2.8,2.8,0,0,1-1.623-1.623,3.593,3.593,0,0,1,.464-2.782,15.467,15.467,0,0,0,.812-2.087,2.081,2.081,0,0,1,.58-.812,5.153,5.153,0,0,1,1.275-.927,3.007,3.007,0,0,1,2.435-.116h0c.812.348,1.391.58,1.855.812s.812.348,1.043.464a2.3,2.3,0,0,0,1.159.232c.348,0,.58-.232.812-.58l11.942-13.333c.232-.232.232-.464-.116-.58l-7.3-3.13a2.273,2.273,0,0,1-1.507-1.855,3.344,3.344,0,0,1,.927-2.551l1.043-1.159a6.1,6.1,0,0,1,2.9-1.739,4.453,4.453,0,0,1,3.014,0l7.3,3.13a.768.768,0,0,0,.812-.232l2.9-3.246a3.9,3.9,0,0,1,1.855-1.159,2.861,2.861,0,0,1,1.971,0,.525.525,0,0,0,.58,0,71.549,71.549,0,0,0,8.232-3.478c.116,0,.116-.116.232-.232,0-.116,0-.116-.116-.232l-11.942-4.985a2.234,2.234,0,0,1-1.507-1.855,3.086,3.086,0,0,1,1.043-2.551l.812-.927a6.71,6.71,0,0,1,2.9-1.739,3.813,3.813,0,0,1,3.014.116l17.159,7.188c.116.116.232.116.464.116a2.187,2.187,0,0,1,.927.232,1.936,1.936,0,0,1,1.275,1.391l.58,1.623a3.023,3.023,0,0,1-.58,2.551,2.53,2.53,0,0,1-.464.58,6.185,6.185,0,0,1-2.2,1.507c-6.492,2.782-12.173,4.869-16.927,6.376a1.87,1.87,0,0,0-.812.464l-1.275,1.391c-.232.232-.232.464.116.58Z" transform="translate(-1467.989 -2068.608)" fill="#71bf87" stroke="#030000" stroke-miterlimit="10" stroke-width="1"/>
      <path id="Path_7049" data-name="Path 7049" d="M1619.507,2116.33a1.985,1.985,0,0,1,1.391,1.855,3.344,3.344,0,0,1-.928,2.551l-25.39,28.4a6.1,6.1,0,0,1-2.9,1.739,4.453,4.453,0,0,1-3.014,0l-4.753-1.971a.611.611,0,0,0-.812.232l-.7.7a5.731,5.731,0,0,1-2.783,1.739,4.453,4.453,0,0,1-3.014,0l-.116-.116a1.984,1.984,0,0,1-1.391-1.855,3.344,3.344,0,0,1,.927-2.551l29.1-32.579a6.1,6.1,0,0,1,2.9-1.739,4.455,4.455,0,0,1,3.014,0Zm10.782,35.593a6.881,6.881,0,0,1,3.246-1.159,5.123,5.123,0,0,1,1.971.232c.232.116.58.232.7.464l.348.232a2.188,2.188,0,0,1,.7,2.2,2.475,2.475,0,0,1-.812,1.391,8.421,8.421,0,0,1-1.043.928,116.813,116.813,0,0,1-14.956,8.232,1.187,1.187,0,0,0-.7.58c-1.971,3.014-2.551,4.754-1.855,4.985.348.116,1.623-.7,3.478-2.667a2.35,2.35,0,0,1,1.855-.7c.7,0,1.159.348,1.159.927,0,.116.116.116.116.232a4.953,4.953,0,0,1-.116,2.9,4.538,4.538,0,0,1-1.159,1.855,5.343,5.343,0,0,1-.812.812,18.286,18.286,0,0,1-6.492,3.71,8.552,8.552,0,0,1-5.333-.464c-2.435-1.043-2.9-3.478-1.391-7.536.116-.232,0-.348-.348-.232l-5.217,1.391a3.789,3.789,0,0,1-2.319-.116c-.116-.116-.232-.116-.348-.232a2.278,2.278,0,0,1-1.044-1.971,30.4,30.4,0,0,0,.116-3.13c0-.116-.116-.116-.232-.116s-.116,0-.232.116a10.6,10.6,0,0,1-6.029,2.782,14.71,14.71,0,0,1-6.724-1.043.4.4,0,0,1-.232-.116,2.153,2.153,0,0,1-1.391-1.623,3.264,3.264,0,0,1,.464-2.667c.232-.58.58-1.043.812-1.623a3.527,3.527,0,0,1,.58-.812,4.377,4.377,0,0,1,1.391-1.043,3.008,3.008,0,0,1,2.435-.116h0c.7.348,1.507.58,2.319,1.043a1.638,1.638,0,0,0,1.043.116,3.8,3.8,0,0,0,.928-.7l6.145-6.956c.232-.232.232-.464-.116-.464l-1.507-.232a1.648,1.648,0,0,1-.7-.232,2.3,2.3,0,0,1-1.275-1.275,2.42,2.42,0,0,1,.348-2.435l.7-1.159c.116-.232.348-.464.464-.7a5.579,5.579,0,0,1,5.1-1.739c1.043.232,1.971.464,3.014.7a.716.716,0,0,0,.811-.232l4.638-5.1c.232-.232.232-.464-.116-.58l-2.319-1.043a2.273,2.273,0,0,1-1.507-1.855,3.344,3.344,0,0,1,.927-2.551l.7-.812a6.1,6.1,0,0,1,2.9-1.739,4.453,4.453,0,0,1,3.014,0l2.319,1.043a.611.611,0,0,0,.812-.232l3.594-4.058c.232-.232.232-.464-.116-.464-.232,0-.348-.116-.58-.116a1.677,1.677,0,0,1-.811-.232,2.074,2.074,0,0,1-1.159-1.043,2.957,2.957,0,0,1,0-2.435l.7-1.043a10.413,10.413,0,0,1,1.159-1.043,4.183,4.183,0,0,1,2.782-.7c3.71.464,7.3.58,10.782.7a4.707,4.707,0,0,1,2.2.464,5.683,5.683,0,0,0,.812.348,2.626,2.626,0,0,1,1.275,2.2l.348,2.667c0,.116,0,.116.116.116s.232,0,.232-.116l.927-1.043a6.713,6.713,0,0,1,2.9-1.739,3.813,3.813,0,0,1,3.014.116l.812.348a1.984,1.984,0,0,1,1.391,1.855,3.107,3.107,0,0,1-.927,2.435l-3.826,4.174c-1.971,2.2-4.058,4.521-5.913,6.84-.232.232-.232.464.116.58l5.8,2.435a2.234,2.234,0,0,1,1.507,1.855,3.086,3.086,0,0,1-1.044,2.551l-.7.812a6.712,6.712,0,0,1-2.9,1.739,3.812,3.812,0,0,1-3.014-.116l-5.565-2.319a.558.558,0,0,0-.7.232c-.464.58-1.275,1.507-2.2,2.667s-1.623,1.971-1.971,2.435v.116h.116A3.82,3.82,0,0,0,1630.289,2151.923Zm-19.593-30.607c.232-.232.232-.464-.116-.58l-1.043-.464a.611.611,0,0,0-.812.232l-19.478,21.8c-.232.232-.232.464.116.58l1.044.464a.465.465,0,0,0,.7-.232Zm-.232,32.23a1.053,1.053,0,0,0-.812.348l-7.536,8.464a5.371,5.371,0,0,1-1.159,1.159c-.116.116-.116.116,0,.232,0,.116.116.116.232.116a62.228,62.228,0,0,0,12.289-3.246,2.078,2.078,0,0,0,.812-.58,171.25,171.25,0,0,1,11.362-14.956c.232-.232.232-.464-.116-.58l-4.985-2.087c-.232-.116-.464,0-.7.232l-3.478,3.942c-.232.232-.232.464.116.464l1.391.348c.232.116.348.116.58.232a2.3,2.3,0,0,1,1.275,1.275,2.786,2.786,0,0,1-.58,2.435l-.348.348c0,.116-.116.232-.232.348a8.259,8.259,0,0,1-2.551,1.739,5.557,5.557,0,0,1-3.246.464A4.959,4.959,0,0,0,1610.464,2153.546Zm22.376-25.042a1.052,1.052,0,0,0-.812.348l-5.333,5.913c-.232.232-.232.464,0,.464l4.753,1.971c.232.116.464,0,.7-.232.811-.927,1.971-2.2,3.362-3.942,1.507-1.739,2.551-3.015,3.246-3.826a.359.359,0,0,0,.116-.232c0-.116-.116-.116-.232-.116A56.9,56.9,0,0,1,1632.84,2128.5Zm20.869,9.043a2.085,2.085,0,0,1-.7,1.043,6.1,6.1,0,0,1-1.623,1.275,6.986,6.986,0,0,1-3.362.928h-.58a3.435,3.435,0,0,1-1.159-.232c-.464-.232-.812-.464-.928-.812a2.35,2.35,0,0,1,0-2.319c.7-1.391,1.507-2.9,2.2-4.406a10.216,10.216,0,0,1,.7-1.159,4.643,4.643,0,0,1,1.391-1.159,5.3,5.3,0,0,1,3.13-.812,2.756,2.756,0,0,1,1.391.348,2.525,2.525,0,0,1,1.043.812,2.088,2.088,0,0,1,.232,2.319A22.527,22.527,0,0,1,1653.709,2137.547Z" transform="translate(-1459.717 -2065.313)" fill="#71bf87" stroke="#030000" stroke-miterlimit="10" stroke-width="1"/>
    </g>
    <g id="Group_636" data-name="Group 636" transform="translate(88.175 127.925)">
      <path id="Path_7050" data-name="Path 7050" d="M1414.4,2134.665c-.116,0-.116,0-.232.116s-.116.116-.116.232a29.618,29.618,0,0,1,.928,3.594,1.6,1.6,0,0,1-.348,1.391c0,.116-.116.116-.116.232a3,3,0,0,1-1.275.812,1.715,1.715,0,0,1-1.507,0h0c-.464-.232-.7-.464-.7-.927s-.116-.927-.116-1.391h-.232l-4.174,4.521a4.866,4.866,0,0,1-1.623,1.043,2.242,2.242,0,0,1-1.739,0,1.238,1.238,0,0,1-.812-1.043,2.078,2.078,0,0,1,.58-1.507l3.826-4.174v-.116h-.116a40.862,40.862,0,0,1-5.217,1.855,3.3,3.3,0,0,1-1.507,0,.114.114,0,0,1-.116-.116,1.163,1.163,0,0,1-.7-1.159,1.615,1.615,0,0,1,.58-1.276,3.308,3.308,0,0,1,1.623-.927,39.7,39.7,0,0,0,8.347-2.9l.116-.116a.114.114,0,0,0-.116-.116l-3.014-1.275c-.464-.232-.7-.464-.7-.927a1.932,1.932,0,0,1,.464-1.275,2.956,2.956,0,0,1,1.391-.927,3.292,3.292,0,0,1,1.507,0l3.71,1.623c.116.116.232,0,.464-.116l1.739-1.971a.217.217,0,0,0,0-.348l-3.942-1.623c-.464-.232-.7-.464-.7-.928a1.614,1.614,0,0,1,.58-1.275,2.956,2.956,0,0,1,1.391-.927,3.3,3.3,0,0,1,1.507,0l1.159.464c.116.116.232,0,.348-.116a11.441,11.441,0,0,0,1.043-1.739,1.6,1.6,0,0,1,.348-.464,6.447,6.447,0,0,1,.927-.7,2.2,2.2,0,0,1,1.623-.348v-.116l-1.739-.812c-.464-.232-.7-.464-.7-.927a1.932,1.932,0,0,1,.464-1.275,2.15,2.15,0,0,1,1.391-.812,3.3,3.3,0,0,1,1.507,0l3.594,1.507c.116.116.232,0,.464-.116l.7-.811a4.365,4.365,0,0,1,1.739-1.043,2.937,2.937,0,0,1,1.739,0,1.238,1.238,0,0,1,.812,1.043,2.261,2.261,0,0,1-.58,1.507l-.7.812a.218.218,0,0,0,0,.348l3.478,1.507c.464.232.7.464.7.927a1.932,1.932,0,0,1-.464,1.275,2.15,2.15,0,0,1-1.391.812,3.3,3.3,0,0,1-1.507,0l-1.507-.7v.116a.88.88,0,0,1,.348,1.043l-.348.7a1.158,1.158,0,0,1-.58.464c-1.043.58-1.855,1.159-2.435,1.507l-.116.116v.116l1.391.58c.464.232.7.464.7.927a1.614,1.614,0,0,1-.58,1.275,2.956,2.956,0,0,1-1.391.927,3.291,3.291,0,0,1-1.507,0l-3.71-1.623c-.116-.116-.348,0-.464.116l-1.739,1.971a.217.217,0,0,0,0,.348l3.362,1.507c.464.232.7.464.7.927a1.614,1.614,0,0,1-.58,1.276,2.958,2.958,0,0,1-1.391.927,3.3,3.3,0,0,1-1.507,0Zm25.39-.348a1.474,1.474,0,0,1,.812,1.043,1.837,1.837,0,0,1-.58,1.391,2.873,2.873,0,0,1-1.623.927,1.962,1.962,0,0,1-1.623,0l-1.043-.464c-.116-.116-.232,0-.464.116l-11.826,12.985a4.866,4.866,0,0,1-1.623,1.043,2.24,2.24,0,0,1-1.739,0,1.238,1.238,0,0,1-.812-1.043,2.079,2.079,0,0,1,.58-1.507l11.826-12.985a.217.217,0,0,0,0-.348l-2.782-1.159c-.116-.116-.232,0-.464.116-5.449,5.913-10.9,9.971-16.115,12.057a1.7,1.7,0,0,1-1.507,0h-.116a1.114,1.114,0,0,1-.7-1.043v-.116a1.7,1.7,0,0,1,.464-1.391c0-.116.116-.116.232-.232a5.145,5.145,0,0,1,1.275-.928,26.82,26.82,0,0,0,4.058-2.087,28.164,28.164,0,0,0,3.71-2.782c1.159-1.043,2.2-1.971,3.014-2.782s1.739-1.855,2.782-2.9l8.116-8.927a2.771,2.771,0,0,1,1.507-.812,1.452,1.452,0,0,1,1.043.116c.116,0,.232.116.348.232l.116.116a.6.6,0,0,0,.464.232,50.722,50.722,0,0,0,7.884.7,5.828,5.828,0,0,1,1.391.232c.116.116.232.116.348.232a1.573,1.573,0,0,1,.812,1.275l.116.464a1.316,1.316,0,0,1-.348.927l-.232.232a1.7,1.7,0,0,1-1.391.464,84.531,84.531,0,0,1-9.739-1.159.463.463,0,0,0-.464.232l-3.478,3.826a.217.217,0,0,0,0,.348Zm-14.144-11.594c0-.116.116-.116.116-.232s0-.116-.116-.116l-4.29-1.855h-.232a.114.114,0,0,0-.116.116,16.42,16.42,0,0,1-.928,2.087,4.6,4.6,0,0,1-.348.464,1.831,1.831,0,0,1-.928.58,3.569,3.569,0,0,1-1.507.348h0l5.8,2.551h0l-.116-.116a1.05,1.05,0,0,1-.348-1.159,1.867,1.867,0,0,1,.464-.812,1.157,1.157,0,0,1,.58-.464A14.451,14.451,0,0,0,1425.65,2122.723Z" transform="translate(-1399.1 -2115.283)" fill="#231815"/>
      <path id="Path_7051" data-name="Path 7051" d="M1452.3,2134.046a13.461,13.461,0,0,1,2.2,1.043,1.052,1.052,0,0,1,.348.812,1.43,1.43,0,0,1-.464.927,87.53,87.53,0,0,1-13.681,11.13c-.232.116-.232.232-.232.348.232.927.348,1.855.464,2.551a1.639,1.639,0,0,1-.7,1.623,5.229,5.229,0,0,1-1.623,1.159l-.232.116a2.661,2.661,0,0,1-1.623.116h-.116c-.464-.232-.7-.464-.7-.928,0-.58-.116-1.275-.116-2.087,0-.116-.116-.232-.348-.116a39.012,39.012,0,0,1-8.116,2.667,1.8,1.8,0,0,1-1.159-.116c-.116,0-.232-.116-.348-.232a1.287,1.287,0,0,1-.464-1.275v-.116a2.081,2.081,0,0,1,.464-1.043l.232-.232a3.091,3.091,0,0,1,1.623-.812,24.463,24.463,0,0,0,7.072-2.435c.232-.116.232-.232.232-.348-.116-.348-.232-.927-.464-1.623,0-.116-.116-.116-.232,0a1.673,1.673,0,0,1-.812.232.885.885,0,0,1-.58-.232l-.464-.7a1.479,1.479,0,0,1,0-1.391,2.522,2.522,0,0,1,.58-.927,1.156,1.156,0,0,1,.58-.464q3.652-2.783,8.7-6.956a.217.217,0,0,0,0-.348l-.464-.232a1.475,1.475,0,0,1-.812-1.043,1.836,1.836,0,0,1,.58-1.391,2.872,2.872,0,0,1,1.623-.927,1.96,1.96,0,0,1,1.623,0l1.159.464c.116.116.348,0,.464-.116q2.609-2.087,4.522-3.826a3.046,3.046,0,0,1,1.739-.812,2.2,2.2,0,0,1,1.507.116.114.114,0,0,1,.116.116.957.957,0,0,1,.58,1.159,1.844,1.844,0,0,1-.58,1.159c-.116.116-.232.232-.348.232-1.275,1.159-2.782,2.319-4.29,3.478a.218.218,0,0,0,0,.348Zm-3.594,3.478a.217.217,0,0,0,0-.348l-2.2-.927c-.116-.116-.348,0-.464.116-1.855,1.507-4.29,3.478-7.188,5.681-.116.116-.232.232-.116.348a19.781,19.781,0,0,0,.812,2.087q0,.174.348,0A75.927,75.927,0,0,0,1448.708,2137.525Zm16.7,10.666a1.237,1.237,0,0,1,.812,1.043,1.836,1.836,0,0,1-.58,1.391,3.93,3.93,0,0,1-1.623,1.043,2.242,2.242,0,0,1-1.739,0l-4.985-2.087c-.116-.116-.232,0-.464.116l-8,8.812a16.945,16.945,0,0,1-2.319,2.087,5.4,5.4,0,0,1-2.319.7,11.916,11.916,0,0,1-4.058-.812h-.116a1.646,1.646,0,0,1-.928-1.043,2.1,2.1,0,0,1,.232-1.623c0-.116.116-.232.116-.348.116-.116.116-.348.348-.464a4.906,4.906,0,0,1,.812-.58,1.94,1.94,0,0,1,1.391-.116h0a11.317,11.317,0,0,0,1.275.58,1.647,1.647,0,0,0,.7.232,1.258,1.258,0,0,0,.58.116,1.061,1.061,0,0,0,.58-.348l8-8.812a.217.217,0,0,0,0-.348l-4.637-1.971a1.475,1.475,0,0,1-.812-1.043,1.836,1.836,0,0,1,.58-1.391,3.93,3.93,0,0,1,1.623-1.043,2.24,2.24,0,0,1,1.739,0l4.637,1.971c.116.116.232,0,.464-.116l2.087-2.319a2.527,2.527,0,0,1,.927-.58,1.608,1.608,0,0,1,1.043,0h.348a54.156,54.156,0,0,0,5.913-2.2l.116-.116v-.116l-7.884-3.362a1.475,1.475,0,0,1-.812-1.043,1.836,1.836,0,0,1,.58-1.391,2.872,2.872,0,0,1,1.623-.927,2.562,2.562,0,0,1,1.623,0l10.55,4.521h.232c.232,0,.348.116.464.116a.952.952,0,0,1,.58.58l.232.811a1.7,1.7,0,0,1-.232,1.276c-.116.116-.116.232-.232.232a2.738,2.738,0,0,1-1.043.7,107.343,107.343,0,0,1-10.55,3.71c-.232,0-.348.116-.464.348l-1.159,1.275a.217.217,0,0,0,0,.348Z" transform="translate(-1394.913 -2113.506)" fill="#231815"/>
      <path id="Path_7052" data-name="Path 7052" d="M1480.454,2139.98a3.848,3.848,0,0,1,1.855-.58,1.722,1.722,0,0,1,1.043.232,1.6,1.6,0,0,1,.464.348h0a1.263,1.263,0,0,1,.232,1.275,2.43,2.43,0,0,1-.464.7,3.079,3.079,0,0,1-.7.58c-1.971,1.159-3.942,2.2-5.913,3.246-.116.116-.348.232-.464.348l-17.739,19.478a3.929,3.929,0,0,1-1.623,1.043,2.24,2.24,0,0,1-1.739,0,1.237,1.237,0,0,1-.812-1.043,2.262,2.262,0,0,1,.58-1.507l12.985-14.26v-.116h-.116c-.812.348-1.623.58-2.551.928a1.965,1.965,0,0,1-1.159,0c-.116,0-.116,0-.232-.116a.88.88,0,0,1-.348-1.043c.116-.232.116-.464.232-.7a2.63,2.63,0,0,1,.811-1.275l.348-.348a5.879,5.879,0,0,1,1.855-1.043A72.552,72.552,0,0,0,1480.454,2139.98Zm-5.333,28.869a.217.217,0,0,0,0,.348l6.145,2.667a1.237,1.237,0,0,1,.812,1.043,1.836,1.836,0,0,1-.58,1.391,3.93,3.93,0,0,1-1.623,1.043,2.954,2.954,0,0,1-1.739,0l-16.811-7.3a1.238,1.238,0,0,1-.812-1.043,1.836,1.836,0,0,1,.58-1.391,3.932,3.932,0,0,1,1.623-1.043,2.958,2.958,0,0,1,1.739,0l6.377,2.782c.116.116.232,0,.464-.116l5.217-5.681a.217.217,0,0,0,0-.348l-4.637-1.971a1.474,1.474,0,0,1-.812-1.043,1.836,1.836,0,0,1,.58-1.391,3.933,3.933,0,0,1,1.623-1.043,2.242,2.242,0,0,1,1.739,0l4.638,1.971c.116.116.232,0,.464-.116l4.522-4.869a.218.218,0,0,0,0-.348l-5.681-2.435a1.238,1.238,0,0,1-.812-1.043,1.836,1.836,0,0,1,.58-1.391,3.931,3.931,0,0,1,1.623-1.043,2.24,2.24,0,0,1,1.739,0l6.956,3.014h.116s.116,0,0-.116a39.77,39.77,0,0,0-1.391-3.826,1.581,1.581,0,0,1,.232-1.391c0-.116.116-.116.232-.232a3.451,3.451,0,0,1,1.275-.812h0a3.873,3.873,0,0,1,1.971-.116c.116,0,.348.116.464.116a1.4,1.4,0,0,1,.812.812,26.661,26.661,0,0,1,1.855,4.29,1.6,1.6,0,0,1-.348,1.391.114.114,0,0,1-.116.116,2.958,2.958,0,0,1-1.391.927h-.116a.113.113,0,0,0-.116.116v.116l5.217,2.2a1.474,1.474,0,0,1,.812,1.043,1.836,1.836,0,0,1-.58,1.391,3.929,3.929,0,0,1-1.623,1.043,2.24,2.24,0,0,1-1.739,0l-5.681-2.435c-.116-.116-.348,0-.464.116l-4.522,4.869a.218.218,0,0,0,0,.348l4.753,2.087a1.238,1.238,0,0,1,.812,1.043,1.836,1.836,0,0,1-.58,1.391,3.929,3.929,0,0,1-1.623,1.043,2.24,2.24,0,0,1-1.739,0l-4.753-2.087c-.116-.116-.348,0-.464.116Z" transform="translate(-1390.255 -2111.439)" fill="#231815"/>
      <path id="Path_7053" data-name="Path 7053" d="M1497.364,2179.855l5.333,2.319a2.373,2.373,0,0,0,1.971.116,9.739,9.739,0,0,0,2.435-1.739,2.139,2.139,0,0,1,1.391-.58c.348,0,.58,0,.7.116s.348.232.464.348.116.232.232.348a1.524,1.524,0,0,1,.348,1.391,2.209,2.209,0,0,1-.58,1.159l-.348.348a12.394,12.394,0,0,1-4.869,2.9,6.854,6.854,0,0,1-4.638-.7l-6.145-2.667c-2.319-1.043-3.478-1.971-3.71-3.014q-.174-1.565,2.435-4.521l3.246-3.594c.116-.116.116-.232-.116-.232l-9.159-2.782c-.116,0-.116-.116-.232-.116a1.386,1.386,0,0,1-.812-.811,1.934,1.934,0,0,1,.348-1.507l.232-.232a4.169,4.169,0,0,1,1.391-.927,2.605,2.605,0,0,1,1.855-.116l9.623,3.014c.232,0,.348,0,.464-.116l2.435-2.667c.116-.116.116-.232-.116-.232l-5.217-1.391c-.116,0-.116,0-.232-.116a.994.994,0,0,1-.7-.812,2.308,2.308,0,0,1,.116-1.507,1.6,1.6,0,0,1,.348-.464,2.082,2.082,0,0,1,.811-.58,2.422,2.422,0,0,1,1.507-.232,86.46,86.46,0,0,0,15.883,3.015,2.774,2.774,0,0,1,1.043.232c.232.116.348.232.58.348a1.653,1.653,0,0,1,.7,1.391v.58a1.542,1.542,0,0,1-.348.927c-.116.116-.232.232-.348.232a2.33,2.33,0,0,1-1.507.464,63.172,63.172,0,0,1-7.42-1.043.463.463,0,0,0-.464.232l-2.667,3.014a.217.217,0,0,0,0,.348l11.71,3.594h.232a1.385,1.385,0,0,1,.811.812,1.6,1.6,0,0,1-.348,1.391l-.232.232a3,3,0,0,1-1.275.812,3.041,3.041,0,0,1-1.739.116l-12.173-3.71a.7.7,0,0,0-.464.116l-3.594,3.942c-.58.7-.927,1.159-.811,1.391A4.105,4.105,0,0,0,1497.364,2179.855ZM1502,2155.74c-.116-.116-.348,0-.464.116l-1.623,1.739a4.368,4.368,0,0,1-1.739,1.043,2.937,2.937,0,0,1-1.739,0l-.232-.116a1.237,1.237,0,0,1-.812-1.043,2.262,2.262,0,0,1,.58-1.507l3.362-3.71a4.864,4.864,0,0,1,1.623-1.043,2.934,2.934,0,0,1,1.739,0l9.391,4.058c.116.116.232,0,.464-.116l.58-.7a4.365,4.365,0,0,1,1.739-1.043,2.935,2.935,0,0,1,1.739,0l.348.116a1.238,1.238,0,0,1,.812,1.043,2.078,2.078,0,0,1-.58,1.507l-.58.7a.218.218,0,0,0,0,.348l9.507,4.174a1.238,1.238,0,0,1,.812,1.043,2.078,2.078,0,0,1-.58,1.507l-3.362,3.71a4.866,4.866,0,0,1-1.623,1.043,2.938,2.938,0,0,1-1.739,0l-.348-.116a1.237,1.237,0,0,1-.812-1.043,2.078,2.078,0,0,1,.58-1.507l1.623-1.739a.218.218,0,0,0,0-.348Z" transform="translate(-1385.368 -2109.577)" fill="#231815"/>
      <path id="Path_7054" data-name="Path 7054" d="M1526.9,2175.27a3.046,3.046,0,0,1,1.739-.812,2.3,2.3,0,0,1,1.275.116c.116,0,.232.116.348.232l.116.116a1.287,1.287,0,0,1,.464,1.275,3.13,3.13,0,0,1-.58,1.275c-.116.116-.116.232-.232.232a62.409,62.409,0,0,1-10.086,7.652,2.688,2.688,0,0,1-1.855.348c-.232,0-.348-.116-.464-.116a1.045,1.045,0,0,1-.7-.7l-.116-.348a1.492,1.492,0,0,1,.116-1.391c.116-.232.232-.348.348-.58a1.8,1.8,0,0,1,.927-.7A61.718,61.718,0,0,0,1526.9,2175.27Zm7.884.348a4.369,4.369,0,0,1,1.739-1.043,2.937,2.937,0,0,1,1.739,0l.232.116a1.238,1.238,0,0,1,.812,1.043,2.262,2.262,0,0,1-.58,1.507l-11.71,12.753c-.7.7-1.043,1.276-.928,1.507,0,.232.348.58,1.159.927l4.406,1.855a2.255,2.255,0,0,0,2.087-.232,18.64,18.64,0,0,0,3.478-3.014,1.92,1.92,0,0,1,1.391-.58,1.47,1.47,0,0,1,.7.116c.116.116.348.232.464.348,0,.116.116.116.116.232a2.253,2.253,0,0,1,.348,1.507,2.766,2.766,0,0,1-.7,1.275l-.232.232a15.857,15.857,0,0,1-5.565,3.826,6.255,6.255,0,0,1-4.753-.348l-5.1-2.2q-2.956-1.217-3.13-2.782c-.116-1.043.812-2.435,2.551-4.406Zm11.362,8.115a4.108,4.108,0,0,1,.464-1.043,1.6,1.6,0,0,1,.464-.348,3.674,3.674,0,0,1,1.739-.7h.348a3.574,3.574,0,0,1,1.159.116c.116.116.348.116.464.232a1.267,1.267,0,0,1,.464,1.391,36.749,36.749,0,0,1-3.13,9.739,2.432,2.432,0,0,1-.464.7,2.792,2.792,0,0,1-.928.7,4.272,4.272,0,0,1-1.971.58h-.812a1.715,1.715,0,0,1-.812-.116.9.9,0,0,1-.464-.464,1.252,1.252,0,0,1,0-1.275A30.964,30.964,0,0,0,1546.15,2183.733Zm-3.246-14.26a1.252,1.252,0,0,1,0-1.275c.116-.116.232-.232.232-.348a4.049,4.049,0,0,1,1.043-.7l.232-.116a4.314,4.314,0,0,1,2.087-.232,1.244,1.244,0,0,1,.7.232,1.188,1.188,0,0,1,.7.58,31.554,31.554,0,0,1,3.942,6.84,1.265,1.265,0,0,1-.232,1.391c-.116.116-.232.232-.232.348a2.435,2.435,0,0,1-1.275.812l-.7.232a3.438,3.438,0,0,1-1.855.232.4.4,0,0,1-.232-.116,1.4,1.4,0,0,1-.812-.811A27.185,27.185,0,0,0,1542.9,2169.473Z" transform="translate(-1380.359 -2107.079)" fill="#231815"/>
      <path id="Path_7055" data-name="Path 7055" d="M1567.4,2183.647a13.465,13.465,0,0,1,2.2,1.043.9.9,0,0,1,.348.812,1.43,1.43,0,0,1-.464.927,87.53,87.53,0,0,1-13.681,11.13c-.232.116-.232.232-.232.348.232.928.348,1.855.464,2.551a1.639,1.639,0,0,1-.7,1.623,5.225,5.225,0,0,1-1.623,1.159l-.232.116a2.61,2.61,0,0,1-1.623.116h-.116c-.464-.232-.7-.464-.7-.928,0-.58-.116-1.275-.116-2.087,0-.116-.116-.232-.348-.116a39.028,39.028,0,0,1-8.116,2.667,1.8,1.8,0,0,1-1.159-.116c-.116,0-.232-.116-.348-.232a1.288,1.288,0,0,1-.464-1.275v-.116a2.079,2.079,0,0,1,.464-1.043l.232-.232a3.091,3.091,0,0,1,1.623-.812,24.463,24.463,0,0,0,7.072-2.435c.232-.116.232-.232.232-.348-.116-.348-.232-.927-.464-1.623,0-.116-.116-.116-.232,0a1.675,1.675,0,0,1-.811.232.886.886,0,0,1-.58-.232l-.464-.7a1.939,1.939,0,0,1-.116-1.391,2.526,2.526,0,0,1,.58-.927,1.157,1.157,0,0,1,.58-.464q3.652-2.782,8.7-6.956a.218.218,0,0,0,0-.348l-.464-.232a1.475,1.475,0,0,1-.812-1.043,1.836,1.836,0,0,1,.58-1.391,2.873,2.873,0,0,1,1.623-.927,2.56,2.56,0,0,1,1.623,0l1.159.464c.116.116.348,0,.464-.116q2.609-2.087,4.522-3.826a3.046,3.046,0,0,1,1.739-.812,2.2,2.2,0,0,1,1.507.116.113.113,0,0,1,.116.116.957.957,0,0,1,.58,1.159,1.845,1.845,0,0,1-.58,1.159c-.116.116-.232.232-.348.232-1.275,1.159-2.782,2.319-4.29,3.478a.217.217,0,0,0,0,.348Zm-3.71,3.478a.217.217,0,0,0,0-.348l-2.2-.927c-.116-.116-.348,0-.464.116-1.855,1.507-4.29,3.478-7.188,5.681-.116.116-.232.232-.116.348a19.81,19.81,0,0,0,.812,2.087q0,.174.348,0A67.233,67.233,0,0,0,1563.692,2187.125Zm16.7,10.55a1.474,1.474,0,0,1,.812,1.043,1.836,1.836,0,0,1-.58,1.391,3.932,3.932,0,0,1-1.623,1.043,2.242,2.242,0,0,1-1.739,0l-4.985-2.087c-.116-.116-.232,0-.464.116l-8,8.811a16.941,16.941,0,0,1-2.319,2.087,5.4,5.4,0,0,1-2.319.7,11.916,11.916,0,0,1-4.058-.812H1555a1.645,1.645,0,0,1-.927-1.043,2.094,2.094,0,0,1,.232-1.623c0-.116.116-.232.116-.348.116-.116.116-.348.348-.464a4.906,4.906,0,0,1,.812-.58,1.94,1.94,0,0,1,1.391-.116h0a11.341,11.341,0,0,0,1.275.58,1.647,1.647,0,0,0,.7.232,1.258,1.258,0,0,0,.58.116,1.061,1.061,0,0,0,.58-.348l8-8.812a.217.217,0,0,0,0-.348l-4.637-1.971a1.475,1.475,0,0,1-.812-1.043,1.836,1.836,0,0,1,.58-1.391,3.929,3.929,0,0,1,1.623-1.043,2.24,2.24,0,0,1,1.739,0l4.638,1.971c.116.116.232,0,.348-.116l2.087-2.319a2.526,2.526,0,0,1,.927-.58,1.608,1.608,0,0,1,1.043,0h.348a54.207,54.207,0,0,0,5.913-2.2.114.114,0,0,0,.116-.116v-.116l-7.884-3.362a1.475,1.475,0,0,1-.812-1.043,1.836,1.836,0,0,1,.58-1.391,2.872,2.872,0,0,1,1.623-.927,2.56,2.56,0,0,1,1.623,0l10.55,4.521h.232c.232,0,.348.116.464.116a.953.953,0,0,1,.58.58l.232.812a1.7,1.7,0,0,1-.232,1.275c-.116.116-.116.232-.232.232a2.741,2.741,0,0,1-1.043.7,107.418,107.418,0,0,1-10.55,3.71c-.232,0-.348.116-.464.348l-1.159,1.275a.217.217,0,0,0,0,.348Z" transform="translate(-1376.569 -2105.601)" fill="#231815"/>
      <path id="Path_7056" data-name="Path 7056" d="M1585.966,2216.409a.218.218,0,0,0,0,.348l10.2,4.405a1.238,1.238,0,0,1,.812,1.043,2.078,2.078,0,0,1-.58,1.507h0a4.367,4.367,0,0,1-1.739,1.043,2.937,2.937,0,0,1-1.739,0l-24.811-10.667a1.237,1.237,0,0,1-.812-1.043,2.078,2.078,0,0,1,.58-1.507h0a4.365,4.365,0,0,1,1.739-1.043,2.933,2.933,0,0,1,1.739,0l10.087,4.406c.116.116.348,0,.464-.116l5.217-5.681a.218.218,0,0,0,0-.348l-6.493-2.782a1.238,1.238,0,0,1-.812-1.043,2.078,2.078,0,0,1,.58-1.507,4.862,4.862,0,0,1,1.623-1.043,2.24,2.24,0,0,1,1.739,0l6.493,2.782c.116.116.348,0,.464-.116l4.522-4.986a.217.217,0,0,0,0-.348l-6.029-2.667c-.116-.116-.348,0-.464,0-1.623.812-3.014,1.507-4.29,2.087a3.572,3.572,0,0,1-1.855.232.4.4,0,0,1-.232-.116,1.4,1.4,0,0,1-.812-.812c0-.116-.116-.232-.116-.348a1.582,1.582,0,0,1,.232-1.392c.116-.116.116-.231.232-.231a4.147,4.147,0,0,1,1.159-.812,54.549,54.549,0,0,0,11.13-6.261,2.845,2.845,0,0,1,1.855-.7,3.224,3.224,0,0,1,1.159.116c.116.116.232.116.348.232l.232.231a1.054,1.054,0,0,1,.348,1.275,3.461,3.461,0,0,1-.464.928,2.518,2.518,0,0,1-.58.464,36.64,36.64,0,0,1-3.13,2.087.116.116,0,0,0,0,.232l4.406,1.855c.116.116.348,0,.464-.116l3.246-3.594a4.863,4.863,0,0,1,1.623-1.043,2.934,2.934,0,0,1,1.739,0l.348.116a1.237,1.237,0,0,1,.811,1.043,2.078,2.078,0,0,1-.58,1.507l-3.246,3.594a.218.218,0,0,0,0,.348l8.579,3.71a1.237,1.237,0,0,1,.812,1.043,2.078,2.078,0,0,1-.58,1.507h0a4.863,4.863,0,0,1-1.623,1.043,2.24,2.24,0,0,1-1.739,0l-8.579-3.71c-.116-.116-.232,0-.348.116l-4.522,4.985a.217.217,0,0,0,0,.348l7.42,3.13a1.238,1.238,0,0,1,.812,1.043,2.078,2.078,0,0,1-.58,1.507,4.862,4.862,0,0,1-1.623,1.043,2.24,2.24,0,0,1-1.739,0l-7.42-3.13c-.116-.116-.232,0-.464.116Z" transform="translate(-1372.293 -2103.582)" fill="#231815"/>
      <path id="Path_7057" data-name="Path 7057" d="M1598.389,2225.908a3.162,3.162,0,0,1-1.739.232.4.4,0,0,1-.232-.116,1.226,1.226,0,0,1-.7-.812l-.116-.464a1.846,1.846,0,0,1,.348-1.507c.116-.116.116-.232.232-.348a5.148,5.148,0,0,1,1.275-.928c3.362-1.507,6.84-3.13,10.2-4.869a2.779,2.779,0,0,1,1.623-.232c.116,0,.232,0,.232.116a.773.773,0,0,1,.58.812v.116a2.208,2.208,0,0,1-.464,1.623c-.116.116-.232.348-.348.464a3.635,3.635,0,0,1-1.275.927C1604.765,2222.662,1601.519,2224.4,1598.389,2225.908Zm40-7.072a2.262,2.262,0,0,1-.58,1.507,3.933,3.933,0,0,1-1.623,1.043,2.24,2.24,0,0,1-1.739,0l-6.029-2.551c-.116-.116-.348,0-.464.116l-3.13,3.362a.217.217,0,0,0,0,.348l4.406,1.855a1.237,1.237,0,0,1,.812,1.043,2.078,2.078,0,0,1-.58,1.507l-8,8.811a3.934,3.934,0,0,1-1.623,1.043,2.243,2.243,0,0,1-1.739,0l-.812-.348a.771.771,0,0,1-.464-.58,1.252,1.252,0,0,1,.348-.811c.116-.116.116-.116,0-.116l-9.159-3.942a.426.426,0,0,0-.348.116,1.561,1.561,0,0,1-1.043.58,1.961,1.961,0,0,1-1.159,0l-.58-.232a1.114,1.114,0,0,1-.7-1.043,1.836,1.836,0,0,1,.58-1.391l8.232-9.043a4.862,4.862,0,0,1,1.623-1.043,2.24,2.24,0,0,1,1.739,0l4.406,1.855c.116.116.232,0,.464-.116l3.13-3.362a.218.218,0,0,0,0-.348l-6.377-2.782a1.237,1.237,0,0,1-.812-1.043,2.262,2.262,0,0,1,.58-1.507,3.929,3.929,0,0,1,1.623-1.043,2.24,2.24,0,0,1,1.739,0l6.377,2.782c.116.116.232,0,.464-.116l2.9-3.13c.116-.116.116-.232,0-.232-1.391-.348-3.014-.812-4.753-1.275-.116,0-.116,0-.232-.116a1.4,1.4,0,0,1-.812-.811,1.829,1.829,0,0,1,.232-1.507c.116-.116.232-.348.348-.464a2.082,2.082,0,0,1,.812-.58,2.423,2.423,0,0,1,1.507-.232,71.289,71.289,0,0,0,13.217,2.782,3.39,3.39,0,0,1,1.043.232,2.534,2.534,0,0,1,.58.348,1.653,1.653,0,0,1,.7,1.391v.464a1.542,1.542,0,0,1-.348.928c-.116.116-.232.232-.348.232a2.33,2.33,0,0,1-1.507.464,40.2,40.2,0,0,1-6.029-.927.463.463,0,0,0-.464.232l-3.362,3.71a.217.217,0,0,0,0,.348l6.029,2.551C1638.039,2218.025,1638.387,2218.373,1638.387,2218.836Zm-23.651-8.116a1.233,1.233,0,0,1-.116,1.391,4.6,4.6,0,0,1-.348.464,4.165,4.165,0,0,1-1.159.812l-.116.116a3.438,3.438,0,0,1-1.855.232c-.232,0-.348-.116-.464-.116a1.045,1.045,0,0,1-.7-.7,30.945,30.945,0,0,0-1.391-2.782,1.063,1.063,0,0,1,.116-1.275c.116-.116.116-.232.232-.348a1.688,1.688,0,0,1,1.043-.7,3.569,3.569,0,0,1,1.855-.232,5.016,5.016,0,0,1,.58.116,1.187,1.187,0,0,1,.7.58C1613.808,2209.213,1614.272,2210.025,1614.736,2210.72Zm5.449,20.753c.116.116.232,0,.464-.116l3.71-4.058a.217.217,0,0,0,0-.348l-9.043-3.942c-.116-.116-.348,0-.464.116l-3.71,4.058a.217.217,0,0,0,0,.348Zm3.594-28.4a1.492,1.492,0,0,1-.116,1.391l-.348.348a4.165,4.165,0,0,1-1.159.812h-.232a3.569,3.569,0,0,1-1.855.232c-.116,0-.232-.116-.348-.116-.348-.116-.58-.464-.812-.7-.348-.7-.7-1.623-1.275-2.782a1.287,1.287,0,0,1,.116-1.275c.116-.116.116-.232.232-.348a2.738,2.738,0,0,1,1.043-.7,3.569,3.569,0,0,1,1.855-.232c.232,0,.348.116.464.116a2.08,2.08,0,0,1,.812.58A14.89,14.89,0,0,1,1623.779,2203.069Z" transform="translate(-1367.789 -2101.835)" fill="#231815"/>
    </g>
  </g>
</svg>
