<svg xmlns="http://www.w3.org/2000/svg" width="676.4" height="195" viewBox="0 0 676.4 195">
  <g id="house1" transform="translate(-1627.6 -2225.2)">
    <g id="Group_6" data-name="Group 6" transform="translate(-109.5)">
      <g id="Group_4" data-name="Group 4">
        <path id="Path_2" data-name="Path 2" d="M1857.4,2420.1h-77.2V2311l38.6-37.5,38.6,37.5v109.1Z" fill="#561d21"/>
        <path id="Path_3" data-name="Path 3" d="M1819.2,2273.5h90.2l38.3,37.5h-90.1Z" fill="#ca5320"/>
        <path id="Path_4" data-name="Path 4" d="M1857.6,2420.1h90.1V2311h-33.8l-11.2-14.7-11.3,14.7h-33.8v109.1Z" fill="#fff"/>
        <path id="Path_5" data-name="Path 5" d="M1880.2,2296.3l11.3,14.7,11.2-14.7Z" fill="#561d21"/>
        <g id="Group_3" data-name="Group 3">
          <rect id="Rectangle_36" data-name="Rectangle 36" width="6.4" height="8.1" transform="translate(1815.6 2295)" fill="#fff"/>
          <rect id="Rectangle_37" data-name="Rectangle 37" width="6.4" height="8.1" transform="translate(1802.4 2311.9)" fill="#fff"/>
          <rect id="Rectangle_38" data-name="Rectangle 38" width="6.4" height="8.1" transform="translate(1815.6 2311.9)" fill="#fff"/>
          <rect id="Rectangle_39" data-name="Rectangle 39" width="6.4" height="8.1" transform="translate(1828.7 2311.9)" fill="#fff"/>
          <rect id="Rectangle_40" data-name="Rectangle 40" width="6.4" height="8.1" transform="translate(1789.2 2328.8)" fill="#fff"/>
          <rect id="Rectangle_41" data-name="Rectangle 41" width="6.4" height="8.1" transform="translate(1802.4 2328.8)" fill="#fff"/>
          <rect id="Rectangle_42" data-name="Rectangle 42" width="6.4" height="8.1" transform="translate(1815.6 2328.8)" fill="#fff"/>
          <rect id="Rectangle_43" data-name="Rectangle 43" width="6.4" height="8.1" transform="translate(1828.7 2328.8)" fill="#fff"/>
          <rect id="Rectangle_44" data-name="Rectangle 44" width="6.4" height="8.1" transform="translate(1841.9 2328.8)" fill="#fff"/>
          <rect id="Rectangle_45" data-name="Rectangle 45" width="6.4" height="8.1" transform="translate(1789.2 2345.7)" fill="#fff"/>
          <rect id="Rectangle_46" data-name="Rectangle 46" width="6.4" height="8.1" transform="translate(1802.4 2345.7)" fill="#fff"/>
          <rect id="Rectangle_47" data-name="Rectangle 47" width="6.4" height="8.1" transform="translate(1815.6 2345.7)" fill="#fff"/>
          <rect id="Rectangle_48" data-name="Rectangle 48" width="6.4" height="8.1" transform="translate(1828.7 2345.7)" fill="#fff"/>
          <rect id="Rectangle_49" data-name="Rectangle 49" width="6.4" height="8.1" transform="translate(1841.9 2345.7)" fill="#fff"/>
          <rect id="Rectangle_50" data-name="Rectangle 50" width="6.4" height="8.1" transform="translate(1789.2 2362.6)" fill="#fff"/>
          <rect id="Rectangle_51" data-name="Rectangle 51" width="6.4" height="8.1" transform="translate(1802.4 2362.6)" fill="#fff"/>
          <rect id="Rectangle_52" data-name="Rectangle 52" width="6.4" height="8.1" transform="translate(1815.6 2362.6)" fill="#fff"/>
          <rect id="Rectangle_53" data-name="Rectangle 53" width="6.4" height="8.1" transform="translate(1828.7 2362.6)" fill="#fff"/>
          <rect id="Rectangle_54" data-name="Rectangle 54" width="6.4" height="8.1" transform="translate(1841.9 2362.6)" fill="#fff"/>
        </g>
      </g>
      <g id="Group_5" data-name="Group 5">
        <rect id="Rectangle_55" data-name="Rectangle 55" width="4.7" height="20.2" transform="translate(1881.1 2337)" fill="#ca5320"/>
        <rect id="Rectangle_56" data-name="Rectangle 56" width="4.7" height="20.2" transform="translate(1890.7 2337)" fill="#ca5320"/>
        <rect id="Rectangle_57" data-name="Rectangle 57" width="4.7" height="20.2" transform="translate(1900.2 2337)" fill="#ca5320"/>
        <rect id="Rectangle_58" data-name="Rectangle 58" width="4.7" height="20.2" transform="translate(1909.8 2337)" fill="#ca5320"/>
        <rect id="Rectangle_59" data-name="Rectangle 59" width="4.7" height="20.2" transform="translate(1919.3 2337)" fill="#ca5320"/>
        <rect id="Rectangle_60" data-name="Rectangle 60" width="4.7" height="20.2" transform="translate(1881.1 2379)" fill="#ca5320"/>
        <rect id="Rectangle_61" data-name="Rectangle 61" width="4.7" height="20.2" transform="translate(1890.7 2379)" fill="#ca5320"/>
        <rect id="Rectangle_62" data-name="Rectangle 62" width="4.7" height="20.2" transform="translate(1900.2 2379)" fill="#ca5320"/>
        <rect id="Rectangle_63" data-name="Rectangle 63" width="4.7" height="20.2" transform="translate(1909.8 2379)" fill="#ca5320"/>
        <rect id="Rectangle_64" data-name="Rectangle 64" width="4.7" height="20.2" transform="translate(1919.3 2379)" fill="#ca5320"/>
      </g>
    </g>
    <path id="Path_6" data-name="Path 6" d="M1879.9,2420.1a55.9,55.9,0,0,0,.6-8.3,13.87,13.87,0,0,0-13.9-13.9,9.142,9.142,0,0,0-1.6.1,15.963,15.963,0,0,0-14.9-10.9,17.119,17.119,0,0,0-17.1-15.7,15.982,15.982,0,0,0-7.9,2,12.754,12.754,0,0,0,.1-2,17.619,17.619,0,0,0-34.7-4.3,14.009,14.009,0,0,0-9.8-4,14.308,14.308,0,0,0-13.7,10.3,14.659,14.659,0,0,0-4.2-.5,16.346,16.346,0,0,0-16.4,16.4,17,17,0,0,0,1.3,6.4,15.314,15.314,0,0,0-10.6,14.6c0,2,.4,8,1.1,9.8h141.7Z" transform="translate(-109.5)" fill="#f5d062"/>
    <path id="Path_7" data-name="Path 7" d="M2367.9,2382.5c-.4-.1-.9-.3-1.3-.4-31.9-10.8-32.3-52.7-64.4-63-26.2-8.4-53.9,10.2-82,10.3-24.6.1-48.1-14.1-72-9.6-18,3.3-31,16.4-48.6,20.7-24.8,6-52.7-6.4-76.8,1.2-12.4,3.9-21.4,12.6-32,19-23.4,14.2-54.1,17.5-83.3,17.6s-58.7-2.5-87.5,1.7-57.7,18.5-69.2,40.2h617.3v-37.7Z" transform="translate(-109.5)" fill="#561d21"/>
    <path id="Path_8" data-name="Path 8" d="M2203.8,2420.1c-7.5-11.9-22.7-19-36.6-16.1-11.9,2.5-22.7,11.2-34.8,9.8-15.9-1.7-25.5-19.7-40.9-24.2-17.6-5-34.7,9-52.8,11.5-31.2,4.3-56.9-25.5-88-30.7-23.8-4-47.5,7.1-68.2,19.6-19,11.5-37.7,24.6-59,30h380.3Z" transform="translate(-109.5)" fill="#f5d062"/>
    <g id="Group_2" data-name="Group 2" transform="translate(-109.5)">
      <rect id="Rectangle_5" data-name="Rectangle 5" width="82.3" height="192.7" transform="translate(2175.7 2225.2)" fill="#ca5320"/>
      <g id="Group_1" data-name="Group 1">
        <rect id="Rectangle_6" data-name="Rectangle 6" width="12.9" height="5.1" transform="translate(2190.843 2238.854) rotate(90)" fill="#fff"/>
        <rect id="Rectangle_7" data-name="Rectangle 7" width="12.9" height="5.1" transform="translate(2205.114 2238.783) rotate(90)" fill="#fff"/>
        <rect id="Rectangle_8" data-name="Rectangle 8" width="12.9" height="5.1" transform="translate(2219.385 2238.811) rotate(90)" fill="#fff"/>
        <rect id="Rectangle_9" data-name="Rectangle 9" width="12.9" height="5.1" transform="translate(2233.657 2238.84) rotate(90)" fill="#fff"/>
        <rect id="Rectangle_10" data-name="Rectangle 10" width="12.9" height="5.1" transform="translate(2247.928 2238.768) rotate(90)" fill="#fff"/>
        <rect id="Rectangle_11" data-name="Rectangle 11" width="12.9" height="5.1" transform="translate(2190.875 2269.587) rotate(90)" fill="#fff"/>
        <rect id="Rectangle_12" data-name="Rectangle 12" width="12.9" height="5.1" transform="translate(2205.147 2269.516) rotate(90)" fill="#fff"/>
        <rect id="Rectangle_13" data-name="Rectangle 13" width="12.9" height="5.1" transform="translate(2219.418 2269.544) rotate(90)" fill="#fff"/>
        <rect id="Rectangle_14" data-name="Rectangle 14" width="12.9" height="5.1" transform="translate(2233.69 2269.573) rotate(90)" fill="#fff"/>
        <rect id="Rectangle_15" data-name="Rectangle 15" width="12.9" height="5.1" transform="translate(2247.961 2269.501) rotate(90)" fill="#fff"/>
        <rect id="Rectangle_16" data-name="Rectangle 16" width="12.9" height="5.1" transform="translate(2190.808 2300.319) rotate(90)" fill="#fff"/>
        <rect id="Rectangle_17" data-name="Rectangle 17" width="12.9" height="5.1" transform="translate(2205.079 2300.248) rotate(90)" fill="#fff"/>
        <rect id="Rectangle_18" data-name="Rectangle 18" width="12.9" height="5.1" transform="translate(2219.351 2300.277) rotate(90)" fill="#fff"/>
        <rect id="Rectangle_19" data-name="Rectangle 19" width="12.9" height="5.1" transform="translate(2233.622 2300.305) rotate(90)" fill="#fff"/>
        <rect id="Rectangle_20" data-name="Rectangle 20" width="12.9" height="5.1" transform="translate(2247.894 2300.234) rotate(90)" fill="#fff"/>
        <rect id="Rectangle_21" data-name="Rectangle 21" width="12.9" height="5.1" transform="translate(2190.836 2329.948) rotate(90)" fill="#fff"/>
        <rect id="Rectangle_22" data-name="Rectangle 22" width="12.9" height="5.1" transform="translate(2205.108 2329.876) rotate(90)" fill="#fff"/>
        <rect id="Rectangle_23" data-name="Rectangle 23" width="12.9" height="5.1" transform="translate(2219.379 2329.905) rotate(90)" fill="#fff"/>
        <rect id="Rectangle_24" data-name="Rectangle 24" width="12.9" height="5.1" transform="translate(2233.651 2329.934) rotate(90)" fill="#fff"/>
        <rect id="Rectangle_25" data-name="Rectangle 25" width="12.9" height="5.1" transform="translate(2247.922 2329.862) rotate(90)" fill="#fff"/>
        <rect id="Rectangle_26" data-name="Rectangle 26" width="12.9" height="5.1" transform="translate(2190.869 2360.68) rotate(90)" fill="#fff"/>
        <rect id="Rectangle_27" data-name="Rectangle 27" width="12.9" height="5.1" transform="translate(2205.141 2360.609) rotate(90)" fill="#fff"/>
        <rect id="Rectangle_28" data-name="Rectangle 28" width="12.9" height="5.1" transform="translate(2219.412 2360.637) rotate(90)" fill="#fff"/>
        <rect id="Rectangle_29" data-name="Rectangle 29" width="12.9" height="5.1" transform="translate(2233.683 2360.666) rotate(90)" fill="#fff"/>
        <rect id="Rectangle_30" data-name="Rectangle 30" width="12.9" height="5.1" transform="translate(2247.955 2360.595) rotate(90)" fill="#fff"/>
        <rect id="Rectangle_31" data-name="Rectangle 31" width="12.9" height="5.1" transform="translate(2190.902 2391.413) rotate(90)" fill="#fff"/>
        <rect id="Rectangle_32" data-name="Rectangle 32" width="12.9" height="5.1" transform="translate(2205.174 2391.342) rotate(90)" fill="#fff"/>
        <rect id="Rectangle_33" data-name="Rectangle 33" width="12.9" height="5.1" transform="translate(2219.445 2391.37) rotate(90)" fill="#fff"/>
        <rect id="Rectangle_34" data-name="Rectangle 34" width="12.9" height="5.1" transform="translate(2233.716 2391.399) rotate(90)" fill="#fff"/>
        <rect id="Rectangle_35" data-name="Rectangle 35" width="12.9" height="5.1" transform="translate(2247.988 2391.328) rotate(90)" fill="#fff"/>
      </g>
    </g>
    <g id="Group_8" data-name="Group 8" transform="translate(-109.5)">
      <path id="Path_9" data-name="Path 9" d="M2363.9,2420.1h-67.5V2294.9l33.8-32.8,33.7,32.8v125.2Z" fill="#ef8946"/>
      <g id="Group_7" data-name="Group 7">
        <path id="Path_10" data-name="Path 10" d="M2334.2,2297.7a4.118,4.118,0,0,1-4.1,4.1,4.055,4.055,0,0,1-4.1-4.1,4.1,4.1,0,0,1,8.2,0Z" fill="#fff"/>
        <path id="Path_11" data-name="Path 11" d="M2316.2,2316.6a4.118,4.118,0,0,1-4.1,4.1,4.055,4.055,0,0,1-4.1-4.1,4.1,4.1,0,0,1,8.2,0Z" fill="#fff"/>
        <path id="Path_12" data-name="Path 12" d="M2334.2,2316.6a4.118,4.118,0,0,1-4.1,4.1,4.055,4.055,0,0,1-4.1-4.1,4.1,4.1,0,0,1,8.2,0Z" fill="#fff"/>
        <path id="Path_13" data-name="Path 13" d="M2352.3,2316.6a4.1,4.1,0,1,1-4.1-4.1A4.256,4.256,0,0,1,2352.3,2316.6Z" fill="#fff"/>
        <path id="Path_14" data-name="Path 14" d="M2316.2,2335.6a4.118,4.118,0,0,1-4.1,4.1,4.055,4.055,0,0,1-4.1-4.1,4.118,4.118,0,0,1,4.1-4.1A4.055,4.055,0,0,1,2316.2,2335.6Z" fill="#fff"/>
        <path id="Path_15" data-name="Path 15" d="M2334.2,2335.6a4.118,4.118,0,0,1-4.1,4.1,4.055,4.055,0,0,1-4.1-4.1,4.118,4.118,0,0,1,4.1-4.1A4.055,4.055,0,0,1,2334.2,2335.6Z" fill="#fff"/>
        <path id="Path_16" data-name="Path 16" d="M2352.3,2335.6a4.1,4.1,0,1,1-4.1-4.1A4.118,4.118,0,0,1,2352.3,2335.6Z" fill="#fff"/>
        <path id="Path_17" data-name="Path 17" d="M2316.2,2354.5a4.118,4.118,0,0,1-4.1,4.1,4.055,4.055,0,0,1-4.1-4.1,4.1,4.1,0,0,1,8.2,0Z" fill="#fff"/>
        <path id="Path_18" data-name="Path 18" d="M2334.2,2354.5a4.118,4.118,0,0,1-4.1,4.1,4.055,4.055,0,0,1-4.1-4.1,4.1,4.1,0,0,1,8.2,0Z" fill="#fff"/>
        <path id="Path_19" data-name="Path 19" d="M2352.3,2354.5a4.1,4.1,0,1,1-4.1-4.1A4.256,4.256,0,0,1,2352.3,2354.5Z" fill="#fff"/>
        <path id="Path_20" data-name="Path 20" d="M2316.2,2373.5a4.118,4.118,0,0,1-4.1,4.1,4.055,4.055,0,0,1-4.1-4.1,4.118,4.118,0,0,1,4.1-4.1A4.055,4.055,0,0,1,2316.2,2373.5Z" fill="#fff"/>
        <path id="Path_21" data-name="Path 21" d="M2334.2,2373.5a4.118,4.118,0,0,1-4.1,4.1,4.055,4.055,0,0,1-4.1-4.1,4.118,4.118,0,0,1,4.1-4.1A4.055,4.055,0,0,1,2334.2,2373.5Z" fill="#fff"/>
        <path id="Path_22" data-name="Path 22" d="M2352.3,2373.5a4.1,4.1,0,1,1-4.1-4.1A4.118,4.118,0,0,1,2352.3,2373.5Z" fill="#fff"/>
      </g>
    </g>
    <g id="Group_9" data-name="Group 9" transform="translate(-109.5)">
      <path id="Path_23" data-name="Path 23" d="M2212.2,2420.1h-50.6v-77.3l25.3-29.9,25.3,29.9v77.3Z" fill="#e9555f"/>
      <path id="Path_24" data-name="Path 24" d="M2187,2312.9h59.1l25.2,29.9h-59.1Z" fill="#f5d064"/>
      <rect id="Rectangle_65" data-name="Rectangle 65" width="59.1" height="77.4" transform="translate(2212.2 2342.8)" fill="#ef8946"/>
    </g>
    <path id="Path_25" data-name="Path 25" d="M2411.8,2420.1a12.121,12.121,0,0,0,1.7-6.3,12.552,12.552,0,0,0-9.6-12.2,18.418,18.418,0,0,0,.3-3.3,15.876,15.876,0,0,0-15.9-15.9,16.127,16.127,0,0,0-8.4,2.4,16.707,16.707,0,0,0-32.6,4.4,21.29,21.29,0,0,0-10.3-2.6,21.638,21.638,0,0,0-21.6,21.6v.3a12.184,12.184,0,0,0-5.9,10.4,6.146,6.146,0,0,0,.1,1.3h102.2Z" transform="translate(-109.5)" fill="#e9555f"/>
    <g id="Group_10" data-name="Group 10" transform="translate(-109.5)">
      <rect id="Rectangle_66" data-name="Rectangle 66" width="49.7" height="4.4" transform="translate(2216.8 2352.7)" fill="#fff"/>
      <rect id="Rectangle_67" data-name="Rectangle 67" width="49.7" height="4.4" transform="translate(2216.8 2369.3)" fill="#fff"/>
      <rect id="Rectangle_68" data-name="Rectangle 68" width="49.7" height="4.4" transform="translate(2216.8 2385.9)" fill="#fff"/>
      <rect id="Rectangle_69" data-name="Rectangle 69" width="49.7" height="4.4" transform="translate(2216.8 2402.4)" fill="#fff"/>
    </g>
    <g id="Group_13" data-name="Group 13" transform="translate(-109.5)">
      <ellipse id="Ellipse_1" data-name="Ellipse 1" cx="18.1" cy="29" rx="18.1" ry="29" transform="translate(2108 2337.2)" fill="#ef8946"/>
      <g id="Group_11" data-name="Group 11">
        <path id="Path_26" data-name="Path 26" d="M2126.1,2385.1a12.611,12.611,0,0,1-12.6-12.6h2.6a10,10,0,0,0,20,0h2.6A12.676,12.676,0,0,1,2126.1,2385.1Z" fill="#f4e16e"/>
      </g>
      <g id="Group_12" data-name="Group 12">
        <path id="Path_27" data-name="Path 27" d="M2126.1,2370.2a12.611,12.611,0,0,1-12.6-12.6h2.6a10,10,0,0,0,20,0h2.6A12.676,12.676,0,0,1,2126.1,2370.2Z" fill="#f4e16e"/>
      </g>
      <rect id="Rectangle_70" data-name="Rectangle 70" width="2.6" height="65.2" transform="translate(2124.8 2352.6)" fill="#f4e16e"/>
    </g>
  </g>
</svg>
