<svg xmlns="http://www.w3.org/2000/svg" width="167.417" height="38.898" viewBox="0 0 167.417 38.898">
  <g id="imgTxt6-4" transform="translate(-6737.104 -728.374)">
    <path id="Path_6028" data-name="Path 6028" d="M1788.374,7528.782H1627.957v-38.9H1776.24Z" transform="translate(5109.147 -6761.511)" fill="#644709" opacity="0.8"/>
    <g id="Group_419" data-name="Group 419" transform="translate(5109.147 -6761.511)">
      <path id="Path_6029" data-name="Path 6029" d="M1646.81,7515.529h8.486v1.9h-10.057V7515.9q.393-.435,1.745-1.962t1.964-2.226a22.066,22.066,0,0,0,2.683-3.61,6.016,6.016,0,0,0,.829-2.934,3.8,3.8,0,0,0-.807-2.53,2.7,2.7,0,0,0-2.182-.96,6.716,6.716,0,0,0-1.33.152l-.48,1.789q-.393,1.548-1.353,1.549a1.259,1.259,0,0,1-1.178-.764,3.789,3.789,0,0,1,1.615-2.726,5.608,5.608,0,0,1,3.294-.96,4.584,4.584,0,0,1,3.414,1.167,4.339,4.339,0,0,1,1.145,3.174,5.278,5.278,0,0,1-1,3,41.5,41.5,0,0,1-3.905,4.5Q1647.421,7514.9,1646.81,7515.529Z" fill="#fff"/>
      <path id="Path_6030" data-name="Path 6030" d="M1662.473,7500.717a4.32,4.32,0,0,1,3.621,2.061q1.461,2.061,1.462,6.337,0,4.407-1.462,6.512a4.3,4.3,0,0,1-3.621,2.1,4.394,4.394,0,0,1-3.687-2.094q-1.484-2.094-1.483-6.523,0-4.3,1.483-6.347A4.414,4.414,0,0,1,1662.473,7500.717Zm-3.011,8.4q0,7.678,3.011,7.679,2.9,0,2.9-7.679,0-7.417-2.9-7.417Q1659.462,7501.7,1659.462,7509.115Z" fill="#fff"/>
      <path id="Path_6031" data-name="Path 6031" d="M1675.976,7516.184l3.447.479v.764h-9.031v-.764l3.49-.479q.044-2.574.043-3.927v-9.6l-3.272.306v-.829l5.039-1.331.327.24-.086,3.534v7.679Q1675.933,7513.609,1675.976,7516.184Z" fill="#fff"/>
      <path id="Path_6032" data-name="Path 6032" d="M1688.258,7508.657a7.969,7.969,0,0,1,2.814,2.04,4.245,4.245,0,0,1,.872,2.716,3.908,3.908,0,0,1-1.407,3.119,5.336,5.336,0,0,1-3.588,1.2,5.848,5.848,0,0,1-3.665-1.058,3.517,3.517,0,0,1-1.374-2.955q0-2.663,3.555-4.342a5.111,5.111,0,0,1-3.032-4.6,3.677,3.677,0,0,1,1.309-2.945,4.881,4.881,0,0,1,3.272-1.112,4.274,4.274,0,0,1,3.054,1.068,3.612,3.612,0,0,1,1.135,2.749Q1691.2,7506.978,1688.258,7508.657Zm-1.244,8.159a2.844,2.844,0,0,0,2.149-.851,3.077,3.077,0,0,0,.818-2.225,3.032,3.032,0,0,0-.829-2.094,9.192,9.192,0,0,0-2.923-1.876,6.01,6.01,0,0,0-1.811,1.625,3.683,3.683,0,0,0-.567,2.1,3.332,3.332,0,0,0,.873,2.4A3.011,3.011,0,0,0,1687.014,7516.816Zm-2.726-12.478a3.517,3.517,0,0,0,.7,2.116,6.609,6.609,0,0,0,2.509,1.832,5.14,5.14,0,0,0,1.527-1.69,4.627,4.627,0,0,0,.436-2.106,3.066,3.066,0,0,0-.665-2,2.223,2.223,0,0,0-1.821-.817,2.684,2.684,0,0,0-1.9.73A2.512,2.512,0,0,0,1684.288,7504.338Z" fill="#fff"/>
      <path id="Path_6033" data-name="Path 6033" d="M1707.433,7503.771l.437-.568c.028-.043.072-.1.13-.174a1.959,1.959,0,0,1,.142-.164l.12-.12a.714.714,0,0,1,.12-.1.2.2,0,0,1,.1-.033q.218,0,1.047.721t.829.959a1.776,1.776,0,0,1-.916.458v3.6h1.7l.5-.72c.348-.465.574-.7.676-.7q.218,0,1.047.742c.553.494.828.821.828.981-.043.233-.224.349-.545.349h-15.466a23.25,23.25,0,0,0-3.338.306l-.611-1.134q1.223.13,2.967.174h2.683q.5-1.789.96-3.905h-1.309a11.172,11.172,0,0,0-2.334.305l-.567-1.155q1.221.13,2.945.174h1.439q.349-1.44.655-3.1h-2.094a22.987,22.987,0,0,0-3.36.306l-.567-1.135q1.223.132,2.967.175h11.1l.48-.676c.028-.044.076-.11.141-.2a1.876,1.876,0,0,1,.164-.2,1.438,1.438,0,0,0,.131-.153.4.4,0,0,1,.131-.12.249.249,0,0,1,.109-.032,3.139,3.139,0,0,1,1.091.719q.873.721.873.96c-.059.233-.248.349-.569.349h-8.725q-.174.917-.655,3.1Zm-7.9,13.874v1.025c0,.1-.156.226-.469.371a2.268,2.268,0,0,1-.97.218c-.248,0-.371-.153-.371-.458q.087-.982.13-2.4v-1.461a30.959,30.959,0,0,0-.261-4.407l2.094.939h9.119l.392-.524a1.241,1.241,0,0,0,.109-.131c.044-.058.077-.1.1-.131s.051-.066.088-.109a.563.563,0,0,1,.1-.1.607.607,0,0,1,.087-.055.2.2,0,0,1,.087-.022,3.049,3.049,0,0,1,1.069.665q.85.668.851.906a1.429,1.429,0,0,1-.9.48v2.051q.066,2.595.153,3.948a1.818,1.818,0,0,1-.7.425,2.492,2.492,0,0,1-.938.229c-.248,0-.371-.152-.371-.458q0-.021.087-.5v-.5Zm0-5.563v4.931h9.489v-4.931Zm2.182-3.73h5.977v-3.905h-4.974Q1702.372,7505.866,1701.718,7508.352Z" fill="#fff"/>
      <path id="Path_6034" data-name="Path 6034" d="M1726.15,7506.476l.3-.437c.029-.043.068-.1.12-.163a1.741,1.741,0,0,0,.109-.152.316.316,0,0,1,.1-.1.238.238,0,0,1,.131-.044q.2,0,.8.557t.6.8a1.219,1.219,0,0,1-.7.349v1.942q.045,2.377.131,3.773a1.319,1.319,0,0,1-.523.382,1.628,1.628,0,0,1-.7.207h-.2v-.938h-1.505v.415c.015.1.025.2.033.305s.011.182.011.24a.472.472,0,0,0,.022.153c-.03.131-.164.255-.405.371a1.653,1.653,0,0,1-.73.175.28.28,0,0,1-.229-.143.535.535,0,0,1-.1-.315q.086-.918.131-2.291v-1.4a.925.925,0,0,1-.458.84.767.767,0,0,1-.895-.229,6.76,6.76,0,0,0-1.112-3.1v5.606q.042,2.727.175,5.236a1.216,1.216,0,0,1-.568.479,1.931,1.931,0,0,1-.872.219.674.674,0,0,1-.437-.142.4.4,0,0,1-.174-.316q.2-2.88.24-5.8v-3.185a18.926,18.926,0,0,1-2.465,4.3l-.349-.261a28.1,28.1,0,0,0,2.53-9.185h-.785a3.572,3.572,0,0,0-1.287.328l-.589-1.156a13.66,13.66,0,0,0,2.007.2h.938v-.851a30.067,30.067,0,0,0-.284-4.581q2.487.676,2.487,1c0,.058-.058.13-.175.217l-.392.241v3.97h.458l.414-.7q.459-.72.59-.72.2,0,.861.731c.443.487.666.81.666.97q-.088.349-.568.349h-2.421v2.466q2.377,1.308,2.465,2.923a29.205,29.205,0,0,0-.284-4.32l1.636.786Zm9.838,12h-9.773a22.791,22.791,0,0,0-3.36.3l-.566-1.112q1.221.13,2.988.174h8.333l.458-.654c.334-.465.545-.7.633-.7.145,0,.49.238,1.036.709s.818.789.818.949C1736.512,7518.365,1736.322,7518.474,1735.988,7518.474Zm-8.638-1.33a1.481,1.481,0,0,0-.382-1.211,3.753,3.753,0,0,0-1.429-.513l.021-.393q1.812.176,2.073.175a1.048,1.048,0,0,0,.7-.262,5.965,5.965,0,0,0,.633-2.847q.2-2.388.305-7.646h-1.919c-.043.131-.11.313-.2.545l-.131.35a1.966,1.966,0,0,1-1.7-.023,25.175,25.175,0,0,0,1.4-4.3h-1.2a10.252,10.252,0,0,0-2.139.328l-.567-1.157a28.965,28.965,0,0,0,2.967.2h7.7l.48-.7q.5-.719.633-.719.218,0,1.037.741t.817.982q-.066.327-.567.327h-7.526q-.35,1.288-.807,2.771h1.505l.371-.524a2.533,2.533,0,0,0,.185-.24,1.522,1.522,0,0,1,.219-.261.247.247,0,0,1,.163-.066q.2,0,.905.687t.709.927a1.519,1.519,0,0,1-.873.349v.546h3.229l.371-.48c.306-.306.494-.459.567-.459.146,0,.451.205.916.612s.7.69.7.85a1.267,1.267,0,0,1-.807.328,18.9,18.9,0,0,1-1.658,6.085,9.174,9.174,0,0,0,2.617,2.422l-.043.218a1.836,1.836,0,0,0-1.506,1.353,9.2,9.2,0,0,1-1.92-2.509,10.323,10.323,0,0,1-2.857,2.77l-.218-.283a10.7,10.7,0,0,0,2.574-3.643,22.243,22.243,0,0,1-1.287-6.61h-.7q-.088,4.951-.359,7.308a6.582,6.582,0,0,1-.863,3.076A2.738,2.738,0,0,1,1727.35,7517.144Zm-1.026-5.171v-4.843h-1.505v4.843Zm7.766-6.108h-2.246a14.634,14.634,0,0,0,1.418,4.974A24.857,24.857,0,0,0,1734.09,7505.865Z" fill="#fff"/>
      <path id="Path_6035" data-name="Path 6035" d="M1745.74,7501.9l-2.291.261q-.043,2.117-.044,6.5v1.2q0,4.318.044,6.458l2.291.261v.851h-6.894v-.851l2.291-.24q.044-2.137.043-6.479v-1.2q0-4.362-.043-6.5l-2.291-.261v-.851h6.894Z" fill="#fff"/>
      <path id="Path_6036" data-name="Path 6036" d="M1754.793,7501.9l-2.291.261q-.043,2.117-.043,6.5v1.2q0,4.318.043,6.458l2.291.261v.851H1747.9v-.851l2.29-.24q.045-2.137.044-6.479v-1.2q0-4.362-.044-6.5l-2.29-.261v-.851h6.894Z" fill="#fff"/>
      <path id="Path_6037" data-name="Path 6037" d="M1763.846,7501.9l-2.291.261q-.045,2.117-.043,6.5v1.2q0,4.318.043,6.458l2.291.261v.851h-6.894v-.851l2.29-.24q.044-2.137.044-6.479v-1.2q0-4.362-.044-6.5l-2.29-.261v-.851h6.894Z" fill="#fff"/>
    </g>
    <path id="Path_6038" data-name="Path 6038" d="M1795.374,7528.782l-12.134-38.9h-3.667l12.134,38.9Z" transform="translate(5109.147 -6761.511)" fill="#644709" opacity="0.8"/>
  </g>
</svg>
