<svg xmlns="http://www.w3.org/2000/svg" width="167.417" height="38.898" viewBox="0 0 167.417 38.898">
  <g id="imgTxt6-2" transform="translate(-5877.147 -728.374)">
    <path id="Path_6008" data-name="Path 6008" d="M928.417,7528.782H768v-38.9H916.283Z" transform="translate(5109.147 -6761.511)" fill="#644709" opacity="0.8"/>
    <g id="Group_417" data-name="Group 417" transform="translate(5109.147 -6761.511)">
      <path id="Path_6009" data-name="Path 6009" d="M789.264,7515.529h8.485v1.9H787.693V7515.9q.393-.435,1.745-1.962t1.963-2.226a22.005,22.005,0,0,0,2.683-3.61,6.017,6.017,0,0,0,.83-2.934,3.792,3.792,0,0,0-.808-2.53,2.7,2.7,0,0,0-2.181-.96,6.718,6.718,0,0,0-1.331.152l-.48,1.789q-.391,1.548-1.352,1.549a1.258,1.258,0,0,1-1.178-.764,3.791,3.791,0,0,1,1.614-2.726,5.608,5.608,0,0,1,3.294-.96,4.582,4.582,0,0,1,3.414,1.167,4.335,4.335,0,0,1,1.145,3.174,5.276,5.276,0,0,1-1,3,41.5,41.5,0,0,1-3.9,4.5Q789.874,7514.9,789.264,7515.529Z" fill="#fff"/>
      <path id="Path_6010" data-name="Path 6010" d="M804.926,7500.717a4.323,4.323,0,0,1,3.622,2.061q1.461,2.061,1.461,6.337,0,4.407-1.461,6.512a4.3,4.3,0,0,1-3.622,2.1,4.393,4.393,0,0,1-3.686-2.094q-1.484-2.094-1.484-6.523,0-4.3,1.484-6.347A4.413,4.413,0,0,1,804.926,7500.717Zm-3.01,8.4q0,7.678,3.01,7.679,2.9,0,2.9-7.679,0-7.417-2.9-7.417Q801.915,7501.7,801.916,7509.115Z" fill="#fff"/>
      <path id="Path_6011" data-name="Path 6011" d="M818.43,7516.184l3.447.479v.764h-9.032v-.764l3.49-.479q.043-2.574.044-3.927v-9.6l-3.272.306v-.829l5.039-1.331.327.24-.087,3.534v7.679Q818.386,7513.609,818.43,7516.184Z" fill="#fff"/>
      <path id="Path_6012" data-name="Path 6012" d="M830.711,7508.657a7.969,7.969,0,0,1,2.814,2.04,4.239,4.239,0,0,1,.873,2.716,3.908,3.908,0,0,1-1.407,3.119,5.339,5.339,0,0,1-3.589,1.2,5.852,5.852,0,0,1-3.665-1.058,3.517,3.517,0,0,1-1.374-2.955q0-2.663,3.556-4.342a5.111,5.111,0,0,1-3.032-4.6,3.674,3.674,0,0,1,1.309-2.945,4.877,4.877,0,0,1,3.272-1.112,4.274,4.274,0,0,1,3.054,1.068,3.611,3.611,0,0,1,1.134,2.749Q833.656,7506.978,830.711,7508.657Zm-1.243,8.159a2.846,2.846,0,0,0,2.149-.851,3.077,3.077,0,0,0,.818-2.225,3.033,3.033,0,0,0-.83-2.094,9.174,9.174,0,0,0-2.922-1.876,6.009,6.009,0,0,0-1.811,1.625,3.682,3.682,0,0,0-.567,2.1,3.331,3.331,0,0,0,.872,2.4A3.015,3.015,0,0,0,829.468,7516.816Zm-2.727-12.478a3.518,3.518,0,0,0,.7,2.116,6.592,6.592,0,0,0,2.509,1.832,5.139,5.139,0,0,0,1.527-1.69,4.627,4.627,0,0,0,.436-2.106,3.065,3.065,0,0,0-.665-2,2.223,2.223,0,0,0-1.822-.817,2.688,2.688,0,0,0-1.9.73A2.516,2.516,0,0,0,826.741,7504.338Z" fill="#fff"/>
      <path id="Path_6013" data-name="Path 6013" d="M852.417,7507.872l.7-1.025c.058-.073.131-.175.218-.306s.157-.232.208-.306.109-.148.174-.228a1.4,1.4,0,0,1,.164-.175.188.188,0,0,1,.109-.055,5.157,5.157,0,0,1,1.429,1.114q1.211,1.111,1.21,1.352c-.058.247-.283.37-.676.37H840.725a23.109,23.109,0,0,0-3.36.306l-.633-1.222q1.223.133,2.967.175Z" fill="#fff"/>
      <path id="Path_6014" data-name="Path 6014" d="M873.534,7507.632l.436-.589a2.348,2.348,0,0,0,.175-.207c.072-.095.126-.164.163-.207a1.012,1.012,0,0,1,.131-.131.223.223,0,0,1,.142-.065q.2,0,.982.762t.785,1a1.376,1.376,0,0,1-.9.349q-.437,8.291-1.941,9.752a3.935,3.935,0,0,1-2.749.893,1.5,1.5,0,0,0-.48-1.264,6.319,6.319,0,0,0-2.574-.808v-.37q3.228.3,3.708.305a1.2,1.2,0,0,0,.851-.284q1.068-.937,1.44-8.486h-6.152a17,17,0,0,1-2.606,6.512,13.756,13.756,0,0,1-5.443,4.439l-.175-.24a14.369,14.369,0,0,0,5.126-6.358,27.114,27.114,0,0,0,1.637-9.042h-3.163a23.147,23.147,0,0,0-3.338.3l-.589-1.133q1.221.129,2.967.173h6.151a28.129,28.129,0,0,0-.283-4.45q2.574.634,2.6.96c0,.059-.065.131-.2.219l-.371.239v3.032h5.715l.545-.762c.044-.059.124-.171.241-.339a4.307,4.307,0,0,1,.261-.349.243.243,0,0,1,.175-.1,3.678,3.678,0,0,1,1.189.807q.971.806.97,1.047-.087.351-.588.35H868.123q-.13,2.007-.436,4.035Z" fill="#fff"/>
      <path id="Path_6015" data-name="Path 6015" d="M898.119,7501.35l.5-.743c.043-.057.116-.167.218-.327a2.057,2.057,0,0,1,.24-.327.254.254,0,0,1,.174-.087q.218,0,1.091.764t.872,1c-.043.233-.232.349-.567.349h-5.432v.632q.066.983.088,1.091c-.044.146-.211.28-.5.4a2.832,2.832,0,0,1-1,.207q-.371,0-.37-.458,0-.064.087-1.09v-.786h-4.45v1.919c0,.1-.139.205-.415.306a3.012,3.012,0,0,1-.916.175l.349.131a.675.675,0,0,1-.807.414c-.146.379-.393.916-.742,1.614h2.9l.437-.5c.044-.043.1-.1.174-.185s.127-.138.164-.174a1.1,1.1,0,0,1,.131-.11.253.253,0,0,1,.142-.054q.218,0,.949.687c.487.458.731.768.731.927-.117.175-.408.269-.873.284a24.08,24.08,0,0,1-1.168,3.687,17.152,17.152,0,0,1-1.777,3.228,12.253,12.253,0,0,1-2.727,2.8,16.046,16.046,0,0,1-3.8,2.084l-.2-.306q6.348-3.382,7.919-11.715h-3.36a17.294,17.294,0,0,1-1.527,2.291q2.356.546,2.967,1.9a1.1,1.1,0,0,1-.109,1.287.825.825,0,0,1-1.113.022,5.868,5.868,0,0,0-2.094-2.814,12.449,12.449,0,0,1-2.661,2.378l-.284-.262a16.081,16.081,0,0,0,2.64-3.8,15.833,15.833,0,0,0,.949-2.4,11.864,11.864,0,0,0,.534-2.334l1.876.785v-2.269h-2.159a24,24,0,0,0-3.338.328l-.546-1.135q1.223.131,2.967.175h3.076a17.228,17.228,0,0,0-.2-2.793q2.442.633,2.465.96c0,.058-.066.124-.2.2l-.37.219v1.418h4.45a17.646,17.646,0,0,0-.175-2.793q2.443.654,2.444.96c0,.058-.058.124-.175.2l-.393.219v1.418Zm-.458,4.34.371-.544q.414-.568.545-.568.217,0,1.036.7t.818.938a1.421,1.421,0,0,1-.916.436v5.1a2.456,2.456,0,0,1-.436,1.582,2.717,2.717,0,0,1-1.854.665,2.054,2.054,0,0,0-.371-1.222,2.586,2.586,0,0,0-1.527-.611v-.349q1.7.131,2.137.131c.277,0,.415-.131.415-.392v-5.214h-3.818v10.1a.547.547,0,0,0,.186.48,1.491,1.491,0,0,0,.774.131h2.138q1.657,0,1.985-.043a.67.67,0,0,0,.5-.284,11.4,11.4,0,0,0,.7-2.509h.261l.088,2.6q.654.242.654.742,0,.61-.85.829a17.166,17.166,0,0,1-3.447.217h-2.312a3.213,3.213,0,0,1-1.833-.359,1.726,1.726,0,0,1-.458-1.407v-7.482a30.112,30.112,0,0,0-.283-4.582l2.159.916Z" fill="#fff"/>
    </g>
    <path id="Path_6016" data-name="Path 6016" d="M935.417,7528.782l-12.134-38.9h-3.667l12.134,38.9Z" transform="translate(5109.147 -6761.511)" fill="#644709" opacity="0.8"/>
  </g>
</svg>
