<svg xmlns="http://www.w3.org/2000/svg" width="167.417" height="38.898" viewBox="0 0 167.417 38.898">
  <g id="imgTxt6-3" transform="translate(-6307.209 -728.374)">
    <path id="Path_6017" data-name="Path 6017" d="M1358.479,7528.782H1198.062v-38.9h148.283Z" transform="translate(5109.147 -6761.511)" fill="#644709" opacity="0.8"/>
    <g id="Group_418" data-name="Group 418" transform="translate(5109.147 -6761.511)">
      <path id="Path_6018" data-name="Path 6018" d="M1216.915,7515.529h8.486v1.9h-10.057V7515.9q.393-.435,1.745-1.962t1.964-2.226a22.066,22.066,0,0,0,2.683-3.61,6.016,6.016,0,0,0,.829-2.934,3.8,3.8,0,0,0-.807-2.53,2.7,2.7,0,0,0-2.182-.96,6.716,6.716,0,0,0-1.33.152l-.48,1.789q-.393,1.548-1.353,1.549a1.259,1.259,0,0,1-1.178-.764,3.789,3.789,0,0,1,1.615-2.726,5.608,5.608,0,0,1,3.294-.96,4.584,4.584,0,0,1,3.414,1.167,4.339,4.339,0,0,1,1.145,3.174,5.277,5.277,0,0,1-1,3,41.384,41.384,0,0,1-3.905,4.5Q1217.526,7514.9,1216.915,7515.529Z" fill="#fff"/>
      <path id="Path_6019" data-name="Path 6019" d="M1232.578,7500.717a4.32,4.32,0,0,1,3.621,2.061q1.461,2.061,1.462,6.337,0,4.407-1.462,6.512a4.3,4.3,0,0,1-3.621,2.1,4.394,4.394,0,0,1-3.687-2.094q-1.484-2.094-1.483-6.523,0-4.3,1.483-6.347A4.414,4.414,0,0,1,1232.578,7500.717Zm-3.011,8.4q0,7.678,3.011,7.679,2.9,0,2.9-7.679,0-7.417-2.9-7.417Q1229.568,7501.7,1229.567,7509.115Z" fill="#fff"/>
      <path id="Path_6020" data-name="Path 6020" d="M1246.081,7516.184l3.447.479v.764H1240.5v-.764l3.49-.479q.043-2.574.043-3.927v-9.6l-3.272.306v-.829l5.039-1.331.328.24-.087,3.534v7.679Q1246.038,7513.609,1246.081,7516.184Z" fill="#fff"/>
      <path id="Path_6021" data-name="Path 6021" d="M1258.363,7508.657a7.969,7.969,0,0,1,2.814,2.04,4.244,4.244,0,0,1,.872,2.716,3.908,3.908,0,0,1-1.407,3.119,5.336,5.336,0,0,1-3.588,1.2,5.848,5.848,0,0,1-3.665-1.058,3.517,3.517,0,0,1-1.374-2.955q0-2.663,3.555-4.342a5.111,5.111,0,0,1-3.032-4.6,3.676,3.676,0,0,1,1.309-2.945,4.879,4.879,0,0,1,3.272-1.112,4.274,4.274,0,0,1,3.054,1.068,3.612,3.612,0,0,1,1.135,2.749Q1261.308,7506.978,1258.363,7508.657Zm-1.244,8.159a2.844,2.844,0,0,0,2.149-.851,3.073,3.073,0,0,0,.818-2.225,3.032,3.032,0,0,0-.829-2.094,9.192,9.192,0,0,0-2.923-1.876,6.01,6.01,0,0,0-1.811,1.625,3.683,3.683,0,0,0-.567,2.1,3.332,3.332,0,0,0,.873,2.4A3.011,3.011,0,0,0,1257.119,7516.816Zm-2.726-12.478a3.517,3.517,0,0,0,.7,2.116,6.609,6.609,0,0,0,2.509,1.832,5.139,5.139,0,0,0,1.527-1.69,4.627,4.627,0,0,0,.437-2.106,3.066,3.066,0,0,0-.666-2,2.223,2.223,0,0,0-1.821-.817,2.684,2.684,0,0,0-1.9.73A2.512,2.512,0,0,0,1254.393,7504.338Z" fill="#fff"/>
      <path id="Path_6022" data-name="Path 6022" d="M1277.538,7503.771l.437-.568c.028-.043.072-.1.13-.174a1.959,1.959,0,0,1,.142-.164l.12-.12a.714.714,0,0,1,.12-.1.2.2,0,0,1,.1-.033q.218,0,1.047.721t.829.959a1.777,1.777,0,0,1-.916.458v3.6h1.7l.5-.72q.522-.7.676-.7.217,0,1.047.742t.829.981q-.066.349-.546.349h-15.466a23.247,23.247,0,0,0-3.338.306l-.611-1.134q1.223.13,2.967.174h2.683q.5-1.789.96-3.905h-1.309a11.173,11.173,0,0,0-2.334.305l-.567-1.155q1.221.13,2.945.174h1.44q.348-1.44.654-3.1h-2.094a22.987,22.987,0,0,0-3.36.306l-.567-1.135q1.222.132,2.967.175h11.1l.48-.676c.028-.044.076-.11.141-.2a1.876,1.876,0,0,1,.164-.2,1.424,1.424,0,0,0,.131-.153.4.4,0,0,1,.131-.12.249.249,0,0,1,.109-.032,3.14,3.14,0,0,1,1.091.719q.871.721.872.96-.087.349-.567.349h-8.726q-.174.917-.654,3.1Zm-7.9,13.874v1.025c0,.1-.156.226-.469.371a2.268,2.268,0,0,1-.97.218c-.248,0-.371-.153-.371-.458q.087-.982.13-2.4v-1.461a30.957,30.957,0,0,0-.261-4.407l2.094.939h9.119l.392-.524a1.258,1.258,0,0,0,.109-.131c.044-.058.077-.1.1-.131s.051-.066.088-.109a.563.563,0,0,1,.1-.1.614.614,0,0,1,.087-.055.2.2,0,0,1,.087-.022,3.049,3.049,0,0,1,1.069.665q.851.668.851.906a1.428,1.428,0,0,1-.9.48v2.051q.066,2.595.153,3.948a1.82,1.82,0,0,1-.7.425,2.493,2.493,0,0,1-.938.229c-.247,0-.371-.152-.371-.458q0-.021.087-.5v-.5Zm0-5.563v4.931h9.489v-4.931Zm2.182-3.73h5.977v-3.905h-4.974Q1272.477,7505.866,1271.823,7508.352Z" fill="#fff"/>
      <path id="Path_6023" data-name="Path 6023" d="M1296.255,7506.476l.305-.437c.029-.043.069-.1.12-.163a1.566,1.566,0,0,0,.109-.152.327.327,0,0,1,.1-.1.24.24,0,0,1,.131-.044q.2,0,.8.557t.6.8a1.215,1.215,0,0,1-.7.349v1.942q.044,2.377.131,3.773a1.32,1.32,0,0,1-.523.382,1.628,1.628,0,0,1-.7.207h-.2v-.938h-1.505v.415c.014.1.025.2.033.305s.011.182.011.24a.472.472,0,0,0,.022.153c-.03.131-.164.255-.4.371a1.661,1.661,0,0,1-.731.175.28.28,0,0,1-.229-.143.543.543,0,0,1-.1-.315q.087-.918.131-2.291v-1.4a.925.925,0,0,1-.458.84.767.767,0,0,1-.9-.229,6.758,6.758,0,0,0-1.112-3.1v5.606q.044,2.727.174,5.236a1.2,1.2,0,0,1-.567.479,1.931,1.931,0,0,1-.872.219.674.674,0,0,1-.437-.142.4.4,0,0,1-.174-.316q.2-2.88.24-5.8v-3.185a18.926,18.926,0,0,1-2.465,4.3l-.349-.261a28.155,28.155,0,0,0,2.53-9.185h-.785a3.572,3.572,0,0,0-1.287.328l-.589-1.156a13.66,13.66,0,0,0,2.007.2h.938v-.851a29.959,29.959,0,0,0-.284-4.581q2.487.676,2.487,1c0,.058-.058.13-.175.217l-.392.241v3.97h.458l.414-.7q.459-.72.589-.72.2,0,.862.731c.443.487.666.81.666.97q-.088.349-.568.349h-2.421v2.466q2.378,1.308,2.465,2.923a29.2,29.2,0,0,0-.284-4.32l1.636.786Zm9.838,12h-9.773a22.763,22.763,0,0,0-3.359.3l-.567-1.112q1.221.13,2.988.174h8.333l.458-.654c.335-.465.546-.7.633-.7.145,0,.491.238,1.036.709s.818.789.818.949Q1306.6,7518.475,1306.093,7518.474Zm-8.638-1.33a1.484,1.484,0,0,0-.382-1.211,3.753,3.753,0,0,0-1.429-.513l.022-.393q1.811.176,2.072.175a1.046,1.046,0,0,0,.7-.262,5.964,5.964,0,0,0,.633-2.847q.2-2.388.306-7.646h-1.92c-.044.131-.109.313-.2.545l-.131.35a1.964,1.964,0,0,1-1.7-.023,25.285,25.285,0,0,0,1.4-4.3h-1.2a10.244,10.244,0,0,0-2.138.328l-.567-1.157a28.965,28.965,0,0,0,2.967.2h7.7l.48-.7q.5-.719.632-.719.218,0,1.036.741t.818.982c-.043.218-.233.327-.567.327h-7.526q-.35,1.288-.807,2.771h1.505l.371-.524a2.511,2.511,0,0,0,.185-.24,1.569,1.569,0,0,1,.219-.261.243.243,0,0,1,.163-.066q.2,0,.906.687t.708.927a1.521,1.521,0,0,1-.872.349v.546h3.229l.37-.48q.459-.459.567-.459c.146,0,.451.205.916.612s.7.69.7.85a1.264,1.264,0,0,1-.807.328,18.9,18.9,0,0,1-1.658,6.085,9.191,9.191,0,0,0,2.618,2.422l-.044.218a1.835,1.835,0,0,0-1.505,1.353,9.161,9.161,0,0,1-1.92-2.509,10.328,10.328,0,0,1-2.858,2.77l-.218-.283a10.688,10.688,0,0,0,2.574-3.643,22.278,22.278,0,0,1-1.287-6.61h-.7q-.087,4.951-.36,7.308a6.573,6.573,0,0,1-.862,3.076A2.738,2.738,0,0,1,1297.455,7517.144Zm-1.026-5.171v-4.843h-1.505v4.843Zm7.766-6.108h-2.247a14.678,14.678,0,0,0,1.418,4.974A24.78,24.78,0,0,0,1304.195,7505.865Z" fill="#fff"/>
      <path id="Path_6024" data-name="Path 6024" d="M1315.845,7501.9l-2.291.261q-.043,2.117-.044,6.5v1.2q0,4.318.044,6.458l2.291.261v.851h-6.894v-.851l2.291-.24q.042-2.137.043-6.479v-1.2q0-4.362-.043-6.5l-2.291-.261v-.851h6.894Z" fill="#fff"/>
      <path id="Path_6025" data-name="Path 6025" d="M1324.9,7501.9l-2.291.261q-.044,2.117-.043,6.5v1.2q0,4.318.043,6.458l2.291.261v.851H1318v-.851l2.291-.24q.043-2.137.043-6.479v-1.2q0-4.362-.043-6.5L1318,7501.9v-.851h6.894Z" fill="#fff"/>
      <path id="Path_6026" data-name="Path 6026" d="M1333.951,7501.9l-2.291.261q-.044,2.117-.044,6.5v1.2q0,4.318.044,6.458l2.291.261v.851h-6.894v-.851l2.291-.24q.043-2.137.043-6.479v-1.2q0-4.362-.043-6.5l-2.291-.261v-.851h6.894Z" fill="#fff"/>
    </g>
    <path id="Path_6027" data-name="Path 6027" d="M1365.479,7528.782l-12.134-38.9h-3.667l12.134,38.9Z" transform="translate(5109.147 -6761.511)" fill="#644709" opacity="0.8"/>
  </g>
</svg>
