<svg xmlns="http://www.w3.org/2000/svg" width="167.416" height="38.898" viewBox="0 0 167.416 38.898">
  <g id="imgTxt6-5" transform="translate(-7167.25 -728.374)">
    <path id="Path_6039" data-name="Path 6039" d="M2218.519,7528.782H2058.1v-38.9h148.283Z" transform="translate(5109.147 -6761.511)" fill="#644709" opacity="0.8"/>
    <g id="Group_420" data-name="Group 420" transform="translate(5109.147 -6761.511)">
      <path id="Path_6040" data-name="Path 6040" d="M2081.481,7515.529h8.487v1.9h-10.057V7515.9q.393-.435,1.745-1.962t1.963-2.226a22.076,22.076,0,0,0,2.684-3.61,6.026,6.026,0,0,0,.829-2.934,3.8,3.8,0,0,0-.808-2.53,2.7,2.7,0,0,0-2.181-.96,6.724,6.724,0,0,0-1.331.152l-.48,1.789q-.393,1.548-1.353,1.549a1.256,1.256,0,0,1-1.177-.764,3.791,3.791,0,0,1,1.614-2.726,5.61,5.61,0,0,1,3.294-.96,4.582,4.582,0,0,1,3.414,1.167,4.335,4.335,0,0,1,1.145,3.174,5.276,5.276,0,0,1-1,3,41.553,41.553,0,0,1-3.905,4.5Q2082.093,7514.9,2081.481,7515.529Z" fill="#fff"/>
      <path id="Path_6041" data-name="Path 6041" d="M2097.144,7500.717a4.323,4.323,0,0,1,3.622,2.061q1.461,2.061,1.461,6.337,0,4.407-1.461,6.512a4.305,4.305,0,0,1-3.622,2.1,4.392,4.392,0,0,1-3.686-2.094q-1.484-2.094-1.483-6.523,0-4.3,1.483-6.347A4.412,4.412,0,0,1,2097.144,7500.717Zm-3.01,8.4q0,7.678,3.01,7.679,2.9,0,2.9-7.679,0-7.417-2.9-7.417Q2094.135,7501.7,2094.134,7509.115Z" fill="#fff"/>
      <path id="Path_6042" data-name="Path 6042" d="M2110.647,7516.184l3.448.479v.764h-9.032v-.764l3.491-.479q.042-2.574.043-3.927v-9.6l-3.272.306v-.829l5.039-1.331.327.24-.087,3.534v7.679Q2110.6,7513.609,2110.647,7516.184Z" fill="#fff"/>
      <path id="Path_6043" data-name="Path 6043" d="M2116.712,7501.044h9.947v1.222l-5.78,15.161H2119l-.219-.218,6.523-14.245h-8.595Z" fill="#fff"/>
      <path id="Path_6044" data-name="Path 6044" d="M2142.1,7503.771l.437-.568c.029-.043.072-.1.131-.174a1.986,1.986,0,0,1,.141-.164l.121-.12a.677.677,0,0,1,.12-.1.2.2,0,0,1,.1-.033q.218,0,1.047.721t.829.959a1.781,1.781,0,0,1-.917.458v3.6h1.7l.5-.72q.524-.7.676-.7.219,0,1.047.742t.829.981c-.044.233-.225.349-.545.349h-15.467a23.235,23.235,0,0,0-3.337.306l-.611-1.134q1.222.13,2.967.174h2.683q.5-1.789.96-3.905h-1.309a11.164,11.164,0,0,0-2.334.305l-.567-1.155q1.221.13,2.945.174h1.439q.35-1.44.655-3.1h-2.094a22.983,22.983,0,0,0-3.36.306l-.567-1.135q1.222.132,2.967.175h11.1l.48-.676c.029-.044.076-.11.142-.2a1.764,1.764,0,0,1,.164-.2,1.3,1.3,0,0,0,.13-.153.4.4,0,0,1,.131-.12.254.254,0,0,1,.11-.032,3.158,3.158,0,0,1,1.091.719q.872.721.872.96-.087.349-.568.349h-8.725q-.175.917-.655,3.1Zm-7.9,13.874v1.025c0,.1-.156.226-.469.371a2.271,2.271,0,0,1-.97.218c-.249,0-.372-.153-.372-.458q.087-.982.131-2.4v-1.461a31.141,31.141,0,0,0-.261-4.407l2.093.939h9.119l.393-.524a1.434,1.434,0,0,0,.108-.131c.044-.058.078-.1.1-.131s.051-.066.087-.109a.568.568,0,0,1,.1-.1.521.521,0,0,1,.087-.055.2.2,0,0,1,.086-.022,3.059,3.059,0,0,1,1.07.665q.85.668.85.906a1.422,1.422,0,0,1-.894.48v2.051q.066,2.595.153,3.948a1.827,1.827,0,0,1-.7.425,2.5,2.5,0,0,1-.939.229c-.247,0-.37-.152-.37-.458q0-.021.087-.5v-.5Zm0-5.563v4.931h9.489v-4.931Zm2.182-3.73h5.976v-3.905h-4.973Q2137.043,7505.866,2136.39,7508.352Z" fill="#fff"/>
      <path id="Path_6045" data-name="Path 6045" d="M2160.821,7506.476l.306-.437c.029-.043.068-.1.12-.163a1.5,1.5,0,0,0,.108-.152.327.327,0,0,1,.1-.1.237.237,0,0,1,.131-.044q.2,0,.8.557t.6.8a1.211,1.211,0,0,1-.7.349v1.942q.042,2.377.131,3.773a1.328,1.328,0,0,1-.523.382,1.628,1.628,0,0,1-.7.207h-.2v-.938h-1.505v.415c.014.1.025.2.032.305s.011.182.011.24a.474.474,0,0,0,.023.153c-.03.131-.164.255-.4.371a1.657,1.657,0,0,1-.73.175.283.283,0,0,1-.23-.143.542.542,0,0,1-.1-.315q.086-.918.131-2.291v-1.4a.925.925,0,0,1-.458.84.767.767,0,0,1-.9-.229,6.77,6.77,0,0,0-1.112-3.1v5.606q.042,2.727.174,5.236a1.208,1.208,0,0,1-.567.479,1.931,1.931,0,0,1-.873.219.671.671,0,0,1-.436-.142.4.4,0,0,1-.174-.316q.2-2.88.239-5.8v-3.185a18.894,18.894,0,0,1-2.465,4.3l-.349-.261a28.136,28.136,0,0,0,2.531-9.185h-.785a3.567,3.567,0,0,0-1.287.328l-.589-1.156a13.65,13.65,0,0,0,2.006.2h.938v-.851a30.1,30.1,0,0,0-.283-4.581q2.487.676,2.486,1c0,.058-.058.13-.174.217l-.392.241v3.97h.458l.414-.7c.3-.48.5-.72.589-.72q.2,0,.862.731t.665.97c-.059.233-.247.349-.567.349h-2.421v2.466q2.377,1.308,2.465,2.923a29.17,29.17,0,0,0-.284-4.32l1.636.786Zm9.839,12h-9.773a22.763,22.763,0,0,0-3.36.3l-.567-1.112q1.221.13,2.989.174h8.333l.458-.654c.334-.465.545-.7.633-.7.145,0,.49.238,1.036.709s.818.789.818.949C2171.184,7518.365,2170.994,7518.474,2170.66,7518.474Zm-8.639-1.33a1.484,1.484,0,0,0-.381-1.211,3.753,3.753,0,0,0-1.429-.513l.021-.393q1.811.176,2.073.175a1.048,1.048,0,0,0,.7-.262,5.965,5.965,0,0,0,.633-2.847q.2-2.388.3-7.646h-1.92q-.066.2-.2.545l-.131.35a1.966,1.966,0,0,1-1.7-.023,25.263,25.263,0,0,0,1.4-4.3h-1.2a10.245,10.245,0,0,0-2.137.328l-.568-1.157a29,29,0,0,0,2.967.2h7.7l.48-.7q.5-.719.633-.719.218,0,1.036.741t.818.982q-.066.327-.567.327h-7.527q-.348,1.288-.806,2.771h1.5l.371-.524a2.511,2.511,0,0,0,.185-.24,1.577,1.577,0,0,1,.218-.261.246.246,0,0,1,.164-.066q.2,0,.905.687t.709.927a1.52,1.52,0,0,1-.873.349v.546h3.229l.371-.48c.306-.306.494-.459.567-.459.145,0,.45.205.916.612s.7.69.7.85a1.271,1.271,0,0,1-.808.328,18.876,18.876,0,0,1-1.657,6.085,9.177,9.177,0,0,0,2.617,2.422l-.043.218a1.834,1.834,0,0,0-1.506,1.353,9.179,9.179,0,0,1-1.92-2.509,10.324,10.324,0,0,1-2.857,2.77l-.218-.283a10.716,10.716,0,0,0,2.574-3.643,22.209,22.209,0,0,1-1.287-6.61h-.7q-.089,4.951-.361,7.308a6.56,6.56,0,0,1-.861,3.076A2.738,2.738,0,0,1,2162.021,7517.144Zm-1.025-5.171v-4.843h-1.505v4.843Zm7.766-6.108h-2.247a14.681,14.681,0,0,0,1.418,4.974A24.8,24.8,0,0,0,2168.762,7505.865Z" fill="#fff"/>
      <path id="Path_6046" data-name="Path 6046" d="M2180.411,7501.9l-2.29.261q-.044,2.117-.044,6.5v1.2q0,4.318.044,6.458l2.29.261v.851h-6.893v-.851l2.291-.24q.042-2.137.043-6.479v-1.2q0-4.362-.043-6.5l-2.291-.261v-.851h6.893Z" fill="#fff"/>
      <path id="Path_6047" data-name="Path 6047" d="M2189.465,7501.9l-2.291.261q-.045,2.117-.044,6.5v1.2q0,4.318.044,6.458l2.291.261v.851h-6.894v-.851l2.29-.24q.045-2.137.044-6.479v-1.2q0-4.362-.044-6.5l-2.29-.261v-.851h6.894Z" fill="#fff"/>
    </g>
    <path id="Path_6048" data-name="Path 6048" d="M2225.519,7528.782l-12.134-38.9h-3.667l12.134,38.9Z" transform="translate(5109.147 -6761.511)" fill="#644709" opacity="0.8"/>
  </g>
</svg>
