<svg xmlns="http://www.w3.org/2000/svg" width="167.417" height="38.898" viewBox="0 0 167.417 38.898">
  <g id="imgTxt6-6" transform="translate(-7597.062 -728.374)">
    <path id="Path_6049" data-name="Path 6049" d="M2648.331,7528.782H2487.914v-38.9H2636.2Z" transform="translate(5109.147 -6761.511)" fill="#644709" opacity="0.8"/>
    <g id="Group_421" data-name="Group 421" transform="translate(5109.147 -6761.511)">
      <path id="Path_6050" data-name="Path 6050" d="M2511.293,7515.529h8.486v1.9h-10.056V7515.9q.391-.435,1.745-1.962t1.964-2.226a22.046,22.046,0,0,0,2.682-3.61,6.016,6.016,0,0,0,.829-2.934,3.8,3.8,0,0,0-.806-2.53,2.7,2.7,0,0,0-2.182-.96,6.724,6.724,0,0,0-1.331.152l-.479,1.789q-.393,1.548-1.354,1.549a1.259,1.259,0,0,1-1.178-.764,3.79,3.79,0,0,1,1.616-2.726,5.6,5.6,0,0,1,3.293-.96,4.58,4.58,0,0,1,3.413,1.167,4.336,4.336,0,0,1,1.146,3.174,5.282,5.282,0,0,1-1,3,41.628,41.628,0,0,1-3.9,4.5Q2511.9,7514.9,2511.293,7515.529Z" fill="#fff"/>
      <path id="Path_6051" data-name="Path 6051" d="M2526.956,7500.717a4.32,4.32,0,0,1,3.622,2.061q1.461,2.061,1.461,6.337,0,4.407-1.461,6.512a4.3,4.3,0,0,1-3.622,2.1,4.391,4.391,0,0,1-3.686-2.094q-1.485-2.094-1.484-6.523,0-4.3,1.484-6.347A4.411,4.411,0,0,1,2526.956,7500.717Zm-3.011,8.4q0,7.678,3.011,7.679,2.9,0,2.9-7.679,0-7.417-2.9-7.417Q2523.945,7501.7,2523.945,7509.115Z" fill="#fff"/>
      <path id="Path_6052" data-name="Path 6052" d="M2540.459,7516.184l3.447.479v.764h-9.031v-.764l3.49-.479q.045-2.574.043-3.927v-9.6l-3.271.306v-.829l5.039-1.331.327.24-.087,3.534v7.679Q2540.416,7513.609,2540.459,7516.184Z" fill="#fff"/>
      <path id="Path_6053" data-name="Path 6053" d="M2546.523,7501.044h9.948v1.222l-5.781,15.161h-1.875l-.219-.218,6.523-14.245h-8.6Z" fill="#fff"/>
      <path id="Path_6054" data-name="Path 6054" d="M2571.916,7503.771l.438-.568c.028-.043.072-.1.13-.174a2.028,2.028,0,0,1,.141-.164l.121-.12a.675.675,0,0,1,.119-.1.211.211,0,0,1,.1-.033q.217,0,1.047.721t.829.959a1.781,1.781,0,0,1-.916.458v3.6h1.7l.5-.72q.524-.7.676-.7.218,0,1.047.742c.552.494.83.821.83.981q-.067.349-.546.349h-15.467a23.235,23.235,0,0,0-3.337.306l-.611-1.134q1.221.13,2.966.174h2.684q.5-1.789.959-3.905h-1.308a11.181,11.181,0,0,0-2.335.305l-.567-1.155q1.223.13,2.946.174h1.439q.348-1.44.655-3.1h-2.094a22.99,22.99,0,0,0-3.361.306l-.566-1.135q1.221.132,2.967.175h11.1l.481-.676c.028-.044.076-.11.14-.2a2.2,2.2,0,0,1,.164-.2,1.322,1.322,0,0,0,.131-.153.411.411,0,0,1,.131-.12.254.254,0,0,1,.109-.032,3.14,3.14,0,0,1,1.091.719q.871.721.872.96c-.057.233-.247.349-.566.349h-8.727q-.174.917-.654,3.1Zm-7.9,13.874v1.025c0,.1-.157.226-.469.371a2.272,2.272,0,0,1-.971.218c-.248,0-.371-.153-.371-.458.059-.655.1-1.454.131-2.4v-1.461a30.937,30.937,0,0,0-.262-4.407l2.094.939h9.119l.393-.524a1.414,1.414,0,0,0,.109-.131l.1-.131c.021-.029.05-.066.088-.109a.567.567,0,0,1,.1-.1.623.623,0,0,1,.088-.055.2.2,0,0,1,.086-.022,3.05,3.05,0,0,1,1.07.665q.85.668.85.906a1.428,1.428,0,0,1-.9.48v2.051q.068,2.595.154,3.948a1.833,1.833,0,0,1-.7.425,2.488,2.488,0,0,1-.937.229c-.248,0-.371-.152-.371-.458q0-.021.087-.5v-.5Zm0-5.563v4.931h9.489v-4.931Zm2.181-3.73h5.977v-3.905h-4.973Q2566.855,7505.866,2566.2,7508.352Z" fill="#fff"/>
      <path id="Path_6055" data-name="Path 6055" d="M2590.633,7506.476l.306-.437c.029-.043.069-.1.12-.163a1.788,1.788,0,0,0,.109-.152.323.323,0,0,1,.1-.1.24.24,0,0,1,.131-.044q.2,0,.8.557t.6.8a1.211,1.211,0,0,1-.7.349v1.942q.042,2.377.131,3.773a1.325,1.325,0,0,1-.524.382,1.62,1.62,0,0,1-.7.207h-.2v-.938H2589.3v.415c.013.1.025.2.033.305s.01.182.01.24a.5.5,0,0,0,.022.153c-.029.131-.163.255-.4.371a1.669,1.669,0,0,1-.732.175.283.283,0,0,1-.229-.143.55.55,0,0,1-.1-.315q.089-.918.131-2.291v-1.4a.924.924,0,0,1-.458.84.766.766,0,0,1-.894-.229,6.75,6.75,0,0,0-1.113-3.1v5.606q.045,2.727.174,5.236a1.2,1.2,0,0,1-.566.479,1.932,1.932,0,0,1-.873.219.671.671,0,0,1-.436-.142.406.406,0,0,1-.175-.316q.2-2.88.239-5.8v-3.185a18.855,18.855,0,0,1-2.464,4.3l-.349-.261a28.161,28.161,0,0,0,2.53-9.185h-.785a3.577,3.577,0,0,0-1.287.328l-.589-1.156a13.676,13.676,0,0,0,2.007.2h.937v-.851a29.852,29.852,0,0,0-.283-4.581q2.487.676,2.487,1c0,.058-.058.13-.174.217l-.393.241v3.97h.458l.415-.7q.457-.72.588-.72.2,0,.863.731t.664.97c-.058.233-.246.349-.566.349h-2.422v2.466q2.377,1.308,2.465,2.923a29.347,29.347,0,0,0-.283-4.32l1.636.786Zm9.839,12H2590.7a22.738,22.738,0,0,0-3.359.3l-.568-1.112q1.221.13,2.989.174h8.333l.458-.654c.335-.465.546-.7.633-.7.145,0,.491.238,1.036.709s.818.789.818.949C2601,7518.365,2600.807,7518.474,2600.472,7518.474Zm-8.639-1.33a1.484,1.484,0,0,0-.382-1.211,3.739,3.739,0,0,0-1.429-.513l.023-.393q1.809.176,2.072.175a1.046,1.046,0,0,0,.7-.262,5.981,5.981,0,0,0,.632-2.847q.2-2.388.306-7.646h-1.92c-.044.131-.108.313-.2.545l-.131.35a1.965,1.965,0,0,1-1.7-.023,25.284,25.284,0,0,0,1.4-4.3H2590a10.226,10.226,0,0,0-2.137.328l-.568-1.157a28.965,28.965,0,0,0,2.967.2h7.7l.48-.7q.5-.719.633-.719.218,0,1.035.741t.819.982c-.043.218-.233.327-.567.327h-7.527q-.348,1.288-.807,2.771h1.506l.37-.524a2.454,2.454,0,0,0,.186-.24,1.577,1.577,0,0,1,.218-.261.243.243,0,0,1,.164-.066q.2,0,.905.687t.709.927a1.526,1.526,0,0,1-.872.349v.546h3.228l.371-.48c.3-.306.5-.459.567-.459.144,0,.451.205.916.612s.7.69.7.85a1.266,1.266,0,0,1-.807.328,18.85,18.85,0,0,1-1.658,6.085,9.2,9.2,0,0,0,2.618,2.422l-.044.218a1.832,1.832,0,0,0-1.5,1.353,9.122,9.122,0,0,1-1.92-2.509,10.341,10.341,0,0,1-2.858,2.77l-.218-.283a10.716,10.716,0,0,0,2.574-3.643,22.209,22.209,0,0,1-1.287-6.61h-.7q-.085,4.951-.36,7.308a6.587,6.587,0,0,1-.861,3.076A2.738,2.738,0,0,1,2591.833,7517.144Zm-1.025-5.171v-4.843H2589.3v4.843Zm7.766-6.108h-2.248a14.731,14.731,0,0,0,1.418,4.974A24.7,24.7,0,0,0,2598.574,7505.865Z" fill="#fff"/>
      <path id="Path_6056" data-name="Path 6056" d="M2610.223,7501.9l-2.29.261q-.045,2.117-.044,6.5v1.2q0,4.318.044,6.458l2.29.261v.851h-6.893v-.851l2.29-.24q.042-2.137.044-6.479v-1.2q0-4.362-.044-6.5l-2.29-.261v-.851h6.893Z" fill="#fff"/>
      <path id="Path_6057" data-name="Path 6057" d="M2619.276,7501.9l-2.29.261q-.044,2.117-.045,6.5v1.2q0,4.318.045,6.458l2.29.261v.851h-6.893v-.851l2.291-.24q.042-2.137.043-6.479v-1.2q0-4.362-.043-6.5l-2.291-.261v-.851h6.893Z" fill="#fff"/>
    </g>
    <path id="Path_6058" data-name="Path 6058" d="M2655.331,7528.782l-12.134-38.9h-3.667l12.134,38.9Z" transform="translate(5109.147 -6761.511)" fill="#644709" opacity="0.8"/>
  </g>
</svg>
