<svg xmlns="http://www.w3.org/2000/svg" width="167.417" height="38.898" viewBox="0 0 167.417 38.898">
  <g id="imgTxt6-1" transform="translate(-168.667 -608.934)">
    <path id="Path_5494" data-name="Path 5494" d="M329.083,7528.782H168.667v-38.9H316.95Z" transform="translate(0 -6880.95)" fill="#644709" opacity="0.8"/>
    <g id="Group_370" data-name="Group 370" transform="translate(0 -6880.95)">
      <path id="Path_1764" data-name="Path 1764" d="M189.93,7515.529h8.486v1.9H188.359V7515.9q.393-.435,1.745-1.962t1.964-2.226a22.066,22.066,0,0,0,2.683-3.61,6.016,6.016,0,0,0,.829-2.934,3.8,3.8,0,0,0-.807-2.53,2.7,2.7,0,0,0-2.182-.96,6.716,6.716,0,0,0-1.33.152l-.48,1.789q-.393,1.548-1.353,1.549a1.256,1.256,0,0,1-1.177-.764,3.785,3.785,0,0,1,1.614-2.726,5.608,5.608,0,0,1,3.294-.96,4.584,4.584,0,0,1,3.414,1.167,4.339,4.339,0,0,1,1.145,3.174,5.277,5.277,0,0,1-1,3,41.471,41.471,0,0,1-3.9,4.5Q190.54,7514.9,189.93,7515.529Z" fill="#fff"/>
      <path id="Path_1765" data-name="Path 1765" d="M205.593,7500.717a4.32,4.32,0,0,1,3.621,2.061q1.462,2.061,1.462,6.337,0,4.407-1.462,6.512a4.3,4.3,0,0,1-3.621,2.1,4.394,4.394,0,0,1-3.687-2.094q-1.483-2.094-1.483-6.523,0-4.3,1.483-6.347A4.414,4.414,0,0,1,205.593,7500.717Zm-3.01,8.4q0,7.678,3.01,7.679,2.9,0,2.9-7.679,0-7.417-2.9-7.417Q202.582,7501.7,202.583,7509.115Z" fill="#fff"/>
      <path id="Path_1766" data-name="Path 1766" d="M219.1,7516.184l3.447.479v.764h-9.031v-.764l3.49-.479q.044-2.574.043-3.927v-9.6l-3.272.306v-.829l5.04-1.331.327.24-.087,3.534v7.679Q219.053,7513.609,219.1,7516.184Z" fill="#fff"/>
      <path id="Path_1767" data-name="Path 1767" d="M231.378,7508.657a7.969,7.969,0,0,1,2.814,2.04,4.245,4.245,0,0,1,.873,2.716,3.908,3.908,0,0,1-1.408,3.119,5.336,5.336,0,0,1-3.588,1.2,5.848,5.848,0,0,1-3.665-1.058,3.517,3.517,0,0,1-1.374-2.955q0-2.663,3.555-4.342a5.111,5.111,0,0,1-3.032-4.6,3.677,3.677,0,0,1,1.309-2.945,4.881,4.881,0,0,1,3.272-1.112,4.278,4.278,0,0,1,3.055,1.068,3.615,3.615,0,0,1,1.134,2.749Q234.323,7506.978,231.378,7508.657Zm-1.244,8.159a2.845,2.845,0,0,0,2.149-.851,3.073,3.073,0,0,0,.818-2.225,3.032,3.032,0,0,0-.829-2.094,9.193,9.193,0,0,0-2.923-1.876,6,6,0,0,0-1.81,1.625,3.675,3.675,0,0,0-.568,2.1,3.332,3.332,0,0,0,.873,2.4A3.011,3.011,0,0,0,230.134,7516.816Zm-2.726-12.478a3.517,3.517,0,0,0,.7,2.116,6.609,6.609,0,0,0,2.509,1.832,5.139,5.139,0,0,0,1.527-1.69,4.627,4.627,0,0,0,.437-2.106,3.066,3.066,0,0,0-.666-2,2.223,2.223,0,0,0-1.821-.817,2.684,2.684,0,0,0-1.9.73A2.512,2.512,0,0,0,227.408,7504.338Z" fill="#fff"/>
      <path id="Path_1768" data-name="Path 1768" d="M253.084,7507.872l.7-1.025c.058-.073.131-.175.218-.306s.156-.232.207-.306.109-.148.175-.228a1.413,1.413,0,0,1,.163-.175.194.194,0,0,1,.109-.055,5.142,5.142,0,0,1,1.429,1.114q1.212,1.111,1.211,1.352c-.058.247-.284.37-.676.37H241.391a23.108,23.108,0,0,0-3.359.306l-.633-1.222q1.221.133,2.967.175Z" fill="#fff"/>
      <path id="Path_1769" data-name="Path 1769" d="M274.2,7507.632l.436-.589a2.18,2.18,0,0,0,.175-.207c.072-.095.127-.164.164-.207a1,1,0,0,1,.13-.131.226.226,0,0,1,.142-.065q.2,0,.982.762t.785,1a1.37,1.37,0,0,1-.894.349q-.436,8.291-1.942,9.752a3.933,3.933,0,0,1-2.748.893,1.5,1.5,0,0,0-.48-1.264,6.324,6.324,0,0,0-2.574-.808v-.37q3.228.3,3.708.305a1.2,1.2,0,0,0,.851-.284q1.068-.937,1.439-8.486h-6.151a17,17,0,0,1-2.607,6.512,13.749,13.749,0,0,1-5.443,4.439L260,7519a14.365,14.365,0,0,0,5.127-6.358,27.116,27.116,0,0,0,1.636-9.042H263.6a23.173,23.173,0,0,0-3.338.3l-.589-1.133q1.223.129,2.967.173h6.152a28.107,28.107,0,0,0-.284-4.45q2.574.634,2.6.96c0,.059-.065.131-.2.219l-.371.239v3.032h5.716l.545-.762c.044-.059.123-.171.24-.339a4.024,4.024,0,0,1,.262-.349.239.239,0,0,1,.174-.1,3.655,3.655,0,0,1,1.189.807q.971.806.971,1.047c-.058.234-.255.35-.589.35H268.79q-.131,2.007-.436,4.035Z" fill="#fff"/>
      <path id="Path_1770" data-name="Path 1770" d="M298.785,7501.35l.5-.743c.044-.057.116-.167.218-.327a2.189,2.189,0,0,1,.24-.327.254.254,0,0,1,.175-.087q.217,0,1.09.764t.873,1c-.044.233-.233.349-.567.349h-5.432v.632q.066.983.087,1.091c-.043.146-.211.28-.5.4a2.842,2.842,0,0,1-1,.207q-.371,0-.371-.458,0-.064.088-1.09v-.786h-4.451v1.919q0,.155-.414.306a3.012,3.012,0,0,1-.917.175l.35.131a.676.676,0,0,1-.808.414c-.145.379-.392.916-.741,1.614h2.9l.437-.5c.043-.043.1-.1.174-.185s.127-.138.163-.174a1.28,1.28,0,0,1,.131-.11.253.253,0,0,1,.142-.054q.218,0,.949.687c.487.458.731.768.731.927-.117.175-.407.269-.872.284a24.3,24.3,0,0,1-1.168,3.687,17.215,17.215,0,0,1-1.778,3.228,12.248,12.248,0,0,1-2.726,2.8,16.046,16.046,0,0,1-3.8,2.084l-.2-.306q6.348-3.382,7.919-11.715h-3.36a17.207,17.207,0,0,1-1.526,2.291q2.355.546,2.966,1.9a1.1,1.1,0,0,1-.108,1.287.825.825,0,0,1-1.113.022,5.874,5.874,0,0,0-2.094-2.814,12.479,12.479,0,0,1-2.662,2.378l-.283-.262a16.109,16.109,0,0,0,2.639-3.8,15.628,15.628,0,0,0,.949-2.4,11.954,11.954,0,0,0,.535-2.334l1.876.785v-2.269h-2.16a24.014,24.014,0,0,0-3.338.328l-.545-1.135q1.221.131,2.967.175h3.076a17.217,17.217,0,0,0-.2-2.793q2.443.633,2.465.96c0,.058-.065.124-.2.2l-.371.219v1.418h4.451a17.768,17.768,0,0,0-.175-2.793q2.443.654,2.443.96c0,.058-.058.124-.174.2l-.393.219v1.418Zm-.458,4.34.371-.544q.414-.568.546-.568.218,0,1.036.7t.818.938a1.423,1.423,0,0,1-.916.436v5.1a2.455,2.455,0,0,1-.437,1.582,2.715,2.715,0,0,1-1.854.665,2.048,2.048,0,0,0-.371-1.222,2.586,2.586,0,0,0-1.527-.611v-.349q1.7.131,2.138.131c.276,0,.414-.131.414-.392v-5.214h-3.817v10.1a.55.55,0,0,0,.185.48,1.5,1.5,0,0,0,.775.131h2.138q1.658,0,1.984-.043a.671.671,0,0,0,.5-.284,11.422,11.422,0,0,0,.7-2.509h.262l.087,2.6q.655.242.655.742,0,.61-.851.829a17.159,17.159,0,0,1-3.447.217H295.4a3.212,3.212,0,0,1-1.832-.359,1.723,1.723,0,0,1-.459-1.407v-7.482a29.978,29.978,0,0,0-.283-4.582l2.16.916Z" fill="#fff"/>
    </g>
    <path id="Path_5495" data-name="Path 5495" d="M336.083,7528.782l-12.134-38.9h-3.667l12.134,38.9Z" transform="translate(0 -6880.95)" fill="#644709" opacity="0.8"/>
  </g>
</svg>
