<svg xmlns="http://www.w3.org/2000/svg" width="149.973" height="37.05" viewBox="0 0 149.973 37.05">
  <g id="line" transform="translate(-272.764 -8867.377)">
    <g id="Group_423" data-name="Group 423">
      <g id="Group_209" data-name="Group 209">
        <path id="Path_2755" data-name="Path 2755" d="M321.252,8895.357v-18.842h2.409v16.81h8.2v2.032Z" fill="#b7852c"/>
        <path id="Path_2756" data-name="Path 2756" d="M337.964,8878.1a1.658,1.658,0,0,1-1.167.428,1.611,1.611,0,0,1-1.154-.428,1.415,1.415,0,0,1-.452-1.078,1.442,1.442,0,0,1,.452-1.117,1.644,1.644,0,0,1,1.154-.414,1.693,1.693,0,0,1,1.167.414,1.424,1.424,0,0,1,.464,1.117A1.4,1.4,0,0,1,337.964,8878.1Zm-2.346,17.262v-13.949h2.333v13.949Z" fill="#b7852c"/>
        <path id="Path_2757" data-name="Path 2757" d="M343.31,8895.357v-13.949h1.932l.2,2.007h.076a6.9,6.9,0,0,1,4.691-2.358q4.265,0,4.265,5.469v8.832h-2.358v-8.53a4.976,4.976,0,0,0-.628-2.835,2.3,2.3,0,0,0-2.007-.878,3.6,3.6,0,0,0-1.856.5,10.6,10.6,0,0,0-1.982,1.631v10.111Z" fill="#b7852c"/>
        <path id="Path_2758" data-name="Path 2758" d="M365.253,8895.684a6.338,6.338,0,0,1-4.767-1.982,7.346,7.346,0,0,1-1.906-5.318,7.485,7.485,0,0,1,1.881-5.294,5.84,5.84,0,0,1,4.416-2.032,5.015,5.015,0,0,1,4.089,1.757,7.289,7.289,0,0,1,1.455,4.793,8.712,8.712,0,0,1-.1,1.328h-9.408a5.28,5.28,0,0,0,1.379,3.563,4.331,4.331,0,0,0,3.262,1.33,6.032,6.032,0,0,0,3.488-1.1l.853,1.531A8.328,8.328,0,0,1,365.253,8895.684Zm-4.365-8.43h7.476a5.023,5.023,0,0,0-.9-3.225,3.1,3.1,0,0,0-2.559-1.116,3.623,3.623,0,0,0-2.672,1.167A5.1,5.1,0,0,0,360.888,8887.254Z" fill="#b7852c"/>
        <path id="Path_2759" data-name="Path 2759" d="M378.892,8876.541l1.982.451a24.243,24.243,0,0,1-2.6,5.156,19.143,19.143,0,0,1-3.474,4,9.777,9.777,0,0,0-1.606-1.381,15.707,15.707,0,0,0,3.337-3.588A19.3,19.3,0,0,0,378.892,8876.541Zm-1.882,7.376h15.455c-.017.418-.034.72-.05.9q-.327,5.821-.7,8.329a6.667,6.667,0,0,1-1.053,3.237,2.7,2.7,0,0,1-1.957.877,33.788,33.788,0,0,1-3.588-.05,3.51,3.51,0,0,0-.627-1.831q1.48.125,3.512.125a1.372,1.372,0,0,0,1.029-.3q.954-.954,1.43-9.484h-6.6a18.489,18.489,0,0,1-2.784,7.088,14.021,14.021,0,0,1-5.244,4.5,7.73,7.73,0,0,0-1.48-1.481,11.825,11.825,0,0,0,4.9-3.852,15.491,15.491,0,0,0,2.521-6.26H377.01Zm4.617-9.609h8.028a19.135,19.135,0,0,0,2.873,5.884,14.107,14.107,0,0,0,4.4,4.1,6.072,6.072,0,0,0-1.33,1.682,16.384,16.384,0,0,1-4.328-4.19,22.1,22.1,0,0,1-3-5.694h-6.648Z" fill="#b7852c"/>
        <path id="Path_2760" data-name="Path 2760" d="M422.737,8890.741v1.631H412.275v3.011a2.225,2.225,0,0,1-.263,1.2,1.53,1.53,0,0,1-.941.577,29.21,29.21,0,0,1-4.667.2,6.12,6.12,0,0,0-.652-1.582q.877.026,3.914.025a1.106,1.106,0,0,0,.5-.112.424.424,0,0,0,.126-.364v-2.96H399.957v-1.631h10.336v-1.53h1.129a28.319,28.319,0,0,0,4.34-1.556h-13.4v-1.581h16.157l.452-.075,1.254,1.028a30.1,30.1,0,0,1-7.953,3.288v.426Zm-.351-14.651v1.68H400.207v-1.68h10.061v-2.233h1.982v2.233Zm-2.986,8.43H403.444V8879.4H419.4Zm-14.1-3.738v2.357h12.093v-2.357Z" fill="#b7852c"/>
      </g>
      <g id="line-2" data-name="line" transform="translate(4)">
        <path id="Path_6059" data-name="Path 6059" d="M16.9,0A16.9,16.9,0,1,1,0,16.9,16.9,16.9,0,0,1,16.9,0Z" transform="translate(270.39 8869.003)" fill="#b7852c"/>
        <path id="Path_2761" data-name="Path 2761" d="M287.289,8904.427a18.525,18.525,0,1,1,18.525-18.525A18.546,18.546,0,0,1,287.289,8904.427Zm0-36.05a17.525,17.525,0,1,0,17.525,17.524A17.545,17.545,0,0,0,287.289,8868.377Z" transform="translate(0 0)" fill="#b7852c"/>
        <g id="Group_212" data-name="Group 212">
          <path id="Path_2762" data-name="Path 2762" d="M299.178,8884.669a8.654,8.654,0,0,1-1.707,5.145,16.528,16.528,0,0,1-2.272,2.565,43.229,43.229,0,0,1-7.08,5.269,4.185,4.185,0,0,1-1.127.524c-.459.114-.681-.051-.643-.522.042-.518.161-1.027.208-1.544.1-1.048-.169-1.381-1.208-1.542a12.288,12.288,0,0,1-6.2-2.714,9.034,9.034,0,0,1-.09-14.239,12.677,12.677,0,0,1,9.95-2.863,11.939,11.939,0,0,1,7.529,3.61A8.976,8.976,0,0,1,299.178,8884.669Z" fill="#f6f6f6"/>
          <path id="Path_2763" data-name="Path 2763" d="M287.282,8887.7c-.321.372-.737.193-1.09.126-.274-.053-.148-.386-.149-.594-.01-1.51-.013-3.019,0-4.527,0-.243-.173-.645.236-.687.394-.04.844-.193,1.165.3.587.9,1.229,1.762,1.849,2.64.076.106.154.211.326.446,0-1.039,0-1.931,0-2.82,0-.2-.074-.48.177-.546a1.476,1.476,0,0,1,1.013.034c.183.088.109.311.11.478,0,1.543.008,3.087,0,4.63,0,.238.143.624-.2.668-.389.05-.854.234-1.18-.247-.612-.9-1.251-1.79-1.888-2.676-.094-.131-.13-.337-.352-.343a.358.358,0,0,0-.09.126c-.05.843-.01,1.688-.021,2.532,0,.235-.02.445-.322.4.077.031.176-.011.276-.015A.263.263,0,0,1,287.282,8887.7Z" fill="#b7852c"/>
          <path id="Path_2764" data-name="Path 2764" d="M295.4,8885.507a5.675,5.675,0,0,1-1.926.1c-.343.013-.476.063-.476.447s.106.512.5.485c.518-.035,1.04,0,1.56-.013.306-.01.46.094.44.413a2.409,2.409,0,0,0,0,.416c.046.412-.134.547-.54.536-.918-.023-1.837-.02-2.756,0-.363.007-.488-.122-.486-.48q.018-2.471,0-4.941c0-.363.132-.487.49-.48q1.4.026,2.808,0c.363-.007.484.134.488.489.011.876.025.876-.863.876-.416,0-.836.032-1.248-.009-.438-.043-.368.229-.376.488s-.024.467.361.441c.535-.036,1.074-.016,1.611-.006.141,0,.318-.083.418.105A9.779,9.779,0,0,1,295.4,8885.507Z" fill="#b7852c"/>
          <path id="Path_2765" data-name="Path 2765" d="M280.772,8886.539a.759.759,0,0,0,.081-.037l.069.03a1.322,1.322,0,0,0,.146.045,12.907,12.907,0,0,0,1.9,0,.265.265,0,0,1,.249.184q0,.417,0,.834a.842.842,0,0,1-.631.155c-.909.007-1.818-.011-2.727.01a1.179,1.179,0,0,1-.274.031c-.2-.14-.1-.35-.1-.524q-.014-2.313,0-4.626c0-.221-.127-.576.2-.613s.745-.227,1.039.153a.3.3,0,0,1-.147.072l-.1-.014a.521.521,0,0,0-.1,0c0-.069-.049-.07-.022-.007s-.012-.01.042,0c.34.076.225.348.229.547.019,1.188-.015,2.379.02,3.568C280.674,8886.42,280.675,8886.511,280.772,8886.539Z" fill="#b7852c"/>
          <path id="Path_2766" data-name="Path 2766" d="M285.23,8884.978c0,.813-.024,1.629.008,2.44.022.543-.325.461-.65.463s-.656.068-.648-.468c.024-1.661.02-3.322,0-4.983-.006-.557.368-.427.676-.437s.634-.062.618.441C285.211,8883.282,285.23,8884.13,285.23,8884.978Z" fill="#b7852c"/>
        </g>
      </g>
    </g>
  </g>
</svg>
