<svg xmlns="http://www.w3.org/2000/svg" width="261.598" height="261.599" viewBox="0 0 261.598 261.599">
  <g id="logo" transform="translate(-387.735 -57.084)">
    <path id="Path_5493" data-name="Path 5493" d="M518.534,7199.633c-72.122,0-130.8-58.677-130.8-130.8s58.677-130.8,130.8-130.8,130.8,58.677,130.8,130.8S590.656,7199.633,518.534,7199.633Zm0-260.07a129.271,129.271,0,1,0,129.27,129.27A129.416,129.416,0,0,0,518.534,6939.563Z" transform="translate(0 -6880.95)" fill="#b3976d"/>
    <g id="Group_366" data-name="Group 366" transform="translate(0 -6880.95)">
      <g id="Group_164" data-name="Group 164">
        <path id="Path_1725" data-name="Path 1725" d="M488.46,7004.882h4.212l19.124,28.929-3.526,5.411,4.362,6.314c.446.69.871,1.38,1.307,2.07l3.491-5.274,3.662,5.54c.611-.955,1.211-1.9,1.858-2.893l.034-.045,3.739-5.49-3.659-5.624,19.095-28.847h4.207a.74.74,0,1,0,0-1.479H531.551l-14.12,21.669-14.156-21.757H488.46a.738.738,0,1,0,0,1.476Z" fill="#717071"/>
        <path id="Path_1726" data-name="Path 1726" d="M576.169,7026.057h-14.95L547.283,7047.2q-4.614,7.065-7.853,12.711c-1.349-2.426-2.785-4.853-4.264-7.281l-5.616,8.034,4.533,6.857v14.465h.069a.735.735,0,0,0,.741.736h14.069a.736.736,0,1,0,0-1.472H543.6v-13.729l27.691-40h4.876a.735.735,0,1,0,0-1.471Z" fill="#717071"/>
        <path id="Path_1727" data-name="Path 1727" d="M504.85,7061.336l-5.564-8.079c-1.343,2.22-2.644,4.439-3.878,6.657q-3.244-5.64-7.852-12.711l-13.937-21.146H458.672a.735.735,0,1,0,0,1.471h4.873l27.688,40v13.729h-5.355a.736.736,0,1,0,0,1.472h14.383a.735.735,0,0,0,.739-.736.727.727,0,0,0-.245-.54v-13.925Z" fill="#717071"/>
        <path id="Path_1728" data-name="Path 1728" d="M526.685,7088.463h-5.352v-21.591l35.512-50.814H562.1a.739.739,0,0,0,0-1.477H546.788l-21.778,31.978q-4.616,7.071-7.855,12.711-3.381-6.087-7.309-12.174l-21.958-31.773H473.074a.739.739,0,1,0,0,1.478h4.249l34.482,50.071v21.591h-5.187a.738.738,0,1,0,0,1.476h20.067a.738.738,0,1,0,0-1.476Z" fill="#231a69"/>
      </g>
      <g id="Group_165" data-name="Group 165">
        <path id="Path_1729" data-name="Path 1729" d="M456.393,7137.935v-2.5l-2.552-3.962h1.15l1.907,3.182,2-3.182h1.049l-2.574,3.962v2.5Z" fill="#595757"/>
        <path id="Path_1730" data-name="Path 1730" d="M460.561,7131.472h.964v4.348a1.8,1.8,0,0,0,.345,1.261,1.6,1.6,0,0,0,1.175.355,1.714,1.714,0,0,0,1.24-.39,1.657,1.657,0,0,0,.4-1.226v-4.348h.942v4.218a3.774,3.774,0,0,1-.123,1.156,1.477,1.477,0,0,1-.416.6,2.327,2.327,0,0,1-.872.475,4.361,4.361,0,0,1-2.4-.012,2.044,2.044,0,0,1-.853-.5,1.237,1.237,0,0,1-.311-.56,5.08,5.08,0,0,1-.092-1.161Z" fill="#595757"/>
        <path id="Path_1731" data-name="Path 1731" d="M466.371,7137.935l2.356-6.463h1.228l2.39,6.463h-.976l-.656-1.863h-2.737l-.629,1.863Zm1.823-2.518h2.3l-1.15-3.386Z" fill="#595757"/>
        <path id="Path_1732" data-name="Path 1732" d="M473.281,7137.935v-6.463h1.29l2.995,5.544-.089-5.544h.931v6.463h-1.235l-3.039-5.707.078,5.707Z" fill="#595757"/>
        <path id="Path_1733" data-name="Path 1733" d="M484.4,7137.935v-5.8h-2.2v-.663h5.261v.663h-2.07v5.8Z" fill="#595757"/>
        <path id="Path_1734" data-name="Path 1734" d="M486.955,7137.935l2.356-6.463h1.228l2.39,6.463h-.976l-.657-1.863h-2.737l-.628,1.863Zm1.823-2.518h2.3l-1.15-3.386Z" fill="#595757"/>
        <path id="Path_1735" data-name="Path 1735" d="M493.865,7137.935v-6.463h.987v6.463Z" fill="#595757"/>
        <path id="Path_1736" data-name="Path 1736" d="M502.3,7136.235l.887,0a1.719,1.719,0,0,1-.539,1.356,2.211,2.211,0,0,1-1.519.478,1.946,1.946,0,0,1-1.6-.633,3.049,3.049,0,0,1-.518-1.948,2.828,2.828,0,0,1,.538-1.886,2.039,2.039,0,0,1,1.632-.623,2.244,2.244,0,0,1,1.428.413,1.355,1.355,0,0,1,.524,1.127v.1h-.88a1.144,1.144,0,0,0-.292-.773,1.009,1.009,0,0,0-.746-.264,1.038,1.038,0,0,0-.945.439,2.886,2.886,0,0,0-.283,1.492,2.925,2.925,0,0,0,.286,1.509,1.049,1.049,0,0,0,.953.442.979.979,0,0,0,.78-.315A1.406,1.406,0,0,0,502.3,7136.235Z" fill="#595757"/>
        <path id="Path_1737" data-name="Path 1737" d="M504.274,7135.522a2.842,2.842,0,0,1,.559-1.929,2.665,2.665,0,0,1,3.427-.006,3.663,3.663,0,0,1,0,3.864,2.728,2.728,0,0,1-3.443,0A2.856,2.856,0,0,1,504.274,7135.522Zm.965,0a2.864,2.864,0,0,0,.3,1.526,1.12,1.12,0,0,0,1,.442,1.106,1.106,0,0,0,1-.451,3.986,3.986,0,0,0,0-3.034,1.114,1.114,0,0,0-1-.442,1.126,1.126,0,0,0-1,.438A2.824,2.824,0,0,0,505.239,7135.522Z" fill="#595757"/>
        <path id="Path_1738" data-name="Path 1738" d="M510.007,7137.935v-4.83h.846v.6a1.461,1.461,0,0,1,.64-.529,2.448,2.448,0,0,1,.982-.176,1.814,1.814,0,0,1,1.214.323,1.436,1.436,0,0,1,.362,1.112v3.5h-.909v-3.55a.736.736,0,0,0-.224-.588,1.034,1.034,0,0,0-.684-.193,1.5,1.5,0,0,0-.963.286.937.937,0,0,0-.356.772v3.273Z" fill="#595757"/>
        <path id="Path_1739" data-name="Path 1739" d="M515.234,7136.483h.9a.071.071,0,0,1-.005.025.894.894,0,0,0-.017.139.682.682,0,0,0,.3.6,1.545,1.545,0,0,0,.873.206,1.414,1.414,0,0,0,.821-.21.663.663,0,0,0,.3-.571q0-.571-1.172-.873l-.017,0a4.237,4.237,0,0,1-1.526-.609,1.1,1.1,0,0,1-.347-.877,1.146,1.146,0,0,1,.5-.988,2.344,2.344,0,0,1,1.383-.355,2.446,2.446,0,0,1,1.419.34,1.156,1.156,0,0,1,.477,1v.068h-.859a.863.863,0,0,0-.263-.636,1.121,1.121,0,0,0-.735-.2,1.389,1.389,0,0,0-.794.187.637.637,0,0,0-.266.556.608.608,0,0,0,.07.294.545.545,0,0,0,.205.21,3.649,3.649,0,0,0,.981.336c.262.061.464.113.606.154a2.157,2.157,0,0,1,.954.49,1.08,1.08,0,0,1,.286.782,1.29,1.29,0,0,1-.558,1.121,2.731,2.731,0,0,1-1.59.394,2.318,2.318,0,0,1-1.434-.375,1.315,1.315,0,0,1-.485-1.106Z" fill="#595757"/>
        <path id="Path_1740" data-name="Path 1740" d="M521.539,7136.937a.44.44,0,0,0,.146.4,1.558,1.558,0,0,0,.7.094c.049,0,.089,0,.121,0s.059,0,.081-.006l.006.592-.225.008c-.232.009-.379.013-.442.013a1.868,1.868,0,0,1-.952-.191.633.633,0,0,1-.311-.577v-3.6h-.9v-.558h.9v-1.289h.881v1.289h1.049v.558h-1.049Z" fill="#595757"/>
        <path id="Path_1741" data-name="Path 1741" d="M523.333,7137.935v-4.83h.836v.789a1.483,1.483,0,0,1,.592-.663,1.707,1.707,0,0,1,.906-.24c.1,0,.178,0,.232,0s.106.007.155.012v.722a.749.749,0,0,0-.16-.044,1.123,1.123,0,0,0-.194-.015,1.575,1.575,0,0,0-1.082.344,1.22,1.22,0,0,0-.387.961v2.959Z" fill="#595757"/>
        <path id="Path_1742" data-name="Path 1742" d="M530.232,7137.935v-.629a1.272,1.272,0,0,1-.609.562,2.321,2.321,0,0,1-1,.2,1.872,1.872,0,0,1-1.177-.3,1.141,1.141,0,0,1-.371-.948V7133.1h.943v3.731a.561.561,0,0,0,.2.461.846.846,0,0,0,.558.164,1.549,1.549,0,0,0,1.015-.3,1.042,1.042,0,0,0,.365-.848V7133.1h.913v4.83Z" fill="#595757"/>
        <path id="Path_1743" data-name="Path 1743" d="M535.622,7136.235l.886,0a1.718,1.718,0,0,1-.538,1.356,2.213,2.213,0,0,1-1.52.478,1.944,1.944,0,0,1-1.6-.633,3.042,3.042,0,0,1-.518-1.948,2.822,2.822,0,0,1,.538-1.886,2.039,2.039,0,0,1,1.632-.623,2.239,2.239,0,0,1,1.427.413,1.356,1.356,0,0,1,.525,1.127v.1h-.881a1.144,1.144,0,0,0-.291-.773,1.011,1.011,0,0,0-.747-.264,1.036,1.036,0,0,0-.944.439,2.876,2.876,0,0,0-.283,1.492,2.925,2.925,0,0,0,.286,1.509,1.049,1.049,0,0,0,.953.442.982.982,0,0,0,.78-.315A1.406,1.406,0,0,0,535.622,7136.235Z" fill="#595757"/>
        <path id="Path_1744" data-name="Path 1744" d="M538.813,7136.937a.443.443,0,0,0,.146.4,1.564,1.564,0,0,0,.7.094c.048,0,.089,0,.12,0s.059,0,.082-.006l.006.592-.225.008c-.232.009-.38.013-.443.013a1.863,1.863,0,0,1-.951-.191.631.631,0,0,1-.311-.577v-3.6h-.9v-.558h.9v-1.289h.88v1.289h1.05v.558h-1.05Z" fill="#595757"/>
        <path id="Path_1745" data-name="Path 1745" d="M540.6,7132.349v-.877h.931v.877Zm0,5.586v-4.83h.931v4.83Z" fill="#595757"/>
        <path id="Path_1746" data-name="Path 1746" d="M542.711,7135.522a2.842,2.842,0,0,1,.558-1.929,2.665,2.665,0,0,1,3.427-.006,3.66,3.66,0,0,1,0,3.864,2.729,2.729,0,0,1-3.444,0A2.857,2.857,0,0,1,542.711,7135.522Zm.965,0a2.875,2.875,0,0,0,.3,1.526,1.12,1.12,0,0,0,1,.442,1.106,1.106,0,0,0,.995-.451,3.986,3.986,0,0,0,0-3.034,1.352,1.352,0,0,0-2,0A2.815,2.815,0,0,0,543.676,7135.522Z" fill="#595757"/>
        <path id="Path_1747" data-name="Path 1747" d="M548.443,7137.935v-4.83h.847v.6a1.45,1.45,0,0,1,.64-.529,2.443,2.443,0,0,1,.981-.176,1.819,1.819,0,0,1,1.215.323,1.439,1.439,0,0,1,.361,1.112v3.5h-.909v-3.55a.736.736,0,0,0-.224-.588,1.032,1.032,0,0,0-.684-.193,1.5,1.5,0,0,0-.962.286.934.934,0,0,0-.356.772v3.273Z" fill="#595757"/>
        <path id="Path_1748" data-name="Path 1748" d="M559.829,7136.235l.886,0a1.718,1.718,0,0,1-.538,1.356,2.214,2.214,0,0,1-1.52.478,1.944,1.944,0,0,1-1.6-.633,3.043,3.043,0,0,1-.519-1.948,2.822,2.822,0,0,1,.539-1.886,2.038,2.038,0,0,1,1.631-.623,2.242,2.242,0,0,1,1.428.413,1.356,1.356,0,0,1,.525,1.127v.1h-.881a1.144,1.144,0,0,0-.292-.773,1.007,1.007,0,0,0-.746-.264,1.038,1.038,0,0,0-.945.439,2.886,2.886,0,0,0-.283,1.492,2.925,2.925,0,0,0,.286,1.509,1.052,1.052,0,0,0,.954.442.982.982,0,0,0,.78-.315A1.406,1.406,0,0,0,559.829,7136.235Z" fill="#595757"/>
        <path id="Path_1749" data-name="Path 1749" d="M561.8,7135.522a2.842,2.842,0,0,1,.558-1.929,2.665,2.665,0,0,1,3.427-.006,3.66,3.66,0,0,1,0,3.864,2.729,2.729,0,0,1-3.444,0A2.857,2.857,0,0,1,561.8,7135.522Zm.965,0a2.875,2.875,0,0,0,.3,1.526,1.12,1.12,0,0,0,1,.442,1.106,1.106,0,0,0,1-.451,3.986,3.986,0,0,0,0-3.034,1.352,1.352,0,0,0-2,0A2.815,2.815,0,0,0,562.768,7135.522Z" fill="#595757"/>
        <path id="Path_1750" data-name="Path 1750" d="M567.765,7137.935v-.885h1.021v.885Z" fill="#595757"/>
        <path id="Path_1751" data-name="Path 1751" d="M570.614,7139.173v-.4a.482.482,0,0,0,.356-.24,1.043,1.043,0,0,0,.127-.554v-.042h-.483v-.885h1.021v.885a1.231,1.231,0,0,1-.275.818A1.212,1.212,0,0,1,570.614,7139.173Z" fill="#595757"/>
        <path id="Path_1752" data-name="Path 1752" d="M573.268,7137.935v-6.463h.9v6.463Z" fill="#595757"/>
        <path id="Path_1753" data-name="Path 1753" d="M576.56,7136.937a.443.443,0,0,0,.146.4,1.563,1.563,0,0,0,.7.094c.048,0,.088,0,.12,0s.059,0,.081-.006l.006.592-.225.008c-.231.009-.379.013-.442.013a1.868,1.868,0,0,1-.952-.191.633.633,0,0,1-.311-.577v-3.6h-.9v-.558h.9v-1.289h.881v1.289h1.049v.558H576.56Z" fill="#595757"/>
        <path id="Path_1754" data-name="Path 1754" d="M582.466,7137.935h-.847v-.608a.977.977,0,0,1-.505.512,1.971,1.971,0,0,1-.9.193,1.8,1.8,0,0,1-1.523-.682,3.213,3.213,0,0,1-.524-1.983,2.633,2.633,0,0,1,.527-1.752,1.82,1.82,0,0,1,1.47-.624,2.219,2.219,0,0,1,.9.172.847.847,0,0,1,.491.441v-2.132h.908Zm-.847-2.451a2.813,2.813,0,0,0-.277-1.473,1.241,1.241,0,0,0-1.882.034,2.52,2.52,0,0,0-.3,1.389,3.024,3.024,0,0,0,.289,1.521,1,1,0,0,0,.917.472,1.067,1.067,0,0,0,.962-.445A2.833,2.833,0,0,0,581.619,7135.484Z" fill="#595757"/>
      </g>
      <g id="Group_166" data-name="Group 166">
        <path id="Path_1755" data-name="Path 1755" d="M434.268,7116.336v2.241a11.519,11.519,0,0,1-.366,2.587c-.129.345-.245.689-.345,1.034a11.557,11.557,0,0,1-5.82,5.865l-1.316-1.661a11.29,11.29,0,0,0,2.652-1.444,7.538,7.538,0,0,0,3.233-6.381v-2.241h-5.432v-1.876h19.855v1.876h-6.252v8.515a1.083,1.083,0,0,0,.324.8,1.179,1.179,0,0,0,.775.323h2.587a.937.937,0,0,0,.582-.216.579.579,0,0,0,.194-.517q.023-.927.022-3.212l1.962.238q-.066,4.375-.518,4.893a2.033,2.033,0,0,1-1.4.776h-4.527a2.055,2.055,0,0,1-1.38-.69,1.9,1.9,0,0,1-.582-1.294v-9.613ZM445,7108.683v1.874H428.685v-1.874Z" fill="#231a69"/>
        <path id="Path_1756" data-name="Path 1756" d="M459.15,7125.3h-6.941v-1.357h6.941v-.691l-7.372.281q-.129-.669-.324-1.444l4.118-.13q.732-.667,1.4-1.4h-3.988V7119.2h14.163v1.358h-2.005q2.307,1.617,3.083,2.263l-.971,1.122h.324v1.357h-6.725v.842h8.88v1.617h-19.6v-1.617h9.011Zm-8.881-8.04c.013-.2.114-.3.3-.3h18.216l1.4.69a14.2,14.2,0,0,1-.668,3.945l-1.639-.474a12.518,12.518,0,0,0,.5-2.394q0-.236-.216-.236H452.123a.134.134,0,0,0-.152.151v2.652h-1.7Zm8.881-7.05H451v-1.529h8.149v-.992h1.7v.992h8.191v1.529h-8.191v.712h6.984v1.358H452.123v-1.358h7.027Zm8.213,6.08H452.618c-.13,0-.194-.072-.194-.216v-2.932a.171.171,0,0,1,.194-.194h14.745c.143,0,.216.065.216.194v2.932A.191.191,0,0,1,467.363,7116.292Zm-13.192-2.07c-.044,0-.059.022-.044.066v.646a.06.06,0,0,0,.044.086h11.641a.085.085,0,0,0,.064-.086v-.646a.058.058,0,0,0-.064-.066Zm9.1,6.338H459q-.474.584-1.143,1.315l6.1-.194q-.734-.518-1.014-.668Zm-2.413,3.385h6.229q-.582-.494-1.251-.97l-4.978.215Z" fill="#231a69"/>
        <path id="Path_1757" data-name="Path 1757" d="M477.456,7117.068c-.015-.173-.05-.259-.108-.259h-3.083l-.669-1.056,3.084-5.519c.014-.057.014-.079,0-.064h-3.126v-1.811h4.85l.8,1.142-3.276,5.519h2.8q.646,0,.646.6a18.683,18.683,0,0,1-.56,4.635,21.833,21.833,0,0,1-1.272,3.256q1.941,2.349,6.1,2.285h9.767l-.519,1.962h-8.536a18.778,18.778,0,0,1-4.117-.561,7.226,7.226,0,0,1-3.557-2.048,24.011,24.011,0,0,1-2.329,3.148l-1.573-1.423a19.474,19.474,0,0,0,2.608-3.363.458.458,0,0,1-.129-.194,19.292,19.292,0,0,1-1.833-4.355l1.769-.5a18.93,18.93,0,0,0,1.163,3.148A11.014,11.014,0,0,0,477.456,7117.068Zm2.069,6.036v-1.79h5.389v-1.228h-4.527v-1.79h4.527v-1.314h-3.9v-1.79h3.9v-1.443h-5.647v-1.7h5.647V7110.6h-3.988v-1.79h3.988v-1.12h1.876v1.12h4.463q.581.023.581.561v2.673h1.423v1.7h-1.423v2.651a.514.514,0,0,1-.581.582H486.79v1.314h5.346v1.79H486.79v1.228h6.122v1.79H486.79v2.113h-1.876V7123.1Zm7.265-11.059h3.255v-1.294a.158.158,0,0,0-.173-.15H486.79Zm0,3.147h3.082c.116-.014.173-.071.173-.172v-1.271H486.79Z" fill="#231a69"/>
        <path id="Path_1758" data-name="Path 1758" d="M504.45,7111.4v1.79h-8.214v-1.79Zm-.9,16.233H496.9c-.158,0-.238-.086-.238-.259v-7.5c.015-.159.094-.238.238-.238h6.64c.172.015.258.094.258.238v7.5A.228.228,0,0,1,503.545,7127.631Zm-.129-13.431v1.7h-6.23v-1.7Zm0,2.76v1.7h-6.23v-1.7Zm.086-8.407v1.789h-6.23v-1.789Zm-4.981,12.783c-.057,0-.078.022-.064.065v4.44c-.014.044.007.073.064.088h3.407c.058-.015.086-.044.086-.088v-4.44c0-.043-.028-.065-.086-.065Zm9.464-10.972v.818a5.692,5.692,0,0,1-2.587,5.024l-1.271-1.337.624-.431a4.778,4.778,0,0,0,1.531-3.837v-1.811a.44.44,0,0,1,.108-.259.353.353,0,0,1,.259-.108h6.381a.352.352,0,0,1,.258.086.559.559,0,0,1,.13.281v4.42a1.188,1.188,0,0,0,.129.6c.087.129.309.2.669.215h.172a1.213,1.213,0,0,0,.495-.129c.088-.043.13-.244.13-.6V7112l1.639.172q-.066,1.854-.087,2.307a1.082,1.082,0,0,1-.388.733,1.76,1.76,0,0,1-1.164.517H513.44a1.788,1.788,0,0,1-1.23-.473,1.6,1.6,0,0,1-.5-1.23v-3.643a.252.252,0,0,0-.281-.259h-3.212Q507.985,7110.149,507.985,7110.364Zm-2.543,17.892-1.142-1.595a25.218,25.218,0,0,0,4.483-2.156,21.418,21.418,0,0,1-3.535-4.936l1.6-.842a16.756,16.756,0,0,0,3.3,4.743,9.859,9.859,0,0,0,3.213-4.85.258.258,0,0,0-.087-.216.855.855,0,0,0-.431-.042H505.27v-1.79h9.14l1.012.776a10.816,10.816,0,0,1-1.595,4.549,14.529,14.529,0,0,1-2.241,2.738,14.8,14.8,0,0,0,5.044,1.875l-.992,1.768a20.712,20.712,0,0,1-5.475-2.523A33.759,33.759,0,0,1,505.442,7128.256Z" fill="#231a69"/>
        <path id="Path_1759" data-name="Path 1759" d="M525.817,7128.127h-1.876v-11.879a4.042,4.042,0,0,0-.517.389,23.241,23.241,0,0,1-3.082,1.94l-1.23-1.66a22.213,22.213,0,0,0,7.352-5.669h-7.05v-1.876H527.8q.516-.8,1.056-1.725l1.681,1.036q-.237.344-.431.689h9.506v1.876H528.857a23.553,23.553,0,0,1-2.307,2.694h10.692a.42.42,0,0,1,.475.474v11.62a2.055,2.055,0,0,1-.884,1.746q-1.467.969-5.217-.021v-2.07q3.081.927,3.73.453a.986.986,0,0,0,.495-.862v-1.273H525.817Zm10.024-10.046v-2.113a.158.158,0,0,0-.172-.151h-9.7a.134.134,0,0,0-.151.151v2.113Zm0,4.053v-2.177H525.817v2.177Z" fill="#231a69"/>
        <path id="Path_1760" data-name="Path 1760" d="M545.115,7128.063h-1.876v-19.338a.229.229,0,0,1,.259-.258h5.368l1.315.883-1.94,5.648q-.173.432.022.647a9.357,9.357,0,0,1,1.617,2.759,4.4,4.4,0,0,1-.173,3.752,2.635,2.635,0,0,1-1.336,1.1,5.6,5.6,0,0,1-3.256-.064Zm.152-17.807a.276.276,0,0,0-.108.043.144.144,0,0,0-.044.108v10.8a3.222,3.222,0,0,0,2.286.366.944.944,0,0,0,.689-.5q.84-1.617-1.875-5.369a.17.17,0,0,1-.044-.128c.015-.044.029-.094.044-.151l1.617-4.765c.1-.287-.008-.423-.324-.409Zm17.741,16.577-1.466,1.4q-1.25-.842-2.155-1.574a14.4,14.4,0,0,1-4.894-8.515h-1.617v7.631a28.717,28.717,0,0,0,3.19-.884l.453,1.854a36.064,36.064,0,0,1-7.653,1.595l-.345-1.854q1.293-.214,2.479-.366v-17.138a.508.508,0,0,1,.561-.561H561q.582.023.582.561v8.558a.534.534,0,0,1-.6.6h-4.613a16.21,16.21,0,0,0,1.293,3.687,26.107,26.107,0,0,0,3.449-2.825l1.228,1.444a24.382,24.382,0,0,1-3.664,2.976A14.254,14.254,0,0,0,563.008,7126.833Zm-3.3-14.443v-1.639c0-.3-.158-.452-.475-.452h-5.906a.4.4,0,0,0-.453.452v1.639Zm-6.834,1.876v2h6.531c.2-.014.3-.114.3-.3v-1.7Z" fill="#231a69"/>
        <path id="Path_1761" data-name="Path 1761" d="M571.72,7111.442a19.905,19.905,0,0,1-4.483,7.285l-1.768-1.185a17.014,17.014,0,0,0,4.4-6.769Zm-5.173,15.908q-.238-.883-.518-1.94l2.479-.172a67.013,67.013,0,0,0,5.045-10.11l1.81.8a67.7,67.7,0,0,1-4.505,9.162l10.822-.819a54.067,54.067,0,0,0-3.6-4.958l1.617-1.078a89.81,89.81,0,0,1,6.057,8.86l-1.681.949q-.561-.993-1.229-2.026Zm14.12-19.012a.425.425,0,0,1,.517.345,15.529,15.529,0,0,0,1.617,4.914,14.13,14.13,0,0,0,3.449,3.988l-1.833,1.142a17.579,17.579,0,0,1-2.952-3.729,25.9,25.9,0,0,1-1.7-4.441c-.03-.229-.094-.345-.2-.345h-7.178v-1.874Z" fill="#231a69"/>
        <path id="Path_1762" data-name="Path 1762" d="M607.812,7108.338a.563.563,0,0,1,.6.668v16.4a2.468,2.468,0,0,1-.906,2.028q-1.551,1.422-6.984.193l-.238-2.048q4.549,1.078,5.6.432a1.594,1.594,0,0,0,.561-1.272v-14.228q0-.3-.323-.3h-16.19v-1.874Zm-3.578,3.794v1.875H590.5v-1.875Zm-1.143,12.05H591.408c-.174,0-.26-.094-.26-.281v-7.717a.23.23,0,0,1,.26-.259h11.683c.187,0,.281.087.281.259v7.717A.249.249,0,0,1,603.091,7124.182Zm-9.981-6.381a.077.077,0,0,0-.086.086v4.311c0,.073.029.108.086.108h8.278c.072-.014.108-.05.108-.108v-4.311a.1.1,0,0,0-.108-.086Z" fill="#231a69"/>
      </g>
    </g>
  </g>
</svg>
