<svg xmlns="http://www.w3.org/2000/svg" width="273.169" height="115.044" viewBox="0 0 273.169 115.044">
  <g id="logo_black" transform="translate(-251.915 -9966.036)">
    <g id="Group_299" data-name="Group 299">
      <path id="Path_4553" data-name="Path 4553" d="M253.626,10072.692c0-.351-.141-.521-.3-.521h-.257v-.2h3.059l.347,1.271h-.14c-.263-.8-.521-1.067-.992-1.067h-1.159c-.247,0-.28.33-.28.521v1.534h.958c.453,0,.515-.2.515-.8h.14v1.813h-.14c0-.679-.09-.8-.515-.8h-.958v1.774c0,.3.168.368.285.368h1.082c.655,0,.985-.64,1.193-1.034h.145l-.481,1.238h-3.059v-.2h.285c.18,0,.27-.186.27-.368Z" fill="#231815"/>
      <path id="Path_4554" data-name="Path 4554" d="M263.436,10074.042a2.774,2.774,0,0,1,.072.548,1.1,1.1,0,0,1,.863-.548c.516,0,.7.422.7.864v.976c0,.718,0,.757.369.757v.146h-1.148v-.146c.387,0,.387-.039.387-.757v-.851c0-.6-.18-.791-.454-.791-.32,0-.527.316-.718.566v1.075c0,.711,0,.757.37.757v.146h-1.131v-.146c.369,0,.369-.039.369-.757v-.785c0-.718,0-.758-.369-.758v-.144a3.4,3.4,0,0,0,.616-.153Z" fill="#231815"/>
      <path id="Path_4555" data-name="Path 4555" d="M272.368,10076.876a1.8,1.8,0,0,1-.3,1.259.923.923,0,0,1-.667.271c-.285,0-.588-.131-.588-.4,0-.131.078-.21.168-.21.129,0,.174.131.219.25a.285.285,0,0,0,.28.217.464.464,0,0,0,.431-.343,2.749,2.749,0,0,0,.062-.8v-2.035c0-.719-.034-.719-.415-.719v-.146a3.205,3.205,0,0,0,.751-.172h.056Zm-.252-4.521a.35.35,0,0,1,0,.686.322.322,0,0,1-.286-.343A.317.317,0,0,1,272.116,10072.355Z" fill="#231815"/>
      <path id="Path_4556" data-name="Path 4556" d="M280.03,10074.042a1.3,1.3,0,0,1,1.2,1.424,1.215,1.215,0,1,1-2.393-.006A1.294,1.294,0,0,1,280.03,10074.042Zm0,2.689c.666,0,.745-.691.745-1.246,0-.711-.146-1.285-.745-1.285s-.74.56-.74,1.28C279.29,10076.013,279.357,10076.731,280.03,10076.731Z" fill="#231815"/>
      <path id="Path_4557" data-name="Path 4557" d="M289.175,10074.721a1.051,1.051,0,0,0,.078-.257c0-.138-.2-.171-.3-.171v-.145h.785v.145c-.28.021-.336.185-.476.58l-1,2.834c-.145.408-.28.7-.5.7a.175.175,0,0,1-.174-.19.433.433,0,0,1,.286-.37.51.51,0,0,0,.331-.369l.212-.626-.84-2.122c-.129-.322-.174-.429-.437-.435v-.145h1.031v.145c-.14.013-.274.021-.274.132a1.865,1.865,0,0,0,.106.323l.616,1.541Z" fill="#231815"/>
      <path id="Path_4558" data-name="Path 4558" d="M306.967,10074.92v.158h-.134c-.342,0-.381.229-.381.718v.726a.481.481,0,0,0-.118-.014c-.459,0-.705.355-1.411.355a1.969,1.969,0,0,1-1.855-2.175c0-1.292.723-2.347,1.872-2.347a1.45,1.45,0,0,1,1.232.641,1.6,1.6,0,0,0,.112-.488h.134v1.463h-.134c-.118-1-.689-1.456-1.283-1.456-.768,0-1.306.566-1.306,2.076,0,1.574.589,2.128,1.306,2.128a.851.851,0,0,0,.913-.87v-.237c0-.429-.123-.52-.358-.52h-.191v-.158Z" fill="#231815"/>
      <path id="Path_4559" data-name="Path 4559" d="M313.842,10075.882c0,.671,0,.757.331.757h.078v.146h-1.188v-.146c.387,0,.387-.025.387-.757v-.745c0-.731,0-.758-.387-.758v-.145a3.618,3.618,0,0,0,.633-.179l.039-.014a2.527,2.527,0,0,1,.079.693c.173-.488.51-.693.717-.693a.41.41,0,0,1,.392.4.207.207,0,0,1-.185.225c-.134,0-.173-.132-.2-.2s-.067-.2-.156-.2c-.158,0-.544.315-.544.987Z" fill="#231815"/>
      <path id="Path_4560" data-name="Path 4560" d="M321.413,10075.044c-.005.093-.011.2-.011.31,0,.337.011,1.364.734,1.364a.728.728,0,0,0,.711-.526h.129a.944.944,0,0,1-.913.7,1.246,1.246,0,0,1-1.114-1.4c0-.816.459-1.443,1.092-1.443a.974.974,0,0,1,.935,1Zm1.082-.131a.885.885,0,0,0,.011-.132c0-.436-.263-.593-.488-.593-.5,0-.571.553-.593.725Z" fill="#231815"/>
      <path id="Path_4561" data-name="Path 4561" d="M329.7,10075.044c-.005.093-.011.2-.011.31,0,.337.011,1.364.734,1.364a.729.729,0,0,0,.711-.526h.129a.946.946,0,0,1-.913.7,1.246,1.246,0,0,1-1.115-1.4c0-.816.46-1.443,1.093-1.443a.974.974,0,0,1,.935,1Zm1.082-.131a.908.908,0,0,0,.01-.132c0-.436-.263-.593-.487-.593-.5,0-.571.553-.594.725Z" fill="#231815"/>
      <path id="Path_4562" data-name="Path 4562" d="M338.147,10074.042a2.774,2.774,0,0,1,.072.548,1.094,1.094,0,0,1,.863-.548c.516,0,.7.422.7.864v.976c0,.718,0,.757.369.757v.146H339v-.146c.386,0,.386-.039.386-.757v-.851c0-.6-.179-.791-.454-.791-.319,0-.526.316-.717.566v1.075c0,.711,0,.757.37.757v.146h-1.132v-.146c.37,0,.37-.039.37-.757v-.785c0-.718,0-.758-.37-.758v-.144a3.387,3.387,0,0,0,.617-.153Z" fill="#231815"/>
      <path id="Path_4563" data-name="Path 4563" d="M348.025,10074.721a1.02,1.02,0,0,0,.079-.257c0-.138-.2-.171-.3-.171v-.145h.784v.145c-.28.021-.336.185-.476.58l-1,2.834c-.146.408-.28.7-.5.7a.175.175,0,0,1-.173-.19.434.434,0,0,1,.285-.37.506.506,0,0,0,.331-.369l.213-.626-.84-2.122c-.129-.322-.174-.429-.438-.435v-.145h1.032v.145c-.141.013-.275.021-.275.132a1.865,1.865,0,0,0,.106.323l.617,1.541Z" fill="#231815"/>
      <path id="Path_4564" data-name="Path 4564" d="M364.939,10076.784h-3.154v-.146h.112c.47,0,.47-.145.47-.988v-2.142c0-.883-.011-.941-.5-.941h-.084v-.146h1.781v.146H363.4c-.487,0-.5.052-.5.941v2.28c0,.758,0,.85.555.85h.28c.644,0,.84-.145,1.1-1.14h.124Z" fill="#231815"/>
      <path id="Path_4565" data-name="Path 4565" d="M371.808,10075.882c0,.572-.039.757.308.757h.085v.146H370.99v-.146h.1c.252,0,.33-.039.33-.5v-1.055c0-.724-.034-.724-.426-.724v-.146a3.623,3.623,0,0,0,.762-.172h.056Zm-.252-3.526a.35.35,0,0,1,0,.686.322.322,0,0,1-.286-.343A.318.318,0,0,1,371.556,10072.355Z" fill="#231815"/>
      <path id="Path_4566" data-name="Path 4566" d="M379.426,10074.293h-.465v1.872c0,.408.056.474.33.474h.118v.146H378.2v-.146c.347,0,.37-.071.37-.5v-1.845h-.415v-.145h.415v-.494c0-.646.268-1.3.963-1.3.5,0,.712.316.712.48a.2.2,0,0,1-.185.218c-.146,0-.218-.164-.263-.263s-.135-.29-.347-.29c-.483,0-.488.725-.488.9v.745h.465Z" fill="#231815"/>
      <path id="Path_4567" data-name="Path 4567" d="M386.09,10075.044c-.005.093-.011.2-.011.31,0,.337.011,1.364.734,1.364a.729.729,0,0,0,.711-.526h.129a.946.946,0,0,1-.913.7,1.246,1.246,0,0,1-1.115-1.4c0-.816.46-1.443,1.093-1.443a.975.975,0,0,1,.935,1Zm1.082-.131a.9.9,0,0,0,.01-.132c0-.436-.263-.593-.487-.593-.5,0-.571.553-.594.725Z" fill="#231815"/>
    </g>
    <g id="Group_300" data-name="Group 300">
      <path id="Path_4568" data-name="Path 4568" d="M258.266,9991.566a4.21,4.21,0,0,0-.456-2.084c-.139-.317-2.8-4.685-3.493-5.717a5.576,5.576,0,0,0-1.35-1.469,1.9,1.9,0,0,0-.853-.316c-.1,0-.2-.04-.2-.14,0-.08.08-.139.259-.139.376,0,1.865.059,1.964.059.139,0,.894-.059,1.668-.059.218,0,.257.059.257.139s-.119.1-.3.179a.4.4,0,0,0-.258.357,1.7,1.7,0,0,0,.258.774c.318.575,3.295,5.7,3.652,6.271.377-.834,2.9-5.18,3.294-5.835a1.932,1.932,0,0,0,.338-1.013c0-.278-.079-.5-.318-.556-.178-.06-.3-.1-.3-.2,0-.079.119-.119.317-.119.516,0,1.151.059,1.31.059.119,0,1.548-.059,1.925-.059.139,0,.259.04.259.119,0,.1-.1.159-.259.159a1.882,1.882,0,0,0-.913.277,3.778,3.778,0,0,0-1.051,1.012,63.116,63.116,0,0,0-3.791,6.312,4.747,4.747,0,0,0-.3,1.985v1.707c0,.317,0,1.15.059,1.984.04.575.219,1.012.814,1.092a8.567,8.567,0,0,0,.893.079c.119,0,.159.061.159.119,0,.1-.1.159-.318.159-1.091,0-2.342-.06-2.441-.06s-1.35.06-1.945.06c-.218,0-.317-.04-.317-.159,0-.059.039-.119.158-.119a3.043,3.043,0,0,0,.6-.079c.4-.08.575-.517.615-1.092.059-.834.059-1.667.059-1.984Z" fill="#231815"/>
      <path id="Path_4569" data-name="Path 4569" d="M270.08,9988.827c0-2.62,0-3.1-.04-3.632s-.139-.854-.715-.934a5.959,5.959,0,0,0-.6-.039.169.169,0,0,1-.138-.139c0-.1.079-.139.277-.139.794,0,1.846.039,2.005.039s1.25-.039,1.766-.039c.2,0,.3.039.3.139a.171.171,0,0,1-.159.139,2.078,2.078,0,0,0-.437.039c-.456.08-.555.378-.6.934-.04.536-.04,1.012-.04,3.632v2.362c0,2.44.536,3.453,1.29,4.128a3.4,3.4,0,0,0,2.6.914,3.586,3.586,0,0,0,2.7-1.191c.813-.973.992-2.362.992-4.089v-2.124c0-2.62-.02-3.1-.04-3.632s-.119-.854-.694-.934c-.139-.019-.437-.039-.6-.039a.15.15,0,0,1-.139-.139c0-.1.08-.139.278-.139.774,0,1.786.039,1.886.039.119,0,.952-.039,1.468-.039.2,0,.278.039.278.139a.149.149,0,0,1-.139.139,2.065,2.065,0,0,0-.436.039c-.476.1-.576.378-.616.934-.039.536-.019,1.012-.019,3.632v1.806c0,1.826-.238,3.871-1.628,5.063a5.287,5.287,0,0,1-3.652,1.229,5.454,5.454,0,0,1-3.632-1.19c-.853-.793-1.528-1.965-1.528-4.426Z" fill="#231815"/>
      <path id="Path_4570" data-name="Path 4570" d="M290.229,9984.282c.218-.556.3-.655.416-.655.179,0,.238.238.417.616.318.714,3.116,7.68,4.188,10.241.635,1.508,1.112,1.727,1.489,1.846a2.432,2.432,0,0,0,.694.1c.1,0,.218.039.218.14s-.2.139-.4.139c-.258,0-1.548,0-2.759-.04-.338-.02-.615-.02-.615-.119,0-.08.039-.08.119-.119a.316.316,0,0,0,.158-.456l-1.567-3.871c-.04-.078-.06-.1-.159-.1H288.4a.185.185,0,0,0-.179.139l-.992,2.7a3.486,3.486,0,0,0-.258,1.132c0,.337.3.456.6.456h.159c.139,0,.178.061.178.14,0,.1-.1.139-.257.139-.417,0-1.37-.06-1.568-.06-.179,0-1.052.06-1.767.06-.218,0-.337-.04-.337-.139a.154.154,0,0,1,.159-.14,4.949,4.949,0,0,0,.515-.039c.794-.1,1.132-.694,1.469-1.549Zm1.945,7.026c.079,0,.079-.04.059-.119l-1.726-4.624q-.15-.388-.3,0l-1.627,4.624c-.021.079,0,.119.059.119Z" fill="#231815"/>
      <path id="Path_4571" data-name="Path 4571" d="M303.074,9994.405c.039,1.389.2,1.806.674,1.925a4.17,4.17,0,0,0,.874.1.137.137,0,0,1,.139.14c0,.1-.119.139-.318.139-.992,0-1.687-.06-1.845-.06s-.894.06-1.687.06c-.179,0-.279-.021-.279-.139a.137.137,0,0,1,.139-.14,2.753,2.753,0,0,0,.715-.1c.436-.119.5-.576.5-2.1v-9.666c0-.675.1-.853.238-.853.2,0,.5.337.675.516.278.278,2.818,2.978,5.518,5.756,1.727,1.786,3.592,3.791,4.128,4.347l-.178-8.455c-.02-1.091-.12-1.469-.655-1.568a5.718,5.718,0,0,0-.854-.079c-.119,0-.139-.1-.139-.158,0-.1.139-.119.337-.119.794,0,1.628.039,1.827.039s.774-.039,1.488-.039c.179,0,.318.02.318.119a.2.2,0,0,1-.2.158,2.014,2.014,0,0,0-.417.039c-.576.119-.615.457-.615,1.47l-.04,9.884c0,1.111-.019,1.211-.139,1.211-.178,0-.357-.14-1.329-1.032-.179-.159-2.7-2.64-4.545-4.565-2.025-2.123-3.99-4.187-4.526-4.782Z" fill="#231815"/>
      <path id="Path_4572" data-name="Path 4572" d="M334.777,9990.951c0,1.905,0,3.473.1,4.307.06.575.179,1.012.775,1.092a8.521,8.521,0,0,0,.893.079c.119,0,.159.061.159.119,0,.1-.1.159-.318.159-1.092,0-2.342-.06-2.442-.06s-1.349.06-1.945.06c-.218,0-.317-.04-.317-.159,0-.059.039-.119.159-.119a3.033,3.033,0,0,0,.6-.079c.4-.08.5-.517.576-1.092.1-.834.1-2.4.1-4.307v-8.4l-2.937.039c-1.231.021-1.707.159-2.025.636a3.487,3.487,0,0,0-.337.615c-.06.159-.12.2-.2.2-.059,0-.1-.06-.1-.179,0-.2.4-1.905.437-2.064.039-.119.119-.377.2-.377a3.681,3.681,0,0,0,.873.238c.576.06,1.33.1,1.569.1h7.442a7.938,7.938,0,0,0,1.409-.1c.3-.039.477-.1.556-.1.1,0,.1.118.1.237,0,.6-.06,1.965-.06,2.184,0,.179-.06.259-.139.259-.1,0-.139-.061-.159-.338l-.02-.219c-.06-.6-.536-1.052-2.441-1.092l-2.5-.039Z" fill="#231815"/>
      <path id="Path_4573" data-name="Path 4573" d="M347.463,9984.282c.218-.556.3-.655.417-.655.179,0,.238.238.417.616.317.714,3.116,7.68,4.188,10.241.635,1.508,1.111,1.727,1.488,1.846a2.434,2.434,0,0,0,.7.1c.1,0,.218.039.218.14s-.2.139-.4.139c-.258,0-1.548,0-2.759-.04-.337-.02-.615-.02-.615-.119,0-.08.04-.08.119-.119a.316.316,0,0,0,.159-.456l-1.568-3.871c-.04-.078-.059-.1-.159-.1h-4.029a.186.186,0,0,0-.179.139l-.992,2.7a3.486,3.486,0,0,0-.258,1.132c0,.337.3.456.6.456h.159c.138,0,.178.061.178.14,0,.1-.1.139-.258.139-.417,0-1.369-.06-1.568-.06-.179,0-1.052.06-1.767.06-.218,0-.337-.04-.337-.139a.155.155,0,0,1,.159-.14,4.966,4.966,0,0,0,.516-.039c.794-.1,1.131-.694,1.469-1.549Zm1.946,7.026c.079,0,.079-.04.059-.119l-1.727-4.624q-.148-.388-.3,0l-1.627,4.624c-.02.079,0,.119.059.119Z" fill="#231815"/>
      <path id="Path_4574" data-name="Path 4574" d="M361.162,9991.8c0,1.628,0,2.958.079,3.653.06.5.119.813.635.893a7.007,7.007,0,0,0,.794.079.135.135,0,0,1,.139.14c0,.079-.079.139-.278.139-.972,0-2.1-.06-2.183-.06-.1,0-1.191.06-1.727.06-.178,0-.278-.04-.278-.139a.136.136,0,0,1,.14-.14,2.478,2.478,0,0,0,.535-.079c.338-.08.4-.4.457-.893.079-.7.1-2.025.1-3.653v-2.977c0-2.62,0-3.1-.04-3.632-.04-.575-.178-.833-.556-.913a3.185,3.185,0,0,0-.535-.06.149.149,0,0,1-.139-.139c0-.1.079-.139.278-.139.575,0,1.667.039,1.766.039.079,0,1.211-.039,1.747-.039.2,0,.277.039.277.139a.169.169,0,0,1-.138.139,1.975,1.975,0,0,0-.437.039c-.476.1-.576.338-.616.934-.019.536-.019,1.012-.019,3.632Z" fill="#231815"/>
    </g>
    <g id="Group_301" data-name="Group 301">
      <rect id="Rectangle_103" data-name="Rectangle 103" width="41.204" height="2.867" transform="translate(258.393 10013.027)" fill="#231815"/>
      <path id="Path_4575" data-name="Path 4575" d="M305.857,10029.993v-2.867H252.133v2.867h17.505v2.565c0,8.936-2.666,16.133-7.923,21.39a33.9,33.9,0,0,1-8.836,6.183l-.087.055c-.256.2-.855.681-.661,1.238s.919.543,1.194.543h.066l.063-.017c6.186-1.662,11.162-4.344,14.79-7.973,4.488-4.487,7.017-12.279,7.521-23.163h5.752v24.605a3.679,3.679,0,0,0,3.066,3.843,18.288,18.288,0,0,0,3.706.239c3.543,0,6.57-.076,9-.226a40.256,40.256,0,0,0,5.9-.907l.056-.018c1.354-.484,2.124-1.1,2.351-1.885a2.242,2.242,0,0,0-.558-2.023l-.041-.047a13.155,13.155,0,0,0-1.872-1.481v-9.807l-.15-.146a.772.772,0,0,0-1.145,0l-.1.1-.034.132c-1.314,5.111-2.636,8.587-3.929,10.33a1.97,1.97,0,0,1-1.446.5c-2.648.147-4.675.223-6.023.223a8.278,8.278,0,0,1-2.308-.2l-.076-.025h-.081a.312.312,0,0,1-.153-.022.323.323,0,0,1-.024-.154v-23.857Z" fill="#231815"/>
    </g>
    <g id="Group_302" data-name="Group 302">
      <path id="Path_4576" data-name="Path 4576" d="M429.67,10022.686l-2.638-1.526-10.413,2.916,3.332-12.636,7.081-4.3,1.666-2.222.972-1.666-2.638-7.359-3.887,2.223h-3.194v-4.443a22.655,22.655,0,0,0-.347-4.1,6.721,6.721,0,0,0-1.666-3.333,9.622,9.622,0,0,1-2.014-3.818h-2.36l-3.193,9.025v3.749a3.043,3.043,0,0,0,.416,1.458,6.33,6.33,0,0,0,1.111,1.458v2.916c-1.575,0-11.063,2.5-12.358,3.055s-2.5,1.065-3.61,1.527l-1.666,2.916v4.858a3.984,3.984,0,0,0,.833,2.291,9.67,9.67,0,0,0,1.666,1.875l7.914-1.527h5.694l-.834,5.971a44.388,44.388,0,0,0-4.373,2.916,24.453,24.453,0,0,1-4.374,2.638q-2.363,1.113-4.86,2.221a13.5,13.5,0,0,1-5.554,1.111l-2.36,6.11,1.527,8.747,3.194,1.526,3.193-1.526s12.612-9.835,13.677-10.067,9.463-6.178,10.761-6.178a19.518,19.518,0,0,0,3.956-.417,20.126,20.126,0,0,0,3.68-1.111,9.2,9.2,0,0,0,3.194-2.36v-1.526Z" fill="#231815"/>
      <path id="Path_4577" data-name="Path 4577" d="M425.807,10074.288l-4.721-1.389-1.666-4.3a5.606,5.606,0,0,1,2.014-2.222,5.386,5.386,0,0,1,2.776-.694,5.649,5.649,0,0,0,3.264-1.18,36.675,36.675,0,0,1,3.193-1.874l14.3-8.192,7.359-6.665.7-2.916h1.666v-.833h1.527l1.527.833v5.832l-7.081,5.276-8.747,5.832-13.608,11.8Z" fill="#231815"/>
      <path id="Path_4578" data-name="Path 4578" d="M433.86,10021.159l-1.666-.7-.694-7.5,4.721-5.138,7.22-2.221,5.554-1.527v-6.665l-.833-3.749-8.581.245-.028-8.437,1.528-3.055,11.941-4.443,2.36-11.107,4.721-.833,4.165,2.222,3.888,8.33a35.786,35.786,0,0,1,4.86.347,37.507,37.507,0,0,0,5.206.349h5.554q2.844,0,3.68,2.221l1.527,3.749h-7.22l-16.3.885-10.774,5.086v2.222l2.042,10.1,9.9-4.132a7.507,7.507,0,0,1,.416-2.638,7.507,7.507,0,0,0,.417-2.64v-3.332q0-1.8,2.36-1.11a16.965,16.965,0,0,1,2.43,2.984,6.212,6.212,0,0,1,.9,3.333v4.1a9.02,9.02,0,0,0,.694,3.749q5.551.7,10.761,1.458t10.83,1.18a91.721,91.721,0,0,1,11.177,1.527q5.551,1.112,10.414,2.5l.694,3.748a5.1,5.1,0,0,1-3.541,1.389H501.063a64.84,64.84,0,0,0-7.637-2.152q-3.612-.762-7.636-1.458a49.081,49.081,0,0,0-8.331-.693H464.268a31.553,31.553,0,0,1-6.456.693,10.224,10.224,0,0,0-5.485,1.458,18.756,18.756,0,0,1-5.623,2.222c-2.176.51-7.984,4.513-7.984,4.513l-.972,2.221Z" fill="#231815"/>
      <path id="Path_4579" data-name="Path 4579" d="M488.983,10018.243l-6.387-2.916h-8.4q-4.374,0-7.914.347t-7.568.765q-4.027.416-8.053,1.11l-2.5,2.915-3.194,1.528,1.667,20.827,2.36,2.916,1.666.693a10.474,10.474,0,0,1,4.027-.693,6.437,6.437,0,0,0,3.888-1.111,8.389,8.389,0,0,1,3.609-1.458,14.433,14.433,0,0,0,3.611-1.041h7.22a15.449,15.449,0,0,1,3.263.347,15.668,15.668,0,0,1,3.124,1.041H482.6l4.027-6.524,4.721-12.913Zm-12.774,15.551-.694,2.222-.833.973-19.3-.973.833-3.61,5.693-1.527H478.57Zm4.027-6.526-9.72-.833-5.415.833h-4.165l1.8-5.275,3.888-1.528H474.2a11.825,11.825,0,0,1,3.194.348,8.022,8.022,0,0,1,2.846,1.874Z" fill="#231815"/>
      <path id="Path_4580" data-name="Path 4580" d="M505.637,10081.08c-3.7,0-7-1.7-10.2-2.993a94.423,94.423,0,0,0-9.65-3.333q-4.863-1.386-9.65-2.846a60.83,60.83,0,0,1-9.511-3.818l-3.888-2.916v-3.749l6.259-13.866,2.36-.693,1.528,5.137-3.9,8.729a18.245,18.245,0,0,0,7.22,5.137,47.533,47.533,0,0,0,8.053,2.291,77.688,77.688,0,0,0,8.4,1.11c2.916.232,14.736-.065,16.384-.348a12.436,12.436,0,0,0,7.984-5.275l2.2-3.637,3.694,1.125,2.159,9.315-2.647,8.27-6.387,2.36Z" fill="#231815"/>
    </g>
    <g id="Group_303" data-name="Group 303">
      <path id="Path_4581" data-name="Path 4581" d="M366.383,10033.676l-4.718-4.724-2.1,3.039H322.167a15.154,15.154,0,0,0-.4-1.731l-.021-.06c-.149-.347-.461-1.066-1.051-.979s-.717.856-.8,1.585a5.038,5.038,0,0,1-2.45,4.1c-1.647.987-2.483,2.11-2.483,3.34a2.693,2.693,0,0,0,2.689,2.959l.049,0a4.115,4.115,0,0,0,3.806-2.292,9.948,9.948,0,0,0,.873-3.918h36.716l-1.416,4.66c-.243.728-.438,1.464.062,1.772a.609.609,0,0,0,.327.095,1.833,1.833,0,0,0,1.09-.673l4.311-3.664c2.075.158,3.241-.133,3.662-.909C367.485,10035.619,367.241,10034.769,366.383,10033.676Z" fill="#231815"/>
      <path id="Path_4582" data-name="Path 4582" d="M337.063,10017.51H320.3v2.867H360.55v-2.867H343.786v-2.563h22.153v-2.867H343.786v-4.884h-6.723v4.884H314.91v2.867h22.153Z" fill="#231815"/>
      <path id="Path_4583" data-name="Path 4583" d="M343.786,10054.541h17.539v-2.868H343.786v-4.5l8.844-1.346a9.513,9.513,0,0,1,1.97,2.427,3.538,3.538,0,0,0,2.887,2.027,2.065,2.065,0,0,0,2.289-2.29c0-3.444-2.707-5.369-10.371-6.777,0,0-2.112-.49-2.27.295s2.017,1.735,2.835,2.26c-6.335.357-11.635.554-15.791.584l3.356-3.71s.377-.322.769-.693h18.125v-2.867H323.745v2.867h7.964l-1.893,4.408H318.7l1.139,3.595c.665,1.667,1.47,2.672,2.4,2.74s1.876,0,2.643-1.782l12.182-1.017v3.778H319.524v2.868h17.539v2.114H314.12v2.867h52.609v-2.867H343.786Z" fill="#231815"/>
      <path id="Path_4584" data-name="Path 4584" d="M356.8,10030.348v-8.085H324.048v8.085Zm-28.533-4.879h24.315v1.673H328.267Z" fill="#231815"/>
    </g>
  </g>
</svg>
