<svg xmlns="http://www.w3.org/2000/svg" width="194.6" height="46.3" viewBox="0 0 194.6 46.3">
  <g id="logo" transform="translate(-147.1 -28.7)">
    <circle id="Ellipse_2" data-name="Ellipse 2" cx="4.4" cy="4.4" r="4.4" transform="translate(298.5 41)"/>
    <circle id="Ellipse_3" data-name="Ellipse 3" cx="4.4" cy="4.4" r="4.4" transform="translate(324.6 41)"/>
    <g id="Group_15" data-name="Group 15">
      <path id="Path_28" data-name="Path 28" d="M147.1,30.1h17.2V36h-5.7V61.3h-6V35.9h-5.5Z" fill="#ef8200"/>
      <path id="Path_29" data-name="Path 29" d="M184.8,38.2h5.8V61.3h-5.8V58.9a11.353,11.353,0,0,1-3.4,2.3,9.04,9.04,0,0,1-3.7.7,10.13,10.13,0,0,1-7.7-3.5,12.008,12.008,0,0,1-3.3-8.6,12.523,12.523,0,0,1,3.2-8.8,10.257,10.257,0,0,1,11.6-2.6,10.617,10.617,0,0,1,3.4,2.4V38.2ZM178.7,43a5.826,5.826,0,0,0-4.5,1.9,6.89,6.89,0,0,0-1.8,4.9,6.89,6.89,0,0,0,1.8,4.9,5.762,5.762,0,0,0,4.4,1.9,5.826,5.826,0,0,0,4.5-1.9,6.971,6.971,0,0,0,1.8-5,6.89,6.89,0,0,0-1.8-4.9A5.446,5.446,0,0,0,178.7,43Z" fill="#ef8200"/>
      <path id="Path_30" data-name="Path 30" d="M196.4,38.2h5.8v2.7a9.308,9.308,0,0,1,3.3-2.4,10.191,10.191,0,0,1,4-.8,7.655,7.655,0,0,1,3.9,1.1,7.073,7.073,0,0,1,2.8,3.1,8.42,8.42,0,0,1,3.4-3.1,9.257,9.257,0,0,1,4.4-1.1,8.583,8.583,0,0,1,4.3,1.1,7.741,7.741,0,0,1,2.7,3,16.8,16.8,0,0,1,.8,6V61.3H226V49.6c0-2.6-.3-4.4-1-5.3a3.424,3.424,0,0,0-2.9-1.4,5.029,5.029,0,0,0-2.7.8,4.381,4.381,0,0,0-1.7,2.3,13.954,13.954,0,0,0-.6,4.8V61.2h-5.8V50.1a15.368,15.368,0,0,0-.5-4.5,4.581,4.581,0,0,0-1.4-2.1,3.232,3.232,0,0,0-2.2-.7,4.109,4.109,0,0,0-2.6.9,5.46,5.46,0,0,0-1.8,2.4,14.621,14.621,0,0,0-.6,4.9V61.3h-5.8V38.2Z" fill="#ef8200"/>
      <path id="Path_31" data-name="Path 31" d="M254.3,38.2h5.8V61.3h-5.8V58.9a11.353,11.353,0,0,1-3.4,2.3,9.04,9.04,0,0,1-3.7.7,10.13,10.13,0,0,1-7.7-3.5,12.008,12.008,0,0,1-3.3-8.6,12.523,12.523,0,0,1,3.2-8.8A10.257,10.257,0,0,1,251,38.4a10.617,10.617,0,0,1,3.4,2.4V38.2ZM248.2,43a5.826,5.826,0,0,0-4.5,1.9,6.89,6.89,0,0,0-1.8,4.9,6.89,6.89,0,0,0,1.8,4.9,5.762,5.762,0,0,0,4.4,1.9,5.826,5.826,0,0,0,4.5-1.9,6.971,6.971,0,0,0,1.8-5,6.89,6.89,0,0,0-1.8-4.9A5.446,5.446,0,0,0,248.2,43Z" fill="#ef8200"/>
      <path id="Path_32" data-name="Path 32" d="M264.6,38.2h5v2.9a6.889,6.889,0,0,1,2.1-2.6,5.21,5.21,0,0,1,2.9-.9,6.026,6.026,0,0,1,2.4.6l-1.8,5a4.506,4.506,0,0,0-1.7-.5c-.9,0-1.6.6-2.3,1.7-.6,1.1-.9,3.3-.9,6.5V61.3h-5.7Z" fill="#ef8200"/>
      <path id="Path_33" data-name="Path 33" d="M282.1,28.7a3.631,3.631,0,0,1,2.6,1.1,3.693,3.693,0,0,1,1.1,2.7,3.677,3.677,0,0,1-6.3,2.6,3.693,3.693,0,0,1-1.1-2.7,3.757,3.757,0,0,1,3.7-3.7Zm-2.9,9.5H285V61.3h-5.8Z" fill="#ef8200"/>
      <path id="Path_34" data-name="Path 34" d="M296,29.3V40.7a13.14,13.14,0,0,1,3.4-2.4A10.257,10.257,0,0,1,311,40.9a12.523,12.523,0,0,1,3.2,8.8,12.008,12.008,0,0,1-3.3,8.6,10.445,10.445,0,0,1-7.7,3.5,9.04,9.04,0,0,1-3.7-.7,11.353,11.353,0,0,1-3.4-2.3v2.4h-5.7v-32H296ZM302.1,43a5.826,5.826,0,0,0-4.5,1.9,6.727,6.727,0,0,0-1.8,4.9,7.138,7.138,0,0,0,1.8,5,6.279,6.279,0,0,0,9,0,6.89,6.89,0,0,0,1.8-4.9,6.89,6.89,0,0,0-1.8-4.9A5.593,5.593,0,0,0,302.1,43Z" fill="#ef8200"/>
      <path id="Path_35" data-name="Path 35" d="M335.9,38.2h5.8V61.3h-5.8V58.9a11.353,11.353,0,0,1-3.4,2.3,9.04,9.04,0,0,1-3.7.7,10.13,10.13,0,0,1-7.7-3.5,12.008,12.008,0,0,1-3.3-8.6A12.523,12.523,0,0,1,321,41a10.257,10.257,0,0,1,11.6-2.6,10.617,10.617,0,0,1,3.4,2.4V38.2Zm-6,4.8a5.826,5.826,0,0,0-4.5,1.9,6.89,6.89,0,0,0-1.8,4.9,6.89,6.89,0,0,0,1.8,4.9,5.762,5.762,0,0,0,4.4,1.9,5.826,5.826,0,0,0,4.5-1.9,6.971,6.971,0,0,0,1.8-5,6.89,6.89,0,0,0-1.8-4.9A5.729,5.729,0,0,0,329.9,43Z" fill="#ef8200"/>
    </g>
    <path id="Path_36" data-name="Path 36" d="M326.7,66.2a.566.566,0,0,0-.8-.8,6.925,6.925,0,0,0-1.9,4.2H309a7.069,7.069,0,0,0-1.9-4.2.566.566,0,1,0-.8.8c.1.1,3.4,3.4-.1,7.9a.521.521,0,0,0,.1.8c.1.1.2.1.4.1s.3-.1.5-.2a7.6,7.6,0,0,0,1.8-4.1h1.9a2.768,2.768,0,0,0,.6,1.8,1.915,1.915,0,0,0,1.5.6h.8a2.107,2.107,0,0,0,1.5-.6,2.61,2.61,0,0,0,.6-1.8h1.3a2.768,2.768,0,0,0,.6,1.8,1.915,1.915,0,0,0,1.5.6h.8a2.107,2.107,0,0,0,1.5-.6,2.61,2.61,0,0,0,.6-1.8h2a7.6,7.6,0,0,0,1.8,4.1.764.764,0,0,0,.5.2.756.756,0,0,0,.4-.1.529.529,0,0,0,.1-.8C323.3,69.6,326.6,66.3,326.7,66.2Zm-12.2,5.5c-.1.1-.2.2-.6.2H313c-.4,0-.5-.1-.6-.2a1.493,1.493,0,0,1-.3-1h2.6A1.5,1.5,0,0,1,314.5,71.7Zm6.2,0c-.1.1-.2.2-.6.2h-.8c-.4,0-.5-.1-.6-.2a1.493,1.493,0,0,1-.3-1H321A1.493,1.493,0,0,1,320.7,71.7Z" fill="#040000"/>
  </g>
</svg>
