<svg xmlns="http://www.w3.org/2000/svg" xmlns:xlink="http://www.w3.org/1999/xlink" width="26.332" height="598.453" viewBox="0 0 26.332 598.453">
  <defs>
    <linearGradient id="linear-gradient" x1="0.5" y1="0.166" x2="0.5" y2="0.899" gradientUnits="objectBoundingBox">
      <stop offset="0" stop-color="#b7852c"/>
      <stop offset="0.173" stop-color="#c09548" stop-opacity="0.878"/>
      <stop offset="0.534" stop-color="#dac093" stop-opacity="0.557"/>
      <stop offset="1" stop-color="#fff" stop-opacity="0.102"/>
    </linearGradient>
  </defs>
  <g id="pagetitle6" transform="translate(-704.834 -42.336)">
    <rect id="Rectangle_135" data-name="Rectangle 135" width="10" height="441.23" transform="translate(714.897 199.559)" fill="url(#linear-gradient)"/>
    <g id="Group_364" data-name="Group 364" transform="translate(0 -6880.95)">
      <path id="Path_1716" data-name="Path 1716" d="M725.961,6932.626l.788-1.125.239-.323.239-.325c.056-.074.122-.159.2-.252a.957.957,0,0,1,.2-.2.275.275,0,0,1,.141-.055,5.469,5.469,0,0,1,1.659,1.153q1.379,1.155,1.379,1.463-.141.479-.788.478h-7.6V6945.4a.574.574,0,0,0,.2.521,1.976,1.976,0,0,0,.9.127h2.363q1.744,0,2.138-.028a.666.666,0,0,0,.619-.451,26.272,26.272,0,0,0,1.153-4.529h.31l.084,4.755a1.269,1.269,0,0,1,.985,1.209q0,.929-1.154,1.322a15.8,15.8,0,0,1-4.36.395H722.9a4.206,4.206,0,0,1-2.546-.535,2.71,2.71,0,0,1-.633-2.11v-12.631h-3.995a33.852,33.852,0,0,1-.689,5.514,16.4,16.4,0,0,1-1.688,4.431,11.559,11.559,0,0,1-3.207,3.629,18.358,18.358,0,0,1-5.049,2.574l-.169-.366a17.12,17.12,0,0,0,3.854-3,12.146,12.146,0,0,0,2.391-3.671,18.724,18.724,0,0,0,1.2-4.15,35.161,35.161,0,0,0,.408-4.965h-2.645a29.836,29.836,0,0,0-4.3.394l-.759-1.435q1.574.17,3.825.225Zm-2.419-7.174.759-1.068q.816-1.1.985-1.1a5.072,5.072,0,0,1,1.59,1.111q1.308,1.113,1.308,1.421a.67.67,0,0,1-.732.479H713.02a29.487,29.487,0,0,0-4.331.393l-.732-1.462q1.575.168,3.826.224Z" fill="#231815"/>
      <path id="Path_1717" data-name="Path 1717" d="M726.861,6966.952H709.11a4.3,4.3,0,0,1-.492,2,2.849,2.849,0,0,1-1.167,1.21,1.655,1.655,0,0,1-1.266.169,1.206,1.206,0,0,1-.9-.815,1.461,1.461,0,0,1,.984-1.8,3.413,3.413,0,0,0,1.435-1.182,2.882,2.882,0,0,0,.59-1.828h.423a8.394,8.394,0,0,1,.337,1.435h17.723l.675-.76q.7-.76.872-.76.254,0,1.337,1.083t1.083,1.393a1.466,1.466,0,0,1-1.041.366,20.79,20.79,0,0,1-3.376,2.335l-.309-.169A19.623,19.623,0,0,0,726.861,6966.952Zm-4.5,1.6.563-.7q.647-.7.787-.7a3.438,3.438,0,0,1,1.267.732q.984.731.984,1.041c-.056.3-.291.449-.7.449h-8.215a25.419,25.419,0,0,1-2.7,1.886q2.334,0,8.411-.057a11.628,11.628,0,0,0-1.884-1.069l.168-.422q4.36.141,5.655,1.941a1.328,1.328,0,0,1,.112,1.66,1,1,0,0,1-1.069.366q1.491,1.181,2.138,1.716a.669.669,0,0,1-.731.478h-7.849v2.447h6.555l.675-.928a2.08,2.08,0,0,0,.211-.267,2.092,2.092,0,0,1,.211-.268c.056-.056.117-.122.183-.2a.965.965,0,0,1,.182-.168.276.276,0,0,1,.141-.056,4.574,4.574,0,0,1,1.5.97q1.224.97,1.224,1.28a.649.649,0,0,1-.7.478H710.8a29.628,29.628,0,0,0-4.332.394l-.759-1.462q1.575.168,3.825.224h6.949v-2.447h-3.123a29.974,29.974,0,0,0-4.3.394l-.76-1.435q1.576.168,3.827.225h4.36v-2.363q-4.164.45-6.161.619a.925.925,0,0,1-.731.563l-1.182-2.673q2.195.056,4.613.057a16.073,16.073,0,0,0,.985-1.886h-1.322a9.122,9.122,0,0,0-2.25.423l-.732-1.491a37.576,37.576,0,0,0,3.826.253Zm1.013-10.325.7-.9c.057-.056.127-.136.212-.239s.15-.187.2-.253a1.553,1.553,0,0,1,.169-.2.737.737,0,0,1,.183-.141.349.349,0,0,1,.141-.042,4.518,4.518,0,0,1,1.477.914q1.2.915,1.2,1.225-.141.448-.759.449H713.415a29.849,29.849,0,0,0-4.3.394l-.731-1.434q1.575.168,3.826.224h4.276v-2.025h-5.148a30.934,30.934,0,0,0-4.3.422l-.732-1.463q1.575.168,3.826.226h6.358a18.375,18.375,0,0,0-.141-2.561q3.714.873,3.714,1.266c0,.075-.075.16-.225.254l-.535.309v.732h5.851l.7-.929a2.781,2.781,0,0,0,.211-.253c.084-.113.149-.2.2-.268a2.6,2.6,0,0,1,.168-.21.611.611,0,0,1,.183-.155.334.334,0,0,1,.141-.043,5.067,5.067,0,0,1,1.575.971q1.293.97,1.294,1.252-.112.45-.787.45h-9.537v2.025Zm-.759,2.533.562-.7q.646-.759.816-.759a4.637,4.637,0,0,1,1.505.942q1.224.942,1.224,1.252a1.784,1.784,0,0,1-.985.534v.9c.037.674.084,1.2.141,1.575q-.113.253-.985.562a4.69,4.69,0,0,1-1.547.31h-.45v-.956H713.3v.365c0,.075-.117.179-.352.31a4.534,4.534,0,0,1-.928.365,3.927,3.927,0,0,1-1.111.169q-.507,0-.507-.563.057-.281.141-1.434v-1.041a21.29,21.29,0,0,0-.2-3.179l3.123,1.351Zm-9.312.843v2H722.9v-2Zm5.992,13.447h4.585l1.379-1.688a6.979,6.979,0,0,0-1.519-1.463q-3.432.395-6.921.76,3.123.7,3.123,1.1c0,.056-.075.132-.225.225l-.422.282Z" fill="#231815"/>
      <path id="Path_1718" data-name="Path 1718" d="M708.66,7009.954h.423a13.9,13.9,0,0,1,.759,4.515,10.07,10.07,0,0,1-.521,3.4,6.165,6.165,0,0,1-1.279,2.1,2.35,2.35,0,0,1-1.519.885,1.339,1.339,0,0,1-1.323-.547q-.759-1.1.507-2.251a7.616,7.616,0,0,0,2.124-3.236A12.42,12.42,0,0,0,708.66,7009.954Zm3.8,13.756v-10.661a38.592,38.592,0,0,0-.366-5.908q3.714.928,3.714,1.322c0,.075-.076.159-.225.253l-.478.338v13.9a.767.767,0,0,0,.309.7,2.587,2.587,0,0,0,1.238.2h3.319q2.195,0,2.926-.084a.871.871,0,0,0,.815-.507,24.5,24.5,0,0,0,1.267-4.642h.309l.085,4.867q1.1.423,1.1,1.209a1.289,1.289,0,0,1-.535,1.1,4.663,4.663,0,0,1-2,.591,33.6,33.6,0,0,1-4.191.2h-3.488a5.474,5.474,0,0,1-3.01-.577A2.708,2.708,0,0,1,712.458,7023.71Zm.422-22.14.084-.2q6.133.675,8.13,3.348a2.325,2.325,0,0,1,.45,2.559,1.276,1.276,0,0,1-1.49.788,2,2,0,0,1-.676-.254,12.77,12.77,0,0,0-2.433-3.122,15.914,15.914,0,0,0-4.121-2.9Zm11.844,8.075q4.7,2.363,5.879,5.935a4.464,4.464,0,0,1-.169,3.77q-.648,1.126-1.6.816a1.929,1.929,0,0,1-.844-.7,16.892,16.892,0,0,0-.83-5.022,10.986,10.986,0,0,0-2.659-4.514Z" fill="#231815"/>
      <path id="Path_1719" data-name="Path 1719" d="M726.636,7039.16l.732-1.069q.759-1.068.928-1.069.28,0,1.491,1.1t1.21,1.406q-.114.452-.76.451H714.258a.613.613,0,0,1-.562.225h-2.982v7.933q1.153-.364,3.573-1.209l.112.337q-3.094,2.362-7.483,5.2a1.028,1.028,0,0,1-.647.76l-1.435-3.263q.761-.2,3.32-.985V7040.2h-.985a4.267,4.267,0,0,0-1.547.422l-.731-1.463a17.449,17.449,0,0,0,2.25.225h1.013v-1.969a37.8,37.8,0,0,0-.394-5.907q3.63.872,3.657,1.265c0,.076-.075.169-.225.282l-.478.338v5.991h.169l1.265-2.138q.985.985,1.773,1.913h4.614a2.136,2.136,0,0,1-.619-.45,8.9,8.9,0,0,0-1.042-3.6h-.956a4.129,4.129,0,0,0-1.6.394l-.76-1.463q1.575.168,3.826.226h2.87a22.613,22.613,0,0,0-.2-3.292q3.488.843,3.516,1.265c0,.076-.084.16-.253.254l-.507.31v1.463H726.3l.647-.986.211-.281.211-.281c.056-.074.112-.15.169-.225a.7.7,0,0,1,.169-.169.273.273,0,0,1,.14-.056q.281,0,1.421,1.041t1.139,1.35q-.113.45-.7.45h-4.136q2.195.505,1.632.872a.348.348,0,0,1-.169.084l-.534.2a20.706,20.706,0,0,1-2.842,2.9Zm-.956,2.729.59-.816a1.662,1.662,0,0,0,.184-.225c.065-.094.121-.173.168-.24s.1-.13.155-.2a.7.7,0,0,1,.155-.141.252.252,0,0,1,.126-.042q.282,0,1.463,1.027t1.182,1.336a2.1,2.1,0,0,1-1.125.619v2.194q.055,2.7.168,4.22a2.062,2.062,0,0,1-.956.6,3.77,3.77,0,0,1-1.407.325h-.422v-1.267h-1.013v5.149a.483.483,0,0,0,.1.365,1.039,1.039,0,0,0,.549.085h2.953a.647.647,0,0,0,.478-.338,19.312,19.312,0,0,0,.929-3.235h.309l.085,3.32a1.141,1.141,0,0,1,.816,1.1,1.228,1.228,0,0,1-.929,1.154,10.382,10.382,0,0,1-3.347.366h-2a2.985,2.985,0,0,1-2.025-.465,2.605,2.605,0,0,1-.45-1.786v-5.711h-1.463A8.984,8.984,0,0,1,717.9,7055a15.688,15.688,0,0,1-7.272,2.842l-.112-.423a12.715,12.715,0,0,0,5.5-3.108,8.794,8.794,0,0,0,2.152-5.022h-.506v.76c0,.075-.109.179-.324.309a3.536,3.536,0,0,1-.858.352,3.616,3.616,0,0,1-1.013.154c-.394,0-.591-.186-.591-.562q.141-1.66.2-2.813V7045.8a33.711,33.711,0,0,0-.337-5.2l3.066,1.294Zm.281,3.292v-2.476h-8.3v2.476Zm0,.815h-8.3v2.476h8.3Zm-8.242-10.887a6.379,6.379,0,0,1,1.547.9,2.83,2.83,0,0,1,.83.984,2.306,2.306,0,0,1,.211.928,1.324,1.324,0,0,1-.225.774,1.277,1.277,0,0,1-.563.464H722.9a37.463,37.463,0,0,0,1.181-4.051Z" fill="#231815"/>
    </g>
    <rect id="Rectangle_136" data-name="Rectangle 136" width="3.3" height="3.3" transform="translate(718 106.768) rotate(45.001)" fill="#b7852c"/>
    <g id="Group_365" data-name="Group 365" transform="translate(0 -6880.95)">
      <path id="Path_1720" data-name="Path 1720" d="M728.435,7437.158v3.4a8.068,8.068,0,0,1-.486,3.152,3.862,3.862,0,0,1-1.494,1.74,4.1,4.1,0,0,1-2.238.639,4.023,4.023,0,0,1-2.092-.559,4.151,4.151,0,0,1-1.529-1.644,6.357,6.357,0,0,1-1.073,2.067,4.276,4.276,0,0,1-1.488,1.128,4.453,4.453,0,0,1-1.892.4,4.644,4.644,0,0,1-3.51-1.517,5.682,5.682,0,0,1-1.436-4.072v-4.735Zm-8.941,1.688h-6.609v2.136a7.667,7.667,0,0,0,.369,2.771,3.149,3.149,0,0,0,1.154,1.415,3.016,3.016,0,0,0,3.7-.217,3.858,3.858,0,0,0,1.172-2.064,15.088,15.088,0,0,0,.211-3.067Zm7.254,0h-5.519v.986a7.7,7.7,0,0,0,.334,2.643,2.858,2.858,0,0,0,1.054,1.34,2.776,2.776,0,0,0,1.6.492,2.264,2.264,0,0,0,1.857-.828,4.162,4.162,0,0,0,.674-2.636Z" fill="#b7852c"/>
      <path id="Path_1721" data-name="Path 1721" d="M728.435,7451.587v3.434a20.858,20.858,0,0,1-.234,3.89,4.436,4.436,0,0,1-1.508,2.5,4.3,4.3,0,0,1-2.845.961,4.6,4.6,0,0,1-2.476-.662,4.124,4.124,0,0,1-1.613-1.892,8.7,8.7,0,0,1-.558-3.4l-8,6.2v-2.132l8-6.2v-.973h-8v-1.723Zm-1.687,1.723h-5.859l-.024,2.969a7.4,7.4,0,0,0,.328,2.553,2.656,2.656,0,0,0,1.049,1.291,2.91,2.91,0,0,0,1.612.464,2.794,2.794,0,0,0,1.576-.47,2.609,2.609,0,0,0,1.013-1.232,7.487,7.487,0,0,0,.3-2.535Z" fill="#b7852c"/>
      <path id="Path_1722" data-name="Path 1722" d="M728.435,7473.7l-17.238,8.039v-1.861l5.672-2.711v-7.426l-5.672-2.685v-1.922l17.238,8.144Zm-3.662-.219-6.24-2.953v5.894Z" fill="#b7852c"/>
      <path id="Path_1723" data-name="Path 1723" d="M711.2,7485.025h17.238v.375l-13.213,11.473h13.213v1.7H711.2v-.386l13.054-11.379H711.2Z" fill="#b7852c"/>
      <path id="Path_1724" data-name="Path 1724" d="M711.2,7503.367h17.238v3.574a18.263,18.263,0,0,1-.62,5.614,7.507,7.507,0,0,1-3.047,3.92,9.264,9.264,0,0,1-5.168,1.412,9.066,9.066,0,0,1-4.559-1.119,7.178,7.178,0,0,1-2.906-2.907,10.941,10.941,0,0,1-.938-5.009Zm1.629,1.653v1.992a18.6,18.6,0,0,0,.445,4.957,5.713,5.713,0,0,0,2.277,3.058,7,7,0,0,0,4.022,1.114,7.387,7.387,0,0,0,4.263-1.207,6.081,6.081,0,0,0,2.423-3.364,20.323,20.323,0,0,0,.492-5.332v-1.218Z" fill="#b7852c"/>
    </g>
  </g>
</svg>
