<svg xmlns="http://www.w3.org/2000/svg" xmlns:xlink="http://www.w3.org/1999/xlink" width="26.584" height="631.914" viewBox="0 0 26.584 631.914">
  <defs>
    <linearGradient id="linear-gradient" x1="0.5" y1="0.166" x2="0.5" y2="0.899" gradientUnits="objectBoundingBox">
      <stop offset="0" stop-color="#b7852c"/>
      <stop offset="0.173" stop-color="#c09548" stop-opacity="0.878"/>
      <stop offset="0.534" stop-color="#dac093" stop-opacity="0.557"/>
      <stop offset="1" stop-color="#fff" stop-opacity="0.102"/>
    </linearGradient>
  </defs>
  <g id="pagetitle2" transform="translate(-704.722 -44.547)">
    <rect id="Rectangle_111" data-name="Rectangle 111" width="10" height="441.23" transform="translate(714.897 201.938)" fill="url(#linear-gradient)"/>
    <g id="Group_352" data-name="Group 352" transform="translate(0 -1280)">
      <path id="Path_590" data-name="Path 590" d="M717.916,1346.265a1.954,1.954,0,0,0-.507-1.505,3.58,3.58,0,0,0-1.631-.718v-.422q1.828.142,2.194.141a.472.472,0,0,0,.45-.2q.563-.675.647-7.314H716.4v.309q0,1.661-.1,2.982a20.419,20.419,0,0,1-.492,3.025,14.068,14.068,0,0,1-1.069,3.066,13.222,13.222,0,0,1-1.913,2.785,13.029,13.029,0,0,1-2.954,2.49l-.338-.31a16.091,16.091,0,0,0,4.22-9.9q-3.657,2.757-6.751,4.838a1.118,1.118,0,0,1-.619.788l-1.519-3.263q.984-.225,3.235-.957v-8.861h-.929a3.863,3.863,0,0,0-1.491.422l-.731-1.491a11.8,11.8,0,0,0,2.138.253H708.1v-1.885a37.928,37.928,0,0,0-.394-5.907q3.6.9,3.6,1.294c0,.075-.076.159-.225.253l-.478.337v5.908h.2l1.294-2.054q1.07,1.126,1.885,2.054a22.18,22.18,0,0,0-.253-3.6l3.094,1.265h5.514q-.112-2.362-.112-5.542l3.516.394a.792.792,0,0,1-.2.478,5.928,5.928,0,0,1,2.87.774q1.012.662.928,1.322a2.185,2.185,0,0,1-.478,1.139q1.8,1.519,2.11,1.8-.113.45-.76.45H724.78a52.826,52.826,0,0,0,.956,8.721,19.573,19.573,0,0,0,1-3.207,20.355,20.355,0,0,0,.52-3.264q3.32,1.1,3.292,1.463c0,.076-.085.141-.254.2l-.534.169a34.565,34.565,0,0,1-3.151,7.6,12.342,12.342,0,0,0,2.054,3.825c.149.245.272.362.365.352s.207-.145.338-.408a21.536,21.536,0,0,0,1.266-3.263l.309.084-.562,4.67q1.1,2.279.45,2.757a1.668,1.668,0,0,1-1.941,0,5.416,5.416,0,0,1-1.913-1.716A17.315,17.315,0,0,1,724.92,1345a20.735,20.735,0,0,1-7.539,5.767l-.253-.478a21.567,21.567,0,0,0,7.033-7.371,48.78,48.78,0,0,1-1.8-12.012H716.4v4.5h2.448l.534-.619c.4-.431.647-.647.76-.647a3.407,3.407,0,0,1,1.28.83q1,.831,1,1.14a1.645,1.645,0,0,1-1.041.478q-.086,4.473-.338,6.4a4.307,4.307,0,0,1-.956,2.575A3.015,3.015,0,0,1,717.916,1346.265Zm-7.314-4.98q1.039-.337,3.234-1.125.141-1.491.141-3.572v-3.4a1.771,1.771,0,0,1-.422.056H710.6Zm17.244-12.405a1.223,1.223,0,0,1-.591-.254,5.162,5.162,0,0,0-.787-1.575,7.783,7.783,0,0,0-1.238-1.407,3.692,3.692,0,0,1-.478.113q-.057,2.166,0,4.332h2.138Z" fill="#231815"/>
      <path id="Path_591" data-name="Path 591" d="M708.66,1363.628h.423a13.9,13.9,0,0,1,.759,4.515,10.07,10.07,0,0,1-.521,3.4,6.154,6.154,0,0,1-1.279,2.095,2.354,2.354,0,0,1-1.519.887,1.341,1.341,0,0,1-1.323-.549q-.759-1.1.507-2.25a7.607,7.607,0,0,0,2.124-3.236A12.422,12.422,0,0,0,708.66,1363.628Zm3.8,13.756v-10.662a38.591,38.591,0,0,0-.366-5.907q3.714.927,3.714,1.322c0,.075-.076.159-.225.253l-.478.337v13.9a.767.767,0,0,0,.309.7,2.592,2.592,0,0,0,1.238.2h3.319q2.195,0,2.926-.085a.869.869,0,0,0,.815-.506,24.54,24.54,0,0,0,1.267-4.642h.309l.085,4.867q1.1.421,1.1,1.209a1.288,1.288,0,0,1-.535,1.1,4.668,4.668,0,0,1-2,.59,33.646,33.646,0,0,1-4.191.2h-3.488a5.477,5.477,0,0,1-3.01-.577A2.709,2.709,0,0,1,712.458,1377.384Zm.422-22.14.084-.2q6.133.675,8.13,3.347a2.327,2.327,0,0,1,.45,2.56,1.277,1.277,0,0,1-1.49.788,2,2,0,0,1-.676-.254,12.77,12.77,0,0,0-2.433-3.122,15.914,15.914,0,0,0-4.121-2.9Zm11.844,8.074q4.7,2.364,5.879,5.936a4.464,4.464,0,0,1-.169,3.77q-.648,1.125-1.6.816a1.929,1.929,0,0,1-.844-.7,16.89,16.89,0,0,0-.83-5.022,10.988,10.988,0,0,0-2.659-4.515Z" fill="#231815"/>
      <path id="Path_592" data-name="Path 592" d="M711.445,1408.908l.563-1.013q.618-1.013.788-1.012.252,0,1.153,1.054t.9,1.365q-.113.45-.7.45h-3.01v5.148q1.968-.562,3.066-.929l.085.338q-1.746,1.211-3.151,2.11v9.171a3.82,3.82,0,0,1-.619,2.419,4.031,4.031,0,0,1-2.672.985,3.309,3.309,0,0,0-.563-1.913,3.013,3.013,0,0,0-2.026-.9v-.45q2.336.168,2.814.169a.654.654,0,0,0,.45-.113.554.554,0,0,0,.112-.394v-7.4q-.113.057-.886.521t-1.223.717a.991.991,0,0,1-.62.788l-1.181-3.263q.73-.169,3.91-1.069v-5.936h-1.1a6.4,6.4,0,0,0-1.885.394l-.731-1.463a21.624,21.624,0,0,0,2.532.225h1.181v-.928a38.747,38.747,0,0,0-.365-5.908q3.6.9,3.6,1.294c0,.075-.075.169-.225.281l-.506.31v4.951Zm13.644,11.646.647-.984q.7-.984.872-.985.281,0,1.435,1.013t1.153,1.322a.669.669,0,0,1-.731.478h-5.908v4.108a25.847,25.847,0,0,0,3.01.14q4.219,0,5.683-.028v.394q-1.211.254-1.21,2.194h-4.613a11.687,11.687,0,0,1-5.627-1.125,7.69,7.69,0,0,1-3.207-4.163,10.858,10.858,0,0,1-5.035,6.076l-.366-.31a14.289,14.289,0,0,0,2.5-4.191,13.024,13.024,0,0,0,.731-3.179,13.962,13.962,0,0,0,.085-3.123q3.657.619,3.685,1.013c0,.056-.075.132-.225.225l-.45.253q-.141.76-.648,2.448a6.032,6.032,0,0,0,3.151,2.813v-7.877h-1.744a15.089,15.089,0,0,0-3.038.394l-.76-1.435q1.548.169,3.742.225h1.8v-3.038h-2.25a27.359,27.359,0,0,0-4.164.394l-.731-1.463q1.575.17,3.826.225h3.319v-2.813h-1.659a14.308,14.308,0,0,0-2.926.394l-.788-1.463q1.52.168,3.629.225h1.744v-2.391h-2.137a24.042,24.042,0,0,0-3.854.422l-.76-1.491q1.575.17,3.826.225h2.925a22.765,22.765,0,0,0-.2-3.291q3.431.871,3.432,1.294c0,.075-.076.168-.225.281l-.479.31v1.406H726.3l.731-1.013c.056-.075.127-.173.211-.3s.15-.221.2-.3a1.819,1.819,0,0,1,.169-.225.908.908,0,0,1,.183-.168.271.271,0,0,1,.14-.057q.282,0,1.463,1.069t1.182,1.379c-.076.3-.319.45-.732.45h-7.286v2.391H725.4l.563-.619q.591-.647.732-.647a3.728,3.728,0,0,1,1.336.816q1.055.816,1.055,1.125a1.617,1.617,0,0,1-1.013.507v2.475h.2l.478-.816.141-.21a2.45,2.45,0,0,0,.127-.211.836.836,0,0,1,.112-.169c.046-.057.089-.1.126-.141a1.093,1.093,0,0,1,.113-.1.192.192,0,0,1,.113-.042q.252,0,1.041.887t.787,1.195q-.084.45-.675.45h-2.56v1.379q.055,1.688.169,2.616a1.81,1.81,0,0,1-.872.6,3.309,3.309,0,0,1-1.323.323h-.365v-1.069h-3.123v3.488Zm.591-11h-3.123v2.813h3.123Zm0,3.657h-3.123v3.038h3.123Z" fill="#231815"/>
      <path id="Path_593" data-name="Path 593" d="M708.463,1446.441a31.008,31.008,0,0,1-3.207,2.729l-.281-.338a38.677,38.677,0,0,0,3.714-5.57,18.029,18.029,0,0,0,2.053-5.233q3.432,1.83,3.432,2.195,0,.112-.225.168l-.534.113a39.97,39.97,0,0,1-2.476,3.235l.928.338a1.07,1.07,0,0,1-.872.534v6.836q.057,3.517.225,6.752a2.424,2.424,0,0,1-.9.689,3.011,3.011,0,0,1-1.406.352.857.857,0,0,1-.549-.169.5.5,0,0,1-.211-.394q.254-3.686.309-7.511Zm-3.4-6.02a26.558,26.558,0,0,0,3.01-3.967,17.289,17.289,0,0,0,2.025-4.3l1.913,1.294q2.025,1.041,1.1,1.182l-.534.056a29.23,29.23,0,0,1-3.292,3.221,28.715,28.715,0,0,1-3.966,2.855Zm20.958,9.114.675-.985.211-.281.211-.281.168-.225a.747.747,0,0,1,.169-.169.276.276,0,0,1,.141-.056q.281,0,1.434,1.027t1.154,1.336a.649.649,0,0,1-.7.478h-6.752v7.286h4.248l.7-1.012q.761-1.041.928-1.041.282,0,1.478,1.055t1.2,1.364q-.113.45-.759.45h-13.56a30.911,30.911,0,0,0-4.3.422l-.76-1.463q1.576.17,3.826.225h4.361v-7.286h-2.026a22.08,22.08,0,0,0-3.741.394l-.76-1.463q1.575.169,3.826.225Zm.843-14.8.647-.928.183-.267c.085-.122.15-.211.2-.268s.1-.121.169-.2a1.045,1.045,0,0,1,.183-.169.276.276,0,0,1,.14-.056q.282,0,1.393.971t1.111,1.28q-.084.45-.731.45H718.506a31.076,31.076,0,0,0-4.3.422l-.759-1.491a37.5,37.5,0,0,0,3.826.253Zm-11,1.632q3.066.843,3.01,1.182c-.019.037-.084.074-.2.112l-.422.112q-2.137,2.391-3.8,3.967,3.318,1.548,3.825,3.629a1.819,1.819,0,0,1-.534,2,1.212,1.212,0,0,1-1.66-.084,10.593,10.593,0,0,0-2.307-5.43A39.477,39.477,0,0,0,715.862,1436.37Zm5.289,0q3.038.872,2.982,1.209c0,.038-.066.075-.2.113l-.421.112q-2.814,2.927-3.939,3.967,3.461,1.52,4.079,3.629a1.749,1.749,0,0,1-.45,1.969,1.229,1.229,0,0,1-1.66-.056,10.3,10.3,0,0,0-.886-2.785,9.212,9.212,0,0,0-1.758-2.644A36.768,36.768,0,0,0,721.151,1436.37Zm5.289-.028q2.98.9,2.953,1.237c-.019.056-.094.1-.225.141l-.422.084q-1.182,1.266-4.022,3.854,3.515,1.464,4.135,3.545a1.694,1.694,0,0,1-.45,1.969,1.241,1.241,0,0,1-1.716-.028,9.693,9.693,0,0,0-.915-2.8,9,9,0,0,0-1.814-2.6A36.728,36.728,0,0,0,726.44,1436.342Z" fill="#231815"/>
    </g>
    <g id="Group_353" data-name="Group 353" transform="translate(0 -1280)">
      <path id="Path_694" data-name="Path 694" d="M728.435,1832.987v1.723H712.861v6.633H711.2v-8.356Z" fill="#b7852c"/>
      <path id="Path_695" data-name="Path 695" d="M728.869,1852.882a8.945,8.945,0,0,1-2.613,6.555,9.061,9.061,0,0,1-15.492-6.414,8.825,8.825,0,0,1,2.625-6.473,8.628,8.628,0,0,1,6.351-2.638,9.18,9.18,0,0,1,4.606,1.2,8.877,8.877,0,0,1,4.523,7.768Zm-1.676.076a7.364,7.364,0,0,0-3.682-6.3,7.475,7.475,0,0,0-3.765-.962,7.249,7.249,0,0,0-7.306,7.265,7.372,7.372,0,0,0,.973,3.715,6.961,6.961,0,0,0,2.662,2.665,7.479,7.479,0,0,0,3.753.956,7.3,7.3,0,0,0,3.712-.956,7.145,7.145,0,0,0,2.656-2.694A7.288,7.288,0,0,0,727.193,1852.958Z" fill="#b7852c"/>
      <path id="Path_696" data-name="Path 696" d="M725.236,1882.188l-1.043-1.36a7.427,7.427,0,0,0,2.221-2.7,7.9,7.9,0,0,0,.756-3.463,7.653,7.653,0,0,0-.99-3.82,7.111,7.111,0,0,0-2.66-2.725,7.368,7.368,0,0,0-3.756-.967,7.049,7.049,0,0,0-5.262,2.163,7.492,7.492,0,0,0-2.109,5.455,7.669,7.669,0,0,0,2.836,6.058l-1.032,1.36a8.705,8.705,0,0,1-2.537-3.217,10.1,10.1,0,0,1-.9-4.307,8.961,8.961,0,0,1,3.011-7.137,9.09,9.09,0,0,1,6.141-2.191,8.538,8.538,0,0,1,6.369,2.654,9.152,9.152,0,0,1,2.584,6.651,9.755,9.755,0,0,1-.955,4.359A8.467,8.467,0,0,1,725.236,1882.188Z" fill="#b7852c"/>
      <path id="Path_697" data-name="Path 697" d="M728.435,1893.287l-17.238,8.039v-1.861l5.672-2.711v-7.426l-5.672-2.685v-1.922l17.238,8.144Zm-3.662-.218-6.24-2.953v5.893Z" fill="#b7852c"/>
      <path id="Path_698" data-name="Path 698" d="M726.748,1902.887h1.687v9.446h-1.687v-3.844H711.2v-1.758h15.551Z" fill="#b7852c"/>
      <path id="Path_699" data-name="Path 699" d="M728.435,1915.171v1.723H711.2v-1.723Z" fill="#b7852c"/>
      <path id="Path_700" data-name="Path 700" d="M728.869,1929.652a8.945,8.945,0,0,1-2.613,6.555,9.062,9.062,0,0,1-15.492-6.415,8.826,8.826,0,0,1,2.625-6.473,8.629,8.629,0,0,1,6.351-2.638,9.19,9.19,0,0,1,4.606,1.2,8.88,8.88,0,0,1,4.523,7.769Zm-1.676.076a7.36,7.36,0,0,0-3.682-6.3,7.465,7.465,0,0,0-3.765-.963,7.25,7.25,0,0,0-7.306,7.266,7.375,7.375,0,0,0,.973,3.715,6.959,6.959,0,0,0,2.662,2.664,7.48,7.48,0,0,0,3.753.957,7.3,7.3,0,0,0,3.712-.957,7.141,7.141,0,0,0,2.656-2.693A7.289,7.289,0,0,0,727.193,1929.728Z" fill="#b7852c"/>
      <path id="Path_701" data-name="Path 701" d="M711.2,1942.914h17.238v.375l-13.213,11.473h13.213v1.7H711.2v-.387l13.054-11.379H711.2Z" fill="#b7852c"/>
    </g>
  </g>
</svg>
