<svg xmlns="http://www.w3.org/2000/svg" xmlns:xlink="http://www.w3.org/1999/xlink" width="26.472" height="599.071" viewBox="0 0 26.472 599.071">
  <defs>
    <linearGradient id="linear-gradient" x1="0.5" y1="0.166" x2="0.5" y2="0.899" gradientUnits="objectBoundingBox">
      <stop offset="0" stop-color="#b7852c"/>
      <stop offset="0.173" stop-color="#c09548" stop-opacity="0.878"/>
      <stop offset="0.534" stop-color="#dac093" stop-opacity="0.557"/>
      <stop offset="1" stop-color="#fff" stop-opacity="0.102"/>
    </linearGradient>
  </defs>
  <g id="pagetitle5" transform="translate(-29.868 -46.654)">
    <rect id="Rectangle_123" data-name="Rectangle 123" width="10" height="441.23" transform="translate(39.931 204.494)" fill="url(#linear-gradient)"/>
    <g id="Group_359" data-name="Group 359" transform="translate(0 -5601.275)">
      <path id="Path_974" data-name="Path 974" d="M34.763,5650.488l.563-.7q.563-.675.731-.675.281,0,1.378.971t1.1,1.279a2.229,2.229,0,0,1-1.294.479q-2.364,5.486-3.095,7.005h1.6l.59-.732q.648-.7.816-.7.281,0,1.323.929t1.04,1.237a1.4,1.4,0,0,1-.984.479,26.732,26.732,0,0,1-2.335,8.468,8.99,8.99,0,0,0,4.543,2.489,33.879,33.879,0,0,0,7.328.633q5.964,0,7.99-.057v.394q-1.435.311-1.548,2.222H47.9a25.026,25.026,0,0,1-7.666-.956,9.114,9.114,0,0,1-4.683-3.516,14.992,14.992,0,0,1-5.345,5.091l-.253-.365a15.382,15.382,0,0,0,4.445-6.695,24.859,24.859,0,0,1-1.492-4.332q-.505,1.069-1.463,2.812c.188.281.159.507-.084.676l-1.463-1.66a29.443,29.443,0,0,0,2.7-2.588l.281-1.267,1.013.367-.731,1.069a19.334,19.334,0,0,0,1.6,3.769,31.2,31.2,0,0,0,1.181-6.949H33.722a12.867,12.867,0,0,1-.647,1.407,3.423,3.423,0,0,1-2.335-.252q1.885-4.08,4.023-9.509H33.356a11,11,0,0,0-2.531.422l-.788-1.463q1.35.168,3.235.224Zm15.191.676.535-.76c.037-.056.088-.131.154-.224a1.619,1.619,0,0,1,.169-.211c.046-.047.1-.1.155-.169a.636.636,0,0,1,.155-.141.246.246,0,0,1,.126-.043q.281,0,1.407.986t1.125,1.294a1.762,1.762,0,0,1-1.125.562v2.447h.281l.562-.927a2.863,2.863,0,0,0,.184-.283c.065-.112.116-.206.154-.281a1.04,1.04,0,0,1,.141-.211,1.25,1.25,0,0,1,.154-.154.219.219,0,0,1,.127-.057q.253,0,1.168,1t.914,1.308c-.056.3-.3.45-.732.45H52.655v1.351q.084,2.08.14,2.559a1.887,1.887,0,0,1-.872.564,3.437,3.437,0,0,1-1.322.308h-.366v-.984H46.972v2.982h3.376l.647-.957c.056-.074.15-.215.281-.422a2.853,2.853,0,0,1,.309-.422.326.326,0,0,1,.225-.112q.282,0,1.393.985t1.112,1.294q-.085.478-.7.478H46.972v3.01h3.939l.7-1.013q.759-1.04.928-1.041a4.639,4.639,0,0,1,1.519,1.056q1.238,1.055,1.238,1.364a.67.67,0,0,1-.732.478h-7.6v1.041q.084,1.689.112,1.857-.084.309-.745.618a3.176,3.176,0,0,1-1.364.31q-.648,0-.647-.591.056-.394.14-1.94v-1.295H42.387a23.355,23.355,0,0,0-3.854.394l-.732-1.463q1.577.169,3.826.225h2.841v-3.01H42.724a15.833,15.833,0,0,0-3.179.394l-.675-1.463q1.575.169,3.8.225h1.8v-2.982h-1.6a14.718,14.718,0,0,0-2.954.422l-.76-1.491q1.8.2,3.629.253h1.688v-2.982H42.246a28.6,28.6,0,0,0-4.135.422l-.76-1.49q1.575.168,3.826.224h3.291v-2.9h-1.6a13.292,13.292,0,0,0-2.9.393l-.759-1.462q1.491.169,3.572.225h1.688a22.121,22.121,0,0,0-.2-3.235q3.434.873,3.433,1.294c0,.075-.076.169-.225.281l-.507.31v1.35Zm.281.844H46.972v2.9h3.263Zm-3.263,6.723h3.263v-2.982H46.972Z" fill="#231815"/>
      <path id="Path_975" data-name="Path 975" d="M51.361,5696.854l.7-.927c.056-.075.126-.164.211-.268s.15-.187.2-.253.1-.131.155-.2a.589.589,0,0,1,.168-.141.338.338,0,0,1,.141-.042,4.388,4.388,0,0,1,1.463.956q1.181.957,1.182,1.267-.086.45-.732.45H45.228a16.512,16.512,0,0,0,4.825,2.546,28.972,28.972,0,0,0,6.006,1.448l-.029.31a3.008,3.008,0,0,0-2.137,2.56,19,19,0,0,1-5.542-2.687,15.036,15.036,0,0,1-4.023-4.177H44.3v2.25q.056,2.73.168,4.332a1.567,1.567,0,0,1-.858.549,4.13,4.13,0,0,1-1.448.268q-.648,0-.647-.563.111-1.295.2-3.461v-2.052q-4.023,3.909-11.477,5.681l-.2-.422a21.454,21.454,0,0,0,9.283-6.582H35.438a29.626,29.626,0,0,0-4.332.394l-.788-1.463q1.575.168,3.854.224h7.539v-2.418A17.533,17.533,0,0,1,38,5695.561l-.225-.451a8.8,8.8,0,0,0,3.573-1.757,6.39,6.39,0,0,0,1.8-2.828H42.1a4.567,4.567,0,0,0-1.659.394l-.76-1.463a22.138,22.138,0,0,0,2.532.226h1.153a16.182,16.182,0,0,0,.31-2.87h-.788a2.7,2.7,0,0,0-1.266.394l-.759-1.463q1.573.169,3.825.225h4.5l.31-.31a1.708,1.708,0,0,1-.984-.393,6.725,6.725,0,0,0-1.154-2.954H45.734a15.889,15.889,0,0,1-3.91,3.179l-.366-.338a14.748,14.748,0,0,0,1.154-1.462,14.227,14.227,0,0,0,1.463-2.786,14.9,14.9,0,0,0,.9-2.926q3.263,1.211,3.263,1.6c.018.075-.066.15-.253.226l-.506.168a12.282,12.282,0,0,1-1.041,1.491H51.67l.675-.9c.056-.074.122-.164.2-.266s.136-.193.183-.268a1.7,1.7,0,0,1,.155-.211.843.843,0,0,1,.168-.154.273.273,0,0,1,.141-.057,4.346,4.346,0,0,1,1.463.971q1.182.97,1.181,1.279-.113.452-.759.451H49.138a3.031,3.031,0,0,1,1.379,1.181,1.616,1.616,0,0,1,.168,1.294q2.166,1.745,1.857,2.054a.617.617,0,0,1-.2.085l-.478.14v4.726a.339.339,0,0,0,.084.268.632.632,0,0,0,.366.07h1.407a.418.418,0,0,0,.365-.226,18.073,18.073,0,0,0,.844-2.728h.282l.084,2.785a1.086,1.086,0,0,1,.76,1.013,1.137,1.137,0,0,1-.774,1.1,6.8,6.8,0,0,1-2.518.337H51.473q-1.294,0-1.659-.435a2.725,2.725,0,0,1-.366-1.674v-1.913a1,1,0,0,1-.535.14h-3.4a6.355,6.355,0,0,1-3.263,3.658q2.757.675,2.757,1.041c0,.093-.075.187-.225.281l-.478.31v1.039Zm-11.506-15.387.619-.872q.646-.9.816-.9.252,0,1.252.929t1,1.237c-.075.3-.31.451-.7.451H37.8a3.358,3.358,0,0,1,1.2,1.012,1.719,1.719,0,0,1,.352,1.041,1.288,1.288,0,0,1-.338.817q.055.055.506.422t.971.815c.346.3.642.563.886.788-.056.318-.3.478-.731.478H37.351v4q1.209-.2,3.8-.648l.056.45q-3.038,1.323-8.608,3.405a.932.932,0,0,1-.647.646l-1.407-2.841q.788-.084,4.417-.619v-4.388H33.778a6.843,6.843,0,0,0-2,.394l-.76-1.463q1.576.169,3.827.225h2.813l1.068-1.435a1.2,1.2,0,0,1-1.6-.281,6.346,6.346,0,0,0-.844-2.813H35.129a15.491,15.491,0,0,1-4.783,4.023l-.309-.338a20.917,20.917,0,0,0,1.772-2.223,15.8,15.8,0,0,0,1.463-2.855,15.522,15.522,0,0,0,.9-2.883q3.235,1.407,3.263,1.773c0,.075-.094.14-.281.2l-.534.112q-.311.535-.844,1.351Zm6.639,8.215,1.1-1.548a24.822,24.822,0,0,1,1.857,1.717v-3.039H46.212a15.674,15.674,0,0,1-.45,2.87Z" fill="#231815"/>
      <path id="Path_976" data-name="Path 976" d="M51.67,5734.174l.731-1.068q.76-1.069.929-1.07.28,0,1.491,1.1t1.209,1.406q-.112.45-.759.45H39.292a.612.612,0,0,1-.563.225H35.748v7.933q1.153-.366,3.572-1.209l.113.337q-3.094,2.364-7.483,5.205a1.029,1.029,0,0,1-.647.759l-1.435-3.263q.759-.2,3.32-.985v-8.777H32.2a4.289,4.289,0,0,0-1.547.422l-.732-1.463a17.3,17.3,0,0,0,2.251.225h1.013v-1.969a37.944,37.944,0,0,0-.394-5.908q3.629.873,3.657,1.266c0,.075-.075.169-.225.281l-.478.338v5.992h.169l1.265-2.137q.984.984,1.773,1.912h4.613a2.133,2.133,0,0,1-.619-.449,8.9,8.9,0,0,0-1.041-3.6h-.956a4.109,4.109,0,0,0-1.6.4l-.76-1.463q1.575.168,3.826.224h2.869a22.615,22.615,0,0,0-.2-3.291q3.489.844,3.517,1.266c0,.075-.084.159-.253.253l-.507.309v1.463h3.489l.646-.984c.057-.075.127-.169.211-.281s.155-.206.211-.282.113-.15.169-.225a.776.776,0,0,1,.169-.169.274.274,0,0,1,.141-.056q.281,0,1.42,1.041t1.14,1.35c-.075.3-.31.45-.7.45H50.6q2.194.507,1.632.872a.349.349,0,0,1-.169.085l-.535.2a20.575,20.575,0,0,1-2.841,2.9Zm-.957,2.729.591-.816a1.636,1.636,0,0,0,.183-.225l.169-.239c.047-.065.1-.131.154-.2a.7.7,0,0,1,.155-.141.25.25,0,0,1,.127-.042q.281,0,1.463,1.028t1.181,1.335a2.112,2.112,0,0,1-1.125.62v2.194q.055,2.7.169,4.22a2.1,2.1,0,0,1-.957.6,3.758,3.758,0,0,1-1.406.323h-.422V5744.3H49.982v5.147a.483.483,0,0,0,.1.366,1.032,1.032,0,0,0,.548.084h2.954a.643.643,0,0,0,.478-.336,19.415,19.415,0,0,0,.929-3.236H55.3l.084,3.32a1.141,1.141,0,0,1,.816,1.1,1.226,1.226,0,0,1-.928,1.153,10.357,10.357,0,0,1-3.348.366h-2a3,3,0,0,1-2.026-.464,2.613,2.613,0,0,1-.45-1.786V5744.3H45.987a8.985,8.985,0,0,1-3.052,5.711,15.667,15.667,0,0,1-7.272,2.84l-.112-.421a12.72,12.72,0,0,0,5.5-3.109A8.791,8.791,0,0,0,43.2,5744.3H42.7v.76c0,.075-.108.177-.323.308a3.613,3.613,0,0,1-.858.353,3.694,3.694,0,0,1-1.013.154q-.591,0-.591-.562.141-1.66.2-2.814v-1.687a33.733,33.733,0,0,0-.337-5.205l3.066,1.294Zm.282,3.291v-2.475H42.7v2.475Zm0,.816H42.7v2.475h8.3Zm-8.243-10.887a6.4,6.4,0,0,1,1.548.9,2.833,2.833,0,0,1,.829.985,2.294,2.294,0,0,1,.211.929,1.32,1.32,0,0,1-.225.773,1.267,1.267,0,0,1-.562.464h3.376a37.362,37.362,0,0,0,1.181-4.051Z" fill="#231815"/>
      <path id="Path_977" data-name="Path 977" d="M49.392,5758.008l.59-.845c.038-.056.094-.136.169-.239a1.985,1.985,0,0,1,.183-.225c.046-.047.1-.1.155-.169a.667.667,0,0,1,.154-.14.241.241,0,0,1,.127-.042,4.486,4.486,0,0,1,1.491,1.026q1.209,1.029,1.21,1.337a1.948,1.948,0,0,1-1.154.591v3.179q.055,3.966.2,6.188a2.033,2.033,0,0,1-.971.591,4,4,0,0,1-1.42.309h-.45v-1.237H45.762a11.976,11.976,0,0,0,4.333,2.757,28.007,28.007,0,0,0,5.879,1.6l-.028.337a2.914,2.914,0,0,0-1.969,2.476,19.483,19.483,0,0,1-5.711-3.207l-.112.028v3.32q.056,3.434.225,6.47a1.846,1.846,0,0,1-.9.619,3.555,3.555,0,0,1-1.379.309q-.7,0-.7-.563.113-1.293.168-3.347v-1.969a38.749,38.749,0,0,0-.365-5.908l2.335.366a12.329,12.329,0,0,1-2.476-3.291h-2.7a12.9,12.9,0,0,1-3.094,3.234q1.941.593,1.941.986c0,.094-.084.187-.253.281l-.422.281v1.716a8.489,8.489,0,0,1-.394,2.489,7.016,7.016,0,0,1-1.308,2.251A8.174,8.174,0,0,1,36,5781.609a20.159,20.159,0,0,1-4.67,1.463l-.2-.337a14.758,14.758,0,0,0,3.474-1.632,7.291,7.291,0,0,0,2.1-2,7.141,7.141,0,0,0,.971-2.082,8.862,8.862,0,0,0,.267-2.251V5772.5a25.705,25.705,0,0,1-7.6,3.095l-.168-.479a18.069,18.069,0,0,0,8.861-6.779h-2.5v.618q0,.226-.717.577a3.253,3.253,0,0,1-1.449.352.649.649,0,0,1-.478-.169.536.536,0,0,1-.169-.394q.113-1.575.2-4.3v-2.447a38.6,38.6,0,0,0-.366-5.908l3.179,1.351Zm-7.681,4.641v-3.826H36.535v3.826Zm0,.844H36.535v3.994h5.176Zm7.962-.844v-3.826h-5.43v3.826Zm-5.43.844v3.994h5.43v-3.994Z" fill="#231815"/>
    </g>
    <rect id="Rectangle_124" data-name="Rectangle 124" width="3.3" height="3.3" transform="translate(43.034 111.704) rotate(44.999)" fill="#b7852c"/>
    <g id="Group_360" data-name="Group 360" transform="translate(0 -5601.275)">
      <path id="Path_1082" data-name="Path 1082" d="M53.47,6077.314l-17.239,8.039v-1.862l5.672-2.711v-7.426l-5.672-2.685v-1.922l17.239,8.145Zm-3.663-.218-6.24-2.954v5.893Z" fill="#fff"/>
      <path id="Path_1083" data-name="Path 1083" d="M53.47,6088.718v3.433a20.755,20.755,0,0,1-.235,3.891,4.442,4.442,0,0,1-1.508,2.5,4.3,4.3,0,0,1-2.845.961,4.605,4.605,0,0,1-2.476-.662,4.119,4.119,0,0,1-1.613-1.893,8.69,8.69,0,0,1-.558-3.4l-8,6.2v-2.131l8-6.2v-.975h-8v-1.722Zm-1.688,1.722H45.923l-.024,2.97a7.4,7.4,0,0,0,.328,2.553,2.658,2.658,0,0,0,1.049,1.291,2.91,2.91,0,0,0,1.612.464,2.786,2.786,0,0,0,1.576-.47,2.615,2.615,0,0,0,1.013-1.232,7.465,7.465,0,0,0,.305-2.535Z" fill="#fff"/>
      <path id="Path_1084" data-name="Path 1084" d="M50.271,6119.846l-1.044-1.36a7.428,7.428,0,0,0,2.221-2.7,7.9,7.9,0,0,0,.756-3.463,7.653,7.653,0,0,0-.99-3.82,7.112,7.112,0,0,0-2.66-2.725,7.364,7.364,0,0,0-3.756-.966,7.047,7.047,0,0,0-5.262,2.162,7.492,7.492,0,0,0-2.109,5.455,7.668,7.668,0,0,0,2.836,6.058l-1.032,1.36a8.708,8.708,0,0,1-2.537-3.217,10.1,10.1,0,0,1-.9-4.307,8.957,8.957,0,0,1,3.012-7.136,9.087,9.087,0,0,1,6.14-2.192,8.538,8.538,0,0,1,6.369,2.654A9.152,9.152,0,0,1,53.9,6112.3a9.757,9.757,0,0,1-.955,4.359A8.468,8.468,0,0,1,50.271,6119.846Z" fill="#fff"/>
      <path id="Path_1085" data-name="Path 1085" d="M53.47,6123.879v1.723H46.239v8.777H53.47v1.723H36.231v-1.723h8.321V6125.6H36.231v-1.723Z" fill="#fff"/>
      <path id="Path_1086" data-name="Path 1086" d="M53.47,6140.65v1.723H36.231v-1.723Z" fill="#fff"/>
      <path id="Path_1087" data-name="Path 1087" d="M51.782,6145.212H53.47v9.445H51.782v-3.843H36.231v-1.758H51.782Z" fill="#fff"/>
      <path id="Path_1088" data-name="Path 1088" d="M53.47,6157.753v9.879H51.782v-8.156h-5.4v8.086H44.692v-8.086H37.919v8.086H36.231v-9.809Z" fill="#fff"/>
      <path id="Path_1089" data-name="Path 1089" d="M50.271,6187.264l-1.044-1.36a7.428,7.428,0,0,0,2.221-2.7,7.9,7.9,0,0,0,.756-3.463,7.655,7.655,0,0,0-.99-3.82,7.112,7.112,0,0,0-2.66-2.725,7.365,7.365,0,0,0-3.756-.967,7.049,7.049,0,0,0-5.262,2.163,7.492,7.492,0,0,0-2.109,5.455,7.668,7.668,0,0,0,2.836,6.058l-1.032,1.36a8.708,8.708,0,0,1-2.537-3.217,10.1,10.1,0,0,1-.9-4.307,8.961,8.961,0,0,1,3.012-7.137,9.091,9.091,0,0,1,6.14-2.191,8.538,8.538,0,0,1,6.369,2.654,9.152,9.152,0,0,1,2.584,6.651,9.757,9.757,0,0,1-.955,4.359A8.468,8.468,0,0,1,50.271,6187.264Z" fill="#fff"/>
      <path id="Path_1090" data-name="Path 1090" d="M51.782,6189.609H53.47v9.446H51.782v-3.844H36.231v-1.758H51.782Z" fill="#fff"/>
      <path id="Path_1091" data-name="Path 1091" d="M53.47,6202.2v1.723H43.064a21.4,21.4,0,0,0-2.309.07,3.82,3.82,0,0,0-1.705.6,3.527,3.527,0,0,0-1.149,1.441,4.528,4.528,0,0,0-.462,1.957,3.866,3.866,0,0,0,.363,1.641,3.654,3.654,0,0,0,1.008,1.313,4.115,4.115,0,0,0,1.558.773,12.9,12.9,0,0,0,2.7.176H53.47v1.722H43.064a12.673,12.673,0,0,1-3.733-.451,5.087,5.087,0,0,1-2.479-1.8,5.171,5.171,0,0,1-1.054-3.276,6.278,6.278,0,0,1,1-3.574,4.8,4.8,0,0,1,2.637-1.992,13.955,13.955,0,0,1,3.633-.317Z" fill="#fff"/>
      <path id="Path_1092" data-name="Path 1092" d="M53.47,6218.548v3.433a20.748,20.748,0,0,1-.235,3.891,4.436,4.436,0,0,1-1.508,2.5,4.3,4.3,0,0,1-2.845.961,4.605,4.605,0,0,1-2.476-.662,4.119,4.119,0,0,1-1.613-1.893,8.691,8.691,0,0,1-.558-3.4l-8,6.2v-2.132l8-6.2v-.973h-8v-1.723Zm-1.688,1.723H45.923l-.024,2.969a7.4,7.4,0,0,0,.328,2.553,2.658,2.658,0,0,0,1.049,1.291,2.91,2.91,0,0,0,1.612.464,2.794,2.794,0,0,0,1.576-.47,2.62,2.62,0,0,0,1.013-1.232,7.468,7.468,0,0,0,.305-2.535Z" fill="#fff"/>
      <path id="Path_1093" data-name="Path 1093" d="M53.47,6233.632v9.879H51.782v-8.157h-5.4v8.086H44.692v-8.086H37.919v8.086H36.231v-9.808Z" fill="#fff"/>
    </g>
  </g>
</svg>
