<svg xmlns="http://www.w3.org/2000/svg" xmlns:xlink="http://www.w3.org/1999/xlink" width="26.641" height="599.1" viewBox="0 0 26.641 599.1">
  <defs>
    <linearGradient id="linear-gradient" x1="0.5" y1="0.166" x2="0.5" y2="0.899" gradientUnits="objectBoundingBox">
      <stop offset="0" stop-color="#b7852c"/>
      <stop offset="0.173" stop-color="#c09548" stop-opacity="0.878"/>
      <stop offset="0.534" stop-color="#dac093" stop-opacity="0.557"/>
      <stop offset="1" stop-color="#fff" stop-opacity="0.102"/>
    </linearGradient>
  </defs>
  <g id="pagetitle3" transform="translate(-29.868 -46.9)">
    <rect id="Rectangle_121" data-name="Rectangle 121" width="10" height="441.23" transform="translate(39.931 204.77)" fill="url(#linear-gradient)"/>
    <g id="Group_357" data-name="Group 357" transform="translate(0 -3041)">
      <path id="Path_780" data-name="Path 780" d="M38.533,3094.343l.534-.788c.037-.057.089-.131.155-.225s.117-.164.155-.211a1.8,1.8,0,0,1,.14-.155.912.912,0,0,1,.155-.127.265.265,0,0,1,.126-.042q.282,0,1.21.8t.928,1.111a.669.669,0,0,1-.731.479h-3.77v2.7h1.8l1.378-1.8q.366.338.844.731.2-.393.591-1.294a13.741,13.741,0,0,0,.816-3.01,12.977,12.977,0,0,0,.2-2.926l3.179.929a36.683,36.683,0,0,0,5.879-2.5q2.5,2.109,2.195,2.335a.649.649,0,0,1-.422.056l-.76-.056a49.443,49.443,0,0,1-7.174,1.069,12.991,12.991,0,0,1-4.051,5.795q.253.225,1.126,1.013-.085.478-.7.478H34.9a29.857,29.857,0,0,0-4.3.394l-.732-1.435q1.436.168,3.46.225H34.96v-2.7H33.666a8.006,8.006,0,0,0-2.194.393l-.732-1.462a28.248,28.248,0,0,0,2.87.225h1.35v-2.279H33.5a10.42,10.42,0,0,0-2.532.394L30.206,3091q1.35.168,3.235.225H34.96a22.864,22.864,0,0,0-.2-3.32q3.376.873,3.376,1.266c0,.076-.075.16-.225.253l-.479.31v1.491h1.491l.563-.844q.646-.9.816-.9.281,0,1.336.914t1.055,1.224q-.084.45-.731.45h-4.53v2.279Zm12.743,3.179.507-.76c.037-.056.089-.131.155-.225s.116-.164.154-.211a1.845,1.845,0,0,1,.141-.155.881.881,0,0,1,.154-.127.255.255,0,0,1,.127-.042q.281,0,1.308.9t1.027,1.21a1.521,1.521,0,0,1-.929.478v3.207h.085l.9-1.575a23.241,23.241,0,0,1,1.6,1.941c-.056.3-.282.45-.676.45H53.92v1.772q.086,2.785.141,3.432a1.861,1.861,0,0,1-.858.563,3.277,3.277,0,0,1-1.28.31c-.338,0-.506-.2-.506-.591l.112-.563v-.619H49.167v4.389a3.84,3.84,0,0,1-.647,2.419,3.717,3.717,0,0,1-2.645.985,3.245,3.245,0,0,0-.45-1.829,3.557,3.557,0,0,0-2.054-.872v-.422q2.307.2,2.785.2a.473.473,0,0,0,.535-.534v-4.333H45.565a6.8,6.8,0,0,0-1.969.422l-.759-1.434a23.273,23.273,0,0,0,2.644.224h1.21v-3.516H42.246l-.225-.759a2.815,2.815,0,0,1-.7.225v9.79a3.152,3.152,0,0,1-.591,2.11,3.782,3.782,0,0,1-2.475.843,2.969,2.969,0,0,0-.422-1.6,3,3,0,0,0-1.8-.816v-.394q1.884.114,2.419.113.478,0,.478-.535v-4.163H33.61v2.194q.055,2.616.168,4.163a1.5,1.5,0,0,1-.773.647,3,3,0,0,1-1.337.31.621.621,0,0,1-.436-.169.519.519,0,0,1-.182-.394q.2-2.532.253-5.6v-3.095a38.6,38.6,0,0,0-.366-5.907l2.785,1.238h4.9l.534-.675a2.252,2.252,0,0,0,.24-.31,2.432,2.432,0,0,1,.253-.323.294.294,0,0,1,.211-.1,4.422,4.422,0,0,1,1.463.9q1.18.9,1.181,1.209a1.492,1.492,0,0,1-.394.281h4.586v-3.488H45.65a5.176,5.176,0,0,0-1.773.422l-.759-1.463a37.262,37.262,0,0,0,3.826.254Zm-15.95,4.135H33.61v4.923h1.716Zm1.772,0v4.923h1.828v-4.923Zm9.818-9.874.366-.141q2.643,1.491,2.841,3.4a1.636,1.636,0,0,1-.7,1.66q-.814.505-1.6-.394A9.277,9.277,0,0,0,46.916,3091.783Zm4.613,6.526H49.167v3.488h2.362Zm-2.362,7.82h2.362v-3.516H49.167Zm1.856-14.712.31-.225q3.516,1.154,4.332,3.235a1.708,1.708,0,0,1-.2,1.969q-.7.732-1.688,0a8.353,8.353,0,0,0-1.013-2.518A15.639,15.639,0,0,0,51.023,3091.417Z" fill="#231815"/>
      <path id="Path_781" data-name="Path 781" d="M49.841,3131.791l.732-.731q.787-.732.956-.731.254,0,1.337,1.083t1.083,1.392a1.954,1.954,0,0,1-1.21.281,38.871,38.871,0,0,1-8.468,2.307v1.519h7.174l.76-1.069c.074-.094.187-.253.337-.478a3.334,3.334,0,0,1,.352-.464.352.352,0,0,1,.239-.127,4.885,4.885,0,0,1,1.561,1.111q1.28,1.113,1.28,1.421-.084.45-.759.45H44.271v3.8a3.5,3.5,0,0,1-.745,2.489,5.359,5.359,0,0,1-3.221,1,3,3,0,0,0-.788-1.885,5.536,5.536,0,0,0-2.785-.956v-.45q3.516.282,4.164.281t.646-.563v-3.713H34.9a29.857,29.857,0,0,0-4.3.394l-.732-1.463q1.575.17,3.826.225h7.848a19.837,19.837,0,0,0-.168-2.757l3.263.422q2.925-1.266,4.22-1.969H37.21a29.869,29.869,0,0,0-4.3.394l-.787-1.435q1.575.17,3.825.225Zm1.154-9.9.732-1.1c.056-.075.13-.178.224-.31s.169-.239.225-.323.117-.169.183-.253a.85.85,0,0,1,.183-.183.274.274,0,0,1,.141-.057q.281,0,1.561,1.14t1.28,1.449q-.112.45-.732.45H35.382a31,31,0,0,0-4.332.422l-.76-1.463q1.575.168,3.854.225h7.4a24.664,24.664,0,0,0-.224-3.77q3.684.844,3.685,1.238,0,.112-.225.282l-.507.309v1.941Zm-3.095,2.869.591-.816c.037-.056.122-.177.253-.365a2.313,2.313,0,0,1,.3-.366.319.319,0,0,1,.211-.084,4.569,4.569,0,0,1,1.505,1.026q1.224,1.027,1.223,1.337a1.762,1.762,0,0,1-1.1.591v1.266q.085,2.221.113,2.391c-.056.168-.357.351-.9.548a4.364,4.364,0,0,1-1.463.3h-.45v-1.041H37.83v.59q0,.114-.353.31a4.139,4.139,0,0,1-.9.351,3.856,3.856,0,0,1-1.055.155q-.507,0-.507-.562.057-.394.141-1.885v-1.238a24.866,24.866,0,0,0-.225-3.8l3.038,1.294Zm-10.07.845v3.094H48.182V3125.6Z" fill="#231815"/>
      <path id="Path_782" data-name="Path 782" d="M48.6,3181.235l.759-1.069c.056-.075.136-.178.239-.31s.183-.234.239-.309.122-.154.2-.239a1.115,1.115,0,0,1,.2-.183.278.278,0,0,1,.141-.056,5.565,5.565,0,0,1,1.674,1.125q1.392,1.125,1.392,1.435-.084.45-.759.45H44.356v8.552h6.611l.787-1.153q.871-1.154,1.041-1.154a5.74,5.74,0,0,1,1.7,1.2q1.42,1.2,1.421,1.5-.113.45-.788.45H35.016a29.7,29.7,0,0,0-4.3.394l-.759-1.463q1.574.17,3.825.225h7.737v-8.552H38.223a29.493,29.493,0,0,0-4.332.394l-.731-1.463q1.573.17,3.825.225h4.53v-7.314H36.029a23.793,23.793,0,0,1-5.739,6.892l-.337-.253a36.189,36.189,0,0,0,3.825-7.54,28.544,28.544,0,0,0,.943-3.206,15.139,15.139,0,0,0,.464-3.01q3.938,1.237,3.966,1.631c0,.075-.084.15-.253.225l-.534.2a34.233,34.233,0,0,1-1.885,4.248h5.036v-1.182a37.936,37.936,0,0,0-.394-5.907q3.966.928,3.966,1.35c0,.075-.075.16-.225.253l-.506.338v5.148h5.176l.788-1.069q.814-1.1.984-1.1a5.5,5.5,0,0,1,1.66,1.111q1.378,1.111,1.379,1.421-.112.45-.76.45H44.356v7.314Z" fill="#231815"/>
      <path id="Path_783" data-name="Path 783" d="M30.037,3203.324l.2-.253q3.572.253,4.585,2.025a1.566,1.566,0,0,1-.056,1.913,1.226,1.226,0,0,1-1.688.253.665.665,0,0,1-.169-.084,6.67,6.67,0,0,0-1.139-2.053A10.98,10.98,0,0,0,30.037,3203.324Zm.422,11.449H31.7a1.307,1.307,0,0,0,.323-.028.5.5,0,0,0,.211-.141,1.677,1.677,0,0,0,.253-.365q.618-1.07,5.768-12.153l.45.084q-3.376,9.848-3.714,11.2a10.944,10.944,0,0,0-.478,2.588,10.805,10.805,0,0,0,.506,2.04,8.569,8.569,0,0,1,.422,2.911,2.565,2.565,0,0,1-.59,1.632,1.841,1.841,0,0,1-1.435.59,1.023,1.023,0,0,1-.788-.38,2.049,2.049,0,0,1-.45-1.054,21.051,21.051,0,0,0,.225-3.9q-.084-1.673-.563-1.982a2.654,2.654,0,0,0-1.378-.451Zm1.631-17.779.225-.224q3.657.336,4.727,2.165a1.69,1.69,0,0,1,.028,1.97,1.277,1.277,0,0,1-1.716.365l-.225-.112a7.183,7.183,0,0,0-1.2-2.18A12.687,12.687,0,0,0,32.09,3196.994Zm18.821,15.023.591-.76c.412-.487.683-.732.815-.732a4.386,4.386,0,0,1,1.463.929q1.181.928,1.181,1.238a1.77,1.77,0,0,1-1.153.618v2.9q.084,3.714.2,5.683a2.449,2.449,0,0,1-.97.619,3.537,3.537,0,0,1-1.393.337q-.562,0-.563-.591l.113-.9v-.788h-9.2v.507c.018.131.032.262.042.394s.014.234.014.309a.617.617,0,0,0,.028.2q-.055.309-.773.647a3.5,3.5,0,0,1-1.506.338.544.544,0,0,1-.436-.183.617.617,0,0,1-.154-.408q.113-1.35.2-3.685v-2.11a38.607,38.607,0,0,0-.366-5.908l3.123,1.351h3.094v-5.655H42.612a29.654,29.654,0,0,0-4.333.394l-.731-1.435q1.575.17,3.854.225h3.854v-5.035q-3.911.479-6.92.591l-.084-.507a72.65,72.65,0,0,0,7.539-1.814,50.316,50.316,0,0,0,6.273-2.209l2.757,2.7q-.479.422-1.688-.028-2.7.563-5.2.928v5.373h3.713l.731-1.068q.76-1.1.929-1.1.281,0,1.519,1.125t1.238,1.435q-.085.423-.76.422h-7.37v5.655Zm.281,7.708v-6.865h-9.2v6.865Z" fill="#231815"/>
    </g>
    <rect id="Rectangle_122" data-name="Rectangle 122" width="3.3" height="3.3" transform="translate(43.034 111.979) rotate(44.999)" fill="#b7852c"/>
    <g id="Group_358" data-name="Group 358" transform="translate(0 -3041)">
      <path id="Path_879" data-name="Path 879" d="M53.47,3556.189v9.879H51.782v-8.156h-5.4V3566H44.692v-8.086H37.919V3566H36.231v-9.809Z" fill="#fff"/>
      <path id="Path_880" data-name="Path 880" d="M36.231,3569.656H53.47v.375L40.256,3581.5H53.47v1.7H36.231v-.387l13.054-11.378H36.231Z" fill="#fff"/>
      <path id="Path_881" data-name="Path 881" d="M53.47,3593.647v1.723H41.833a11.428,11.428,0,0,1-3.732-.416,3.486,3.486,0,0,1-1.676-1.389,4.254,4.254,0,0,1-.627-2.355,5.518,5.518,0,0,1,.4-2.057,8.723,8.723,0,0,1,1.424-2.244l1.371.914a13.513,13.513,0,0,0-1.336,2.242,2.851,2.851,0,0,0-.258,1.151,2.214,2.214,0,0,0,.446,1.345,2.322,2.322,0,0,0,1.183.845,10.993,10.993,0,0,0,2.86.241Z" fill="#fff"/>
      <path id="Path_882" data-name="Path 882" d="M53.9,3608.373a8.945,8.945,0,0,1-2.613,6.555,9.155,9.155,0,0,1-12.855.006,8.728,8.728,0,0,1-2.637-6.42,8.825,8.825,0,0,1,2.625-6.473,8.628,8.628,0,0,1,6.351-2.638,9.177,9.177,0,0,1,4.606,1.2,8.877,8.877,0,0,1,4.523,7.768Zm-1.676.077a7.361,7.361,0,0,0-3.682-6.3,7.465,7.465,0,0,0-3.765-.963,7.25,7.25,0,0,0-7.306,7.266,7.375,7.375,0,0,0,.973,3.715,6.975,6.975,0,0,0,2.662,2.664,7.48,7.48,0,0,0,3.753.957,7.3,7.3,0,0,0,3.712-.957,7.132,7.132,0,0,0,2.656-2.694A7.286,7.286,0,0,0,52.227,3608.45Z" fill="#fff"/>
      <path id="Path_883" data-name="Path 883" d="M53.47,3620.265v1.982l-7.11,4.411L53.47,3631v1.992l-9-5.461H36.231v-1.7H44.47Z" fill="#fff"/>
      <path id="Path_884" data-name="Path 884" d="M53.47,3643.672v1.723H37.9v6.632H36.231v-8.355Z" fill="#fff"/>
      <path id="Path_885" data-name="Path 885" d="M53.47,3655.112v1.723H36.231v-1.723Z" fill="#fff"/>
      <path id="Path_886" data-name="Path 886" d="M53.47,3661.383v8.637H51.782v-6.914h-5.4v6.914H44.692v-6.914H36.231v-1.723Z" fill="#fff"/>
      <path id="Path_887" data-name="Path 887" d="M53.47,3673.632v9.879H51.782v-8.157h-5.4v8.086H44.692v-8.086H37.919v8.086H36.231v-9.808Z" fill="#fff"/>
    </g>
  </g>
</svg>
