<svg xmlns="http://www.w3.org/2000/svg" width="60" height="60" viewBox="0 0 60 60">
  <path id="phone" d="M1886.5,19a30,30,0,1,0,30,30A29.994,29.994,0,0,0,1886.5,19Zm14.056,47.308c-2.517,2.622-12.063.1-21.4-9.65s-11.748-19.72-9.231-22.343c2.2-2.308,4.93-6.294,8.916-1.049s2.1,6.713-.21,9.126c-1.573,1.678,1.678,5.874,5.245,9.545,3.462,3.671,7.448,7.133,9.126,5.455,2.308-2.413,3.671-4.406,8.706-.21C1906.64,61.273,1902.759,64.1,1900.556,66.308Z" transform="translate(-1856.5 -19)" fill="#00b5fa"/>
</svg>
