<svg xmlns="http://www.w3.org/2000/svg" width="107.749" height="118.944" viewBox="0 0 107.749 118.944">
  <g id="ship4" transform="translate(-1315.666 -2133.956)">
    <g id="Group_552" data-name="Group 552">
      <g id="Group_549" data-name="Group 549">
        <path id="Path_5380" data-name="Path 5380" d="M1403.4,2242.4h-70.1a1.1,1.1,0,0,1-1-1.1,1.028,1.028,0,0,1,1-1.1h70.1a1.105,1.105,0,0,1,0,2.2Z" fill="#5d9fa6"/>
      </g>
      <g id="Group_550" data-name="Group 550">
        <path id="Path_5381" data-name="Path 5381" d="M1398,2252.9h-58a1.1,1.1,0,0,1-1-1.1,1.028,1.028,0,0,1,1-1.1h57.9a1.1,1.1,0,0,1,1,1.1A1.018,1.018,0,0,1,1398,2252.9Z" fill="#5d9fa6"/>
      </g>
      <g id="Group_551" data-name="Group 551">
        <path id="Path_5382" data-name="Path 5382" d="M1393.3,2246.9h-48.9a1.1,1.1,0,0,1-1-1.1,1.028,1.028,0,0,1,1-1.1h48.9a1.105,1.105,0,0,1,0,2.2Z" fill="#5d9fa6"/>
      </g>
    </g>
    <g id="Group_563" data-name="Group 563">
      <g id="Group_553" data-name="Group 553">
        <path id="Path_5383" data-name="Path 5383" d="M1360.3,2146.4l-5.2,1.5a7.713,7.713,0,0,0-5,4.8,324.007,324.007,0,0,0-13.7,54.9,6.851,6.851,0,0,0,5.5,7.8c14.5,2.5,28.7,5,42.7,7.4C1380,2195,1371.6,2168.6,1360.3,2146.4Zm7.2,62.9-21-3.7,1.7-27.3a3.777,3.777,0,0,1,1.4-2.7,12.4,12.4,0,0,1,6-2.3,2.484,2.484,0,0,1,2.6,1.3c5.1,9.8,8.6,20.9,11.2,32.7A1.618,1.618,0,0,1,1367.5,2209.3Z" fill="#ee857d"/>
        <path id="Path_5384" data-name="Path 5384" d="M1385.3,2223.4l-43.4-7.5a7.22,7.22,0,0,1-5.9-8.3,332.57,332.57,0,0,1,13.7-55,8.555,8.555,0,0,1,5.4-5.1l5.6-1.6.2.4c11.3,22.2,19.7,48.6,24.3,76.5Zm-25.2-76.4-4.8,1.4a6.847,6.847,0,0,0-4.7,4.5,330.128,330.128,0,0,0-13.7,54.8,6.23,6.23,0,0,0,5.1,7.2l42,7.3C1379.4,2194.8,1371.1,2168.8,1360.1,2147Zm7.7,62.8h-.4L1346,2206l1.7-27.8a4.49,4.49,0,0,1,1.6-3.1,13.447,13.447,0,0,1,6.2-2.4,2.949,2.949,0,0,1,3.1,1.6c4.7,9,8.4,19.7,11.3,32.8a2.56,2.56,0,0,1-.4,1.9A2.136,2.136,0,0,1,1367.8,2209.8Zm-20.8-4.6,20.6,3.6a1.147,1.147,0,0,0,1.2-.5,1.231,1.231,0,0,0,.2-1c-2.9-13-6.5-23.7-11.2-32.6a2.09,2.09,0,0,0-2.1-1.1,13.291,13.291,0,0,0-5.8,2.2,3.592,3.592,0,0,0-1.3,2.4Z" fill="#bf4d52"/>
      </g>
      <g id="Group_554" data-name="Group 554">
        <path id="Path_5385" data-name="Path 5385" d="M1348.3,2159.2a1.053,1.053,0,0,1-1-.8,1.028,1.028,0,0,1,.7-1.2l16-3.6a.982.982,0,1,1,.5,1.9l-16,3.6A.309.309,0,0,1,1348.3,2159.2Z" fill="#bf4d52"/>
      </g>
      <g id="Group_555" data-name="Group 555">
        <path id="Path_5386" data-name="Path 5386" d="M1341.9,2181.6a1.2,1.2,0,0,1-1-.7,1.028,1.028,0,0,1,.7-1.2l5.6-1.4a.982.982,0,1,1,.5,1.9l-5.6,1.4Z" fill="#bf4d52"/>
      </g>
      <g id="Group_556" data-name="Group 556">
        <path id="Path_5387" data-name="Path 5387" d="M1359.8,2177a1.2,1.2,0,0,1-1-.7,1.028,1.028,0,0,1,.7-1.2l11.9-3.1a.982.982,0,1,1,.5,1.9L1360,2177Z" fill="#bf4d52"/>
      </g>
      <g id="Group_557" data-name="Group 557">
        <path id="Path_5388" data-name="Path 5388" d="M1336.4,2210.7a.961.961,0,0,1-.9-.6.992.992,0,0,1,.5-1.3l10.2-4.3a.985.985,0,0,1,.8,1.8l-10.2,4.3A.6.6,0,0,1,1336.4,2210.7Z" fill="#bf4d52"/>
      </g>
      <g id="Group_558" data-name="Group 558">
        <path id="Path_5389" data-name="Path 5389" d="M1367.6,2197.9a.874.874,0,0,1-.9-.6.992.992,0,0,1,.5-1.3l10.4-4.3a.985.985,0,0,1,.8,1.8l-10.4,4.3A.755.755,0,0,1,1367.6,2197.9Z" fill="#bf4d52"/>
      </g>
      <g id="Group_559" data-name="Group 559">
        <path id="Path_5390" data-name="Path 5390" d="M1386.8,2238.3a1.063,1.063,0,0,1-1-.9c-4.5-38.1-16.1-74.3-32.6-102a.943.943,0,0,1,1.6-1c16.6,27.9,28.3,64.4,32.8,102.7a.993.993,0,0,1-.9,1.1Z" fill="#dce4f3"/>
      </g>
      <g id="Group_560" data-name="Group 560">
        <path id="Path_5391" data-name="Path 5391" d="M1422.5,2236.3s-1.6.3-4.5.7c-1.4.2-3.2.4-5.2.7-2,.2-4.3.4-6.7.7-4.9.4-10.7.8-16.8,1-3.1.1-6.3.2-9.5.3s-6.5.1-9.8.1h-9.8c-3.2,0-6.4-.1-9.5-.1-3.1-.1-6.1-.2-8.9-.3s-5.5-.2-8-.4c-2.5-.1-4.7-.3-6.7-.5s-3.8-.4-5.2-.6-2.6-.4-3.4-.6a11.351,11.351,0,0,1-1.2-.2,1.951,1.951,0,0,1-1.6-2.3,2.069,2.069,0,0,1,2.2-1.6h.2s.4.1,1.1.2,1.8.3,3.2.4,3.1.3,5.1.4,4.2.3,6.6.3c2.4.1,5.1.2,7.9.3s5.8.1,8.8.2c6.1,0,12.7.2,19.2.1,3.3,0,6.5,0,9.7-.1,3.2,0,6.4-.1,9.4-.1,3.1-.1,6-.1,8.8-.2s5.5-.1,7.9-.2,4.7-.1,6.7-.2,3.7-.1,5.1-.2c2.9-.2,4.5-.3,4.5-.3a1.305,1.305,0,0,1,1.3,1.2A1.08,1.08,0,0,1,1422.5,2236.3Z" fill="#fff"/>
      </g>
      <path id="Path_5392" data-name="Path 5392" d="M1367.5,2209.3l-19.7-3.5a1.508,1.508,0,0,1-1.2-1.5l1.6-26a3.777,3.777,0,0,1,1.4-2.7,12.4,12.4,0,0,1,6-2.3,2.484,2.484,0,0,1,2.6,1.3c5.1,9.8,8.6,20.9,11.2,32.7A1.618,1.618,0,0,1,1367.5,2209.3Z" fill="#9cd5df" opacity="0.3"/>
      <g id="Group_561" data-name="Group 561">
        <path id="Path_5393" data-name="Path 5393" d="M1367.8,2209.8h-.4l-19.1-3.4a2.694,2.694,0,0,1-2.2-2.7l1.6-25.4a4.49,4.49,0,0,1,1.6-3.1,13.447,13.447,0,0,1,6.2-2.4,2.949,2.949,0,0,1,3.1,1.6c4.7,9,8.4,19.7,11.3,32.8a2.56,2.56,0,0,1-.4,1.9A2.414,2.414,0,0,1,1367.8,2209.8Zm-11.8-36.2h-.3a13.291,13.291,0,0,0-5.8,2.2,3.592,3.592,0,0,0-1.3,2.4l-1.6,25.4a1.553,1.553,0,0,0,1.3,1.7l19.1,3.4a1.147,1.147,0,0,0,1.2-.5,1.231,1.231,0,0,0,.2-1c-2.9-13-6.5-23.7-11.2-32.6A1.621,1.621,0,0,0,1356,2173.6Z" fill="#bf4d52"/>
      </g>
      <g id="Group_562" data-name="Group 562">
        <path id="Path_5394" data-name="Path 5394" d="M1346.5,2200.5a2.051,2.051,0,0,1-1.9-1.3,1.969,1.969,0,0,1,1.2-2.5l31.5-11.2a1.961,1.961,0,0,1,1.3,3.7l-31.5,11.2C1347,2200.5,1346.7,2200.5,1346.5,2200.5Z" fill="#dce4f3"/>
      </g>
    </g>
  </g>
</svg>
