<svg xmlns="http://www.w3.org/2000/svg" width="27.2" height="39.8" viewBox="0 0 27.2 39.8">
  <g id="ship3" transform="translate(-813.3 -2225.1)">
    <g id="Group_570" data-name="Group 570">
      <path id="Path_5404" data-name="Path 5404" d="M820.7,2252.3h13.2l-4.7-22h-3.8Z" fill="#dd4341"/>
      <path id="Path_5405" data-name="Path 5405" d="M830,2233.9l-.8-3.6h-3.8l-.8,3.6Z" fill="#fff"/>
      <path id="Path_5406" data-name="Path 5406" d="M823.8,2237.5l-.7,3.5h8.4l-.8-3.5Z" fill="#fff"/>
      <path id="Path_5407" data-name="Path 5407" d="M822.3,2244.8l-.9,4h11.8l-.9-4Z" fill="#fff"/>
      <path id="Path_5408" data-name="Path 5408" d="M827.3,2225.1h0a1.9,1.9,0,0,1,1.9,1.9v3.3h-3.8V2227A1.9,1.9,0,0,1,827.3,2225.1Z" fill="#524b5f"/>
      <path id="Path_5409" data-name="Path 5409" d="M819.3,2254.6h16.5l1.9-2.3H817.4Z" fill="#524b5f"/>
    </g>
    <g id="Group_571" data-name="Group 571">
      <path id="Path_5410" data-name="Path 5410" d="M839.6,2255.9H814.2a.9.9,0,1,1,0-1.8h25.4a.9.9,0,1,1,0,1.8Z" fill="#5d9fa6"/>
    </g>
    <g id="Group_572" data-name="Group 572">
      <path id="Path_5411" data-name="Path 5411" d="M834.3,2264.9H820.7a.9.9,0,1,1,0-1.8h13.6a.9.9,0,0,1,.9.9A.839.839,0,0,1,834.3,2264.9Z" fill="#5d9fa6"/>
    </g>
    <g id="Group_573" data-name="Group 573">
      <path id="Path_5412" data-name="Path 5412" d="M829.8,2259.8H825a.9.9,0,1,1,0-1.8h4.8a.9.9,0,0,1,.9.9A.967.967,0,0,1,829.8,2259.8Z" fill="#5d9fa6"/>
    </g>
  </g>
</svg>
