<svg xmlns="http://www.w3.org/2000/svg" width="181.3" height="148.2" viewBox="0 0 181.3 148.2">
  <g id="ship1" transform="translate(-156.4 -2093)">
    <path id="Path_5413" data-name="Path 5413" d="M195.2,2209.1h-6.5a3.1,3.1,0,0,0,0,6.2h6.5a3.1,3.1,0,0,0,0-6.2Z" fill="#3d4650"/>
    <g id="Group_582" data-name="Group 582">
      <path id="Path_5414" data-name="Path 5414" d="M166.1,2235.5c3.2-.6,7.2-6.8,8.3-5.8,11.2,10.2.6,8.5-8.3,6.6A2.134,2.134,0,0,1,166.1,2235.5Z" fill="#595b5b"/>
      <g id="Group_575" data-name="Group 575">
        <rect id="Rectangle_556" data-name="Rectangle 556" width="1" height="90.3" transform="translate(174.989 2147.687) rotate(-66.252)" fill="#2a3437"/>
      </g>
      <g id="Group_576" data-name="Group 576">
        <path id="Path_5415" data-name="Path 5415" d="M232.2,2215.4a355.545,355.545,0,0,1-10.5-39.2c-2.4-12.1-3.6-22.5-3.6-31.1,0-10.7,2.1-18.5,6-23l.1-.1h.1c7-2.3,22.3-1.7,33.9-.8l-.1,1c-9.4-.7-26.1-1.6-33.4.7-6.8,7.8-7.5,26.2-2.1,53.1a365.126,365.126,0,0,0,10.4,39Z" fill="#2a3437"/>
      </g>
      <g id="Group_577" data-name="Group 577">
        <path id="Path_5416" data-name="Path 5416" d="M163,2215.3h-1c0-.4.5-42.2,8.9-60.8l.9.4C163.5,2173.3,163,2214.8,163,2215.3Z" fill="#2a3437"/>
      </g>
      <g id="Group_578" data-name="Group 578">
        <rect id="Rectangle_557" data-name="Rectangle 557" width="3.9" height="90.3" transform="translate(174.379 2152.794) rotate(-66.252)" fill="#85969d"/>
      </g>
      <path id="Path_5417" data-name="Path 5417" d="M258.2,2093h-.5l-1.5,79.9h3.5Z" fill="#85969d"/>
      <rect id="Rectangle_558" data-name="Rectangle 558" width="8.5" height="39.8" transform="translate(253.7 2172.7)" fill="#5a717d"/>
      <rect id="Rectangle_559" data-name="Rectangle 559" width="40" height="54.5" transform="translate(266.3 2169.6)" fill="#fff"/>
      <rect id="Rectangle_560" data-name="Rectangle 560" width="67.9" height="25.9" transform="translate(238.4 2191.4)" fill="#fff"/>
      <g id="Group_579" data-name="Group 579">
        <rect id="Rectangle_561" data-name="Rectangle 561" width="11.9" height="3.9" transform="matrix(0.526, -0.85, 0.85, 0.526, 169.82, 2153.663)" fill="#85969d"/>
      </g>
      <g id="Group_580" data-name="Group 580">
        <rect id="Rectangle_562" data-name="Rectangle 562" width="2.2" height="45.2" transform="matrix(0.661, -0.75, 0.75, 0.661, 223.699, 2123.355)" fill="#85969d"/>
      </g>
      <circle id="Ellipse_188" data-name="Ellipse 188" cx="2.2" cy="2.2" r="2.2" transform="translate(222.3 2120.4)" fill="#51686e"/>
      <path id="Path_5418" data-name="Path 5418" d="M306.4,2169.6v5.6l-40.1,1.9v-7.5Z" fill="#d5d5d5"/>
      <path id="Path_5419" data-name="Path 5419" d="M266.1,2169.5l45.3-8.9a1.417,1.417,0,0,1,1.6,1.1l1.3,6.5a1.322,1.322,0,0,1-1.2,1.6l-46.9,5a.669.669,0,0,1-.7-.6l.1-4C265.6,2169.8,265.8,2169.5,266.1,2169.5Z" fill="#fff"/>
      <path id="Path_5420" data-name="Path 5420" d="M253.7,2198.5H246a2.433,2.433,0,0,0-2.4,2.4v12.5h12.5v-12.5A2.369,2.369,0,0,0,253.7,2198.5Z" fill="#5a717d"/>
      <path id="Path_5421" data-name="Path 5421" d="M337.7,2193.9l-7.5,18.2-1,2.4a43.146,43.146,0,0,1-40,26.7H177.7s-.6-4.7-3.7-7.5c-3.2-2.9-9.9-5-9.9-5l-3.7-6.8-4-7.5,96.5-3.9,7.1-7.6Z" fill="#f4bc38"/>
      <g id="Group_581" data-name="Group 581">
        <path id="Path_5422" data-name="Path 5422" d="M282.4,2192.6c-1.6,1.3-6.4,1.3-8,0-2.3-1.8-2.1-9.6,0-11.7,1.4-1.4,6.6-1.4,8,0C284.5,2183,284.7,2190.8,282.4,2192.6Z" fill="#272e38"/>
        <path id="Path_5423" data-name="Path 5423" d="M278.4,2192.4a5.322,5.322,0,0,1-3.2-.7c-.5-.4-1-1.6-1.2-3.9-.2-2.8.5-5.3,1.3-6a5.753,5.753,0,0,1,3.1-.7,5.474,5.474,0,0,1,3.1.7c.7.7,1.4,3.2,1.3,6-.1,2.3-.7,3.5-1.2,3.9A5.911,5.911,0,0,1,278.4,2192.4Z" fill="#c4dfe8"/>
        <path id="Path_5424" data-name="Path 5424" d="M298.3,2192.6c-1.6,1.3-6.4,1.3-8,0-2.3-1.8-2.1-9.6,0-11.7,1.4-1.4,6.6-1.4,8,0C300.4,2183,300.6,2190.8,298.3,2192.6Z" fill="#272e38"/>
        <path id="Path_5425" data-name="Path 5425" d="M294.3,2192.4a5.322,5.322,0,0,1-3.2-.7c-.5-.4-1-1.6-1.2-3.9-.2-2.8.5-5.3,1.3-6a5.753,5.753,0,0,1,3.1-.7,5.474,5.474,0,0,1,3.1.7c.7.7,1.4,3.2,1.3,6-.1,2.3-.7,3.5-1.2,3.9A5.633,5.633,0,0,1,294.3,2192.4Z" fill="#c4dfe8"/>
      </g>
      <path id="Path_5426" data-name="Path 5426" d="M182.2,2218.4l-5.4.2a.882.882,0,0,1-.9-.8v-.5a.882.882,0,0,1,.8-.9l5.4-.2a.882.882,0,0,1,.9.8v.5A.882.882,0,0,1,182.2,2218.4Z" fill="#272e38"/>
      <path id="Path_5427" data-name="Path 5427" d="M195.4,2218l-5.4.2a.882.882,0,0,1-.9-.8v-.5a.882.882,0,0,1,.8-.9l5.4-.2a.882.882,0,0,1,.9.8v.5A.817.817,0,0,1,195.4,2218Z" fill="#272e38"/>
      <path id="Path_5428" data-name="Path 5428" d="M208.1,2217.6l-5.4.2a.882.882,0,0,1-.9-.8v-.5a.882.882,0,0,1,.8-.9l5.4-.2a.882.882,0,0,1,.9.8v.5A.765.765,0,0,1,208.1,2217.6Z" fill="#272e38"/>
      <path id="Path_5429" data-name="Path 5429" d="M167.1,2233.1c0,1.5-.4,2.7-1,2.7-.5,0-1-1.2-1-2.7s.4-2.7,1-2.7C166.6,2230.4,167.1,2231.6,167.1,2233.1Z" fill="#85969d"/>
      <path id="Path_5430" data-name="Path 5430" d="M167.1,2238.5c0,1.5-.4,2.7-1,2.7-.5,0-1-1.2-1-2.7s.4-2.7,1-2.7C166.6,2235.8,167.1,2237,167.1,2238.5Z" fill="#85969d"/>
      <path id="Path_5431" data-name="Path 5431" d="M167.1,2235.8a1,1,0,1,1-1-1A1.075,1.075,0,0,1,167.1,2235.8Z" fill="#272e38"/>
      <path id="Path_5432" data-name="Path 5432" d="M330.2,2212.1l-1,2.4a43.146,43.146,0,0,1-40,26.7H177.7s-.6-4.7-3.7-7.5c-3.2-2.9-9.9-5-9.9-5l-3.7-6.8S289.1,2221.3,330.2,2212.1Z" fill="#3d4650"/>
    </g>
  </g>
</svg>
