<svg xmlns="http://www.w3.org/2000/svg" width="325.199" height="325.199" viewBox="0 0 325.199 325.199">
  <path id="skyscraper" d="M2133.3,2259.2h11.3a14.7,14.7,0,1,0,0-4h-11.3a121.07,121.07,0,0,0-8.5-43l10.4-4.3a14.65,14.65,0,1,0-1.5-3.6l-10.4,4.3a121.813,121.813,0,0,0-24.4-36.4l8-8a14.637,14.637,0,1,0-2.7-2.7l-8,8a121.816,121.816,0,0,0-36.4-24.4l4.3-10.4a14.658,14.658,0,0,0,9.4-27.7,14.654,14.654,0,0,0-13,26.2l-4.3,10.4a120.2,120.2,0,0,0-43-8.5V2124a14.7,14.7,0,1,0-4,0v11.3a121.071,121.071,0,0,0-43,8.5l-4.3-10.4a14.65,14.65,0,1,0-3.6,1.5l4.3,10.4a121.815,121.815,0,0,0-36.4,24.4l-8-8a14.637,14.637,0,1,0-2.7,2.7l8,8a121.819,121.819,0,0,0-24.4,36.4l-10.4-4.3a14.711,14.711,0,1,0-1.5,3.6l10.4,4.3a120.2,120.2,0,0,0-8.5,43h-11.3a14.7,14.7,0,1,0,0,4h11.3a121.07,121.07,0,0,0,8.5,43l-10.4,4.3a14.65,14.65,0,1,0,1.5,3.6l10.4-4.3a121.813,121.813,0,0,0,24.4,36.4l-8,8a14.637,14.637,0,1,0,2.7,2.7l8-8a121.815,121.815,0,0,0,36.4,24.4l-4.3,10.4a14.712,14.712,0,1,0,3.6,1.5l4.3-10.4a120.2,120.2,0,0,0,43,8.5v11.3a14.7,14.7,0,1,0,4,0v-11.3a121.071,121.071,0,0,0,43-8.5l4.3,10.4a14.65,14.65,0,1,0,3.6-1.5l-4.3-10.4a121.813,121.813,0,0,0,36.4-24.4l8,8a14.637,14.637,0,1,0,2.7-2.7l-8-8a121.816,121.816,0,0,0,24.4-36.4l10.4,4.3a14.658,14.658,0,0,0,27.7,9.4,14.654,14.654,0,0,0-26.2-13l-10.4-4.3A122.159,122.159,0,0,0,2133.3,2259.2Zm-11.9,41.6-29.6-12.2a83.991,83.991,0,0,0,5.8-29.3h32A117.07,117.07,0,0,1,2121.4,2300.8Zm-101.9-49.1,51.4-51.4a82.758,82.758,0,0,1,15.8,23.6Zm68.7-24.2a80.464,80.464,0,0,1,5.5,27.8H2021Zm-71.4,21.5,27.8-67.2a84.165,84.165,0,0,1,23.6,15.8Zm-3.6-1.5v-72.7a82.359,82.359,0,0,1,27.8,5.5Zm-3.9,0-27.8-67.2a80.464,80.464,0,0,1,27.8-5.5Zm-3.6,1.5-51.4-51.4a82.759,82.759,0,0,1,23.6-15.8Zm-2.8,2.7-67.2-27.8a84.168,84.168,0,0,1,15.8-23.6Zm-1.5,3.6h-72.7a82.359,82.359,0,0,1,5.5-27.8Zm0,3.9-67.2,27.8a80.462,80.462,0,0,1-5.5-27.8Zm1.5,3.6-51.4,51.4a82.755,82.755,0,0,1-15.8-23.6Zm2.8,2.8-27.8,67.2a84.163,84.163,0,0,1-23.6-15.8Zm3.6,1.5v72.7a82.359,82.359,0,0,1-27.8-5.5Zm3.9,0,27.8,67.2a80.464,80.464,0,0,1-27.8,5.5Zm3.6-1.5,51.4,51.4a82.759,82.759,0,0,1-23.6,15.8Zm2.7-2.8,67.2,27.8a84.165,84.165,0,0,1-15.8,23.6Zm1.5-3.6h72.7a82.359,82.359,0,0,1-5.5,27.8Zm108.6-3.9h-32a86.329,86.329,0,0,0-5.8-29.3l29.6-12.2A117.078,117.078,0,0,1,2129.6,2255.3Zm-9.7-45.1-29.6,12.2a86.959,86.959,0,0,0-16.6-24.8l22.6-22.6A117.618,117.618,0,0,1,2119.9,2210.2Zm-26.4-38-22.6,22.6a86.964,86.964,0,0,0-24.8-16.6l12.2-29.6A119.521,119.521,0,0,1,2093.5,2172.2Zm-38.8-25.1-12.2,29.6a83.99,83.99,0,0,0-29.3-5.8v-32A117.067,117.067,0,0,1,2054.7,2147.1Zm-45.4-8.2v32a86.329,86.329,0,0,0-29.3,5.8l-12.2-29.6A116.2,116.2,0,0,1,2009.3,2138.9Zm-45.2,9.7,12.2,29.6a86.96,86.96,0,0,0-24.8,16.6l-22.6-22.6A122.17,122.17,0,0,1,1964.1,2148.6Zm-38,26.4,22.6,22.6a86.958,86.958,0,0,0-16.6,24.8l-29.6-12.2A119.523,119.523,0,0,1,1926.1,2175Zm-25,38.8,29.6,12.2a84,84,0,0,0-5.8,29.3h-32A112.841,112.841,0,0,1,1901.1,2213.8Zm-8.3,45.4h32a86.329,86.329,0,0,0,5.8,29.3l-29.6,12.2A116.2,116.2,0,0,1,1892.8,2259.2Zm9.8,45.2,29.6-12.2a86.958,86.958,0,0,0,16.6,24.8l-22.6,22.6A117.011,117.011,0,0,1,1902.6,2304.4Zm26.3,38,22.6-22.6a86.962,86.962,0,0,0,24.8,16.6l-12.2,29.6A122.176,122.176,0,0,1,1928.9,2342.4Zm38.8,25,12.2-29.6a83.99,83.99,0,0,0,29.3,5.8v32A112.832,112.832,0,0,1,1967.7,2367.4Zm45.5,8.3v-32a86.329,86.329,0,0,0,29.3-5.8l12.2,29.6A117.067,117.067,0,0,1,2013.2,2375.7Zm45.1-9.8-12.2-29.6a86.959,86.959,0,0,0,24.8-16.6l22.6,22.6A115.779,115.779,0,0,1,2058.3,2365.9Zm38-26.3-22.6-22.6a86.964,86.964,0,0,0,16.6-24.8l29.6,12.2A118.893,118.893,0,0,1,2096.3,2339.6Z" transform="translate(-1848.601 -2094.8)" fill="#ef8200"/>
</svg>
