<svg xmlns="http://www.w3.org/2000/svg" width="771.2" height="92.3" viewBox="0 0 771.2 92.3">
  <g id="subtitle" transform="translate(-983.6 -507.9)">
    <path id="Path_4809" data-name="Path 4809" d="M983.6,545.9a335.366,335.366,0,0,0,20.8-35.9h21.1c-1.8,4.1-3.7,8.2-5.6,12.1q-1.95,4.05-4.2,7.8h26.8c-2.7-5.5-5.6-10.9-8.4-16.4H1054c5.7,10.6,11.1,21.4,16.3,32.2H983.6Zm81.8,5.9v48.4H987.9V551.8Zm-58.3,33h39.1v-17h-39.1Z"/>
    <path id="Path_4810" data-name="Path 4810" d="M1114.9,575.9h-32.1V521.5h32.1V510.2h19.6v11.3h32v54.4h-32V600h-19.6Zm-13.1-15.3h13V536.8h-13Zm32.7-23.8v23.8h12.9V536.8Z"/>
    <path id="Path_4811" data-name="Path 4811" d="M1183.2,585.1V554.9h-4.9V543.1h88.6v11.8h-43.3v28.6l3.8-.2v11.5l-3.8.1v5.3h-15.2v-4.7l-30.9,1.3V585.3Zm77-74.6v30.9h-75V510.5h75Zm-61.8,48h9.9V555h-9.9Zm0,12.6h9.9v-3.4h-9.9Zm0,13.4,9.9-.4v-3.6h-9.9Zm3.8-62.2h41v-2.6h-41Zm40.9,9.9v-2.6h-41v2.6Zm3.1,63.6-4.3,4.4h-18.1c4.4-4.8,8.7-9.9,12.6-15.1a147.782,147.782,0,0,1-10.7-14.3h13.5a49.232,49.232,0,0,0,5.7,6.4,69.7,69.7,0,0,0,4.4-8.1h-23.8v-12h40.4a69.265,69.265,0,0,1-3.6,13,103.978,103.978,0,0,1-7.4,14.5c4.4,5.3,9,10.5,13.7,15.6h-17.9C1249.1,598.7,1247.6,597.2,1246.2,595.8Z"/>
    <path id="Path_4812" data-name="Path 4812" d="M1276.1,511.3h30.3a29.788,29.788,0,0,0-.9,7.3v21.5a29.589,29.589,0,0,0,.9,7.2h-14.3v7h13.8a58.455,58.455,0,0,0-.4,7.3l-.1,17.5c-.4,7.5-2.7,12.6-7.1,15.5a34.784,34.784,0,0,1-11,3.1,39.494,39.494,0,0,0-7.8,1.1,65.607,65.607,0,0,0-4.2-15.3,72.831,72.831,0,0,0,8.4,1.1,8.463,8.463,0,0,0,5.5-1.8c1.5-.8,2.2-5.4,2.2-13.8h-15a132.634,132.634,0,0,0,1.1-15.3c.4-7.7.6-12.4.6-14.3a55.8,55.8,0,0,0-.5-6.4h14.5v-7H1276a60.621,60.621,0,0,0,.4-7.3A42.589,42.589,0,0,0,1276.1,511.3Zm44.9-3.4c3.7.7,8.6,1.4,14.6,2,1,.1,1.4.4,1.4,1,0,.4-.5,1-1.5,1.6l-5.6,11.4c4-.4,8.5-.9,13.7-1.4-1.3-2.2-2.7-4.4-4.2-6.5a75.569,75.569,0,0,0,12.6-5.1,200.452,200.452,0,0,1,14.4,25.7,91.3,91.3,0,0,0-13.3,5.6,74.284,74.284,0,0,0-3.3-7.7c-2.7.3-5.5.5-8.2.8v7.3h18v30.7h-2.9a214.951,214.951,0,0,1,9.4,21,70.322,70.322,0,0,0-12.6,5.4c-.6-2.4-1.3-4.7-1.9-6.9q-21.3,1.95-41.4,3.3-1.35,1.2-1.8,1.2c-.4,0-.7-.4-.8-1.2v-6.8a42.878,42.878,0,0,0-.8-7.7h6.2c2.5,0,7.6-.2,15.2-.7v-7.8h-18.1a42.047,42.047,0,0,0,.5-6.2V548.2a37.844,37.844,0,0,0-.5-5.8h18.1v-6c-5.9.5-11.8,1-17.6,1.5-.8.7-1.3,1.1-1.6,1.1-.6,0-1-.3-1.1-1.1a42.58,42.58,0,0,0,.4-6.1,34.02,34.02,0,0,0-.8-6.9h6.1A79.744,79.744,0,0,0,1321,507.9Zm7.3,53.6v-6.9h-5.8v6.9Zm19.5,0v-6.9h-6.1v6.9Zm-1.2,18.4c-.6-1.4-1.3-2.8-1.9-4.3,2.3-.6,4.5-1.4,6.7-2.2h-9.8v6.8C1343.3,580.1,1344.9,580,1346.6,579.9Z"/>
    <path id="Path_4813" data-name="Path 4813" d="M1401.7,535.1c.5-1.4,1-2.8,1.6-4.2h-29.9V516.8h14.7c-1.1-2.2-2.3-4.3-3.4-6.6h22.7c1.3,2.2,2.5,4.3,3.7,6.6h14.8a45.687,45.687,0,0,0,3.1-6.7h22.6a31.449,31.449,0,0,1-3.1,6.7h15v14.1h-36a25.979,25.979,0,0,1-1.5,4.2h33.2v65.1H1378V535.1Zm-5.9,18.6h45.8v-4.3h-45.8Zm0,16.1h45.8v-4.3h-45.8Zm45.7,16.1v-4.4h-45.8v4.4Z"/>
    <path id="Path_4814" data-name="Path 4814" d="M1475,578.4h12.8a157.985,157.985,0,0,1-4,21.8h-13.4A183.759,183.759,0,0,0,1475,578.4Zm29.3-67.1v64.9h-31.8V511.3h31.8ZM1485,529.2h7v-4.7h-7Zm0,16.9h7v-4.8h-7Zm7,17v-4.8h-7v4.8Zm-2.6,15.2h13c1.4,7.3,2.6,14.6,3.7,21.9h-13.6C1491.8,592.9,1490.8,585.6,1489.4,578.3Zm25.5-65.4v-2.7h13.6v2.7h10.2v-2.7h13.5v2.7h7.6v10.3h-7.6V526h5.6v10.3h-5.6v3h9.2v10.3h-20.8v2.7H1559v26.2h2.3v10h-2.6c-.4,3.9-.9,7.7-1.6,11.7H1541a43.342,43.342,0,0,0,3.8-11.7h-23.1v11.7h-13.6V588.5h-2.4v-10h2.4V552.3h18.5v-2.7h-20.4V539.3h8.6v-3h-5.6V526h5.6v-2.8h-7.3V512.9Zm6.9,53.2h6.7v-3.5h-6.7Zm0,12.5h6.7v-3.3h-6.7Zm6.7-52.6h10.2v-2.8h-10.2Zm0,13.4h10.2v-3h-10.2Zm10.2,23.2v3.5h6.7v-3.5Zm0,16h6.7v-3.3h-6.7Z"/>
    <path id="Path_4815" data-name="Path 4815" d="M1605.7,579.7a139.528,139.528,0,0,1-13.8,20.3h-22.4a155.031,155.031,0,0,0,13.6-15.6,171.148,171.148,0,0,0,11.9-18.5h10.8v-37h-35.2V514.6h35.2v-4.4h17.6v4.4h34.8v14.3h-34.8v37h11.8a221.9,221.9,0,0,0,24.6,34.1H1636c-4.5-6.9-8.7-14-12.6-21.2V600h-17.6V579.7Zm-16.5-25.6c-1.2,3.4-2.4,6.7-3.8,9.9h-15.8a185.777,185.777,0,0,0,6.6-18.1,100.31,100.31,0,0,0,3.7-15.3h15.6c-.7,3.9-1.5,7.7-2.5,11.5h5.8c2.4,7.3,4.4,14.6,6.2,21.9h-13.7C1590.5,560.7,1589.9,557.4,1589.2,554.1Zm53.5.7c-1,3.1-2.1,6.2-3.3,9.1h-15.5a130.557,130.557,0,0,0,5.9-17.3,124.426,124.426,0,0,0,3.4-16.1h15.3c-.7,3.9-1.4,7.7-2.3,11.5h5.8c2.5,7.3,5,14.6,7.3,21.9H1645C1644.2,561,1643.5,557.9,1642.7,554.8Z"/>
    <path id="Path_4816" data-name="Path 4816" d="M1754.8,511.1a198.273,198.273,0,0,1-14.1,17.4,223.243,223.243,0,0,1-16.8,16.9v30.4a86.678,86.678,0,0,1-1.2,16.1,23.634,23.634,0,0,1-2.9,8.2h-23.1a29.636,29.636,0,0,0,6.6-9.9,43.519,43.519,0,0,0,2.4-14.4V541.2c2.9-2.4,5.7-5,8.4-7.6a94.642,94.642,0,0,0,6.8-7.3h-45.4V511.2h79.3Z"/>
  </g>
</svg>
