<svg xmlns="http://www.w3.org/2000/svg" width="619" height="59" viewBox="0 0 619 59">
  <g id="subtitle8" transform="translate(-79 -3255.846)">
    <rect id="Rectangle_149" data-name="Rectangle 149" width="619" height="59" rx="17.948" transform="translate(79 3255.846)" fill="#b7852c"/>
    <g id="Group_428" data-name="Group 428" transform="translate(0 -6881)">
      <path id="Path_4695" data-name="Path 4695" d="M109.774,10170.09v1.881h-2.508v5.193h-2.233v-5.193h-8.2v-1.529l7.852-12.119h2.585v11.768Zm-10.487,0h5.746v-5.771q0-.475.15-3.412h-.1q-.6,1.257-1.506,2.76Z" fill="#fff"/>
      <path id="Path_4696" data-name="Path 4696" d="M112.348,10177.164v-1.379a41.7,41.7,0,0,0,6.548-6.824,9.513,9.513,0,0,0,2.083-5.344,3.942,3.942,0,0,0-.891-2.7,3.236,3.236,0,0,0-2.571-1.017,5.165,5.165,0,0,0-3.915,2.183l-1.354-1.33a9.823,9.823,0,0,1,2.559-2.082,6.2,6.2,0,0,1,2.985-.7,5.32,5.32,0,0,1,3.99,1.518,5.554,5.554,0,0,1,1.48,4.052,10.014,10.014,0,0,1-1.882,5.508,37.162,37.162,0,0,1-5.494,6.26q2.283-.176,3.086-.176h5.218v2.031Z" fill="#fff"/>
      <path id="Path_4697" data-name="Path 4697" d="M127.292,10170.867v-1.807h6.573v1.807Z" fill="#fff"/>
      <path id="Path_4698" data-name="Path 4698" d="M142.36,10177.49a8.141,8.141,0,0,1-5.971-2.483l1.154-1.53a6.382,6.382,0,0,0,4.616,2.057,3.782,3.782,0,0,0,2.861-1.217,4.489,4.489,0,0,0,1.153-3.223,4.431,4.431,0,0,0-1.066-3.149,3.712,3.712,0,0,0-2.848-1.142,5.63,5.63,0,0,0-3.136,1.1l-1.254-.752.6-8.832h9.157v2.008h-7.1l-.476,5.444a5.761,5.761,0,0,1,2.81-.728,5.687,5.687,0,0,1,4.089,1.5,5.887,5.887,0,0,1,1.581,4.466,6.251,6.251,0,0,1-1.819,4.717A6.047,6.047,0,0,1,142.36,10177.49Z" fill="#fff"/>
      <path id="Path_4699" data-name="Path 4699" d="M163.35,10159.9l-1.28,1.455a3.757,3.757,0,0,0-3.036-1.431,4.089,4.089,0,0,0-3.45,1.857q-1.341,1.857-1.417,5.971a6.449,6.449,0,0,1,2.019-1.668,4.856,4.856,0,0,1,2.271-.615,4.93,4.93,0,0,1,3.826,1.519,6.3,6.3,0,0,1,1.393,4.4,6.232,6.232,0,0,1-1.569,4.391,5,5,0,0,1-3.825,1.705,5.383,5.383,0,0,1-4.554-2.4q-1.744-2.4-1.744-6.912a17.562,17.562,0,0,1,.565-4.691,8.221,8.221,0,0,1,1.568-3.2,6.755,6.755,0,0,1,2.22-1.744,6.039,6.039,0,0,1,2.622-.577A5.786,5.786,0,0,1,163.35,10159.9Zm-5.068,15.78a2.756,2.756,0,0,0,2.283-1.191,4.989,4.989,0,0,0,.9-3.1,4.9,4.9,0,0,0-.853-3.062,3.006,3.006,0,0,0-2.534-1.1,4.741,4.741,0,0,0-3.864,2.407,9.138,9.138,0,0,0,1.255,4.491A3.242,3.242,0,0,0,158.282,10175.684Z" fill="#fff"/>
      <path id="Path_4700" data-name="Path 4700" d="M190.059,10168.734v1.807H183.31v8.58h-1.882v-8.58h-6.071l.276,1.682q-1.782.6-5.118,1.705t-3.563,1.18l-.552-1.932q.6-.151,1.982-.564t1.706-.515v-8.354h-3.211v-1.807h3.211v-5.971h1.882v5.971h3.111v1.807H171.97v7.777q.576-.176,1.694-.538t1.367-.44H174.3v-1.807h7.125v-9.659h-6.146v-1.781h14.125v1.781h-6.1v9.659Zm-12.068-8.378,1.782.45a21.822,21.822,0,0,1-3.187,6.675,7.349,7.349,0,0,0-1.455-.88,13.933,13.933,0,0,0,1.731-2.922A16.847,16.847,0,0,0,177.991,10160.356Zm7.05.626,1.556-.626a24.746,24.746,0,0,1,2.885,6.321l-1.656.7A24.434,24.434,0,0,0,185.041,10160.982Z" fill="#fff"/>
      <path id="Path_4701" data-name="Path 4701" d="M204.073,10154.56h1.1v25.69h-1.1Z" fill="#fff"/>
      <path id="Path_4702" data-name="Path 4702" d="M224.636,10162.313h14.929v10.06h-1.907v-1.381H224.335a14.933,14.933,0,0,1-3.687,8.129,3.83,3.83,0,0,0-1.456-1.3,10.527,10.527,0,0,0,2.333-3.713,16.216,16.216,0,0,0,1.017-3.876,36.139,36.139,0,0,0,.187-3.927v-8.254l1.456.426a71.553,71.553,0,0,0,13.046-2.734l1.58,1.405a80.082,80.082,0,0,1-14.175,2.86Zm-.1,6.9h13.122v-5.143H224.636v2.258Q224.636,10167.832,224.536,10169.211Z" fill="#fff"/>
      <path id="Path_4703" data-name="Path 4703" d="M250.969,10162.313H265.9v10.06h-1.907v-1.381H250.668a14.927,14.927,0,0,1-3.688,8.129,3.82,3.82,0,0,0-1.455-1.3,10.527,10.527,0,0,0,2.333-3.713,16.162,16.162,0,0,0,1.016-3.876,35.842,35.842,0,0,0,.189-3.927v-8.254l1.455.426a71.553,71.553,0,0,0,13.046-2.734l1.581,1.405a80.115,80.115,0,0,1-14.176,2.86Zm-.1,6.9h13.122v-5.143H250.969v2.258Q250.969,10167.832,250.869,10169.211Z" fill="#fff"/>
      <path id="Path_4704" data-name="Path 4704" d="M277,10167.53v6.5q1.755,2.685,6.6,2.886,2.058.075,5.846.037t6.021-.187a5.285,5.285,0,0,0-.652,1.831q-6.3.226-11.189.05-5.068-.176-7.4-3.01-1.53,1.529-3.487,3.286l-1-1.831q1.3-.955,3.462-2.91v-4.868h-3.211v-1.781Zm.577-3.462-1.28,1.33a15.876,15.876,0,0,0-4.19-3.062l1.2-1.179a17.438,17.438,0,0,1,2.4,1.379A11.132,11.132,0,0,1,277.579,10164.068Zm.728-5.068-1.33,1.254a10.982,10.982,0,0,0-1.707-1.58,18.745,18.745,0,0,0-2.282-1.53l1.254-1.154A13.222,13.222,0,0,1,278.307,10159Zm12.168,14.075h-5.947q-1.3,2.058-4.942,2.985a3.482,3.482,0,0,0-.928-1.279,8.665,8.665,0,0,0,3.5-1.443,4.492,4.492,0,0,0,1.543-2.4h-5.169v-1.179h7.05v-1.556h1.732v1.556h7.677v1.179h-9.61a9.414,9.414,0,0,1-.3.979h7.25a2.38,2.38,0,0,1-.1.652q-.477,2.61-1.28,3.187a2.651,2.651,0,0,1-1.5.426,23.855,23.855,0,0,1-2.91-.1,2.583,2.583,0,0,0-.377-1.18,25.153,25.153,0,0,0,2.735.15,1.413,1.413,0,0,0,.828-.176A3.266,3.266,0,0,0,290.475,10173.075Zm-10.161-6.85v1.48h-1.681v-2.609h6.924v-1.054H280.54v-7.125h4.716a13.652,13.652,0,0,0,.477-1.3l1.982.275c-.15.234-.377.578-.677,1.029h5.8v7.125h-5.519v1.054h7.451v2.609h-1.706v-1.48h-4.315v.954c0,.2.033.326.1.376a.929.929,0,0,0,.476.075h1.757a.471.471,0,0,0,.414-.163,1.818,1.818,0,0,0,.138-.79,4.505,4.505,0,0,0,1.229.477,2.133,2.133,0,0,1-.439,1.267,1.538,1.538,0,0,1-1.116.339h-2.158a2.594,2.594,0,0,1-1.5-.3,1.618,1.618,0,0,1-.377-1.279v-.954h-2.158a3.827,3.827,0,0,1-1.555,2.133,9.4,9.4,0,0,1-3.412,1.179,3.434,3.434,0,0,0-.828-1.1,10.151,10.151,0,0,0,3.011-.777,2.521,2.521,0,0,0,1.329-1.431Zm2.007-8.329v1.054h8.656v-1.054Zm0,2.031v1.08h8.656v-1.08Zm0,2.033v1.1h8.656v-1.1Z" fill="#fff"/>
      <path id="Path_4705" data-name="Path 4705" d="M308.779,10165.523H301.4v13.623H299.5v-22.379h9.283Zm-1.831-7.275H301.4v2.132h5.545Zm-5.545,5.82h5.545v-2.258H301.4Zm13.272,12.7h-7.8v1.279h-1.706v-10.588h9.508Zm-1.756-7.854h-6.046v2.408h6.046Zm-6.046,6.322h6.046v-2.483h-6.046Zm13.7-18.465v19.82q0,1.781-1.129,2.207a16.775,16.775,0,0,1-4.315.326,5.6,5.6,0,0,0-.678-1.957q2.182.1,3.613.026.577,0,.577-.627v-11.015h-7.577v-8.781Zm-1.932,1.48h-5.745v2.132h5.745Zm-5.745,5.846h5.745v-2.283h-5.745Z" fill="#fff"/>
      <path id="Path_4706" data-name="Path 4706" d="M335.739,10154.56h1.1v25.69h-1.1Z" fill="#fff"/>
      <path id="Path_4707" data-name="Path 4707" d="M351.56,10175.333h22.1v1.933h-22.1Zm1.456-17.187h19.268v1.907H353.016Zm1.656,8.33h15.605v1.932H354.672Z" fill="#fff"/>
      <path id="Path_4708" data-name="Path 4708" d="M400.3,10159.2H389.761q-.352,1.228-1,3.211h10.286v16.734h-1.906v-1.354H380.7v1.354h-1.832v-16.734H386.8q.426-1.529.753-3.211h-9.86v-1.807H400.3Zm-19.594,4.992v11.816h3.663v-11.816Zm10.813,2.836v-2.836H386.1v2.836Zm0,4.439v-2.885H386.1v2.885Zm-5.419,1.557v2.984h5.419v-2.984Zm11.039,2.984v-11.816h-3.864v11.816Z" fill="#fff"/>
      <path id="Path_4709" data-name="Path 4709" d="M411.377,10168.258l-2.785.928v7.729q0,1.479-.878,1.881a9.2,9.2,0,0,1-3.186.326,6.993,6.993,0,0,0-.577-1.756q1.906.05,2.433,0a.36.36,0,0,0,.426-.451v-7.176l-3.06,1-.477-1.857q.3-.075,3.537-1.053v-5.269H403.6v-1.731h3.21v-5.143h1.782v5.143h2.735v1.731h-2.735v4.741q.5-.151,1.43-.465t1.1-.363Zm15.33,1.605h-5.37a17.382,17.382,0,0,0,2.772,3.551,14.8,14.8,0,0,0,3.425,2.621,5.761,5.761,0,0,0-1.3,1.431,16.117,16.117,0,0,1-3.286-2.8,22.472,22.472,0,0,1-2.81-3.75v8.053h-1.806v-8.028a19.82,19.82,0,0,1-3.024,3.8,16.534,16.534,0,0,1-3.65,2.771,5.829,5.829,0,0,0-1.33-1.48,14.75,14.75,0,0,0,3.776-2.571,16.686,16.686,0,0,0,3-3.6h-5.268v-1.681h6.5v-2.76h1.806v2.76h6.574Zm-2.459-13.8,1.379,1.454a46.187,46.187,0,0,1-10.386,1.556,19.506,19.506,0,0,1-2.835,6.724,8.28,8.28,0,0,0-1.455-1,12.836,12.836,0,0,0,1.731-3.487,22.412,22.412,0,0,0,.978-4.064l1.555.275A42.606,42.606,0,0,0,424.248,10156.065Zm-3.789,8.179-1.806.5a16.646,16.646,0,0,0-1.33-4.818l1.656-.4A15.9,15.9,0,0,1,420.459,10164.244Zm1.706-5.043,1.556-.577a27.1,27.1,0,0,1,3.337,5.82l-1.681.7A26.7,26.7,0,0,0,422.165,10159.2Z" fill="#fff"/>
      <path id="Path_4710" data-name="Path 4710" d="M446.943,10177.29h3.337a.949.949,0,0,0,.978-.778,18.892,18.892,0,0,0,.326-3.537,4.767,4.767,0,0,0,1.757.854,11.593,11.593,0,0,1-.74,4.189,2.232,2.232,0,0,1-2.17,1.054h-3.688a3.4,3.4,0,0,1-2.3-.577,3.014,3.014,0,0,1-.615-2.207v-9.057h-4.717a30.243,30.243,0,0,1-.413,3.2,15.391,15.391,0,0,1-.829,2.785,8.834,8.834,0,0,1-1.43,2.446,10.2,10.2,0,0,1-2.245,1.932,14.015,14.015,0,0,1-3.262,1.53,4.932,4.932,0,0,0-.514-.865,4.056,4.056,0,0,0-.665-.766,12.46,12.46,0,0,0,3.023-1.316,9.192,9.192,0,0,0,2.033-1.656,7.041,7.041,0,0,0,1.254-2.107,13.08,13.08,0,0,0,.7-2.4,27.176,27.176,0,0,0,.338-2.783h-6.849v-1.832H440.6v-9.734H442.5v9.734h10.563v1.832h-7.3v9.031a1.105,1.105,0,0,0,.226.84A1.623,1.623,0,0,0,446.943,10177.29Zm-9.709-14.075-1.807.729a23.913,23.913,0,0,0-3.035-6.373l1.731-.652A21.928,21.928,0,0,1,437.234,10163.215Zm11.942-6.573,1.932.7a51.46,51.46,0,0,1-3.563,6.523l-1.605-.652A33.337,33.337,0,0,0,449.176,10156.642Z" fill="#fff"/>
      <path id="Path_4711" data-name="Path 4711" d="M467.4,10154.56h1.1v25.69h-1.1Z" fill="#fff"/>
      <path id="Path_4712" data-name="Path 4712" d="M483.7,10177.164v-1.957h4.19v-14.049h-3.337v-1.48a11.449,11.449,0,0,0,3.914-1.355h1.782v16.885h3.788v1.957Z" fill="#fff"/>
      <path id="Path_4713" data-name="Path 4713" d="M503.087,10158.348l1.982.451a24.2,24.2,0,0,1-2.6,5.156,19.141,19.141,0,0,1-3.474,4,9.818,9.818,0,0,0-1.606-1.38,15.727,15.727,0,0,0,3.337-3.588A19.29,19.29,0,0,0,503.087,10158.348Zm-1.882,7.377H516.66q-.025.627-.05.9-.327,5.821-.7,8.33a6.662,6.662,0,0,1-1.053,3.236,2.706,2.706,0,0,1-1.958.878,34.039,34.039,0,0,1-3.587-.05,3.51,3.51,0,0,0-.627-1.831q1.479.125,3.512.125a1.372,1.372,0,0,0,1.029-.3q.952-.952,1.43-9.483h-6.6a18.51,18.51,0,0,1-2.784,7.088,14.007,14.007,0,0,1-5.244,4.5,7.779,7.779,0,0,0-1.48-1.48,11.821,11.821,0,0,0,4.9-3.851,15.51,15.51,0,0,0,2.521-6.26H501.2Zm4.616-9.609h8.029a19.121,19.121,0,0,0,2.873,5.883,14.073,14.073,0,0,0,4.4,4.1,6.1,6.1,0,0,0-1.33,1.682,16.4,16.4,0,0,1-4.328-4.189,22.079,22.079,0,0,1-3-5.7h-6.649Z" fill="#fff"/>
      <path id="Path_4714" data-name="Path 4714" d="M533.71,10174.681l.125,1.606q-1.631.375-4.892,1.065t-4.616.991l-.4-1.78q2.711-.453,4.241-.754v-7.8h-4.015v-1.656h4.015v-2.734h-2.635v-1.154q-.352.352-1.053,1a5.428,5.428,0,0,0-1.18-1.2,17.244,17.244,0,0,0,4.792-6.572h1.731a29.313,29.313,0,0,1,4.365,4.516l-1.279,1.455a24.11,24.11,0,0,0-3.713-4.24,25.837,25.837,0,0,1-3.236,4.566h6.723v1.631h-2.835v2.734h3.663v1.656h-3.663v7.451q.3-.05,1.706-.34T533.71,10174.681Zm-8.957-4.992,1.3-.3a16.73,16.73,0,0,1,1.028,4.817l-1.4.376A19.154,19.154,0,0,0,524.753,10169.688Zm7.276,4.415-1.255-.326a34.509,34.509,0,0,0,1.054-4.616l1.481.376Q532.556,10172.449,532.029,10174.1Zm9.007,2.885h6.2v1.531H532.857v-1.531h6.423v-1.981h-5.018v-1.455h5.018v-1.655h-4.817v-7.5h11.691v7.5h-5.118v1.655h5.193v1.455h-5.193Zm-5.193-17.812,1.078-.226h-2.985v-1.48h5.293v-1.731h1.807v1.731h5.545v1.48h-2.76l.853.251q-.552,1.154-1.3,2.483h3.839v1.506h-14v-1.506h3.613A14.14,14.14,0,0,0,535.843,10159.176Zm.175,6.5v1.832h3.262v-1.832Zm0,4.942h3.262v-1.856h-3.262Zm6.1-8.932-.351-.126a16.966,16.966,0,0,0,1.2-2.608h-5.52a9.119,9.119,0,0,1,1.1,2.56l-.6.175Zm2.408,5.821v-1.832h-3.487v1.832Zm0,3.11v-1.856h-3.487v1.856Z" fill="#fff"/>
      <path id="Path_4715" data-name="Path 4715" d="M573.14,10164.971h-9.709a23.534,23.534,0,0,0,3.964,7.627,15.178,15.178,0,0,0,6.147,4.692,7.624,7.624,0,0,0-1.431,1.806q-6.949-3.286-10.236-12.719-2.258,9.056-10.261,12.719a4.345,4.345,0,0,0-1.43-1.58q8.028-3.513,9.985-12.545H550.71v-1.957h9.785a61.709,61.709,0,0,0,.377-7.3h2.057a64.263,64.263,0,0,1-.4,7.3H573.14Z" fill="#fff"/>
      <path id="Path_4716" data-name="Path 4716" d="M581.886,10165.273l-1.1,1.555a16.662,16.662,0,0,0-4.391-2.685l1.079-1.405A17.229,17.229,0,0,1,581.886,10165.273Zm-3.137,13.521-1.655-1.2a63.757,63.757,0,0,0,4.164-8.179l1.481,1.129Q580.882,10174.906,578.749,10178.795Zm-1.1-21.525,1.08-1.381a15.191,15.191,0,0,1,4.265,2.71l-1.155,1.5A16.019,16.019,0,0,0,577.645,10157.27Zm21.828,2.859H592.3v2.812h6.649v14.1q0,1.38-.828,1.756a9.686,9.686,0,0,1-3.111.3,4.208,4.208,0,0,0-.577-1.705q.527.023,2.333.025c.268-.018.4-.15.4-.4V10164.6H585.7v14.476h-1.781v-16.131h6.5v-2.812h-7v-1.681h7v-2.784H592.3v2.784h7.176Zm-3.387,13.623h-3.813v4.064h-1.757v-4.064h-3.864v-1.455h3.864v-2.258H586.9v-1.4h8.932v1.4h-3.562v2.258h3.813Zm-8.656-8.354,1.355-.477a9.431,9.431,0,0,1,1.48,3.186l-1.43.527A11.471,11.471,0,0,0,587.43,10165.4Zm6.473-.578,1.581.477q-1.531,2.811-1.832,3.262l-1.229-.451A19.505,19.505,0,0,0,593.9,10164.82Z" fill="#fff"/>
      <path id="Path_4717" data-name="Path 4717" d="M618.205,10166.051l1.981.551a17.923,17.923,0,0,1-4.189,6.5,21.928,21.928,0,0,0,10.361,4.216,6.737,6.737,0,0,0-1.254,1.806,22.825,22.825,0,0,1-10.587-4.691,27.97,27.97,0,0,1-10.538,4.792,5.669,5.669,0,0,0-1.2-1.806,24.836,24.836,0,0,0,10.336-4.316,20.267,20.267,0,0,1-4.014-6.372l1.832-.552a16.318,16.318,0,0,0,3.637,5.645A15.793,15.793,0,0,0,618.205,10166.051Zm-8.3-4.391,1.907.727a21.834,21.834,0,0,1-3.224,3.475,29.163,29.163,0,0,1-3.876,2.924,9.5,9.5,0,0,0-1.581-1.506,22.266,22.266,0,0,0,3.8-2.547A16.92,16.92,0,0,0,609.9,10161.66Zm15.806-2.66v1.857H603.352V10159h10.161v-3.361h1.906V10159Zm-8.154,3.689,1.506-1.155q2.006,1.356,3.939,2.923a23.032,23.032,0,0,1,2.96,2.773l-1.681,1.3a23.975,23.975,0,0,0-2.885-2.848Q619.484,10164.044,617.552,10162.689Z" fill="#fff"/>
      <path id="Path_4718" data-name="Path 4718" d="M634.8,10165.322l-1.079,1.581a17.016,17.016,0,0,0-4.666-2.71l1.053-1.43A17.239,17.239,0,0,1,634.8,10165.322Zm-.426,3.939,1.43,1.18a93.649,93.649,0,0,1-4.366,8.3l-1.606-1.2A72.467,72.467,0,0,0,634.377,10169.262Zm1.706-10.613-1.1,1.506a16.736,16.736,0,0,0-4.566-2.885l1.028-1.381A15.741,15.741,0,0,1,636.083,10158.648Zm2.358,11.742v-2.659h1.731v2.71a18.037,18.037,0,0,1-.126,2.232,12.147,12.147,0,0,1-.5,2.183,7.705,7.705,0,0,1-1.179,2.258,9.074,9.074,0,0,1-2.033,1.957,6.131,6.131,0,0,0-1.354-1.255,8.3,8.3,0,0,0,1.856-1.705,6.183,6.183,0,0,0,1.054-1.971,11.55,11.55,0,0,0,.439-1.869A14.054,14.054,0,0,0,638.441,10170.391Zm-1.807-3.663-.2-1.781q1.2-.025,2.96-.075a28.855,28.855,0,0,0,2.058-4.14h-5.319V10159h6.774v-3.311h1.931V10159h7.528v1.731h-8.732q-1.254,2.358-2.308,4.038.753-.023,3.2-.111l3.8-.139a27.53,27.53,0,0,0-2.108-2.081l1.481-.854a30.055,30.055,0,0,1,2.759,2.71,17.816,17.816,0,0,1,2.033,2.634l-1.58.929a17.126,17.126,0,0,0-1.23-1.757Q636.784,10166.728,636.634,10166.728Zm6.273,11.29v-10.136h1.706v10.136Zm6.3-1.832q0,.8.15.9a.649.649,0,0,0,.4.1h.727a.872.872,0,0,0,.6-.151,1.28,1.28,0,0,0,.225-.678q.05-.451.1-2.533a4.316,4.316,0,0,0,1.328.7,13.345,13.345,0,0,1-.25,2.91,1.713,1.713,0,0,1-1.907,1.28H649.33a2.1,2.1,0,0,1-1.406-.428,3.47,3.47,0,0,1-.5-2.283v-8.278H649.2Z" fill="#fff"/>
      <path id="Path_4719" data-name="Path 4719" d="M660.835,10167.53v6.423q1.756,2.71,6.473,2.91,6.423.177,11.717-.175a5.306,5.306,0,0,0-.652,1.881q-5.922.2-11.04.075-5.018-.226-7.326-3.035-1.3,1.254-3.713,3.285l-1-1.881a37.318,37.318,0,0,0,3.688-2.936v-4.767h-3.362v-1.781Zm.527-3.487-1.329,1.38a14.735,14.735,0,0,0-4.391-3.061l1.254-1.229a21.719,21.719,0,0,1,2.5,1.393A12.023,12.023,0,0,1,661.362,10164.043Zm.678-5.093-1.33,1.3a14.161,14.161,0,0,0-4.04-3.086l1.255-1.179A13.874,13.874,0,0,1,662.04,10158.95Zm2.484,3.839h4.314q.25-1.181.4-2.158h-6.748v-1.605h4.239a9.468,9.468,0,0,0-1.706-2.71l1.48-.626a8.652,8.652,0,0,1,1.882,2.935l-.929.4h5.747l-.954-.251a21.567,21.567,0,0,0,1.731-3.11l1.907.451a31.579,31.579,0,0,1-1.907,2.91H678.6v1.605h-7.3c-.084.3-.221.715-.414,1.242s-.3.832-.313.916h5.921v12.394h-1.907v-.827H666.33v.827h-1.806Zm10.06,3.412v-1.932H666.33v1.932Zm-8.254,1.354v1.981h8.254v-1.981Zm0,5.344h8.254v-2.007H666.33Z" fill="#fff"/>
    </g>
  </g>
</svg>
