<svg xmlns="http://www.w3.org/2000/svg" width="822.256" height="74.082" viewBox="0 0 822.256 74.082">
  <g id="subtitle_pc" transform="translate(-1711.287 -6083.152)">
    <g id="Group_471" data-name="Group 471" transform="translate(1424.211 5447.92)">
      <path id="Path_6591" data-name="Path 6591" d="M445.007,653.042a8.9,8.9,0,1,1,8.9-8.9A8.916,8.916,0,0,1,445.007,653.042Zm0-14.611a5.706,5.706,0,1,0,5.706,5.706A5.715,5.715,0,0,0,445.007,638.431Z" fill="#231815"/>
      <g id="Group_469" data-name="Group 469">
        <path id="Path_6592" data-name="Path 6592" d="M295.746,655.712H289.21q1.787-7.93,6.841-12.2a17.915,17.915,0,0,1,11.939-4.27,19.731,19.731,0,0,1,9.346,2.288,16.939,16.939,0,0,1,6.71,6.166,15.3,15.3,0,0,1,2.374,8.1q0,8.278-8.235,13.115a18.686,18.686,0,0,1,7.582,5.49,17.539,17.539,0,0,1,4.183,11.415,20.369,20.369,0,0,1-2.876,10.392,19.948,19.948,0,0,1-7.843,7.647,22.88,22.88,0,0,1-11.11,2.7,20.4,20.4,0,0,1-13.812-4.771q-5.535-4.772-7.233-14.008h6.274q1.656,6.231,4.749,9.019a14.635,14.635,0,0,0,10.109,3.529q6.971,0,11.2-4.182a13.359,13.359,0,0,0,4.227-9.8,12.694,12.694,0,0,0-2.113-7.015,13.317,13.317,0,0,0-5.665-4.923q-3.551-1.656-11-2.048v-5.883a20.194,20.194,0,0,0,8.018-1.546,11.693,11.693,0,0,0,5.25-3.943,9.094,9.094,0,0,0,1.634-5.229,9.491,9.491,0,0,0-3.333-7.233,12.011,12.011,0,0,0-8.431-3.05,11.319,11.319,0,0,0-7.146,2.332Q297.838,650.135,295.746,655.712Z" fill="#231815"/>
        <path id="Path_6593" data-name="Path 6593" d="M365.265,639.241l5.271,3.442L353.2,668.911a20.554,20.554,0,0,1,6.54-1.174,17.342,17.342,0,0,1,12.962,5.512,18.788,18.788,0,0,1,5.324,13.573,19.67,19.67,0,0,1-2.573,10,18.773,18.773,0,0,1-7.307,7.1,20.6,20.6,0,0,1-10.185,2.636,19.579,19.579,0,0,1-9.793-2.549,18.266,18.266,0,0,1-7.088-7.168,20,20,0,0,1-2.573-9.89A23.935,23.935,0,0,1,340.1,678.7a51.537,51.537,0,0,1,5.7-10.436Zm-7.039,34.117a13.476,13.476,0,1,0,9.536,3.943A13,13,0,0,0,358.226,673.358Z" fill="#231815"/>
        <path id="Path_6594" data-name="Path 6594" d="M383.892,672.922q0-12.678,2.723-19.607a22.751,22.751,0,0,1,7.691-10.5,18.582,18.582,0,0,1,11.111-3.573,19.018,19.018,0,0,1,11.284,3.595,23.874,23.874,0,0,1,8,10.784q2.94,7.19,2.941,19.3,0,12.07-2.9,19.215a23.772,23.772,0,0,1-7.995,10.784,19.058,19.058,0,0,1-11.328,3.638,18.54,18.54,0,0,1-11.068-3.529,22.829,22.829,0,0,1-7.69-10.522Q383.891,685.513,383.892,672.922Zm6.057.109q0,10.859,1.939,16.417a17.434,17.434,0,0,0,5.729,8.438,12.658,12.658,0,0,0,15.991.066,17.2,17.2,0,0,0,5.621-8.438,50.126,50.126,0,0,0,2.4-16.483q0-9.68-2.135-15.85t-5.9-9.027a12.589,12.589,0,0,0-15.969,0,17.573,17.573,0,0,0-5.708,8.416Q389.948,662.129,389.949,673.031Z" fill="#231815"/>
      </g>
      <g id="Group_470" data-name="Group 470">
        <path id="Path_6595" data-name="Path 6595" d="M493.023,645.363a60.828,60.828,0,0,1-14.732,16.773,81.557,81.557,0,0,1-20.785,12.18l-.438-.729A75.57,75.57,0,0,0,472.2,660.423a57.53,57.53,0,0,0,10.173-15.5h-4.011a32.521,32.521,0,0,0-7.147,1.021l-1.97-3.792q4.084.437,9.92.583h11.522l2.7-4.449,7.366,5.033q-1.314,1.6-6.053,1.823,4.01,5.178,12.762,9.991a74.278,74.278,0,0,0,18.379,7.147v.948a10.619,10.619,0,0,0-4.814,3.1,11.888,11.888,0,0,0-2.844,5.069,72.372,72.372,0,0,1-14.914-11.633A50.3,50.3,0,0,1,493.023,645.363Zm11.742,40.257,2.115-2.917q.219-.291.62-.839t.62-.838c.146-.194.315-.413.51-.657a2.489,2.489,0,0,1,.511-.51.708.708,0,0,1,.364-.146q.729,0,4.23,2.99t3.5,3.792q-.219,1.242-1.9,1.24H495.211v15.972h14.878l2.261-3.136q2.259-3.135,2.771-3.136.728,0,4.449,3.172t3.719,3.975q-.293,1.166-1.969,1.167h-48.5a79.87,79.87,0,0,0-11.158,1.094l-1.969-3.793a97.093,97.093,0,0,0,9.918.657h16.847V687.735h-6.636a77.566,77.566,0,0,0-11.159,1.021l-1.969-3.719q4.083.437,9.919.583h9.845V671.326h-5.324a61.938,61.938,0,0,0-9.846,1.094l-1.895-3.866a96.537,96.537,0,0,0,9.918.657h20.712l1.97-2.7q.218-.29.583-.766c.243-.315.438-.571.583-.765s.3-.4.474-.62a2.167,2.167,0,0,1,.474-.474.71.71,0,0,1,.365-.146q.728,0,4.157,2.808t3.428,3.61q-.292,1.167-2.042,1.167h-14.8V685.62Z" fill="#231815"/>
        <path id="Path_6596" data-name="Path 6596" d="M553.424,660.459l1.9-2.99q2.113-2.989,2.552-2.99.729,0,3.975,3.027t3.246,3.828q-.219,1.168-1.97,1.167h-9.7v25.744q.145,9.118.583,17.5a5.752,5.752,0,0,1-2.3,1.568,10.269,10.269,0,0,1-4.193.766,2.359,2.359,0,0,1-1.459-.438,1.26,1.26,0,0,1-.583-1.021q.728-10.94.875-19.472V662.5h-3.574a23.685,23.685,0,0,0-5.907,1.094l-1.97-3.719q4.085.437,9.919.583Zm-15.68,13.784a40.9,40.9,0,0,0-.292-5.4q7.293,2.117,7.293,3.209,0,.293-.583.656l-1.094.73v5.98q-.147,14.806-6.637,21.806l-.875-.8q2.188-6.636,2.188-21.15Zm13.638-29.683,1.969-2.844c.146-.194.339-.461.583-.8s.438-.62.584-.839.3-.438.474-.656a2.169,2.169,0,0,1,.474-.474.707.707,0,0,1,.365-.146q.727,0,4.011,2.953t3.281,3.756q-.217,1.168-1.895,1.167H549.85a80.589,80.589,0,0,0-11.231,1.094L536.65,643.9q4.885.51,9.991.656Zm4.959,37.924a92.331,92.331,0,0,0-.8-13.784q8.094,2.117,8.095,3.209,0,.293-.583.657l-1.167.729v5.834q.219,9.19.51,14.076a4.737,4.737,0,0,1-2.005,1.75,6.322,6.322,0,0,1-3.1.875q-1.386,0-1.386-1.458.291-2.989.438-7.439Zm32.381-38.58,1.823-2.188a6.487,6.487,0,0,0,.547-.656,6.547,6.547,0,0,1,.547-.657c.146-.145.3-.315.474-.51a1.686,1.686,0,0,1,.474-.4.871.871,0,0,1,.365-.109q.729,0,4.23,2.844t3.5,3.647a5.134,5.134,0,0,1-3.063,1.677v35.444c-.049.146-.377.391-.985.73a13.135,13.135,0,0,1-2.406.984,11.279,11.279,0,0,1-2.735.548v12.325a1.456,1.456,0,0,0,.182.875c.12.146.425.219.911.219h3.428a1.269,1.269,0,0,0,1.094-.8,83.436,83.436,0,0,0,2.7-8.9h.8l.146,9.262a3.673,3.673,0,0,1,2.115,3.5q0,4.959-9.481,4.959h-3.574q-4.011,0-5.142-1.422t-1.13-5.579V682.338h-1.969q-1.094,10.357-6.491,16.628t-16.7,9.408l-.292-.948q7.148-3.937,10.5-9.189a29.037,29.037,0,0,0,4.158-12.69,10.417,10.417,0,0,1-4.96,1.24h-1.167V655.281a100.154,100.154,0,0,0-.948-15.315l9.116,3.938Zm.8,11.815v-9.7h-15.1v9.7Zm-15.1,12.4h15.1v-10.21h-15.1Zm0,12.106h15.1v-9.991h-15.1Z" fill="#231815"/>
        <path id="Path_6597" data-name="Path 6597" d="M669.033,644.268l2.188-2.333a9.721,9.721,0,0,0,1.021-1.021,10.034,10.034,0,0,1,1.021-1.021,1.1,1.1,0,0,1,.657-.292q.656,0,4.084,3.464t3.428,4.267q-.657.8-2.918.875a71.447,71.447,0,0,1-12.179,7.512q3.646,3.137,2.844,6.782a3.722,3.722,0,0,1-2.99,3.136,5.148,5.148,0,0,1-3.355-.656,22.616,22.616,0,0,0-4.12-7,34.176,34.176,0,0,0-6.163-5.907l.584-.584a26.593,26.593,0,0,1,10.72,2.626,78.851,78.851,0,0,0,4.959-7.731H650.947a5.019,5.019,0,0,1-2.772,1.459v18.889h23.119l1.9-2.261q2.115-2.259,2.553-2.261.657,0,3.938,3.355t3.282,4.157a4.689,4.689,0,0,1-2.844.875,59.906,59.906,0,0,1-10.284,11.669l-.729-.51q1.677-6.272,2.771-12.909h-5.323v28.3q0,5.106-2.224,7.8t-8.789,3.282q-.218-4.742-1.677-6.491-2.117-2.26-6.929-3.063v-.949q8.1.512,9.773.511,1.531,0,1.532-1.386V668.846H648.175V671.4q-.074.584-2.406,1.677a10.241,10.241,0,0,1-4.3,1.094h-1.313v-3.136h-4.668v10.21h3.72l1.9-2.844q1.969-2.916,2.407-2.917.656,0,3.792,2.99t3.136,3.792q-.219,1.168-1.969,1.167H635.485v9.117q2.916-.51,15.17-2.7l.218,1.021q-13.273,6.564-30.7,13.273a2.539,2.539,0,0,1-1.969,1.9l-4.449-10.065q4.084-.51,14.222-2.188V683.432H623.89a30.531,30.531,0,0,0-7,1.021l-1.969-3.792q3.646.437,8.825.583h4.23v-10.21h-4.668v2.99q0,.657-1.969,1.568a9.459,9.459,0,0,1-4.011.912,1.56,1.56,0,0,1-1.6-1.532q.438-6.052.584-12.106v-6.929a100.136,100.136,0,0,0-.949-15.315l8.314,3.646h15.754l3.865-4.3,7.22,5.761-.438-1.459Zm-41.059,12.4V646.383h-4.668v10.284Zm-4.668,2.042v10.137h4.668V658.709Zm16.847-2.042V646.383h-4.668v10.284Zm-4.668,2.042v10.137h4.668V658.709Z" fill="#231815"/>
      </g>
    </g>
    <g id="Group_472" data-name="Group 472" transform="translate(1424.211 5447.92)">
      <path id="Path_6598" data-name="Path 6598" d="M762.928,668.4l1.677-1.9q1.75-1.9,2.261-1.9.727,0,3.61,2.479t2.881,3.282a3.846,3.846,0,0,1-2.7,1.313q-.219,11.814-.875,16.81t-2.625,6.746a10.368,10.368,0,0,1-6.418,1.824,7.239,7.239,0,0,0-.875-4.158,8.083,8.083,0,0,0-4.449-2.552V689.7a34.216,34.216,0,0,1-15.607,19.254l-.73-.729q9.043-9.916,10.576-26.036-7.076,6.054-16.629,12.908a3.084,3.084,0,0,1-1.823,2.116l-4.376-9.919q.51-.072,7.877-2.188V662.42h-2.188a7.549,7.549,0,0,0-3.428,1.021l-1.9-3.72a35.852,35.852,0,0,0,5.251.584H734.7v-4.887a100.272,100.272,0,0,0-.948-15.315q10.721,2.334,10.72,3.427c0,.2-.194.414-.583.657l-1.313.875v15.1l3.428-5.762q2.113,2.336,4.157,4.741a63.764,63.764,0,0,0-.438-8.095l9.335,3.792h13.274q-.293-9.627-.292-14.8l10.429,1.094a1.691,1.691,0,0,1-.51,1.24q8.1.147,9.772,4.011a3.468,3.468,0,0,1-.875,4.3,2.336,2.336,0,0,1-.875.656q2.625,2.043,5.178,4.449-.366,1.094-1.969,1.094H779.921a120.115,120.115,0,0,0,1.9,19.983,50.986,50.986,0,0,0,2.917-14.148q9.48,3.209,9.554,4.23,0,.364-.73.583l-1.385.438a89.549,89.549,0,0,1-7.877,18.6,36.165,36.165,0,0,0,4.668,9.043,1.956,1.956,0,0,0,.656.8.522.522,0,0,0,.584-.073,2.882,2.882,0,0,0,.656-.875q2.334-5.1,3.574-8.606l.8.146-1.6,12.69q2.914,7.074,1.021,8.387-2.481,1.823-5.8,0a14.041,14.041,0,0,1-5.214-4.813,48.629,48.629,0,0,1-4.668-9.117,54.4,54.4,0,0,1-19.472,14.3l-.656-1.094a56.39,56.39,0,0,0,17.94-19.473q-3.573-12.252-4.3-30.995H757.9V668.4ZM742.58,682.694q1.24-.363,7.293-2.333.291-4.158.292-9.263V662.42H742.58Zm12.909,6.71q3.79.293,5.324.291a1.46,1.46,0,0,0,1.167-.51q1.313-1.823,1.6-18.6H757.9v.51Q757.9,682.037,755.489,689.4Zm30.849-38.07a2.927,2.927,0,0,1-.875-.51,16.778,16.778,0,0,0-4.448-7.8l-1.094.219q-.147,7.657-.074,11.6h3.793Z" fill="#231815"/>
      <path id="Path_6599" data-name="Path 6599" d="M815.379,662.274l.875-.073a37.733,37.733,0,0,1,2.772,11.851,23.726,23.726,0,0,1-.912,8.971,16.764,16.764,0,0,1-3.318,5.725,6.117,6.117,0,0,1-4.522,2.333,4.112,4.112,0,0,1-3.866-2.042q-2.261-3.426,1.532-6.928,3.135-2.334,5.361-7.84A29.924,29.924,0,0,0,815.379,662.274Zm9.408,35.881V670.88a100.3,100.3,0,0,0-.948-15.316q11.085,2.479,11.086,3.574c0,.146-.171.341-.511.583l-1.167.875V695.53a1.876,1.876,0,0,0,.729,1.75,6.659,6.659,0,0,0,2.991.438h8.1q5.4,0,6.563-.146a2.7,2.7,0,0,0,2.334-1.24q.948-1.6,3.793-11.523h.729l.218,12.034a6.69,6.69,0,0,1,2.626,1.568,3.271,3.271,0,0,1,.73,2.224q0,3.208-3.756,4.595t-14.112,1.385h-8.679q-6.2,0-8.46-1.677T824.787,698.155Zm1.094-56.812.292-.876q16.335,1.023,21.806,7.95,3.063,3.939,1.459,7.585a4.395,4.395,0,0,1-4.157,2.917,5.279,5.279,0,0,1-3.063-.875,33.313,33.313,0,0,0-5.981-8.57A42.289,42.289,0,0,0,825.881,641.343Zm30.558,20.2q12.909,5.98,16.117,15.023,2.041,5.909-.583,10.138-1.968,3.208-4.814,2.625a5.439,5.439,0,0,1-3.281-2.406,45.382,45.382,0,0,0-1.714-13.018,28.642,28.642,0,0,0-6.309-11.779Z" fill="#231815"/>
      <path id="Path_6600" data-name="Path 6600" d="M895.107,685.9v6.929q.219,8.751.511,13.419a5.831,5.831,0,0,1-2.371,1.969,9.042,9.042,0,0,1-4.412,1.021,2.652,2.652,0,0,1-1.568-.438,1.244,1.244,0,0,1-.62-1.021q.656-9.552.8-19.472V656a100.3,100.3,0,0,0-.948-15.316l9.481,3.793h3.5l1.969-2.042c.145-.146.438-.462.875-.949a9.322,9.322,0,0,1,.984-.984,1.033,1.033,0,0,1,.62-.255q.657,0,4.048,3.355t3.391,4.156q-.729,1.023-3.136,1.022-6.054,11.668-9.553,16.336a23.39,23.39,0,0,1,7.438,8.241,20.175,20.175,0,0,1,2.48,9.408q0,5.47-2.3,8.278t-7.694,2.88q0-4.593-.949-6.272A4.7,4.7,0,0,0,895.107,685.9Zm5.032-39.309h-5.032v38.288h3.282a2.17,2.17,0,0,0,1.458-.438q1.313-.727,1.313-3.937a26.384,26.384,0,0,0-4.3-15.17Q898.68,657.023,900.139,646.594Zm11.669,44.05,1.094.072a21.381,21.381,0,0,1,.656,8.825,8.783,8.783,0,0,1-2.7,5.251,3.844,3.844,0,0,1-3.391.8,3.455,3.455,0,0,1-2.808-2.114q-1.167-3.354,2.333-5.325a10.262,10.262,0,0,0,3.246-3.245A8.246,8.246,0,0,0,911.808,690.644Zm26.692-44.2q-6.2.948-11.377,1.312,5.834,2.773,5.762,6.346a3.321,3.321,0,0,1-2.261,3.209q-2.625,1.167-4.74-1.386c-.05-.048-.1-.1-.146-.146a19.391,19.391,0,0,0-.875-7.876l-2.188.218a3.528,3.528,0,0,1-1.9.292,44.622,44.622,0,0,1-14,13.492l-.8-.729q1.094-1.677,2.188-3.719a47.911,47.911,0,0,0,3.135-7.585,39.725,39.725,0,0,0,1.824-7.658l8.241,3.865a82.6,82.6,0,0,0,17.284-6.782q7.074,5.031,7.148,5.98c0,.244-.244.341-.73.292l-1.458-.073q-1.824.366-4.887.875,9.627,1.679,12.106,6.856,1.533,3.063-.218,5.177-1.824,2.116-4.668.584a.914.914,0,0,1-.365-.219,22.078,22.078,0,0,0-3.026-6.162,35.58,35.58,0,0,0-4.7-5.726Zm-2.333,24.724,1.458-2.043q1.6-2.04,2.116-2.042.727,0,3.682,2.48t2.954,3.282a3.57,3.57,0,0,1-2.042,1.167v3.938h.146l1.313-1.969c.1-.146.218-.34.364-.583a5.115,5.115,0,0,1,.365-.548c.1-.12.206-.255.328-.4a1.462,1.462,0,0,1,.365-.328.645.645,0,0,1,.328-.109q.727,0,2.917,2.005t2.188,2.808q-.219,1.242-1.75,1.24h-6.564v2.479q.145,2.919.364,4.449-.291.657-2.588,1.568a11.2,11.2,0,0,1-4.048.912H936.75v-2.626H925.081a77.694,77.694,0,0,0-11.158,1.021l-2.042-3.792q4.083.438,9.919.583h14.95v-4.594H921.8a77.559,77.559,0,0,0-11.159,1.021l-1.969-3.72q4.083.438,9.919.584H936.75v-4.668h-11.6A77.567,77.567,0,0,0,914,674.307l-2.042-3.719q4.083.438,9.918.584Zm0-12.69,1.458-1.97c.1-.146.243-.339.438-.583a6.892,6.892,0,0,1,.474-.547l.4-.4a2.154,2.154,0,0,1,.4-.328.65.65,0,0,1,.328-.11q.729,0,3.246,2.042t2.516,2.844q-.219,1.242-1.823,1.24H933.323v4.814h7.365l1.678-2.334c.146-.194.315-.412.51-.656s.352-.449.474-.62.256-.34.4-.511a1.745,1.745,0,0,1,.4-.364.647.647,0,0,1,.328-.11q.727,0,3.537,2.334t2.807,3.136a1.787,1.787,0,0,1-1.968,1.24H922.383a77.563,77.563,0,0,0-11.159,1.021l-1.9-3.72q4.085.438,9.919.584h6.418v-4.814H921.8a28.925,28.925,0,0,0-6.71,1.022l-1.969-3.793q4.083.438,9.991.584Zm-11.742,32.234a30.225,30.225,0,0,0-2.407-2.114l.584-.584q9.116.147,11.814,4.522,1.6,2.625.073,4.6-1.531,2.041-4.375.875a27.677,27.677,0,0,0-5.106-6.71,2.383,2.383,0,0,1-1.969,1.313v8.022a.936.936,0,0,0,.365.875,4.2,4.2,0,0,0,1.75.219h5.47q4.156,0,4.813-.072,1.24,0,1.6-.584a11.94,11.94,0,0,0,2.334-4.522h.8l.219,4.595a4.472,4.472,0,0,1,1.9,1.13,2.5,2.5,0,0,1,.511,1.641q0,2.259-2.735,3.245t-10.174.985h-6.418q-4.594,0-5.944-1.2t-1.349-4.777v-6.126a44.771,44.771,0,0,0-.365-6.418Zm14.8.074.729-.511q9.261,2.773,11.45,8.387,1.313,3.429-.584,5.689-1.9,2.187-4.594.51a4.571,4.571,0,0,1-.875-.583,21.651,21.651,0,0,0-2.042-7.147A24.606,24.606,0,0,0,939.23,690.79Z" fill="#231815"/>
      <path id="Path_6601" data-name="Path 6601" d="M990.077,661.617q.874-13.637-.584-22.608l13.055,1.532a2.783,2.783,0,0,1-2.626,2.188q-.293,13.93-.729,18.888h16.117l2.553-3.354q2.552-3.427,3.063-3.428.729,0,4.923,3.464t4.193,4.267q-.365,1.241-2.114,1.239H999.776q4.6,24.87,30.923,35.955l-.146.8q-6.637,1.242-7.8,8.679-19.838-12.617-23.921-43.685a63.209,63.209,0,0,1-2.844,12.945,48.274,48.274,0,0,1-5.871,11.45,43.588,43.588,0,0,1-10.575,10.575,76.735,76.735,0,0,1-16.154,8.715l-.583-1.094a72.213,72.213,0,0,0,12.361-9.736,44.66,44.66,0,0,0,8.132-10.867,55.491,55.491,0,0,0,4.485-11.3,76.354,76.354,0,0,0,2.152-12.435h-14a77.566,77.566,0,0,0-11.158,1.021l-1.969-3.792q4.083.438,9.918.583Z" fill="#231815"/>
      <path id="Path_6602" data-name="Path 6602" d="M1096.278,660.815l2.115-3.063a8.82,8.82,0,0,1,.619-.875c.267-.34.475-.62.621-.839a5.821,5.821,0,0,1,.51-.656,4.986,4.986,0,0,1,.511-.511.637.637,0,0,1,.364-.182q.729,0,4.266,3.1t3.538,3.9q-.293,1.167-1.97,1.166h-43.028l-.146-.583h-7v20.347q1.239-.289,9.116-2.771l.219.729a208.627,208.627,0,0,1-19.473,14.441,2.693,2.693,0,0,1-1.823,2.042l-4.23-9.992q1.821-.364,8.1-2.115V662.274h-2.261a8.739,8.739,0,0,0-3.719,1.021l-1.9-3.72a38.072,38.072,0,0,0,5.4.584h2.48v-4.522a98.149,98.149,0,0,0-1.021-15.315q11.085,2.336,11.085,3.428,0,.291-.583.656l-1.385.948v14.659l3.5-6.126a87.311,87.311,0,0,1,5.907,6.928h10.284a5.246,5.246,0,0,1-2.334-1.531,23.669,23.669,0,0,0-2.188-9.19h-2.479a10.689,10.689,0,0,0-4.158,1.021l-1.969-3.792q4.085.438,9.918.584h6.856a61.312,61.312,0,0,0-.583-8.9q10.647,2.262,10.647,3.282,0,.293-.583.657l-1.312.8v4.157h7.8l1.823-2.991q2.042-2.916,2.48-2.917.728,0,4.047,3.063t3.319,3.865q-.293,1.168-2.042,1.167h-10.575q5.907,1.242,4.521,2.188l-.437.219-1.386.511a57.464,57.464,0,0,1-8.678,7.8Zm-2.261,6.856,1.75-2.188a12.278,12.278,0,0,0,.8-.985,7.792,7.792,0,0,1,.875-1.021.889.889,0,0,1,.583-.255q.729,0,4.3,2.771t3.574,3.574a5.077,5.077,0,0,1-2.991,1.677v5.4q.146,6.492.438,10.356a6.287,6.287,0,0,1-2.808,1.678,11.789,11.789,0,0,1-4.339.948h-1.459v-2.991h-.8v12.4a1.046,1.046,0,0,0,.292.875,2.5,2.5,0,0,0,1.312.219h6.273a1.749,1.749,0,0,0,1.312-.8q.291-.51,2.917-8.315h.73l.218,8.533a3.645,3.645,0,0,1,2.334,3.355,3.7,3.7,0,0,1-2.516,3.574q-2.516,1.094-8.861,1.094h-4.886q-4.45,0-5.725-1.386t-1.277-5.4V686.632h-2.989q-1.533,9.7-8.242,15.061t-19.618,7.621l-.292-.948q8.9-3.21,13.31-7.767a22.549,22.549,0,0,0,5.8-11.706,12.593,12.593,0,0,1-5.908,1.532h-1.239v-13.2a89.611,89.611,0,0,0-.8-13.492l9.481,3.938Zm-19.546-17.577a14.787,14.787,0,0,1,4.376,2.3,6.786,6.786,0,0,1,2.188,2.662,5.525,5.525,0,0,1,.4,2.516,3.454,3.454,0,0,1-.911,2.078,3.894,3.894,0,0,1-1.9,1.167h8.6a79.448,79.448,0,0,0,2.844-10.721Zm20.275,25.891v-6.272h-19.618v6.272Zm-19.618,2.188v6.271h19.618v-6.271Z" fill="#231815"/>
    </g>
  </g>
</svg>
