<svg xmlns="http://www.w3.org/2000/svg" width="395.887" height="187.209" viewBox="0 0 395.887 187.209">
  <g id="subtitle" transform="translate(-184.664 -518.576)">
    <g id="Group_346" data-name="Group 346">
      <path id="Path_533" data-name="Path 533" d="M342.6,536.386a8.9,8.9,0,1,1,8.9-8.9A8.916,8.916,0,0,1,342.6,536.386Zm0-14.611a5.706,5.706,0,1,0,5.707,5.706A5.715,5.715,0,0,0,342.6,521.775Z" fill="#231815"/>
      <g id="Group_36" data-name="Group 36">
        <path id="Path_534" data-name="Path 534" d="M193.334,539.056H186.8q1.787-7.931,6.841-12.2a17.913,17.913,0,0,1,11.938-4.27,19.728,19.728,0,0,1,9.346,2.288,16.933,16.933,0,0,1,6.71,6.166,15.3,15.3,0,0,1,2.375,8.1q0,8.278-8.235,13.115a18.689,18.689,0,0,1,7.581,5.49,17.539,17.539,0,0,1,4.183,11.415,20.367,20.367,0,0,1-2.875,10.392,19.951,19.951,0,0,1-7.844,7.647,22.878,22.878,0,0,1-11.11,2.7,20.4,20.4,0,0,1-13.812-4.771q-5.534-4.772-7.233-14.008h6.275q1.655,6.231,4.749,9.019a14.632,14.632,0,0,0,10.108,3.529q6.97,0,11.2-4.182a13.362,13.362,0,0,0,4.226-9.8,12.686,12.686,0,0,0-2.113-7.015,13.314,13.314,0,0,0-5.664-4.923q-3.552-1.656-11-2.048v-5.883a20.189,20.189,0,0,0,8.017-1.546,11.688,11.688,0,0,0,5.25-3.943,9.086,9.086,0,0,0,1.634-5.229,9.491,9.491,0,0,0-3.333-7.233,12.009,12.009,0,0,0-8.431-3.05,11.315,11.315,0,0,0-7.145,2.332Q195.425,533.479,193.334,539.056Z" fill="#231815"/>
        <path id="Path_535" data-name="Path 535" d="M262.853,522.585l5.271,3.442-17.331,26.228a20.563,20.563,0,0,1,6.54-1.174,17.341,17.341,0,0,1,12.962,5.512,18.784,18.784,0,0,1,5.324,13.573,19.66,19.66,0,0,1-2.573,10,18.771,18.771,0,0,1-7.306,7.1,20.605,20.605,0,0,1-10.185,2.636,19.583,19.583,0,0,1-9.794-2.549,18.263,18.263,0,0,1-7.087-7.168,19.992,19.992,0,0,1-2.574-9.89,23.935,23.935,0,0,1,1.592-8.256,51.587,51.587,0,0,1,5.7-10.436ZM255.814,556.7a13.474,13.474,0,1,0,9.537,3.943A13,13,0,0,0,255.814,556.7Z" fill="#231815"/>
        <path id="Path_536" data-name="Path 536" d="M281.48,556.266q0-12.678,2.724-19.607a22.756,22.756,0,0,1,7.69-10.5,18.584,18.584,0,0,1,11.111-3.573,19.023,19.023,0,0,1,11.285,3.595,23.881,23.881,0,0,1,7.995,10.784q2.941,7.19,2.941,19.3,0,12.07-2.9,19.215a23.781,23.781,0,0,1-8,10.784,19.056,19.056,0,0,1-11.328,3.638,18.537,18.537,0,0,1-11.067-3.529,22.83,22.83,0,0,1-7.69-10.522Q281.479,568.858,281.48,556.266Zm6.057.109q0,10.859,1.939,16.417a17.428,17.428,0,0,0,5.73,8.438,12.657,12.657,0,0,0,15.99.066,17.189,17.189,0,0,0,5.621-8.438,50.125,50.125,0,0,0,2.4-16.483q0-9.68-2.135-15.85t-5.9-9.027a12.588,12.588,0,0,0-15.968,0,17.566,17.566,0,0,0-5.708,8.416Q287.536,545.473,287.537,556.375Z" fill="#231815"/>
      </g>
      <g id="Group_37" data-name="Group 37">
        <path id="Path_537" data-name="Path 537" d="M390.611,528.707a60.827,60.827,0,0,1-14.732,16.773,81.556,81.556,0,0,1-20.785,12.18l-.437-.729a75.6,75.6,0,0,0,15.133-13.164,57.532,57.532,0,0,0,10.173-15.5h-4.01a32.53,32.53,0,0,0-7.148,1.021l-1.969-3.792q4.084.437,9.919.583h11.523l2.7-4.449,7.366,5.033q-1.312,1.6-6.053,1.823,4.01,5.178,12.763,9.991a74.256,74.256,0,0,0,18.378,7.147v.948a10.617,10.617,0,0,0-4.813,3.1,11.878,11.878,0,0,0-2.844,5.069,72.4,72.4,0,0,1-14.915-11.633A50.3,50.3,0,0,1,390.611,528.707Zm11.742,40.257,2.115-2.917q.219-.291.62-.839t.62-.838q.219-.291.511-.657a2.465,2.465,0,0,1,.51-.51.711.711,0,0,1,.365-.146q.728,0,4.23,2.99t3.5,3.792q-.218,1.241-1.9,1.24H392.8v15.972h14.878l2.261-3.136q2.259-3.135,2.771-3.136.729,0,4.449,3.172t3.719,3.975q-.291,1.165-1.968,1.167h-48.5a79.84,79.84,0,0,0-11.158,1.094l-1.97-3.793a97.13,97.13,0,0,0,9.919.657h16.847V571.079h-6.637a77.579,77.579,0,0,0-11.159,1.021l-1.968-3.719q4.083.437,9.918.583h9.846V554.67h-5.324a61.927,61.927,0,0,0-9.846,1.094l-1.9-3.866a96.558,96.558,0,0,0,9.918.657h20.713l1.969-2.7q.217-.289.584-.766c.242-.315.437-.571.582-.765s.3-.4.475-.62a2.168,2.168,0,0,1,.474-.474.707.707,0,0,1,.364-.146q.729,0,4.158,2.808t3.427,3.61q-.291,1.167-2.042,1.167H392.8v14.294Z" fill="#231815"/>
        <path id="Path_538" data-name="Path 538" d="M451.012,543.8l1.9-2.99q2.115-2.989,2.553-2.99.728,0,3.974,3.027t3.246,3.828q-.219,1.168-1.969,1.167h-9.7v25.744q.146,9.119.584,17.5a5.756,5.756,0,0,1-2.3,1.568,10.269,10.269,0,0,1-4.193.766,2.361,2.361,0,0,1-1.459-.438,1.26,1.26,0,0,1-.583-1.021q.728-10.94.875-19.472V545.845h-3.574a23.7,23.7,0,0,0-5.907,1.094l-1.969-3.719q4.083.437,9.918.583Zm-15.68,13.784a41.086,41.086,0,0,0-.291-5.4q7.292,2.117,7.292,3.209,0,.293-.583.656l-1.094.73v5.98q-.147,14.806-6.636,21.806l-.876-.8q2.188-6.636,2.188-21.15ZM448.97,527.9l1.97-2.844q.217-.291.583-.8t.583-.839c.146-.219.3-.438.474-.656a2.169,2.169,0,0,1,.474-.474.711.711,0,0,1,.365-.146q.727,0,4.011,2.953t3.282,3.757q-.219,1.167-1.9,1.166H447.439a80.561,80.561,0,0,0-11.231,1.094l-1.97-3.865q4.885.51,9.991.656Zm4.959,37.924a92.2,92.2,0,0,0-.8-13.784q8.1,2.117,8.1,3.209c0,.2-.2.414-.584.657l-1.167.729v5.834q.219,9.19.51,14.076a4.737,4.737,0,0,1-2.005,1.75,6.322,6.322,0,0,1-3.1.875q-1.386,0-1.385-1.458.289-2.989.437-7.439Zm32.381-38.58,1.824-2.188a6.487,6.487,0,0,0,.547-.656,6.424,6.424,0,0,1,.546-.657q.219-.218.475-.51a1.686,1.686,0,0,1,.474-.4.867.867,0,0,1,.365-.109q.728,0,4.229,2.844t3.5,3.647a5.128,5.128,0,0,1-3.063,1.677v35.444c-.049.146-.377.391-.984.73a13.118,13.118,0,0,1-2.407.984,11.27,11.27,0,0,1-2.735.548v12.325a1.456,1.456,0,0,0,.182.875c.121.146.426.219.912.219H493.6a1.27,1.27,0,0,0,1.094-.8,83.517,83.517,0,0,0,2.7-8.9h.8l.146,9.262a3.673,3.673,0,0,1,2.115,3.5q0,4.959-9.481,4.959H487.4q-4.011,0-5.141-1.422t-1.131-5.579V565.682h-1.969q-1.094,10.357-6.491,16.628t-16.7,9.408l-.292-.948q7.146-3.937,10.5-9.189a29.05,29.05,0,0,0,4.157-12.69,10.417,10.417,0,0,1-4.96,1.24h-1.167V538.625a100.3,100.3,0,0,0-.947-15.315l9.116,3.938Zm.8,11.815v-9.7h-15.1v9.7Zm-15.1,12.4h15.1v-10.21h-15.1Zm0,12.106h15.1v-9.991h-15.1Z" fill="#231815"/>
        <path id="Path_539" data-name="Path 539" d="M566.622,527.612l2.188-2.333a9.915,9.915,0,0,0,1.021-1.021,9.829,9.829,0,0,1,1.021-1.021,1.1,1.1,0,0,1,.656-.292q.657,0,4.084,3.464t3.428,4.267q-.656.8-2.917.875a71.427,71.427,0,0,1-12.18,7.512q3.647,3.137,2.845,6.782a3.722,3.722,0,0,1-2.991,3.136,5.144,5.144,0,0,1-3.354-.656,22.62,22.62,0,0,0-4.121-7,34.2,34.2,0,0,0-6.162-5.907l.583-.584a26.6,26.6,0,0,1,10.721,2.626,79.135,79.135,0,0,0,4.959-7.73H548.535a5.021,5.021,0,0,1-2.771,1.458v18.889h23.119l1.9-2.261q2.115-2.259,2.553-2.261.656,0,3.938,3.355t3.281,4.157a4.686,4.686,0,0,1-2.844.875,59.935,59.935,0,0,1-10.283,11.669l-.729-.51q1.677-6.271,2.771-12.909h-5.324v28.3q0,5.106-2.224,7.8t-8.789,3.282q-.218-4.742-1.677-6.491-2.115-2.26-6.928-3.063v-.949q8.1.512,9.772.511,1.531,0,1.532-1.386V552.19H545.764v2.553q-.073.584-2.407,1.677a10.237,10.237,0,0,1-4.3,1.094h-1.313v-3.136h-4.667v10.21h3.719l1.9-2.844q1.968-2.916,2.406-2.917.657,0,3.793,2.99t3.135,3.792q-.219,1.168-1.969,1.167H533.074v9.117q2.916-.51,15.169-2.7l.219,1.021q-13.275,6.564-30.7,13.273a2.537,2.537,0,0,1-1.969,1.9L511.34,579.32q4.084-.51,14.222-2.188V566.776h-4.084a30.524,30.524,0,0,0-7,1.021l-1.97-3.792q3.646.437,8.825.583h4.23v-10.21H520.9v2.99q0,.657-1.97,1.568a9.455,9.455,0,0,1-4.011.912,1.558,1.558,0,0,1-1.6-1.532q.437-6.052.583-12.106v-6.929a100.279,100.279,0,0,0-.948-15.315l8.314,3.646h15.753l3.865-4.3,7.22,5.761-.437-1.459Zm-41.06,12.4V529.728H520.9v10.283Zm-4.667,2.042V552.19h4.667V542.053Zm16.846-2.042V529.728h-4.667v10.283Zm-4.667,2.042V552.19h4.667V542.053Z" fill="#231815"/>
      </g>
    </g>
    <g id="Group_347" data-name="Group 347">
      <path id="Path_540" data-name="Path 540" d="M226.98,664.871l1.678-1.9q1.75-1.9,2.261-1.9.728,0,3.61,2.48t2.881,3.282a3.846,3.846,0,0,1-2.7,1.312q-.219,11.816-.875,16.811t-2.626,6.746a10.363,10.363,0,0,1-6.417,1.823,7.224,7.224,0,0,0-.876-4.157,8.07,8.07,0,0,0-4.448-2.552v-.657a34.226,34.226,0,0,1-15.607,19.254l-.73-.73q9.043-9.917,10.576-26.036-7.075,6.054-16.629,12.909a3.08,3.08,0,0,1-1.823,2.115l-4.376-9.919q.51-.072,7.877-2.187V658.89h-2.188a7.561,7.561,0,0,0-3.428,1.021l-1.9-3.719a36.017,36.017,0,0,0,5.251.583h2.261v-4.886a100.279,100.279,0,0,0-.948-15.315q10.72,2.334,10.72,3.427,0,.293-.583.657l-1.313.875v15.1l3.428-5.761q2.113,2.334,4.157,4.74a63.773,63.773,0,0,0-.438-8.095l9.335,3.793h13.274q-.293-9.627-.292-14.805l10.429,1.094a1.689,1.689,0,0,1-.51,1.239q8.1.147,9.772,4.012a3.466,3.466,0,0,1-.875,4.3,2.329,2.329,0,0,1-.875.657q2.625,2.042,5.178,4.448-.366,1.095-1.969,1.1H243.974a120.134,120.134,0,0,0,1.9,19.983,50.993,50.993,0,0,0,2.917-14.149q9.48,3.21,9.554,4.23,0,.366-.73.583l-1.385.438a89.607,89.607,0,0,1-7.877,18.6,36.172,36.172,0,0,0,4.668,9.044,1.963,1.963,0,0,0,.656.8.522.522,0,0,0,.584-.073,2.91,2.91,0,0,0,.656-.875q2.334-5.1,3.574-8.606l.8.146-1.6,12.69q2.914,7.072,1.021,8.386-2.481,1.822-5.8,0a14.034,14.034,0,0,1-5.214-4.813,48.6,48.6,0,0,1-4.668-9.116,54.4,54.4,0,0,1-19.472,14.294l-.657-1.094a56.381,56.381,0,0,0,17.941-19.472q-3.573-12.252-4.3-30.995H221.948v11.523Zm-20.347,14.294q1.239-.364,7.293-2.334.291-4.156.292-9.262V658.89h-7.585Zm12.909,6.709q3.79.292,5.324.292a1.46,1.46,0,0,0,1.167-.51q1.313-1.823,1.6-18.6h-5.689v.51Q221.948,678.509,219.542,685.874ZM250.391,647.8a2.915,2.915,0,0,1-.875-.511,16.778,16.778,0,0,0-4.449-7.8l-1.093.218q-.147,7.658-.074,11.6h3.793Z" fill="#231815"/>
      <path id="Path_541" data-name="Path 541" d="M279.432,658.744l.875-.073a37.764,37.764,0,0,1,2.772,11.852,23.722,23.722,0,0,1-.912,8.97,16.745,16.745,0,0,1-3.318,5.725,6.115,6.115,0,0,1-4.522,2.334,4.115,4.115,0,0,1-3.866-2.042q-2.26-3.428,1.532-6.928,3.135-2.334,5.361-7.841A29.921,29.921,0,0,0,279.432,658.744Zm9.408,35.882V667.35a100.277,100.277,0,0,0-.948-15.315q11.085,2.48,11.085,3.573,0,.219-.51.584l-1.167.875V692a1.875,1.875,0,0,0,.729,1.75,6.673,6.673,0,0,0,2.991.438h8.1q5.4,0,6.563-.147a2.7,2.7,0,0,0,2.334-1.239q.948-1.6,3.793-11.523h.729l.218,12.034a6.689,6.689,0,0,1,2.626,1.567,3.275,3.275,0,0,1,.729,2.225q0,3.208-3.755,4.594t-14.112,1.386h-8.679q-6.2,0-8.46-1.677T288.84,694.626Zm1.094-56.812.292-.876q16.335,1.023,21.806,7.95,3.063,3.938,1.459,7.584a4.395,4.395,0,0,1-4.158,2.918,5.277,5.277,0,0,1-3.063-.876,33.279,33.279,0,0,0-5.98-8.569A42.286,42.286,0,0,0,289.934,637.814Zm30.558,20.2Q333.4,664,336.609,673.039q2.041,5.907-.583,10.137-1.969,3.21-4.814,2.626a5.441,5.441,0,0,1-3.281-2.407,45.385,45.385,0,0,0-1.714-13.018,28.644,28.644,0,0,0-6.309-11.778Z" fill="#231815"/>
      <path id="Path_542" data-name="Path 542" d="M359.16,682.374V689.3q.219,8.753.51,13.419a5.813,5.813,0,0,1-2.37,1.969,9.032,9.032,0,0,1-4.412,1.021,2.647,2.647,0,0,1-1.568-.437,1.245,1.245,0,0,1-.62-1.021q.655-9.554.8-19.473V652.472a100.276,100.276,0,0,0-.948-15.315l9.481,3.792h3.5l1.969-2.042q.217-.219.875-.948a9.039,9.039,0,0,1,.984-.984,1.035,1.035,0,0,1,.62-.256q.657,0,4.048,3.355t3.391,4.157q-.73,1.023-3.136,1.021-6.054,11.67-9.554,16.337a23.375,23.375,0,0,1,7.439,8.241,20.171,20.171,0,0,1,2.48,9.408q0,5.469-2.3,8.278t-7.693,2.88q0-4.594-.949-6.272A4.693,4.693,0,0,0,359.16,682.374Zm5.032-39.31H359.16v38.289h3.281a2.177,2.177,0,0,0,1.459-.438q1.313-.727,1.313-3.938a26.382,26.382,0,0,0-4.3-15.169Q362.732,653.494,364.192,643.064Zm11.669,44.05,1.094.073a21.38,21.38,0,0,1,.656,8.825,8.782,8.782,0,0,1-2.7,5.251,3.846,3.846,0,0,1-3.392.8,3.456,3.456,0,0,1-2.807-2.115q-1.168-3.354,2.333-5.324a10.281,10.281,0,0,0,3.246-3.245A8.249,8.249,0,0,0,375.861,687.114Zm26.692-44.2q-6.2.949-11.377,1.313,5.834,2.773,5.762,6.345a3.319,3.319,0,0,1-2.261,3.209q-2.625,1.169-4.741-1.386c-.049-.047-.1-.1-.145-.146a19.393,19.393,0,0,0-.875-7.876l-2.189.219a3.532,3.532,0,0,1-1.9.292,44.654,44.654,0,0,1-14,13.492l-.8-.73q1.1-1.676,2.188-3.719a47.732,47.732,0,0,0,3.136-7.585,39.706,39.706,0,0,0,1.824-7.657l8.241,3.865a82.549,82.549,0,0,0,17.284-6.783q7.074,5.032,7.148,5.98c0,.245-.245.341-.73.292l-1.458-.073q-1.824.366-4.887.876,9.627,1.677,12.106,6.855,1.533,3.063-.218,5.178-1.824,2.116-4.668.583a.9.9,0,0,1-.365-.218,22.126,22.126,0,0,0-3.026-6.163,35.532,35.532,0,0,0-4.7-5.725Zm-2.333,24.724,1.458-2.042q1.6-2.041,2.115-2.042.729,0,3.683,2.48t2.954,3.281a3.564,3.564,0,0,1-2.042,1.167v3.938h.146l1.313-1.969c.1-.145.218-.339.364-.583a5.037,5.037,0,0,1,.365-.547c.1-.121.206-.255.328-.4a1.427,1.427,0,0,1,.365-.328.644.644,0,0,1,.328-.11q.728,0,2.917,2.006T416.7,675.3q-.219,1.242-1.75,1.241h-6.564v2.479q.145,2.918.364,4.449-.291.656-2.588,1.568a11.2,11.2,0,0,1-4.048.911H400.8v-2.625H389.134a77.4,77.4,0,0,0-11.158,1.021l-2.042-3.792q4.083.436,9.918.583H400.8V676.54H385.852a77.42,77.42,0,0,0-11.158,1.02l-1.969-3.719q4.083.438,9.919.583H400.8v-4.667h-11.6a77.418,77.418,0,0,0-11.158,1.021l-2.042-3.719q4.083.436,9.918.583Zm0-12.69,1.458-1.969c.1-.146.243-.34.438-.584a6.835,6.835,0,0,1,.474-.546c.12-.122.255-.256.4-.4a2.2,2.2,0,0,1,.4-.328.648.648,0,0,1,.328-.109q.729,0,3.246,2.042t2.516,2.844q-.219,1.242-1.823,1.24H397.376v4.813h7.365l1.678-2.333c.146-.194.315-.413.51-.657s.352-.449.474-.62.256-.34.4-.511a1.749,1.749,0,0,1,.4-.364.642.642,0,0,1,.328-.109q.728,0,3.537,2.333t2.807,3.137a1.787,1.787,0,0,1-1.968,1.239H386.435a77.579,77.579,0,0,0-11.158,1.021l-1.9-3.719q4.084.438,9.919.583h6.418V657.14h-3.866a28.921,28.921,0,0,0-6.709,1.021l-1.969-3.792q4.083.436,9.991.583Zm-11.742,32.235a30.215,30.215,0,0,0-2.407-2.115l.584-.583q9.115.147,11.814,4.521,1.6,2.626.073,4.595-1.531,2.043-4.375.875a27.7,27.7,0,0,0-5.106-6.71,2.379,2.379,0,0,1-1.969,1.313v8.023a.937.937,0,0,0,.365.875,4.216,4.216,0,0,0,1.75.219h5.47q4.156,0,4.813-.073,1.239,0,1.605-.584a11.94,11.94,0,0,0,2.334-4.522h.8l.219,4.6a4.472,4.472,0,0,1,1.9,1.131,2.5,2.5,0,0,1,.51,1.641q0,2.259-2.734,3.245t-10.174.985H387.53q-4.594,0-5.944-1.2t-1.349-4.777v-6.126a44.8,44.8,0,0,0-.365-6.418Zm14.8.073.729-.511q9.261,2.773,11.45,8.388,1.313,3.427-.584,5.688-1.9,2.188-4.594.511a4.581,4.581,0,0,1-.875-.584,21.664,21.664,0,0,0-2.042-7.147A24.648,24.648,0,0,0,403.283,687.26Z" fill="#231815"/>
      <path id="Path_543" data-name="Path 543" d="M454.129,658.088q.876-13.637-.583-22.609l13.055,1.532a2.784,2.784,0,0,1-2.626,2.188q-.293,13.931-.729,18.889h16.117l2.553-3.355q2.552-3.427,3.063-3.427.727,0,4.923,3.463t4.193,4.267q-.365,1.24-2.115,1.24H463.829q4.6,24.87,30.923,35.954l-.146.8q-6.637,1.24-7.8,8.678-19.838-12.615-23.921-43.685a63.193,63.193,0,0,1-2.844,12.945,48.275,48.275,0,0,1-5.871,11.45A43.576,43.576,0,0,1,443.591,697a76.69,76.69,0,0,1-16.154,8.714l-.583-1.093a72.213,72.213,0,0,0,12.361-9.737,44.655,44.655,0,0,0,8.132-10.866,55.522,55.522,0,0,0,4.485-11.3,76.342,76.342,0,0,0,2.152-12.434h-14a77.554,77.554,0,0,0-11.158,1.021l-1.969-3.793q4.083.438,9.918.584Z" fill="#231815"/>
      <path id="Path_544" data-name="Path 544" d="M560.331,657.286l2.115-3.063a8.69,8.69,0,0,1,.619-.875c.267-.34.475-.62.62-.839a5.867,5.867,0,0,1,.511-.656,4.878,4.878,0,0,1,.511-.511.631.631,0,0,1,.364-.182q.729,0,4.266,3.1t3.537,3.9q-.291,1.167-1.969,1.167H527.877l-.147-.584h-7v20.348q1.241-.291,9.117-2.771l.219.729a208.644,208.644,0,0,1-19.473,14.44,2.693,2.693,0,0,1-1.823,2.042l-4.23-9.991q1.821-.365,8.095-2.115V658.744h-2.261a8.734,8.734,0,0,0-3.719,1.021l-1.9-3.719a38.093,38.093,0,0,0,5.4.583h2.48v-4.521a98.273,98.273,0,0,0-1.021-15.316q11.085,2.336,11.085,3.428,0,.293-.583.656l-1.386.949v14.658l3.5-6.126a87.288,87.288,0,0,1,5.907,6.929H540.42a5.252,5.252,0,0,1-2.333-1.532,23.687,23.687,0,0,0-2.188-9.189h-2.48a10.689,10.689,0,0,0-4.157,1.021l-1.969-3.793q4.084.438,9.918.584h6.856a61.3,61.3,0,0,0-.583-8.9q10.647,2.262,10.647,3.282,0,.293-.583.657l-1.313.8v4.157h7.8l1.823-2.99q2.042-2.916,2.48-2.917.728,0,4.047,3.063t3.319,3.865q-.293,1.167-2.042,1.167H559.091q5.907,1.241,4.521,2.188l-.437.219-1.386.51a57.431,57.431,0,0,1-8.679,7.8Zm-2.261,6.855,1.75-2.188a12.264,12.264,0,0,0,.8-.984,7.715,7.715,0,0,1,.875-1.021.888.888,0,0,1,.583-.256q.727,0,4.3,2.772t3.574,3.574a5.077,5.077,0,0,1-2.991,1.677v5.4q.146,6.491.438,10.356a6.28,6.28,0,0,1-2.808,1.677,11.77,11.77,0,0,1-4.339.948H558.8V683.1H558v12.4a1.046,1.046,0,0,0,.292.875,2.491,2.491,0,0,0,1.312.219h6.272a1.746,1.746,0,0,0,1.313-.8q.291-.509,2.917-8.314h.73l.218,8.533a3.644,3.644,0,0,1,2.334,3.355,3.7,3.7,0,0,1-2.516,3.573q-2.517,1.094-8.861,1.094h-4.886q-4.45,0-5.726-1.386t-1.276-5.4V683.1h-2.99q-1.531,9.7-8.241,15.06t-19.619,7.622l-.291-.949q8.9-3.21,13.31-7.767a22.548,22.548,0,0,0,5.8-11.7,12.591,12.591,0,0,1-5.908,1.531H530.94V673.7a89.637,89.637,0,0,0-.8-13.492l9.481,3.938Zm-19.546-17.576a14.766,14.766,0,0,1,4.376,2.3,6.8,6.8,0,0,1,2.188,2.662,5.527,5.527,0,0,1,.4,2.517,3.454,3.454,0,0,1-.911,2.078,3.9,3.9,0,0,1-1.9,1.167h8.6a79.49,79.49,0,0,0,2.844-10.721Zm20.275,25.89v-6.272H539.181v6.272Zm-19.618,2.188v6.272H558.8v-6.272Z" fill="#231815"/>
    </g>
  </g>
</svg>
