<svg xmlns="http://www.w3.org/2000/svg" width="524.5" height="80.5" viewBox="0 0 524.5 80.5">
  <g id="theme2_desc" transform="translate(-799.5 -1558.1)">
    <g id="Group_540" data-name="Group 540">
      <g id="Group_539" data-name="Group 539">
        <path id="Path_5359" data-name="Path 5359" d="M1099.5,1637.5v-62.1h-.1l-9.7,6.9-2.9-13.1,14.5-9.9h11.1v78.2Z" fill="#ef8200"/>
        <path id="Path_5360" data-name="Path 5360" d="M1158.1,1637.5h-36v-11.3l6.5-9.8c9.7-14.1,15.6-23.2,15.6-32.7,0-6-2.6-10.9-8-10.9-3.8,0-7.5,2.7-10.1,5.2l-3.4-13.2a24.07,24.07,0,0,1,16.1-6.7c12.7,0,18.4,10.8,18.4,23.9,0,13.7-6.5,24.4-13.4,33.8l-4.8,6.3v.2h19.1v15.2Z" fill="#ef8200"/>
        <path id="Path_5361" data-name="Path 5361" d="M1164.5,1630.4c0-4.5,3.2-7.8,7.3-7.8,4.2,0,7.3,3.1,7.3,7.8s-3,7.8-7.3,7.8C1167.4,1638.3,1164.5,1635,1164.5,1630.4Z" fill="#ef8200"/>
        <path id="Path_5362" data-name="Path 5362" d="M1191.3,1596.6c-5-4-7.6-10.5-7.6-16.9,0-13.3,8-21.6,18.2-21.6,11.3,0,17.1,9.6,17.1,19.9,0,6-2.4,12.9-7.9,17.2v.2c5.1,3.3,9.7,9.9,9.7,19.6,0,14.6-8.2,23.6-19.7,23.6-12.4,0-19-10-19-21.7,0-9.4,3.9-16.1,9.3-20.1v-.2Zm16.4,19.8c0-6.7-3.3-11.5-7.3-13.4-3.3,2-5.4,6.8-5.4,12.3,0,5.8,2.4,11.2,6.4,11.2C1205.6,1626.6,1207.7,1621.5,1207.7,1616.4Zm-11.8-37.4a12.42,12.42,0,0,0,6.4,11.1c2.4-1.2,4.6-6,4.6-10.4,0-4.7-1.4-9.7-5.4-9.7C1196.9,1570,1195.9,1575.2,1195.9,1579Z" fill="#ef8200"/>
      </g>
    </g>
    <g id="Group_542" data-name="Group 542">
      <g id="Group_541" data-name="Group 541">
        <path id="Path_5363" data-name="Path 5363" d="M901.6,1637.1l-4.1-8H909l.1-46.2h-15l-2.3,6.6h4.4l9.2,17.5H889.2l-7.6-14h-6.1l1-2.9h-3.2l-.1,33.4,5.2-1.3v7.1l10.3-19.6h16.1l-12.6,24.4H876l2.1-4.1-25.1,6.1v-7.5l5.7-1.4.1-37.1h-5.3v-7.8h5.3V1567h14.6v15.3h4.1v5.2l7.1-20.5h14.9l-2.7,8h27.4l-.1,62.1Z"/>
        <path id="Path_5364" data-name="Path 5364" d="M929.7,1604.9v-8.2l71.4.1v8.2Z"/>
        <path id="Path_5365" data-name="Path 5365" d="M1021.5,1594.7h1.6l-.1,42.4h-13.9l.1-38.2h-3.1l5.6-31.9H1026Zm19.5,42.4h-16.9l8.2-7.8h16.9Zm23.6-62.4v2.9h12.1v18.5l-50.2-.1v-18.5h12.1v-2.9h-12v-6.8l51.6.1v6.8Zm-36.6,52.4V1599l47.2.1v28.1Zm10.6-43.2h-3.4v5.9h3.4Zm22.8,35.1h-19.5v2.5h19.5Zm0-7.2h-19.5v2.5h19.5Zm0-7h-19.5v2.3h19.5Zm-8.2-20.9h-3.4v5.9h3.4Zm0-9.2h-3.4v2.9h3.4Zm9.2,62.5-8.8-7.8h16.9l8.7,7.8Zm5.6-53.3h-3.4v5.9h3.4Z"/>
      </g>
    </g>
    <g id="Group_544" data-name="Group 544">
      <g id="Group_543" data-name="Group 543">
        <path id="Path_5366" data-name="Path 5366" d="M1288.6,1579.1v3.7h9.4v26h-24v4h26.2v24h-16.8l-1-1.9h-5.1l-.5-3.5-26.2,2V1626l8.6-.7v-5.7h-10.8v17.1h-14.8v-17.1h-2.4v-6.9h2.4v-2.3h14.8v2.3h10.8v-4h-24v-26h9V1579h-13v-7.7h13v-4.4h15v4.4h14.4v-4.4l14.9-.1v4.5h12.9v7.7Zm-29.4,19.3h-9.1v3.3h9.1Zm0-8.9h-9.1v3.2h9.1Zm14.5-10.4h-14.4v3.7h14.4Zm11.4,40.5H1274v4.6l2.2-.1-.2-2.8h7l.7,7.8h1.5Zm-2.1-21.2h-9v3.3h9Zm0-8.8h-9v3.2h9Z"/>
      </g>
    </g>
    <g id="Group_545" data-name="Group 545">
      <path id="Path_5367" data-name="Path 5367" d="M833.4,1580.1v1.6H822.5v5.2h12.6v3.9H822.5v5.7h14.1v3.9H800.4v-3.9h14v-5.7H801.9v-3.9h12.5v-5.2H803.5v-1.6h-4l8.1-10.2h-4.3v-4H827l10.6,14.2Zm-12.7-10.3H817l-6.3,8h15.9Z"/>
      <path id="Path_5368" data-name="Path 5368" d="M802.7,1635.8H800l.4-22h2.7Zm7.9-23.9v26.2H804v-26.2h-4v-3.8h4v-4.9h6.6v4.9h4.1v3.8Zm10,26.1h-5.9l.4-2.3h-3l-.5-21.9h2.7l.8,21.5,1.2-6.9h5.9Zm8.8-28.4v2.1h6.7v15.5h-6.7v10.9h-6.7v-10.9H816v-15.5h6.7v-2.1h-7.4v-3.7h7.4v-2.8h6.7v2.8h7.5v3.7Zm-6.7,5.6h-2.2v2.5h2.2Zm0,5.8h-2.2v2.5h2.2Zm8.9-5.8h-2.2v2.5h2.2Zm0,5.8h-2.2v2.5h2.2Zm-.1,17-1.6-9.6h6l1.6,9.6Z"/>
    </g>
    <g id="Group_547" data-name="Group 547">
      <g id="Group_546" data-name="Group 546">
        <path id="Path_5369" data-name="Path 5369" d="M1312.1,1568.3a9.324,9.324,0,0,1,5.6-1.6,9.8,9.8,0,0,1,5.6,1.6v1.3a10.51,10.51,0,0,0-5.7-1.5,10.394,10.394,0,0,0-5.6,1.5v-1.3Z"/>
        <path id="Path_5370" data-name="Path 5370" d="M1315.7,1575.8l1,.5c0,.1-.1.1-.1.2-.3,1-.7,2.3-1.1,3.3a3.656,3.656,0,0,1,1.1,2.4c0,2-1.2,2-2.2,2a3.078,3.078,0,0,0-.3-1.3h.6c.5,0,.6-.5.6-.9a3.33,3.33,0,0,0-1-2.1c.3-.8.5-1.9.8-2.8H1314v9.7h-1.4v-11h3.1Zm4.8,5.8a5.025,5.025,0,0,0,.5,1.3,11.986,11.986,0,0,0,1.1-1.2l1.3,1c0,.1-.2.1-.3.1a8.7,8.7,0,0,1-1.4,1.2,4.944,4.944,0,0,0,1.9,1.6,10.592,10.592,0,0,0-1,1.2c-1.8-1-2.8-2.8-3.3-5.2h-.9v3.2c.6-.1,1.2-.2,1.7-.3l.1,1.3c-1.4.3-2.9.7-3.8.9a.215.215,0,0,1-.2.2l-.5-1.6c.4-.1.8-.1,1.3-.2V1576h5.7v5.7h-2.2Zm.7-4.5h-2.8v1h2.8Zm-2.8,2.2v1h2.8v-1Z"/>
        <path id="Path_5371" data-name="Path 5371" d="M1318.8,1596.8v1.8c.4,0,.9.1,1.4.1h3.5a3.806,3.806,0,0,0-.5,1.5h-3.1c-2.3,0-4-.4-5.1-2.1a5.149,5.149,0,0,1-1.7,2.3,10.951,10.951,0,0,0-1.1-1c1.3-.9,1.9-2.7,2.1-4.8l1.8.3c0,.1-.1.2-.3.2-.1.4-.1.8-.2,1.2a3.818,3.818,0,0,0,1.7,2V1594h-2.5v-1.4h6.5v1.4h-2.5v1.5h3.4v1.4h-3.4Zm-4.5-5.4v1.7h-1.4V1590h4.4v-1.3l1.9.1c0,.1-.1.2-.3.2v1h4.4v3.1h-1.5v-1.7h-7.5Z"/>
        <path id="Path_5372" data-name="Path 5372" d="M1315.3,1606.5c.3.5,1.3,1.9,1.5,2.3l-.8,1.1c-.2-.4-.4-1-.7-1.5v5.2h-1.4V1609a7.281,7.281,0,0,1-1.2,2.5,5.389,5.389,0,0,0-.7-1.3,12.643,12.643,0,0,0,1.7-4.1h-1.4v-1.4h1.5v-2.5l1.7.1c0,.1-.1.2-.3.2v2.2h1.3v1.4h-1.3v.4Zm8,3h-1.8a11.432,11.432,0,0,0,2.4,2.5,5.239,5.239,0,0,0-1,1.1,10.444,10.444,0,0,1-2-2.5v2.9h-1.4v-2.7a9.121,9.121,0,0,1-2.4,2.4,3.564,3.564,0,0,0-1-1.1,8.3,8.3,0,0,0,2.8-2.5h-1.7v-4.3h2.3v-.7h-2.7v-1.2h2.7v-1.3l1.7.1c0,.1-.1.2-.3.2v1h2.8v1.2h-2.8v.7h2.4Zm-4.9-3.3v.6h1v-.6Zm0,1.6v.6h1v-.6Zm3.5-1.6h-1.1v.6h1.1Zm0,2.3v-.6h-1.1v.6Z"/>
        <path id="Path_5373" data-name="Path 5373" d="M1317.1,1621h.3l.8.1v.4c-.1,3-.2,4.1-.6,4.6-.4.4-.7.5-1.8.5h-.6a3.258,3.258,0,0,0-.4-1.3h1.3a.368.368,0,0,0,.3-.1c.2-.2.3-1,.4-2.9h-1.4a7.048,7.048,0,0,1-2.1,4.2,3.176,3.176,0,0,0-1-1c1.6-1.4,1.8-3.7,2-5.6h-1.2v-4.3h5.1v4.3h-2.4c0,.4-.1.7-.1,1.1h1.4Zm-2.7-4.1v1.7h2.3v-1.7Zm6.4-.3c0,.1-.1.2-.3.2v6.6h-1.4v-6.9Zm1.1-1.3,1.8.1c0,.1-.1.2-.3.2v9.2c0,1.5-.5,1.8-3.1,1.8a8.8,8.8,0,0,0-.5-1.5h1.9a.265.265,0,0,0,.3-.3v-9.5Z"/>
        <path id="Path_5374" data-name="Path 5374" d="M1323.9,1633.9a9.324,9.324,0,0,1-5.6,1.6,10.078,10.078,0,0,1-5.6-1.6v-1.3a10.78,10.78,0,0,0,5.7,1.5,10.394,10.394,0,0,0,5.6-1.5v1.3Z"/>
      </g>
    </g>
  </g>
</svg>
