<svg xmlns="http://www.w3.org/2000/svg" width="523.801" height="58.318" viewBox="0 0 523.801 58.318">
  <g id="theme2_title" transform="translate(-805.499 -1173.996)">
    <path id="Path_5233" data-name="Path 5233" d="M819.9,1186.2c.5,0,.7.5.7,1.5s-1.1,2.9-3.3,5.5c-.9.9-1.4,1.6-1.4,2.1q.45,1.65,1.2,6.6c.5,4.5.8,10,.9,16.4.2,5.5-.4,8-1.6,7.7q-2.1.75-3-.9c-.5,0-.7-2.4-.7-7.3-.2-4.4-.3-8.4-.5-12.2s-.2-5.9-.2-6.6l-.2-.9-1.2.9a7.62,7.62,0,0,1-2.5.9,1.189,1.189,0,0,1-1.5-.7c-2-1.2-1.3-3,2.3-5.2,1.6-1.2,3.5-3,5.9-5.2C817.7,1185.8,819.4,1184.8,819.9,1186.2Zm23-10.8a1.969,1.969,0,0,1,.2,2.1c-.3.8-1.5,1.2-3.5,1.2-2.5,0-3.6.5-3.3,1.4v1.4c-.5.3.5.5,3,.5s3.9.3,4.2.9c.9.2,1.4,2.8,1.4,8l.2,5.6,2.6.2q4.5,0,5.4,2.1c.3.2.4,1.6.1,4.2-.2,2.7-.7,4.1-1.4,4.5a3.3,3.3,0,0,1-2.2.2q-1.2-.3-.9-4.2l-.2-2.3h-6.8c-4.7-.2-8.8-.2-12.2,0l-5.4.2.2.7c0,.6.1,1.5.2,2.6,0,2-.5,3.2-1.4,3.5q-.75.45-1.2,0c-.9-.5-1.3-2-1.2-4.7-.3-3.4.8-5.3,3.3-5.6a4.043,4.043,0,0,0,1.5-1.3,15.162,15.162,0,0,0,.6-3.6c0-6.6.6-9.8,1.9-9.8.2-.3.6-.5,1.4-.6a14.162,14.162,0,0,1,1.9-.1,3.957,3.957,0,0,0,.9-2.6v-.9l-2.1-.2c-3.8-.3-5.7-.9-6-1.9-.2-.9,0-1.6.8-1.9s3.8-.4,9.1-.2h8.2Zm-13.6,29.8c.9-.2,1.4,1.2,1.4,4.1s-.3,4.4-.8,4.6a1.467,1.467,0,0,1-1.3,0c-.9-.2-1.3-1.8-1.2-4.9-.2-2.5,0-3.8.5-3.8C828,1204.7,828.5,1204.7,829.3,1205.2Zm7.2,9.6.9.9c0,.6.2.9.7.7a9.466,9.466,0,0,1,2.8-.2c2.3-.5,3.7-.1,4,1.2a5.122,5.122,0,0,1-.5,3.8c-.3.8-.5,1.3-.6,1.6s.2.5.8.7a2.632,2.632,0,0,1,2.1,2.6,3.4,3.4,0,0,1-.8,1.9c-.5.6-1.8.5-3.9-.2a8.3,8.3,0,0,0-2.6-.7,8.6,8.6,0,0,0-3,1.4q-6.15,3-6.9.9c-.5-1.4.9-2.8,4.3-4.2a5.842,5.842,0,0,0,1.5-1.2c.1-.2-.1-.3-.6-.5l-.5-.5-1.2.7a2.235,2.235,0,0,1-2.8-.2c-1.4-.2-.5-2.2,2.8-6.1a12.568,12.568,0,0,1,2.2-2.9A1.516,1.516,0,0,1,836.5,1214.8Zm-6.5-28.1c-.9.9.7,1.4,5,1.4s6.2-.4,5.7-1.2v-.7h-5.4C831,1186.2,829.2,1186.4,830,1186.7Zm.2,4.7v.9h8.2l2.1-.2v-1.8H830Zm0,3.7c-.2.8.5,1.3,2.1,1.6a21.444,21.444,0,0,1,4.1-.4c2.1-.1,3.5-.1,4.1-.1a1.258,1.258,0,0,0,0-1.2c-.2-.3-1.9-.5-5.2-.5l-5.2-.2v.8Zm6.1,10.3a3.82,3.82,0,0,1,0,2.2c-.2,1.2-.1,1.8.1,2s.8.2,1.8,0c2.2-.5,3.8-.5,4.7,0q1.2,2.1-2.1,3a14.984,14.984,0,0,1-5.6.7c-1.6-.2-2.2-1.3-1.9-3.5-.3-2.7-.1-4.2.7-4.7C835,1204.3,835.8,1204.4,836.3,1205.4Zm1.6,14.3a.472.472,0,0,0-.5.5,5.535,5.535,0,0,0,1.9,2.1,4.149,4.149,0,0,0,2.1-2.6A6.675,6.675,0,0,0,837.9,1219.7Zm2.4-16.1c.3,0,.5.7.5,2.1a5.03,5.03,0,0,1-.5,2.7,1.093,1.093,0,0,1-1.2.4c-.9-.3-1.3-1.1-1.2-2.3C837.9,1203.6,838.7,1202.6,840.3,1203.6Zm5.4,0c1.6,2.5,1.6,4.1,0,4.9-2.3-.9-3-2.6-1.9-4.9C844.4,1202.8,845,1202.8,845.7,1203.6Z" fill="#ef8200"/>
    <path id="Path_5234" data-name="Path 5234" d="M877.1,1176.4a12.545,12.545,0,0,0,.7,2.3l.5,1.9h4.2a20.933,20.933,0,0,1,5.2,0q2.1.3,2.1,2.1c.6,1.7-1.3,2.6-5.9,2.6a30.828,30.828,0,0,0-4.2.2l-1.2.2v1.2c-1.1,1.1.2,1.7,3.8,1.9,2.8,0,4.5.6,4.9,1.9a30.529,30.529,0,0,1,.7,10.5c0,2.3-2,3.6-5.9,3.8-2.2,0-3.4.1-3.6.4a1.348,1.348,0,0,0-.1,1.3v1.2l3-.2h3l.9-1.2c.6-.8,1.1-1.1,1.4-.9,1.4.6,2.2,2.8,2.3,6.6,0,1.6-.2,2.5-.7,2.8q-2.4,1.35-3-1.2c-.2-.5-.3-.7-.5-.7-.8-.2-3.6-.3-8.4-.5-8.6,0-12-.6-10.3-1.9q-.45-1.65,4.2-2.1,2.4-.75,3-.9c0-.2.1-.6.2-1.4v-1.2l-2.1.2c-3.4.3-5.3.2-5.6-.5-.3.3-.4-1.8-.2-6.3v-7c0-1.6,1.9-2.4,5.6-2.6a16.726,16.726,0,0,0,2.6-.6c.2-.1.3-.5.4-1.3s-.1-1.1-.6-.9a18.9,18.9,0,0,0-5.4-.5c-3.9-.2-5.8-.4-5.6-.7-.9-.9-1.2-1.8-.7-2.5s3-1.1,7.5-1.1c4.1-.2,5.8-.8,5.2-1.9C874.7,1176.6,875.5,1175.6,877.1,1176.4Zm-9.9,41.7c.5,0,.6,1.1.5,3.3-.3,3.9-1.1,6.6-2.3,8.2q-2.4,1.35-3.3-1.2a28.883,28.883,0,0,1,.7-4.5c.5-2.3.9-4,1.2-4.9s.5-1.5.7-1.6A2.225,2.225,0,0,1,867.2,1218.1Zm2.4-18.7c-.3,1.1-.2,1.8.5,2.1,1.1-.2,2.2-.4,3.3-.7.5-.5.7-.8.7-.9.2-.6-.4-.9-1.6-.9C870.4,1198.4,869.4,1198.6,869.6,1199.4Zm.2-6.4v2.4l.7-.2a6.192,6.192,0,0,1,2.1-.2H874v-2.1h-2.1A5.757,5.757,0,0,0,869.8,1193Zm6.1,24.9q.45.45,1.2,4.5c-.9,3.1,1.3,4.5,6.8,4.2a35.883,35.883,0,0,1,5.4.2c.2.2.2.7.2,1.5a2.022,2.022,0,0,1-.7,1.8c-.9.6-3.2.9-6.8.9-5.6,0-8.6-1.5-8.9-4.5a20.293,20.293,0,0,1,.2-6.6,1.6,1.6,0,0,1,.9-1.6C874.7,1217.6,875.3,1217.4,875.9,1217.9Zm3.1-25.3c-.6,0-.8.4-.5,1.2v.7h4.9v-.7c0-.5-.1-.7-.2-.7A5.662,5.662,0,0,0,879,1192.6Zm1.8,6.3q-2.85,0-2.1,1.2v.9l2.1-.2c1.9,0,2.8-.5,2.8-1.4C884.1,1198.6,883.2,1198.4,880.8,1198.9Zm1.9,20.8c1.6,3.8,1.1,5.5-1.4,5.4-.9-.5-1.6-1.7-2.1-3.8-.5-2-.1-3.2,1.2-3.5C881.1,1217.1,881.9,1217.7,882.7,1219.7Zm10.3-.4a5.847,5.847,0,0,1,2.1,4c-.2,1.9-1.1,2.7-2.8,2.3-.9-.5-1.7-1.7-2.2-3.8-.5-2-.4-3.2.4-3.5C890.9,1217.6,891.8,1217.9,893,1219.3Z" fill="#ef8200"/>
    <path id="Path_5235" data-name="Path 5235" d="M906.8,1199.4c.6.5,2,1.4,4.2,2.8,3.1,1.9,4.5,3.3,4.1,4.2a5.5,5.5,0,0,1-2,2.3c-.6.2-1.9-.5-3.8-1.9-3.1-2-5-3.7-5.6-4.9-.6-1.9-.2-3,1.2-3.5A2.934,2.934,0,0,1,906.8,1199.4Zm-.4-14.8c.3.2,1,.7,2.1,1.6a22.919,22.919,0,0,0,3.8,2.6c2.5,1.4,3.4,2.8,2.6,4.2-.9,1.9-3,1.6-6.3-.7q-6.6-4.95-4.2-7.5C904.7,1184,905.4,1184,906.4,1184.6Zm1.6,28.3c4.4,2.3,6.7,4.2,7,5.6.2.5,0,.9-.6,1.4a2.41,2.41,0,0,1-1.8.7c-2-.2-4.5-1.5-7.3-4-1.9-2-2.1-3.5-.7-4.5C904.9,1211.6,906,1211.9,908,1212.9Zm20.6-33c.5.2.5,1,.2,2.6s.1,2.2,1.3,1.9a62.912,62.912,0,0,1,8.8-.7c4.7-.2,7.7-.1,8.9.2,2.5.8,3,2.2,1.6,4.2a3.737,3.737,0,0,1-2.3.9c-1.7,0-4.5-.1-8.4-.2-4.4,0-7.3-.1-8.9-.2h-2.1l-.9,3c-1.4,3.9-2.5,5.6-3.3,5.2-1.4,0-2.1-.8-2-2.3a41.242,41.242,0,0,1,1.8-7.9c1.1-3.7,2-6,2.8-6.9C926.8,1178.7,927.7,1178.8,928.6,1179.9Zm17.2,15c3.9.6,5,3.8,3.3,9.4a15.386,15.386,0,0,0-.5,2.6c2.2.3,3.6,1.1,4.2,2.3a2.2,2.2,0,0,1,0,1.6c-.3,1.3-1.4,1.8-3.3,1.6-1.4-.3-2.1-.2-2.1.2a10.975,10.975,0,0,0-1.6,4.7l1.4.5c2.3.3,3.4,1.3,3,2.8-.3,1.1-1.6,1.6-4,1.6l-1.9-.2-.7.9a23.2,23.2,0,0,0-2.1,2.6c-1.3,1.9-2.3,2.5-3.3,2-.9-.5-1.2-1.6-.7-3.2q.3-1.35,0-1.5a26.272,26.272,0,0,0-3.3-.4c-6.3-.5-9.1-1.3-8.7-2.6-.3-1.7,0-4.1.9-7.3.5-1.9.7-2.8.7-2.9s-.2-.1-.5-.1c-1.4-.2-2.3-.5-2.7-1.1a2.23,2.23,0,0,1-.4-1.8c.2-.6,1.2-1.1,3.3-1.4a3.207,3.207,0,0,0,1.5-.9,9.573,9.573,0,0,0,.8-2.2c.3-1.2.5-2,.7-2.6a6.9,6.9,0,0,1,.7-1.5,7.471,7.471,0,0,1,1.2-1.4,3.3,3.3,0,0,1,2-2,16.778,16.778,0,0,1,5.5-.6A30.747,30.747,0,0,1,945.8,1194.9Zm-13.9,16.6c-.6,2.3-1,4.1-1.2,5.2-.6.2.8.2,4.2.2s5.1-.1,4.9-.2a16.651,16.651,0,0,0,1.6-4c.2-.6-.2-.9-.9-.9a18.427,18.427,0,0,0-4.5-1.1,28.339,28.339,0,0,0-3.4-.4A2.028,2.028,0,0,0,931.9,1211.5Zm3.3-12.1a15.113,15.113,0,0,0-1.4,5.2q-.9.9,2.1,1.2l1.6.2-.5-.7c-.8-1.4-.5-2.8.7-4.2s2.2-1.1,2.8.9a6.068,6.068,0,0,1-.9,3c-.5.5-.6.7-.4.8s1,.4,2.2.8c1.2.5,2.3-.9,3-4,1.7-3.1.2-4.3-4.7-3.5Q934.3,1198.65,935.2,1199.4Zm1.9,12.6a2.887,2.887,0,0,1-.5,3.5,1.607,1.607,0,0,1-2.3-.2c-.8-.8-.8-1.6,0-2.6C935.2,1211.3,936.1,1211.1,937.1,1212Z" fill="#ef8200"/>
    <path id="Path_5236" data-name="Path 5236" d="M965.4,1199.4c.6.5,2,1.4,4.2,2.8,3.1,1.9,4.5,3.3,4.1,4.2a5.5,5.5,0,0,1-2,2.3c-.6.2-1.9-.5-3.8-1.9-3.1-2-5-3.7-5.6-4.9-.6-1.9-.2-3,1.2-3.5A2.934,2.934,0,0,1,965.4,1199.4Zm-.4-14.8c.3.2,1,.7,2.1,1.6a22.919,22.919,0,0,0,3.8,2.6c2.5,1.4,3.4,2.8,2.6,4.2-.9,1.9-3,1.6-6.3-.7q-6.6-4.95-4.2-7.5C963.3,1184,964,1184,965,1184.6Zm1.6,28.3c4.4,2.3,6.7,4.2,7,5.6.2.5,0,.9-.6,1.4a2.41,2.41,0,0,1-1.8.7c-2-.2-4.5-1.5-7.3-4-1.9-2-2.1-3.5-.7-4.5C963.5,1211.6,964.6,1211.9,966.6,1212.9Zm20.6-33c.5.2.5,1,.2,2.6s.1,2.2,1.3,1.9a62.912,62.912,0,0,1,8.8-.7c4.7-.2,7.7-.1,8.9.2,2.5.8,3,2.2,1.6,4.2a3.737,3.737,0,0,1-2.3.9c-1.7,0-4.5-.1-8.4-.2-4.4,0-7.3-.1-8.9-.2h-2.1l-.9,3c-1.4,3.9-2.5,5.6-3.3,5.2-1.4,0-2.1-.8-2-2.3a41.242,41.242,0,0,1,1.8-7.9c1.1-3.7,2-6,2.8-6.9C985.4,1178.7,986.3,1178.8,987.2,1179.9Zm17.1,15c3.9.6,5,3.8,3.3,9.4a15.386,15.386,0,0,0-.5,2.6c2.2.3,3.6,1.1,4.2,2.3a2.2,2.2,0,0,1,0,1.6c-.3,1.3-1.4,1.8-3.3,1.6-1.4-.3-2.1-.2-2.1.2a10.975,10.975,0,0,0-1.6,4.7l1.4.5c2.3.3,3.4,1.3,3,2.8-.3,1.1-1.6,1.6-4,1.6l-1.9-.2-.7.9a23.2,23.2,0,0,0-2.1,2.6c-1.3,1.9-2.3,2.5-3.3,2-.9-.5-1.2-1.6-.7-3.2q.3-1.35,0-1.5a26.272,26.272,0,0,0-3.3-.4c-6.3-.5-9.1-1.3-8.7-2.6-.3-1.7,0-4.1.9-7.3.5-1.9.7-2.8.7-2.9s-.2-.1-.5-.1c-1.4-.2-2.3-.5-2.7-1.1a2.23,2.23,0,0,1-.4-1.8c.2-.6,1.2-1.1,3.3-1.4a3.207,3.207,0,0,0,1.5-.9,9.573,9.573,0,0,0,.8-2.2c.3-1.2.5-2,.7-2.6a6.9,6.9,0,0,1,.7-1.5,7.471,7.471,0,0,1,1.2-1.4,3.3,3.3,0,0,1,2-2,16.778,16.778,0,0,1,5.5-.6A28.9,28.9,0,0,1,1004.3,1194.9Zm-13.8,16.6c-.6,2.3-1,4.1-1.2,5.2-.6.2.8.2,4.2.2s5.1-.1,4.9-.2a16.651,16.651,0,0,0,1.6-4c.2-.6-.2-.9-.9-.9a18.427,18.427,0,0,0-4.5-1.1,28.339,28.339,0,0,0-3.4-.4C990.9,1210.4,990.7,1210.8,990.5,1211.5Zm3.3-12.1a15.113,15.113,0,0,0-1.4,5.2q-.9.9,2.1,1.2l1.6.2-.5-.7c-.8-1.4-.5-2.8.7-4.2s2.2-1.1,2.8.9a6.068,6.068,0,0,1-.9,3c-.5.5-.6.7-.4.8s1,.4,2.2.8c1.2.5,2.3-.9,3-4,1.7-3.1.2-4.3-4.7-3.5Q992.9,1198.65,993.8,1199.4Zm1.9,12.6a2.887,2.887,0,0,1-.5,3.5,1.607,1.607,0,0,1-2.3-.2c-.8-.8-.8-1.6,0-2.6C993.8,1211.3,994.7,1211.1,995.7,1212Z" fill="#ef8200"/>
    <path id="Path_5237" data-name="Path 5237" d="M1032.2,1194c1.2.2,2,1.8,2.3,4.9v9.1c.2,6.1-.3,8.8-1.4,8.2-.9.2-2.7.3-5.2.5a43.791,43.791,0,0,0-4.9.5,3.567,3.567,0,0,1-2.8-1.9c-.6-1.1-1-4.4-1.2-9.8-.2-5.5.2-8.8.9-10.1.2-1.7,2.7-2.3,7.5-1.9C1030,1193.5,1031.6,1193.6,1032.2,1194Zm-9.1,8.6c0,4.8.2,8,.7,9.4-.3.3.7.4,3,.2a22.9,22.9,0,0,1,3-.2c0-.8,0-2.8.1-6.1s.1-5.5,0-6.8c-.1-1.2-.2-1.8-.4-1.6a14.825,14.825,0,0,0-3.5-.2l-3.3-.2Zm26-3.2c.3-.2.5,1.3.5,4.5,0,2.3,0,4.1-.1,5.2s-1.2,1.7-3.4,1.9a11.067,11.067,0,0,0-2.3.1c-.3.1-.4,1.1-.2,3.2-.8,3,.1,3.9,2.6,2.8,1.6-.6,2.7-.5,3.3.5.3-.3.5,1.6.5,5.6.2,4.8-.2,7.2-1.2,7a3.4,3.4,0,0,1-1.4.2c-.9,0-1.4-1.7-1.4-5.2s-.2-4.8-.7-4.2c-1.3-.8-1.8.7-1.6,4.5-.3,4.1-.9,6.2-1.6,6.6a2.205,2.205,0,0,1-2.1-.1c-.6-.4-.9-.7-.9-1.1-.5-1.9-.6-6.4-.4-13.6s.7-11.9,1.3-14.1c.3-1.2.9-1.7,1.9-1.4.5.3.8,1.4,1.1,3.3.2,1.9.7,2.7,1.3,2.3,1.2.6,1.9-.5,1.9-3.3-.2-3.3.2-4.8.9-4.7A1.508,1.508,0,0,1,1049.1,1199.4Zm6.3-25.1a6.849,6.849,0,0,1,.6,2c.2,1,.4,1.6.5,1.6a11.472,11.472,0,0,0,2.5.6c3.1.3,4.8,1.6,4.9,4-.5,1.6,1,2.3,4.5,2.3,3.4,0,5.2.5,5.2,1.5s-.2,1.7-.7,2-2,.5-4.6.6-3.9.3-4.1.6a11.592,11.592,0,0,0-.5,2.8c-.3,2.2-.9,3.4-1.9,3.8h-4.7v3.5a88.455,88.455,0,0,0,.7,10.8l2.6.5c1.9-.2,2.9,0,3,.5a2.4,2.4,0,0,1,0,2.6,3.853,3.853,0,0,1-2.8,1.1c-1.4.1-2.2.3-2.3.6-.3-.2-.5,1.4-.7,4.7-.2,7.5-.8,11.3-1.9,11.3a2.344,2.344,0,0,1-2.3-1.4c-.5-1.7-.7-5.2-.7-10.5-.2-2.3-.3-3.8-.4-4.2-.1-.5-.7-.7-1.8-.7q-3-.75-3-1.2c-.6-1.1.6-1.7,3.8-1.9l1.6-.2-.2-4c-.2-2.8-.2-5.3-.2-7.5l-.2-3.3-.9-.2q-5.1-.9-4.5-2.1c-.3-1.1.6-1.7,2.8-1.9s3.2-.7,2.9-1.6c-.2-.9-.4-1.5-.6-1.6-.2-.2-.9-.2-2.3-.2s-2.7,0-4-.1-2-.3-2.1-.7c-.2-.4-.1-.7.2-.8q0-1.35,7.5-2.1l.9-.2v-1.2c.5-1.2-.5-1.8-3-1.6q-5.4-.3-4.2-2.1c-.2-.9,1.2-1.4,4.2-1.4a23.152,23.152,0,0,0,2.9-.6c.2-.1.4-.5.6-1.3.2-1.9.7-2.8,1.6-2.8C1054.7,1173.8,1055.1,1174,1055.4,1174.3Zm1.7,8.4a1.618,1.618,0,0,0-.2,1.9c.2.2.5.2.9.2,1.2,0,1.9-.4,1.9-1.2a1.322,1.322,0,0,0-1.2-1.4C1057.7,1182.1,1057.2,1182.2,1057.1,1182.7Zm-.3,6.6c-.3.3-.2.9.2,1.9,0,.2.4.3,1.1.4s1.1-.5,1.3-1.8c.2-.5-.2-.7-1.1-.7C1057.5,1189,1057,1189.1,1056.8,1189.3Zm14.3,9.1c.5-.6.9,3.7,1.4,12.9a101.21,101.21,0,0,0,.5,11.3c0,2,0,3.7.1,4.9a3.256,3.256,0,0,1-.7,2.6,2.211,2.211,0,0,1-1.9.6,1.575,1.575,0,0,1-1.3-.8c-.8-.9-1.3-3-1.4-6.3a20.113,20.113,0,0,0-.6-2.7c-.1-.2-.4-.4-1.1-.4-.6,0-.9.2-.9.5v5c0,3-.2,4.7-.5,5a3.748,3.748,0,0,1-1.4,1.2c-.8.2-1.6-.2-2.3-1.2-.5-.3-.5-1.8-.2-4.5a67.573,67.573,0,0,1,.7-9.1c0-.8,1.2-1.1,3.8-.9l2.6-.2v-8.4l-3.3.2c-3.4.2-4.9-.4-4.5-1.6a20.489,20.489,0,0,1,.2-6.8.928.928,0,0,1,.9-.7c.8-.5,1.4.4,1.9,2.6a4.484,4.484,0,0,0,.7,2.1,4.269,4.269,0,0,0,3.5,0c.2-.5.5-1.2.9-2.3C1068.8,1198.4,1069.7,1197.5,1071.1,1198.4Z" fill="#ef8200"/>
    <path id="Path_5238" data-name="Path 5238" d="M1114.7,1175.4a7.566,7.566,0,0,1,1.2,3.5v2.3l.2.7,7.3.2a53.5,53.5,0,0,1,8.7.1,5.026,5.026,0,0,1,2.5.9,2.035,2.035,0,0,1,.6,1.5c.2,1.9-1.3,2.7-4.5,2.6-2.2,0-6.6-.1-13.1-.2-5.3-.3-8.6-.4-9.7-.4q-1.8.15-1.8.6c-.8.2-1.3,1.3-1.6,3.3s-.5,6.9-.7,14.5c-.5,8.6-.9,14.1-1.4,16.4a5.574,5.574,0,0,1-.9,1.9c-2.2.9-3.6.5-4.2-1.4a38.594,38.594,0,0,1,.2-7.3q.45-5.85.9-10.5c.5-8.4.9-13.7,1.3-15.9s1.1-3.4,2-3.5c0-.8,2-1.4,5.9-1.9,2-.5,3.2-.9,3.4-1.2a7.714,7.714,0,0,0,.6-2.3C1111.8,1175.2,1112.9,1173.9,1114.7,1175.4Zm1.2,12.2c.3.2.7,1.3,1.2,3.5-.2,1.7.8,2.4,2.8,2.1,2,.2,3-.5,2.9-1.9a2.77,2.77,0,0,1,1.1-2.8c1.7-.8,2.8.1,3.3,2.6,0,1.3.2,1.8.7,1.6a7.366,7.366,0,0,1,3.9,1.4,1.789,1.789,0,0,1,.1,2.2,4.2,4.2,0,0,1-2.8,1.8,3.839,3.839,0,0,0-1.6.2c-.2.2-.2.8-.2,1.9-.3,2.5-1,4.1-2.1,4.9s-1.3,1.6-.5,2.6c-.2.3.9.5,3.3.7,3.4,0,5.8.7,7,2a7.964,7.964,0,0,1,1.9,5.5,10.225,10.225,0,0,1-3.3,7.3,2.392,2.392,0,0,1-2.8,0l-.7-.7.5-2.1a10.525,10.525,0,0,0,.7-4c.5-2.3-.8-3.3-3.8-2.8l-2.3-.2-.2,2.8v8c0,4.8-.6,7.2-1.9,7a3.084,3.084,0,0,1-1.9,0,2.234,2.234,0,0,1-1.2-.7c-.6-.8-.8-4.5-.5-11,.2-3.4.2-5.4.2-5.9a10.12,10.12,0,0,0-4.2-.5c-.5-.3-.7.9-.7,3.8q-.3,5.1-.9,5.4c-1.7,1.3-3,.8-3.8-1.4a28.964,28.964,0,0,1,.7-7.7q.3-4.5,6.3-4.5c2.3-.2,3.4-.7,3.3-1.6.6-1.2-.4-1.8-3-1.6-2.2-.3-3.4-.5-3.5-.7-.2-.2-.3-1.3-.5-3.5-.2-3-.6-4.2-1.4-3.8-1.1-.2-1.8-.5-2.1-1.1a1.36,1.36,0,0,1,0-1.5c.3-.5,1.1-.8,2.3-.9.8.3,1.3-.7,1.6-3,.2-1.9.4-3,.7-3.3C1114.8,1187.3,1115.3,1187.3,1115.9,1187.6Zm1.7,10.6a3.976,3.976,0,0,0,.2,2.8c-.2.2.5.2,1.9.1s2.2-.2,2.3-.5a3.831,3.831,0,0,0,.5-1.1c.2-.9,0-1.4-.5-1.4A12.23,12.23,0,0,0,1117.6,1198.2Z" fill="#ef8200"/>
    <path id="Path_5239" data-name="Path 5239" d="M1155.5,1187.2c0,.2.1,1.3.2,3.5.2,2.2.3,3.4.5,3.6a2.367,2.367,0,0,0,1.6.4,2.8,2.8,0,0,1,3.2,1.9c.5,1.4-.1,2.3-2,2.8a6.96,6.96,0,0,0-1.6.2l-.7.2v1.4a13.471,13.471,0,0,1-.1,2.2c-.1.5.7.9,2.5.9q2.55.15,3.3,1.5c.3,1.6-.8,2.9-3.3,4-1.3.5-1.9.9-1.9,1.4v5.6c.2,5-.4,7.7-1.6,8.2q-.75,1.2-3.9,1.2c-2.1,0-3.4-.6-4-1.9a2.5,2.5,0,0,1,.4-3c.2-.3.7-.5,1.6-.7l1.4-.2.2-1.9a24.343,24.343,0,0,0-.5-6.1,1.05,1.05,0,0,0-.9-.5c-3.8-.2-5.2-1.2-4.5-3.3q0-1.35,4.5-2.1l1.4-.5v-3a12.829,12.829,0,0,0-.5-3.4,3.686,3.686,0,0,0-1.6-.6c-4.1-1.6-4-2.9.2-4a8.109,8.109,0,0,1,1.4-.5,23.522,23.522,0,0,0,.7-2.3c.2-3.9,1.1-5.8,2.8-5.6A2.282,2.282,0,0,1,1155.5,1187.2Zm32.8-7.8c.5.9.3,2.7-.5,5.4a11.477,11.477,0,0,1-.7,1.9c-.2.3,1.1.5,3.8.5,3.3-.2,5.1.3,5.5,1.3a3.406,3.406,0,0,1-.4,3.2l-.7.7-6.8.2c-4.1,0-6.6.2-7.5.5-.9-.2-1.4.6-1.4,2.3l-.2.9,6.3-.2c4.2-.2,6.5-.2,6.8,0a4.352,4.352,0,0,1,1.2,1.2c.3,1.7-.5,2.8-2.6,3.3-.5,0-.7.1-.7.4s.5,1,1.6,2.3,1.9,2.2,2.3,2.7c.2,1.1-.4,1.9-1.8,2.3-1.3.5-3.3-1.2-6-4.9a7.224,7.224,0,0,0-1.9-2.3,10.194,10.194,0,0,0-5.4-.5c-1.1-.3-2.3.9-3.8,3.8a51.314,51.314,0,0,1-3.5,6.1,2.654,2.654,0,0,1-1.4.5c-2-.3-2.3-1.6-.9-3.8,1.7-3.1,2.9-5.3,3.5-6.6-.2-.5-.7-.7-1.8-.8a2.563,2.563,0,0,1-2.2-1.3c-.5-.8-.4-1.3.2-1.6a6.859,6.859,0,0,1,2.9-.5c1.3,0,2.1-.1,2.3-.4a4.684,4.684,0,0,0,.8-1.5l.5-1.6-3.3-.2c-3.1,0-4.5-.5-4.2-1.4q-.3-1.35,2.1-2.1l1.2-.5v-2.1q-.3-1.8-.6-3.3a2.574,2.574,0,0,1,.1-2,1.425,1.425,0,0,1,1.2-.6c1.4-.2,2.5,1.4,3.3,4.7a6.661,6.661,0,0,0,.8,2.7c.4.5.8-.7,1.3-3.6.3-3.4,1-4.6,2.1-3.5q.9.45,1.2,4.2-.75,5.85,3-2.1a12.15,12.15,0,0,1,2.2-4.1A1.392,1.392,0,0,1,1188.3,1179.4Zm-2.5,30.3c.9.2,1.4,1.5,1.3,4s-.6,4-1.5,4.5c-.5,0-1.6.1-3.3.2a23.019,23.019,0,0,0-2.9.4c-.2.1-.5.6-.7,1.6s-.2,1.6.1,1.6a10.049,10.049,0,0,0,2.5.2c1.3.1,2.6.1,3.9.1,2,0,3,.9,3,2.6a1.876,1.876,0,0,1-1.2,2.3c0,.3-1.9.4-5.6.2-3.1-.2-5.2-.3-6.1-.5-2,.5-2.3-2.2-.9-8,.6-3,1.1-5.1,1.4-6.3-.2-2,.7-3,2.6-2.8A26.458,26.458,0,0,1,1185.8,1209.7Zm-6.4,3.7c-.2.5.5.8,2,1.1,1.5.2,2.2,0,2.2-.6s-.7-.9-2.1-.7C1180.1,1212.9,1179.4,1212.9,1179.4,1213.4Z" fill="#ef8200"/>
    <path id="Path_5240" data-name="Path 5240" d="M1225.1,1179.9c.8.3,1.3,1.2,1.6,2.6a49.484,49.484,0,0,1-.7,7.7,3.594,3.594,0,0,0-.5,2.1q-.9.3,6.3,0c4.8-.2,7.3,0,7.5.5a2.111,2.111,0,0,1,1.6,2.3,2.69,2.69,0,0,1-1.4,2.6c0,.2-2.7.3-8.2.5-4.5,0-7.1.1-7.7.2,0-.9-1.1,1.6-3.2,7.5a126.06,126.06,0,0,1-5.3,13.1c-3.4,6.6-5.8,8.8-7,6.8a2.692,2.692,0,0,1-.7-1.6c-.5,0,.5-2.4,3-7.3,1.1-3,2.3-6.3,3.8-10,1.4-3.7,2.4-6.3,3-7.9l.2-.7h-4.9a43.787,43.787,0,0,1-5.6-.2,2.522,2.522,0,0,1-1.9-2.5c0-1.2.9-1.8,2.6-2a22.2,22.2,0,0,1,5.2-.8c2.7-.2,4.6-.4,5.9-.4.3.2.6-.4.9-1.6.5-1.9,1.1-4.7,1.9-8.4a2.11,2.11,0,0,1,.7-1.9c.3-.8.9-1.1,1.9-.9C1224.2,1179.5,1224.5,1179.6,1225.1,1179.9Zm6.6,24.4c.2.3.7,1.2,1.6,2.6a30.329,30.329,0,0,0,6.6,8.4c2.5,2,3.3,3.6,2.3,4.7-1.1,1.9-2.7,2-4.9.5a23.528,23.528,0,0,1-9.6-12.7c-.8-1.7-.7-2.9.2-3.5a2.578,2.578,0,0,1,2-.7C1230.8,1203.6,1231.4,1203.8,1231.7,1204.3Z" fill="#ef8200"/>
    <path id="Path_5241" data-name="Path 5241" d="M1266.4,1177.8a2.635,2.635,0,0,1,.6,2.1c-.1.8-1.6,3.2-4.6,7.3-3.4,4.5-5,6.8-4.7,6.9a34.848,34.848,0,0,0,4.9-.2c3-.2,6.4-.4,10.3-.6a48.258,48.258,0,0,0,6.1-.5,18.316,18.316,0,0,0-.5-1.9c-.8-2.3-.9-3.8-.2-4.3a2.967,2.967,0,0,1,1.6-.8c1.2-.2,2.3.9,3,3q.75,1.95,3,7.5c2.3,5.6,2.9,8.5,1.6,8.7a4.485,4.485,0,0,1-1.9.5c-1.1.2-2.1-1.1-3-3.8a10.434,10.434,0,0,1-1.2-2.9c0-.4-1.8-.4-5.4-.1-5.2.2-11.5.5-19,.9-3.6.2-5.5-.2-5.6-1.2a3.557,3.557,0,0,1-.5-1.9c.2-2.5,2.8-6.9,8-13.1,2.5-3.6,4.1-5.4,4.7-5.4A3.975,3.975,0,0,1,1266.4,1177.8Zm9.8,31.9c1.4.3,2.2.9,2.3,1.8a55.3,55.3,0,0,1,.4,6.9c.1,3.8.1,6.3.1,7.5a4.149,4.149,0,0,1-2.6,2.1,35.945,35.945,0,0,1-5.9.7c-5,.3-7.8-.2-8.4-1.4a3,3,0,0,1-1.2-2.8,30.121,30.121,0,0,1,.1-7.9c.4-3,.8-5,1.3-5.7a4.046,4.046,0,0,1,2.8-1.6,16.256,16.256,0,0,1,5.4-.2A22.006,22.006,0,0,1,1276.2,1209.7Zm-10.3,4.4c-.2,0-.1.7.2,2.1a14.4,14.4,0,0,0,.2,4.5v2.6h7.8v-4.5c-.2-3.6-.3-5.2-.5-4.7a18.549,18.549,0,0,0-4-.2C1266.8,1213.6,1265.6,1213.6,1265.9,1214.1Z" fill="#ef8200"/>
    <path id="Path_5242" data-name="Path 5242" d="M1313.3,1178.7l.9.7v4.5l.2,4.2,4.5.2c2.8,0,4.8.1,5.9.2a8.067,8.067,0,0,1,3.8,2.1c.5,1.9.7,5.7.7,11.5-.2,2.7-.5,4.1-.9,4.3a4.5,4.5,0,0,0-1.4,1.1c-1.4.6-4.2,1.1-8.4,1.4l-3.8.2-.2,2.6c-.2,1.9-.2,4.8-.2,8.9-.3,3.3-.5,5.4-.6,6.2a2.072,2.072,0,0,1-1.3,1.8l-.7.5-.7-.5c-1.1.3-1.7-2.9-1.9-9.6-.2-4.7-.3-7.6-.4-8.7s-1.4-1.3-3.9-.7c-1.6.2-3,.3-4.2.5h-2.3l-.5-.7c-1.1-.6-1.6-3.4-1.4-8.2q.3-9.9.9-10.8,0-1.65,8.4-2.1a8.851,8.851,0,0,0,2.7-.7c.2-.2.5-1.5.8-4q0-5.4.9-5.4C1311.1,1177.5,1312.2,1177.6,1313.3,1178.7Zm-11.8,19c-.2,4.1,0,6.3.5,6.8.2,0,1.1-.1,2.9-.4a26.691,26.691,0,0,0,3.2-.5c.3-.1.5-1.9.6-5.5s0-5.2-.4-4.9a12.088,12.088,0,0,0-3.5-.2h-3.3v4.7Zm12.9.7v5.4l3.8-.2c3.8,0,5.6-.4,5.5-1.3a39.286,39.286,0,0,1,.1-4.6c0-2.8-.1-4.3-.4-4.5-.2-.2-1.8-.2-4.6,0l-4.5-.2v5.4Z" fill="#ef8200"/>
  </g>
</svg>
