<svg xmlns="http://www.w3.org/2000/svg" width="775.9" height="176.4" viewBox="0 0 775.9 176.4">
  <g id="title" transform="translate(-981.7 -305.6)">
    <g id="Group_55" data-name="Group 55">
      <path id="Path_4805" data-name="Path 4805" d="M1070,437v28.7h23.2l-8.6,16.1-49.8-.1.1-44.8h-9.5v23.3l-7.2,21.5-36.5-.1,8-24.5.1-78.3,167.1.2v17.1l-131.4-.2v24.7l133.7.2v16.1Zm54.5-63.3V346.2h-33.7v29.1h-35.7V346.2h-34.7v27.5H986.3l.1-43.8,68.9.1v-6l-65.5-.1V307.6l164.7.2v16.3L1091,324v6l68.3.1-.1,43.8Zm-99.8,1.1v-9.4h26v9.4Zm0-14.2v-9.4h26v9.4Zm6.7,54.8V401.5l116.9.2v13.9Zm111.2,49.2,18.6,17.4-46.6-.1-43-39.7,47.4.1,7.3,7.2,6.8-7.2h29.4Zm-47.5-89.7v-9.4h25v9.4Zm.1-14.2v-9.4h25v9.4Z"/>
      <path id="Path_4806" data-name="Path 4806" d="M1227.2,403.2l-.1,78.5-37.5-.1-6.7-19.7H1194l.1-36.2-11.3,7.4V409.4l11.3-7.6.1-50.4h-11.5V332.9h11.5V305.6h33.1v27.3h9.3v18.5h-9.3v28.5l9.3-6.4v23.3Zm30.3,78.5h-25.8l5.2-44.2h25.4Zm98.1-52.3-37.3-.1-1.6-9-5.2,7.2h-21.2l5-7.2h-19.4l.1-48.8h31.2v30.9l5.8-8.8-4.3-28.5-37.1-.1-.1,46.6-6.8,17.7h-32.5l8.6-24.3.1-83.6,61.7.1-2.6-15.9h29.8l2.2,15.9h5.6l-1.8-13.9h15.9l1.8,13.9h6.2v17.7h-24.8l2.4,16.9,3.8-5.6h20.2l-20.1,31.8,4.1,29.1H1362ZM1322,481.8l-57-.1.1-48.4h30.4v29.5h32.7Zm-17.1-142.5h-33.5v7.4h34.7Zm-9.6,48.8h-6.9v15.3h6.9Zm7.3,68.7-4.1-23.9h20.6l4.3,23.9Zm30.1,25-7.5-44H1353l7.7,44Z"/>
      <path id="Path_4807" data-name="Path 4807" d="M1393,350l-13.4-43.2h35.3l13.4,43.2Zm-1.5,50.2-11.2-43.8h33.9l12,43.8Zm25.5,81.3h-35.5l9.6-74.5H1426Zm130.9-68.9-.4,25.1h8.1v18.5h-8.5l-.6,25.5-54.8-.1-8.9-18.3h31l.4-7.2-80-.1,2.6-43.6h-8.3V393.5h9.5l1.8-36.4h-12.5l22.7-50.2,37.9.1-5.8,12.5,73.2.1v18.7l-81.8-.1-5.2,11.3,80.8.1-.7,44h9.5v18.9Zm-76.6-.1-1.2,25.1h9.9l-3.3-19.1h28.8l3.3,19.1h5.6l.6-25.1Zm2.4-44.3-1.4,25.3h9.1l-3.1-19.5h29.2l3.3,19.5h4.6l.4-25.3Z"/>
      <path id="Path_4808" data-name="Path 4808" d="M1617,345.3h28.4v16.3l-17.9,22.7h17.7v35.3l-63.9-.1V397.2l26-32.2h-25.8V344.9l29.6-37.8H1647Zm-35.1,136.4.1-55.2h18.5l-.1,55.2Zm23.4.1.1-55.2h17.5l-.1,55.2Zm20.4-95-11.9,15.1h11.9Zm93.9,11.9-.1,83.2-41.9-.1-7.3-17.3-4,13.1h-22.6v4.2H1628l.1-55.2h15.7l-.1,37.6,11.2-36.6h-6.4V409.1h31.8v21.5l-9.6,32.5h13.5l.1-64.5h-32.1l.1-79.1h21.8l5.8-12.5,38.7.1-4.6,12.5,38.1.1-.1,79.1Zm-1.6-30.1h-32.3v11.2H1718Zm.1-29.7h-32.3v10.8h32.3Zm12.7,139.2-8.9-37.1h27l8.7,37.1Zm18.5-42.7h-26.6l7.6-30.9h26.4Z"/>
    </g>
  </g>
</svg>
