<svg xmlns="http://www.w3.org/2000/svg" width="875.686" height="367.833" viewBox="0 0 875.686 367.833">
  <g id="title_pc" transform="translate(-271.002 -235.666)">
    <g id="Group_473" data-name="Group 473">
      <path id="Path_6603" data-name="Path 6603" d="M291.022,324.34a13.278,13.278,0,0,0-1.439-6.57c-.438-1-8.821-14.763-11.011-18.017a17.5,17.5,0,0,0-4.254-4.629,5.979,5.979,0,0,0-2.69-1c-.313,0-.626-.126-.626-.439,0-.25.251-.437.814-.437,1.188,0,5.88.187,6.193.187.438,0,2.815-.187,5.256-.187.688,0,.813.187.813.437s-.376.313-.939.564a1.267,1.267,0,0,0-.813,1.126,5.331,5.331,0,0,0,.813,2.439c1,1.815,10.385,17.956,11.511,19.77,1.189-2.627,9.134-16.328,10.385-18.393A6.1,6.1,0,0,0,306.1,296c0-.875-.25-1.564-1-1.751-.563-.188-.939-.314-.939-.626,0-.25.376-.375,1-.375,1.627,0,3.629.187,4.13.187.375,0,4.879-.187,6.068-.187.438,0,.813.125.813.375,0,.312-.312.5-.813.5a5.954,5.954,0,0,0-2.878.876,11.913,11.913,0,0,0-3.316,3.19c-2.064,2.5-10.822,17.205-11.948,19.9a14.956,14.956,0,0,0-.939,6.256v5.38c0,1,0,3.629.188,6.256.125,1.814.688,3.191,2.565,3.441a27.313,27.313,0,0,0,2.815.25c.375,0,.5.188.5.376,0,.312-.312.5-1,.5-3.441,0-7.383-.188-7.7-.188s-4.254.188-6.131.188c-.688,0-1-.125-1-.5,0-.188.125-.376.5-.376a9.669,9.669,0,0,0,1.877-.25c1.251-.25,1.814-1.627,1.939-3.441.188-2.627.188-5.255.188-6.256Z" fill="#804f21"/>
      <path id="Path_6604" data-name="Path 6604" d="M328.248,315.706c0-8.258,0-9.76-.125-11.448s-.438-2.691-2.253-2.941a17.866,17.866,0,0,0-1.876-.125.531.531,0,0,1-.438-.437c0-.314.25-.439.875-.439,2.5,0,5.819.125,6.319.125s3.942-.125,5.568-.125c.626,0,.939.125.939.439a.538.538,0,0,1-.5.437,6.432,6.432,0,0,0-1.376.125c-1.439.25-1.752,1.189-1.877,2.941-.125,1.688-.125,3.19-.125,11.448v7.445c0,7.7,1.689,10.886,4.066,13.013,2.691,2.439,5.068,2.878,8.2,2.878a11.3,11.3,0,0,0,8.508-3.754c2.565-3.065,3.128-7.444,3.128-12.888v-6.694c0-8.258-.062-9.76-.125-11.448s-.375-2.691-2.19-2.941a17.867,17.867,0,0,0-1.877-.125.47.47,0,0,1-.438-.437c0-.314.251-.439.876-.439,2.44,0,5.631.125,5.944.125.375,0,3-.125,4.629-.125.626,0,.876.125.876.439a.47.47,0,0,1-.438.437,6.432,6.432,0,0,0-1.376.125c-1.5.313-1.814,1.189-1.939,2.941-.126,1.688-.063,3.19-.063,11.448V321.4c0,5.756-.751,12.2-5.13,15.953a16.657,16.657,0,0,1-11.511,3.879c-1.815,0-7.57-.125-11.449-3.754-2.69-2.5-4.817-6.193-4.817-13.951Z" fill="#804f21"/>
      <path id="Path_6605" data-name="Path 6605" d="M391.75,301.38c.688-1.752.938-2.065,1.314-2.065.563,0,.75.751,1.313,1.94,1,2.252,9.822,24.211,13.2,32.281,2,4.755,3.5,5.443,4.692,5.818a7.656,7.656,0,0,0,2.19.313c.312,0,.688.125.688.438s-.626.438-1.252.438c-.813,0-4.879,0-8.7-.125-1.063-.063-1.939-.063-1.939-.375,0-.251.125-.251.376-.376a1,1,0,0,0,.5-1.439l-4.942-12.2c-.125-.251-.188-.313-.5-.313h-12.7a.582.582,0,0,0-.563.438l-3.128,8.508a11.011,11.011,0,0,0-.813,3.566c0,1.064.939,1.439,1.877,1.439h.5c.438,0,.564.188.564.438,0,.313-.313.438-.814.438-1.314,0-4.317-.188-4.942-.188-.563,0-3.316.188-5.568.188-.688,0-1.064-.125-1.064-.438a.484.484,0,0,1,.5-.438,15.549,15.549,0,0,0,1.626-.125c2.5-.313,3.566-2.19,4.63-4.88Zm6.131,22.146c.25,0,.25-.125.188-.375l-5.443-14.577q-.47-1.22-.939,0l-5.13,14.577c-.062.25,0,.375.188.375Z" fill="#804f21"/>
      <path id="Path_6606" data-name="Path 6606" d="M432.228,333.286c.125,4.379.626,5.693,2.127,6.068a13.108,13.108,0,0,0,2.753.313.428.428,0,0,1,.438.438c0,.313-.375.438-1,.438-3.128,0-5.318-.188-5.818-.188s-2.816.188-5.318.188c-.563,0-.876-.063-.876-.438a.428.428,0,0,1,.438-.438,8.684,8.684,0,0,0,2.253-.313c1.376-.375,1.563-1.814,1.563-6.631V302.256c0-2.127.313-2.691.751-2.691.626,0,1.564,1.065,2.127,1.627.876.876,8.884,9.384,17.392,18.143,5.443,5.631,11.324,11.949,13.013,13.7l-.563-26.651c-.063-3.441-.375-4.63-2.065-4.943a17.7,17.7,0,0,0-2.69-.25c-.375,0-.438-.312-.438-.5,0-.313.438-.376,1.064-.376,2.5,0,5.13.125,5.756.125s2.44-.125,4.691-.125c.564,0,1,.063,1,.376a.621.621,0,0,1-.626.5,6.231,6.231,0,0,0-1.314.125c-1.814.375-1.939,1.44-1.939,4.629l-.125,31.156c0,3.5-.063,3.817-.438,3.817-.563,0-1.126-.439-4.192-3.254-.563-.5-8.508-8.32-14.326-14.389-6.382-6.694-12.575-13.2-14.264-15.077Z" fill="#804f21"/>
      <path id="Path_6607" data-name="Path 6607" d="M532.142,322.4c0,6.006,0,10.949.313,13.576.187,1.814.563,3.191,2.439,3.441a27.33,27.33,0,0,0,2.816.25c.375,0,.5.188.5.376,0,.312-.313.5-1,.5-3.441,0-7.382-.188-7.694-.188s-4.255.188-6.132.188c-.688,0-1-.125-1-.5,0-.188.126-.376.5-.376a9.669,9.669,0,0,0,1.877-.25c1.251-.25,1.564-1.627,1.814-3.441.313-2.627.313-7.57.313-13.576V295.936l-9.259.126c-3.879.063-5.381.5-6.382,2A10.962,10.962,0,0,0,510.183,300c-.188.5-.376.627-.626.627-.188,0-.313-.189-.313-.564,0-.626,1.252-6.006,1.377-6.507.125-.375.375-1.188.625-1.188a11.676,11.676,0,0,0,2.753.751c1.814.187,4.192.312,4.942.312H542.4a25.094,25.094,0,0,0,4.442-.312c.938-.125,1.5-.313,1.751-.313.313,0,.313.375.313.75,0,1.877-.188,6.194-.188,6.882,0,.564-.187.814-.437.814-.313,0-.438-.188-.5-1.064l-.062-.688c-.188-1.877-1.689-3.316-7.695-3.441l-7.883-.126Z" fill="#804f21"/>
      <path id="Path_6608" data-name="Path 6608" d="M572.121,301.38c.688-1.752.938-2.065,1.314-2.065.563,0,.75.751,1.313,1.94,1,2.252,9.823,24.211,13.2,32.281,2,4.755,3.5,5.443,4.692,5.818a7.656,7.656,0,0,0,2.19.313c.312,0,.688.125.688.438s-.626.438-1.252.438c-.813,0-4.879,0-8.7-.125-1.064-.063-1.94-.063-1.94-.375,0-.251.125-.251.376-.376a1,1,0,0,0,.5-1.439l-4.942-12.2c-.125-.251-.188-.313-.5-.313h-12.7a.581.581,0,0,0-.562.438l-3.129,8.508a11.011,11.011,0,0,0-.813,3.566c0,1.064.939,1.439,1.877,1.439h.5c.438,0,.564.188.564.438,0,.313-.313.438-.814.438-1.314,0-4.317-.188-4.942-.188-.563,0-3.316.188-5.568.188-.688,0-1.064-.125-1.064-.438a.484.484,0,0,1,.5-.438,15.549,15.549,0,0,0,1.626-.125c2.5-.313,3.566-2.19,4.63-4.88Zm6.131,22.146c.25,0,.25-.125.188-.375L573,308.574q-.469-1.22-.939,0l-5.129,14.577c-.063.25,0,.375.187.375Z" fill="#804f21"/>
      <path id="Path_6609" data-name="Path 6609" d="M615.289,325.091c0,5.13,0,9.321.251,11.51.187,1.565.375,2.566,2,2.816a22.4,22.4,0,0,0,2.5.25.425.425,0,0,1,.438.438c0,.25-.25.438-.876.438-3.065,0-6.631-.188-6.882-.188-.312,0-3.753.188-5.442.188-.563,0-.876-.125-.876-.438a.425.425,0,0,1,.438-.438,7.873,7.873,0,0,0,1.689-.25c1.063-.25,1.251-1.251,1.439-2.816.25-2.189.312-6.38.312-11.51v-9.385c0-8.258,0-9.76-.125-11.448-.125-1.815-.563-2.628-1.751-2.878a9.864,9.864,0,0,0-1.689-.188.47.47,0,0,1-.438-.437c0-.314.25-.439.876-.439,1.814,0,5.255.125,5.567.125.251,0,3.817-.125,5.506-.125.625,0,.876.125.876.439a.532.532,0,0,1-.438.437,6.15,6.15,0,0,0-1.377.125c-1.5.313-1.814,1.064-1.939,2.941-.063,1.688-.063,3.19-.063,11.448Z" fill="#804f21"/>
    </g>
    <g id="Group_474" data-name="Group 474">
      <path id="Path_6610" data-name="Path 6610" d="M438.415,522.493l-.13-.148a41.642,41.642,0,0,0-5.9-4.669V486.77l-.472-.46a2.435,2.435,0,0,0-3.611.013l-.3.3-.107.414c-4.141,16.109-8.3,27.06-12.381,32.554a6.215,6.215,0,0,1-4.556,1.589c-8.346.467-14.734.7-18.983.7-4.472,0-6.423-.34-7.272-.625l-.242-.082H384.2a1.071,1.071,0,0,1-.478-.066,1.023,1.023,0,0,1-.076-.488V444.9H326.842v8.627c0,28.159-8.4,50.838-24.969,67.406a106.7,106.7,0,0,1-27.846,19.484l-.274.175c-.807.641-2.7,2.142-2.083,3.9.6,1.714,2.9,1.714,3.762,1.714h.207l.2-.053c19.495-5.239,35.178-13.693,46.611-25.126,14.142-14.142,22.113-38.7,23.7-73h18.128V525.57c0,6.344,3.341,10.533,9.664,12.113,2.046.507,5.866.753,11.677.753,11.167,0,20.7-.239,28.374-.712a126.594,126.594,0,0,0,18.6-2.86l.176-.051c4.27-1.531,6.694-3.475,7.412-5.942C440.752,526.888,440.16,524.742,438.415,522.493Z" fill="#804f21"/>
      <rect id="Rectangle_152" data-name="Rectangle 152" width="129.852" height="11.251" transform="translate(291.404 390.865)" fill="#804f21"/>
      <rect id="Rectangle_153" data-name="Rectangle 153" width="169.309" height="11.251" transform="translate(271.675 438.483)" fill="#804f21"/>
    </g>
    <g id="Group_475" data-name="Group 475">
      <path id="Path_6611" data-name="Path 6611" d="M575.014,478.242l-.283-.026c-2.572,0-4.914.146-5.329,1.9-.406,1.723,1.564,2.708,2.574,3.211A60.359,60.359,0,0,1,580,487.663c-19.965,1.126-36.667,1.744-49.764,1.841l10.578-11.691h3.919l.2-1.332a19.627,19.627,0,0,1,1.01-3.924l.785-2.109h-22.5l-.351.945c-.712.733-1.406,1.538-2.136,2.385-.407.471-.821.951-1.247,1.429l-2.329,2.606H521.5l-5.016,11.7H481.446l4.955,14.859c2.1,5.252,4.314,7.7,6.976,7.714h.018c2.716,0,5.124-2.621,7.541-8.227l39.74-3.312V503l2.008-.594a48.864,48.864,0,0,1,13.678-2.233l1.569,0v-1.394l30.454-4.634a29.96,29.96,0,0,1,6.208,7.648c2.64,4.238,5.7,6.387,9.1,6.387,4.653,0,7.215-2.562,7.215-7.214C610.905,490.114,599.165,482.679,575.014,478.242Z" fill="#804f21"/>
      <rect id="Rectangle_154" data-name="Rectangle 154" width="160.815" height="11.251" transform="translate(469.513 390.865)" fill="#804f21"/>
      <rect id="Rectangle_155" data-name="Rectangle 155" width="126.848" height="11.251" transform="translate(486.496 404.991)" fill="#804f21"/>
      <path id="Path_6612" data-name="Path 6612" d="M631.728,459.038l-14.87-14.885-6.63,9.574H492.383a47.93,47.93,0,0,0-1.275-5.452l-.068-.189c-.469-1.093-1.453-3.36-3.313-3.086-1.842.275-2.258,2.7-2.509,4.994A15.861,15.861,0,0,1,477.5,462.9c-5.191,3.112-7.823,6.652-7.823,10.524,0,5.555,2.93,8.78,8.474,9.326l.153.008c5.289,0,9.313-2.409,11.995-7.224a30.222,30.222,0,0,0,2.751-10.555H608.756l-4.464,12.894c-.764,2.293-1.378,4.612.2,5.585a1.931,1.931,0,0,0,1.03.3c1.177,0,2.37-1.057,3.437-2.121l13.585-11.547c6.539.5,10.215-.419,11.542-2.867C635.2,465.161,634.43,462.483,631.728,459.038Z" fill="#804f21"/>
      <rect id="Rectangle_156" data-name="Rectangle 156" width="109.375" height="11.251" transform="translate(495.232 467.805)" fill="#804f21"/>
      <rect id="Rectangle_157" data-name="Rectangle 157" width="131.736" height="11.251" transform="translate(484.052 508.738)" fill="#804f21"/>
      <rect id="Rectangle_158" data-name="Rectangle 158" width="165.795" height="11.251" transform="translate(467.022 528.355)" fill="#804f21"/>
      <rect id="Rectangle_159" data-name="Rectangle 159" width="21.187" height="40.319" transform="translate(539.326 373.595)" fill="#804f21"/>
      <rect id="Rectangle_160" data-name="Rectangle 160" width="21.187" height="40.319" transform="translate(539.326 494.204)" fill="#804f21"/>
      <path id="Path_6613" data-name="Path 6613" d="M592.5,418.954H498.312V450.41H601.528V418.954ZM580.341,430.2v8.954H519.5V430.2Z" fill="#804f21"/>
    </g>
    <g id="Group_476" data-name="Group 476">
      <path id="Path_6614" data-name="Path 6614" d="M281.807,584.626l-.257,4.451H271.49V588.6h.239c1.579,0,1.579-.474,1.579-3.24v-7.022c0-2.831-.019-3.09-1.579-3.09v-.476h8.7l.275,3.566h-.422c-.587-3.047-1.468-3.09-3.524-3.09H275.07v6.028h1.3c1.707,0,1.818-.5,1.818-2.161h.422v4.9h-.422c0-2.161-.4-2.268-1.8-2.268H275.07v3.391c0,3.285.11,3.457,1.78,3.457h.9c1.028,0,2.827,0,3.635-3.975Z" fill="#804f21"/>
      <path id="Path_6615" data-name="Path 6615" d="M304.248,580.089a9.027,9.027,0,0,1,.239,1.793c.936-1.21,1.762-1.793,2.826-1.793,1.689,0,2.3,1.383,2.3,2.83v3.2c0,2.356,0,2.484,1.212,2.484v.476h-3.764V588.6c1.267,0,1.267-.128,1.267-2.484V583.33c0-1.967-.587-2.593-1.487-2.593-1.046,0-1.725,1.037-2.349,1.859v3.521c0,2.333,0,2.484,1.211,2.484v.476H301.99V588.6c1.212,0,1.212-.128,1.212-2.484v-2.571c0-2.356,0-2.485-1.212-2.485v-.475a11.213,11.213,0,0,0,2.019-.5Z" fill="#804f21"/>
      <path id="Path_6616" data-name="Path 6616" d="M333.536,589.38c0,1.49,0,3.067-.973,4.127a3.026,3.026,0,0,1-2.184.885c-.937,0-1.928-.432-1.928-1.318,0-.432.257-.691.551-.691.422,0,.569.432.716.821a.939.939,0,0,0,.918.713,1.528,1.528,0,0,0,1.413-1.124,9.115,9.115,0,0,0,.2-2.636v-6.676c0-2.355-.11-2.355-1.359-2.355v-.476a10.341,10.341,0,0,0,2.46-.561h.184Zm-.826-14.823a1.147,1.147,0,0,1,0,2.248,1.055,1.055,0,0,1-.936-1.123A1.043,1.043,0,0,1,332.71,574.557Z" fill="#804f21"/>
      <path id="Path_6617" data-name="Path 6617" d="M358.659,580.089c2.166,0,3.929,1.923,3.929,4.667,0,3.068-1.965,4.667-3.929,4.667-1.854,0-3.91-1.491-3.91-4.689C354.749,582.055,356.475,580.089,358.659,580.089Zm0,8.815c2.185,0,2.441-2.268,2.441-4.084,0-2.333-.477-4.213-2.441-4.213-1.927,0-2.423,1.837-2.423,4.192C356.236,586.549,356.456,588.9,358.659,588.9Z" fill="#804f21"/>
      <path id="Path_6618" data-name="Path 6618" d="M388.646,582.314a3.5,3.5,0,0,0,.257-.842c0-.455-.661-.562-.991-.562v-.476h2.57v.476c-.918.064-1.1.605-1.561,1.9l-3.267,9.29c-.477,1.34-.918,2.291-1.634,2.291a.573.573,0,0,1-.569-.626,1.415,1.415,0,0,1,.936-1.21,1.67,1.67,0,0,0,1.083-1.21l.7-2.053-2.754-6.957c-.422-1.059-.569-1.4-1.431-1.426v-.476h3.377v.476c-.459.043-.9.064-.9.432a5.994,5.994,0,0,0,.348,1.058l2.02,5.057Z" fill="#804f21"/>
      <path id="Path_6619" data-name="Path 6619" d="M446.986,582.963v.518h-.44c-1.12,0-1.248.756-1.248,2.355v2.377a1.791,1.791,0,0,0-.386-.043c-1.5,0-2.313,1.166-4.626,1.166-3.487,0-6.076-2.982-6.076-7.13,0-4.234,2.368-7.691,6.131-7.691a4.749,4.749,0,0,1,4.039,2.095,5.232,5.232,0,0,0,.367-1.6h.44v4.795h-.44c-.386-3.262-2.258-4.774-4.2-4.774-2.515,0-4.277,1.858-4.277,6.806,0,5.164,1.928,6.979,4.277,6.979a2.79,2.79,0,0,0,2.992-2.852v-.779c0-1.4-.4-1.706-1.175-1.706h-.624v-.518Z" fill="#804f21"/>
      <path id="Path_6620" data-name="Path 6620" d="M469.536,586.117c0,2.2,0,2.484,1.083,2.484h.257v.476h-3.891V588.6c1.266,0,1.266-.085,1.266-2.484v-2.441c0-2.4,0-2.486-1.266-2.486v-.474a12.2,12.2,0,0,0,2.074-.584l.128-.043a8.385,8.385,0,0,1,.257,2.268c.57-1.6,1.671-2.268,2.35-2.268a1.343,1.343,0,0,1,1.285,1.318.68.68,0,0,1-.606.734c-.44,0-.569-.432-.642-.648-.092-.237-.221-.648-.514-.648-.514,0-1.781,1.037-1.781,3.241Z" fill="#804f21"/>
      <path id="Path_6621" data-name="Path 6621" d="M494.365,583.373c-.019.3-.037.648-.037,1.016,0,1.1.037,4.472,2.4,4.472a2.39,2.39,0,0,0,2.331-1.728h.422a3.1,3.1,0,0,1-2.992,2.29c-1.615,0-3.653-1.448-3.653-4.6,0-2.679,1.505-4.731,3.58-4.731a3.194,3.194,0,0,1,3.065,3.284Zm3.543-.432a2.666,2.666,0,0,0,.036-.432c0-1.426-.863-1.945-1.6-1.945-1.633,0-1.872,1.815-1.946,2.377Z" fill="#804f21"/>
      <path id="Path_6622" data-name="Path 6622" d="M521.524,583.373c-.018.3-.036.648-.036,1.016,0,1.1.036,4.472,2.4,4.472a2.392,2.392,0,0,0,2.332-1.728h.422a3.1,3.1,0,0,1-2.992,2.29c-1.616,0-3.653-1.448-3.653-4.6,0-2.679,1.505-4.731,3.579-4.731a3.2,3.2,0,0,1,3.066,3.284Zm3.543-.432a2.651,2.651,0,0,0,.037-.432c0-1.426-.863-1.945-1.6-1.945-1.634,0-1.872,1.815-1.946,2.377Z" fill="#804f21"/>
      <path id="Path_6623" data-name="Path 6623" d="M549.234,580.089a9.032,9.032,0,0,1,.239,1.793c.936-1.21,1.762-1.793,2.827-1.793,1.689,0,2.294,1.383,2.294,2.83v3.2c0,2.356,0,2.484,1.212,2.484v.476h-3.763V588.6c1.266,0,1.266-.128,1.266-2.484V583.33c0-1.967-.587-2.593-1.486-2.593-1.047,0-1.726,1.037-2.35,1.859v3.521c0,2.333,0,2.484,1.211,2.484v.476h-3.708V588.6c1.212,0,1.212-.128,1.212-2.484v-2.571c0-2.356,0-2.485-1.212-2.485v-.475a11.214,11.214,0,0,0,2.019-.5Z" fill="#804f21"/>
      <path id="Path_6624" data-name="Path 6624" d="M577.55,583.373c-.018.3-.037.648-.037,1.016,0,1.1.037,4.472,2.405,4.472a2.39,2.39,0,0,0,2.331-1.728h.422a3.1,3.1,0,0,1-2.992,2.29c-1.615,0-3.653-1.448-3.653-4.6,0-2.679,1.506-4.731,3.58-4.731a3.194,3.194,0,0,1,3.065,3.284Zm3.543-.432a2.666,2.666,0,0,0,.036-.432c0-1.426-.863-1.945-1.6-1.945-1.633,0-1.872,1.815-1.946,2.377Z" fill="#804f21"/>
      <path id="Path_6625" data-name="Path 6625" d="M605.517,586.117c0,2.2,0,2.484,1.083,2.484h.257v.476h-3.891V588.6c1.266,0,1.266-.085,1.266-2.484v-2.441c0-2.4,0-2.486-1.266-2.486v-.474a12.2,12.2,0,0,0,2.074-.584l.128-.043a8.385,8.385,0,0,1,.257,2.268c.569-1.6,1.67-2.268,2.35-2.268a1.344,1.344,0,0,1,1.285,1.318.68.68,0,0,1-.606.734c-.44,0-.569-.432-.642-.648-.092-.237-.221-.648-.514-.648-.515,0-1.781,1.037-1.781,3.241Z" fill="#804f21"/>
      <path id="Path_6626" data-name="Path 6626" d="M635.136,582.314a3.453,3.453,0,0,0,.257-.842c0-.455-.661-.562-.991-.562v-.476h2.57v.476c-.918.064-1.1.605-1.561,1.9l-3.267,9.29c-.477,1.34-.918,2.291-1.633,2.291a.574.574,0,0,1-.57-.626,1.414,1.414,0,0,1,.937-1.21,1.674,1.674,0,0,0,1.083-1.21l.7-2.053-2.753-6.957c-.423-1.059-.569-1.4-1.432-1.426v-.476h3.377v.476c-.459.043-.9.064-.9.432a5.931,5.931,0,0,0,.349,1.058l2.019,5.057Z" fill="#804f21"/>
      <path id="Path_6627" data-name="Path 6627" d="M690.595,589.077H680.26V588.6h.367c1.542,0,1.542-.474,1.542-3.24v-7.022c0-2.9-.037-3.09-1.633-3.09h-.276v-.476H686.1v.476h-.532c-1.6,0-1.634.173-1.634,3.09v7.475c0,2.485,0,2.787,1.817,2.787h.918c2.111,0,2.754-.474,3.6-3.737h.4Z" fill="#804f21"/>
      <path id="Path_6628" data-name="Path 6628" d="M713.128,586.117c0,1.88-.129,2.484,1.009,2.484h.275v.476h-3.964V588.6h.312c.826,0,1.083-.128,1.083-1.641V583.5c0-2.377-.11-2.377-1.4-2.377v-.476a11.832,11.832,0,0,0,2.5-.561h.184Zm-.826-11.56a1.147,1.147,0,0,1,0,2.248,1.055,1.055,0,0,1-.937-1.123A1.043,1.043,0,0,1,712.3,574.557Z" fill="#804f21"/>
      <path id="Path_6629" data-name="Path 6629" d="M738.1,580.91H736.58v6.136c0,1.34.184,1.555,1.083,1.555h.386v.476h-3.965V588.6c1.138,0,1.212-.237,1.212-1.641v-6.05h-1.359v-.476H735.3v-1.62c0-2.118.881-4.257,3.157-4.257,1.634,0,2.331,1.038,2.331,1.578a.671.671,0,0,1-.6.713c-.478,0-.716-.541-.863-.865-.165-.345-.441-.95-1.138-.95-1.579,0-1.6,2.377-1.6,2.96v2.441H738.1Z" fill="#804f21"/>
      <path id="Path_6630" data-name="Path 6630" d="M759.959,583.373c-.018.3-.036.648-.036,1.016,0,1.1.036,4.472,2.405,4.472a2.389,2.389,0,0,0,2.33-1.728h.423a3.1,3.1,0,0,1-2.992,2.29c-1.615,0-3.653-1.448-3.653-4.6,0-2.679,1.505-4.731,3.579-4.731a3.2,3.2,0,0,1,3.066,3.284Zm3.543-.432a2.546,2.546,0,0,0,.037-.432c0-1.426-.863-1.945-1.6-1.945-1.634,0-1.872,1.815-1.946,2.377Z" fill="#804f21"/>
    </g>
    <g id="Group_477" data-name="Group 477">
      <path id="Path_6631" data-name="Path 6631" d="M841.62,416.794l-8.434-4.884-33.3,9.324,10.655-40.4h5.327l4.884-9.323,12.43-4.44v-7.1h5.328l3.106-5.327-8.434-23.529-12.43,7.1H810.545V324.01a72.513,72.513,0,0,0-1.11-13.1,21.485,21.485,0,0,0-5.327-10.655,30.756,30.756,0,0,1-6.437-12.209h-7.548l-10.21,28.857v11.987a9.734,9.734,0,0,0,1.331,4.661,20.282,20.282,0,0,0,3.552,4.661v9.323H770.812a26.452,26.452,0,0,0-12.874,3.551q-6.441,3.56-12.653,6.216t-11.542,4.883l-5.327,9.323V387.05a12.731,12.731,0,0,0,2.663,7.325,31.047,31.047,0,0,0,5.327,5.993l25.3-4.883h18.2l-2.664,19.089a143.239,143.239,0,0,0-13.984,9.323,77.758,77.758,0,0,1-13.985,8.435q-7.553,3.558-15.537,7.1a43.191,43.191,0,0,1-17.757,3.552l-7.548,19.533,4.883,27.968,10.211,4.883,10.211-4.883,10.21-16.426q7.545,2.226,11.321-3.551a21.809,21.809,0,0,1,10.433-8.436,75.812,75.812,0,0,1,11.764-3.772c3.4-.736,30.258-19.756,34.406-19.756a62.36,62.36,0,0,0,12.652-1.332,64.286,64.286,0,0,0,11.764-3.552,29.418,29.418,0,0,0,10.211-7.547v-4.882Z" fill="#804f21"/>
      <path id="Path_6632" data-name="Path 6632" d="M829.27,581.781l-15.1-4.439-5.327-13.763a17.9,17.9,0,0,1,6.437-7.1,17.2,17.2,0,0,1,8.879-2.219,18.072,18.072,0,0,0,10.433-3.774q5.328-3.766,10.21-1.11v-4.882L890.533,518.3l23.529-21.309,2.221-9.323h5.327V485h4.883l4.883,2.664v18.645l-22.641,16.87-27.968,18.646L837.26,579.561Z" fill="#804f21"/>
      <path id="Path_6633" data-name="Path 6633" d="M855.018,411.91l-5.327-2.219-2.22-23.973,15.094-16.426,23.085-2.22v-4.883l17.758-4.883V336l-2.664-11.987H878.1v-4.883h-4.884V297.818l4.884-9.768,38.18-14.206,7.546-35.515,15.094-2.663,13.319,7.1,12.43,26.636a113.733,113.733,0,0,1,15.538,1.11,120.48,120.48,0,0,0,16.647,1.11h17.758q9.093,0,11.765,7.1l4.883,11.986h-23.085l-27.524-4.883-23.529,7.548v4.439h-4.883V302.7l-30.632,7.1v7.1l7.547,21.309-2.664,7.1h12.43L959.788,336a24.025,24.025,0,0,1,1.333-8.435,24.02,24.02,0,0,0,1.332-8.435V308.472q0-5.764,7.546-3.551a54.262,54.262,0,0,1,7.769,9.544,19.843,19.843,0,0,1,2.886,10.655v13.1a28.82,28.82,0,0,0,2.219,11.987q17.751,2.226,34.406,4.661t34.627,3.773a292.886,292.886,0,0,1,35.738,4.884q17.75,3.56,33.3,7.991l2.219,11.986a16.323,16.323,0,0,1-11.321,4.44h-41.952a207.5,207.5,0,0,0-24.417-6.882q-11.548-2.433-24.416-4.661a156.915,156.915,0,0,0-26.637-2.22H967.335l-7.547,2.22-7.546-2.22a100.777,100.777,0,0,1-20.643,2.22,32.689,32.689,0,0,0-17.537,4.661,59.99,59.99,0,0,1-17.979,7.1,56.613,56.613,0,0,0-17.98,7.326l-2.663,7.1h-4.884l-3.107,7.1Z" fill="#804f21"/>
      <path id="Path_6634" data-name="Path 6634" d="M1031.263,402.588l-20.421-9.323H983.983q-13.983,0-25.3,1.11t-24.2,2.442q-12.881,1.331-25.749,3.551l-7.991,9.323-10.211,4.883,5.328,66.591h4.883l2.664,9.323,5.327,2.22a33.455,33.455,0,0,1,12.875-2.22q7.542,0,12.43-3.552a26.855,26.855,0,0,1,11.542-4.661,46.02,46.02,0,0,0,11.543-3.329H980.21a49.289,49.289,0,0,1,10.432,1.109,50.058,50.058,0,0,1,9.989,3.33h10.211l7.99-20.865h4.884l15.1-41.286ZM990.42,452.309l-2.219,7.1-2.663,3.108-61.709-3.108,2.664-11.543,18.2-4.882h53.273Zm12.875-20.865-31.076-2.663-17.314,2.663H941.587l5.771-16.87,12.43-4.883h24.195a37.71,37.71,0,0,1,10.211,1.11q3.767,1.113,9.1,5.993Z" fill="#804f21"/>
      <path id="Path_6635" data-name="Path 6635" d="M1084.51,603.5c-11.841,0-22.393-5.431-32.6-9.572a302.467,302.467,0,0,0-30.853-10.655q-15.546-4.432-30.854-9.1a194.2,194.2,0,0,1-30.411-12.208V557.08l-12.43-4.439V540.654l20.012-44.332,7.547-2.22,4.884,16.426-12.466,27.906A58.306,58.306,0,0,0,990.42,554.86a151.738,151.738,0,0,0,25.749,7.324,248.615,248.615,0,0,0,26.858,3.552q13.986,1.114,29.078,1.111a30.331,30.331,0,0,1,11.765-2.221h11.543a17.132,17.132,0,0,0,10.211-3.772,55.861,55.861,0,0,1,9.988-5.994l2.663-7.1h2.665l7.034-11.626,11.813,3.6,4.237,15.133,2.664,14.65-8.461,26.442-20.422,7.547Z" fill="#804f21"/>
    </g>
  </g>
</svg>
