<svg xmlns="http://www.w3.org/2000/svg" width="383.738" height="235.762" viewBox="0 0 383.738 235.762">
  <g id="title" transform="translate(-192.131 -177.373)">
    <g id="Group_40" data-name="Group 40">
      <path id="Path_545" data-name="Path 545" d="M211.84,385.953c-.329,0-1.244.033-1.9.057-.341.012-.609.022-.674.022s-.2-.01-.377-.021c-.38-.024-.911-.058-1.373-.058-1.278,0-1.315.942-1.315,1.049a1.112,1.112,0,0,0,.823,1.043,1.865,1.865,0,0,1-.318.851c-.4.669-2.5,4.279-3.7,6.451-1.321-2.25-3.743-6.425-4.058-7a3.618,3.618,0,0,1-.177-.372,1.027,1.027,0,0,0,.685-.951,1.1,1.1,0,0,0-1.233-1.075c-.746,0-1.479.04-1.915.064-.154.008-.265.015-.317.015s-.295-.009-.612-.02c-.676-.024-1.676-.059-2.014-.059a1.121,1.121,0,0,0-1.234,1.075,1.092,1.092,0,0,0,1.154,1.074,1.967,1.967,0,0,1,.65.276,6.332,6.332,0,0,1,1.56,1.722c.958,1.423,4.385,7.071,4.6,7.514a4.77,4.77,0,0,1,.531,2.421v2.283c0,.412,0,1.507-.077,2.59a1.264,1.264,0,0,1-.165.68,5.176,5.176,0,0,1-.568.062,1.052,1.052,0,0,0-1.1,1.048c0,.113.037,1.1,1.313,1.1.574,0,1.6-.04,2.191-.064l.415-.015.282.01c.585.022,1.845.069,2.979.069a1.146,1.146,0,0,0,1.314-1.1,1.052,1.052,0,0,0-1.1-1.048c-.171,0-.708-.046-1.069-.1-.163-.022-.286-.038-.328-.642-.078-1.085-.078-2.18-.078-2.592v-2.283a5.489,5.489,0,0,1,.33-2.312,85.777,85.777,0,0,1,4.936-8.218,4.289,4.289,0,0,1,1.18-1.16,1.676,1.676,0,0,1,.762-.243,1.132,1.132,0,0,0,1.234-1.1A1.111,1.111,0,0,0,211.84,385.953Zm-8.1,14.082h0c0-.329,0-.65.021-.973C203.744,399.385,203.744,399.706,203.744,400.035Zm3.743-12.769c-.239-.079-.4-.132-.4-.264,0,.132.16.185.4.264.319.079.424.371.424.744C207.911,387.637,207.806,387.345,207.487,387.266Z" fill="#804f21"/>
      <path id="Path_546" data-name="Path 546" d="M232.507,388.953c-.476,0-1.15.024-1.587.04-.188.007-.328.013-.379.013l-.3-.009c-.5-.015-1.446-.044-2.219-.044-1.224,0-1.26.964-1.26,1.074a1.089,1.089,0,0,0,1.074,1.074,6.5,6.5,0,0,1,.676.045.742.742,0,0,1,.146.032,2.352,2.352,0,0,0,.017.371c.027.758.053,1.463.053,4.821v2.842c0,2.528-.325,3.947-1.121,4.9a3.921,3.921,0,0,1-2.93,1.274,3.689,3.689,0,0,1-2.879-.989c-.747-.669-1.434-1.719-1.434-4.865V396.37c0-3.479,0-4.106.051-4.789a2.528,2.528,0,0,1,.057-.436,1.984,1.984,0,0,1,.437-.044,1.1,1.1,0,0,0,1.1-1.074c0-.11-.036-1.074-1.287-1.074-.451,0-1.225.022-1.777.038-.289.008-.513.015-.586.015s-.232-.005-.468-.012c-.561-.016-1.47-.041-2.213-.041-1.225,0-1.26.964-1.26,1.074a1.1,1.1,0,0,0,1.074,1.074,6.5,6.5,0,0,1,.675.045.609.609,0,0,1,.159.037h0a2.36,2.36,0,0,0,.033.4c.051.684.051,1.311.051,4.79v3.319c0,3.046.717,5.073,2.326,6.57a9.011,9.011,0,0,0,10.929-.03c2.228-1.91,2.486-5.162,2.486-7.441V396.37l-.005-2.549c0-1.334-.006-1.784.028-2.241a2.208,2.208,0,0,1,.059-.432l.061-.013a1.9,1.9,0,0,1,.4-.034,1.088,1.088,0,0,0,1.074-1.074C233.766,389.917,233.731,388.953,232.507,388.953Zm-4.858,1.074a.2.2,0,0,0,.185.185A.2.2,0,0,1,227.649,390.027Zm-6.529,0a.227.227,0,0,1-.213.185A.227.227,0,0,0,221.12,390.027Zm-5.814,0a.222.222,0,0,0,.185.185A.222.222,0,0,1,215.306,390.027Zm.981.238c-.092-.012-.239-.026-.388-.036.149.01.3.023.388.036a1.389,1.389,0,0,1,.467.139A1.389,1.389,0,0,0,216.287,390.265Zm1.01,9.424h0c0,.412.014.8.041,1.156C217.311,400.485,217.3,400.1,217.3,399.689Zm2.043,5.92a5.959,5.959,0,0,1-.612-.659,5.959,5.959,0,0,0,.612.659,5,5,0,0,0,.649.51A5,5,0,0,1,219.34,405.609Zm.608-15.208a1,1,0,0,1,.374-.136,3.167,3.167,0,0,1,.342-.046,3.167,3.167,0,0,0-.342.046A1,1,0,0,0,219.948,390.4Zm8.684-.136c-.093-.012-.239-.026-.389-.036.15.01.3.023.389.036a1.4,1.4,0,0,1,.466.139A1.4,1.4,0,0,0,228.632,390.265Zm3.476,0a1.338,1.338,0,0,0-.308.1,1.338,1.338,0,0,1,.308-.1,3.167,3.167,0,0,1,.342-.046A3.167,3.167,0,0,0,232.108,390.265Zm.584-.053a.2.2,0,0,0,.186-.185A.2.2,0,0,1,232.692,390.212Z" fill="#804f21"/>
      <path id="Path_547" data-name="Path 547" d="M253.861,405.65a2.322,2.322,0,0,1-.663-.093c-.243-.076-.7-.222-1.435-1.964-.749-1.788-2.129-5.186-3.335-8.157-1.109-2.73-2.066-5.088-2.274-5.557l-.128-.282c-.177-.4-.472-1.069-1.243-1.069-.818,0-1.106.732-1.384,1.44l-5.5,14.125c-.483,1.219-.775,1.452-1.245,1.51a5.249,5.249,0,0,1-.581.047,1.089,1.089,0,0,0-1.1,1.074c0,.11.037,1.074,1.34,1.074.651,0,1.4-.036,1.9-.06.224-.01.391-.019.464-.019.1,0,.364.013.673.028.488.023,1.086.051,1.424.051a1.109,1.109,0,0,0,1.235-1.074,1.066,1.066,0,0,0-1.128-1.074h-.093a4.766,4.766,0,0,1,.26-.917l1.185-3.226h4.5l1.8,4.45a.99.99,0,0,0-.315.741c0,.96,1.014,1.012,1.5,1.037l.159.008c1.076.036,2.4.055,3.741.055,1.38,0,1.419-.964,1.419-1.074A1.106,1.106,0,0,0,253.861,405.65Zm-13.987.279a4.641,4.641,0,0,1,.345-1.514A4.646,4.646,0,0,0,239.874,405.929Zm4.543-10.526,1.27,3.4h-2.466Zm5.066,10.526-2.1-5.178a.27.27,0,0,0-.076-.106.244.244,0,0,0-.138-.026h-5.388a.246.246,0,0,0-.239.185.246.246,0,0,1,.239-.185h5.388a.244.244,0,0,1,.138.026.27.27,0,0,1,.076.106l2.1,5.178a.5.5,0,0,1,.037.341A.5.5,0,0,0,249.483,405.929Z" fill="#804f21"/>
      <path id="Path_548" data-name="Path 548" d="M276.495,388.953c-.64,0-1.2.023-1.587.039-.182.007-.32.014-.4.014s-.257-.006-.488-.014c-.495-.016-1.237-.039-1.955-.039-1.243,0-1.34.8-1.34,1.048a1.065,1.065,0,0,0,1.076,1.1,6.6,6.6,0,0,1,.978.092c.07.055.134.344.15,1.239l.19,9.008c-1.1-1.165-2.555-2.708-3.944-4.146-2.47-2.542-4.838-5.032-6.206-6.471-.64-.672-1.064-1.118-1.183-1.237l-.1-.1a2.168,2.168,0,0,0-1.436-.853c-1.208,0-1.208,1.474-1.208,2.029v12.928a11.865,11.865,0,0,1-.1,1.983,3.048,3.048,0,0,1-.628.075,1.075,1.075,0,0,0-1.074,1.074c0,.11.036,1.074,1.262,1.074.752,0,1.464-.038,1.905-.062.169-.01.292-.017.35-.017s.156.006.3.014c.436.024,1.2.065,2.165.065,1.278,0,1.315-.964,1.315-1.074a1.076,1.076,0,0,0-1.077-1.074,4.673,4.673,0,0,1-.952-.106c-.057-.057-.19-.369-.229-1.738l-.208-8.3c1.19,1.259,2.826,2.977,4.464,4.694,2.432,2.538,5.855,5.913,6.133,6.159,1.373,1.261,1.745,1.6,2.367,1.6,1.074,0,1.074-.891,1.074-2.509l.054-13.215a6.814,6.814,0,0,1,.054-1.084l.06-.014a1.728,1.728,0,0,1,.371-.035h.007a1.143,1.143,0,0,0,1.153-1.1C277.808,389.826,277.745,388.953,276.495,388.953Zm-15.371,4.233h0l.251.274Zm11.814-2.867a6.608,6.608,0,0,0-.66-.083,6.571,6.571,0,0,1,.66.083c.537.1.747.408.829,1.172C273.684,390.727,273.475,390.418,272.938,390.319Zm.319,15.371c.651.6,1.035.941,1.287,1.137C274.292,406.632,273.908,406.287,273.257,405.69Zm2.84-15.425a1.087,1.087,0,0,0-.453.185,1.087,1.087,0,0,1,.453-.185,2.684,2.684,0,0,1,.339-.046A2.684,2.684,0,0,0,276.1,390.265Z" fill="#804f21"/>
      <path id="Path_549" data-name="Path 549" d="M311.709,389.077c.024-.687.056-1.6.056-2.1,0-1.172-.918-1.206-1.023-1.206a1.923,1.923,0,0,0-.417.059c-.109.024-.256.056-.443.081a9.938,9.938,0,0,1-1.768.124h-9.953c-.269,0-1.235-.048-2.007-.127a1.694,1.694,0,0,1-.65-.168,1.434,1.434,0,0,0-.609-.157c-.742,0-.983.731-1.1,1.082-.007.021-.024.076-.029.1s-.611,2.533-.611,2.976a1.042,1.042,0,0,0,1.023,1.127,1.14,1.14,0,0,0,1.1-.842,3.833,3.833,0,0,1,.365-.65c.16-.241.4-.419,1.977-.446l3.024-.041v10.329c0,2.464,0,4.592-.125,5.655a3.3,3.3,0,0,1-.15.712,3.1,3.1,0,0,1-.535.071,1.052,1.052,0,0,0-1.1,1.048c0,.113.037,1.1,1.316,1.1.573,0,1.6-.04,2.191-.064l.414-.015.279.01c.584.022,1.847.069,2.982.069a1.146,1.146,0,0,0,1.313-1.1,1.052,1.052,0,0,0-1.1-1.048c-.171,0-.708-.046-1.068-.1a.376.376,0,0,1-.134-.034c-.02-.02-.09-.127-.144-.64-.127-1.074-.127-3.2-.127-5.666V388.885l2.441.039c.87.019,2.343.128,2.4.66l.024.281c.082,1.1.724,1.264,1.1,1.264a1.121,1.121,0,0,0,1.074-1.235C311.684,389.788,311.7,389.472,311.709,389.077Zm-17.265.632c-.079.211-.16.264-.265.264-.081,0-.134-.079-.134-.238,0,.159.053.238.134.238.105,0,.186-.053.265-.264a4.6,4.6,0,0,1,.451-.823A4.6,4.6,0,0,0,294.444,389.709Zm6.186,16.723c-.022.005-.051.008-.074.013.023-.005.052-.008.074-.013a.672.672,0,0,0,.329-.165A.672.672,0,0,1,300.63,406.432Zm.9-18.449-3.928.053,3.928-.054Zm2.23,0h0l3.344.054Zm7.034,1.911a.533.533,0,0,1-.052.263.533.533,0,0,0,.052-.263c0-.109.012-.435.026-.842C310.807,389.459,310.8,389.785,310.8,389.894Z" fill="#804f21"/>
      <path id="Path_550" data-name="Path 550" d="M330.349,405.65a2.328,2.328,0,0,1-.664-.093c-.242-.076-.7-.222-1.435-1.964-.749-1.787-2.128-5.184-3.334-8.155-1.109-2.731-2.067-5.09-2.275-5.559l-.128-.282c-.176-.4-.472-1.069-1.243-1.069-.818,0-1.106.732-1.383,1.44l-5.5,14.125c-.483,1.219-.774,1.452-1.245,1.51a5.251,5.251,0,0,1-.58.047,1.089,1.089,0,0,0-1.1,1.074c0,.11.037,1.074,1.34,1.074.651,0,1.4-.036,1.9-.06.223-.01.39-.019.463-.019.1,0,.364.013.673.028.489.023,1.086.051,1.425.051a1.108,1.108,0,0,0,1.234-1.074,1.066,1.066,0,0,0-1.128-1.074h-.093a4.838,4.838,0,0,1,.26-.917l1.185-3.226h4.5l1.8,4.45a.989.989,0,0,0-.314.741c0,.96,1.014,1.012,1.5,1.037l.16.008c1.075.036,2.4.055,3.74.055,1.38,0,1.42-.964,1.42-1.074A1.106,1.106,0,0,0,330.349,405.65ZM312.8,406.909c-.292,0-.452-.053-.452-.185,0,.132.16.185.452.185Zm8.282-13.563,2.31,6.183-2.31-6.183c-.066-.173-.132-.259-.2-.259C320.953,393.087,321.019,393.173,321.085,393.346ZM320.9,395.4l1.27,3.4h-2.466Zm2.969,5.348a.26.26,0,0,0-.076-.106.242.242,0,0,0-.137-.026h-5.389a.221.221,0,0,0-.139.043.221.221,0,0,1,.139-.043h5.389a.242.242,0,0,1,.137.026.26.26,0,0,1,.076.106l2.1,5.178Z" fill="#804f21"/>
      <path id="Path_551" data-name="Path 551" d="M341.037,405.65a8.765,8.765,0,0,1-.926-.1l-.037-.006a3.791,3.791,0,0,1-.067-.417c-.1-.872-.1-2.682-.1-4.778V396.37c0-3.493,0-4.122.027-4.821a2.454,2.454,0,0,1,.05-.4c.017-.005.04-.011.068-.017a1.72,1.72,0,0,1,.377-.034h.024a1.1,1.1,0,0,0,1.074-1.074c0-.11-.035-1.074-1.26-1.074-.524,0-1.468.027-1.994.043l-.346.01-.377-.011c-.528-.016-1.429-.042-1.981-.042-1.226,0-1.262.964-1.262,1.074a1.089,1.089,0,0,0,1.075,1.074,3.376,3.376,0,0,1,.512.057,1.952,1.952,0,0,1,.061.418c.051.688.051,1.315.051,4.794v3.982c0,1.715-.014,3.808-.126,4.785-.01.087-.038.318-.071.462a2.17,2.17,0,0,1-.374.051,1.062,1.062,0,0,0-1.074,1.074,1.107,1.107,0,0,0,1.259,1.074c.514,0,1.4-.039,1.929-.063l.387-.016.22.009c.515.022,1.67.07,2.7.07a1.122,1.122,0,0,0,1.26-1.074A1.062,1.062,0,0,0,341.037,405.65Zm-.4-15.623a.223.223,0,0,1-.185.185A.223.223,0,0,0,340.638,390.027Zm-5.442,0a.2.2,0,0,0,.186.185A.2.2,0,0,1,335.2,390.027Zm.424,16.882a.669.669,0,0,1-.275-.043.669.669,0,0,0,.275.043Zm.48-16.616c-.133-.027-.273-.047-.4-.06.126.013.266.033.4.06a.8.8,0,0,1,.442.23A.8.8,0,0,0,336.1,390.293Zm.795,10.059c0,.541,0,1.056,0,1.54,0-.484,0-1,0-1.54V396.37c0-1.97,0-3.033-.009-3.714.009.681.009,1.744.009,3.714Zm2.343-9.711a.877.877,0,0,1,.631-.376,2.6,2.6,0,0,1,.332-.046,2.6,2.6,0,0,0-.332.046A.88.88,0,0,0,339.238,390.641Z" fill="#804f21"/>
    </g>
    <g id="Group_41" data-name="Group 41">
      <path id="Path_552" data-name="Path 552" d="M275.511,328.961l-7.395-7.4-3.3,4.761h-58.6a23.622,23.622,0,0,0-.634-2.711l-.033-.094c-.234-.543-.723-1.671-1.648-1.535s-1.123,1.341-1.247,2.484a7.891,7.891,0,0,1-3.839,6.418c-2.582,1.547-3.891,3.308-3.891,5.233a4.22,4.22,0,0,0,4.214,4.638l.076,0a6.45,6.45,0,0,0,5.965-3.593,15.6,15.6,0,0,0,1.368-6.14h57.539l-2.219,7.3c-.38,1.14-.686,2.294.1,2.778a.959.959,0,0,0,.512.149,2.875,2.875,0,0,0,1.709-1.054l6.756-5.742c3.252.247,5.079-.209,5.739-1.426C277.237,332.005,276.854,330.673,275.511,328.961Z" fill="#804f21"/>
      <path id="Path_553" data-name="Path 553" d="M229.561,303.625H203.29v4.493h63.079v-4.493H240.1v-4.017h34.717v-4.493H240.1v-7.653H229.561v7.653H194.844v4.493h34.717Z" fill="#804f21"/>
      <path id="Path_554" data-name="Path 554" d="M240.1,361.658h27.487v-4.493H240.1v-7.052L253.957,348a14.908,14.908,0,0,1,3.087,3.8c1.313,2.108,2.835,3.177,4.524,3.177a3.236,3.236,0,0,0,3.588-3.588c0-5.4-4.243-8.414-16.253-10.621,0,0-3.31-.768-3.558.462-.243,1.207,3.162,2.72,4.444,3.542-9.929.56-18.234.867-24.747.915l5.26-5.813s.59-.507,1.2-1.089h28.405V334.3h-51.22v4.493h12.481L218.2,345.7H200.779l1.785,5.634c1.043,2.612,2.3,4.187,3.765,4.293s2.94-.005,4.142-2.793l19.09-1.591v5.921H202.075v4.493h27.486v3.314H193.606v4.493h82.446v-4.493H240.1Z" fill="#804f21"/>
      <path id="Path_555" data-name="Path 555" d="M260.493,323.745v-12.67H209.166v12.67ZM215.777,316.1h38.105v2.62H215.777Z" fill="#804f21"/>
    </g>
    <g id="Group_42" data-name="Group 42">
      <path id="Path_556" data-name="Path 556" d="M380.337,293.467l-5.406-3.13-21.341,5.976,6.829-25.894,14.512-8.821,3.414-4.553,1.992-3.414-5.406-15.081-7.967,4.553h-6.545V234a46.5,46.5,0,0,0-.711-8.394,13.776,13.776,0,0,0-3.415-6.829,19.718,19.718,0,0,1-4.126-7.825H347.33l-6.544,18.495v7.683a6.235,6.235,0,0,0,.853,2.988,13.023,13.023,0,0,0,2.276,2.988v5.975c-3.228,0-22.67,5.121-25.324,6.26s-5.122,2.183-7.4,3.13l-3.414,5.976V274.4a8.158,8.158,0,0,0,1.706,4.695,19.888,19.888,0,0,0,3.415,3.842l16.219-3.13h11.667l-1.708,12.235a91.907,91.907,0,0,0-8.963,5.975,49.841,49.841,0,0,1-8.963,5.407q-4.842,2.28-9.959,4.553a27.691,27.691,0,0,1-11.382,2.276l-4.837,12.52L298.1,340.7l6.544,3.13,6.545-3.13s25.845-20.154,28.027-20.629,19.394-12.663,22.053-12.663a39.912,39.912,0,0,0,8.109-.854,41.1,41.1,0,0,0,7.54-2.276,18.869,18.869,0,0,0,6.545-4.837v-3.129Z" fill="#804f21"/>
      <path id="Path_557" data-name="Path 557" d="M372.421,399.215l-9.675-2.845-3.415-8.821A11.474,11.474,0,0,1,363.457,383a11.035,11.035,0,0,1,5.691-1.423,11.58,11.58,0,0,0,6.687-2.418,75.283,75.283,0,0,1,6.544-3.841l29.309-16.788,15.08-13.659,1.423-5.975h3.415v-1.707h3.129l3.131,1.707v11.951l-14.512,10.813-17.926,11.95-27.886,24.186Z" fill="#804f21"/>
      <path id="Path_558" data-name="Path 558" d="M388.924,290.337l-3.414-1.423-1.423-15.365,9.674-10.529,14.8-4.552,11.382-3.13V241.68L418.232,234l-17.586.5-.056-17.29,3.13-6.26,24.471-9.106,4.838-22.763,9.674-1.707,8.536,4.552L459.207,199a72.915,72.915,0,0,1,9.959.711,77.245,77.245,0,0,0,10.67.712h11.381q5.829,0,7.541,4.552l3.13,7.683h-14.8l-33.407,1.813-22.079,10.423v4.552l4.186,20.705,20.284-8.469a15.416,15.416,0,0,1,.854-5.406,15.387,15.387,0,0,0,.854-5.407v-6.829q0-3.694,4.837-2.276a34.771,34.771,0,0,1,4.98,6.117,12.726,12.726,0,0,1,1.849,6.829v8.4a18.454,18.454,0,0,0,1.423,7.682q11.376,1.428,22.052,2.988t22.194,2.418a187.517,187.517,0,0,1,22.906,3.131q11.377,2.28,21.341,5.122l1.423,7.682a10.466,10.466,0,0,1-7.256,2.846h-26.89a132.749,132.749,0,0,0-15.65-4.411q-7.4-1.56-15.649-2.988a100.552,100.552,0,0,0-17.073-1.423H451.239a64.571,64.571,0,0,1-13.231,1.423,20.948,20.948,0,0,0-11.24,2.988,38.456,38.456,0,0,1-11.523,4.552c-4.46,1.045-16.362,9.248-16.362,9.248l-1.992,4.553Z" fill="#804f21"/>
      <path id="Path_559" data-name="Path 559" d="M501.888,284.361,488.8,278.386H471.584q-8.963,0-16.219.711t-15.507,1.565q-8.256.854-16.5,2.277l-5.122,5.975-6.544,3.13,3.414,42.681,4.837,5.976,3.415,1.423a21.45,21.45,0,0,1,8.252-1.423,13.19,13.19,0,0,0,7.967-2.277,17.208,17.208,0,0,1,7.4-2.987,29.534,29.534,0,0,0,7.4-2.134h14.8a31.6,31.6,0,0,1,6.686.711,32.138,32.138,0,0,1,6.4,2.134H488.8l8.252-13.373,9.675-26.462ZM475.71,316.23l-1.423,4.553-1.707,1.992-39.551-1.992,1.706-7.4,11.667-3.13h34.145Zm8.252-13.374-19.918-1.706-11.1,1.706H444.41l3.7-10.812,7.967-3.13h15.508a24.2,24.2,0,0,1,6.545.711,16.427,16.427,0,0,1,5.833,3.842Z" fill="#804f21"/>
      <path id="Path_560" data-name="Path 560" d="M536.016,413.135c-7.589,0-14.352-3.481-20.9-6.135a193.775,193.775,0,0,0-19.775-6.829q-9.965-2.842-19.776-5.834a124.448,124.448,0,0,1-19.492-7.824l-7.967-5.975v-7.683l12.827-28.415,4.837-1.423,3.13,10.528-7.99,17.887a37.364,37.364,0,0,0,14.8,10.528,97.247,97.247,0,0,0,16.5,4.7,159.484,159.484,0,0,0,17.214,2.276c5.976.476,30.2-.134,33.577-.711a25.485,25.485,0,0,0,16.361-10.813l4.508-7.451,7.572,2.3,4.423,19.09L570.446,408.3l-13.089,4.837Z" fill="#804f21"/>
    </g>
    <g id="Group_43" data-name="Group 43">
      <rect id="Rectangle_4" data-name="Rectangle 4" width="64.573" height="4.493" transform="translate(203.479 198.92)" fill="#804f21"/>
      <path id="Path_561" data-name="Path 561" d="M277.862,225.507v-4.493H193.669v4.493H221.1v4.022c0,14-4.178,25.281-12.416,33.519a53.032,53.032,0,0,1-13.848,9.689l-.136.087c-.4.319-1.341,1.065-1.036,1.94.3.852,1.441.852,1.871.852h.1l.1-.026c9.694-2.606,17.493-6.81,23.178-12.495,7.033-7.033,11-19.244,11.786-36.3h9.015v38.561a5.766,5.766,0,0,0,4.8,6.023,28.705,28.705,0,0,0,5.807.374c5.553,0,10.3-.118,14.11-.353a62.944,62.944,0,0,0,9.246-1.423l.088-.025c2.123-.762,3.329-1.728,3.686-2.955a3.521,3.521,0,0,0-.875-3.172l-.065-.073a20.751,20.751,0,0,0-2.933-2.322V246.06l-.235-.228a1.21,1.21,0,0,0-1.795.006l-.151.151-.053.205c-2.059,8.011-4.13,13.457-6.157,16.189a3.084,3.084,0,0,1-2.265.79c-4.151.233-7.327.35-9.44.35a12.9,12.9,0,0,1-3.616-.311l-.12-.04h-.128a.483.483,0,0,1-.238-.035.506.506,0,0,1-.037-.241V225.507Z" fill="#804f21"/>
    </g>
  </g>
</svg>
