<svg xmlns="http://www.w3.org/2000/svg" width="612.324" height="46.356" viewBox="0 0 612.324 46.356">
  <g id="title7" transform="translate(-71.219 -2155.646)">
    <g id="Group_431" data-name="Group 431" transform="translate(-13 -6881)">
      <path id="Path_3562" data-name="Path 3562" d="M84.219,9038.183h19.917v3.4H87.691v10.892h16.3v3.4h-16.3v13.656h16.3v3.4H84.219Z" fill="#612528"/>
      <path id="Path_3563" data-name="Path 3563" d="M110.8,9047.232h3.307v4.606a13.85,13.85,0,0,1,4.395-3.958,10.806,10.806,0,0,1,5.245-1.311,9.111,9.111,0,0,1,5.115,1.465,8.73,8.73,0,0,1,3.3,3.946,20.852,20.852,0,0,1,1.064,7.726v13.231h-3.308v-12.263a30.25,30.25,0,0,0-.368-5.931,6.516,6.516,0,0,0-2.206-3.839,6.656,6.656,0,0,0-4.253-1.288,8.152,8.152,0,0,0-5.376,1.985,9.293,9.293,0,0,0-3.131,4.914,34.168,34.168,0,0,0-.473,6.993v9.428H110.8Z" fill="#612528"/>
      <path id="Path_3564" data-name="Path 3564" d="M141.122,9047.232h3.355v29.581a7.608,7.608,0,0,1-1.169,4.713,3.867,3.867,0,0,1-3.2,1.477,10.747,10.747,0,0,1-3.78-.8v-2.977a5.288,5.288,0,0,0,2.387.686,2.184,2.184,0,0,0,2.008-1.111,6.994,6.994,0,0,0,.4-2.953Zm1.63-10.586a2.606,2.606,0,0,1,1.926.8,2.662,2.662,0,0,1,.791,1.938,2.631,2.631,0,0,1-.791,1.913,2.7,2.7,0,0,1-3.852,0,2.631,2.631,0,0,1-.791-1.913,2.662,2.662,0,0,1,.791-1.937A2.6,2.6,0,0,1,142.752,9036.646Z" fill="#612528"/>
      <path id="Path_3565" data-name="Path 3565" d="M164.729,9046.57a12.729,12.729,0,0,1,9.846,4.3,13.8,13.8,0,0,1-.2,18.7,13.589,13.589,0,0,1-19.314,0,13.775,13.775,0,0,1-.2-18.677A12.727,12.727,0,0,1,164.729,9046.57Zm-.011,3.236a9.542,9.542,0,0,0-7.09,3.05,10.18,10.18,0,0,0-2.964,7.37,10.443,10.443,0,0,0,1.352,5.2,9.584,9.584,0,0,0,3.651,3.722,10.387,10.387,0,0,0,10.1,0,9.577,9.577,0,0,0,3.651-3.722,10.453,10.453,0,0,0,1.352-5.2,10.159,10.159,0,0,0-2.976-7.37A9.552,9.552,0,0,0,164.718,9049.807Z" fill="#612528"/>
      <path id="Path_3566" data-name="Path 3566" d="M182.69,9047.232h3.5l8.833,19.795,8.58-19.795h3.52l-15.334,35.109h-3.494l4.949-11.351Z" fill="#612528"/>
      <path id="Path_3567" data-name="Path 3567" d="M261.283,9044.019l-2.693,2.552a20.571,20.571,0,0,0-6.367-4.336,17.135,17.135,0,0,0-6.746-1.477,16.092,16.092,0,0,0-7.785,2.008,14.582,14.582,0,0,0-5.729,5.447,14.04,14.04,0,0,0-2.032,7.265,14.345,14.345,0,0,0,2.1,7.454,14.929,14.929,0,0,0,5.813,5.553,16.712,16.712,0,0,0,8.128,2.02,13.9,13.9,0,0,0,9.072-3.022,11.941,11.941,0,0,0,4.394-7.845H248.359v-3.355h14.98q-.046,8.057-4.784,12.794t-12.676,4.738q-9.641,0-15.264-6.569a17.462,17.462,0,0,1-4.323-11.7,17.931,17.931,0,0,1,2.481-9.191,17.65,17.65,0,0,1,6.8-6.65,19.819,19.819,0,0,1,9.782-2.4,21.749,21.749,0,0,1,8.317,1.595A24.84,24.84,0,0,1,261.283,9044.019Z" fill="#612528"/>
      <path id="Path_3568" data-name="Path 3568" d="M269.368,9047.232h3.379v3.756a11.864,11.864,0,0,1,3.189-3.319,6.3,6.3,0,0,1,3.5-1.1,6.031,6.031,0,0,1,2.929.874l-1.724,2.788a4.619,4.619,0,0,0-1.749-.449,4.783,4.783,0,0,0-3.19,1.359,8.587,8.587,0,0,0-2.339,4.217q-.615,2.2-.614,8.884v8.7h-3.379Z" fill="#612528"/>
      <path id="Path_3569" data-name="Path 3569" d="M308.027,9064.408l2.788,1.465a15.186,15.186,0,0,1-3.169,4.348,12.571,12.571,0,0,1-4.044,2.517,14.079,14.079,0,0,1-5.084.862q-6.291,0-9.838-4.123a13.907,13.907,0,0,1-3.547-9.32,13.738,13.738,0,0,1,3-8.718,12.277,12.277,0,0,1,10.192-4.868,12.683,12.683,0,0,1,10.5,4.985,13.916,13.916,0,0,1,2.838,8.789H288.535a10.467,10.467,0,0,0,2.863,7.344,9.125,9.125,0,0,0,6.835,2.863,11,11,0,0,0,3.821-.683,10.028,10.028,0,0,0,3.158-1.812A15.411,15.411,0,0,0,308.027,9064.408Zm0-6.922a10.988,10.988,0,0,0-1.928-4.229,9.125,9.125,0,0,0-3.347-2.552,10.247,10.247,0,0,0-4.376-.969,9.428,9.428,0,0,0-6.506,2.434,11,11,0,0,0-3.005,5.316Z" fill="#612528"/>
      <path id="Path_3570" data-name="Path 3570" d="M340.685,9064.408l2.788,1.465a15.2,15.2,0,0,1-3.169,4.348,12.592,12.592,0,0,1-4.044,2.517,14.085,14.085,0,0,1-5.085.862q-6.291,0-9.838-4.123a13.912,13.912,0,0,1-3.547-9.32,13.738,13.738,0,0,1,3-8.718,12.278,12.278,0,0,1,10.192-4.868,12.682,12.682,0,0,1,10.5,4.985,13.916,13.916,0,0,1,2.838,8.789H321.192a10.468,10.468,0,0,0,2.863,7.344,9.127,9.127,0,0,0,6.836,2.863,10.991,10.991,0,0,0,3.82-.683,10.027,10.027,0,0,0,3.158-1.812A15.437,15.437,0,0,0,340.685,9064.408Zm0-6.922a10.988,10.988,0,0,0-1.929-4.229,9.125,9.125,0,0,0-3.347-2.552,10.244,10.244,0,0,0-4.376-.969,9.427,9.427,0,0,0-6.506,2.434,10.986,10.986,0,0,0-3,5.316Z" fill="#612528"/>
      <path id="Path_3571" data-name="Path 3571" d="M351.7,9047.232h3.308v4.606a13.847,13.847,0,0,1,4.394-3.958,10.812,10.812,0,0,1,5.246-1.311,9.116,9.116,0,0,1,5.115,1.465,8.73,8.73,0,0,1,3.3,3.946,20.856,20.856,0,0,1,1.063,7.726v13.231h-3.307v-12.263a30.224,30.224,0,0,0-.369-5.931,6.511,6.511,0,0,0-2.206-3.839,6.655,6.655,0,0,0-4.253-1.288,8.152,8.152,0,0,0-5.376,1.985,9.293,9.293,0,0,0-3.131,4.914,34.189,34.189,0,0,0-.472,6.993v9.428H351.7Z" fill="#612528"/>
      <path id="Path_3572" data-name="Path 3572" d="M379.655,9047.232h3.5l8.834,19.795,8.579-19.795h3.52l-15.333,35.109h-3.494l4.948-11.351Z" fill="#612528"/>
      <path id="Path_3573" data-name="Path 3573" d="M424.721,9038.183h3.473v31.4h13.373v3.355H424.721Z" fill="#612528"/>
      <path id="Path_3574" data-name="Path 3574" d="M448.885,9036.646a2.73,2.73,0,0,1,0,5.46,2.74,2.74,0,0,1-2.705-2.719,2.646,2.646,0,0,1,.8-1.937A2.6,2.6,0,0,1,448.885,9036.646Zm-1.643,10.586h3.309v25.706h-3.309Z" fill="#612528"/>
      <path id="Path_3575" data-name="Path 3575" d="M469.22,9037.309v3.236a8.185,8.185,0,0,0-3.118-.779,3.034,3.034,0,0,0-1.607.391,1.726,1.726,0,0,0-.8.9,12.472,12.472,0,0,0-.165,2.706l0,3.474h5.367v2.858h-5.37l-.018,22.848h-3.308v-22.848h-3.378v-2.858h3.378v-4.018a10.868,10.868,0,0,1,.509-3.945,4.047,4.047,0,0,1,1.725-1.9,5.669,5.669,0,0,1,2.941-.721A13.964,13.964,0,0,1,469.22,9037.309Z" fill="#612528"/>
      <path id="Path_3576" data-name="Path 3576" d="M496.68,9064.408l2.788,1.465a15.2,15.2,0,0,1-3.169,4.348,12.582,12.582,0,0,1-4.044,2.517,14.085,14.085,0,0,1-5.085.862q-6.29,0-9.838-4.123a13.912,13.912,0,0,1-3.547-9.32,13.738,13.738,0,0,1,3-8.718,12.278,12.278,0,0,1,10.192-4.868,12.683,12.683,0,0,1,10.5,4.985,13.916,13.916,0,0,1,2.838,8.789h-23.13a10.462,10.462,0,0,0,2.862,7.344,9.129,9.129,0,0,0,6.836,2.863,10.991,10.991,0,0,0,3.82-.683,10.028,10.028,0,0,0,3.158-1.812A15.437,15.437,0,0,0,496.68,9064.408Zm0-6.922a10.988,10.988,0,0,0-1.929-4.229,9.125,9.125,0,0,0-3.347-2.552,10.24,10.24,0,0,0-4.376-.969,9.423,9.423,0,0,0-6.505,2.434,10.979,10.979,0,0,0-3.005,5.316Z" fill="#612528"/>
    </g>
    <rect id="Rectangle_150" data-name="Rectangle 150" width="176.63" height="1" transform="translate(506.913 2175.282)" fill="#5f2427"/>
  </g>
</svg>
