<svg xmlns="http://www.w3.org/2000/svg" width="259.85" height="193.754" viewBox="0 0 259.85 193.754">
  <g id="topic3" transform="translate(-463.943 -3139.597)">
    <g id="Group_94" data-name="Group 94">
      <path id="Path_774" data-name="Path 774" d="M479.333,3207.556v9.136q.205,11.192.616,17.76a7.317,7.317,0,0,1-3.233,2.772,12.727,12.727,0,0,1-6.211,1.437,3.728,3.728,0,0,1-2.207-.616,1.752,1.752,0,0,1-.873-1.437q.924-13.447,1.129-27.409v-45.478a141.18,141.18,0,0,0-1.334-21.557l13.345,5.338h4.209l2.567-2.875q.307-.307,1.232-1.335a12.944,12.944,0,0,1,1.385-1.385,1.451,1.451,0,0,1,.873-.36q.924,0,5.749,4.723t4.825,5.851q-1.131,1.438-4.312,1.54-9.138,17.658-13.243,23.611a33.325,33.325,0,0,1,9.907,11.857,30.583,30.583,0,0,1,3.336,13.5q0,8.009-3.182,12.063t-10.574,4.158q0-6.776-1.129-9.034A5.128,5.128,0,0,0,479.333,3207.556Zm3.388-1.642a3.055,3.055,0,0,0,3.028-1.541,11.66,11.66,0,0,0,.771-4.927q0-12.728-5.236-21.968,3.283-16.527,4.312-27h-6.263v55.435Zm17.657-12.319,2.566-3.7q.309-.408.77-1.078c.309-.444.547-.8.719-1.078a6.4,6.4,0,0,1,.616-.821,3.592,3.592,0,0,1,.667-.616.993.993,0,0,1,.513-.2q1.026,0,6.211,4.363t5.184,5.492a8.5,8.5,0,0,1-5.132,2.258v17.555q3.593,5.955,8.007,7.7t13.756,1.745q17.655,0,25.767-.308v1.232q-4.927,1.131-5.646,10.06H534.255q-10.164,0-15.039-3.7t-7.854-14.988a174.336,174.336,0,0,1-12.729,18.376,3.316,3.316,0,0,1-1.335,2.566l-6.569-13.037q4.207-1.746,11.291-5.544v-23.2h-1.95a3.533,3.533,0,0,0-2.259,1.438l-2.566-5.339a12.094,12.094,0,0,0,3.593.822Zm-6.365-27.307.925-.719q11.907,2.875,14.371,9.65,1.541,4.21-1.334,6.878-2.979,2.772-6.776.205a2.69,2.69,0,0,1-.718-.513A30.886,30.886,0,0,0,494.013,3166.288Zm51.021,6.981,2.156-3.388q2.465-3.285,3.08-3.285,1.024,0,4.876,3.49t3.85,4.62q-.309,1.642-2.67,1.642h-9.444q9.648,7.188,9.752,8.829c.068.41-.274.754-1.026,1.026l-2.053.719v23.919q0,5.647-2.413,8.264t-10.214,3.234q-.307-5.133-1.232-6.57a7.106,7.106,0,0,0-5.338-3.08v-1.335q4.824.309,6.365.309a1.453,1.453,0,0,0,1.642-1.643v-5.338h-13.14v4.414q.308,7.494.41,8.11-.308,1.232-3.182,2.567a13.761,13.761,0,0,1-5.851,1.334q-2.156,0-2.156-2.053.408-4.62.719-12.832v-7.6a138.2,138.2,0,0,0-1.438-21.558L529.635,3182h11.7l4.722-5.647h-11.5a109.1,109.1,0,0,0-15.707,1.438l-2.772-5.339a93.261,93.261,0,0,0,10.061.822h4.722v-9.65h-5.543a45.818,45.818,0,0,1-14.372,13.448l-.924-.924q7.184-7.8,10.574-22.174h-7.7q1.334,4.518-1.95,6.878t-7.083-.821q-.616-6.672-5.544-15.6l.924-.719q8.828,2.672,12.113,7.289h9.958a44.356,44.356,0,0,0,.924-11.4q14.268,2.259,14.27,3.387-.105.309-.822.514l-1.745.616a55.3,55.3,0,0,1-2.155,6.878H544.11l2.464-3.9q.308-.409.77-1.129t.719-1.129a10.044,10.044,0,0,1,.615-.873,3.074,3.074,0,0,1,.668-.668,1,1,0,0,1,.513-.205q1.024,0,5.338,4t4.312,5.133q-.514,1.746-2.772,1.745H530.56a52.456,52.456,0,0,1-3.286,6.673h14.988l2.156-3.08a7.784,7.784,0,0,0,.719-.872q.409-.564.667-.924c.17-.24.359-.478.565-.719a3.133,3.133,0,0,1,.615-.565,1,1,0,0,1,.514-.2q1.025,0,4.927,3.336t3.9,4.466q-.308,1.539-2.669,1.54H540.415v9.65Zm-2.669,18.478v-6.775h-13.14v6.775Zm-13.14,3.08v6.98h13.14v-6.98Z" fill="#231815"/>
      <path id="Path_775" data-name="Path 775" d="M587.862,3172.55l1.232-.1a53.12,53.12,0,0,1,3.9,16.682q.41,7.854-1.283,12.627a23.572,23.572,0,0,1-4.671,8.059,8.61,8.61,0,0,1-6.365,3.285,5.788,5.788,0,0,1-5.44-2.875q-3.185-4.824,2.156-9.752,4.411-3.285,7.544-11.036A42.094,42.094,0,0,0,587.862,3172.55Zm13.243,50.507v-38.393a141.066,141.066,0,0,0-1.335-21.559q15.6,3.492,15.6,5.031,0,.308-.718.821l-1.642,1.232v49.173a2.641,2.641,0,0,0,1.026,2.464,9.388,9.388,0,0,0,4.209.615h11.395q7.6,0,9.239-.2a3.8,3.8,0,0,0,3.285-1.745q1.333-2.257,5.338-16.22h1.027l.308,16.939a9.452,9.452,0,0,1,3.7,2.206,4.614,4.614,0,0,1,1.026,3.132q0,4.516-5.287,6.467t-19.864,1.951H616.2q-8.727,0-11.908-2.362T601.1,3223.057Zm1.54-79.97.411-1.232q22.993,1.44,30.695,11.19,4.31,5.544,2.053,10.676a6.184,6.184,0,0,1-5.852,4.107,7.425,7.425,0,0,1-4.311-1.232,46.863,46.863,0,0,0-8.418-12.062A59.6,59.6,0,0,0,602.645,3143.087Zm43.014,28.436q18.169,8.42,22.687,21.148,2.872,8.315-.822,14.269-2.77,4.519-6.775,3.7a7.656,7.656,0,0,1-4.62-3.388,63.887,63.887,0,0,0-2.412-18.324,40.317,40.317,0,0,0-8.88-16.579Z" fill="#231815"/>
    </g>
    <g id="Group_95" data-name="Group 95">
      <path id="Path_776" data-name="Path 776" d="M482.068,3305.483a3.792,3.792,0,0,0-.968-2.968,7.006,7.006,0,0,0-3.219-1.282v-.937q3,.25,4.875.25a2.162,2.162,0,0,0,2.375-1.625H473.256q-.375,1.75-.563,2.5a8.431,8.431,0,0,1-5.625.125q1-4,2-9.313h-1.437a3.542,3.542,0,0,0-2,.875l-1.688-3.187a21.772,21.772,0,0,0,3.813.5h1.687l1.063-6.375a26.568,26.568,0,0,1-4.688,2.812l-.75-.75c.041-.041.2-.218.469-.531s.469-.552.594-.719a27.145,27.145,0,0,0,3.219-6.125,26.262,26.262,0,0,0,1.718-6.375q8.124,2.751,8.125,3.688,0,.25-.562.5l-1.188.437q-.625.938-1.125,1.563h11.563l1.437-2.125q1.562-2.187,1.938-2.188.624,0,3.094,2.188t2.468,2.875q-.25,1-1.562,1h-20.5q-.187.188-.469.5c-.187.209-.365.4-.531.562a4.767,4.767,0,0,1-.5.438l3.875,1.562h9.375l1.312-1.437c.125-.125.291-.3.5-.531s.365-.4.469-.5a3.038,3.038,0,0,1,.375-.313.723.723,0,0,1,.406-.156q.624,0,2.875,1.969t2.25,2.656a4.189,4.189,0,0,1-2.375,1q-.063.876-.187,2.312t-.125,2l1.125-1.687q1.125-1.625,1.5-1.625.624,0,2.625,1.719t2,2.406a1.444,1.444,0,0,1-1.563,1.062h-5.875q-.313,3-.625,4.938h.188l1.187-1.75c.083-.125.2-.291.344-.5s.26-.385.344-.531a2.8,2.8,0,0,1,.281-.407,1.262,1.262,0,0,1,.313-.281.559.559,0,0,1,.281-.094q.563,0,2.5,1.813t1.937,2.5q-.25,1-1.562,1h-6.125a19.666,19.666,0,0,1-1.5,3.875q6.687,3.625,4.812,3.75h-.937q-1.875,1.063-7.375,3.562a3.411,3.411,0,0,1,.562,4.094q-1.125,2.032-3.75,1.406a24.021,24.021,0,0,0-4.281-4.093,38.6,38.6,0,0,0-5.344-3.532l.5-.687q6.624-.875,10.438,1.25,1.062-1.687,2.062-3.438A16.161,16.161,0,0,1,482.068,3305.483Zm2.188,18.188q4.062,2.751,2.125,2.875h-1.125a46.558,46.558,0,0,1-8.813,3.562,64.986,64.986,0,0,1-10.562,2.313l-.563-.813q1.688-.75,5.688-3a35.05,35.05,0,0,0,5.469-3.937,23.672,23.672,0,0,0,4.093-4.438Zm7.75-7.563q2.813-.062,8.531-.156t8.406-.156a32.624,32.624,0,0,0-5.062-3.563l.437-.625q9.938-.187,13.563,4.313,2,2.5.937,4.812a2.91,2.91,0,0,1-3.562,1.563l-.75-.25a18.37,18.37,0,0,0-3.563-4.5q-6.375.876-14.375,1.687v4.188q.188,6.5.313,8.062a3.909,3.909,0,0,1-2.031,1.157,12.833,12.833,0,0,1-4.157.593q-1.626,0-1.625-1.25.312-4.438.438-7.562v-4.438q-2.5.25-8.594.844t-9.719.906a2.757,2.757,0,0,1-1.75,1.313l-3.312-6.875q4.249.126,21.062,0a28.677,28.677,0,0,0,2.282-1.844q1.467-1.279,1.781-1.531a39.486,39.486,0,0,0,8.562-9.313q6.875,4.313,6.875,5.188,0,.25-.562.312l-1.188.125A79.084,79.084,0,0,1,492.006,3316.108Zm-12.5-18.937c0-.041-.063-.135-.188-.281a1.862,1.862,0,0,1-.25-.344,5.667,5.667,0,0,0-1.031-1.875,6.83,6.83,0,0,0-1.656-1.563l.375-.562q4.936-.562,6.312,1.75a2.1,2.1,0,0,1-.437,2.875h3.062a47.77,47.77,0,0,0,.813-4.938H474.568q-.126.75-.406,2.407t-.469,2.531Zm3.187-6.75h3.938q.375-4.374.375-5.188h-11.25q-.063.438-.375,2.25t-.5,2.938h5.937a2.93,2.93,0,0,1-1-.938,5.5,5.5,0,0,0-2.625-3.125l.188-.687q4.936-.75,6.312,1.437a1.983,1.983,0,0,1,.25,1.907A2.524,2.524,0,0,1,482.693,3290.421Zm13.063-2.563a25.035,25.035,0,0,0,3-7.187,30.5,30.5,0,0,0,1.25-7.875q8.311,2.688,8.312,3.562,0,.25-.562.438l-1.188.437a28.325,28.325,0,0,1-2.75,4.5h9l1.563-2.25c.125-.166.281-.384.469-.656s.333-.489.437-.656a3.947,3.947,0,0,1,.375-.5,2.2,2.2,0,0,1,.406-.375.61.61,0,0,1,.313-.125q.624,0,3.281,2.344t2.656,3.031q-.187,1.063-1.687,1.062h-3.313a27.426,27.426,0,0,1-6.937,11.938,32.54,32.54,0,0,0,12.375,4.312l-.125.688q-3.625,1.375-4.063,6.062a24.512,24.512,0,0,1-11.812-7.937,43.488,43.488,0,0,1-13.313,6.25l-.375-.875a33.993,33.993,0,0,0,11.375-8.813,41.826,41.826,0,0,1-3.687-10,24.249,24.249,0,0,1-4.25,3.188Zm3.5,35.5.187-.812q12.125-.875,16.375,3.687,2.312,2.375,1.25,4.75a2.827,2.827,0,0,1-3.25,1.75,6.627,6.627,0,0,1-.875-.187,26.5,26.5,0,0,0-5.406-4.75A39.761,39.761,0,0,0,499.256,3323.358Zm10.687-39.75h-7.687q-.5.625-.688.813a20.359,20.359,0,0,0,4.938,8A28.826,28.826,0,0,0,509.943,3283.608Z" fill="#231815"/>
      <path id="Path_777" data-name="Path 777" d="M579.644,3300.358l1.687-2.312c.125-.166.291-.385.5-.656s.375-.49.5-.657.26-.343.406-.531a1.882,1.882,0,0,1,.407-.406.607.607,0,0,1,.312-.125q.624,0,3.5,2.375t2.875,3.062q-.187,1-1.687,1h-10.75v9.063h1.437l1.5-2.188a3.982,3.982,0,0,0,.469-.625,6.406,6.406,0,0,1,.469-.656c.125-.145.259-.3.406-.469a2.17,2.17,0,0,1,.406-.375.61.61,0,0,1,.313-.125q.624,0,3.218,2.282t2.594,2.968a1.487,1.487,0,0,1-1.625,1.063H563.894v7.687h13.687l1.75-2.375q.188-.249.531-.687t.532-.688c.125-.166.27-.343.437-.531a2.464,2.464,0,0,1,.438-.406.607.607,0,0,1,.312-.125q.624,0,3.688,2.469t3.062,3.156q-.25,1-1.687,1h-22.75v2.937q.188,4.5.312,5.563a3.923,3.923,0,0,1-2,1.437,10.136,10.136,0,0,1-4.125.75q-1.687,0-1.687-1.25.312-3.438.437-5.875v-3.562H543.706a65.682,65.682,0,0,0-9.625.875l-1.687-3.188q3.5.375,8.562.5h15.875v-7.687h-11.5a66.425,66.425,0,0,0-9.562.875l-1.688-3.25a62,62,0,0,0,6.375.5h3.063v-9.063h-3.813a34.708,34.708,0,0,0-6.75.938l-1.625-3.188q3.375.375,8.188.5h4v-8.75h-2.625a15.349,15.349,0,0,0-4.5.875l-1.625-3.187q3.5.375,8.5.5h33.687l1.625-2.188c.125-.166.291-.375.5-.625s.375-.447.5-.593.26-.3.406-.469a2.2,2.2,0,0,1,.407-.375.607.607,0,0,1,.312-.125q.624,0,3.344,2.219t2.719,2.906q-.187,1.063-1.688,1.062h-7.687v8.75Zm-.438-19.687,1.688-2.5q1.749-2.5,2.125-2.5.624,0,3.468,2.562t2.844,3.25q-.25,1-1.687,1H573.081v1.5q.062.563.094,1.125c.02.375.031.657.031.844a2.159,2.159,0,0,0,.063.531q-.126.688-1.969,1.25a14.472,14.472,0,0,1-4.219.563q-1.375,0-1.375-1.25c.041-.25.072-.489.094-.719s.041-.51.062-.844.052-.666.094-1v-2H554.894v1.563q.188,2.376.25,2.687-.187.688-2,1.282a13.011,13.011,0,0,1-4.063.593q-1.5,0-1.5-1.25,0-.125.25-2.812v-2.063h-5.25a66.425,66.425,0,0,0-9.562.875l-1.563-3.187q3.5.375,8.5.5h7.875a57.753,57.753,0,0,0-.437-7.875q8.937,2,9,2.937,0,.25-.5.563l-1,.625v3.75h11.062a57.753,57.753,0,0,0-.437-7.875q9.062,1.938,9.125,2.875,0,.25-.5.562l-1.063.688v3.75Zm-22.375,10.937h-6.437v8.75h6.437Zm-6.437,10.5v9.063h6.437v-9.063Zm20.062-1.75v-8.75h-6.562v8.75Zm-6.562,10.813h6.562v-9.063h-6.562Z" fill="#231815"/>
      <path id="Path_778" data-name="Path 778" d="M631.156,3277.671l1.125-1.375a6.229,6.229,0,0,0,.531-.656,4.1,4.1,0,0,1,.562-.657.708.708,0,0,1,.469-.187q.624,0,2.656,1.781t2.032,2.469a2.767,2.767,0,0,1-1.625.875v7.25q-.126.5-2.313,1.187.5.438,3.125,2.688-.187,1.063-1.562,1.062h-2q.188.126,1.75,1.407t2.375,2.093q-.25,1-1.625,1H625.093q7,1.875,7.063,2.75,0,.25-.75.563l-1.375.5a44.272,44.272,0,0,0,11.843,3.094,97.491,97.491,0,0,0,15.219.906v1.062a4.934,4.934,0,0,0-2.719,2.407,9.81,9.81,0,0,0-1.156,3.843q-16.251-2.812-24.187-10.687a59.828,59.828,0,0,1-13.063,7.125l3.938,1.562h14.937l1.188-1.375q1.313-1.437,1.687-1.437.624,0,3,1.812t2.375,2.5a2.735,2.735,0,0,1-1.437.688v2.812q.188,4.938.25,5.313-.25.625-2.157,1.375a9.572,9.572,0,0,1-3.468.75h-1v-1.063H619.156v4.813q9.563-.312,12.5-.438a62.108,62.108,0,0,0-7-2.062l.25-.938a96.39,96.39,0,0,1,13.5,1.313,25.349,25.349,0,0,0,6.812-7.5q6.125,4.563,6.125,5.375,0,.25-.562.312l-1.125.063a44.88,44.88,0,0,1-7.563,2.562q7.749,2,8.688,5.25a2.257,2.257,0,0,1-1.438,2.875,4.3,4.3,0,0,1-4.625-.5,45.929,45.929,0,0,0-11.75-6.312v.562q-7.75,2.124-24.312,5.375a1.993,1.993,0,0,1-1.625,1.313l-3.063-7.063q5.063,0,8.75-.062v-16.688a70.6,70.6,0,0,1-13.312,3.563l-.125-.875a65.32,65.32,0,0,0,12.25-5.469,49.139,49.139,0,0,0,9.75-7.094,5.215,5.215,0,0,1-.938.125h-.75v-9.375a2.494,2.494,0,0,1-.687.063q-4.438,11.751-18.688,16.25l-.562-.813a24.271,24.271,0,0,0,12.5-12.687q-3.688,1.813-8.75,3.937a2.071,2.071,0,0,1-1.5,1.375l-2.75-6.187q.938,0,6.312-.375a46.508,46.508,0,0,0,4.313-6.844,42.047,42.047,0,0,0,3.062-7.094l6.75,4.25a48.379,48.379,0,0,0-.437-7.187l5.937,2.75h.188a19.689,19.689,0,0,0,.125-5q5.874,1.063,5.937,1.937,0,.25-.5.5l-1,.563a15.937,15.937,0,0,1-2.437,2Zm-22.875,3.75a3.2,3.2,0,0,1,.937,3.094,2.884,2.884,0,0,1-1.781,2.312,3.387,3.387,0,0,1-3.156-.656,11.16,11.16,0,0,0-3.688-6l.375-.625a12.618,12.618,0,0,1,5.125.562,31.967,31.967,0,0,0,2.188-7.375q6.563,2.875,6.562,3.813c0,.167-.187.312-.562.437l-1.188.313A37,37,0,0,1,608.281,3281.421Zm.125,10.062,4.562-.375a18.266,18.266,0,0,0,.875-4.25l5.75,1.688v-6a2.191,2.191,0,0,1-2.25.5A53.288,53.288,0,0,1,608.406,3291.483Zm26.875,23.188v-3.063H619.156v3.063Zm-16.125,1.812v2.813h16.125v-2.813Zm9.062-10.312,1-1.438a3.618,3.618,0,0,0,.313-.375c.125-.166.228-.3.312-.406l.25-.312a.7.7,0,0,1,.281-.219.783.783,0,0,1,.282-.063,5.634,5.634,0,0,1,2.406,1.469q1.781,1.47,1.781,2.156-.187,1.063-1.625,1.063h-3.875a35.564,35.564,0,0,0-6.937.875l-1.688-3.25a39.424,39.424,0,0,0,5.125.5Zm3.375-24.313v-2.312h-6.75v2.312Zm-6.75,4.063h6.75v-2.25h-6.75Zm7.625,2.75h-.875v-1h-6.75v2.625h6.25Zm1.188,3.437h-8.813v2.75h6.625Zm14.75,2.938q1.625,0,1.625-1.75,0-3.562-3.625-6.75,1.437-4.937,2.125-8h-4v7.5q.125,7.813.5,14.75a4.4,4.4,0,0,1-1.907,1.469,6.949,6.949,0,0,1-3.093.718,1.126,1.126,0,0,1-.907-.406,1.365,1.365,0,0,1-.343-.906q.249-3.437.437-9.313v-5.312a85.916,85.916,0,0,0-.812-13.125l6.375,2.812h3.375l1.312-1.562q1.5-1.5,1.875-1.5.563,0,2.781,2.469t2.219,3.156q-.438.563-2.625.687-.314.375-1.219,1.5t-1.468,1.813q-.562.688-1.438,1.594a14.018,14.018,0,0,1-1.625,1.468q7.186,2.875,7.188,8.375a5.81,5.81,0,0,1-1.594,4.438q-1.594,1.5-5.344,1.562a7.646,7.646,0,0,0-.562-3.312,3.165,3.165,0,0,0-2.125-1.563v-.812Z" fill="#231815"/>
      <path id="Path_779" data-name="Path 779" d="M713.793,3281.233l1.688-1.937c.125-.125.291-.3.5-.531s.375-.416.5-.563.26-.291.406-.437a1.649,1.649,0,0,1,.406-.313.744.744,0,0,1,.313-.094q.563,0,3.375,2.844t2.812,3.531a3.9,3.9,0,0,1-2.375.75,38.269,38.269,0,0,1-7.625,5.25l.5.438a3.648,3.648,0,0,1-2.25,1.25v5.125q.126,4.626.438,9.812-.314.563-2.5,1.313a12.019,12.019,0,0,1-3.813.75h-1.187v-2.875H691.606q5.438.938,5.437,1.75,0,.25-.75.562l-1.312.5q-.063.063-1,1.469t-1.563,2.344h20.438l1.75-2.5q.188-.249.531-.688t.531-.718a5.119,5.119,0,0,1,.438-.563,2.461,2.461,0,0,1,.437-.406.609.609,0,0,1,.313-.125q.624,0,3.687,2.562t3.063,3.25q-.187,1-1.688,1H710.293a33.812,33.812,0,0,1-5.687,8.25q11.686,2.313,14.125,6.625,1.25,2.25-.625,3.625a4.413,4.413,0,0,1-4.813.313,7.1,7.1,0,0,1-.75-.438,60.184,60.184,0,0,0-12.812-6.375,41.306,41.306,0,0,1-13,4.782,142.8,142.8,0,0,1-19.938,2.406l-.187-.938q18.624-2.938,26.625-8.312-4-1.187-7.813-1.938-.187.25-2.687,3.375a7.833,7.833,0,0,1-6.5-1.5,100.858,100.858,0,0,0,7.375-9.875h-6.063a66.425,66.425,0,0,0-9.562.875l-1.75-3.187q3.5.375,8.5.5h10.062q3.126-4.749,4.063-6.625h-3.688v.937q0,.563-2,1.407a10.228,10.228,0,0,1-4,.843,1.159,1.159,0,0,1-1.312-1.312q.249-2.562.375-6.375v-3.875a77.99,77.99,0,0,0-.813-11.938l8.125,3.313h18.75l3.313-3.563,4.875,3.688a56.7,56.7,0,0,0,1.562-5.625H676.606a11.356,11.356,0,0,1-1.094,4.875,6.738,6.738,0,0,1-2.719,3,3.925,3.925,0,0,1-3.343.406,3.346,3.346,0,0,1-2.469-2.281,3.8,3.8,0,0,1,.375-2.875,5.114,5.114,0,0,1,2.312-2.063,8.585,8.585,0,0,0,3.469-2.812,7.3,7.3,0,0,0,1.594-4.313h.937a27.543,27.543,0,0,1,.875,4.25h14.688a54.141,54.141,0,0,0-.563-8.437q9.624,1.938,9.625,2.937c0,.167-.166.355-.5.563l-1.125.687v4.25Zm-8.812,14.813v-5.688H685.168v5.688Zm0,1.812H685.168v5.813h19.813Zm-3,16.125h-10.75q-2.625,3.688-4.625,6.438,5.375.188,10.25.687A22.5,22.5,0,0,0,701.981,3313.983Z" fill="#231815"/>
    </g>
    <path id="Path_888" data-name="Path 888" d="M699.314,3238.261a14.5,14.5,0,1,1,14.5-14.5A14.517,14.517,0,0,1,699.314,3238.261Zm0-27a12.5,12.5,0,1,0,12.5,12.5A12.513,12.513,0,0,0,699.314,3211.261Z" fill="#b3976d"/>
  </g>
</svg>
