<svg xmlns="http://www.w3.org/2000/svg" width="260.413" height="194.275" viewBox="0 0 260.413 194.275">
  <g id="topic4" transform="translate(-72.525 -4419.084)">
    <path id="Path_889" data-name="Path 889" d="M307.833,4518.261a14.5,14.5,0,1,1,14.5-14.5A14.517,14.517,0,0,1,307.833,4518.261Zm0-27a12.5,12.5,0,1,0,12.5,12.5A12.514,12.514,0,0,0,307.833,4491.261Z" fill="#b3976d"/>
    <g id="Group_102" data-name="Group 102">
      <path id="Path_890" data-name="Path 890" d="M103.046,4427.912l2.259-2.771q.308-.409,1.026-1.284a11.281,11.281,0,0,1,1.129-1.231,1.252,1.252,0,0,1,.822-.36q1.024,0,5.7,3.593t4.671,4.722a6.3,6.3,0,0,1-3.8,2.053v9.24q.2,11.19.616,17.759-.516.924-3.8,2.1a17.167,17.167,0,0,1-5.646,1.181H103.97v-4.826H89.7v30.593q.2,13.036.821,24.74-.72,1.745-3.747,3.439a13.344,13.344,0,0,1-6.621,1.694,3.731,3.731,0,0,1-2.208-.616,1.756,1.756,0,0,1-.872-1.438Q78,4503.059,78.2,4489.1v-45.477a141.186,141.186,0,0,0-1.334-21.558l13.242,5.851Zm.924,13.653v-10.573H89.7v10.573ZM89.7,4444.337v10.882H103.97v-10.882Zm41.371,31.208,2.464-3.695q2.563-3.593,3.182-3.594,1.024,0,5.338,3.747t4.312,4.877q-.412,1.643-2.875,1.643h-16.63a40.505,40.505,0,0,0,8.212,10.778,38.875,38.875,0,0,0,10.779,7.289l-.205,1.129q-4.518,1.131-6.878,6.57,9.238.617,9.547.616,1.949,0,1.951-2.053v-44.759H135.281v1.13q0,.922-3.08,2.258a15.594,15.594,0,0,1-6.262,1.334q-2.259,0-2.259-2.052.41-4.312.616-11.19V4443a139.155,139.155,0,0,0-1.231-20.326l12.831,5.235h13.346l2.361-3.079q.309-.409.77-.924t.77-.873c.205-.239.411-.478.616-.719a3.109,3.109,0,0,1,.616-.564,1,1,0,0,1,.513-.206q1.024,0,6.006,4t4.979,5.133a7.093,7.093,0,0,1-4,2.258v71.245q0,6.981-2.721,10.214t-11.548,4.055q-.309-6.366-1.848-8.726a11.4,11.4,0,0,0-7.289-4v-.514a12.265,12.265,0,0,0-.821,2.669q-9.034-9.647-12.935-29.359v11.189q.2,13.655.718,21.456-.515,1.231-3.49,2.463a15.007,15.007,0,0,1-5.749,1.232q-2.874,0-2.874-2.053.617-6.468.821-13.141v-7.7q-7.7,9.754-20.942,17.042l-1.026-1.335q11.907-10.778,17.862-29.154h-5.235a35.866,35.866,0,0,0-8.829,1.437l-2.669-5.236q5.748.616,13.961.821h6.878a91.34,91.34,0,0,0-.821-12.832q13.448,3.286,13.448,4.825c.068.205-.138.446-.616.718l-1.437.925v6.364Zm19.2-33.98v-10.573H135.281v10.573Zm-14.988,2.772v10.882h14.988v-10.882Z" fill="#231815"/>
      <path id="Path_891" data-name="Path 891" d="M192.789,4473.7l2.669-3.9q2.772-3.9,3.388-3.9,1.025,0,6.364,4.465t5.339,5.6a9.1,9.1,0,0,1-5.236,2.361V4496.9a23.492,23.492,0,0,0,11.7,6.878q6.568,1.541,21.456,1.54,27.51,0,40.241-.411l.1,1.232q-6.675,1.642-7.8,10.163h-32.44q-14.99,0-22.071-3.49t-12.319-14.064a140.737,140.737,0,0,1-13.14,17.246,2.65,2.65,0,0,1-1.438,2.567l-6.364-13.14q3.079-1.129,11.19-4.928v-23.714h-3.594a15.056,15.056,0,0,0-5.851,1.437l-2.567-5.338a47.3,47.3,0,0,0,7.186.821Zm-8.931-29.051.924-.719q14.166-.308,18.581,6.365,2.565,3.9.41,7.494-2.155,3.49-6.467,2.258a11.776,11.776,0,0,1-1.437-.513,28.837,28.837,0,0,0-4.928-7.854A50.8,50.8,0,0,0,183.858,4444.646Zm3.9-21.764.718-.718q13.96.1,18.068,6.878,2.465,4,.206,7.493-2.364,3.388-6.468,1.951a9.339,9.339,0,0,1-1.232-.513,28.89,28.89,0,0,0-4.619-8.008A48.084,48.084,0,0,0,187.759,4422.882Zm72.578,28.539,2.156-2.977a10.1,10.1,0,0,0,.719-.821q.409-.513.667-.822c.17-.2.36-.426.565-.667a2.032,2.032,0,0,1,.616-.513,1.2,1.2,0,0,1,.513-.154q1.025,0,5.9,3.746t4.876,4.877a6.836,6.836,0,0,1-4.106,2.258v35.109q0,5.648-2.618,8.367t-10.83,3.336q-.309-5.132-1.745-6.57a8.344,8.344,0,0,0-4.928-2.772,11.043,11.043,0,0,1-3.49.616h-1.643v-3.285h-9.239v2.669q0,.308-1.078.924a15.217,15.217,0,0,1-2.823,1.181,10.971,10.971,0,0,1-3.388.564q-1.643,0-1.642-2.053.2-1.128.513-6.57v-4.414a86.2,86.2,0,0,0-.821-13.448l9.65,4.312h.513V4466h-4.312a23.148,23.148,0,0,0-7.186,1.437l-2.566-5.338a84.925,84.925,0,0,0,9.65.822h4.414V4454.4H224.3v18.581q.2,12.834.821,24.638-.72,1.334-3.747,2.771a14.316,14.316,0,0,1-6.211,1.438,2.544,2.544,0,0,1-1.8-.616,1.9,1.9,0,0,1-.667-1.437q.717-9.342.923-20.737v-11.5a140.2,140.2,0,0,0-1.334-21.455l12.627,5.338h5.235a8.053,8.053,0,0,1-2.771-1.848q.308-6.672-3.7-14.167h-4.415a25.043,25.043,0,0,0-7.288,1.437l-2.669-5.338q5.748.617,13.961.822h13.449a84.347,84.347,0,0,0-.822-13.243q14.679,3.183,14.68,4.722,0,.411-.718.924l-1.54,1.026v6.571h11.087l2.771-3.8q.309-.409.822-1.129c.341-.478.616-.837.821-1.078s.445-.513.718-.821a4.006,4.006,0,0,1,.719-.667,1,1,0,0,1,.513-.206q1.026,0,5.954,4t4.928,5.133q-.308,1.642-2.874,1.642H252.844q11.187,2.672,11.292,3.9,0,.412-.924.821l-1.745.719a111.371,111.371,0,0,1-11.5,10.574Zm-10.368-16.015h-23.1q6.672,2.055,9.393,5.6t1.848,6.416a6,6,0,0,1-3.644,4H247.3A114.636,114.636,0,0,0,249.969,4435.406Zm-12.216,41.987v10.676h9.239v-10.676Zm12.935-14.474,3.8-5.339a74.055,74.055,0,0,1,6.878,6.365V4454.4H249.353a3.038,3.038,0,0,1-2.566,2.053v6.468Zm-3.183,11.4,1.746-2.464q1.846-2.465,2.566-2.464.924,0,4.106,3.234t3.182,4.362a6.251,6.251,0,0,1-3.7,1.746v13.448l-.205.205q3.694.207,4.414.205,1.745,0,1.745-1.95v-25.459a2.4,2.4,0,0,1-2.053.821H246.787v8.316Z" fill="#231815"/>
    </g>
    <g id="Group_103" data-name="Group 103">
      <path id="Path_892" data-name="Path 892" d="M80.213,4572.922a50.947,50.947,0,0,1-6.938,5.437l-.75-.562a65.835,65.835,0,0,0,7.125-11.875,50.732,50.732,0,0,0,2.563-6.906,36.111,36.111,0,0,0,1.437-6.532q9.249,3.563,9.25,4.5,0,.25-.562.438l-1.188.375a55.1,55.1,0,0,1-4.062,7l1.812.687q-.313.876-1.937,1.188v8.187q.125,6.063.562,15a5.848,5.848,0,0,1-2.375,1.469,9.518,9.518,0,0,1-3.687.781q-1.75,0-1.75-1.25.375-5.687.5-11.562Zm2.625,20.875h.812a17.059,17.059,0,0,1,.875,7.125,12.748,12.748,0,0,1-1.625,5.219,7.867,7.867,0,0,1-3.062,2.968,4.427,4.427,0,0,1-3.531.407,3.357,3.357,0,0,1-2.469-2.344,4.032,4.032,0,0,1,.406-3,5.19,5.19,0,0,1,2.344-2.125,10.975,10.975,0,0,0,4.156-3.219A8.616,8.616,0,0,0,82.838,4593.8Zm5.875,5.437a54.7,54.7,0,0,0-.375-6.937q8.625,1.938,8.625,2.875,0,.25-.375.5l-.938.625v7.937a.852.852,0,0,0,.438.844,5.8,5.8,0,0,0,2.062.219h6.75q4.688,0,5.5-.063a2.151,2.151,0,0,0,1.813-.812,38.511,38.511,0,0,0,2.812-6.563h.625l.188,6.75a4.786,4.786,0,0,1,1.969,1.219,2.655,2.655,0,0,1,.531,1.719q0,2.438-2.938,3.437t-11.187,1H96.65q-4.875,0-6.406-1.218t-1.531-4.969Zm31.75-36.812,1.75-2.438a4.132,4.132,0,0,0,.531-.687,6.123,6.123,0,0,1,.5-.688c.146-.166.291-.343.438-.531a1.861,1.861,0,0,1,.406-.406.607.607,0,0,1,.312-.125q.624,0,3.657,2.469t3.031,3.156q-.313,1.063-1.75,1.062h-4.25a31.37,31.37,0,0,1-8.375,14.563,39.978,39.978,0,0,0,14.875,6.125l-.125.687q-4.188,1.5-5,6.75a29.737,29.737,0,0,1-13.813-10.187q-7.938,5.625-21.187,8.375l-.313-.875q12.375-4.25,18.938-11.563a55.257,55.257,0,0,1-4-9.875,32.725,32.725,0,0,1-8.688,7.438v2.625q.188,4.438.25,4.812-.187.625-1.875,1.313a8.873,8.873,0,0,1-3.375.687q-1.5,0-1.5-1.312.249-2.812.375-6.875v-4.188a88.45,88.45,0,0,0-.75-12.625q8.375,1.938,8.375,2.813,0,.25-.437.5l-1.063.687v9.313a48.472,48.472,0,0,0,4.125-7.438,40.081,40.081,0,0,0,3.188-13.375q9.5,2.938,9.437,3.875,0,.25-.562.5l-1.188.438q-.625,1.626-2.375,5ZM97.65,4590.047l.5-.375q8.562,1.063,10.875,5.437a4.208,4.208,0,0,1-.125,4.813,3.159,3.159,0,0,1-4.125,1,5.42,5.42,0,0,1-1.062-.625,18.223,18.223,0,0,0-2.313-5.375A25.963,25.963,0,0,0,97.65,4590.047Zm19.375-25.813h-8.062q-.313.563-1,1.563t-.813,1.187a29.632,29.632,0,0,0,5.25,8.125A28.482,28.482,0,0,0,117.025,4564.234Zm-2.437,30.063.5-.438q10.5,1.813,13.812,7.438,1.937,3.375.438,6.125a3.334,3.334,0,0,1-3.938,1.75,6.352,6.352,0,0,1-1.937-.938,21.481,21.481,0,0,0-3.281-7.375A34.188,34.188,0,0,0,114.588,4594.3Z" fill="#231815"/>
      <path id="Path_893" data-name="Path 893" d="M183.538,4583.484l1.938-1.937q2-1.875,2.437-1.875.563,0,3.406,2.812t2.844,3.5a4.041,4.041,0,0,1-2.687.75q-6.375,2.5-18.813,4.688v3.5h14.313l1.812-2.75q2-2.75,2.375-2.75.624,0,3.844,2.844t3.219,3.531q-.187,1-1.75,1H172.663v7.562q0,4.375-1.969,6.375t-8.281,2.563q-.313-3.876-1.687-5.188-1.813-1.812-6.188-2.562v-.813q7.749.5,9.25.5,1.187,0,1.188-1.062V4596.8h-14a66.438,66.438,0,0,0-9.563.875l-1.687-3.25q3.5.375,8.5.5h16.75a49.2,49.2,0,0,0-.375-6.438l8.437,1q6.5-3.062,8.438-4.187H155.6a65.682,65.682,0,0,0-9.625.875l-1.688-3.188q3.5.375,8.5.5Zm2.5-22.187,1.875-2.813q1.875-2.874,2.313-2.875.624,0,3.843,2.875t3.219,3.563q-.25,1-1.75,1H151.976a69.015,69.015,0,0,0-9.625.937l-1.688-3.25q4.187.438,8.563.563h15.75a57.906,57.906,0,0,0-.5-8.563q9.687,1.938,9.75,2.938c0,.167-.147.354-.438.562l-1.125.688v4.375Zm-7.125,6.312,1.5-1.875q1.625-1.875,2-1.875.624,0,3.844,2.407t3.219,3.093a4.619,4.619,0,0,1-2.563,1.375v2.813q.188,4.75.25,5.25-.25.563-2.469,1.281a13.024,13.024,0,0,1-3.968.719h-1.25v-2.438H158.6v1.313q0,.313-.938.844a10.62,10.62,0,0,1-2.437.937,10.948,10.948,0,0,1-2.875.406q-1.312,0-1.313-1.25.125-.875.313-4.5v-2.875a59.652,59.652,0,0,0-.563-8.937l8.25,3.312Zm-20.312,1.875v7.063h20.875v-7.063Z" fill="#231815"/>
      <path id="Path_894" data-name="Path 894" d="M247.8,4587.109l2-2.75q2.063-2.812,2.5-2.812.624,0,4.156,2.875t3.531,3.562q-.25,1-1.687,1H240.112v19.188h12.625l2.063-2.875q2.062-2.937,2.562-2.938.624,0,4.25,3t3.625,3.688q-.25,1-1.812,1H218.237a66.148,66.148,0,0,0-9.562.875l-1.625-3.25q3.5.375,8.5.5h16.625v-19.188H225.55a65.682,65.682,0,0,0-9.625.875l-1.625-3.25q3.5.375,8.5.5h9.375v-16.375H221.3a50.2,50.2,0,0,1-13.625,15.688l-.688-.563a78.4,78.4,0,0,0,7.938-17.125,51.31,51.31,0,0,0,1.875-7.125,41.589,41.589,0,0,0,.875-6.687l11.062,3.687q-.313,1.313-2.375,1.313a64.474,64.474,0,0,1-4.062,9.062h9.875V4566.3a85.9,85.9,0,0,0-.813-13.125l11,1.312a2.385,2.385,0,0,1-2.25,1.875v12.625H249.8l2-2.687q2.063-2.812,2.437-2.813.624,0,4.094,2.782t3.469,3.468q-.187,1-1.813,1H240.112v16.375Z" fill="#231815"/>
      <path id="Path_895" data-name="Path 895" d="M274.438,4568.8l.5-.5q8.373.375,10.687,4.562a3.925,3.925,0,0,1-.125,4.625,3.29,3.29,0,0,1-4.187,1.063,5.493,5.493,0,0,1-1-.5,14.223,14.223,0,0,0-2.188-4.906A23.2,23.2,0,0,0,274.438,4568.8Zm.75,25.625h2.937a2.091,2.091,0,0,0,1.094-.219,3.321,3.321,0,0,0,.844-1.094q1.436-2.375,13.25-26.625l.875.313q-6.252,18.313-7.875,24.187a33.164,33.164,0,0,0-1.063,6,18.939,18.939,0,0,0,1.313,4.594,16.562,16.562,0,0,1,1.125,6.469,5.458,5.458,0,0,1-1.5,3.875,5.075,5.075,0,0,1-3.75,1.437q-2.563,0-3.375-3.25a42.738,42.738,0,0,0,.718-8.875q-.156-3.812-1.281-4.562a6.228,6.228,0,0,0-3.312-1.063Zm3.875-39.625.5-.5q8.687.375,11.187,4.625a4.068,4.068,0,0,1,.063,4.75,3.319,3.319,0,0,1-4.125,1.375,9,9,0,0,1-1.188-.5,19.161,19.161,0,0,0-2.594-5.125A30.3,30.3,0,0,0,279.063,4554.8Zm41.312,33.625,1.563-1.938q1.688-1.937,2.062-1.937.624,0,3.656,2.437t3.032,3.125a4.045,4.045,0,0,1-2.5,1.375v6.375q.188,8.125.437,12.438a5.974,5.974,0,0,1-2.562,1.562,10.179,10.179,0,0,1-3.813.875q-1.5,0-1.5-1.312.188-1,.313-2.125v-1.813H302.438v1.063q.062.437.093.844t.032.625a1.269,1.269,0,0,0,.062.406q-.126.812-2.156,1.719a10.126,10.126,0,0,1-4.156.906q-1.377,0-1.375-1.25.311-3.25.437-8.688v-5a85.393,85.393,0,0,0-.812-13.062l8.25,3.375h5.125v-12.313h-5.313a69.031,69.031,0,0,0-9.625.938l-1.625-3.313q4.186.438,8.563.563h8v-10.938q-9.064.938-15,1.063l-.125-1a162.418,162.418,0,0,0,16.468-4.438,117.125,117.125,0,0,0,13.844-5.25l7.188,7.188q-1.251.938-4.125-.188-5.877,1.188-11,1.813v11.75h6.875l1.812-2.813q1.875-2.75,2.25-2.75.624,0,3.719,2.844t3.094,3.531q-.252,1-1.75,1h-16v12.313Zm.688,17.187V4590.3H302.438v15.312Z" fill="#231815"/>
    </g>
  </g>
</svg>
