<svg xmlns="http://www.w3.org/2000/svg" width="259.662" height="194.069" viewBox="0 0 259.662 194.069">
  <g id="topic5" transform="translate(-464.381 -5699.289)">
    <g id="Group_108" data-name="Group 108">
      <path id="Path_968" data-name="Path 968" d="M542.57,5710.992l2.669-3.08c.273-.272.616-.632,1.027-1.077s.718-.77.924-.976a6.556,6.556,0,0,1,.719-.616,1.262,1.262,0,0,1,.718-.307q.924,0,5.39,4.465t4.465,5.6q-.822,1.028-3.9,1.334a53.015,53.015,0,0,1-12.319,8.829l-.821-.616a4.974,4.974,0,0,1-1.95.616q0,1.438-.206,5.133h3.7l2.566-3.285q.206-.308,1.079-1.488a11.072,11.072,0,0,1,1.283-1.541,1.251,1.251,0,0,1,.821-.359q1.025,0,5.389,3.388t4.363,4.516q-.308,1.644-2.772,1.643H539.183q-.617,9.651-.616,10.368a10.46,10.46,0,0,1-2.464,1.13q8.724,6.262,8.726,7.8c-.069.274-.344.512-.822.719l-1.539.512v9.034q.2,11.19.615,17.555-.615,1.028-4.106,2.258a18.845,18.845,0,0,1-6.159,1.232h-2.156v-2.156h-31.1q8.724,6.16,8.828,7.392,0,.615-1.745.719h-2.874a70.791,70.791,0,0,1-16.887,5.9,116.531,116.531,0,0,1-20.891,2.926l-.513-1.437a88.506,88.506,0,0,0,16.887-6.673,69.841,69.841,0,0,0,13.6-8.829h-3.285q-.72,1.029-3.85,2.259a16.626,16.626,0,0,1-6.108,1.231h-1.642v-40.652l1.026.411q.205-1.025.821-5.184t.924-6.519H477.9a48.57,48.57,0,0,0-10.266,1.54l-2.771-5.338a117.579,117.579,0,0,0,13.037.924h6.365a74.111,74.111,0,0,0,.616-15.193l12.524,5.235h30.9l4.311-5.44,9.24,7.083q.924-4.413,1.334-7.905H480.155a16.494,16.494,0,0,1-1.232,7.545,10,10,0,0,1-3.8,4.671,5.919,5.919,0,0,1-4.979.514,4.768,4.768,0,0,1-3.541-3.491q-1.439-5.028,4.209-7.7a11.5,11.5,0,0,0,4.363-4.1,10.038,10.038,0,0,0,1.8-5.954h1.438a27.245,27.245,0,0,1,1.539,5.44h25.459a75.992,75.992,0,0,0-.821-11.7q15.706,3.183,15.706,4.825c0,.275-.273.582-.821.924l-1.848,1.129v4.825Zm-8.828,34.082a34.8,34.8,0,0,1-5.852-.1l.206-1.95H493.089l-.2,1.334q-3.7,1.95-9.958.923l10.472,4.209h36.443Zm-40.961,7.392v6.468h37.881v-6.468Zm37.881,9.547H492.781v6.673h37.881Zm-37.881,9.753v6.878h37.881v-6.878Zm.719-31.619h11.7q.2-2.256.616-6.981h-11.5Q493.706,5737.889,493.5,5740.147Zm1.129-9.855h11.395q.41-5.133.514-6.878H495.245q-.1,1.131-.307,3.49T494.629,5730.292Zm34.082,2.874H516.084q-.411,4.723-.615,6.981H528.3Q528.506,5737.682,528.711,5733.166Zm-12.421-2.874h12.627q.2-4.928.308-6.878H516.8Q516.7,5725.673,516.29,5730.292Zm.411,54.716.308-1.334q28.949.1,35.827,6.98,3.181,3.18.308,5.954-2.67,2.772-7.084,1.848a7.328,7.328,0,0,1-3.49-1.54Q533.125,5789.114,516.7,5785.008Z" fill="#231815"/>
      <path id="Path_969" data-name="Path 969" d="M599.77,5739.428l2.157-4.106a11.17,11.17,0,0,0,.718-1.13c.273-.477.5-.872.668-1.18s.359-.615.564-.924a2.4,2.4,0,0,1,.616-.667.993.993,0,0,1,.513-.205q.924,0,4.569,4.209t3.644,5.338q-.308,1.642-2.669,1.642H598.744v24.433q8.008-2.359,14.064-4.209l.308,1.231q-15.5,10.988-31.824,20.738a3.609,3.609,0,0,1-2.669,2.874l-5.03-13.961q3.9-.719,13.654-3.388V5742.4h-3.594a16.846,16.846,0,0,0-6.056,1.54l-2.772-5.441a49.967,49.967,0,0,0,8.418.924h4v-26.691h-3.8a18.786,18.786,0,0,0-6.467,1.438l-2.67-5.235q5.75.615,13.962.82h9.342l2.772-4.312q2.77-4.412,3.592-4.414,1.026,0,5.75,4.414t4.722,5.544q-.308,1.745-2.669,1.745H598.744v26.691Zm49.892-32.029,2.67-3.182q2.771-3.388,3.387-3.388,1.024,0,6.159,4.157t5.133,5.287a6.922,6.922,0,0,1-4.414,2.464v47.838q-.207.616-3.644,1.9a17.971,17.971,0,0,1-6.211,1.283H651.3v19.71a1.6,1.6,0,0,0,.359,1.232,2.706,2.706,0,0,0,1.591.308h6.981a1.849,1.849,0,0,0,1.642-1.232q.617-1.025,4.312-13.038h1.027l.307,13.551a6.019,6.019,0,0,1,2.567,2.156,6.211,6.211,0,0,1,.616,2.977,5.771,5.771,0,0,1-3.439,5.39q-3.441,1.8-11.652,1.8h-6.262q-6.159,0-7.956-2.052t-1.8-8.111V5759.96h-4.517q-1.748,16.425-11.19,25.562t-29.565,13.037l-.514-1.334q13.86-5.34,20.327-13.038t8.212-19.71a16.95,16.95,0,0,1-5.851,1.232h-1.745v-42.4a141.052,141.052,0,0,0-1.335-21.558l13.346,5.646Zm1.232,16.118v-13.039H626.256v13.039Zm-24.638,2.976v13.756h24.638v-13.756Zm24.638,30.489v-13.858H626.256v13.858Z" fill="#231815"/>
    </g>
    <g id="Group_109" data-name="Group 109">
      <path id="Path_970" data-name="Path 970" d="M474.381,5860.421q1.437-.125,4.312-.281t4.125-.219a34.7,34.7,0,0,0-2.375-5.625l.688-.438q6.811,3.188,8.187,7.813.875,3.063-.937,4.75-1.687,1.626-3.875-.063a4.553,4.553,0,0,1-.5-.437,33.922,33.922,0,0,0-.688-4.563l-2.75,1v13.688q.125,7.813.5,15a5.8,5.8,0,0,1-2.125,1.5,8.6,8.6,0,0,1-3.75.75q-1.687,0-1.687-1.25.436-5.688.562-12.563v-7l-.437.063q-2.939,10.626-8.375,16.062l-.875-.5a49.14,49.14,0,0,0,1.75-5.562,43.639,43.639,0,0,0,1.125-13.625l6.812,1.75v-6.125q-.562.188-1.656.562t-2.062.688q-.971.313-1.907.562a2.406,2.406,0,0,1-1.812,1.5l-1.875-7.062q3,0,6.937-.25,6.624-11,8.25-20.25,8.375,3.375,8.375,4.25c0,.167-.187.312-.562.437l-1.25.313A81.141,81.141,0,0,1,474.381,5860.421Zm-2.125-15.063q3.75,2.563,3.375,5.813a2.868,2.868,0,0,1-2.063,2.812,3.532,3.532,0,0,1-3.312-.812,20.135,20.135,0,0,0-4.938-9.938l.688-.375a19.33,19.33,0,0,1,4.812,1.688,45.236,45.236,0,0,0,2.125-11.938q8.937,3,8.938,3.938,0,.25-.563.5l-1.125.437A48.752,48.752,0,0,1,472.256,5845.358Zm8.687,23.375.813-.312q6.563,3.876,7.25,8.875.436,3.126-1.5,4.562-2,1.375-4.063-.75A26.953,26.953,0,0,0,480.943,5868.733Zm15.313,19.375v2.75q0,.312-.625.782a6.61,6.61,0,0,1-1.938.875,9.486,9.486,0,0,1-2.812.406,2.542,2.542,0,0,1-1.438-.375,1.06,1.06,0,0,1-.562-.875q.624-9.375.75-16.688v-25.625a84.182,84.182,0,0,0-.875-13.125l8.25,3.25h15.625l1.625-2.125a4.524,4.524,0,0,0,.469-.593,4.485,4.485,0,0,1,.468-.594c.125-.125.26-.271.407-.438a2.17,2.17,0,0,1,.406-.375.607.607,0,0,1,.312-.125q.624,0,3.407,2.375t2.781,3.063a4.582,4.582,0,0,1-2.75,1.375v32.75q.125,7.938.5,15.062a5.748,5.748,0,0,1-2.219,1.594,8.744,8.744,0,0,1-3.906.844q-1.5,0-1.5-1.313,0-.063.25-1.437v-1.438Zm4.937-26.125v-20.625h-4.937v20.625Zm0,1.75h-4.937V5886.3h4.937Zm11.688-1.75v-20.625h-5.25v20.625Zm-5.25,1.75V5886.3h5.25v-22.563Z" fill="#231815"/>
      <path id="Path_971" data-name="Path 971" d="M544.644,5868.671h-4.188q-1.063,16.063-7.75,24.5l-.812-.438q.5-1.687.937-3.468a36.484,36.484,0,0,0,.719-3.938q.281-2.156.5-3.719t.344-4.156q.125-2.592.218-3.875t.125-4.25q.031-2.967.032-3.875v-19.531a77.971,77.971,0,0,0-.688-11.688l7.688,3.063h2.375l1.187-1.563q1.313-1.687,1.688-1.687.624,0,3.187,2.031t2.563,2.719a3.038,3.038,0,0,1-2.125,1.125v45.625q0,3.812-1.313,5.531t-5.687,2.094a10.527,10.527,0,0,0-.813-4.5,4.147,4.147,0,0,0-3.187-1.938v-1q3.249.25,4,.25,1,0,1-1.125Zm-3.875-15v3.687q0,4.438-.188,9.438h4.063v-13.125Zm3.875-1.75v-12.75h-3.875v12.75Zm21.75,3.5,2.625-3.375a45.234,45.234,0,0,1,4.687,4q-.126-3.375-.25-10.375H562.144a69.015,69.015,0,0,0-9.625.937l-1.688-3.312q4.187.438,8.563.562h14.062q-.063-3.437-.062-10.625l9.062,1a3.91,3.91,0,0,1-.25.75q6.249.625,7.188,3.688a2.7,2.7,0,0,1-1.188,3.187,2.2,2.2,0,0,1-.687.375q.563.438,1.593,1.344t1.219,1.094q-.25,1-1.625,1h-8.75a177.08,177.08,0,0,0,.875,21.281,39.6,39.6,0,0,0,4.063,14.469,2.816,2.816,0,0,0,.5.719.286.286,0,0,0,.406-.032,2.231,2.231,0,0,0,.469-.812,52.661,52.661,0,0,0,2.937-7.313l.688.125-1.375,11q2.25,6.437.687,7.438a4.2,4.2,0,0,1-4.875-.125,10.634,10.634,0,0,1-4.062-4.313q-5.5-10.875-6.563-31.5a1.348,1.348,0,0,1-1.375.688h-9.25a65.682,65.682,0,0,0-9.625.875l-1.625-3.25q3.5.375,8.5.5Zm-.875,5.5,1.125-1.688q1.25-1.625,1.687-1.625.624,0,2.906,2.032t2.282,2.718a2.705,2.705,0,0,1-1.75.875v5.75q.125,7,.375,11.063a3.992,3.992,0,0,1-2.063,1.312,8.675,8.675,0,0,1-3.125.688h-.937v-2.188h-6.5v1.375q0,.188-.625.625,5.25,2.688,5.25,3.375,0,.25-.563.375l-1.062.188a28.806,28.806,0,0,1-11,7.437l-.688-.75a30.909,30.909,0,0,0,6.875-10,9.425,9.425,0,0,1-3.125.625h-.875v-12.375a89.535,89.535,0,0,0-.75-12.75l6.813,2.938Zm5.312-9.438H559.394a20.215,20.215,0,0,0-5,.938l-1.625-3.188q3.5.375,8.437.5h4l1.063-1.625q1.25-1.625,1.625-1.625.624,0,2.562,1.657t1.938,2.343Q572.143,5851.483,570.831,5851.483Zm-4.812,15v-3.75h-6.5v3.75Zm-6.5,1.875v3.813h6.5v-3.813Zm0,5.688v4h6.5v-4Zm4.125,8.5.562-.438q8.063,1.125,10.188,5.313a3.885,3.885,0,0,1-.25,4.437q-1.5,1.812-4,.625a4,4,0,0,0-.438-.25,19.711,19.711,0,0,0-2.437-5.093A27.59,27.59,0,0,0,563.644,5882.546Zm16.312-38.688h.875l2.813-3.687a9.639,9.639,0,0,0-1.938-4.688,3.6,3.6,0,0,1-1.562.625q0,1.313-.063,3.875T579.956,5843.858Z" fill="#231815"/>
      <path id="Path_972" data-name="Path 972" d="M645.093,5873.3l1.875-2.625q1.936-2.687,2.375-2.688.624,0,3.906,2.688t3.282,3.375q-.25,1-1.813,1h-23.25a19.413,19.413,0,0,0,9.969,7.344,57.974,57.974,0,0,0,15.781,2.906l-.062.687q-4.251,1.438-5.313,7.125A37.651,37.651,0,0,1,638,5886.765a24.583,24.583,0,0,1-7.843-11.719h-.563a19.109,19.109,0,0,1-2.594,6.062,19.749,19.749,0,0,1-5.062,4.938,33.088,33.088,0,0,1-9,4.187,96.16,96.16,0,0,1-13.781,3.125l-.375-1q11.063-3.375,16.062-7.468a18.986,18.986,0,0,0,6.563-9.844H610.343a68.788,68.788,0,0,0-9.562.937l-1.688-3.25a82.781,82.781,0,0,0,8.5.563h14.188a25.936,25.936,0,0,0,.187-8.25q10.186.688,10.188,1.562c0,.125-.147.292-.438.5l-1.062.75q-.187,1.938-.688,5.438Zm-.937-10.688,1.875-2.687q1.937-2.687,2.375-2.688.624,0,3.781,2.75t3.156,3.438q-.187.938-1.687.937H611.718a69.03,69.03,0,0,0-9.625.938l-1.625-3.25a82.779,82.779,0,0,0,8.5.562h14.563v-7.687h-6.063a66.425,66.425,0,0,0-9.562.875l-1.625-3.25q3.5.375,8.5.5h8.75v-7.188h-9.625a69.031,69.031,0,0,0-9.625.938l-1.625-3.313a82.782,82.782,0,0,0,8.5.563h20.75a33.339,33.339,0,0,0,2.75-11.75q9.437,2.938,9.437,3.812,0,.25-.5.438l-1.187.375a63.356,63.356,0,0,1-8.625,7.125h9.25l1.812-2.563q1.936-2.562,2.313-2.562.624,0,3.75,2.625t3.125,3.312q-.25,1-1.75,1h-21.25v7.188h8.687l1.75-2.375c.125-.166.291-.4.5-.688s.375-.509.5-.656.271-.312.438-.5a2.466,2.466,0,0,1,.437-.406.61.61,0,0,1,.313-.125q.624,0,3.593,2.437t2.969,3.125q-.187,1.063-1.625,1.063H631.031v7.687Zm-31.813-28.75.438-.375q8.124.563,10.062,4.625a3.828,3.828,0,0,1-.562,4.5,3.584,3.584,0,0,1-4.438,1,4.583,4.583,0,0,1-1.312-.75,14.733,14.733,0,0,0-1.438-4.781A18.065,18.065,0,0,0,612.343,5833.858Z" fill="#231815"/>
      <path id="Path_973" data-name="Path 973" d="M714.481,5856.921l1.437-1.625q1.626-1.625,1.938-1.625.563,0,3.375,2.875t2.812,3.562a3.451,3.451,0,0,1-2.312.688,71.441,71.441,0,0,1-8.875,4.812l-.563-.437q.188-.687.844-2.75t.969-3.125H674.668q.938,6.063-3.25,7.937a3.764,3.764,0,0,1-3.906-.156,3.251,3.251,0,0,1-1.406-3.281,4.534,4.534,0,0,1,2.687-3.438,5.466,5.466,0,0,0,2.407-2.562,9.073,9.073,0,0,0,.906-4.438l.75-.062a21.9,21.9,0,0,1,1.5,4.25h.937l-.687-21.563,5.625,1.125a21.336,21.336,0,0,0,4.812-4.562l4.938,4.437.187-.187a20.5,20.5,0,0,1,4.75.625,14.378,14.378,0,0,0,2.125-4.25l5.75,3.437q-.375.813-2,.438a20.7,20.7,0,0,1-2.062,2.25,4.41,4.41,0,0,1,1.687,2.594,2.076,2.076,0,0,1-.625,2.125,2.27,2.27,0,0,1-2.312.218,15.591,15.591,0,0,0-2-2.312,32.271,32.271,0,0,1-6.438,3.562l-.125-.187q-.249.688-1.437.687h-6.25l.187,4.938h1.375l1-1.5q.126-.187.469-.688t.531-.718a.563.563,0,0,1,.438-.219q.563,0,2.312,1.656t1.75,2.344q-.249,1-1.562,1h-6.313l.188,4.75h26.437l.125-4.75h-1.687a5.839,5.839,0,0,0-2.688.875l-1.625-3.25a28.129,28.129,0,0,0,4.188.5h1.937l.188-4.938h-1.75a6.134,6.134,0,0,0-2.688.938l-1.687-3.188a29.97,29.97,0,0,0,4.312.5h1.938l.25-5h-2.125a8.369,8.369,0,0,0-3.313.875l-1.625-3.25a31.884,31.884,0,0,0,4.438.5h2.062l1.188-1.625c.083-.125.208-.291.375-.5a5.859,5.859,0,0,1,.406-.468l.344-.344a1.808,1.808,0,0,1,.344-.281.55.55,0,0,1,.281-.094q.624,0,3.406,2.219t2.781,2.906a3.273,3.273,0,0,1-2.062.875Zm-11.938,8.062,1.75-1.937q1.936-1.937,2.313-1.938.624,0,3.531,2.688t2.906,3.375a3.641,3.641,0,0,1-2.5.812q-6.375,2.5-9.812,3.563-.187,1.375-2,1.625v2.687h12.875l1.812-2.687q1.813-2.687,2.313-2.688.624,0,3.594,2.75t2.968,3.438q-.249,1-1.687,1H698.731v6.687q0,4.313-1.781,6.344t-7.594,2.531a10.171,10.171,0,0,0-1.563-5.25q-1.687-1.875-5.687-2.5v-.875q6.938.438,8.312.438,1.251,0,1.25-1.063v-6.312h-13.25a69.014,69.014,0,0,0-9.625.937l-1.625-3.312a82.8,82.8,0,0,0,8.5.562h16a37.077,37.077,0,0,0-.312-5.437l5.812.812a61.465,61.465,0,0,0,4.375-4.437H689.856a69.014,69.014,0,0,0-9.625.937l-1.688-3.312a82.8,82.8,0,0,0,8.5.562Zm-9.437-25.187a29.449,29.449,0,0,0-2.938-2.063,2.456,2.456,0,0,1-1.5-.125,45.263,45.263,0,0,1-7.625,1.688l.125,4.937h1.5l2.25-2.937a41.21,41.21,0,0,1,3.625,3.187A30.856,30.856,0,0,0,693.106,5839.8Zm6.25,11q2.25,2.125,1.5,4.25a1.923,1.923,0,0,1-2.5,1.312,2.749,2.749,0,0,1-.688-.25,11.243,11.243,0,0,0-1.875-2.687,28.171,28.171,0,0,1-7.562,3.687l-.438-1a33.466,33.466,0,0,0,5.75-5,26.543,26.543,0,0,0-3.75-2.875l.625-.625a20.274,20.274,0,0,1,5.25,1,12.325,12.325,0,0,0,2.188-4.125q5.375,2.625,5.312,3.375c0,.125-.146.209-.437.25l-.938.063A18.107,18.107,0,0,1,699.356,5850.8Z" fill="#231815"/>
    </g>
    <path id="Path_1094" data-name="Path 1094" d="M699.314,5798.261a14.5,14.5,0,1,1,14.5-14.5A14.517,14.517,0,0,1,699.314,5798.261Zm0-27a12.5,12.5,0,1,0,12.5,12.5A12.513,12.513,0,0,0,699.314,5771.261Z" fill="#b3976d"/>
  </g>
</svg>
