<svg xmlns="http://www.w3.org/2000/svg" width="482.72" height="138.379" viewBox="0 0 482.72 138.379">
  <g id="txt2" transform="translate(-78.625 -2128.988)">
    <path id="Path_594" data-name="Path 594" d="M79.758,2145.746v-1.524H83.02v-10.937h-2.6v-1.153a8.921,8.921,0,0,0,3.047-1.054h1.386v13.144h2.95v1.524Z"/>
    <path id="Path_595" data-name="Path 595" d="M95.327,2131.1l1.543.352a18.889,18.889,0,0,1-2.021,4.013,14.928,14.928,0,0,1-2.705,3.116,7.631,7.631,0,0,0-1.25-1.075,12.214,12.214,0,0,0,2.6-2.793A14.967,14.967,0,0,0,95.327,2131.1Zm-1.465,5.742h12.032q-.021.489-.04.7-.253,4.533-.546,6.485a5.171,5.171,0,0,1-.821,2.519,2.1,2.1,0,0,1-1.523.684,26.5,26.5,0,0,1-2.793-.039,2.736,2.736,0,0,0-.488-1.426q1.152.1,2.734.1a1.067,1.067,0,0,0,.8-.235q.741-.741,1.113-7.382H99.194a14.38,14.38,0,0,1-2.168,5.517,10.888,10.888,0,0,1-4.082,3.506,6.01,6.01,0,0,0-1.152-1.152,9.216,9.216,0,0,0,3.818-3,12.077,12.077,0,0,0,1.963-4.873H93.862Zm3.594-7.48h6.25a14.9,14.9,0,0,0,2.236,4.58,10.976,10.976,0,0,0,3.428,3.193,4.733,4.733,0,0,0-1.035,1.309,12.754,12.754,0,0,1-3.369-3.262,17.163,17.163,0,0,1-2.334-4.433H97.456Z"/>
    <path id="Path_596" data-name="Path 596" d="M119.646,2143.812l.1,1.25q-1.271.293-3.809.83t-3.594.772l-.312-1.387q2.109-.353,3.3-.586v-6.074h-3.125v-1.289h3.125V2135.2h-2.051v-.9q-.274.274-.821.782a4.2,4.2,0,0,0-.917-.938,13.437,13.437,0,0,0,3.73-5.117h1.348a22.907,22.907,0,0,1,3.4,3.515l-1,1.133a18.8,18.8,0,0,0-2.891-3.3,20.067,20.067,0,0,1-2.519,3.554h5.234v1.27h-2.207v2.129h2.852v1.289h-2.852v5.8q.234-.037,1.328-.263T119.646,2143.812Zm-6.973-3.887,1.016-.234a13.032,13.032,0,0,1,.8,3.75l-1.094.293A14.881,14.881,0,0,0,112.673,2139.925Zm5.664,3.438-.976-.254a26.971,26.971,0,0,0,.82-3.594l1.152.293Q118.748,2142.075,118.337,2143.363Zm7.012,2.246h4.824v1.191H118.982v-1.191h5v-1.543h-3.906v-1.133h3.906v-1.289h-3.75v-5.84h9.1v5.84h-3.984v1.289h4.043v1.133h-4.043Zm-4.043-13.867.84-.176h-2.324v-1.152h4.121v-1.348h1.406v1.348h4.317v1.152h-2.149l.664.2q-.429.9-1.015,1.934h2.988v1.172h-10.9V2133.7h2.813A10.845,10.845,0,0,0,121.306,2131.742Zm.137,5.058v1.426h2.539V2136.8Zm0,3.848h2.539V2139.2h-2.539Zm4.746-6.953-.273-.1a13.188,13.188,0,0,0,.937-2.031h-4.3a7.149,7.149,0,0,1,.86,1.992l-.469.137Zm1.875,4.531V2136.8h-2.715v1.426Zm0,2.422V2139.2h-2.715v1.445Z"/>
    <path id="Path_597" data-name="Path 597" d="M150.821,2136.253h-7.559a18.347,18.347,0,0,0,3.086,5.938,11.822,11.822,0,0,0,4.785,3.652,5.933,5.933,0,0,0-1.113,1.407q-5.411-2.559-7.969-9.9a13.991,13.991,0,0,1-7.988,9.9,3.384,3.384,0,0,0-1.113-1.231,13.014,13.014,0,0,0,7.773-9.766H133.36v-1.523h7.617a47.965,47.965,0,0,0,.293-5.684h1.6a50.214,50.214,0,0,1-.313,5.684h8.262Z"/>
    <path id="Path_598" data-name="Path 598" d="M158.109,2136.488l-.86,1.211a12.931,12.931,0,0,0-3.417-2.09l.839-1.094A13.4,13.4,0,0,1,158.109,2136.488Zm-2.442,10.527-1.289-.937a49.631,49.631,0,0,0,3.243-6.368l1.152.879Q157.327,2143.988,155.667,2147.015Zm-.859-16.758.84-1.074a11.8,11.8,0,0,1,3.32,2.109l-.9,1.172A12.51,12.51,0,0,0,154.808,2130.257Zm16.992,2.227h-5.586v2.187h5.176v10.977q0,1.074-.644,1.367a7.557,7.557,0,0,1-2.422.235,3.28,3.28,0,0,0-.45-1.329q.411.02,1.817.02.312-.019.312-.313v-9.668h-8.925v11.27h-1.387v-12.559h5.058v-2.187H159.3v-1.309h5.449v-2.168h1.465v2.168H171.8Zm-2.636,10.605H166.2v3.164h-1.367v-3.164H161.82v-1.132h3.008V2140.2h-2.813V2139.1h6.953v1.094H166.2v1.758h2.969Zm-6.739-6.5,1.055-.371a7.347,7.347,0,0,1,1.152,2.481l-1.113.41A8.944,8.944,0,0,0,162.425,2136.585Zm5.039-.449,1.231.371q-1.193,2.188-1.426,2.539l-.957-.351A15.252,15.252,0,0,0,167.464,2136.136Z"/>
    <path id="Path_599" data-name="Path 599" d="M186.861,2137.093l1.543.43a13.966,13.966,0,0,1-3.261,5.059,17.076,17.076,0,0,0,8.066,3.281,5.262,5.262,0,0,0-.977,1.406,17.781,17.781,0,0,1-8.242-3.652,21.772,21.772,0,0,1-8.2,3.73,4.438,4.438,0,0,0-.937-1.406,19.339,19.339,0,0,0,8.046-3.359,15.794,15.794,0,0,1-3.125-4.961l1.426-.43a12.69,12.69,0,0,0,2.832,4.394A12.281,12.281,0,0,0,186.861,2137.093Zm-6.465-3.418,1.485.567a17.09,17.09,0,0,1-2.51,2.705,22.781,22.781,0,0,1-3.017,2.275,7.474,7.474,0,0,0-1.231-1.172,17.324,17.324,0,0,0,2.959-1.982A13.184,13.184,0,0,0,180.4,2133.675Zm12.305-2.07v1.445H175.3V2131.6h7.91v-2.617h1.484v2.617Zm-6.347,2.871,1.171-.9q1.563,1.055,3.067,2.275a18.057,18.057,0,0,1,2.3,2.158l-1.308,1.016a18.668,18.668,0,0,0-2.246-2.217Q187.857,2135.532,186.354,2134.476Z"/>
    <path id="Path_600" data-name="Path 600" d="M200.263,2136.527l-.84,1.23a13.235,13.235,0,0,0-3.633-2.109l.82-1.113A13.436,13.436,0,0,1,200.263,2136.527Zm-.332,3.066,1.113.918a72.8,72.8,0,0,1-3.4,6.465l-1.25-.937A56.479,56.479,0,0,0,199.931,2139.593Zm1.328-8.261-.86,1.171a13.031,13.031,0,0,0-3.554-2.246l.8-1.074A12.237,12.237,0,0,1,201.259,2131.332Zm1.836,9.14v-2.07h1.347v2.109a14.139,14.139,0,0,1-.1,1.739,9.616,9.616,0,0,1-.391,1.7,5.975,5.975,0,0,1-.918,1.758,7.1,7.1,0,0,1-1.582,1.523,4.778,4.778,0,0,0-1.055-.977,6.486,6.486,0,0,0,1.446-1.328,4.8,4.8,0,0,0,.82-1.533,9.07,9.07,0,0,0,.342-1.455A11.036,11.036,0,0,0,203.1,2140.472Zm-1.406-2.851-.157-1.387q.938-.019,2.305-.059a22.5,22.5,0,0,0,1.6-3.222H201.3V2131.6h5.273v-2.578h1.5v2.578h5.86v1.348h-6.8q-.978,1.836-1.8,3.144.585-.018,2.49-.088l2.959-.107a21.534,21.534,0,0,0-1.641-1.621l1.153-.664a23.333,23.333,0,0,1,2.148,2.109,13.872,13.872,0,0,1,1.582,2.051l-1.23.723a13.22,13.22,0,0,0-.957-1.368Q201.805,2137.621,201.689,2137.621Zm4.882,8.789v-7.891H207.9v7.891Zm4.9-1.426q0,.625.117.7a.5.5,0,0,0,.312.078h.567a.682.682,0,0,0,.469-.117,1.007,1.007,0,0,0,.175-.527q.039-.353.078-1.973a3.355,3.355,0,0,0,1.035.547,10.3,10.3,0,0,1-.2,2.265,1.332,1.332,0,0,1-1.484,1h-.977a1.642,1.642,0,0,1-1.094-.332,2.7,2.7,0,0,1-.39-1.778V2138.4h1.387Z"/>
    <path id="Path_601" data-name="Path 601" d="M221.008,2138.246v5q1.367,2.109,5.039,2.265,5,.138,9.121-.136a4.124,4.124,0,0,0-.508,1.464q-4.609.156-8.594.059-3.906-.175-5.7-2.363-1.016.977-2.89,2.558l-.782-1.465a29.055,29.055,0,0,0,2.872-2.285v-3.711h-2.618v-1.386Zm.41-2.715-1.035,1.074a11.5,11.5,0,0,0-3.418-2.383l.976-.957a16.907,16.907,0,0,1,1.944,1.084A9.408,9.408,0,0,1,221.418,2135.531Zm.527-3.965-1.035,1.016a11.013,11.013,0,0,0-3.144-2.4l.976-.918A10.823,10.823,0,0,1,221.945,2131.566Zm1.934,2.988h3.359q.195-.918.313-1.679H222.3v-1.25h3.3a7.422,7.422,0,0,0-1.328-2.11l1.152-.488a6.748,6.748,0,0,1,1.465,2.285l-.723.313h4.473l-.742-.2a16.73,16.73,0,0,0,1.347-2.422l1.485.352a24.818,24.818,0,0,1-1.485,2.266h3.594v1.25h-5.684q-.1.351-.322.966c-.15.411-.231.648-.244.713H233.2v9.649h-1.484v-.645h-6.426v.645h-1.406Zm7.832,2.656v-1.5h-6.426v1.5Zm-6.426,1.055v1.543h6.426v-1.543Zm0,4.16h6.426v-1.562h-6.426Z"/>
    <path id="Path_602" data-name="Path 602" d="M245.288,2141.976l-.43-1.055q2.384-1,2.52-2.929a2.347,2.347,0,0,1-.352.019,1.582,1.582,0,0,1-1.074-.371,1.318,1.318,0,0,1-.429-1.055,1.333,1.333,0,0,1,.439-1.064,1.6,1.6,0,0,1,1.084-.381,1.461,1.461,0,0,1,1.25.615,2.822,2.822,0,0,1,.449,1.69,4.377,4.377,0,0,1-.928,2.783A5.414,5.414,0,0,1,245.288,2141.976Z"/>
    <path id="Path_603" data-name="Path 603" d="M268.63,2138.382h7.227v6.407h-1.582v-.8H268.63v3.281h-1.562v-3.281H261.56v.84h-1.484v-6.446h6.992v-1.66h-6.211v-5.39h6.211v-2.3h1.562v2.3h6.328v5.39H268.63Zm-7.07,4.258h5.508v-2.871H261.56Zm.781-7.226h4.727v-2.774h-4.727Zm11.055-2.774H268.63v2.774H273.4Zm-4.766,10h5.645v-2.871H268.63Z"/>
    <path id="Path_604" data-name="Path 604" d="M286.895,2131.214h-1.133v16.055h-1.269V2143.4q-2.853.645-4.571.976l-.254-1.367.606-.117q.41-.078.644-.117v-11.563h-1.035v-1.347h7.012Zm-2.4,2.813v-2.813h-2.285v2.813Zm-2.285,1.25v2.851h2.285v-2.851Zm0,7.265,2.285-.449v-2.734h-2.285Zm7.89-7.109.957-.332a8.481,8.481,0,0,1,1.25,2.871l-.976.371c-.053-.247-.111-.481-.176-.7q-.918.078-2.5.225t-2.031.185l-.157-1.133,1.133-.078q.626-.9,1.328-2.07a12.092,12.092,0,0,0-2.168-2.363l.684-.84c.2.144.358.273.488.391a18.525,18.525,0,0,0,1.309-2.93l1.25.41q-.176.313-.567,1.035t-.693,1.25q-.3.528-.576.918a10.148,10.148,0,0,1,.9,1q.509-.918,1.075-2.207l1.152.41a55.823,55.823,0,0,1-2.969,4.922l1.914-.156A10.463,10.463,0,0,0,290.1,2135.433Zm0,6.231V2138.5h1.231v3.183a11.08,11.08,0,0,1-.108,1.641,6.228,6.228,0,0,1-.429,1.465,4.166,4.166,0,0,1-.977,1.386,6.831,6.831,0,0,1-1.67,1.133,3.412,3.412,0,0,0-.762-.976,4.466,4.466,0,0,0,2.52-2.813h-1.6v.9h-1.152v-5.2H288.3v3.2h1.778C290.091,2142.256,290.1,2142,290.1,2141.664Zm8.047-3.536-1.016.372a6.209,6.209,0,0,0-.273-.918q-3.711.371-4.355.429l-.2-1.133.918-.058a24.124,24.124,0,0,0,1.309-2.051,11.022,11.022,0,0,0-2.285-2.4l.683-.879q.488.371.567.449a18.646,18.646,0,0,0,1.308-2.91l1.289.41q-1.621,2.832-1.875,3.2a8.786,8.786,0,0,1,.9,1.035,24.953,24.953,0,0,0,1.133-2.285l1.21.43a53.992,53.992,0,0,1-3.027,4.922l1.973-.157a8.482,8.482,0,0,0-.664-1.191l.957-.352A8.969,8.969,0,0,1,298.145,2138.128Zm-2.012,4.3v-3.2h1.153v5.137h-1.153v-.84H294.2v3.75h-1.231v-8.809H294.2v3.965Z"/>
    <path id="Path_605" data-name="Path 605" d="M301.566,2129.925h16.6v17.4H316.7v-.918H302.992v.918h-1.426Zm1.426,15.137H316.7v-13.77H302.992Zm6.875-4.082.058,1.055q-.664.117-2.783.527t-3.057.586l-.195-1.113q.879-.136,3.076-.537T309.867,2140.98Zm3.808-5.039,1.211.273a15.789,15.789,0,0,1-2.226,4.883q.7,1.719,1.621,1.856.39.117.625-2.071a3,3,0,0,0,.957.664q-.372,3.185-1.973,2.579a3.233,3.233,0,0,1-2.09-1.934,13.249,13.249,0,0,1-2.636,2.285,5.514,5.514,0,0,0-.879-.937,11.014,11.014,0,0,0,3.027-2.618,27.126,27.126,0,0,1-1.113-5.9h-6.114v-1.113H310.1q-.117-1.407-.156-2.129h1.289q.039.723.117,2.129h4.356v1.113h-4.258a27.909,27.909,0,0,0,.742,4.609A12.728,12.728,0,0,0,313.675,2135.941Zm-8.886.351H309.2v3.868h-4.414Zm3.339,2.93v-1.992h-2.3v1.992Zm7.071-6.308-.7.781a6.686,6.686,0,0,0-2.149-1.406l.7-.743A7.286,7.286,0,0,1,315.2,2132.914Z"/>
    <path id="Path_606" data-name="Path 606" d="M325.9,2138.246v5q1.367,2.109,5.039,2.265,5,.138,9.122-.136a4.124,4.124,0,0,0-.508,1.464q-4.611.156-8.594.059-3.908-.175-5.7-2.363-1.016.977-2.891,2.558l-.781-1.465a29.171,29.171,0,0,0,2.871-2.285v-3.711h-2.617v-1.386Zm.411-2.715-1.036,1.074a11.476,11.476,0,0,0-3.418-2.383l.977-.957a16.9,16.9,0,0,1,1.943,1.084A9.378,9.378,0,0,1,326.315,2135.531Zm.527-3.965-1.035,1.016a11.034,11.034,0,0,0-3.145-2.4l.977-.918A10.823,10.823,0,0,1,326.842,2131.566Zm1.933,2.988h3.36q.2-.918.312-1.679h-5.254v-1.25h3.3a7.422,7.422,0,0,0-1.328-2.11l1.152-.488a6.732,6.732,0,0,1,1.465,2.285l-.723.313h4.473l-.742-.2a16.733,16.733,0,0,0,1.348-2.422l1.484.352a24.85,24.85,0,0,1-1.484,2.266h3.593v1.25h-5.683q-.1.351-.322.966c-.15.411-.232.648-.245.713h4.61v9.649h-1.485v-.645h-6.425v.645h-1.407Zm7.832,2.656v-1.5h-6.425v1.5Zm-6.425,1.055v1.543h6.425v-1.543Zm0,4.16h6.425v-1.562h-6.425Z"/>
    <path id="Path_607" data-name="Path 607" d="M344.423,2145.746v-1.524h4.453v-10.957h-3.4v-1.152q1.1-.175,1.583-.274t1.152-.3a4.484,4.484,0,0,0,1.113-.5h1.367v13.183h4.18v1.524Z"/>
    <path id="Path_608" data-name="Path 608" d="M361.555,2139.769h3.867c-.013.287-.027.488-.039.606q-.234,3.085-.5,4.492a4.247,4.247,0,0,1-.674,1.875,1.7,1.7,0,0,1-1.211.527,12.382,12.382,0,0,1-2.07-.019,2.881,2.881,0,0,0-.391-1.29q.84.078,1.914.079a.71.71,0,0,0,.645-.2q.566-.527.879-4.824h-2.715q-.176.742-.332,1.27l-1.328-.235q.624-2.128,1-4.043h-1.719v-1.328h7.48v1.328h-4.394Zm3.945-10v5.508h-5.7v-5.508Zm-1.387,4.277V2131h-2.988v3.046Zm4.141.137v3.867q0,6.25-2.129,9.336a3.033,3.033,0,0,0-1.133-.82q1.914-2.793,1.914-8.516v-5.1h3.907v-3.946h1.425v1.407h4.024v1.191h-4.024v1.348h3.867l.215-.059.938.234q-.411,2.091-.82,3.536l-1.114-.274q.254-1.269.391-2.207Zm1.6,6.113h1.309a14.25,14.25,0,0,1-.791,4.444,5.1,5.1,0,0,1-2.393,2.607,2.808,2.808,0,0,0-.859-1.074,4.055,4.055,0,0,0,2.07-2.139A12.33,12.33,0,0,0,369.855,2140.3Zm2.989-1.953h1.836a.482.482,0,0,0,.468-.215,2.85,2.85,0,0,0,.137-1.035,4.037,4.037,0,0,0,1.133.43,2.779,2.779,0,0,1-.41,1.523,1.447,1.447,0,0,1-1.153.391h-2.167a2.42,2.42,0,0,1-1.456-.3,1.6,1.6,0,0,1-.361-1.24v-.8l-2.031.2-.137-1.036,2.168-.234V2134.3h1.348v1.582l2.383-.234.136,1.035-2.519.254v.938a.487.487,0,0,0,.107.38A.946.946,0,0,0,372.844,2138.343Zm1.211,6.836c0,.3.2.449.605.449h.7q.742,0,.84-.527a14.469,14.469,0,0,0,.078-1.973,3.108,3.108,0,0,0,1.094.606,11.635,11.635,0,0,1-.2,2.266q-.313.955-1.7.957h-1.113a1.838,1.838,0,0,1-1.191-.313.886.886,0,0,1-.332-.5,4.39,4.39,0,0,1-.078-.986V2140.3h1.289Z"/>
    <path id="Path_609" data-name="Path 609" d="M387.4,2135.472a31.321,31.321,0,0,1,4.473,4.434l-1.348,1.133a31.564,31.564,0,0,0-4.414-4.434Z"/>
    <path id="Path_610" data-name="Path 610" d="M407.732,2145.98a6.8,6.8,0,0,1-5.586-2.48l.957-1.153a5.7,5.7,0,0,0,4.531,2.11,3.872,3.872,0,0,0,2.432-.743,2.364,2.364,0,0,0,.967-1.972q0-2.891-5.078-2.891v-1.406a6.35,6.35,0,0,0,3.5-.781,2.3,2.3,0,0,0,1.172-1.954,2.135,2.135,0,0,0-.791-1.728,3.388,3.388,0,0,0-2.217-.654,5.427,5.427,0,0,0-4.063,1.836l-1-1.114a7.18,7.18,0,0,1,5.117-2.246,5.363,5.363,0,0,1,3.438,1.026,3.267,3.267,0,0,1,1.289,2.685,3.392,3.392,0,0,1-.742,2.217,3.961,3.961,0,0,1-2.071,1.279v.078a4.041,4.041,0,0,1,2.325,1.28,3.831,3.831,0,0,1-.567,5.478A5.723,5.723,0,0,1,407.732,2145.98Z"/>
    <path id="Path_611" data-name="Path 611" d="M419.688,2139.769h3.867c-.013.287-.026.488-.039.606q-.234,3.085-.5,4.492a4.235,4.235,0,0,1-.674,1.875,1.7,1.7,0,0,1-1.211.527,12.382,12.382,0,0,1-2.07-.019,2.856,2.856,0,0,0-.391-1.29q.84.078,1.914.079a.708.708,0,0,0,.645-.2q.566-.527.879-4.824h-2.715q-.175.742-.332,1.27l-1.328-.235q.624-2.128,1-4.043h-1.719v-1.328h7.481v1.328h-4.4Zm3.945-10v5.508h-5.7v-5.508Zm-1.386,4.277V2131h-2.989v3.046Zm4.14.137v3.867q0,6.25-2.129,9.336a3.037,3.037,0,0,0-1.132-.82q1.912-2.793,1.914-8.516v-5.1h3.906v-3.946h1.426v1.407h4.023v1.191h-4.023v1.348h3.867l.215-.059.937.234q-.409,2.091-.82,3.536l-1.113-.274q.254-1.269.39-2.207Zm1.6,6.113H429.3a14.251,14.251,0,0,1-.791,4.444,5.091,5.091,0,0,1-2.392,2.607,2.81,2.81,0,0,0-.86-1.074,4.06,4.06,0,0,0,2.071-2.139A12.36,12.36,0,0,0,427.989,2140.3Zm2.988-1.953h1.836a.484.484,0,0,0,.469-.215,2.882,2.882,0,0,0,.136-1.035,4.051,4.051,0,0,0,1.133.43,2.779,2.779,0,0,1-.41,1.523,1.445,1.445,0,0,1-1.152.391h-2.168a2.415,2.415,0,0,1-1.455-.3,1.593,1.593,0,0,1-.362-1.24v-.8l-2.031.2-.137-1.036,2.168-.234V2134.3h1.348v1.582l2.383-.234.137,1.035-2.52.254v.938a.491.491,0,0,0,.107.38A.948.948,0,0,0,430.977,2138.343Zm1.211,6.836c0,.3.2.449.605.449h.7q.741,0,.839-.527a14.4,14.4,0,0,0,.079-1.973,3.093,3.093,0,0,0,1.093.606,11.635,11.635,0,0,1-.2,2.266q-.313.955-1.7.957H432.5a1.841,1.841,0,0,1-1.192-.313.9.9,0,0,1-.332-.5,4.39,4.39,0,0,1-.078-.986V2140.3h1.289Z"/>
    <path id="Path_612" data-name="Path 612" d="M453.675,2135.667l.976.411a14.31,14.31,0,0,1-4.453,7.461,16.414,16.414,0,0,0,6.113,2.285,4.065,4.065,0,0,0-1,1.445,15.945,15.945,0,0,1-6.425-2.715,18.886,18.886,0,0,1-6.192,2.656,3.909,3.909,0,0,0-.84-1.328,17.19,17.19,0,0,0,5.86-2.324,15.82,15.82,0,0,1-4.082-6.406h-.078q-1.037,6.757-4.512,9.707a6.769,6.769,0,0,0-1.172-1,9.387,9.387,0,0,0,1.953-2.246,13.052,13.052,0,0,0,1.309-2.676,19.753,19.753,0,0,0,.771-3.106q.3-1.756.42-3.134t.176-3.174h-3.535v-1.445h11.211l.254-.079,1.093.157q-.293,2.481-.9,5.566H453.4Zm-3.867-4.14h-5.743q-.1,2.206-.312,4.2h5.312Q449.476,2133.636,449.808,2131.527Zm2.968,5.625H445a13.25,13.25,0,0,0,3.945,5.488A12.174,12.174,0,0,0,452.776,2137.152Z"/>
    <path id="Path_613" data-name="Path 613" d="M465.455,2138.324l-.918,1.113a27.017,27.017,0,0,0-1.523-2.754v10.586h-1.426v-9.18a20.575,20.575,0,0,1-2.07,5.157,6.966,6.966,0,0,0-.762-1.465,15.706,15.706,0,0,0,1.582-3.36,27.955,27.955,0,0,0,1.152-4.179h-2.441v-1.387h2.539v-3.848h1.426v3.848h1.933v1.387h-1.933v.644q.448.587,1.328,1.807T465.455,2138.324Zm3.281-1.094v-8.2h1.348v8.2q0,1.251-.078,2.227a16.049,16.049,0,0,1-.352,2.2,9.78,9.78,0,0,1-.742,2.178,8.037,8.037,0,0,1-1.347,1.9,8.361,8.361,0,0,1-2.071,1.611,4.28,4.28,0,0,0-.937-1.094,7.266,7.266,0,0,0,4.062-6.211q-1.405,1.212-2.949,2.461l-.723-1.328q.84-.565,3.77-2.675Q468.735,2138.05,468.736,2137.23Zm-.273-1.172-1.153.547a20.1,20.1,0,0,0-1.757-4.16l1.093-.43A18,18,0,0,1,468.463,2136.058Zm5.508,9.59h1.66c.208,0,.345-.159.41-.479a14.262,14.262,0,0,0,.137-1.962,3.822,3.822,0,0,0,1.269.585,6.717,6.717,0,0,1-.459,2.5,1.32,1.32,0,0,1-1.279.684h-1.934a1.732,1.732,0,0,1-1.4-.449,3.034,3.034,0,0,1-.361-1.777v-15.723H473.4v9.473l.567-.508a28.2,28.2,0,0,1,3.437,3.4l-.937.938a25.407,25.407,0,0,0-3.067-3.243v5.684a1.631,1.631,0,0,0,.1.723Q473.6,2145.648,473.971,2145.648Zm1.738-13.809,1.367.586q-1.641,3.087-2.324,4.121l-1.055-.527A22.9,22.9,0,0,0,475.709,2131.839Z"/>
    <path id="Path_614" data-name="Path 614" d="M480.77,2129.886h16.6v17.383h-1.465v-.84H482.2v.84H480.77Zm1.426,15.2h13.711v-13.829H482.2Zm11.543-5.293.957.586a16.883,16.883,0,0,1-2.5,1.7,12.407,12.407,0,0,0,3.164,1.289,3.451,3.451,0,0,0-.82.976,13.447,13.447,0,0,1-2.773-1.259,11.449,11.449,0,0,1-2.364-1.827v3.262h-1.328v-2.969a21.677,21.677,0,0,1-4.394,2.305,4.7,4.7,0,0,0-.879-1,16.369,16.369,0,0,0,5.273-2.676h-3.633V2136.8h9.3Zm1.172-4.864v.957H483.173v-.957h5.156v-1.25h-4v-.937h4v-1.113h1.348v1.113h4.179v.937h-4.179v1.25Zm-9.219,2.754v1.582h6.719v-1.582Zm7.559,2.5h-3.418a9.354,9.354,0,0,0,1.543,1.367Q492.509,2140.766,493.251,2140.179Z"/>
    <path id="Path_615" data-name="Path 615" d="M516.515,2140.687l1.27.488a11,11,0,0,1-2.3,3.2q.879,1.641,1.973,1.641a.649.649,0,0,0,.634-.469,6.765,6.765,0,0,0,.264-1.8,2.886,2.886,0,0,0,1.016.645,5.528,5.528,0,0,1-.586,2.3,1.576,1.576,0,0,1-1.407.605,3.419,3.419,0,0,1-2.91-2.07,14.4,14.4,0,0,1-3.476,2.012,7.9,7.9,0,0,0-.8-.938,12.8,12.8,0,0,0,3.75-2.207,17.237,17.237,0,0,1-1.035-3.73H509.8q0,.078-.117,1.152a19.925,19.925,0,0,1,2.754,1.953l-.84,1.035a17.058,17.058,0,0,0-2.168-1.719,7.306,7.306,0,0,1-2.617,4.434,3.705,3.705,0,0,0-.9-.977,5,5,0,0,0,1.816-2.353,12.934,12.934,0,0,0,.742-3.525h-1.426v-1.133l-.6.879a27.9,27.9,0,0,0-1.426-2.852v9.981h-1.347v-9.239a21.127,21.127,0,0,1-2.188,5.43,6.071,6.071,0,0,0-.742-1.231,15.571,15.571,0,0,0,1.592-3.32,29.615,29.615,0,0,0,1.2-4.2h-2.383v-1.367h2.52v-4.317h1.347v4.317h2.168v1.367h-2.168v.9q.39.528,1.182,1.778t1.006,1.679l-.1.118h5.606a72.044,72.044,0,0,1-.645-10.137h1.348a62.939,62.939,0,0,0,.605,10.137h2.715a10.6,10.6,0,0,0-1.68-1.153l.7-.722a8.428,8.428,0,0,1,2.11,1.445l-.41.43h1.64v1.211H514.21a18.911,18.911,0,0,0,.723,2.753A9.188,9.188,0,0,0,516.515,2140.687Zm-9.648-4.2.7-.039q.487-.645,1.347-1.934a13.4,13.4,0,0,0-2.128-2.051l.625-.82q.076.059.234.186c.1.085.182.146.234.185a18.329,18.329,0,0,0,1.211-2.812l1.153.468q-1.485,2.736-1.622,2.969a7.669,7.669,0,0,1,.86.879,23.727,23.727,0,0,0,1.25-2.324l1.074.508a51.332,51.332,0,0,1-2.988,4.668l1.953-.118a8.861,8.861,0,0,0-.547-1.25l.918-.332a8.645,8.645,0,0,1,1.133,2.871l-1,.43a4.182,4.182,0,0,0-.157-.683q-1.288.1-4.042.371Zm6.894-.2.645-.039q.839-1.152,1.211-1.777a11.705,11.705,0,0,0-2.11-2.012l.625-.82a2.254,2.254,0,0,0,.215.176,2.412,2.412,0,0,1,.235.195,20.518,20.518,0,0,0,1.23-2.812l1.152.468q-.937,1.857-1.64,2.95.762.76.879.9a23.935,23.935,0,0,0,1.25-2.324l1.074.508q-1.66,2.832-2.852,4.472l2.11-.156q-.333-.721-.567-1.133l.918-.371a9.436,9.436,0,0,1,1.231,2.871l-.957.469a3.251,3.251,0,0,0-.235-.82q-.879.1-2.353.215t-1.826.156Z"/>
    <path id="Path_616" data-name="Path 616" d="M527.905,2139.417l.332,1.329q-2.442,1.23-5.879,2.871l-.586-1.446q1.211-.487,2.715-1.191v-6.25h-2.344v-1.406h2.344v-4.16h1.386v4.16h2.149v1.406h-2.149v5.625Zm12.265-.976h-8.222a11.957,11.957,0,0,1-.86,1.406h8.594a4.453,4.453,0,0,1-.059.606,41.9,41.9,0,0,1-.478,4.424,3.848,3.848,0,0,1-.693,1.826,1.754,1.754,0,0,1-1.114.507q-.84.039-1.992-.019a2.164,2.164,0,0,0-.332-1.211q1,.078,1.7.078a.711.711,0,0,0,.606-.215q.566-.585.9-4.765h-1.562a16.365,16.365,0,0,1-1.729,3.584,10.35,10.35,0,0,1-2.353,2.685,3.741,3.741,0,0,0-1.055-.859,8.591,8.591,0,0,0,2.207-2.256,14.537,14.537,0,0,0,1.68-3.154h-1.934a14.886,14.886,0,0,1-2.148,3.047,13.049,13.049,0,0,1-2.715,2.363,3.506,3.506,0,0,0-.977-.918,10.579,10.579,0,0,0,2.452-1.9,13.7,13.7,0,0,0,2.04-2.6h-2.011a13.372,13.372,0,0,1-2.6,2.285,4.491,4.491,0,0,0-1.016-.918,10.871,10.871,0,0,0,3.946-4h-2.793v-1.25H540.17Zm-1.425-8.828v6.445H529.6v-6.445Zm-1.368,2.7v-1.582h-6.406v1.582Zm0,2.637v-1.6h-6.406v1.6Z"/>
    <path id="Path_617" data-name="Path 617" d="M550.388,2147.8l-.449-1.054a3.77,3.77,0,0,0,2.539-3.36,1.25,1.25,0,0,1-.371.039,1.562,1.562,0,0,1-1.074-.38,1.347,1.347,0,0,1-.43-1.065,1.312,1.312,0,0,1,.439-1.045,1.6,1.6,0,0,1,1.085-.381,1.453,1.453,0,0,1,1.269.655,3.119,3.119,0,0,1,.449,1.787,4.829,4.829,0,0,1-.908,2.949A5.507,5.507,0,0,1,550.388,2147.8Zm2.7-13.349a1.516,1.516,0,0,1-1.074.42,1.482,1.482,0,0,1-1.064-.42,1.555,1.555,0,0,1,0-2.168,1.483,1.483,0,0,1,1.064-.42,1.516,1.516,0,0,1,1.074.42,1.531,1.531,0,0,1,0,2.168Z"/>
    <path id="Path_618" data-name="Path 618" d="M85.363,2178.324l-.918,1.113a27.025,27.025,0,0,0-1.523-2.754v10.586H81.5v-9.18a20.575,20.575,0,0,1-2.07,5.157,6.872,6.872,0,0,0-.762-1.465,15.705,15.705,0,0,0,1.582-3.36,27.838,27.838,0,0,0,1.152-4.179H78.957v-1.387H81.5v-3.848h1.426v3.848h1.933v1.387H82.922v.644q.449.587,1.328,1.807T85.363,2178.324Zm3.282-1.094v-8.2h1.347v8.2q0,1.251-.078,2.227a16.035,16.035,0,0,1-.351,2.2,9.832,9.832,0,0,1-.743,2.178,8.009,8.009,0,0,1-1.347,1.9,8.361,8.361,0,0,1-2.071,1.611,4.26,4.26,0,0,0-.937-1.094,7.264,7.264,0,0,0,4.062-6.211q-1.406,1.212-2.949,2.461l-.723-1.328q.84-.565,3.77-2.675Q88.645,2178.05,88.645,2177.23Zm-.274-1.172-1.152.547a20.157,20.157,0,0,0-1.758-4.16l1.094-.43A18.036,18.036,0,0,1,88.371,2176.058Zm5.508,9.59h1.66c.208,0,.345-.159.41-.479a14.1,14.1,0,0,0,.137-1.962,3.822,3.822,0,0,0,1.269.585,6.717,6.717,0,0,1-.459,2.5,1.32,1.32,0,0,1-1.279.684H93.684a1.733,1.733,0,0,1-1.4-.449,3.034,3.034,0,0,1-.361-1.777v-15.723h1.387v9.473l.566-.508a28.2,28.2,0,0,1,3.437,3.4l-.937.938a25.462,25.462,0,0,0-3.066-3.243v5.684a1.652,1.652,0,0,0,.1.723Q93.507,2185.648,93.879,2185.648Zm1.738-13.809,1.367.586q-1.64,3.087-2.324,4.121l-1.055-.527A22.833,22.833,0,0,0,95.617,2171.839Z"/>
    <path id="Path_619" data-name="Path 619" d="M100.791,2169.886h16.6v17.383h-1.465v-.84H102.216v.84h-1.425Zm1.425,15.2h13.711v-13.829H102.216Zm11.543-5.293.957.586a16.882,16.882,0,0,1-2.5,1.7,12.422,12.422,0,0,0,3.164,1.289,3.467,3.467,0,0,0-.82.976,13.471,13.471,0,0,1-2.773-1.259,11.45,11.45,0,0,1-2.364-1.827v3.262H108.1v-2.969a21.677,21.677,0,0,1-4.394,2.305,4.7,4.7,0,0,0-.879-1,16.369,16.369,0,0,0,5.273-2.676h-3.633V2176.8h9.3Zm1.172-4.864v.957H103.193v-.957h5.156v-1.25h-4v-.937h4v-1.113H109.7v1.113h4.18v.937H109.7v1.25Zm-9.219,2.754v1.582h6.719v-1.582Zm7.559,2.5h-3.418a9.354,9.354,0,0,0,1.543,1.367Q112.528,2180.766,113.271,2180.179Z"/>
    <path id="Path_620" data-name="Path 620" d="M126.628,2175.941l.859.254a21.355,21.355,0,0,1-1.914,6.992,7.54,7.54,0,0,0,3.34,1.69,21.412,21.412,0,0,0,4.688.478q4.315,0,5.878-.059a3.86,3.86,0,0,0-.605,1.465h-5.313a21.279,21.279,0,0,1-5.038-.517,8.528,8.528,0,0,1-3.614-1.846,9.929,9.929,0,0,1-2.871,2.969,3.509,3.509,0,0,0-.508-.567,3.022,3.022,0,0,0-.6-.468,9.007,9.007,0,0,0,2.949-2.989,12.59,12.59,0,0,1-2.012-4.062l1.153-.43a9.656,9.656,0,0,0,1.562,3.223,17.505,17.505,0,0,0,1.348-4.785h-2.7l-.507.878-1.368-.429q1.739-2.969,3.379-6.133h-3.672v-1.328h4.454l.254-.078,1.015.351q-1.093,2.208-2.832,5.43h2.383Zm12.6,5.684v1.386H127.565v-1.386h1.621v-7.4h1.426v7.4h2.442v-10.176q-2.188.312-4.571.527a3.6,3.6,0,0,0-.429-1.211,44.96,44.96,0,0,0,9.511-1.68l1.075,1.172a32.171,32.171,0,0,1-4.121.957v4.141h4.316v1.328h-4.316v4.942Z"/>
    <path id="Path_621" data-name="Path 621" d="M160.2,2178.792v1.446h-8.242v7.012h-1.524v-7.012h-8.047v-1.446h8.047V2171.8h-6.992v-1.425h15.625v1.425h-7.109v6.992Zm-12.989-6.152,1.485.449a17.094,17.094,0,0,1-3.574,4.844,5.136,5.136,0,0,0-1.192-.84,12.183,12.183,0,0,0,1.875-2.07A12.84,12.84,0,0,0,147.211,2172.64Zm6.407.625,1.211-.664a27.329,27.329,0,0,1,2.207,2.324,14.861,14.861,0,0,1,1.6,2.207l-1.308.743a14.7,14.7,0,0,0-1.563-2.256A26.256,26.256,0,0,0,153.618,2173.265Z"/>
    <path id="Path_622" data-name="Path 622" d="M179.182,2170.98l.918.43a15.429,15.429,0,0,1-2.91,5.312,13.179,13.179,0,0,0,4.55,2.949,4.792,4.792,0,0,0-.918,1.211,2.3,2.3,0,0,0-.322-.146l-.322-.127v6.582h-1.407v-.664h-5v.723h-1.386v-6.661q-.216.117-1.192.547a4.21,4.21,0,0,0-.722-1h-2.11v3.594q.86-.195,2.618-.625l.156,1.328q-.528.137-3.477.85t-4.2,1.025l-.274-1.445,1.016-.215v-6.836h1.27v6.562l1.543-.351v-8.086H164.2v-6.094h6.465v5.293a13.768,13.768,0,0,0,3.613-6.133l1.426.332q-.137.391-.645,1.7h3.868Zm-13.653.156v3.516h3.75v-3.516Zm5.313,7.7v.957a13.86,13.86,0,0,0,4.531-3.125,19.608,19.608,0,0,1-1.855-2.735,15.564,15.564,0,0,1-1.817,2.3,7.05,7.05,0,0,0-1.035-.879v.586h-2.305v2.891Zm2.441,1.23h5.957a15.275,15.275,0,0,1-2.949-2.363A16.161,16.161,0,0,1,173.283,2180.062Zm.488,5.137h5v-3.828h-5Zm4.493-12.852h-3.829l-.195.371a16.3,16.3,0,0,0,1.992,3.008A13.31,13.31,0,0,0,178.264,2172.347Z"/>
    <path id="Path_623" data-name="Path 623" d="M189.9,2175.941l.859.254a21.38,21.38,0,0,1-1.914,6.992,7.535,7.535,0,0,0,3.34,1.69,21.409,21.409,0,0,0,4.687.478q4.317,0,5.879-.059a3.86,3.86,0,0,0-.605,1.465h-5.313a21.294,21.294,0,0,1-5.039-.517,8.53,8.53,0,0,1-3.613-1.846,9.929,9.929,0,0,1-2.871,2.969,3.509,3.509,0,0,0-.508-.567,3.022,3.022,0,0,0-.6-.468,9.016,9.016,0,0,0,2.949-2.989,12.59,12.59,0,0,1-2.012-4.062l1.153-.43a9.656,9.656,0,0,0,1.562,3.223,17.5,17.5,0,0,0,1.348-4.785h-2.7l-.507.878-1.368-.429q1.738-2.969,3.379-6.133h-3.672v-1.328h4.454l.253-.078,1.016.351q-1.094,2.208-2.832,5.43h2.383Zm12.6,5.684v1.386h-11.66v-1.386h1.621v-7.4h1.426v7.4h2.442v-10.176q-2.188.312-4.571.527a3.6,3.6,0,0,0-.429-1.211,44.96,44.96,0,0,0,9.511-1.68l1.075,1.172a32.186,32.186,0,0,1-4.122.957v4.141h4.317v1.328h-4.317v4.942Z"/>
    <path id="Path_624" data-name="Path 624" d="M209.88,2169.085l1.387.43a30.591,30.591,0,0,1-2.051,4.317v13.4H207.81V2176a18.932,18.932,0,0,1-2.032,2.46,6.025,6.025,0,0,0-.839-1.425,18.447,18.447,0,0,0,2.773-3.545A25.389,25.389,0,0,0,209.88,2169.085Zm7.949,3.086h5.43v10.469h-1.426v-.9h-4v5.508h-1.465v-5.508H212.5v1.035h-1.406v-10.606h5.273V2169.1h1.465Zm-1.465,1.329H212.5v2.773h3.867Zm-3.867,6.875h3.867v-2.813H212.5Zm9.336-6.875h-4v2.773h4Zm-4,6.875h4v-2.813h-4Z"/>
    <path id="Path_625" data-name="Path 625" d="M234.35,2172.328v1.211h-7.871v-1.211Zm-.781,8.027v5.762h-4.844v.937H227.4v-6.7Zm-6.152-4.141v-1.191h6.21v1.191Zm0,2.657v-1.211h6.21v1.211Zm6.21-9.161v1.192h-6.113v-1.192Zm-1.406,11.856h-3.5v3.359h3.5Zm12.754-5.762v1.465H240.5v10h-1.484v-10h-4.687V2175.8h4.687v-6.738H240.5v6.738Z"/>
    <path id="Path_626" data-name="Path 626" d="M257.395,2178.148h8.281v1.035H247.824v-1.035h8.086v-1.035h-6.543v-.938h6.543v-1.035h-6.055v-.918h6.055v-1.094h-8.047v-.937h8.047v-1.016h-5.937v-.937h5.937v-1.231h1.485v1.231h6.054v1.953h2.168v.937h-2.168v2.012h-6.054v1.035h6.835v.938h-6.835Zm-9.571,8.555v-1.055h17.852v1.055Zm2.285-6.641h13.379v4.648H250.109Zm1.426.859v1.016h4.434v-1.016Zm0,1.856v1.074h4.434v-1.074Zm10.449-.84v-1.016h-4.629v1.016Zm0,1.914v-1.074h-4.629v1.074Zm-4.589-12.676v1.016h4.57v-1.016Zm0,1.953v1.094h4.57v-1.094Z"/>
    <path id="Path_627" data-name="Path 627" d="M276.181,2181.976l-.429-1.055q2.382-1,2.519-2.929a2.347,2.347,0,0,1-.352.019,1.582,1.582,0,0,1-1.074-.371,1.318,1.318,0,0,1-.429-1.055,1.333,1.333,0,0,1,.439-1.064,1.6,1.6,0,0,1,1.084-.381,1.461,1.461,0,0,1,1.25.615,2.821,2.821,0,0,1,.449,1.69,4.371,4.371,0,0,1-.928,2.783A5.414,5.414,0,0,1,276.181,2181.976Z"/>
    <path id="Path_628" data-name="Path 628" d="M294.4,2174.691v-5.664h1.348v18.242H294.4v-6.992h-2.207v.488a12.6,12.6,0,0,1-1.445,6.543,2.882,2.882,0,0,0-1.133-.723,11.393,11.393,0,0,0,1.25-5.859v-.449h-1.074v-1.289H294.4v-2.949h-3.75v-6.133h1.309v4.785Zm12.032-4.2.9.468a11.08,11.08,0,0,1-2.48,3.682,14.605,14.605,0,0,1-3.526,2.617,20.422,20.422,0,0,1-4.092,1.592,4.246,4.246,0,0,0-.761-1.133,16.106,16.106,0,0,0,3.867-1.386,16.974,16.974,0,0,0-2.52-2.207q-.742.39-.9.468a5.981,5.981,0,0,0-.938-.9,15.249,15.249,0,0,0,3.418-2.061,11.472,11.472,0,0,0,2.461-2.588l1.426.391a8.712,8.712,0,0,1-.9,1.133H306.2Zm1.562,8.613v1.328h-2.539v5.1a2.335,2.335,0,0,1-.166.986,1.084,1.084,0,0,1-.6.518,11.739,11.739,0,0,1-3.183.254,3.968,3.968,0,0,0-.45-1.426q1.895.059,2.579.019a.635.635,0,0,0,.322-.088.321.321,0,0,0,.088-.263v-5.1h-7.617V2179.1h7.617v-2.6h1.406v2.6Zm-10.2,2.734,1.133-.664a12.252,12.252,0,0,1,2.421,2.91l-1.21.743A12.62,12.62,0,0,0,297.8,2181.839Zm1.015-8.32a13.219,13.219,0,0,1,2.559,2.227q.645-.391,1.5-1.036a14.931,14.931,0,0,0-2.695-2.109Q299.068,2173.383,298.815,2173.519Zm2.5-1.875-.292.273a12.221,12.221,0,0,1,2.714,2.032,10.534,10.534,0,0,0,1.778-2.3Z"/>
    <path id="Path_629" data-name="Path 629" d="M310.961,2177.152h18.165v1.621H310.961Z"/>
    <path id="Path_630" data-name="Path 630" d="M347.913,2170.98l.918.43a15.433,15.433,0,0,1-2.911,5.312,13.191,13.191,0,0,0,4.551,2.949,4.792,4.792,0,0,0-.918,1.211,2.3,2.3,0,0,0-.322-.146l-.322-.127v6.582H347.5v-.664h-5v.723h-1.386v-6.661q-.216.117-1.192.547a4.211,4.211,0,0,0-.722-1h-2.11v3.594q.859-.195,2.617-.625l.157,1.328q-.528.137-3.477.85t-4.2,1.025l-.273-1.445,1.015-.215v-6.836h1.27v6.562l1.543-.351v-8.086h-2.813v-6.094H339.4v5.293a13.768,13.768,0,0,0,3.613-6.133l1.426.332q-.137.391-.644,1.7h3.867Zm-13.653.156v3.516h3.75v-3.516Zm5.313,7.7v.957a13.86,13.86,0,0,0,4.531-3.125,19.613,19.613,0,0,1-1.856-2.735,15.492,15.492,0,0,1-1.816,2.3,7.1,7.1,0,0,0-1.035-.879v.586h-2.3v2.891Zm2.441,1.23h5.957a15.274,15.274,0,0,1-2.949-2.363A16.194,16.194,0,0,1,342.014,2180.062Zm.488,5.137h5v-3.828h-5Zm4.493-12.852h-3.828l-.2.371a16.3,16.3,0,0,0,1.992,3.008A13.31,13.31,0,0,0,346.995,2172.347Z"/>
    <path id="Path_631" data-name="Path 631" d="M358.2,2173.851h3.047q.156-.977.215-1.621h-7.949v-1.387H361.6q.077-1.016.117-1.894l1.7.117q-.059.509-.215,1.777h7.754v1.387h-7.949c-.027.234-.072.547-.137.937s-.1.619-.117.684h5.957v9.3H358.2Zm12.93,11.016v1.367H356v1.055h-1.445V2174.4H356v10.469Zm-3.887-8.282v-1.6h-7.617v1.6Zm0,2.7v-1.621h-7.617v1.621Zm0,2.773v-1.679h-7.617v1.679Z"/>
    <path id="Path_632" data-name="Path 632" d="M378.337,2178.246v5q1.366,2.109,5.04,2.265,5,.138,9.121-.136a4.124,4.124,0,0,0-.508,1.464q-4.609.156-8.594.059-3.906-.175-5.7-2.363-1.016.977-2.891,2.558l-.781-1.465a29.164,29.164,0,0,0,2.871-2.285v-3.711h-2.617v-1.386Zm.508-2.7-1.035,1.055a12.322,12.322,0,0,0-3.457-2.383l.977-.957A12.16,12.16,0,0,1,378.845,2175.55Zm.567-3.906-1.035,1.016a11.443,11.443,0,0,0-3.243-2.481l.977-.918A11.829,11.829,0,0,1,379.412,2171.644Zm5.41,1.5v-1.5h-4.336v-1.113h4.336v-1.524h1.484v1.524H390.8v1.113h-4.492v1.5h5.879v1.133H388.63l.86.254q-.684,1.289-1.074,1.914h3.476v1.133h-5.586v1.347h4.785v1.094h-4.785v1.484h5.7v1.153h-5.7v1.894h-1.484v-1.894h-5.469v-1.153h5.469v-1.484h-4.473v-1.094h4.473v-1.347h-5.215v-1.133h2.969a6.98,6.98,0,0,0-.879-1.934l.918-.234h-3.457v-1.133Zm2.89,3.3-.585-.176a15.875,15.875,0,0,0,.878-1.992h-4.98a5.536,5.536,0,0,1,.937,1.992l-.7.176Z"/>
    <path id="Path_633" data-name="Path 633" d="M401.733,2178.324l-.918,1.113a27.025,27.025,0,0,0-1.523-2.754v10.586h-1.426v-9.18a20.575,20.575,0,0,1-2.07,5.157,6.87,6.87,0,0,0-.762-1.465,15.7,15.7,0,0,0,1.582-3.36,27.965,27.965,0,0,0,1.153-4.179h-2.442v-1.387h2.539v-3.848h1.426v3.848h1.934v1.387h-1.934v.644q.449.587,1.328,1.807T401.733,2178.324Zm3.282-1.094v-8.2h1.347v8.2q0,1.251-.078,2.227a16.038,16.038,0,0,1-.351,2.2,9.833,9.833,0,0,1-.743,2.178,8.009,8.009,0,0,1-1.347,1.9,8.374,8.374,0,0,1-2.07,1.611,4.283,4.283,0,0,0-.938-1.094,7.265,7.265,0,0,0,4.063-6.211q-1.407,1.212-2.95,2.461l-.722-1.328q.838-.565,3.769-2.675Q405.014,2178.05,405.015,2177.23Zm-.274-1.172-1.152.547a20.156,20.156,0,0,0-1.758-4.16l1.094-.43A18.035,18.035,0,0,1,404.741,2176.058Zm5.508,9.59h1.66c.208,0,.345-.159.41-.479a14.1,14.1,0,0,0,.137-1.962,3.827,3.827,0,0,0,1.27.585,6.759,6.759,0,0,1-.459,2.5,1.322,1.322,0,0,1-1.28.684h-1.933a1.733,1.733,0,0,1-1.4-.449,3.034,3.034,0,0,1-.361-1.777v-15.723h1.387v9.473l.566-.508a28.122,28.122,0,0,1,3.437,3.4l-.937.938a25.461,25.461,0,0,0-3.066-3.243v5.684a1.652,1.652,0,0,0,.1.723C409.845,2185.6,410,2185.648,410.249,2185.648Zm1.738-13.809,1.367.586q-1.64,3.087-2.324,4.121l-1.054-.527A22.9,22.9,0,0,0,411.987,2171.839Z"/>
    <path id="Path_634" data-name="Path 634" d="M417.161,2169.886h16.6v17.383H432.3v-.84H418.586v.84h-1.425Zm1.425,15.2H432.3v-13.829H418.586Zm11.543-5.293.957.586a16.883,16.883,0,0,1-2.5,1.7,12.414,12.414,0,0,0,3.165,1.289,3.453,3.453,0,0,0-.821.976,13.471,13.471,0,0,1-2.773-1.259,11.476,11.476,0,0,1-2.364-1.827v3.262h-1.328v-2.969a21.677,21.677,0,0,1-4.394,2.305,4.7,4.7,0,0,0-.879-1,16.369,16.369,0,0,0,5.273-2.676h-3.632V2176.8h9.3Zm1.172-4.864v.957H419.563v-.957h5.156v-1.25h-4v-.937h4v-1.113h1.348v1.113h4.18v.937h-4.18v1.25Zm-9.218,2.754v1.582H428.8v-1.582Zm7.558,2.5h-3.418a9.355,9.355,0,0,0,1.543,1.367Q428.9,2180.766,429.641,2180.179Z"/>
    <path id="Path_635" data-name="Path 635" d="M455.518,2183.031v1.328h-8.262v2.969h-1.5v-2.969h-8.086v-1.328h8.086v-1.641h-6v-7.754h6v-1.445h-7.481v-1.367h7.481v-1.8h1.5v1.8h7.578v1.367h-7.578v1.445h6.152v7.754h-6.152v1.641Zm-14.336-8.145v2.031h4.57v-2.031Zm0,5.274h4.57v-2.051h-4.57Zm10.742-5.274h-4.668v2.031h4.668Zm0,5.274v-2.051h-4.668v2.051Z"/>
    <path id="Path_636" data-name="Path 636" d="M464.48,2182.269l2.187-.508.157,1.387q-1.193.275-4.014.928t-4.014.947l-.312-1.484q.234-.039,4.648-.977a53.9,53.9,0,0,0,1.114-7.617l1.464.273Q465.164,2179.125,464.48,2182.269Zm2.031-9.3v1.367h-7.656v-1.367h3.164v-3.711h1.387v3.711Zm-4.785,9.16-1.309.215a34.09,34.09,0,0,0-.8-6.953l1.23-.234A35.348,35.348,0,0,1,461.726,2182.132Zm15.059-7.578h-4.942v3.946h4.1v8.671h-1.524v-.859h-6v.938H467v-8.75h3.321v-9.493h1.523v4.141h4.942Zm-2.364,10.371v-5.019h-6v5.019Z"/>
    <path id="Path_637" data-name="Path 637" d="M487.1,2181.976l-.43-1.055q2.382-1,2.52-2.929a2.365,2.365,0,0,1-.352.019,1.58,1.58,0,0,1-1.074-.371,1.316,1.316,0,0,1-.43-1.055,1.334,1.334,0,0,1,.44-1.064,1.594,1.594,0,0,1,1.083-.381,1.46,1.46,0,0,1,1.25.615,2.814,2.814,0,0,1,.45,1.69,4.377,4.377,0,0,1-.928,2.783A5.419,5.419,0,0,1,487.1,2181.976Z"/>
    <path id="Path_638" data-name="Path 638" d="M508.792,2180.14l.331,1.426q-2.91,1.347-7.968,3.535l-.547-1.543q1.386-.527,2.754-1.113l-.332-12.363,1.523-.059.293,11.8Q506.136,2181.274,508.792,2180.14Zm10.371,5.918-1.231,1.152a43.7,43.7,0,0,0-4.492-5.293,14.754,14.754,0,0,1-6.856,5.411,6.022,6.022,0,0,0-1.171-1.289,15.605,15.605,0,0,0,4.3-2.325,11.193,11.193,0,0,0,2.881-3.418,18.391,18.391,0,0,0,1.729-4.443,42.025,42.025,0,0,0,.957-5.811l1.6.157q-.781,6.836-2.636,10.371A48.774,48.774,0,0,1,519.163,2186.058Zm-7.54-9.785-1.406.762a15.059,15.059,0,0,0-1.269-2.432,19.173,19.173,0,0,0-1.8-2.451l1.308-.664A17.07,17.07,0,0,1,511.623,2176.273Z"/>
    <path id="Path_639" data-name="Path 639" d="M537.48,2175.667l.977.411a14.316,14.316,0,0,1-4.453,7.461,16.407,16.407,0,0,0,6.113,2.285,4.04,4.04,0,0,0-1,1.445,15.956,15.956,0,0,1-6.426-2.715,18.87,18.87,0,0,1-6.191,2.656,3.924,3.924,0,0,0-.84-1.328,17.176,17.176,0,0,0,5.859-2.324,15.831,15.831,0,0,1-4.082-6.406h-.078q-1.035,6.757-4.511,9.707a6.806,6.806,0,0,0-1.172-1,9.387,9.387,0,0,0,1.953-2.246,13.043,13.043,0,0,0,1.308-2.676,19.634,19.634,0,0,0,.772-3.106q.3-1.756.42-3.134t.176-3.174h-3.536v-1.445h11.211l.254-.079,1.094.157q-.292,2.481-.9,5.566h2.773Zm-3.867-4.14h-5.742q-.1,2.206-.312,4.2h5.312Q533.282,2173.636,533.613,2171.527Zm2.969,5.625h-7.773a13.25,13.25,0,0,0,3.945,5.488A12.173,12.173,0,0,0,536.582,2177.152Z"/>
    <path id="Path_640" data-name="Path 640" d="M560.8,2178.636h-7.187a19.451,19.451,0,0,0,3.467,3.653,17.516,17.516,0,0,0,4.17,2.636,6.146,6.146,0,0,0-1.075,1.27,19.532,19.532,0,0,1-3.974-2.735,22.188,22.188,0,0,1-3.447-3.73v7.559h-1.544v-7.481a21.071,21.071,0,0,1-3.4,3.662,20.3,20.3,0,0,1-3.965,2.705,6.978,6.978,0,0,0-1.074-1.23,17.739,17.739,0,0,0,4.17-2.647,18.707,18.707,0,0,0,3.428-3.662h-7.051v-1.445h7.89v-3.438h-6.464v-1.464h6.464v-3.262h1.544v3.262h6.66v1.464h-6.66v3.438H560.8Z"/>
    <path id="Path_641" data-name="Path 641" d="M88.7,2213.246v4.746a16.076,16.076,0,0,0,3.652,4.2,16.972,16.972,0,0,0,4.864,2.891,5.114,5.114,0,0,0-1.094,1.328,17.273,17.273,0,0,1-4-2.5,20.516,20.516,0,0,1-3.418-3.555v6.914H87.18v-6.855a20.83,20.83,0,0,1-3.4,3.457,18.731,18.731,0,0,1-3.926,2.48,5.727,5.727,0,0,0-1.035-1.25,19.332,19.332,0,0,0,8.36-6.973v-4.882H79.523v-1.465H87.18v-2.754H88.7v2.754h7.93v1.465Zm-5.723.468,1.465.254a16.886,16.886,0,0,1-.781,2.364,23.785,23.785,0,0,1,2.266,2.187l-1.035,1.035a22.321,22.321,0,0,0-1.856-1.953,10.8,10.8,0,0,1-2.519,3.145,7.125,7.125,0,0,0-1.172-.957A10.1,10.1,0,0,0,82.98,2213.714Zm9.415,0,1.425.235a15.088,15.088,0,0,1-.683,2.363,37.1,37.1,0,0,1,3.593,3.066l-1.054,1.036a33.809,33.809,0,0,0-3.125-2.872,9.536,9.536,0,0,1-1.758,2.364,6.137,6.137,0,0,0-1.23-.8A9.2,9.2,0,0,0,92.395,2213.714Z"/>
    <path id="Path_642" data-name="Path 642" d="M99.466,2225.746v-1.075a32.544,32.544,0,0,0,5.1-5.312,7.414,7.414,0,0,0,1.621-4.16,3.074,3.074,0,0,0-.694-2.1,2.521,2.521,0,0,0-2-.791,4.023,4.023,0,0,0-3.047,1.7l-1.054-1.035a7.647,7.647,0,0,1,1.992-1.621,4.832,4.832,0,0,1,2.324-.547,4.14,4.14,0,0,1,3.106,1.182,4.324,4.324,0,0,1,1.152,3.154,7.792,7.792,0,0,1-1.465,4.287,28.845,28.845,0,0,1-4.277,4.873q1.776-.135,2.4-.136h4.063v1.582Z"/>
    <path id="Path_643" data-name="Path 643" d="M115.834,2226a3.788,3.788,0,0,1-3.369-1.944,10.8,10.8,0,0,1-1.221-5.693,10.6,10.6,0,0,1,1.221-5.645,3.9,3.9,0,0,1,6.709,0,10.672,10.672,0,0,1,1.211,5.645,10.874,10.874,0,0,1-1.211,5.693A3.753,3.753,0,0,1,115.834,2226Zm0-1.446a2.262,2.262,0,0,0,2.031-1.533,11.169,11.169,0,0,0,.742-4.658,10.9,10.9,0,0,0-.732-4.58,2.251,2.251,0,0,0-2.041-1.494,2.288,2.288,0,0,0-2.061,1.494,10.646,10.646,0,0,0-.752,4.58,11.047,11.047,0,0,0,.752,4.658A2.29,2.29,0,0,0,115.834,2224.554Z"/>
    <path id="Path_644" data-name="Path 644" d="M122.827,2225.746v-1.075a32.458,32.458,0,0,0,5.1-5.312,7.414,7.414,0,0,0,1.621-4.16,3.069,3.069,0,0,0-.694-2.1,2.519,2.519,0,0,0-2-.791,4.021,4.021,0,0,0-3.047,1.7l-1.055-1.035a7.647,7.647,0,0,1,1.992-1.621,4.832,4.832,0,0,1,2.324-.547,4.14,4.14,0,0,1,3.106,1.182,4.324,4.324,0,0,1,1.152,3.154,7.792,7.792,0,0,1-1.465,4.287,28.845,28.845,0,0,1-4.277,4.873q1.777-.135,2.4-.136h4.063v1.582Z"/>
    <path id="Path_645" data-name="Path 645" d="M138.844,2226a6.339,6.339,0,0,1-4.649-1.934l.9-1.191a4.969,4.969,0,0,0,3.594,1.6,2.943,2.943,0,0,0,2.226-.947,3.5,3.5,0,0,0,.9-2.51,3.449,3.449,0,0,0-.831-2.451,2.889,2.889,0,0,0-2.216-.889,4.379,4.379,0,0,0-2.442.86l-.976-.586.468-6.875h7.129v1.562h-5.527l-.371,4.238a4.5,4.5,0,0,1,2.187-.566,4.428,4.428,0,0,1,3.184,1.172,4.582,4.582,0,0,1,1.23,3.476,4.866,4.866,0,0,1-1.416,3.672A4.7,4.7,0,0,1,138.844,2226Z"/>
    <path id="Path_646" data-name="Path 646" d="M153.727,2215.472a31.219,31.219,0,0,1,4.473,4.434l-1.348,1.133a31.614,31.614,0,0,0-4.413-4.434Z"/>
    <path id="Path_647" data-name="Path 647" d="M166.775,2225.746v-1.075a32.457,32.457,0,0,0,5.1-5.312,7.407,7.407,0,0,0,1.621-4.16,3.074,3.074,0,0,0-.693-2.1,2.522,2.522,0,0,0-2-.791,4.021,4.021,0,0,0-3.047,1.7l-1.055-1.035a7.634,7.634,0,0,1,1.993-1.621,4.826,4.826,0,0,1,2.324-.547,4.138,4.138,0,0,1,3.1,1.182,4.324,4.324,0,0,1,1.152,3.154,7.8,7.8,0,0,1-1.464,4.287,28.9,28.9,0,0,1-4.278,4.873q1.777-.135,2.4-.136h4.062v1.582Z"/>
    <path id="Path_648" data-name="Path 648" d="M183.144,2226a3.79,3.79,0,0,1-3.37-1.944,10.8,10.8,0,0,1-1.22-5.693,10.6,10.6,0,0,1,1.22-5.645,3.8,3.8,0,0,1,3.37-1.914,3.762,3.762,0,0,1,3.339,1.914,10.662,10.662,0,0,1,1.211,5.645,10.864,10.864,0,0,1-1.211,5.693A3.751,3.751,0,0,1,183.144,2226Zm0-1.446a2.262,2.262,0,0,0,2.031-1.533,11.185,11.185,0,0,0,.742-4.658,10.9,10.9,0,0,0-.732-4.58,2.252,2.252,0,0,0-2.041-1.494,2.288,2.288,0,0,0-2.061,1.494,10.646,10.646,0,0,0-.752,4.58,11.047,11.047,0,0,0,.752,4.658A2.29,2.29,0,0,0,183.144,2224.554Z"/>
    <path id="Path_649" data-name="Path 649" d="M190.137,2225.746v-1.075a32.487,32.487,0,0,0,5.1-5.312,7.407,7.407,0,0,0,1.621-4.16,3.074,3.074,0,0,0-.693-2.1,2.521,2.521,0,0,0-2-.791,4.023,4.023,0,0,0-3.047,1.7l-1.054-1.035a7.615,7.615,0,0,1,1.992-1.621,4.826,4.826,0,0,1,2.324-.547,4.136,4.136,0,0,1,3.1,1.182,4.325,4.325,0,0,1,1.153,3.154,7.792,7.792,0,0,1-1.465,4.287,28.891,28.891,0,0,1-4.277,4.873q1.776-.135,2.4-.136h4.062v1.582Z"/>
    <path id="Path_650" data-name="Path 650" d="M209.835,2224.925a4.971,4.971,0,0,1-3.311,1.075,5.109,5.109,0,0,1-3.359-1.094,3.457,3.457,0,0,1-1.328-2.793,3.926,3.926,0,0,1,.771-2.393,5.615,5.615,0,0,1,1.924-1.65v-.1a4.014,4.014,0,0,1-1.972-3.379,3.482,3.482,0,0,1,1.132-2.7,4.12,4.12,0,0,1,2.891-1.035,3.994,3.994,0,0,1,2.94,1.074,3.763,3.763,0,0,1,1.083,2.793,3.652,3.652,0,0,1-.6,1.992,6.005,6.005,0,0,1-1.377,1.543v.1a4.311,4.311,0,0,1,2.48,3.847A3.393,3.393,0,0,1,209.835,2224.925Zm-3.271-.273a2.945,2.945,0,0,0,2.031-.694,2.279,2.279,0,0,0,.781-1.787,2.634,2.634,0,0,0-.283-1.24,2.785,2.785,0,0,0-.928-.976,8.768,8.768,0,0,0-1.162-.684q-.518-.245-1.514-.654a3.84,3.84,0,0,0-1.992,3.32,2.488,2.488,0,0,0,.869,1.943A3.184,3.184,0,0,0,206.564,2224.652Zm.957-6.875a3.916,3.916,0,0,0,1.523-2.949,2.7,2.7,0,0,0-.674-1.866,2.33,2.33,0,0,0-1.826-.752,2.243,2.243,0,0,0-1.67.665,2.342,2.342,0,0,0-.654,1.718,2.427,2.427,0,0,0,.254,1.123,2.474,2.474,0,0,0,.781.879,7.532,7.532,0,0,0,1.006.625Q206.74,2217.465,207.521,2217.777Z"/>
    <path id="Path_651" data-name="Path 651" d="M231.623,2221.273v1.426h-7.246v4.59h-1.5v-4.59h-9.238v-1.426h3.281V2215.9h5.957v-3.027H218.01a18.131,18.131,0,0,1-3.028,3.925,8.036,8.036,0,0,0-1.289-.937,14.8,14.8,0,0,0,2.608-3.067,17.773,17.773,0,0,0,1.9-3.828l1.485.352q-.274.684-.919,2.109h11.934v1.446h-6.328v3.027h5.859v1.406h-5.859v3.965Zm-13.223,0h4.473v-3.965H218.4Z"/>
    <path id="Path_652" data-name="Path 652" d="M238.108,2221.253a.883.883,0,0,0,.831-.38,2.31,2.31,0,0,0,.224-1.143,5.748,5.748,0,0,0-1.8-3.926q.487-1.21,1.6-4.59h-2.637v16.055h-1.406v-17.4h4.59l.234-.059,1,.606q-1.582,4.257-1.992,5.214a6.731,6.731,0,0,1,1.719,3.4,4.143,4.143,0,0,0,2.148-1.2,4.1,4.1,0,0,0,.781-2.159h-2.89v-1.308h4.941v-2.188h-3.926v-1.289h3.926v-1.836h1.426v1.836h4.082v1.289h-4.082v2.188h5.273v1.308h-3.593v2.051c0,.209.029.339.088.391a.764.764,0,0,0,.439.078h1.484a.4.4,0,0,0,.4-.283,5.4,5.4,0,0,0,.127-1.358,3.109,3.109,0,0,0,1.172.508,3.856,3.856,0,0,1-.411,1.836,1.267,1.267,0,0,1-1.113.469h-1.836a1.319,1.319,0,0,1-1.66-1.641v-2.051h-2.5a5.615,5.615,0,0,1-.938,2.842,5.025,5.025,0,0,1-2.6,1.612,2.4,2.4,0,0,0-.742-1.016,5.273,5.273,0,0,1,.058.781,3.485,3.485,0,0,1-.42,1.905,1.8,1.8,0,0,1-1.416.732,7.005,7.005,0,0,1-1.347.039,3.122,3.122,0,0,0-.371-1.348A5.473,5.473,0,0,0,238.108,2221.253Zm8.77,4.219h5.469v1.328H239.71v-1.328h5.742V2222.7h-4.16v-1.289h4.16v-2.168h1.426v2.168h4.355v1.289h-4.355Z"/>
    <path id="Path_653" data-name="Path 653" d="M255.59,2220.355l1.23.215a17.452,17.452,0,0,1-1.308,5.058,4.316,4.316,0,0,0-1.094-.527A14.144,14.144,0,0,0,255.59,2220.355Zm4.785-1.523-1.426.078v8.359H257.68v-8.281l-2.93.176-.156-1.289,1.347-.059q.879-1.25,1.172-1.719a15.993,15.993,0,0,0-2.461-2.91l.8-.937c.052.052.137.13.254.234s.208.189.273.254a28.058,28.058,0,0,0,1.758-3.711l1.289.449a38.532,38.532,0,0,1-2.265,4.082,15.126,15.126,0,0,1,1.093,1.328q1.016-1.678,1.934-3.594l1.27.528a66.267,66.267,0,0,1-3.809,5.937q1.973-.1,2.676-.136a20.505,20.505,0,0,0-.9-1.9l1.055-.371a14.225,14.225,0,0,1,1.719,4.043l-1.133.469C260.629,2219.671,260.531,2219.327,260.375,2218.832Zm-.82,1.757,1.015-.312a14.288,14.288,0,0,1,.977,3.223l-1.094.371A14.021,14.021,0,0,0,259.555,2220.589Zm12.207,4h-2.715a24.011,24.011,0,0,1,3.984,1.914l-1.269.8a21.589,21.589,0,0,0-3.731-1.953l.938-.762h-4.024l1.211.684a13.343,13.343,0,0,1-2.2,1.162,15.223,15.223,0,0,1-2.451.83,5.51,5.51,0,0,0-.977-.9,12.778,12.778,0,0,0,4.356-1.778H262.68v-6h9.082Zm-5.43-12.441v-.9h-4.844v-1.035h4.844v-1.211h1.445v1.211h4.9v1.035h-4.9v.9h4.239v.976h-9.59v-.976Zm-4.258,5.566v-3.808h10.235v3.808Zm1.172-2.949v2.09H271.1v-.567h-1.934a2.113,2.113,0,0,1-1.162-.214,1.094,1.094,0,0,1-.283-.9v-.41h-1.25a1.976,1.976,0,0,1-.762,1.211,4.572,4.572,0,0,1-1.816.664,1.64,1.64,0,0,0-.567-.684,4.818,4.818,0,0,0,1.514-.419,1.213,1.213,0,0,0,.615-.772Zm.742,4.688v.9h6.387v-.9Zm0,1.66v.937h6.387v-.937Zm0,1.679v.938h6.387v-.938Zm7.11-7.265v-.762h-2.266v.449a.349.349,0,0,0,.088.284.7.7,0,0,0,.381.068h1.426A.871.871,0,0,0,271.1,2215.531Z"/>
    <path id="Path_654" data-name="Path 654" d="M288.286,2225.57h2.793a.693.693,0,0,0,.732-.469,9.078,9.078,0,0,0,.206-2.168,5.477,5.477,0,0,0,1.367.567,6.368,6.368,0,0,1-.557,2.724,1.781,1.781,0,0,1-1.631.693H288.11a2.83,2.83,0,0,1-1.816-.419,2.135,2.135,0,0,1-.469-1.612v-5.058h-3.5a14.68,14.68,0,0,1-.537,2.529,7.6,7.6,0,0,1-1.035,2.051,6.259,6.259,0,0,1-1.865,1.709,11.1,11.1,0,0,1-2.872,1.191,3.694,3.694,0,0,0-.878-1.269,10.83,10.83,0,0,0,2.617-.977,5.1,5.1,0,0,0,1.66-1.406,6.082,6.082,0,0,0,.9-1.709,10.5,10.5,0,0,0,.43-2.119h-5.176v-1.407h17.618v1.407H287.31v5.058c0,.287.058.472.175.557A1.589,1.589,0,0,0,288.286,2225.57Zm-10.742-13.028v2.774h-1.5v-4.18h7.52v-2.109H285.1v2.109h7.6v4.18h-1.543v-2.774Zm12.207,3.594H278.989v-1.367h10.762Z"/>
    <path id="Path_655" data-name="Path 655" d="M305.729,2224.261h8.183v1.485H296.06v-1.485h8.047v-11.484h-6.992v-1.5h15.8v1.5h-7.187Z"/>
    <path id="Path_656" data-name="Path 656" d="M320.4,2208.968l1.6.293q-.625,1.836-1.055,2.949h3.321v12.969h-5.547v1.582h-1.367V2212.21H319.6A23.986,23.986,0,0,0,320.4,2208.968Zm2.519,8.75v-4.179h-4.2v4.179Zm-4.2,6.133h4.2v-4.805h-4.2Zm15.332-11.7v.762q-.234,7.031-.508,9.736a7.539,7.539,0,0,1-.859,3.428,2.12,2.12,0,0,1-1.582.8,20.347,20.347,0,0,1-2.969-.019,3.121,3.121,0,0,0-.508-1.445q1.308.117,2.969.117a.961.961,0,0,0,.82-.313,6.693,6.693,0,0,0,.752-3.095q.264-2.568.459-8.6h-5.078a17.558,17.558,0,0,1-1.875,3.516,9.67,9.67,0,0,0-1.211-.84,19.165,19.165,0,0,0,3.047-7.266l1.426.332q-.353,1.446-.86,2.891Zm-3.164,8.984-1.25.781a32.566,32.566,0,0,0-3.047-4.609l1.172-.683A38.6,38.6,0,0,1,330.886,2221.136Z"/>
    <path id="Path_657" data-name="Path 657" d="M343.094,2218.812l-2.168.723v6.015q0,1.152-.684,1.465a7.187,7.187,0,0,1-2.48.254,5.521,5.521,0,0,0-.449-1.367q1.484.039,1.894,0a.381.381,0,0,0,.254-.069.375.375,0,0,0,.078-.283v-5.586l-2.383.782-.371-1.446q.234-.059,2.754-.82v-4.1h-2.5v-1.347h2.5v-4h1.387v4h2.129v1.347h-2.129v3.692q.39-.117,1.113-.362c.481-.162.768-.256.859-.283Zm10.9,1.27h-4.316v1.738h4.531v1.211h-4.531v2.656a13.922,13.922,0,0,0,1.836.117h3.906a3.3,3.3,0,0,0-.449,1.289h-3.5a10.653,10.653,0,0,1-4-.635,5.287,5.287,0,0,1-2.539-2.333,9.048,9.048,0,0,1-2.09,3.222,4.389,4.389,0,0,0-1.113-.84q2.168-1.952,2.734-6.093l1.367.175a17.513,17.513,0,0,1-.39,1.934,4.806,4.806,0,0,0,2.871,2.852v-5.293h-4.063v-1.172h4.063v-1.66h-5.235v-1.231h5.235v-1.484h-4.063v-1.192h4.063v-1.328h-4.942v-1.23h4.942v-1.778h1.367v1.778h5.273v1.23h-5.273v1.328h4.316v2.676h1.446v1.231h-1.446Zm-4.316-5.547v1.484h2.949v-1.484Zm0,2.715v1.66h2.949v-1.66Z"/>
    <path id="Path_658" data-name="Path 658" d="M361.571,2218.246v5.058q1.366,2.091,5.137,2.246,1.6.059,4.551.03t4.687-.147a4.111,4.111,0,0,0-.507,1.426q-4.9.176-8.712.039-3.945-.137-5.761-2.344-1.193,1.193-2.715,2.559l-.781-1.426q1.014-.743,2.7-2.266v-3.789h-2.5v-1.386Zm.449-2.7-1,1.035a12.355,12.355,0,0,0-3.261-2.382l.937-.918a13.419,13.419,0,0,1,1.865,1.074A8.652,8.652,0,0,1,362.02,2215.55Zm.567-3.945-1.035.977a8.467,8.467,0,0,0-1.328-1.231,14.639,14.639,0,0,0-1.778-1.191l.977-.9A10.287,10.287,0,0,1,362.587,2211.6Zm5.742,13.359v-1.894h-5.7v-1.153h5.7v-1.21h-4.316v-5.665h4.316v-1.191h-4.941v-1.133h4.941v-1.367h1.465v1.367h5v1.133h-5v1.191h4.414v5.665h-4.414v1.21h5.84v1.153h-5.84v1.894Zm-4.043-14.121v1.465h-1.328v-2.6h12.3v2.6h-1.368v-1.465Zm1.016,5.215v1.309h3.027v-1.309Zm0,3.633h3.027v-1.348H365.3Zm7.558-3.633h-3.066v1.309h3.066Zm0,3.633v-1.348h-3.066v1.348Z"/>
    <path id="Path_659" data-name="Path 659" d="M378.7,2224.32h17.207v1.5H378.7Zm1.132-13.379h15v1.484h-15Zm1.29,6.484h12.148v1.5H381.123Z"/>
    <path id="Path_660" data-name="Path 660" d="M400.108,2227.308l-1.113-.742a3.8,3.8,0,0,0,2.343-2.422l1.192.43A4.259,4.259,0,0,1,400.108,2227.308Zm16.719-5.137H403.838v.9h11.934a3.441,3.441,0,0,1-.059.508q-.371,2.852-.957,3.359a1.722,1.722,0,0,1-1.093.352,15.6,15.6,0,0,1-1.856-.039,2.038,2.038,0,0,0-.332-.977,15.791,15.791,0,0,0,1.641.078.766.766,0,0,0,.547-.156,4.067,4.067,0,0,0,.644-2.207H402.393v-7.969h4.121q.37-.743.508-1.055h-6.016v2.149H399.62v-3.184h1.269a3.69,3.69,0,0,0-.488-.6,5.164,5.164,0,0,0,1.992-.869,2.857,2.857,0,0,0,.967-1.338,8.382,8.382,0,0,0,.342-2.11h1.171a9.821,9.821,0,0,1-.39,2.442,12.453,12.453,0,0,1,2.832,1.758l-.9.722a14.507,14.507,0,0,0-2.344-1.6,4.21,4.21,0,0,1-2.071,1.6h6.563a2.1,2.1,0,0,0-.547-.762,4.569,4.569,0,0,0,2.7-1.3,5.167,5.167,0,0,0,.772-2.862h1.211a10.069,10.069,0,0,1-.411,2.461,16.086,16.086,0,0,1,3.34,1.953l-.566.508h1.152v3.184H414.8v-2.149h-6.211a7.884,7.884,0,0,1-.644,1.055h5.527v4.4h-9.629v.859h12.989Zm-15.215-12.4.918.332a3.946,3.946,0,0,1-1.563,2.109l-.84-.6A3.112,3.112,0,0,0,401.612,2209.769Zm10.43,7.129h-8.2v.879h8.2Zm-8.2,2.637h8.2v-.957h-8.2Zm.176,5.078,1.211-.215a7.247,7.247,0,0,1,.567,2.363l-1.27.274A8.21,8.21,0,0,0,404.014,2224.613Zm2.539-14.785,1.074.449a17.737,17.737,0,0,1-1.543,1.582l-.839-.391A10.74,10.74,0,0,0,406.553,2209.828Zm.567,14.824,1.113-.313a8.7,8.7,0,0,1,1.035,2.11l-1.211.332A7.662,7.662,0,0,0,407.12,2224.652Zm2.324-14.883.918.332a3.931,3.931,0,0,1-1.621,2.129l-.84-.6a3.07,3.07,0,0,0,.947-.782A3.136,3.136,0,0,0,409.444,2209.769Zm-.1,4.16h5.02a15.634,15.634,0,0,0-2.52-1.582A4.458,4.458,0,0,1,409.346,2213.929Zm.84,10.723,1-.41a5.175,5.175,0,0,1,1.211,1.562l-1.055.488A5.066,5.066,0,0,0,410.186,2224.652Zm4.668-14.883,1.113.469a22.275,22.275,0,0,1-1.738,1.679l-.859-.39A11.087,11.087,0,0,0,414.854,2209.769Z"/>
    <path id="Path_661" data-name="Path 661" d="M420.324,2220.355l1.269.215a16.883,16.883,0,0,1-1.386,5.078,3.854,3.854,0,0,0-1.094-.547A14.664,14.664,0,0,0,420.324,2220.355Zm5-1.6-1.582.1v8.418h-1.309v-8.34l-3.144.2-.137-1.348,1.367-.059q.938-1.211,1.25-1.66a16.425,16.425,0,0,0-2.48-2.891l.8-.937q.587.528.606.547a28.336,28.336,0,0,0,1.777-3.75l1.289.488a35.035,35.035,0,0,1-2.285,4.1q.487.527,1.074,1.289a38.991,38.991,0,0,0,2.129-3.614l1.25.567a59.731,59.731,0,0,1-4,5.781l2.891-.137a18.312,18.312,0,0,0-.9-1.679l1.075-.43a14.529,14.529,0,0,1,1.933,4.082l-1.172.547A6.936,6.936,0,0,0,425.324,2218.753Zm-.9,1.875,1.094-.332a13.307,13.307,0,0,1,1.074,3.555l-1.172.352A11.438,11.438,0,0,0,424.425,2220.628Zm5.606-.859.82.313a9.209,9.209,0,0,1-4.238,6.386,3.513,3.513,0,0,0-.938-1.015,7.361,7.361,0,0,0,3.574-4.395h-2.7v-1.269h3.262Zm6.25-.82,1.211.879a28.387,28.387,0,0,1-3.086,2.5,8.134,8.134,0,0,0,3.515,2.91,5.531,5.531,0,0,0-.9,1.211,9.58,9.58,0,0,1-4.356-4.844v4.082a2.253,2.253,0,0,1-.136.889.917.917,0,0,1-.528.459,9.089,9.089,0,0,1-2.539.215,4.08,4.08,0,0,0-.39-1.29q1.542.039,1.914,0a.381.381,0,0,0,.254-.058.3.3,0,0,0,.058-.215v-7.6h-4v-7.031h3.262a15.291,15.291,0,0,0,.8-2.07l1.64.312q-.137.274-.917,1.758h4.707v7.031h-4.122v.254a11.51,11.51,0,0,0,1.133,2.989A22.785,22.785,0,0,0,436.281,2218.949Zm-7.637-6.68v1.719h6.719v-1.719Zm0,2.852v1.738h6.719v-1.738Z"/>
    <path id="Path_662" data-name="Path 662" d="M456.34,2217.542v1.387h-6.582v6.582h-1.367v-6.582h-6.582v-1.387h6.582v-6.582h1.367v6.582Z"/>
    <path id="Path_663" data-name="Path 663" d="M467.025,2218.324l-.918,1.113a27.1,27.1,0,0,0-1.524-2.754v10.586h-1.425v-9.18a20.534,20.534,0,0,1-2.071,5.157,6.909,6.909,0,0,0-.761-1.465,15.7,15.7,0,0,0,1.582-3.36,27.955,27.955,0,0,0,1.152-4.179h-2.441v-1.387h2.539v-3.848h1.425v3.848h1.934v1.387h-1.934v.644q.45.587,1.329,1.807T467.025,2218.324Zm3.281-1.094v-8.2h1.348v8.2q0,1.251-.078,2.227a16.2,16.2,0,0,1-.352,2.2,9.831,9.831,0,0,1-.742,2.178,8.043,8.043,0,0,1-1.348,1.9,8.356,8.356,0,0,1-2.07,1.611,4.28,4.28,0,0,0-.937-1.094,7.266,7.266,0,0,0,4.062-6.211q-1.405,1.212-2.949,2.461l-.723-1.328q.84-.565,3.77-2.675Q470.305,2218.05,470.306,2217.23Zm-.273-1.172-1.153.547a20.15,20.15,0,0,0-1.757-4.16l1.093-.43A18.045,18.045,0,0,1,470.033,2216.058Zm5.508,9.59h1.66c.208,0,.344-.159.41-.479a14.258,14.258,0,0,0,.137-1.962,3.814,3.814,0,0,0,1.269.585,6.717,6.717,0,0,1-.459,2.5,1.32,1.32,0,0,1-1.279.684h-1.934a1.732,1.732,0,0,1-1.4-.449,3.033,3.033,0,0,1-.362-1.777v-15.723h1.387v9.473l.567-.508a28.2,28.2,0,0,1,3.437,3.4l-.937.938a25.4,25.4,0,0,0-3.067-3.243v5.684a1.632,1.632,0,0,0,.1.723Q475.169,2225.648,475.541,2225.648Zm1.738-13.809,1.367.586q-1.641,3.087-2.324,4.121l-1.055-.527A22.9,22.9,0,0,0,477.279,2211.839Z"/>
    <path id="Path_664" data-name="Path 664" d="M481.948,2209.886h16.6v17.383h-1.465v-.84H483.373v.84h-1.425Zm1.425,15.2h13.711v-13.829H483.373Zm11.544-5.293.956.586a16.879,16.879,0,0,1-2.5,1.7,12.414,12.414,0,0,0,3.165,1.289,3.453,3.453,0,0,0-.821.976,13.471,13.471,0,0,1-2.773-1.259,11.443,11.443,0,0,1-2.363-1.827v3.262h-1.329v-2.969a21.677,21.677,0,0,1-4.394,2.305,4.67,4.67,0,0,0-.879-1,16.369,16.369,0,0,0,5.273-2.676H485.62V2216.8h9.3Zm1.171-4.864v.957H484.35v-.957h5.156v-1.25h-4v-.937h4v-1.113h1.348v1.113h4.18v.937h-4.18v1.25Zm-9.218,2.754v1.582h6.718v-1.582Zm7.558,2.5H491.01a9.354,9.354,0,0,0,1.543,1.367Q493.686,2220.766,494.428,2220.179Z"/>
    <path id="Path_665" data-name="Path 665" d="M506.6,2214.32l1.7.254q-1.5,9.122-5.39,12.754a6.832,6.832,0,0,0-1.211-1.075Q505.484,2222.836,506.6,2214.32Zm-.527-3.75h8.281q.234,2.715.625,4.922a35.27,35.27,0,0,0,1.035,4.287,15.779,15.779,0,0,0,1.641,3.681,9.667,9.667,0,0,0,2.324,2.618,7.994,7.994,0,0,0-1.445,1.191,13.036,13.036,0,0,1-3.74-5.928,42.163,42.163,0,0,1-1.807-9.209H506.07Z"/>
    <path id="Path_666" data-name="Path 666" d="M526.7,2213.343l1.308.449a29.724,29.724,0,0,1-1.621,2.813v10.664H525v-8.691q-1.114,1.425-1.973,2.324a8.087,8.087,0,0,0-.918-1.309,19.716,19.716,0,0,0,2.5-2.851A23.714,23.714,0,0,0,526.7,2213.343Zm-.371-4.316,1.328.527a28.183,28.183,0,0,1-4.61,4.727,5.527,5.527,0,0,0-.839-1.074,22.539,22.539,0,0,0,2.294-2.022A14.577,14.577,0,0,0,526.325,2209.027Zm1.972,17.93-1.093-.782a5.792,5.792,0,0,0,1.816-3.476l1.231.371A6.993,6.993,0,0,1,528.3,2226.957Zm12.266-7.383v1.211H532.79a13.33,13.33,0,0,1,3.261,1.777l-.8,1a13.7,13.7,0,0,0-3.36-1.933l.684-.84h-4.649v-1.211Zm-11.7-6.25h4.258q.1-.664.175-1.465h-5.312v-1.211h5.43c.012-.117.032-.381.058-.791s.046-.713.059-.908l1.523.078-.2,1.621h5.605v1.211h-5.742c-.026.208-.062.492-.107.849s-.075.564-.088.616h5.215v4.922H528.864Zm3.2,3.828v-2.735h-2.031v2.735Zm1.25,8.652h2.168a.526.526,0,0,0,.537-.283,4.835,4.835,0,0,0,.166-1.377,2.867,2.867,0,0,0,1.191.508,3.9,3.9,0,0,1-.459,1.894,1.467,1.467,0,0,1-1.259.489h-2.52a2.407,2.407,0,0,1-1.553-.352,1.854,1.854,0,0,1-.38-1.367V2222.6h1.367v2.695c0,.222.042.362.127.42A1.3,1.3,0,0,0,533.317,2225.8Zm1.934-8.652v-2.735h-2.09v2.735Zm1.093-2.735v2.735h2.129v-2.735Zm.547,8.575,1.094-.567a13.44,13.44,0,0,1,2.676,3.77l-1.172.625a11.1,11.1,0,0,0-1.065-1.885A15.832,15.832,0,0,0,536.891,2222.992Z"/>
    <path id="Path_667" data-name="Path 667" d="M543.845,2220.355l1.27.215a16.88,16.88,0,0,1-1.387,5.078,3.854,3.854,0,0,0-1.094-.547A14.662,14.662,0,0,0,543.845,2220.355Zm5-1.6-1.582.1v8.418h-1.308v-8.34l-3.145.2-.137-1.348,1.368-.059q.938-1.211,1.25-1.66a16.436,16.436,0,0,0-2.481-2.891l.8-.937c.391.352.592.534.6.547a28.463,28.463,0,0,0,1.778-3.75l1.289.488a35.192,35.192,0,0,1-2.285,4.1q.488.527,1.074,1.289a39,39,0,0,0,2.129-3.614l1.269.567a59.542,59.542,0,0,1-4.023,5.781l2.89-.137a18.531,18.531,0,0,0-.9-1.679l1.094-.43a14.716,14.716,0,0,1,1.914,4.082l-1.172.547A7.035,7.035,0,0,0,548.845,2218.753Zm-.9,1.875,1.094-.332a12.483,12.483,0,0,1,1.074,3.614l-1.172.332A11.466,11.466,0,0,0,547.947,2220.628Zm5.976,1.543.45,1.114q-3.243,2.343-4.18,2.988l-.762-1.289Q550.5,2224.339,553.923,2222.171Zm5.782-3.886,1.132.879a25.854,25.854,0,0,1-3.066,2.636,8.175,8.175,0,0,0,3.574,3.321,6.692,6.692,0,0,0-.937,1.23,9.781,9.781,0,0,1-4.278-5.176v4.59a2.2,2.2,0,0,1-.136.869.851.851,0,0,1-.528.44,7.65,7.65,0,0,1-2.441.234,5.486,5.486,0,0,0-.41-1.289,18.1,18.1,0,0,0,1.836.02c.208,0,.312-.1.312-.293v-8.321h-4.746v-1.25h6.895c.012-.065.058-.279.136-.644s.137-.645.176-.84h-4.59l-.195.664-1.426-.234a54.3,54.3,0,0,0,1.6-6.094l1.406.176-.332,1.386H558.1l.254-.058,1,.156q-.275,2.091-1.035,5.488h2.617v1.25H556.15a13.745,13.745,0,0,0,1.055,3.321A17.37,17.37,0,0,0,559.705,2218.285ZM553.923,2221l-1.054.9a10.978,10.978,0,0,0-2.3-2.656l1.016-.8A12.1,12.1,0,0,1,553.923,2221Zm-.976-7.5h4.531q.059-.333.166-.918t.147-.821h-4.375c-.039.17-.115.449-.225.84S553,2213.291,552.947,2213.5Z"/>
    <path id="Path_668" data-name="Path 668" d="M79.836,2260.355l1.269.215a16.854,16.854,0,0,1-1.386,5.078,3.854,3.854,0,0,0-1.094-.547A14.663,14.663,0,0,0,79.836,2260.355Zm5-1.6-1.582.1v8.418H81.945v-8.34l-3.144.2-.137-1.348,1.367-.059q.938-1.211,1.25-1.66a16.424,16.424,0,0,0-2.48-2.891l.8-.937q.585.528.605.547a28.336,28.336,0,0,0,1.777-3.75l1.289.488a35.038,35.038,0,0,1-2.285,4.1q.489.527,1.075,1.289a39.227,39.227,0,0,0,2.128-3.614l1.25.567a59.928,59.928,0,0,1-4,5.781l2.89-.137a18.534,18.534,0,0,0-.9-1.679l1.074-.43a14.534,14.534,0,0,1,1.934,4.082l-1.172.547A7.032,7.032,0,0,0,84.836,2258.753Zm-.9,1.875,1.093-.332a13.308,13.308,0,0,1,1.074,3.555l-1.171.352A11.491,11.491,0,0,0,83.938,2260.628Zm5.6-.859.82.313a9.209,9.209,0,0,1-4.238,6.386,3.524,3.524,0,0,0-.937-1.015,7.368,7.368,0,0,0,3.574-4.395h-2.7v-1.269h3.262Zm6.25-.82,1.211.879a28.29,28.29,0,0,1-3.086,2.5,8.131,8.131,0,0,0,3.516,2.91,5.507,5.507,0,0,0-.9,1.211,9.574,9.574,0,0,1-4.355-4.844v4.082a2.25,2.25,0,0,1-.137.889.918.918,0,0,1-.527.459,9.094,9.094,0,0,1-2.539.215,4.108,4.108,0,0,0-.391-1.29q1.542.039,1.914,0a.381.381,0,0,0,.254-.058.3.3,0,0,0,.059-.215v-7.6h-4v-7.031H90.07a15.155,15.155,0,0,0,.8-2.07l1.641.312q-.138.274-.918,1.758H96.3v7.031H92.18v.254a11.438,11.438,0,0,0,1.133,2.989A22.776,22.776,0,0,0,95.793,2258.949Zm-7.637-6.68v1.719h6.719v-1.719Zm0,2.852v1.738h6.719v-1.738Z"/>
    <path id="Path_669" data-name="Path 669" d="M106.859,2261.976l-.429-1.055q2.382-1,2.519-2.929a2.34,2.34,0,0,1-.351.019,1.584,1.584,0,0,1-1.075-.371,1.318,1.318,0,0,1-.429-1.055,1.333,1.333,0,0,1,.439-1.064,1.6,1.6,0,0,1,1.084-.381,1.461,1.461,0,0,1,1.25.615,2.815,2.815,0,0,1,.449,1.69,4.376,4.376,0,0,1-.927,2.783A5.417,5.417,0,0,1,106.859,2261.976Z"/>
    <path id="Path_670" data-name="Path 670" d="M119.879,2265.746v-1.075a32.5,32.5,0,0,0,5.1-5.312,7.414,7.414,0,0,0,1.621-4.16,3.074,3.074,0,0,0-.694-2.1,2.521,2.521,0,0,0-2-.791,4.023,4.023,0,0,0-3.047,1.7l-1.054-1.035a7.647,7.647,0,0,1,1.992-1.621,4.832,4.832,0,0,1,2.324-.547,4.14,4.14,0,0,1,3.106,1.182,4.324,4.324,0,0,1,1.152,3.154,7.792,7.792,0,0,1-1.465,4.287,28.846,28.846,0,0,1-4.277,4.873q1.776-.135,2.4-.136H129.1v1.582Z"/>
    <path id="Path_671" data-name="Path 671" d="M135.848,2251.1l1.543.352a18.847,18.847,0,0,1-2.022,4.013,14.87,14.87,0,0,1-2.705,3.116,7.591,7.591,0,0,0-1.25-1.075,12.239,12.239,0,0,0,2.6-2.793A15,15,0,0,0,135.848,2251.1Zm-1.465,5.742h12.031q-.02.489-.039.7-.254,4.533-.547,6.485a5.173,5.173,0,0,1-.82,2.519,2.1,2.1,0,0,1-1.524.684,26.5,26.5,0,0,1-2.793-.039,2.727,2.727,0,0,0-.488-1.426q1.152.1,2.735.1a1.064,1.064,0,0,0,.8-.235q.742-.741,1.114-7.382h-5.137a14.4,14.4,0,0,1-2.168,5.517,10.9,10.9,0,0,1-4.082,3.506,6.038,6.038,0,0,0-1.152-1.152,9.216,9.216,0,0,0,3.818-3,12.091,12.091,0,0,0,1.963-4.873h-3.711Zm3.594-7.48h6.25a14.876,14.876,0,0,0,2.236,4.58,10.966,10.966,0,0,0,3.428,3.193,4.754,4.754,0,0,0-1.036,1.309,12.754,12.754,0,0,1-3.369-3.262,17.194,17.194,0,0,1-2.334-4.433h-5.175Z"/>
    <path id="Path_672" data-name="Path 672" d="M159.688,2263.812l.1,1.25q-1.269.293-3.808.83t-3.594.772l-.313-1.387q2.11-.353,3.3-.586v-6.074h-3.125v-1.289h3.125V2255.2H153.32v-.9q-.273.274-.82.782a4.207,4.207,0,0,0-.918-.938,13.429,13.429,0,0,0,3.731-5.117h1.347a22.921,22.921,0,0,1,3.4,3.515l-1,1.133a18.878,18.878,0,0,0-2.891-3.3,20.069,20.069,0,0,1-2.52,3.554h5.235v1.27H156.68v2.129h2.851v1.289H156.68v5.8q.234-.037,1.328-.263T159.688,2263.812Zm-6.973-3.887,1.015-.234a13,13,0,0,1,.8,3.75l-1.093.293A14.969,14.969,0,0,0,152.715,2259.925Zm5.664,3.438-.977-.254a26.994,26.994,0,0,0,.821-3.594l1.152.293Q158.788,2262.075,158.379,2263.363Zm7.012,2.246h4.824v1.191H159.023v-1.191h5v-1.543h-3.906v-1.133h3.906v-1.289h-3.75v-5.84h9.1v5.84h-3.984v1.289h4.043v1.133h-4.043Zm-4.043-13.867.84-.176h-2.325v-1.152h4.121v-1.348h1.407v1.348h4.316v1.152h-2.148l.664.2q-.431.9-1.016,1.934H170.2v1.172H159.3V2253.7h2.812A10.9,10.9,0,0,0,161.348,2251.742Zm.136,5.058v1.426h2.539V2256.8Zm0,3.848h2.539V2259.2h-2.539Zm4.746-6.953-.273-.1a13.193,13.193,0,0,0,.938-2.031h-4.3a7.142,7.142,0,0,1,.859,1.992l-.469.137Zm1.875,4.531V2256.8h-2.714v1.426Zm0,2.422V2259.2h-2.714v1.445Z"/>
    <path id="Path_673" data-name="Path 673" d="M181.75,2250.824v7.519h-8.418v-7.519h2.578q.567-1.466.664-1.836l1.6.2q-.2.45-.781,1.641Zm-5.625,14.3h3.535q.645,0,.83-.381a6.089,6.089,0,0,0,.264-1.826,3.287,3.287,0,0,0,1.289.527,5.048,5.048,0,0,1-.586,2.4,1.976,1.976,0,0,1-1.68.606h-3.73a3.432,3.432,0,0,1-2-.41,2,2,0,0,1-.518-1.622v-5.351h1.407v1.719h6.191v1.308h-6.191v2.324q0,.45.214.577A2.315,2.315,0,0,0,176.125,2265.121Zm4.18-11.114v-1.992h-5.567v1.992Zm0,3.145v-2.031h-5.567v2.031Zm9.492-6.7v11.406q0,1.271-.742,1.621a8.859,8.859,0,0,1-2.95.312,4.618,4.618,0,0,0-.507-1.582,22.352,22.352,0,0,0,2.343,0c.248,0,.372-.129.372-.39V2251.9H184.7v15.391h-1.484v-16.836Z"/>
    <path id="Path_674" data-name="Path 674" d="M199.008,2264.437l4.414-.566.039,1.328q-2.852.429-10.273,1.465l-.235-1.485q1.308-.137,4.629-.547v-3.515h-3.828v-1.348h3.828v-2.383h1.426v2.383h3.769v1.348h-3.769Zm.469-11.133,1.093-.625a21.941,21.941,0,0,1,3.164,4.473l-1.152.7q-.274-.546-.684-1.25-1.132.078-8.652.527l-.117-1.425,1.816-.079a27.473,27.473,0,0,0,1.485-3.984h-3.262v-1.328h10.215v1.328H198.09q-1.23,3.087-1.641,3.926,3.848-.156,4.61-.2Q200.238,2254.2,199.477,2253.3Zm6.171-1.894v11h-1.406v-11Zm3.282-1.836h1.445v15.683a2.61,2.61,0,0,1-.205,1.162,1.269,1.269,0,0,1-.693.6,13.83,13.83,0,0,1-3.457.254,7.4,7.4,0,0,0-.508-1.543q.879.039,2.949.039a.548.548,0,0,0,.371-.127.568.568,0,0,0,.1-.381Z"/>
    <path id="Path_675" data-name="Path 675" d="M219.547,2258.812l-2.168.723v6.015q0,1.152-.684,1.465a7.183,7.183,0,0,1-2.48.254,5.481,5.481,0,0,0-.449-1.367q1.483.039,1.894,0a.381.381,0,0,0,.254-.069.375.375,0,0,0,.078-.283v-5.586l-2.383.782-.371-1.446q.235-.059,2.754-.82v-4.1h-2.5v-1.347h2.5v-4h1.387v4h2.129v1.347h-2.129v3.692q.39-.117,1.113-.362c.482-.162.768-.256.86-.283Zm10.9,1.27h-4.316v1.738h4.531v1.211h-4.531v2.656a13.933,13.933,0,0,0,1.836.117h3.906a3.315,3.315,0,0,0-.449,1.289h-3.5a10.653,10.653,0,0,1-4-.635,5.287,5.287,0,0,1-2.539-2.333,9.035,9.035,0,0,1-2.09,3.222,4.372,4.372,0,0,0-1.113-.84q2.168-1.952,2.734-6.093l1.367.175a17.516,17.516,0,0,1-.39,1.934,4.806,4.806,0,0,0,2.871,2.852v-5.293H220.7v-1.172h4.063v-1.66h-5.235v-1.231h5.235v-1.484H220.7v-1.192h4.063v-1.328H219.82v-1.23h4.942v-1.778h1.367v1.778H231.4v1.23h-5.273v1.328h4.316v2.676h1.446v1.231h-1.446Zm-4.316-5.547v1.484h2.949v-1.484Zm0,2.715v1.66h2.949v-1.66Z"/>
    <path id="Path_676" data-name="Path 676" d="M237.938,2258.246v5.058q1.366,2.091,5.136,2.246,1.6.059,4.551.03t4.688-.147a4.112,4.112,0,0,0-.508,1.426q-4.9.176-8.711.039-3.946-.137-5.762-2.344-1.191,1.193-2.715,2.559l-.781-1.426q1.016-.743,2.7-2.266v-3.789h-2.5v-1.386Zm.449-2.7-1,1.035a12.381,12.381,0,0,0-3.262-2.382l.937-.918a13.485,13.485,0,0,1,1.866,1.074A8.735,8.735,0,0,1,238.387,2255.55Zm.566-3.945-1.035.977a8.468,8.468,0,0,0-1.328-1.231,14.708,14.708,0,0,0-1.777-1.191l.976-.9A10.275,10.275,0,0,1,238.953,2251.6Zm5.742,13.359v-1.894h-5.7v-1.153h5.7v-1.21h-4.316v-5.665H244.7v-1.191h-4.941v-1.133H244.7v-1.367h1.465v1.367h5v1.133h-5v1.191h4.414v5.665H246.16v1.21H252v1.153h-5.84v1.894Zm-4.043-14.121v1.465h-1.328v-2.6h12.3v2.6h-1.367v-1.465Zm1.016,5.215v1.309H244.7v-1.309Zm0,3.633H244.7v-1.348h-3.027Zm7.559-3.633H246.16v1.309h3.067Zm0,3.633v-1.348H246.16v1.348Z"/>
    <path id="Path_677" data-name="Path 677" d="M261.25,2260.824l-1.094-.293a24.884,24.884,0,0,0,1.074-2.93h-2.089v7.93a2.256,2.256,0,0,1-.157.937.973.973,0,0,1-.586.489,9.136,9.136,0,0,1-2.832.273,4.346,4.346,0,0,0-.449-1.406q1.758.039,2.188,0,.39,0,.39-.313v-7.91h-3.281v-1.309h5.1a20.051,20.051,0,0,0-4.1-2.871l.8-.957q.918.469,2.031,1.172a17.88,17.88,0,0,0,1.973-2.324h-5.352v-1.328h6.289l.293-.1.938.645a18.478,18.478,0,0,1-3.106,3.828,10.59,10.59,0,0,1,1.563,1.308l-.488.625h1.464l.215-.058.918.234A45.411,45.411,0,0,1,261.25,2260.824Zm4.023,3.047,1.309.761a11.3,11.3,0,0,1-2.061,1.5,15.105,15.105,0,0,1-2.49,1.192,9.042,9.042,0,0,0-.976-1,14.935,14.935,0,0,0,2.392-1.124A8.431,8.431,0,0,0,265.273,2263.871Zm-1.972-10.743h3.008q.312-1.366.39-1.894h-4.16v-1.289h10.078v1.289H268.34q-.02.059-.567,1.894h4.141v10.352H263.3Zm7.207,3.106v-1.953h-5.84v1.953Zm0,3.008v-1.953h-5.84v1.953Zm0,3.086v-1.953h-5.84v1.953Zm-2.149,2.382,1.114-.761a21.158,21.158,0,0,1,3.535,2.519l-1.153.86A22.138,22.138,0,0,0,268.359,2264.71Z"/>
    <path id="Path_678" data-name="Path 678" d="M284.836,2261.214v4.063a18.434,18.434,0,0,0,3.242.254q4.161,0,5.117-.02a3.32,3.32,0,0,0-.566,1.5H288a15.063,15.063,0,0,1-5.537-.859,6.7,6.7,0,0,1-3.408-3.242,10.98,10.98,0,0,1-2.989,4.453,5.828,5.828,0,0,0-1.211-1q2.989-2.3,3.731-8.145l1.523.137a26.784,26.784,0,0,1-.468,2.656,6.1,6.1,0,0,0,3.672,3.867v-8.379h-4.961V2255.1h11.582v1.406h-5.1v3.321h5.918v1.386Zm-7.578-8.515v2.929h-1.465v-4.316h7.5v-2.285h1.543v2.285h7.559v4.316h-1.524V2252.7Z"/>
    <path id="Path_679" data-name="Path 679" d="M296.586,2265.746v-14.668h1.875v13.086h6.387v1.582Z"/>
    <path id="Path_680" data-name="Path 680" d="M307.926,2265.746v-14.668H312.3a6.756,6.756,0,0,1,3.7.869,3.014,3.014,0,0,1,1.338,2.724,3.506,3.506,0,0,1-.576,1.983,2.958,2.958,0,0,1-1.592,1.2v.1a3.8,3.8,0,0,1,2.187,1.152,3.341,3.341,0,0,1,.821,2.344,3.708,3.708,0,0,1-1.514,3.193,6.734,6.734,0,0,1-4.053,1.1Zm1.875-8.418h2.168q3.534,0,3.535-2.422a2,2,0,0,0-.85-1.817,4.909,4.909,0,0,0-2.607-.547H309.8Zm0,6.933h2.558q4,0,4-2.871,0-2.637-4-2.637H309.8Z"/>
    <path id="Path_681" data-name="Path 681" d="M321.316,2265.746v-1.524h3.262v-10.937h-2.6v-1.153a8.913,8.913,0,0,0,3.047-1.054h1.387v13.144h2.949v1.524Z"/>
    <path id="Path_682" data-name="Path 682" d="M336.426,2266a6.093,6.093,0,0,1-4.688-1.993l.918-1.211a4.9,4.9,0,0,0,3.633,1.68,3.142,3.142,0,0,0,2.158-.732,2.509,2.509,0,0,0,.83-1.983q0-2.929-4.57-2.929v-1.407q4.062,0,4.063-2.793a2.221,2.221,0,0,0-.665-1.7,2.684,2.684,0,0,0-1.816-.664,4.473,4.473,0,0,0-3.027,1.465l-1-1.172a5.927,5.927,0,0,1,4.1-1.758,4.705,4.705,0,0,1,3.076.967,3.3,3.3,0,0,1,1.182,2.705,3.479,3.479,0,0,1-.7,2.2,4.2,4.2,0,0,1-1.914,1.358v.078a4.2,4.2,0,0,1,2.246,1.289,3.486,3.486,0,0,1,.879,2.422,3.774,3.774,0,0,1-1.348,3.047A5.041,5.041,0,0,1,336.426,2266Z"/>
    <path id="Path_683" data-name="Path 683" d="M349.582,2262.269l2.188-.508.156,1.387q-1.192.275-4.014.928t-4.014.947l-.312-1.484q.234-.039,4.648-.977a53.9,53.9,0,0,0,1.114-7.617l1.465.273Q350.266,2259.125,349.582,2262.269Zm2.031-9.3v1.367h-7.656v-1.367h3.164v-3.711h1.387v3.711Zm-4.785,9.16-1.308.215a34.094,34.094,0,0,0-.8-6.953l1.23-.234A35.35,35.35,0,0,1,346.828,2262.132Zm15.059-7.578h-4.942v3.946h4.1v8.671h-1.524v-.859h-6v.938H352.1v-8.75h3.32v-9.493h1.523v4.141h4.942Zm-2.364,10.371v-5.019h-6v5.019Z"/>
    <path id="Path_684" data-name="Path 684" d="M371.605,2261.976l-.429-1.055q2.382-1,2.519-2.929a2.341,2.341,0,0,1-.351.019,1.58,1.58,0,0,1-1.074-.371,1.316,1.316,0,0,1-.43-1.055,1.333,1.333,0,0,1,.439-1.064,1.6,1.6,0,0,1,1.084-.381,1.46,1.46,0,0,1,1.25.615,2.815,2.815,0,0,1,.45,1.69,4.377,4.377,0,0,1-.928,2.783A5.417,5.417,0,0,1,371.605,2261.976Z"/>
    <path id="Path_685" data-name="Path 685" d="M389.508,2254.32l1.7.254q-1.5,9.122-5.391,12.754a6.8,6.8,0,0,0-1.211-1.075Q388.394,2262.836,389.508,2254.32Zm-.528-3.75h8.282q.234,2.715.625,4.922a35.089,35.089,0,0,0,1.035,4.287,15.739,15.739,0,0,0,1.641,3.681,9.667,9.667,0,0,0,2.324,2.618,8,8,0,0,0-1.446,1.191,13.053,13.053,0,0,1-3.74-5.928,42.169,42.169,0,0,1-1.806-9.209H388.98Z"/>
    <path id="Path_686" data-name="Path 686" d="M409.52,2253.343l1.308.449a29.711,29.711,0,0,1-1.621,2.813v10.664H407.82v-8.691q-1.113,1.425-1.972,2.324a8.145,8.145,0,0,0-.918-1.309,19.775,19.775,0,0,0,2.5-2.851A23.8,23.8,0,0,0,409.52,2253.343Zm-.372-4.316,1.329.527a28.221,28.221,0,0,1-4.61,4.727,5.533,5.533,0,0,0-.84-1.074,22.548,22.548,0,0,0,2.295-2.022A14.506,14.506,0,0,0,409.148,2249.027Zm1.973,17.93-1.094-.782a5.792,5.792,0,0,0,1.817-3.476l1.23.371A7,7,0,0,1,411.121,2266.957Zm12.266-7.383v1.211h-7.774a13.339,13.339,0,0,1,3.262,1.777l-.8,1a13.689,13.689,0,0,0-3.359-1.933l.683-.84H410.75v-1.211Zm-11.7-6.25h4.257q.1-.664.176-1.465h-5.312v-1.211h5.429c.013-.117.032-.381.059-.791s.045-.713.058-.908l1.524.078-.2,1.621h5.605v1.211h-5.742c-.027.208-.062.492-.107.849s-.076.564-.088.616h5.214v4.922H411.688Zm3.2,3.828v-2.735h-2.032v2.735Zm1.25,8.652h2.168a.526.526,0,0,0,.537-.283,4.877,4.877,0,0,0,.166-1.377,2.867,2.867,0,0,0,1.191.508,3.9,3.9,0,0,1-.459,1.894,1.468,1.468,0,0,1-1.26.489h-2.519a2.408,2.408,0,0,1-1.553-.352,1.854,1.854,0,0,1-.381-1.367V2262.6H415.4v2.695c0,.222.042.362.127.42A1.311,1.311,0,0,0,416.141,2265.8Zm1.933-8.652v-2.735h-2.09v2.735Zm1.094-2.735v2.735H421.3v-2.735Zm.547,8.575,1.094-.567a13.435,13.435,0,0,1,2.675,3.77l-1.171.625a11.168,11.168,0,0,0-1.065-1.885A15.923,15.923,0,0,0,419.715,2262.992Z"/>
    <path id="Path_687" data-name="Path 687" d="M443.984,2264.828v1.347h-9.14v1.133h-1.426v-11.367a17.382,17.382,0,0,1-1.387,1.953q-.1-.137-.449-.6v4.687h-3.945v1.524h-1.328v-12.422h5.273v4.843a19.2,19.2,0,0,0,3.223-6.777l1.445.371a27.029,27.029,0,0,1-1.25,3.4h3.223a21.976,21.976,0,0,0,1.211-3.653l1.6.352q-1.329,3.183-1.387,3.3h4.024v1.328h-4.18v2.617h3.653v1.328h-3.653v2.617h3.653v1.348h-3.653v2.676Zm-13.711-4.219v-8.164h-2.636v8.164Zm7.813-3.75v-2.617h-3.242v2.617Zm0,3.945v-2.617h-3.242v2.617Zm-3.242,1.348v2.676h3.242v-2.676Z"/>
    <path id="Path_688" data-name="Path 688" d="M446.2,2257.152h18.164v1.621H446.2Z"/>
    <path id="Path_689" data-name="Path 689" d="M482.387,2256.351l1.347.215a22.782,22.782,0,0,1-2.382,6.5q.839,2.91,1.894,2.91.332-.019.488-.547a10.08,10.08,0,0,0,.235-1.973,2.29,2.29,0,0,0,1.054.665,6.264,6.264,0,0,1-.556,2.548,1.456,1.456,0,0,1-1.319.616q-1.622,0-2.675-2.852a14.227,14.227,0,0,1-2.774,2.871,4.735,4.735,0,0,0-1.094-.918,12.213,12.213,0,0,0,1.661-1.406h-4.512v1.152h-1.133v-9.785h5.918v1.016h-2.07v1.406h2.07v3.711h-2.07v1.465h2.246v.586a11.471,11.471,0,0,0,1.269-1.739,41.062,41.062,0,0,1-.976-7.695h-7.4v4.2q0,5.391-1.425,8.008a4.33,4.33,0,0,0-1.133-.644,12.043,12.043,0,0,0,1.23-5.215h-1.406v.918a7.252,7.252,0,0,1-1.465,4.9,3.789,3.789,0,0,0-.9-.625,6.711,6.711,0,0,0,1.23-4.316v-.879h-1.093v-1.25h3.71v-1.66h-1.679v.644h-1.153v-5.254h1.153v3.379h1.679v-3.476h8.594l-.019-.723h-.7v-1.445h-5.02v1.406h-1.465v-1.406h-4.707v-1.25h4.707v-1.387h1.465v1.387h5.02v-1.387h1.464v1.387h4.825v1.25h-4.825v.859h.528c0,.156,0,.378.01.664s.009.5.009.645h2.52a8.531,8.531,0,0,0-1.641-1.29l.9-.683a6.633,6.633,0,0,1,1.953,1.523l-.547.45h1.308v1.269h-4.453a47.6,47.6,0,0,0,.625,5.977A21.913,21.913,0,0,0,482.387,2256.351Zm-6.992,1.016h-1.641v1.406h1.641Zm2.05,4.14v-1.738h-3.691v1.738Zm-3.691.977v1.465h1.641v-1.465Z"/>
    <path id="Path_690" data-name="Path 690" d="M495.7,2255.3v1.133h-8.594V2255.3h3.653v-1.269h-2.852v-1.074h2.852v-1.211h-3.223v-1.114h3.223v-1.621h1.367v1.621h3.281v1.114h-3.281v1.211h2.988v1.074h-2.988v1.269Zm-.644,2.227v8.3q0,.938-.547,1.211a7.187,7.187,0,0,1-2.09.2,3.977,3.977,0,0,0-.43-1.172,13.784,13.784,0,0,0,1.524,0,.225.225,0,0,0,.254-.254v-3.125h-4.512v4.571h-1.289v-9.727Zm-5.8,1.152v2.871h1.68v-2.871Zm2.715,2.871h1.8v-2.871h-1.8Zm11.152-12.324,1.016,1.094a28.657,28.657,0,0,1-6.172,1.211,15.285,15.285,0,0,1-1.8,3.75,6.453,6.453,0,0,0-1.094-.7,9.984,9.984,0,0,0,1.1-2.061,13.431,13.431,0,0,0,.732-2.353l.879.215A27.92,27.92,0,0,0,503.121,2249.222Zm1.152,6.074v3.106h1.211v1.289h-1.211v3.984h-1.367v-.82h-2.343v2.773a2.188,2.188,0,0,1-.157.928.979.979,0,0,1-.547.479,8.553,8.553,0,0,1-2.636.254,5.1,5.1,0,0,0-.469-1.348q1.641.039,2.09,0c.234,0,.351-.1.351-.313v-2.773h-2.734v-1.25H499.2v-1.914h-3.711V2258.4H499.2v-1.875h-2.636V2255.3Zm-3.027-.742-1.308.313a10.83,10.83,0,0,0-.821-2.891l1.231-.254A11.861,11.861,0,0,1,501.246,2254.554Zm-.683,1.973v1.875h2.343v-1.875Zm2.343,5.078v-1.914h-2.343v1.914Zm-.683-10.156,1.132-.449a15.077,15.077,0,0,1,2.129,3.593l-1.191.508A15.254,15.254,0,0,0,502.223,2251.449Z"/>
    <path id="Path_691" data-name="Path 691" d="M511.414,2256.742h4.063c0,.325-.007.547-.02.664q-.157,4.9-.322,6.767a5.163,5.163,0,0,1-.557,2.354,1.576,1.576,0,0,1-1.191.644,16.9,16.9,0,0,1-1.992.02,2.865,2.865,0,0,0-.372-1.367,16.657,16.657,0,0,0,1.719.078.605.605,0,0,0,.586-.254,5.1,5.1,0,0,0,.44-2.021q.165-1.671.283-5.518H511.3q-.489,6.426-2.774,9.219a3.226,3.226,0,0,0-1.093-1,8.032,8.032,0,0,0,1.357-2.334,14.217,14.217,0,0,0,.791-3.155q.254-1.776.342-3.261t.127-3.614H507.7v-1.406h3.731v-3.516h1.445v3.516h3.437v1.406h-4.824Q511.453,2255.8,511.414,2256.742Zm8.535-7.715h1.5a19.252,19.252,0,0,0,2.051,4.092,11.487,11.487,0,0,0,2.637,2.939,6.42,6.42,0,0,0-.762,1.445,14.284,14.284,0,0,1-2.666-3.037,17.789,17.789,0,0,1-1.943-3.74,17.5,17.5,0,0,1-1.856,3.731,13.243,13.243,0,0,1-2.656,3.066,5.09,5.09,0,0,0-.723-1.328,11.556,11.556,0,0,0,2.627-3.125A16.694,16.694,0,0,0,519.949,2249.027Zm-2.226,18.066-.762-1.484q2.637-1.113,8.066-3.789l.371,1.347Q520.73,2265.648,517.723,2267.093Zm.39-9.59.957-.918a20.2,20.2,0,0,1,2.168,1.573,11.8,11.8,0,0,1,1.641,1.592l-1.035,1.035a10.721,10.721,0,0,0-1.592-1.651A19.774,19.774,0,0,0,518.113,2257.5Z"/>
    <path id="Path_692" data-name="Path 692" d="M534.4,2259.828l.312,1.347-6.172,2.93-.547-1.484q.938-.333,2.7-1.114v-6.25h-2.325v-1.386h2.325v-4.649h1.386v4.649h2.09v.214h3.32a8.719,8.719,0,0,0-.781-2.05l.938-.254h-2.852v-1.211h4.707v-1.524h1.426v1.524h4.98v1.211h-2.929l1.094.273q-.82,1.6-1.075,2.031h3.379v1.231H534.121v-.059H532.07v5.625l1.25-.566Q534.141,2259.946,534.4,2259.828Zm8.671,6.035h1.6a.46.46,0,0,0,.469-.352,7.164,7.164,0,0,0,.136-1.64,3.073,3.073,0,0,0,1.25.507,5.179,5.179,0,0,1-.449,2.2,1.36,1.36,0,0,1-1.25.556h-1.933a2.117,2.117,0,0,1-1.446-.351,2.039,2.039,0,0,1-.351-1.406v-3.008H539a5.991,5.991,0,0,1-1.6,3.125,8.019,8.019,0,0,1-3.769,1.8,3.681,3.681,0,0,0-.84-1.25,7.729,7.729,0,0,0,3.359-1.329,4.2,4.2,0,0,0,1.387-2.343h-1.992v-6.016h9.707v6.016H542.5v2.988c0,.222.032.361.1.42A.794.794,0,0,0,543.066,2265.863Zm-6.113-8.477v1.485h6.836v-1.485Zm0,2.461v1.485h6.836v-1.485Zm5.645-8.066h-4.61a7.261,7.261,0,0,1,.86,2.09l-.821.214h4.239l-.625-.156A21.537,21.537,0,0,0,542.6,2251.781Z"/>
    <path id="Path_693" data-name="Path 693" d="M553.889,2265.414a1.736,1.736,0,0,1-2.285,0,1.5,1.5,0,0,1-.459-1.153,1.474,1.474,0,0,1,.468-1.123,1.682,1.682,0,0,1,2.266,0,1.475,1.475,0,0,1,.469,1.123A1.509,1.509,0,0,1,553.889,2265.414Zm-1.807-4.512-.469-7.754-.058-2.363h2.383l-.04,2.363-.488,7.754Z"/>
  </g>
</svg>
