<svg xmlns="http://www.w3.org/2000/svg" width="466.813" height="178.515" viewBox="0 0 466.813 178.515">
  <g id="txt3" transform="translate(-252.479 -3415.185)">
    <path id="Path_784" data-name="Path 784" d="M260.956,3426.493l.332,1.426q-2.91,1.347-7.969,3.535l-.546-1.543q1.386-.526,2.753-1.113l-.332-12.363,1.524-.059.293,11.8Q258.3,3427.627,260.956,3426.493Zm10.371,5.918-1.23,1.153a43.535,43.535,0,0,0-4.493-5.294,14.752,14.752,0,0,1-6.855,5.411,6.028,6.028,0,0,0-1.172-1.289,15.606,15.606,0,0,0,4.3-2.325,11.189,11.189,0,0,0,2.881-3.418,18.332,18.332,0,0,0,1.728-4.443,41.891,41.891,0,0,0,.957-5.811l1.6.157q-.781,6.835-2.637,10.371A48.587,48.587,0,0,1,271.327,3432.411Zm-7.539-9.785-1.406.762a15.071,15.071,0,0,0-1.27-2.432,19.1,19.1,0,0,0-1.8-2.451l1.309-.664A17.089,17.089,0,0,1,263.788,3422.626Z"/>
    <path id="Path_785" data-name="Path 785" d="M276.644,3428.114v-12.929h6.308v1.367h-4.844v11.562Z"/>
    <path id="Path_786" data-name="Path 786" d="M298.639,3431.864h2.578a.875.875,0,0,0,.488-.117.915.915,0,0,0,.283-.547,6.535,6.535,0,0,0,.157-1.064q.048-.635.087-1.866a3.94,3.94,0,0,0,1.387.665,9.739,9.739,0,0,1-.566,3.457,1.765,1.765,0,0,1-1.738.878h-2.852a2.613,2.613,0,0,1-1.8-.458,2.46,2.46,0,0,1-.469-1.748v-7.129h-3.73q-.117,1.406-.313,2.48a13.355,13.355,0,0,1-.615,2.217,8.167,8.167,0,0,1-1.045,2,8.036,8.036,0,0,1-1.631,1.631,10.091,10.091,0,0,1-2.353,1.318,3.265,3.265,0,0,0-.938-1.172,8.365,8.365,0,0,0,2.158-1.162,7.465,7.465,0,0,0,1.465-1.435,6.573,6.573,0,0,0,.918-1.768,11.94,11.94,0,0,0,.518-1.943q.156-.918.254-2.168h-5.059v-1.446h17.5v1.446H297.7v7.109a.9.9,0,0,0,.176.664A1.238,1.238,0,0,0,298.639,3431.864Zm3.007-14.922v1.426H287.565v-1.426Z"/>
    <path id="Path_787" data-name="Path 787" d="M316.494,3432.079h8.047v1.094H307.119v-1.094h7.91v-1.055h-6v-.976h6v-1.016q-1.405.019-3.672.039t-2.714.02l-.078-1.016q.858.019,2.929.02.47-.469,1-1.094h-3.066v-.918h12.695V3427h-2.441a20.836,20.836,0,0,1,3.672,2.012l-.879.8a10.466,10.466,0,0,0-1.309-.86q-1.543.039-4.668.078v1.016h6.25v.976h-6.25Zm-1.465-13.457v-1.035h-7.89v-1.055h7.89v-1.172h1.465v1.172h8.027v1.055h-8.027v1.035h6.582v.977H308.565v-.977Zm9.1,8.4h-1.387v-1.8H308.838v1.8H307.49v-2.851h16.641Zm-14.668-6.581h12.754v2.89H309.463Zm11.308,2.011v-1.133H310.85v1.133Zm-2.5,4.551h-4.062q-.489.528-1.094,1.113,4.22,0,6.465-.019-1.171-.547-1.738-.742Z"/>
    <path id="Path_788" data-name="Path 788" d="M334.231,3426.181l.313,1.347-6.172,2.93-.547-1.484q.938-.333,2.695-1.114v-6.25H328.2v-1.386h2.324v-4.649h1.387v4.649H334v.215h3.32a8.667,8.667,0,0,0-.781-2.051l.938-.254h-2.852v-1.211h4.707V3415.4h1.426v1.524h4.98v1.211h-2.929l1.093.273q-.82,1.6-1.074,2.032H346.2v1.23H333.958v-.059h-2.051v5.625l1.25-.566C333.7,3426.422,334.063,3426.259,334.231,3426.181Zm8.672,6.035h1.6a.46.46,0,0,0,.469-.352,7.1,7.1,0,0,0,.136-1.64,3.079,3.079,0,0,0,1.25.507,5.2,5.2,0,0,1-.449,2.2,1.36,1.36,0,0,1-1.25.556h-1.934a2.115,2.115,0,0,1-1.445-.351,2.039,2.039,0,0,1-.351-1.406v-3.008h-2.09a5.987,5.987,0,0,1-1.6,3.125,8.019,8.019,0,0,1-3.769,1.8,3.681,3.681,0,0,0-.84-1.25,7.736,7.736,0,0,0,3.359-1.328,4.192,4.192,0,0,0,1.387-2.344h-1.992V3422.7h9.707v6.016h-2.754v2.988c0,.222.032.361.1.42A.786.786,0,0,0,342.9,3432.216Zm-6.113-8.477v1.485h6.836v-1.485Zm0,2.461v1.485h6.836V3426.2Zm5.645-8.066h-4.61a7.261,7.261,0,0,1,.86,2.09l-.821.215H342.1l-.625-.157A21.111,21.111,0,0,0,342.435,3418.134Z"/>
    <path id="Path_789" data-name="Path 789" d="M354.977,3420.888v12.929h-6.309v-1.386h4.844v-11.543Z"/>
    <path id="Path_790" data-name="Path 790" d="M375.918,3426.669h2.246a4.753,4.753,0,0,1-.059.625q-.2,2.813-.429,4.1a3.517,3.517,0,0,1-.645,1.719,1.7,1.7,0,0,1-1.133.508q-1.113.039-2.05-.019a2.491,2.491,0,0,0-.332-1.192q.761.059,1.738.059a.771.771,0,0,0,.586-.176q.507-.546.82-4.316h-12.3a12.093,12.093,0,0,1-2.734,5.292,3.69,3.69,0,0,0-1.094-.937q2.989-3.183,2.989-9.375V3420.3h5.644a7.89,7.89,0,0,0-1-2.422l1.27-.332a7.515,7.515,0,0,1,1.093,2.48l-.839.274h4.785q-.1,1.054-.41,3.183h2.285Q375.957,3426.4,375.918,3426.669Zm-2.3-9.1,1.133-.664q-4.746.586-10.2.8a16.56,16.56,0,0,1-2.617,4.316,6.325,6.325,0,0,0-1.231-.878,13.436,13.436,0,0,0,2.832-4.844l1.055.254a88.814,88.814,0,0,0,10.918-1l1.094,1.054q-1.036.177-1.817.274a18.548,18.548,0,0,1,3.281,3.828l-1.211.781a13.753,13.753,0,0,0-1.386-1.953A19.785,19.785,0,0,0,373.613,3417.567Zm-8.554,15.957-1.094-.6a6.655,6.655,0,0,0,1.7-3.828l1.152.332A7.351,7.351,0,0,1,365.059,3433.524Zm9.765-8.808h-9.98a18.661,18.661,0,0,1-.235,1.953h9.922Q374.629,3426.083,374.824,3424.716Zm-1.855-3.164H364.9v1.933H372.7C372.813,3422.821,372.9,3422.177,372.969,3421.552Zm-5,7.949,1.074-.117a13.765,13.765,0,0,1,.41,3.457L368.3,3433A12.493,12.493,0,0,0,367.969,3429.5Zm2.519-.117,1-.254a9.519,9.519,0,0,1,1.036,3.066l-1.075.274A10.677,10.677,0,0,0,370.488,3429.384Zm4.746,1.7-.957.391a9.517,9.517,0,0,0-1.386-2.481l.918-.351A8.1,8.1,0,0,1,375.234,3431.083Z"/>
    <path id="Path_791" data-name="Path 791" d="M382.6,3416.278h16.6v17.4h-1.465v-.918H384.026v.918H382.6Zm1.425,15.137h13.711v-13.77H384.026Zm11.622-2.949H392.7a19.506,19.506,0,0,1,3.926,1.8l-1.211.547a16.216,16.216,0,0,0-3.652-1.778l.859-.566h-3.769l1.074.332a14.374,14.374,0,0,1-3.906,1.992,7.689,7.689,0,0,0-.9-.84,13.6,13.6,0,0,0,3.613-1.484H386.1v-6.152h9.551Zm-.8-9.707v2.812h-7.891v-2.812Zm-7.461,4.394v.918h6.933v-.918Zm0,1.739v.918h6.933v-.918Zm0,1.738v.976h6.933v-.976Zm6.152-5.9V3419.6h-5.332v1.132Z"/>
    <path id="Path_792" data-name="Path 792" d="M404.968,3422.528l1.445.274q-.625,5.41-2.363,7.734l-1.328-.82Q404.48,3427.451,404.968,3422.528Zm3.34-1.621h1.5v10a1.135,1.135,0,0,0,.254.889,1.876,1.876,0,0,0,1.075.205h3.671a1.105,1.105,0,0,0,1.153-.772,14.988,14.988,0,0,0,.39-3.408,3.22,3.22,0,0,0,1.387.684,10.266,10.266,0,0,1-.7,3.877,2.235,2.235,0,0,1-2.148.986h-3.867a3.271,3.271,0,0,1-2.159-.517,2.66,2.66,0,0,1-.556-1.963Zm.156-4.316.937-1.133a29.584,29.584,0,0,1,3.633,1.514,29.13,29.13,0,0,1,3.2,1.787l-.937,1.308a24.755,24.755,0,0,0-3.145-1.875A28.129,28.129,0,0,0,408.464,3416.591Zm8.105,5.937,1.309-.664a22.774,22.774,0,0,1,2.344,3.731,16.738,16.738,0,0,1,1.406,3.652l-1.445.684a17,17,0,0,0-1.368-3.662A23.746,23.746,0,0,0,416.569,3422.528Z"/>
    <path id="Path_793" data-name="Path 793" d="M431.807,3428.329l-.43-1.055q2.383-1,2.519-2.929a2.34,2.34,0,0,1-.351.019,1.58,1.58,0,0,1-1.074-.371,1.317,1.317,0,0,1-.43-1.054,1.337,1.337,0,0,1,.439-1.065,1.6,1.6,0,0,1,1.085-.381,1.461,1.461,0,0,1,1.25.615,2.821,2.821,0,0,1,.449,1.69,4.375,4.375,0,0,1-.928,2.783A5.418,5.418,0,0,1,431.807,3428.329Z"/>
    <path id="Path_794" data-name="Path 794" d="M445.717,3433.134l-.117-1.192q.254-.018,11.465-.527l-.04,1.152Q447.923,3433.036,445.717,3433.134Zm10.137-16.485v1.934h1.25v1.016h-1.25v2.011h-3.907v.918h4.2v.938h-4.2v.918h5.039v1.035h-11.25v-1.035h4.844v-.918h-3.906v-.938h3.906v-.918h-3.75v-.937h3.75V3419.6h-4.961v-1.016h4.961v-.977h-3.672v-.957h3.672v-1.269h1.367v1.269Zm-8.907,9.629h8.887v4.4h-8.887Zm1.211.821v.957h2.578v-.957Zm0,1.777v.957h2.578v-.957Zm3.789-11.27v.977h2.618v-.977Zm2.618,3.067V3419.6h-2.618v1.074Zm.019,7.383v-.957h-2.559v.957Zm0,1.777v-.957h-2.559v.957Zm4.609-12.07v11h-1.347v-11Zm2.422-2.012h1.406v16.016a2.361,2.361,0,0,1-.185,1.045,1.237,1.237,0,0,1-.615.556,11.309,11.309,0,0,1-3.106.254,4.488,4.488,0,0,0-.449-1.445q1.875.059,2.48.019.47-.019.469-.429Z"/>
    <path id="Path_795" data-name="Path 795" d="M466.95,3423.5h18.164v1.621H466.95Z"/>
    <path id="Path_796" data-name="Path 796" d="M492.325,3424.6v5q1.366,2.109,5.039,2.265,5,.138,9.121-.136a4.125,4.125,0,0,0-.508,1.464q-4.609.156-8.593.059-3.908-.175-5.7-2.363-1.017.977-2.891,2.558l-.781-1.465a29.164,29.164,0,0,0,2.871-2.285v-3.711h-2.617V3424.6Zm.41-2.715-1.035,1.074a11.489,11.489,0,0,0-3.418-2.383l.977-.957a17.015,17.015,0,0,1,1.943,1.084A9.475,9.475,0,0,1,492.735,3421.884Zm.528-3.965-1.036,1.016a11.012,11.012,0,0,0-3.144-2.4l.977-.918A10.836,10.836,0,0,1,493.263,3417.919Zm1.933,2.988h3.36q.193-.918.312-1.679h-5.254v-1.25h3.3a7.419,7.419,0,0,0-1.328-2.11l1.152-.488a6.736,6.736,0,0,1,1.465,2.285l-.723.313h4.473l-.742-.2a16.733,16.733,0,0,0,1.348-2.422l1.484.352a25.06,25.06,0,0,1-1.484,2.266h3.593v1.25H500.47q-.1.351-.322.966c-.151.41-.232.648-.245.713h4.61v9.649h-1.485v-.645H496.6v.645H495.2Zm7.832,2.657v-1.5H496.6v1.5Zm-6.426,1.054v1.543h6.426v-1.543Zm0,4.16h6.426v-1.562H496.6Z"/>
    <path id="Path_797" data-name="Path 797" d="M527.543,3421.064v1.328h-4.082l.449.136q-1.23,2.11-1.68,2.735h4.727v1.308h-7.715v2.344h6.778v1.328h-6.778v3.4h-1.523v-3.4h-6.543v-1.328h6.543v-2.344h-7.6v-1.308h4.473a11.883,11.883,0,0,0-1.211-2.618l.84-.253h-4.629v-1.328h8.125V3418.8h-6.055v-1.309h6.055v-2.109h1.523v2.109h6.211v1.309h-6.211v2.266Zm-6.563,4.2-.2-.059a15.74,15.74,0,0,0,1.387-2.812h-7.4a9.627,9.627,0,0,1,1.308,2.734l-.41.137Z"/>
    <path id="Path_798" data-name="Path 798" d="M531.355,3425.751v-2.324h1.075v2.343a17.391,17.391,0,0,1-.879,6.27,2.482,2.482,0,0,0-.938-.7A16.311,16.311,0,0,0,531.355,3425.751Zm-.488-3.75v-1.328h7.09V3422h-2.832v11.621h-1.27V3422Zm6.7-5.332V3418h-6.132v-1.328Zm-1.015,13.848v-7.11H537.6v7.11Zm1.875-14.1h10.215v1.289H538.426Zm.176,17.207v-8.652h9.863v8.652h-1.328v-.781H539.91v.781Zm.82-14.492H547.7v4.492h-8.281Zm3.4,7.07h-2.91v2.07h2.91Zm-2.91,5.391h2.91v-2.11h-2.91Zm6.387-9.1v-2.207H540.77v2.207Zm.84,5.781v-2.07h-3.008v2.07Zm-3.008,3.321h3.008v-2.11h-3.008Z"/>
    <path id="Path_799" data-name="Path 799" d="M555.929,3415.321l1.6.293q-.626,1.836-1.054,2.95h3.32v12.968h-5.547v1.582h-1.367v-14.55h2.246A24.033,24.033,0,0,0,555.929,3415.321Zm2.519,8.75v-4.179h-4.2v4.179Zm-4.2,6.133h4.2V3425.4h-4.2Zm15.332-11.7v.762q-.234,7.031-.508,9.736a7.526,7.526,0,0,1-.859,3.428,2.118,2.118,0,0,1-1.582.8,20.384,20.384,0,0,1-2.969-.019,3.121,3.121,0,0,0-.508-1.445q1.308.117,2.969.117a.96.96,0,0,0,.82-.313,6.679,6.679,0,0,0,.752-3.095q.264-2.568.459-8.6h-5.078a17.558,17.558,0,0,1-1.875,3.516,9.7,9.7,0,0,0-1.211-.84,19.166,19.166,0,0,0,3.047-7.266l1.426.332q-.352,1.446-.86,2.891Zm-3.164,8.984-1.25.781a32.667,32.667,0,0,0-3.047-4.609l1.172-.683A38.721,38.721,0,0,1,566.417,3427.489Z"/>
    <path id="Path_800" data-name="Path 800" d="M591.185,3426.083v1.465H583.06v6.035h-1.523v-6.035h-7.988v-1.465h7.988v-3.32h-5.078v-1.446h5.078v-5.957h1.523v5.957h5.1v1.446h-5.1v3.32Zm-13.281-9.57,1.524.488a19.762,19.762,0,0,1-2.032,2.832,17.79,17.79,0,0,1-2.461,2.422,8.52,8.52,0,0,0-1.191-.957,15.239,15.239,0,0,0,2.383-2.246A13.2,13.2,0,0,0,577.9,3416.513Zm12.911,4.707-1.25.859a16.456,16.456,0,0,0-1.905-2.363,31.911,31.911,0,0,0-2.607-2.5l1.191-.762a32.751,32.751,0,0,1,2.637,2.441A16.064,16.064,0,0,1,590.815,3421.22Z"/>
    <path id="Path_801" data-name="Path 801" d="M599.021,3419.423l1.329.449a22.334,22.334,0,0,1-1.739,2.617V3433.6h-1.386v-9.493a19.346,19.346,0,0,1-2.246,2.149,7.972,7.972,0,0,0-.84-1.328,17.967,17.967,0,0,0,2.715-2.5A16.819,16.819,0,0,0,599.021,3419.423Zm-.468-4.043,1.367.508a17.793,17.793,0,0,1-2.149,2.529,20.79,20.79,0,0,1-2.578,2.2,7.216,7.216,0,0,0-.839-1.074,15.348,15.348,0,0,0,2.373-1.953A12.559,12.559,0,0,0,598.553,3415.38Zm8.535,16.406h5.683v1.328H599.646v-1.328h5.977v-3.691h-4.668v-1.309h10.86v1.309h-4.727Zm-2.734-6.152-1.309.449a22.717,22.717,0,0,0-2.5-3.965,36.812,36.812,0,0,0,2.226-3.652l1.348.332q-.879,1.543-2.109,3.3A21.074,21.074,0,0,1,604.354,3425.634Zm8.2-9.239v1.348H600.7V3416.4Zm-6.094,2.09,1.347.332q-.585,1.037-2.167,3.282a23.831,23.831,0,0,1,2.48,3.515l-1.289.469a22.35,22.35,0,0,0-2.7-3.965A24.641,24.641,0,0,0,606.463,3418.485Zm5.625,7.11-1.27.488a25.307,25.307,0,0,0-3.008-3.965,32.2,32.2,0,0,0,2.442-3.633l1.348.332q-.567.978-2.285,3.282A22.036,22.036,0,0,1,612.088,3425.595Z"/>
    <path id="Path_802" data-name="Path 802" d="M623.263,3428.329l-.43-1.055q2.383-1,2.52-2.929a2.366,2.366,0,0,1-.352.019,1.58,1.58,0,0,1-1.074-.371,1.317,1.317,0,0,1-.43-1.054,1.337,1.337,0,0,1,.439-1.065,1.6,1.6,0,0,1,1.084-.381,1.459,1.459,0,0,1,1.25.615,2.815,2.815,0,0,1,.45,1.69,4.375,4.375,0,0,1-.928,2.783A5.417,5.417,0,0,1,623.263,3428.329Z"/>
    <path id="Path_803" data-name="Path 803" d="M645.142,3426.493l.332,1.426q-2.911,1.347-7.969,3.535l-.547-1.543q1.386-.526,2.754-1.113l-.332-12.363,1.523-.059.293,11.8Q642.486,3427.627,645.142,3426.493Zm10.371,5.918-1.231,1.153a43.691,43.691,0,0,0-4.492-5.294,14.762,14.762,0,0,1-6.855,5.411,6.053,6.053,0,0,0-1.172-1.289,15.62,15.62,0,0,0,4.3-2.325,11.2,11.2,0,0,0,2.88-3.418,18.373,18.373,0,0,0,1.729-4.443,42.029,42.029,0,0,0,.957-5.811l1.6.157q-.783,6.835-2.637,10.371A48.9,48.9,0,0,1,655.513,3432.411Zm-7.539-9.785-1.407.762a15.057,15.057,0,0,0-1.269-2.432,19.1,19.1,0,0,0-1.8-2.451l1.309-.664A17.089,17.089,0,0,1,647.974,3422.626Z"/>
    <path id="Path_804" data-name="Path 804" d="M674.656,3425.458l.9.352a11.451,11.451,0,0,1-2.95,4.707,10.482,10.482,0,0,0,4.043,1.914,3.781,3.781,0,0,0-.9,1.172,11.325,11.325,0,0,1-4.18-2.208,14.113,14.113,0,0,1-3.984,2.11,3.988,3.988,0,0,0-.781-1.133v1.25H665.4v-1.953q-4.355.527-6.757.8l-.137-1.309q.879-.058,1.914-.176v-6.718H658.68v-1.25h17.48v1.25H666.8v8.086a11.564,11.564,0,0,0,3.769-1.9,11.559,11.559,0,0,1-2.207-3.516l.86-.273h-1.719V3425.5h6.875Zm-.722-9.453v5.9H661.063V3416Zm-8.536,8.262h-3.632v1.328H665.4Zm-3.632,2.461v1.386H665.4v-1.386Zm0,2.519v1.582q.254-.02,1.582-.156t2.05-.215v-1.211Zm10.7-10.8v-1.386h-10v1.386Zm0,2.383v-1.387h-10v1.387Zm1.269,5.84h-4.121a9.4,9.4,0,0,0,1.953,2.949A9.524,9.524,0,0,0,673.738,3426.669Z"/>
    <path id="Path_805" data-name="Path 805" d="M687.414,3430.165h-3.2v3.477h-1.289v-3.477h-3.359v-1.328h3.359v-1.621h-2.715v-6.9h2.715v-1.484h-3.106v-1.289h3.106v-2.168h1.269v2.168h3.067v1.289h-3.067v1.484H687v6.9h-2.793v1.621h3.2Zm-6.113-8.73v1.777h1.719v-1.777Zm0,2.851v1.817h1.719v-1.817Zm4.551-1.074v-1.777h-1.778v1.777Zm0,2.891v-1.817h-1.778v1.817Zm7.4,5.742h4.629v1.269h-10.86v-1.269h4.786v-3.906h-3.672v-1.29h9.121v1.29h-4Zm-2.422-6.309-1.23.488a21.369,21.369,0,0,0-2.188-4.023,23.468,23.468,0,0,0,1.934-3.711l1.269.332q-.781,1.582-1.816,3.359A21.979,21.979,0,0,1,690.832,3425.536Zm6.816-9.2v1.308h-9.882v-1.308Zm-5.039,1.953,1.25.332q-.761,1.5-1.875,3.34a18.678,18.678,0,0,1,2.129,3.516l-1.172.507a22.079,22.079,0,0,0-2.343-4A32.35,32.35,0,0,0,692.609,3418.29Zm4.961,7.207-1.191.527a22.362,22.362,0,0,0-2.5-4.023,35.416,35.416,0,0,0,2.129-3.711l1.23.332q-.723,1.426-1.953,3.359A23.406,23.406,0,0,1,697.57,3425.5Z"/>
    <path id="Path_806" data-name="Path 806" d="M705.933,3427.274v.782q2.01,1.446,2.871,2.187l-.84,1.016a18.232,18.232,0,0,0-2.031-1.992v4.336H704.6V3428.9a13.642,13.642,0,0,1-2.929,3.36,3.391,3.391,0,0,0-.918-1,9.9,9.9,0,0,0,1.924-1.7,14.168,14.168,0,0,0,1.689-2.286h-3.086V3426.1h3.32v-1.7h1.329v1.7h2.89v1.171Zm-4.375-3.847,1.328-.059a10.274,10.274,0,0,0,.664-1.289h-2.422v-.957h1.719v-5.176h7.4v.977h-6.035v.82h5.527v.879h-5.527v.82h5.527v.86h-5.527v.82h6.992v.957h-2.48a9.133,9.133,0,0,1,2.089,2.09l-.976.566a8.192,8.192,0,0,0-.566-.722q-5.527.351-7.637.449Zm2.636-.137,4.18-.176a9.644,9.644,0,0,0-.84-.7l.625-.332h-3.242Q704.6,3422.665,704.194,3423.29Zm6.289,2.227,1.27.273a8.648,8.648,0,0,1-2.617,3.77,6.148,6.148,0,0,0-.977-.9A6.858,6.858,0,0,0,710.483,3425.517Zm4.121,4.355,1.075-.488a16,16,0,0,1,1.591,1.865,9.409,9.409,0,0,1,1.084,1.807l-1.113.566q-.176-.391-.488-.937-1.446.117-7.949.585l-.137-1.289,2.031-.1a25.193,25.193,0,0,0,1.563-4.082l1.425.371q-1.269,2.871-1.66,3.633.742-.039,2.159-.127t1.806-.108A16.4,16.4,0,0,0,714.6,3429.872Zm3.008-9.141,1.231.489q-2.051,2.128-7.149,3.144a3.716,3.716,0,0,0-.761-1.074Q715.835,3422.51,717.612,3420.731Zm-1.23-5.234,1.152.567a20,20,0,0,1-5.6,2.617,5.214,5.214,0,0,0-.9-.938A17.821,17.821,0,0,0,716.382,3415.5Zm.683,2.559,1.192.547a15.781,15.781,0,0,1-5.84,2.675,4.087,4.087,0,0,0-.859-.957,22.014,22.014,0,0,0,3.115-.967A9.284,9.284,0,0,0,717.065,3418.056Zm-5.136,6.621h4a5.44,5.44,0,0,0,1.259,2.09,6.992,6.992,0,0,0,2,1.484,4.18,4.18,0,0,0-.859,1.133,7.616,7.616,0,0,1-3.281-3.516h-3.125Z"/>
    <path id="Path_807" data-name="Path 807" d="M256.835,3455.321l1.6.293q-.624,1.836-1.054,2.95h3.32v12.968h-5.547v1.582h-1.367v-14.55h2.246A23.727,23.727,0,0,0,256.835,3455.321Zm2.519,8.75v-4.179h-4.2v4.179Zm-4.2,6.133h4.2V3465.4h-4.2Zm15.332-11.7v.762q-.234,7.031-.507,9.736a7.523,7.523,0,0,1-.86,3.428,2.118,2.118,0,0,1-1.582.8,20.381,20.381,0,0,1-2.969-.019,3.11,3.11,0,0,0-.508-1.445q1.309.117,2.969.117a.963.963,0,0,0,.821-.313,6.684,6.684,0,0,0,.751-3.095q.264-2.568.459-8.6h-5.078a17.558,17.558,0,0,1-1.875,3.516,9.662,9.662,0,0,0-1.21-.84,19.182,19.182,0,0,0,3.046-7.266l1.426.332a30.135,30.135,0,0,1-.859,2.891Zm-3.164,8.984-1.25.781a32.4,32.4,0,0,0-3.047-4.609l1.172-.683A38.473,38.473,0,0,1,267.323,3467.489Z"/>
    <path id="Path_808" data-name="Path 808" d="M282.277,3469.462l.137,1.308q-1.68.391-4.609,1.055t-3.555.8l-.273-1.426,1.289-.254v-6.718h1.211v6.464l1.5-.312v-7.735h-2.812v-6.074h6.66v6.074h-2.539v2.6h2.793v1.309h-2.793v3.554Zm-5.781-11.6v3.477h3.984v-3.477Zm8.4,13.575h7.5v1.425H282.082v-1.425h1.348v-13.262h-1.055v-1.387h9.8v1.387h-7.285v3.047h6.386v6.758h-6.386Zm4.941-8.829h-4.941v3.985h4.941Z"/>
    <path id="Path_809" data-name="Path 809" d="M304.965,3457.079v1.211h-9.61v-1.211h4.083v-1.719h1.445v1.719Zm8.652,14.16v1.348h-6.406v1.055h-1.328v-11.27q-.234.409-.9,1.426a6.716,6.716,0,0,0-1-.82v1.64h-3.242l-.273,1.348h4.082v6.23q0,.957-.625,1.211a8.837,8.837,0,0,1-2.442.2,3.565,3.565,0,0,0-.41-1.172q.45.018,1.875.019c.222-.013.332-.1.332-.273v-5.059h-3.066q-.294,1.368-.606,2.539l1.817-.117q-.274-.7-.606-1.387l.86-.254a10.343,10.343,0,0,1,1.269,3.262l-.918.313a7.832,7.832,0,0,0-.234-.938q-.684.059-1.416.117t-1.543.117q-.81.06-1.221.1l-.117-1.094,1.016-.058q.39-1.622.546-2.6h-2.05v6.524h-1.231v-7.676h3.477c.012-.078.042-.28.088-.606s.075-.572.088-.742h-3.125v-5.508h1.113v4.454h5.449v-4.454h1.113v3.653a21.116,21.116,0,0,0,3.184-7.383l1.348.312a34.992,34.992,0,0,1-1.133,3.457h2.129a21.624,21.624,0,0,0,1.132-3.574l1.407.352q-.684,2.031-1.211,3.222H313.4v1.368h-2.578v2.656h2.4v1.308h-2.4v2.7h2.4v1.308h-2.4v2.754Zm-11.113-9.062-.645.781a13.826,13.826,0,0,0-1.484-1.23,12.463,12.463,0,0,1-1.8,1.718,4.582,4.582,0,0,0-.859-.683,9.638,9.638,0,0,0,1.816-1.641,18.254,18.254,0,0,0-1.6-.977l.625-.683a16.358,16.358,0,0,1,1.582.918,11.776,11.776,0,0,0,.879-1.563l1.035.254a10.532,10.532,0,0,1-1.075,1.875A12.1,12.1,0,0,1,302.5,3462.177Zm7.031,1v-2.656h-2.324v2.656Zm0,4v-2.7h-2.324v2.7Zm-2.324,1.308v2.754h2.324v-2.754Z"/>
    <path id="Path_810" data-name="Path 810" d="M324.02,3468.329l-.429-1.055q2.382-1,2.519-2.929a2.34,2.34,0,0,1-.351.019,1.58,1.58,0,0,1-1.074-.371,1.314,1.314,0,0,1-.43-1.054,1.334,1.334,0,0,1,.439-1.065,1.6,1.6,0,0,1,1.084-.381,1.461,1.461,0,0,1,1.25.615,2.822,2.822,0,0,1,.449,1.69,4.374,4.374,0,0,1-.927,2.783A5.42,5.42,0,0,1,324.02,3468.329Z"/>
    <path id="Path_811" data-name="Path 811" d="M341.2,3467.978a.762.762,0,0,0,.674-.44,3.151,3.151,0,0,0,.166-1.182,6.9,6.9,0,0,0-1.465-4.14q.625-1.817,1.309-4.649h-2.032v16.055h-1.308v-17.4h3.828l.176-.059.918.547q-1.232,4.181-1.66,5.371a7.516,7.516,0,0,1,1.5,4.434q0,1.778-.723,2.3a2.816,2.816,0,0,1-1.992.391,3.005,3.005,0,0,0-.293-1.269A7.746,7.746,0,0,0,341.2,3467.978Zm5.352-2.93v4.766a4,4,0,0,0,3.633,2.226,55.218,55.218,0,0,0,6.054-.1,5.438,5.438,0,0,0-.39,1.328q-3.4.137-5.7.04a4.929,4.929,0,0,1-4.179-2.325q-1.191,1.251-2.539,2.539l-.742-1.289q1.172-.937,2.6-2.3V3466.3H343.6v-1.25Zm-3.242-4.219,1.015-.664a9.113,9.113,0,0,1,1.992,2.5l-1.074.8A8.966,8.966,0,0,0,343.31,3460.829Zm3.476-2.305-1.113.723a10.149,10.149,0,0,0-1.738-2.676l1.074-.625A9.26,9.26,0,0,1,346.786,3458.524Zm2.832,1.68v-.937a11.582,11.582,0,0,1-2.285,3.378,8.439,8.439,0,0,0-1.035-.839,9.577,9.577,0,0,0,2.441-3.672h-1.875v-1.074h2.266a16.974,16.974,0,0,0,.43-1.7l1.269.2q-.059.312-.39,1.5h5.41v1.074h-5.762q-.234.645-.449,1.094h5.527v.976H352.9v1.289h3.086v.977h-7.461v-.977h3.086V3460.2Zm5.332,3.379v6.27a1.7,1.7,0,0,1-.117.712.8.8,0,0,1-.43.381,7.247,7.247,0,0,1-2.089.176,3.431,3.431,0,0,0-.372-1.016c.443.014.918.02,1.426.02a.245.245,0,0,0,.254-.273v-1.211H349.54v2.441h-1.25v-7.5Zm-1.328,1.016H349.54v1.035h4.082Zm-4.082,3.046h4.082v-1.054H349.54Z"/>
    <path id="Path_812" data-name="Path 812" d="M365.373,3456.669v13.047h-4.3v1.621h-1.367v-14.668Zm-1.406,1.348h-2.891v4.433h2.891Zm-2.891,10.371h2.891v-4.629h-2.891Zm16.25-5.469h-2.539v2.266h2.324v1.308h-2.324v5.371q0,1.21-.82,1.5a13.213,13.213,0,0,1-3.242.235,3.9,3.9,0,0,0-.469-1.387q1.971.058,2.656.019a.614.614,0,0,0,.342-.1.382.382,0,0,0,.088-.293v-5.352h-7.559v-1.308h7.559v-2.266h-7.657v-1.328h5.02v-2.539h-4.16v-1.309h4.16v-2.383h1.465v2.383h4.3v1.309h-4.3v2.539h5.156Zm-10.312,4.961,1.191-.684a13.022,13.022,0,0,1,2.6,3.4l-1.25.8a11.508,11.508,0,0,0-1.074-1.738A17.772,17.772,0,0,0,367.014,3467.88Z"/>
    <path id="Path_813" data-name="Path 813" d="M389.448,3471.2h8.809v1.485H380.425V3471.2h7.461v-15.527h1.562v6.133h7.442v1.464h-7.442Z"/>
    <path id="Path_814" data-name="Path 814" d="M405.749,3462.821l-.84,1.231a13.113,13.113,0,0,0-3.535-2.071l.84-1.093A12.715,12.715,0,0,1,405.749,3462.821Zm-.41,3.164,1.133.9q-1.407,3.2-3.243,6.484l-1.289-.937A50.341,50.341,0,0,0,405.339,3465.985Zm1.387-8.359-.86,1.191a11.025,11.025,0,0,0-1.543-1.142,15.4,15.4,0,0,0-1.953-1.065l.82-1.093A13.557,13.557,0,0,1,406.726,3457.626Zm3.847,12.539,1.426.508a17.89,17.89,0,0,1-4.824,3.008,5.7,5.7,0,0,0-1.094-1.075A14.581,14.581,0,0,0,410.573,3470.165Zm-2.187-11.641v1.954h-1.328v-3.2h5.312v-1.894h1.5v1.894H419.4v3.2h-1.445v-1.954Zm-.41,4.493h4.433v-1.485h-3.828v-1.211H417.9v1.211h-4.063v1.485h4.609v6.8H407.976Zm1.308,1.152v1.7h3.125v-1.7Zm0,2.793v1.7h3.125v-1.7Zm7.793-2.793h-3.242v1.7h3.242Zm0,4.492v-1.7h-3.242v1.7Zm-2.754,2.129,1.113-.742a27.112,27.112,0,0,1,4.2,2.715l-1.153.9A28.037,28.037,0,0,0,414.323,3470.79Z"/>
    <path id="Path_815" data-name="Path 815" d="M431.191,3458.642q-.02.273-.039,1.006t-.039,1.025h1.407v.957h-1.465q-.021.626-.1,1.289h1.113v.9h-1.23a3.2,3.2,0,0,1-.235.782l.9.449a26.468,26.468,0,0,1-2.832,1.992,14.338,14.338,0,0,1,1.348.8,37.694,37.694,0,0,0,4.14-2.637l1.231.723a49.4,49.4,0,0,1-5.078,2.949q1.718-.039,6.328-.117-1.017-.567-1.973-1.016l.957-.781a21.1,21.1,0,0,1,4.883,2.871l-1,.879a9.455,9.455,0,0,0-1.192-.918l-5.859.176v3.691H431v-3.672q-6.231.175-7.656.2l-.215-1.25q1.133,0,4.8-.04a5.04,5.04,0,0,0,.742-.351,25.829,25.829,0,0,0-3.535-1.934l1.015-.8q.7.292,1.485.683a13.2,13.2,0,0,0,1.718-1.269,7.408,7.408,0,0,1-1.074,0,2.367,2.367,0,0,0-.234-.879,8.086,8.086,0,0,0,1.035.058.41.41,0,0,0,.342-.136,1.475,1.475,0,0,0,.2-.45H424.9c-.013.118-.036.274-.068.469s-.056.319-.068.371l-1.153-.1q.294-1.5.508-2.93h-1.348v-.957h1.465q.059-.507.2-1.719c-.066.066-.161.166-.284.3s-.211.231-.263.283a7.044,7.044,0,0,0-1.153-.723,8.824,8.824,0,0,0,2.461-3.554l1.289.293q-.137.371-.507,1.113h6.132v1.074h-6.757q-.43.625-.645.9Zm-3.476,11.679,1.328.489a21.334,21.334,0,0,1-5.117,2.6,9.728,9.728,0,0,0-1.113-1.015A17.345,17.345,0,0,0,427.715,3470.321Zm-1.133-8.75h-1.348q-.039.255-.107.713t-.088.635h2.93a9.83,9.83,0,0,0-1.739-.9Zm.293-2.07h-1.387l-.156,1.23h2.793a7.811,7.811,0,0,0-1.641-.8Zm1.563,3.418h1.347q.078-.663.1-1.348H427.07a4.894,4.894,0,0,1,1.68.957Zm1.5-2.188.059-1.23h-2.656a5.022,5.022,0,0,1,1.445.762l-.332.468Zm10.782-2.187h-1.368a9.953,9.953,0,0,1-2.089,3.77,9.152,9.152,0,0,0,3.906,1.992,5.662,5.662,0,0,0-.879,1.211,10.254,10.254,0,0,1-4-2.286,12.892,12.892,0,0,1-3.75,2.129,5.355,5.355,0,0,0-.918-1.074,11.136,11.136,0,0,0,3.789-1.972,11.513,11.513,0,0,1-1.68-2.715,6.487,6.487,0,0,1-1.035,1.132,6.558,6.558,0,0,0-1.015-.937,9.7,9.7,0,0,0,2.91-4.434l1.328.313a14.381,14.381,0,0,1-.742,1.68h5.547Zm-6.289,12.52,1.035-.8a20.731,20.731,0,0,1,5,2.187l-1.114.918A19.881,19.881,0,0,0,434.434,3471.064Zm3.476-12.52h-3.32a8.623,8.623,0,0,0,1.719,2.871A7.7,7.7,0,0,0,437.91,3458.544Z"/>
    <path id="Path_816" data-name="Path 816" d="M461.926,3464.677h-3.633v1.992h2.676v1.27h-7.3v1.738h8.047v1.308h-8.047v2.657H452.2v-2.657h-7.851v-1.308H452.2v-1.738h-6.972v-1.27h2.5v-1.992h-3.614v-1.27h3.614v-1.953H445.52v-1.25h15.117v1.25h-2.344v1.953h3.633Zm-13.125-5.02v-1.543h-4.492v-1.328H448.8v-1.406h1.445v1.406h5.391v-1.406h1.445v1.406h4.648v1.328h-4.648v1.543h-1.445v-1.543h-5.391v1.543Zm.312,1.8v1.953H452.2v-1.953Zm0,5.215H452.2v-1.992h-3.086Zm7.813-3.262v-1.953h-3.262v1.953Zm0,3.262v-1.992h-3.262v1.992Z"/>
    <path id="Path_817" data-name="Path 817" d="M472.583,3468.329l-.43-1.055q2.382-1,2.52-2.929a2.356,2.356,0,0,1-.352.019,1.582,1.582,0,0,1-1.074-.371,1.314,1.314,0,0,1-.43-1.054,1.334,1.334,0,0,1,.44-1.065,1.6,1.6,0,0,1,1.084-.381,1.462,1.462,0,0,1,1.25.615,2.821,2.821,0,0,1,.449,1.69,4.375,4.375,0,0,1-.928,2.783A5.423,5.423,0,0,1,472.583,3468.329Z"/>
    <path id="Path_818" data-name="Path 818" d="M504.333,3468.5v1.269h-8.144v2.344a1.726,1.726,0,0,1-.206.938,1.185,1.185,0,0,1-.732.449,22.678,22.678,0,0,1-3.633.156,4.721,4.721,0,0,0-.508-1.23q.684.018,3.047.019a.855.855,0,0,0,.391-.088.33.33,0,0,0,.1-.283v-2.305H486.6V3468.5h8.046v-1.191h.879a21.967,21.967,0,0,0,3.379-1.211H488.474v-1.231h12.578l.351-.058.977.8a23.432,23.432,0,0,1-6.191,2.559v.332Zm-.273-11.406v1.308H486.794V3457.1h7.832v-1.739h1.543v1.739Zm-2.325,6.562H489.314v-3.984h12.421Zm-10.976-2.91v1.836h9.414v-1.836Z"/>
    <path id="Path_819" data-name="Path 819" d="M521.768,3464.618l.976.625a12.625,12.625,0,0,1-4.57,5.02,25.538,25.538,0,0,0,7.4,1.933,4.55,4.55,0,0,0-.9,1.387,23.611,23.611,0,0,1-7.988-2.48,27.811,27.811,0,0,1-8.067,2.48,4.272,4.272,0,0,0-.879-1.328,27.2,27.2,0,0,0,7.52-1.992,13.82,13.82,0,0,1-4.043-4.121l.214-.078h-.859v-1.387h10.9Zm-12.208-2.207v2.754h-1.386V3461.1h3.183a11.634,11.634,0,0,0-1.328-2.637l1.289-.371a10.043,10.043,0,0,1,1.407,2.617l-1.172.391h8.691a21.876,21.876,0,0,0,1.875-3.4l1.485.449q-.861,1.524-1.836,2.95h3.417v4.062h-1.464v-2.754Zm13.477-7.109,1.035,1.191a96.854,96.854,0,0,1-15.371,1.543,3.741,3.741,0,0,0-.332-1.25A93.2,93.2,0,0,0,523.037,3455.3Zm-2.5,10.762H512.8a11.487,11.487,0,0,0,3.926,3.437A10.853,10.853,0,0,0,520.537,3466.064Zm-2.832-5.43-1.387.351a9.36,9.36,0,0,0-1.015-2.949l1.347-.293A10.348,10.348,0,0,1,517.705,3460.634Z"/>
    <path id="Path_820" data-name="Path 820" d="M532.6,3455.478l1.367.39a34.3,34.3,0,0,1-1.563,3.887v13.867H531v-11.211a21.056,21.056,0,0,1-1.894,2.7,7.779,7.779,0,0,0-.762-1.5,18.749,18.749,0,0,0,2.412-3.643A27.139,27.139,0,0,0,532.6,3455.478Zm11.66,12.832.937.527a8.684,8.684,0,0,1-3.242,2.656,25.57,25.57,0,0,0,5.274.957,4.953,4.953,0,0,0-.821,1.25,21.977,21.977,0,0,1-6.093-1.484,27.984,27.984,0,0,1-6.211,1.445,5.275,5.275,0,0,0-.7-1.113,27.358,27.358,0,0,0,5.41-1.074,9.429,9.429,0,0,1-2.089-1.563,21.289,21.289,0,0,1-2.344,1.153,3.575,3.575,0,0,0-.9-.919,12.987,12.987,0,0,0,4.746-2.714.881.881,0,0,1-.547-.391,1.736,1.736,0,0,1-.157-.84v-1.269h1.231v1.269a.35.35,0,0,0,.137.332,1.585,1.585,0,0,0,.644.078h2.481a.581.581,0,0,0,.468-.146,1.581,1.581,0,0,0,.157-.733,3.292,3.292,0,0,0,1.015.352,1.864,1.864,0,0,1-.39,1.162,1.56,1.56,0,0,1-1.094.3h-2.383q-.351.37-.879.84h5.078Zm-8.535-9.864h3.5l.117-.527.117-.527h-5.117v-1.133h12.344v1.133h-5.645q-.254.643-.43,1.054h4.551v5h1.856v2.676h-1.348V3464.4h-5.059a5.456,5.456,0,0,1,1.309,1.055l-.9.645a6.884,6.884,0,0,0-2.051-1.583l.156-.117H535.08v1.719h-1.309v-2.676h1.954Zm-.567,9.336-.918-.762a6.184,6.184,0,0,0,2.11-2.031l.976.547A7.787,7.787,0,0,1,535.158,3467.782Zm8.594-7.637v-.839h-6.66v.839Zm0,1.641v-.859h-6.66v.859Zm-6.66,1.66h6.66v-.859h-6.66Zm5.957,5.9h-5.215a9.386,9.386,0,0,0,2.539,1.582A9.682,9.682,0,0,0,543.049,3469.345Zm.273-3.887.938-.547a10.156,10.156,0,0,1,2.3,2.305l-1,.586A9.567,9.567,0,0,0,543.322,3465.458Z"/>
    <path id="Path_821" data-name="Path 821" d="M568.179,3471.239v1.348H560.7v1.055h-1.367v-11.289c-.287.429-.527.774-.723,1.035l-.156-.176v.8h-1.777v7.754q0,1.23-.742,1.543a9.2,9.2,0,0,1-2.989.293,4.947,4.947,0,0,0-.468-1.426q1.912.039,2.382,0a.624.624,0,0,0,.332-.1.388.388,0,0,0,.1-.312v-6.5a23.892,23.892,0,0,1-2.119,3.632,18.292,18.292,0,0,1-2.49,2.911,5.13,5.13,0,0,0-.879-1.309,13.373,13.373,0,0,0,2.549-2.793,20.854,20.854,0,0,0,2.1-3.691h-2.6q-.041.351-.254,1.6l-1.328-.078a67.145,67.145,0,0,0,1-6.777l1.289.1q-.158,1.446-.469,3.77h3.2v-4.746h-4.98v-1.387h8.027v1.387h-1.66v4.746h1.074a1.32,1.32,0,0,1-.156-.127c-.066-.059-.112-.1-.137-.127a18.432,18.432,0,0,0,3.4-6.992l1.426.351a26.5,26.5,0,0,1-1.269,3.418h2.363a19.154,19.154,0,0,0,1.25-3.574l1.465.352q-.841,2.266-1.309,3.222h3.164v1.368h-3.086v2.656h2.774v1.289h-2.774v2.715h2.774v1.308h-2.774v2.754Zm-4.688-8.066v-2.656H560.7v2.656Zm0,4v-2.715H560.7v2.715Zm-2.793,1.308v2.754h2.793v-2.754Z"/>
    <path id="Path_822" data-name="Path 822" d="M587.058,3466.884v1.055h2.421v1.171h-2.421v3.067a1.8,1.8,0,0,1-.157.849.943.943,0,0,1-.547.42,10.457,10.457,0,0,1-2.753.215,4.466,4.466,0,0,0-.45-1.25q1.582.059,2.188.02a.572.572,0,0,0,.273-.069.265.265,0,0,0,.059-.205v-3.047h-6.25v1.055h-3.379v3.477h-1.328v-3.477h-3.535v-1.328h3.535v-1.621H571.9v-6.9h2.813v-1.484h-3.281v-1.289h3.281v-2.168h1.328v2.168h3.106v1.289h-3.106v1.484h2.871v6.9h-2.871v1.621h3.3v-.9h6.328v-1.055Zm-14.063-5.449v1.777h1.856v-1.777Zm0,2.851v1.817h1.856v-1.817Zm4.785-1.074v-1.777h-1.855v1.777Zm0,2.891v-1.817h-1.855v1.817Zm1.68.683-.1-1.152q.312,0,1.827-.02t2.47-.039v-1.289h-3.633v-5.215h3.633V3458h-4.1v-1.172h4.1v-1.445h1.309v1.445h4.277V3458h-4.277v1.074h3.789v5.215h-1.406a11.738,11.738,0,0,1,2.246,2.481l-1.036.625a8.35,8.35,0,0,0-.585-.84Q581.706,3466.747,579.46,3466.786Zm1.055,3.106,1-.586a8.066,8.066,0,0,1,1.992,2.285l-1.113.723A8.234,8.234,0,0,0,580.515,3469.892Zm.722-9.9v1.231h2.422v-1.231Zm0,3.379h2.422v-1.25h-2.422Zm6.289-3.379h-2.558v1.231h2.558Zm0,3.379v-1.25h-2.558v1.25Zm-2.558.918v1.27l2.129-.039q-.567-.606-.879-.879l.7-.352Z"/>
    <path id="Path_823" data-name="Path 823" d="M608.906,3461.747l1.426.723a21.675,21.675,0,0,1-3.3,3.808v5.274a2.744,2.744,0,0,1-.215,1.221,1.3,1.3,0,0,1-.761.615,16.834,16.834,0,0,1-4.043.234,5.864,5.864,0,0,0-.567-1.562q2.07.1,3.516.039a.641.641,0,0,0,.439-.118.6.6,0,0,0,.127-.449v-3.965a35.825,35.825,0,0,1-12.011,5.9,6.819,6.819,0,0,0-.977-1.348,34.387,34.387,0,0,0,10.313-4.453q-7.5.606-9.9.762l-.234-1.485q.214,0,3.1-.156v-9.453H599.9a13.206,13.206,0,0,0,.84-2.012l1.758.274q-.333.7-.957,1.738h5.488v6.8A19.354,19.354,0,0,0,608.906,3461.747Zm-3.379-3.086H597.3v1.836h8.222Zm0,4.824v-1.855H597.3v1.855ZM597.3,3464.6v2.109q2.46-.137,7.5-.488.449-.371.722-.625v-1Z"/>
    <path id="Path_824" data-name="Path 824" d="M617.63,3455.321l1.6.293q-.624,1.836-1.054,2.95h3.32v12.968H615.95v1.582h-1.367v-14.55h2.246A23.875,23.875,0,0,0,617.63,3455.321Zm2.519,8.75v-4.179h-4.2v4.179Zm-4.2,6.133h4.2V3465.4h-4.2Zm15.332-11.7v.762q-.234,7.031-.508,9.736a7.513,7.513,0,0,1-.859,3.428,2.118,2.118,0,0,1-1.582.8,20.382,20.382,0,0,1-2.969-.019,3.121,3.121,0,0,0-.508-1.445q1.309.117,2.969.117a.96.96,0,0,0,.82-.313,6.676,6.676,0,0,0,.753-3.095q.262-2.568.458-8.6h-5.078a17.558,17.558,0,0,1-1.875,3.516,9.7,9.7,0,0,0-1.211-.84,19.166,19.166,0,0,0,3.047-7.266l1.426.332q-.351,1.446-.859,2.891Zm-3.164,8.984-1.25.781a32.58,32.58,0,0,0-3.047-4.609l1.172-.683A38.591,38.591,0,0,1,628.118,3467.489Z"/>
    <path id="Path_825" data-name="Path 825" d="M639.185,3455.439l1.406.429a31.743,31.743,0,0,1-1.9,4.414V3473.6H637.27v-10.9a19.167,19.167,0,0,1-1.6,2.129,6.877,6.877,0,0,0-.859-1.445,18.649,18.649,0,0,0,2.47-3.565A25.8,25.8,0,0,0,639.185,3455.439Zm13.007,11.621H647.31a7.082,7.082,0,0,1-1.5,3.535,23.84,23.84,0,0,0,7.519,1.543,4.939,4.939,0,0,0-.879,1.386,22.187,22.187,0,0,1-7.7-1.914,12.892,12.892,0,0,1-4.434,2.09,6.1,6.1,0,0,0-.918-1.23,11.686,11.686,0,0,0,4.043-1.6,9.11,9.11,0,0,1-2.851-2.832l1.25-.469a8.125,8.125,0,0,0,2.7,2.383,5.509,5.509,0,0,0,1.328-2.89h-4.726v-7.54H646v-1.66H640.61v-1.347h12.266v1.347h-5.41v1.66h4.726Zm-9.668-6.387v2.07H646v-2.07Zm0,5.234h3.457q.02-.331.02-1.074v-1h-3.477Zm8.2,0v-2.07h-3.262v1a10.335,10.335,0,0,1-.039,1.074Zm0-5.234h-3.262v2.07h3.262Z"/>
    <path id="Path_826" data-name="Path 826" d="M661.912,3457.685v3.671h3.828v1.368h-3.828v1.445q1.777,1.388,3.77,3.184l-.879,1.23q-1.29-1.407-2.891-2.891v7.891h-1.445v-8.633a20.038,20.038,0,0,1-3.789,5.918,7.605,7.605,0,0,0-.821-1.387,15.929,15.929,0,0,0,2.383-3.007,22.367,22.367,0,0,0,1.934-3.75h-3.887v-1.368h4.18v-3.378q-2.071.371-3.848.625a3.64,3.64,0,0,0-.469-1.192,37.281,37.281,0,0,0,8.262-1.933l1.094,1.132A22.764,22.764,0,0,1,661.912,3457.685Zm6.6.058v10.938h-1.446v-10.938Zm3.437-1.992h1.484v15.879q0,1.386-.9,1.758a15.3,15.3,0,0,1-3.613.254,5.655,5.655,0,0,0-.528-1.5q2.227.059,3.028.019.527,0,.527-.508Z"/>
    <path id="Path_827" data-name="Path 827" d="M682.6,3471.767a1.736,1.736,0,0,1-2.285,0,1.505,1.505,0,0,1-.459-1.153,1.474,1.474,0,0,1,.468-1.123,1.682,1.682,0,0,1,2.266,0,1.474,1.474,0,0,1,.469,1.123A1.509,1.509,0,0,1,682.6,3471.767Zm-1.807-4.512-.469-7.754-.058-2.363h2.382l-.039,2.363-.488,7.754Z"/>
    <path id="Path_828" data-name="Path 828" d="M692.894,3472.353a6.338,6.338,0,0,1-4.649-1.934l.9-1.191a4.969,4.969,0,0,0,3.593,1.6,2.947,2.947,0,0,0,2.227-.947,3.5,3.5,0,0,0,.9-2.51,3.454,3.454,0,0,0-.83-2.451,2.892,2.892,0,0,0-2.217-.889,4.379,4.379,0,0,0-2.441.86l-.976-.586.468-6.875h7.129v1.562h-5.527l-.371,4.238a4.494,4.494,0,0,1,2.187-.566,4.428,4.428,0,0,1,3.184,1.172,4.583,4.583,0,0,1,1.23,3.477,4.866,4.866,0,0,1-1.416,3.671A4.706,4.706,0,0,1,692.894,3472.353Z"/>
    <path id="Path_829" data-name="Path 829" d="M705.249,3457.45l1.543.352a18.8,18.8,0,0,1-2.022,4.013,14.877,14.877,0,0,1-2.705,3.116,7.55,7.55,0,0,0-1.25-1.075,12.21,12.21,0,0,0,2.6-2.792A14.976,14.976,0,0,0,705.249,3457.45Zm-1.465,5.742h12.031c-.012.326-.026.56-.039.7q-.254,4.531-.547,6.485a5.164,5.164,0,0,1-.82,2.519,2.1,2.1,0,0,1-1.523.684,26.567,26.567,0,0,1-2.793-.039,2.727,2.727,0,0,0-.489-1.426q1.153.1,2.735.1a1.069,1.069,0,0,0,.8-.235q.742-.741,1.113-7.382h-5.137a14.4,14.4,0,0,1-2.168,5.517,10.888,10.888,0,0,1-4.082,3.506,5.982,5.982,0,0,0-1.152-1.152,9.21,9.21,0,0,0,3.818-3,12.071,12.071,0,0,0,1.963-4.873h-3.711Zm3.594-7.48h6.25a14.876,14.876,0,0,0,2.236,4.58,10.979,10.979,0,0,0,3.428,3.193,4.751,4.751,0,0,0-1.035,1.309,12.754,12.754,0,0,1-3.369-3.262,17.162,17.162,0,0,1-2.334-4.433h-5.176Z"/>
    <path id="Path_830" data-name="Path 830" d="M260.585,3510.165l.1,1.25q-1.271.293-3.809.83t-3.594.772l-.312-1.387q2.109-.352,3.3-.586v-6.074h-3.125v-1.289h3.125v-2.129h-2.051v-.9q-.274.274-.82.782a4.209,4.209,0,0,0-.919-.938,13.428,13.428,0,0,0,3.731-5.117h1.348a22.908,22.908,0,0,1,3.4,3.515l-1,1.133a18.8,18.8,0,0,0-2.891-3.3,20.067,20.067,0,0,1-2.519,3.554h5.234v1.27h-2.207v2.129h2.852v1.289h-2.852v5.8q.234-.037,1.328-.263T260.585,3510.165Zm-6.973-3.887,1.016-.234a13.032,13.032,0,0,1,.8,3.75l-1.094.293A14.882,14.882,0,0,0,253.612,3506.278Zm5.664,3.438-.976-.254a26.97,26.97,0,0,0,.82-3.594l1.153.293Q259.686,3508.428,259.276,3509.716Zm7.012,2.246h4.824v1.191H259.921v-1.191h5v-1.543h-3.906v-1.133h3.906V3508h-3.75v-5.84h9.1V3508h-3.985v1.289h4.043v1.133h-4.043Zm-4.043-13.867.84-.176h-2.324v-1.152h4.121v-1.348h1.406v1.348h4.317v1.152h-2.149l.664.2q-.429.9-1.015,1.934h2.988v1.172h-10.9v-1.172h2.813A10.843,10.843,0,0,0,262.245,3498.095Zm.137,5.058v1.426h2.539v-1.426Zm0,3.848h2.539v-1.445h-2.539Zm4.746-6.953-.273-.1a13.189,13.189,0,0,0,.937-2.031h-4.3a7.114,7.114,0,0,1,.859,1.992l-.468.137Zm1.875,4.531v-1.426h-2.715v1.426Zm0,2.422v-1.445h-2.715V3507Z"/>
    <path id="Path_831" data-name="Path 831" d="M285.005,3504.306l.8.234q-1.076,6.563-5.528,9.063a2.573,2.573,0,0,0-.781-1,8.722,8.722,0,0,0,3.438-3.339,12.653,12.653,0,0,0-1.641-1.387,7.863,7.863,0,0,1-.762.976,5.16,5.16,0,0,0-.859-.566v1.934h-3.535V3512h-1.289v-15.469h4.824v11.407a12.263,12.263,0,0,0,2.617-5.274l1.211.234c-.183.652-.326,1.133-.43,1.446h1.719Zm-6.641-6.465h-2.226v2.793h2.226Zm-2.226,4.062v2.793h2.226V3501.9Zm0,6.992h2.226v-2.929h-2.226Zm14.551-13.535.956.977a44.552,44.552,0,0,1-10.878,1.406,3.449,3.449,0,0,0-.332-1.094A43.506,43.506,0,0,0,290.689,3495.36Zm1.347,8.34h-1.309v-1.8H281.8v1.8h-1.289v-2.988h2.168a9.875,9.875,0,0,0-1.153-2.481l1.074-.488a8.5,8.5,0,0,1,1.27,2.481l-1.016.488h5.489l-.176-.078a21.447,21.447,0,0,0,1.855-3.34l1.29.527q-1.407,2.227-1.915,2.891h2.637Zm-7.676,1.778H282.6a14.536,14.536,0,0,1-.761,1.5,13.493,13.493,0,0,1,1.621,1.231A14.1,14.1,0,0,0,284.36,3505.478Zm8.106,3.691v1.23h-1.934v3.243h-1.289V3510.4h-4.336v-1.23h1.348v-4.082h2.988v-1.992h1.289v1.992h1.641v1.211h-1.641v2.871Zm-7.52-11.25,1.133-.469a8.464,8.464,0,0,1,1.035,2.6l-1.191.527A8.575,8.575,0,0,0,284.946,3497.919Zm2.461,11.25h1.836V3506.3h-1.836Z"/>
    <path id="Path_832" data-name="Path 832" d="M302.412,3505.3l-2.519.781v5.8a1.47,1.47,0,0,1-.7,1.484,8.58,8.58,0,0,1-2.657.235,4.21,4.21,0,0,0-.429-1.348q1.542.039,1.972,0a.328.328,0,0,0,.371-.371v-5.371l-2.734.82-.391-1.426q.781-.195,3.125-.859v-4.3H295.6V3499.4h2.851v-4.023h1.446v4.023h2.3v1.348h-2.3v3.867l2.324-.7Zm11.094-1.817h-3.691a31.834,31.834,0,0,0,.947,5.733q.615,2.12,1.455,2.158.567.039.742-2.832a3.391,3.391,0,0,0,1.074.762q-.45,3.828-1.816,3.828-1.622-.059-2.5-2.539a30.39,30.39,0,0,1-1.289-7.11h-3.965v5l1.865-.312q1.279-.215,1.943-.332l.1,1.328-3.7.654q-2.373.422-3.174.557l-.312-1.406c.169-.026.462-.069.878-.127s.743-.108.977-.147v-11.777l1.153.371a42.379,42.379,0,0,0,7.48-1.426l1.094,1.172a32.217,32.217,0,0,1-3.223.742q.059,2.247.176,4.317h3.789Zm-12.071,9.473v-1.367h7.872v1.367Zm3.028-10.859h3.847q-.135-1.719-.2-4.082-2.012.331-3.652.488Z"/>
    <path id="Path_833" data-name="Path 833" d="M321.754,3500.673l1.7.254q-1.5,9.122-5.39,12.754a6.866,6.866,0,0,0-1.211-1.075Q320.64,3509.189,321.754,3500.673Zm-.527-3.75h8.281q.234,2.715.625,4.922a35.089,35.089,0,0,0,1.035,4.287,15.805,15.805,0,0,0,1.641,3.682,9.677,9.677,0,0,0,2.324,2.617,7.951,7.951,0,0,0-1.445,1.191,13.046,13.046,0,0,1-3.741-5.928,42.169,42.169,0,0,1-1.806-9.209h-6.914Z"/>
    <path id="Path_834" data-name="Path 834" d="M342.6,3499.7l1.308.449a29.717,29.717,0,0,1-1.621,2.813v10.664H340.9v-8.691q-1.113,1.425-1.972,2.324a8.092,8.092,0,0,0-.918-1.309,19.716,19.716,0,0,0,2.5-2.851A23.8,23.8,0,0,0,342.6,3499.7Zm-.372-4.316,1.329.527a28.146,28.146,0,0,1-4.61,4.727,5.494,5.494,0,0,0-.84-1.074,22.44,22.44,0,0,0,2.3-2.022A14.492,14.492,0,0,0,342.227,3495.38Zm1.973,17.93-1.094-.782a5.793,5.793,0,0,0,1.817-3.476l1.23.371A6.992,6.992,0,0,1,344.2,3513.31Zm12.266-7.383v1.211h-7.774a13.32,13.32,0,0,1,3.262,1.777l-.8,1a13.671,13.671,0,0,0-3.359-1.933l.683-.84h-4.648v-1.211Zm-11.7-6.25h4.257q.1-.665.176-1.465h-5.312V3497h5.429q.02-.175.059-.791t.059-.908l1.523.078-.2,1.621h5.605v1.211h-5.742c-.026.208-.061.492-.107.85s-.076.563-.088.615h5.214v4.922H344.767Zm3.2,3.828v-2.735h-2.031v2.735Zm1.25,8.652h2.168a.526.526,0,0,0,.537-.283,4.8,4.8,0,0,0,.166-1.377,2.873,2.873,0,0,0,1.191.508,3.888,3.888,0,0,1-.459,1.894,1.467,1.467,0,0,1-1.259.489h-2.52a2.406,2.406,0,0,1-1.553-.352,1.853,1.853,0,0,1-.381-1.367v-2.715h1.367v2.695c0,.222.043.362.127.42A1.317,1.317,0,0,0,349.22,3512.157Zm1.933-8.652v-2.735h-2.089v2.735Zm1.094-2.735v2.735h2.129v-2.735Zm.547,8.575,1.094-.567a13.461,13.461,0,0,1,2.676,3.77l-1.172.625a11.168,11.168,0,0,0-1.065-1.885A15.829,15.829,0,0,0,352.794,3509.345Z"/>
    <path id="Path_835" data-name="Path 835" d="M366.686,3506.2l-.839,1.133q-.45-.937-1.758-3.027v9.3h-1.406v-9.3a19.9,19.9,0,0,1-2.52,5.566,5.318,5.318,0,0,0-.781-1.308,15.276,15.276,0,0,0,1.816-3.34,25.386,25.386,0,0,0,1.348-4.2h-2.793v-1.386h2.93v-4.278h1.406v4.278h2.324v1.386h-2.324v1.524q.41.508,1.347,1.826T366.686,3506.2Zm9.551-1.367,1.348.606a15.045,15.045,0,0,1-3.2,3.828,36.478,36.478,0,0,1,3.554,3.5l-1.191.918a30.108,30.108,0,0,0-3.418-3.536,22.363,22.363,0,0,1-6.582,3.458,5.2,5.2,0,0,0-.9-1.192,21.656,21.656,0,0,0,6.181-3.057A14.66,14.66,0,0,0,376.237,3504.833Zm-9.453-1.875.879-.977q.449.313,1.016.743a26.689,26.689,0,0,0,2.09-2.989h-4.3v-1.347h4.98v-2.969h1.465v2.969h4.824v1.347h-5.254l.078.039q-1.64,2.266-2.91,3.692,1.348,1.094,1.778,1.523a15.4,15.4,0,0,0,3.164-3.769l1.308.527a18.449,18.449,0,0,1-3.681,4.346,21.43,21.43,0,0,1-4.932,3.271,3.41,3.41,0,0,0-.938-1.094,18.626,18.626,0,0,0,3.965-2.343A30.639,30.639,0,0,0,366.784,3502.958Z"/>
    <path id="Path_836" data-name="Path 836" d="M382.785,3502.528l1.445.274q-.624,5.41-2.363,7.734l-1.328-.82Q382.3,3507.451,382.785,3502.528Zm3.34-1.621h1.5v10a1.139,1.139,0,0,0,.254.889,1.872,1.872,0,0,0,1.074.205h3.672a1.1,1.1,0,0,0,1.152-.772,14.849,14.849,0,0,0,.391-3.408,3.225,3.225,0,0,0,1.387.684,10.261,10.261,0,0,1-.7,3.877,2.234,2.234,0,0,1-2.148.986H388.84a3.271,3.271,0,0,1-2.158-.517,2.655,2.655,0,0,1-.557-1.963Zm.156-4.316.938-1.133a29.584,29.584,0,0,1,3.633,1.514,29.222,29.222,0,0,1,3.2,1.787l-.938,1.308a24.665,24.665,0,0,0-3.144-1.875A28.138,28.138,0,0,0,386.281,3496.591Zm8.106,5.937,1.308-.664a22.71,22.71,0,0,1,2.344,3.731,16.639,16.639,0,0,1,1.406,3.652l-1.445.684a16.94,16.94,0,0,0-1.367-3.662A23.823,23.823,0,0,0,394.387,3502.528Z"/>
    <path id="Path_837" data-name="Path 837" d="M409.685,3508.329l-.429-1.055q2.382-1,2.519-2.929a2.34,2.34,0,0,1-.351.019,1.58,1.58,0,0,1-1.074-.371,1.314,1.314,0,0,1-.43-1.054,1.334,1.334,0,0,1,.439-1.065,1.6,1.6,0,0,1,1.084-.381,1.46,1.46,0,0,1,1.25.615,2.821,2.821,0,0,1,.45,1.69,4.375,4.375,0,0,1-.928,2.783A5.421,5.421,0,0,1,409.685,3508.329Z"/>
    <path id="Path_838" data-name="Path 838" d="M426.7,3498.368v4.375q0,7.188-2.109,10.7a4.4,4.4,0,0,0-1.231-.761q1.934-3.183,1.934-9.942v-5.683H432.4v-1.68h1.465v1.68h7.6v1.308h-3.633v1.309h3.281v1h-3.281v2.285h-7.461v-2.285h-3.457v-1h3.457v-1.309Zm4.942,12.7,1.21.8a19.022,19.022,0,0,1-5.331,1.8,12.9,12.9,0,0,0-.9-.976,21.353,21.353,0,0,0,2.764-.7A12.879,12.879,0,0,0,431.644,3511.064Zm9.746-6.27h-6.68v.976h5.469v5.04H428.167v-5.04h5.156v-.976h-6.406v-1.035H441.39Zm-11.875,1.836v1.23h3.808v-1.23Zm0,2.07v1.25h3.808v-1.25Zm6.855-9.023v-1.309H431.8v1.309Zm0,2.343v-1.347H431.8v1.347Zm2.4,4.61H434.71v1.23h4.063Zm0,3.32v-1.25H434.71v1.25Zm-3.477,2.012,1.015-.84a44.867,44.867,0,0,1,5.293,1.68l-1.367.879A31.278,31.278,0,0,0,435.3,3511.962Z"/>
    <path id="Path_839" data-name="Path 839" d="M457.45,3512h5.332v1.152H445.2V3512h5.332a7.866,7.866,0,0,0-1-1.934l.488-.156h-2.265v-3.672h12.676v3.672H458.31l.39.137A14.843,14.843,0,0,1,457.45,3512Zm5.078-7.832v1.094H445.556v-1.094Zm-.859-8.3v7.305H446.356v-7.305h1.27v6.231h2.344v-1.035h-1.778v-.821h1.778v-.937h-1.5v-.821h1.5v-.918h-1.7v-.82h1.7v-1.074h.957v1.074h1.718v.82h-1.718v.918h1.562v.821h-1.562v.937h1.855v.821h-1.855v1.035h2.4v-6.739h1.309v6.739H457v-1.035h-1.836v-.821H457v-.937h-1.543v-.821H457v-.918h-1.719v-.82H457v-1.074h.976v1.074h1.739v.82h-1.739v.918h1.543v.821h-1.543v.937h1.856v.821h-1.856v1.035h2.383v-6.231Zm-12.52,11.348v1.7h9.844v-1.7Zm8.067,2.695h-6.27a6.5,6.5,0,0,1,1.035,1.953l-.449.137h4.883l-.371-.117A22.022,22.022,0,0,0,457.216,3509.911Z"/>
    <path id="Path_840" data-name="Path 840" d="M474.9,3509.638l-.878,1.093a26.891,26.891,0,0,0-2.266-2.226v5.078h-1.445v-5.273a15.412,15.412,0,0,1-3.34,3.867,4.871,4.871,0,0,0-1-1.074,10.471,10.471,0,0,0,2.168-1.924,15.327,15.327,0,0,0,1.855-2.588H466.4v-1.25h3.907v-2.11h-3.965v-1.25h9.277v1.25h-3.867v2.11h3.711v1.25h-3.711v.488q.567.411,1.68,1.319T474.9,3509.638Zm.489-12.188v1.25h-8.75v-1.25h3.672v-2.011h1.445v2.011Zm-5.547,4.16-1.231.352a10.662,10.662,0,0,0-.781-2.891l1.153-.293A9.166,9.166,0,0,1,469.838,3501.61Zm3.242.293-1.191-.273a14.49,14.49,0,0,0,1-2.891l1.367.313Q473.47,3501.122,473.08,3501.9Zm11.367.157v1.406H482.2V3513.5h-1.445v-10.039h-2.988v.488q0,6.6-3.184,9.766a2.8,2.8,0,0,0-.469-.557,3.549,3.549,0,0,0-.586-.478,8.41,8.41,0,0,0,1.5-1.983,8.551,8.551,0,0,0,.869-2.324,18.22,18.22,0,0,0,.352-2.207q.088-.985.088-2.236v-6.954l1.093.333a25.755,25.755,0,0,0,5.547-1.719l1.211,1.113a32.155,32.155,0,0,1-6.425,1.8v3.555Z"/>
    <path id="Path_841" data-name="Path 841" d="M504.883,3504.6h-7.149a10.926,10.926,0,0,0,8.164,7.675,4.315,4.315,0,0,0-1.015,1.387,11.656,11.656,0,0,1-4.971-2.695,13.24,13.24,0,0,1-3.135-4.785,9.825,9.825,0,0,1-2.656,4.287,15.14,15.14,0,0,1-5.683,3.193,3.232,3.232,0,0,0-.381-.683,3.058,3.058,0,0,0-.518-.606,18.524,18.524,0,0,0,3.555-1.611,9.755,9.755,0,0,0,2.392-1.944,9.32,9.32,0,0,0,1.368-2.041,8.715,8.715,0,0,0,.693-2.177h-7.012v-1.524H495.7q.039-.371.039-1.133v-3.515H487.93V3496.9h17.441v1.524H497.3v3.535q0,.743-.02,1.113h7.6Z"/>
    <path id="Path_842" data-name="Path 842" d="M512.857,3501.552v5.781q2.169-.918,2.286-.957l.292,1.328q-1.211.567-6.132,2.754l-.586-1.484q1.23-.411,2.734-1.075v-6.347h-2.558v-1.407h2.558v-4.55h1.406v4.55H515.2v1.407Zm6.7,10.293h4.824a1.128,1.128,0,0,0,1.113-.537,7.007,7.007,0,0,0,.371-2.315,3.339,3.339,0,0,0,1.348.586,6.158,6.158,0,0,1-.713,2.852,2.431,2.431,0,0,1-2.08.742h-4.9a3.675,3.675,0,0,1-2.334-.537,2.81,2.81,0,0,1-.616-2.139v-6.289l-1.582.645-.566-1.27,2.148-.918v-5.449h1.426v4.844l2.676-1.133v-5.567H522.1v4.981l2.636-1.113.313-.293.293-.215,1.035.39-.078.293a71.358,71.358,0,0,1-.2,7.481,2.113,2.113,0,0,1-.157.615.925.925,0,0,1-.371.42q-.255.156-.439.244a1.835,1.835,0,0,1-.615.117c-.288.02-.5.033-.635.039s-.381.01-.733.01a4.149,4.149,0,0,0-.351-1.269q.488.019,1.328.019a.582.582,0,0,0,.6-.527q.137-.684.137-5.879l-2.773,1.191v7.344H520.67v-6.758l-2.676,1.153v6.914a1.435,1.435,0,0,0,.293,1.064A2.05,2.05,0,0,0,519.557,3511.845Z"/>
    <path id="Path_843" data-name="Path 843" d="M537.745,3501.825a31.269,31.269,0,0,1,4.473,4.434l-1.348,1.133a31.564,31.564,0,0,0-4.414-4.434Z"/>
    <path id="Path_844" data-name="Path 844" d="M560.583,3496.864a18.626,18.626,0,0,1-3.428,4.112,23.67,23.67,0,0,1-4.775,3.466,3.94,3.94,0,0,0-.918-1.211,20.478,20.478,0,0,0,4.844-3.515,17.821,17.821,0,0,0,3.418-4.356h1.543a19.338,19.338,0,0,0,3.857,4.454,20.287,20.287,0,0,0,4.815,3.164,5.432,5.432,0,0,0-.977,1.328,25.115,25.115,0,0,1-4.746-3.33A19.281,19.281,0,0,1,560.583,3496.864Zm-4.277,5.567h1.523v2.793a15.073,15.073,0,0,1-.146,2.207,11.362,11.362,0,0,1-.567,2.138,6.637,6.637,0,0,1-1.357,2.2,10.01,10.01,0,0,1-2.364,1.875,4.178,4.178,0,0,0-1.171-1.055,9.712,9.712,0,0,0,2.2-1.67,5.649,5.649,0,0,0,1.25-1.934,9.549,9.549,0,0,0,.508-1.855,12.94,12.94,0,0,0,.127-1.924Zm7.07-.078h1.543v11.25h-1.543Z"/>
    <path id="Path_845" data-name="Path 845" d="M591.135,3507.353h-2.676v1.211h1.973v1.074h-1.973v2.656a1.828,1.828,0,0,1-.127.771.838.838,0,0,1-.5.4,8.564,8.564,0,0,1-2.266.176,3.921,3.921,0,0,0-.39-1.114,15.691,15.691,0,0,0,1.621,0c.169,0,.254-.091.254-.273v-2.617h-5.821v-1.074h5.821v-1.211h-14.18v-1.133h18.262Zm-1.192-3.633-1.23-.254q.156-.487.508-1.817H573.3v-1.093H589.65l.274-.039.976.195Q590.374,3502.587,589.943,3503.72Zm-8.73-5.078v-1.055H573.6v-1.055h7.617v-1.172h1.465v1.172h7.793v1.055h-7.793v1.055h6.269v1H575.041v-1Zm-.762,9.668v4.16h-4.629v.742h-1.328v-4.9Zm-5.82-3.868h6.6v-1.015h-5.039v-.879h11.446v.879h-4.981v1.015h6.68v.918H574.631Zm4.492,4.922h-3.3v2.071h3.3Zm2.852,1.133.976-.683a8.163,8.163,0,0,1,1.856,1.953l-1.016.781A8.3,8.3,0,0,0,581.975,3510.5Z"/>
    <path id="Path_846" data-name="Path 846" d="M610.145,3497.333l.918.43a15.432,15.432,0,0,1-2.911,5.312,13.192,13.192,0,0,0,4.551,2.949,4.794,4.794,0,0,0-.918,1.211,2.421,2.421,0,0,0-.322-.146l-.322-.127v6.582h-1.407v-.664h-5v.723h-1.386v-6.661q-.216.117-1.192.547a4.24,4.24,0,0,0-.722-1h-2.11v3.594q.858-.195,2.617-.625l.157,1.328q-.528.137-3.477.85t-4.2,1.025l-.274-1.445,1.016-.215v-6.836h1.27v6.562l1.543-.351v-8.086h-2.813V3496.2h6.465v5.293a13.768,13.768,0,0,0,3.613-6.133l1.426.332q-.138.391-.645,1.7h3.868Zm-13.653.156V3501h3.75v-3.516Zm5.313,7.7v.957a13.87,13.87,0,0,0,4.531-3.125,19.625,19.625,0,0,1-1.856-2.735,15.558,15.558,0,0,1-1.816,2.3,7.166,7.166,0,0,0-1.035-.879v.586h-2.305v2.891Zm2.441,1.23H610.2a15.274,15.274,0,0,1-2.949-2.363A16.194,16.194,0,0,1,604.246,3506.415Zm.488,5.137h5v-3.828h-5Zm4.493-12.852H605.4l-.2.371a16.247,16.247,0,0,0,1.992,3.008A13.338,13.338,0,0,0,609.227,3498.7Z"/>
    <path id="Path_847" data-name="Path 847" d="M633.255,3498.622h-3.75q-.312.645-1.152,2.09h4.238v11.074q0,1.289-.86,1.6a14.554,14.554,0,0,1-3.4.234,4.4,4.4,0,0,0-.488-1.445q1.776.078,2.851.019a.533.533,0,0,0,.352-.088.423.423,0,0,0,.1-.322v-9.766h-4.179v1.973c0,.2.032.32.1.371a.864.864,0,0,0,.468.078h1.758a.417.417,0,0,0,.43-.224,4.128,4.128,0,0,0,.136-1.1,2.607,2.607,0,0,0,1.153.469,3.064,3.064,0,0,1-.43,1.592,1.4,1.4,0,0,1-1.133.4h-2.07a2.184,2.184,0,0,1-1.4-.312,1.7,1.7,0,0,1-.341-1.25v-1.993h-2.383a4.852,4.852,0,0,1-1.055,2.842,5.745,5.745,0,0,1-3.008,1.494,3.037,3.037,0,0,0-.7-1.035,5.1,5.1,0,0,0,2.559-1.123,3.559,3.559,0,0,0,.879-2.178h-3.594V3513.6h-1.387v-12.891h3.907a14.16,14.16,0,0,0-.938-2.09h-3.809v-1.367h7.735v-1.875h1.5v1.875h7.91Zm-4.727,12.852H622.3v1.23h-1.309v-6.113h7.539Zm-6.074-10.762h4.258a18.271,18.271,0,0,0,1.055-2.09h-6.25A11.28,11.28,0,0,1,622.454,3500.712Zm4.707,7.051H622.3v2.558h4.863Z"/>
    <path id="Path_848" data-name="Path 848" d="M637.694,3496.239h16.6v17.383h-1.465v-.84H639.12v.84h-1.426Zm1.426,15.2h13.711v-13.829H639.12Zm12.734-7.422H649.2a7.393,7.393,0,0,0,2.95,2.324,3.062,3.062,0,0,0-.821.957,8.75,8.75,0,0,1-3.457-3.281h-3.613a10.875,10.875,0,0,1-.918,1.269h5.293v.43a6.136,6.136,0,0,1-.391,2.383,1.188,1.188,0,0,1-.9.351,13.428,13.428,0,0,1-1.6-.019,1.889,1.889,0,0,0-.273-.879q1.289.039,1.406.039a.649.649,0,0,0,.469-.137,3.336,3.336,0,0,0,.176-1.23h-3.653v2.832a.506.506,0,0,0,.215.488,2.427,2.427,0,0,0,.957.117h3.5q.546,0,.713-.273a3.376,3.376,0,0,0,.205-1.309,3.136,3.136,0,0,0,1.055.41,3.075,3.075,0,0,1-.449,1.729,1.811,1.811,0,0,1-1.387.42H644.96a3.751,3.751,0,0,1-1.836-.3,1.4,1.4,0,0,1-.469-1.26V3506a11.443,11.443,0,0,1-2.051,1.582,4.814,4.814,0,0,0-.82-.977,9.111,9.111,0,0,0,3.047-2.6h-2.7v-.977h3.359a10.9,10.9,0,0,0,.723-1.484h-2.051v-.782a7.616,7.616,0,0,1-1.094,1.133,4.323,4.323,0,0,0-.918-.683,7.9,7.9,0,0,0,2.344-2.813l1.055.293a9.2,9.2,0,0,1-1.211,1.9h2.226a21.981,21.981,0,0,0,.567-2.364l1.191.176a16.088,16.088,0,0,1-.527,2.188h4.082a14.662,14.662,0,0,0-1.582-1.641l.9-.508a13.005,13.005,0,0,1,2.637,2.949l-.957.586a8.954,8.954,0,0,0-.977-1.367v.938h-2.109a10.775,10.775,0,0,0,.723,1.484h3.339Zm-7.031-.977h2.52c-.261-.559-.469-1.055-.625-1.484h-1.25A12.575,12.575,0,0,1,644.823,3503.036Z"/>
    <path id="Path_849" data-name="Path 849" d="M673.617,3506.669h2.246a4.455,4.455,0,0,1-.058.625q-.2,2.813-.43,4.1a3.516,3.516,0,0,1-.645,1.719,1.7,1.7,0,0,1-1.132.508q-1.115.039-2.051-.019a2.492,2.492,0,0,0-.332-1.192q.762.059,1.738.059a.769.769,0,0,0,.586-.176q.508-.546.82-4.316h-12.3a12.1,12.1,0,0,1-2.735,5.292,3.687,3.687,0,0,0-1.093-.937q2.988-3.183,2.988-9.375V3500.3h5.644a7.89,7.89,0,0,0-1-2.422l1.27-.332a7.518,7.518,0,0,1,1.094,2.48l-.84.274h4.785q-.1,1.054-.41,3.183h2.285Q673.656,3506.4,673.617,3506.669Zm-2.3-9.1,1.132-.664q-4.746.586-10.2.8a16.507,16.507,0,0,1-2.617,4.316,6.325,6.325,0,0,0-1.231-.878,13.407,13.407,0,0,0,2.832-4.844l1.055.254a88.773,88.773,0,0,0,10.918-1l1.094,1.054q-1.037.177-1.817.274a18.589,18.589,0,0,1,3.282,3.828l-1.211.781a13.768,13.768,0,0,0-1.387-1.953A19.664,19.664,0,0,0,671.313,3497.567Zm-8.555,15.957-1.094-.6a6.636,6.636,0,0,0,1.7-3.828l1.153.332A7.358,7.358,0,0,1,662.758,3513.524Zm9.765-8.808h-9.98a18.913,18.913,0,0,1-.234,1.953h9.921Q672.329,3506.083,672.523,3504.716Zm-1.855-3.164H662.6v1.933H670.4Q670.571,3502.489,670.668,3501.552Zm-5,7.949,1.074-.117a13.672,13.672,0,0,1,.41,3.457L666,3513A12.457,12.457,0,0,0,665.668,3509.5Zm2.52-.117,1-.254a9.541,9.541,0,0,1,1.035,3.066l-1.074.274A10.678,10.678,0,0,0,668.188,3509.384Zm4.746,1.7-.957.391a9.552,9.552,0,0,0-1.387-2.481l.918-.351A8.11,8.11,0,0,1,672.934,3511.083Z"/>
    <path id="Path_850" data-name="Path 850" d="M684.815,3505.5l.722.215a12.86,12.86,0,0,1-1.836,4.922,8.917,8.917,0,0,1-3.222,3.027,4.139,4.139,0,0,0-.743-1.016,7.885,7.885,0,0,0,2.969-2.617,11.268,11.268,0,0,0-1.816-1.347,5.378,5.378,0,0,1-.7.82q-.43-.39-.917-.762a11.1,11.1,0,0,0,2.812-4.941l1.133.254q-.216.723-.528,1.484H684.6Zm0-1.406v-3.36a14.868,14.868,0,0,1-4.493,3.34,5.148,5.148,0,0,0-.859-1,13.586,13.586,0,0,0,4.551-3.047h-4.2v-1.211h5v-3.4h1.347v3.4h4.551v1.211h-4.551v.137q3.125,1.446,4.278,2.051l-.645,1.152q-.762-.546-3.633-2.09v2.813Zm-1.211-5.957-1.153.566a9.867,9.867,0,0,0-1.445-2.48l1.094-.469A9.63,9.63,0,0,1,683.6,3498.134Zm.6,8.476h-2.031q-.469.861-.664,1.172a12.68,12.68,0,0,1,1.8,1.231A11.366,11.366,0,0,0,684.209,3506.61Zm5.469.157v2.675h1.328v1.172h-1.328v2.989h-1.192v-2.989h-1.992q-.1.645-.176,1.016l-1.093-.078q.371-1.875.605-4.024l1.094.039c-.026.235-.069.577-.127,1.026s-.095.732-.107.849h1.8v-2.675h-2.7v-1.172h2.7v-1.719h1.192v1.719h1.172v1.172Zm-.938-11.192,1.289.586a29.472,29.472,0,0,1-1.875,2.461l-.976-.527A12.8,12.8,0,0,0,688.74,3495.575Zm8.047.7,1.016.625q-1.407,3.615-2.481,6.016a7.054,7.054,0,0,1,2.246,4.844,3.858,3.858,0,0,1-.488,2.148,2.076,2.076,0,0,1-1.66.82,10.8,10.8,0,0,1-1.68.039,2.931,2.931,0,0,0-.39-1.386,9.823,9.823,0,0,0,1.5.039,1.841,1.841,0,0,0,.8-.215q.507-.351.508-1.582a6.577,6.577,0,0,0-2.266-4.531q.684-1.563,2.071-5.391h-3.145v15.9h-1.406v-17.266h5.137Z"/>
    <path id="Path_851" data-name="Path 851" d="M708.354,3508.329l-.429-1.055q2.383-1,2.519-2.929a2.339,2.339,0,0,1-.351.019,1.58,1.58,0,0,1-1.074-.371,1.314,1.314,0,0,1-.43-1.054,1.334,1.334,0,0,1,.439-1.065,1.6,1.6,0,0,1,1.084-.381,1.46,1.46,0,0,1,1.25.615,2.815,2.815,0,0,1,.449,1.69,4.374,4.374,0,0,1-.927,2.783A5.415,5.415,0,0,1,708.354,3508.329Z"/>
    <path id="Path_852" data-name="Path 852" d="M262.636,3537.255h7.969v1.309H253.378v-1.309h7.754v-1.895h1.5Zm7.207,7.773v6.836a2.226,2.226,0,0,1-.176.977,1.109,1.109,0,0,1-.625.527,15.041,15.041,0,0,1-3.359.215,5,5,0,0,0-.469-1.387q2.168.059,2.754,0a.5.5,0,0,0,.322-.078.381.381,0,0,0,.088-.293v-5.547H255.663v7.344h-1.406v-8.594Zm-13.184-5.351h10.684v4.082H256.659Zm9.219,3.008v-1.954h-7.813v1.954Zm-.1,9.1h-6.25v1H258.2v-5.215h7.578Zm-1.328-3.144H259.53v2.031h4.922Z"/>
    <path id="Path_853" data-name="Path 853" d="M278.95,3548.544l2.09-.469.156,1.289q-1.172.294-3.506.86t-3.291.82l-.351-1.484q1.113-.2,4.258-.879l-.547-.137a51.278,51.278,0,0,0,1.093-7.227l1.368.293Q279.554,3546.083,278.95,3548.544Zm1.758-9.18v1.328h-6.289v-1.328h2.52v-3.75h1.347v3.75Zm-3.887,8.535-1.211.2a34.9,34.9,0,0,0-.722-6.446l1.113-.175A30.966,30.966,0,0,1,276.821,3547.9Zm15.606-4h-5.02q-.255.82-.605,1.856H292v6.484q0,.957-.488,1.172a4.876,4.876,0,0,1-1.856.235,4.488,4.488,0,0,0-.449-1.211,9.194,9.194,0,0,0,1.25,0,.168.168,0,0,0,.215-.215v-5.176h-1.855v6.328h-1.172v-6.328h-1.856v6.367h-1.152v-6.367h-1.8v6.563h-1.309v-7.852h3.828q.294-1.191.391-1.856h-4.863v-1.308h11.543Zm-.7-7.539v4.727h-9.961v-4.727h1.367v3.4h2.754V3535.4h1.426v4.356h3.007v-3.4Z"/>
    <path id="Path_854" data-name="Path 854" d="M301.924,3536.669v13.047h-4.3v1.621H296.26v-14.668Zm-1.406,1.348h-2.891v4.433h2.891Zm-2.891,10.371h2.891v-4.629h-2.891Zm16.25-5.469h-2.539v2.266h2.324v1.308h-2.324v5.371q0,1.21-.82,1.5a13.223,13.223,0,0,1-3.243.235,3.88,3.88,0,0,0-.468-1.387q1.973.058,2.656.019a.614.614,0,0,0,.342-.1.386.386,0,0,0,.088-.293v-5.352h-7.559v-1.308h7.559v-2.266h-7.657v-1.328h5.02v-2.539H303.1v-1.309h4.16v-2.383h1.465v2.383h4.3v1.309h-4.3v2.539h5.156Zm-10.312,4.961,1.191-.684a13,13,0,0,1,2.6,3.4l-1.25.8a11.444,11.444,0,0,0-1.075-1.738A17.363,17.363,0,0,0,303.565,3547.88Z"/>
    <path id="Path_855" data-name="Path 855" d="M334.605,3540.419l-1.093.9v10.528a2.333,2.333,0,0,1-.176,1.015,1.114,1.114,0,0,1-.645.528,12.35,12.35,0,0,1-3.261.254,3.6,3.6,0,0,0-.489-1.446q1.231.039,2.7.039a.553.553,0,0,0,.342-.107.458.458,0,0,0,.087-.322v-9.2h-12.05v11.036h-1.465V3541.3a1.875,1.875,0,0,1-.225.137,1.761,1.761,0,0,0-.224.136,6.486,6.486,0,0,0-1.094-1.035,16.72,16.72,0,0,0,2.656-1.933,11.056,11.056,0,0,0,1.992-2.208l1.524.547a16.783,16.783,0,0,1-4.492,4.258h6.484v-5.84h1.5v5.84h6.5a28.56,28.56,0,0,0-4.434-4.082l1.192-.84A26.518,26.518,0,0,1,334.605,3540.419Zm-4.96,9.824h-5.918v1.25h-1.348v-6.933h7.266Zm-1.348-4.433h-4.57v3.125h4.57Z"/>
    <path id="Path_856" data-name="Path 856" d="M345.743,3541.825a31.271,31.271,0,0,1,4.473,4.434l-1.348,1.133a31.565,31.565,0,0,0-4.414-4.434Z"/>
    <path id="Path_857" data-name="Path 857" d="M369.44,3551.806h7.891v1.308H360.007v-1.308h7.91v-2.168h-5.586v-1.192h5.586v-1.894h-4.9a17.948,17.948,0,0,1-2.051,2.226,5.254,5.254,0,0,0-1.27-.937,11.774,11.774,0,0,0,2.09-2.061,12.361,12.361,0,0,0,1.582-2.529l1.445.41q-.234.489-.9,1.621h4v-1.6h1.523v1.6h6.641v1.27H369.44v1.894h5.821v1.192H369.44Zm5.86-15.625v7.05H362.058v-7.05Zm-1.5,2.929v-1.738H363.523v1.738Zm0,2.93v-1.777H363.523v1.777Z"/>
    <path id="Path_858" data-name="Path 858" d="M381.867,3546.708l1.289.234a16.438,16.438,0,0,1-1.426,5.078,3.815,3.815,0,0,0-1.152-.566A13.3,13.3,0,0,0,381.867,3546.708Zm5.274-1.5-1.817.117v8.34h-1.308v-8.242q-2.052.1-3.145.176l-.117-1.309,1.309-.058q.41-.509,1.328-1.856a17.441,17.441,0,0,0-2.578-2.832l.761-.957c.13.1.325.273.586.508a23.61,23.61,0,0,0,1.8-3.711l1.289.527a41.135,41.135,0,0,1-2.246,4,16.069,16.069,0,0,1,1.152,1.309,40.045,40.045,0,0,0,2.012-3.575l1.27.547a60.284,60.284,0,0,1-3.985,5.957q.918-.039,3.164-.156a17.227,17.227,0,0,0-.918-1.758l1.035-.41a13.679,13.679,0,0,1,1.875,4.082l-1.093.488Q387.413,3546.005,387.141,3545.2Zm10.664-3.027.9.371a16.194,16.194,0,0,1-3.242,7.187,10.686,10.686,0,0,0,3.828,2.735,4.823,4.823,0,0,0-.937,1.191,12.3,12.3,0,0,1-3.829-2.891,13.477,13.477,0,0,1-4.043,2.774,4.111,4.111,0,0,0-1-1.133,12.7,12.7,0,0,0,4.161-2.734,20.068,20.068,0,0,1-2.676-5.664,17.152,17.152,0,0,1-3.262,9.57,4.613,4.613,0,0,0-1.113-.8,12.832,12.832,0,0,0,1.621-2.676l-1,.352a15.634,15.634,0,0,0-1.192-3.555l1.094-.351a16.306,16.306,0,0,1,1.192,3.32,22.994,22.994,0,0,0,1.464-8.945V3538h-2.031v-1.348h7.637l.254-.078,1.015.137q-.254,2.637-.664,5.508h1.563Zm-2.676-4.18h-4.043v2.93q0,.84-.02,1.289h3.5Q394.914,3539.951,395.129,3538Zm1.894,5.547H392.18a17,17,0,0,0,2.383,5.1A13.782,13.782,0,0,0,397.023,3543.544Z"/>
    <path id="Path_859" data-name="Path 859" d="M420.31,3548.564h-7.421a6.5,6.5,0,0,0,2.871,2.548,14.339,14.339,0,0,0,4.844,1.182,3.98,3.98,0,0,0-.919,1.348,13.531,13.531,0,0,1-5.263-1.622,7.762,7.762,0,0,1-3.076-3.456h-.1a6.562,6.562,0,0,1-2.685,3.242,15.352,15.352,0,0,1-5.655,1.816,3.381,3.381,0,0,0-.762-1.308,16.363,16.363,0,0,0,4.981-1.387,5.493,5.493,0,0,0,2.461-2.363H402.4v-1.309h7.7a14.084,14.084,0,0,0,.312-1.836h-7.871v-1.367h8.008v-1.66h-6.211V3541.1h6.211v-1.622h-7.207v-1.347h4.043a8.292,8.292,0,0,0-1.5-2.266l1.289-.527a7.464,7.464,0,0,1,1.738,2.5l-.644.293h5.957l-.723-.254a19.379,19.379,0,0,0,1.719-2.539l1.5.449a17.5,17.5,0,0,1-1.8,2.344h4.414v1.347h-7.305v1.622h6.426v1.289h-6.426v1.66h8.086v1.367h-8.164a15.266,15.266,0,0,1-.312,1.836h8.671Z"/>
    <path id="Path_860" data-name="Path 860" d="M429.515,3540.536v-.976a27.79,27.79,0,0,1-5.2,3.164,4.973,4.973,0,0,0-.879-1.211,23.933,23.933,0,0,0,4.825-2.793,16.153,16.153,0,0,0,3.5-3.379h1.465a20.639,20.639,0,0,0,4,3.467,22.759,22.759,0,0,0,4.727,2.49,12.786,12.786,0,0,0-.957,1.308,28.264,28.264,0,0,1-5.2-3.066v1Zm10.136,6.719,1.153.781a37.8,37.8,0,0,1-4.707,2.578,15.943,15.943,0,0,0,5.605,1.739,3.969,3.969,0,0,0-.9,1.289q-6.544-1.115-8.985-5.508H428.44v3.594l5.176-.508.02,1.269q-7.324.82-8.672.957l-.235-1.367,2.266-.215v-10.215h11.348v6.485Q438.87,3547.822,439.651,3547.255Zm-2.773-4.492H428.44v1.543h8.438Zm-8.438,2.6V3547h8.438v-1.641Zm1.192-5.9h6.054a20.089,20.089,0,0,1-3.105-2.793A19.032,19.032,0,0,1,429.632,3539.462Zm8.691,8.672h-4.98a7.79,7.79,0,0,0,1.7,1.777A32.148,32.148,0,0,0,438.323,3548.134Z"/>
    <path id="Path_861" data-name="Path 861" d="M452.411,3541.825a31.271,31.271,0,0,1,4.473,4.434l-1.348,1.133a31.565,31.565,0,0,0-4.414-4.434Z"/>
    <path id="Path_862" data-name="Path 862" d="M468.451,3549.442l1.27.313a11.428,11.428,0,0,1-2.4,3.3,7.125,7.125,0,0,0-1.093-.762A8.511,8.511,0,0,0,468.451,3549.442Zm9.18-6.8v1.153H466.3v-1.153h5v-1.25H467.67v-5.273h8.809v5.273H472.67v1.25Zm-1.309,6.29H472.67v3.281q0,.976-.645,1.191a7.9,7.9,0,0,1-2.363.215,4.234,4.234,0,0,0-.547-1.211q1.407.059,1.9.02a.393.393,0,0,0,.234-.049.236.236,0,0,0,.059-.186v-3.261h-3.457v-3.965h8.476Zm-7.343-11.875v1.23h6.113v-1.23Zm0,2.148v1.25h6.113v-1.25Zm.156,6.816v1.856h5.82v-1.856Zm14.14.8,1.407.528a14.465,14.465,0,0,1-2.979,3.584,17.168,17.168,0,0,1-4.033,2.666,5.729,5.729,0,0,0-1.016-1.172l-.644.351a13.167,13.167,0,0,0-2.09-2.754l1.133-.566a15.412,15.412,0,0,1,2.129,2.7,15.827,15.827,0,0,0,3.535-2.324A12.1,12.1,0,0,0,483.275,3546.825Zm-1.054-11.113,1.406.566a18.147,18.147,0,0,1-5.234,4.532,6.041,6.041,0,0,0-1.094-1.036,17.069,17.069,0,0,0,2.744-1.835A11.837,11.837,0,0,0,482.221,3535.712Zm.527,5.488,1.387.586a18.267,18.267,0,0,1-2.608,2.627,21.111,21.111,0,0,1-3.037,2.139,6.253,6.253,0,0,0-1.094-1.035,17.962,17.962,0,0,0,2.979-1.953A13.34,13.34,0,0,0,482.748,3541.2Z"/>
    <path id="Path_863" data-name="Path 863" d="M500.371,3541.825h5.156v1.348H487.813v-1.348h5.058a8.894,8.894,0,0,0-1.172-2.988l1.426-.293a8.709,8.709,0,0,1,1.27,3.008l-1.016.273h6.465l-.9-.254a16.181,16.181,0,0,0,1.348-3.047H488.965v-1.347h6.894v-1.817h1.524v1.817h7.148v1.347h-3.945l1.348.313Q500.568,3541.513,500.371,3541.825Zm-9.629,11.817v-8.75h12.11v8.691h-1.543v-.684h-9.082v.743Zm10.567-7.461h-9.082v2.089h9.082Zm-9.082,5.429h9.082v-2.148h-9.082Z"/>
    <path id="Path_864" data-name="Path 864" d="M509.029,3542.548l-.156-1.153q.566-.037,1.231-.058a1.7,1.7,0,1,0-.958-3.262l.743-.781c.117.091.318.241.6.449a15.92,15.92,0,0,0,1.446-2.285l1.035.469q-1.173,1.66-1.778,2.363a7.335,7.335,0,0,1,.86.8,17.844,17.844,0,0,0,1.328-1.836l1.055.488a38.061,38.061,0,0,1-3.008,3.5l1.914-.136a5.928,5.928,0,0,0,.566-1.387l1.153.176a8.209,8.209,0,0,1-5.176,5.468,3.4,3.4,0,0,0-.332-.5,2.53,2.53,0,0,0-.411-.439,8.433,8.433,0,0,0,3.477-2.246Zm15.547,7.109.977.684a22.388,22.388,0,0,1-3.282,1.523,25.542,25.542,0,0,0,4.747.7,3.272,3.272,0,0,0-.743,1.133,17.532,17.532,0,0,1-6.992-1.855v.82q-7.755.663-8.144.7l-.254-1.191,2.031-.117v-5.7q-1.779.625-3.262,1a3.479,3.479,0,0,0-.664-1.055,27.814,27.814,0,0,0,4.785-1.475,13.738,13.738,0,0,0,3.516-1.982H518.5a16.318,16.318,0,0,0,3.975,2.012,26.543,26.543,0,0,0,4.716,1.23,7.56,7.56,0,0,0-.742,1.113,24.231,24.231,0,0,1-3.125-.84v3.965Q523.872,3550.068,524.576,3549.657Zm-8.926-3.965v-.488a24.6,24.6,0,0,1-2.675,1.133h10.273a21.248,21.248,0,0,1-3.008-1.211v.566Zm-1.425,1.446v.84H522v-.84Zm0,1.6v.918H522v-.918Zm0,1.739v1.5q.819-.059,2.451-.185t2.256-.166a6.442,6.442,0,0,1-1.485-1.152Zm2.109-7.833v.84h-1.211v-7.226h1.992a8.653,8.653,0,0,0,.274-.918l1.269.137a5.885,5.885,0,0,1-.41.781h2.461v3.555h-4.375v.644h4.492v.781h-4.492v.625h4.609v.781Zm-.1,2.247h3.555a13.633,13.633,0,0,1-1.816-1.094A14.345,14.345,0,0,1,516.236,3544.892Zm3.262-7.852h-3.164v.664H519.5Zm-3.164,1.992H519.5v-.625h-3.164Zm6.68,11.446h-3.985a8.183,8.183,0,0,0,1.817.917Q521.9,3551.005,523.014,3550.478Zm1.816-8.2a1.011,1.011,0,0,0,.684-.2.727.727,0,0,0,.215-.615q-.021-.8-1.68-2.031.741-1.407,1.191-2.363h-2.285v7.148h-1.25V3536h4.121l.215-.059.879.449q-.528,1.036-1.582,2.813,1.6,1.329,1.621,2.383a1.639,1.639,0,0,1-.449,1.211,1.807,1.807,0,0,1-1.172.508,8.388,8.388,0,0,1-1.5.019,2.142,2.142,0,0,0-.391-1.094A8.275,8.275,0,0,0,524.83,3542.274Z"/>
    <path id="Path_865" data-name="Path 865" d="M548.1,3548.095h-3.711a7.5,7.5,0,0,1-2.266,2.7,39.346,39.346,0,0,1,5.2,1.8l-1.171,1.074a35.862,35.862,0,0,0-5.489-1.953q-3.027,1.5-9.277,1.934a3.875,3.875,0,0,0-.527-1.289,29.592,29.592,0,0,0,7.753-1.172q-2.226-.547-3.906-.84l-.39.41-1.368-.371q.861-.918,2.071-2.285h-4.492v-1.289H536.1l.5-.616q.34-.419.5-.634h-3.282v-5.879h11.016v5.879H538.9c-.118.143-.3.358-.538.644s-.407.489-.5.606H548.1Zm-15.84-9.9v2.383h-1.406V3536.9h7.675v-1.543h1.5v1.543h7.813v3.672h-1.485v-2.383Zm2.949,2.481v1.426h8.184v-1.426Zm0,2.4v1.445h8.184v-1.445Zm7.539,5.02h-6q-.312.39-1.094,1.25,2.091.351,4.766,1A6.621,6.621,0,0,0,542.745,3548.095Z"/>
    <path id="Path_866" data-name="Path 866" d="M559.079,3541.825a31.269,31.269,0,0,1,4.473,4.434l-1.348,1.133a31.564,31.564,0,0,0-4.414-4.434Z"/>
    <path id="Path_867" data-name="Path 867" d="M582.795,3551.552H590.9V3553H573.166v-1.445h8.1v-5.078h-5.937v-1.426h5.937v-4.375h-4.706a17.131,17.131,0,0,1-2.09,3.262,6.48,6.48,0,0,0-1.348-.879,17.512,17.512,0,0,0,3.711-7.364l1.5.332a26.773,26.773,0,0,1-1.133,3.2h4.062v-3.848h1.524v3.848h7.168v1.445h-7.168v4.375h6.426v1.426h-6.426Z"/>
    <path id="Path_868" data-name="Path 868" d="M595.438,3542.1l-.274.312a3.079,3.079,0,0,0-1.035-.859,15.534,15.534,0,0,0,2.988-6.192l1.367.176q-.215.821-.488,1.621h2.5l.254-.078.879.586a20.481,20.481,0,0,1-1.445,2.715h2.6v7.7h-7.343Zm-.313,11.543-1-.606a6.854,6.854,0,0,0,1.484-4.082l1.075.293Q596.316,3552.432,595.125,3553.642Zm4.727-15.313h-2.3a20.353,20.353,0,0,1-1,2.051H598.8A13.121,13.121,0,0,0,599.852,3538.329Zm-3.184,5.293h1.816v-2.012h-1.816Zm1.816,1.152h-1.816v2.071h1.816Zm-1.054,4.317,1.015-.117a15.132,15.132,0,0,1,.313,3.691l-1.094.137A17.092,17.092,0,0,0,597.43,3549.091Zm1.855.039.977-.215a12.706,12.706,0,0,1,.937,3.477l-1.035.253A11.663,11.663,0,0,0,599.285,3549.13Zm2.207-5.508v-2.012h-1.875v2.012Zm0,3.223v-2.071h-1.875v2.071Zm-.234,2.09.937-.352a13.671,13.671,0,0,1,1.621,3.613l-1.015.41A15.858,15.858,0,0,0,601.258,3548.935Zm11.25-1.719v1.308h-4.18v5.079h-1.445v-5.079h-3.789v-1.308h3.789v-2.754h-3.164v-1.328h3.164v-2.578h-3.574v-1.309h1.914a14.366,14.366,0,0,0-1.348-3.437l1.191-.411a13.007,13.007,0,0,1,1.485,3.5l-.879.352h3.75l-.938-.312a15.785,15.785,0,0,0,1.5-3.575l1.5.391q-1.464,3.029-1.758,3.5h2.3v1.309h-3.711v2.578h3.36v1.328h-3.36v2.754Z"/>
    <path id="Path_869" data-name="Path 869" d="M621.614,3545.165l-2.168.723v6.015q0,1.152-.683,1.465a7.193,7.193,0,0,1-2.481.254,5.442,5.442,0,0,0-.449-1.367q1.484.039,1.9,0a.281.281,0,0,0,.332-.352v-5.586l-2.383.782-.371-1.446q.234-.059,2.754-.82v-4.1h-2.5v-1.347h2.5v-4h1.386v4h2.129v1.347h-2.129v3.692q.391-.117,1.114-.361c.481-.163.768-.257.859-.284Zm11.934,1.25h-4.18a13.577,13.577,0,0,0,2.158,2.764,11.526,11.526,0,0,0,2.666,2.041,4.454,4.454,0,0,0-1.015,1.113,12.533,12.533,0,0,1-2.559-2.178,17.475,17.475,0,0,1-2.187-2.92v6.27h-1.407v-6.25a15.4,15.4,0,0,1-2.353,2.959,12.874,12.874,0,0,1-2.842,2.158,4.517,4.517,0,0,0-1.035-1.152,11.49,11.49,0,0,0,2.939-2,12.967,12.967,0,0,0,2.334-2.8h-4.1v-1.309h5.058v-2.148h1.407v2.148h5.117Zm-1.914-10.742,1.074,1.133a36.057,36.057,0,0,1-8.086,1.211,15.176,15.176,0,0,1-2.207,5.234,6.342,6.342,0,0,0-1.133-.781,9.942,9.942,0,0,0,1.348-2.715,17.527,17.527,0,0,0,.762-3.164l1.211.215A33.224,33.224,0,0,0,631.634,3535.673Zm-2.949,6.367-1.407.391a12.93,12.93,0,0,0-1.035-3.75l1.289-.313A12.377,12.377,0,0,1,628.685,3542.04Zm1.328-3.926,1.211-.449a21,21,0,0,1,2.6,4.531l-1.308.547A20.8,20.8,0,0,0,630.013,3538.114Z"/>
    <path id="Path_870" data-name="Path 870" d="M642.987,3550.595l1.348.625a24.783,24.783,0,0,1-6.172,2.461,7.457,7.457,0,0,0-1.113-1.114A21.111,21.111,0,0,0,642.987,3550.595Zm-4.589-14.3h15.351v4.394H638.4Zm1.171,5.566h13.047v8.555H639.569Zm.2-4.414v2.09h3.222v-2.09Zm1.269,5.449v1.485h10.059V3542.9Zm0,2.481v1.484h10.059v-1.484Zm0,2.461v1.543h10.059v-1.543Zm3.242-10.391v2.09h3.34v-2.09Zm3.379,13.985,1.153-.821a58.21,58.21,0,0,1,6.23,2.246l-1.562.8A41.167,41.167,0,0,0,647.655,3551.435Zm1.231-13.985v2.09h3.457v-2.09Z"/>
    <path id="Path_871" data-name="Path 871" d="M659.34,3544.5a1.328,1.328,0,1,1,2.656,0,1.262,1.262,0,0,1-.381.928,1.367,1.367,0,0,1-1.894,0A1.262,1.262,0,0,1,659.34,3544.5Zm6.66,0a1.267,1.267,0,0,1,.391-.947,1.344,1.344,0,0,1,1.875,0,1.333,1.333,0,0,1,.009,1.875,1.367,1.367,0,0,1-1.894,0A1.262,1.262,0,0,1,666,3544.5Zm6.66,0a1.328,1.328,0,1,1,2.656,0,1.258,1.258,0,0,1-.381.928,1.367,1.367,0,0,1-1.894,0A1.262,1.262,0,0,1,672.66,3544.5Z"/>
    <path id="Path_872" data-name="Path 872" d="M692.119,3552h5.332v1.152H679.873V3552h5.332a7.865,7.865,0,0,0-1-1.934l.488-.156h-2.265v-3.672h12.675v3.672h-2.128l.39.137A14.843,14.843,0,0,1,692.119,3552Zm5.078-7.832v1.094H680.225v-1.094Zm-.859-8.3v7.305H681.025v-7.305h1.27v6.231h2.344v-1.035h-1.778v-.821h1.778v-.937h-1.5v-.821h1.5v-.918h-1.7v-.82h1.7v-1.074h.957v1.074h1.719v.82H685.6v.918h1.562v.821H685.6v.937h1.855v.821H685.6v1.035H688v-6.739h1.309v6.739h2.363v-1.035h-1.836v-.821h1.836v-.937h-1.543v-.821h1.543v-.918h-1.719v-.82h1.719v-1.074h.976v1.074h1.739v.82h-1.739v.918h1.544v.821h-1.544v.937H694.5v.821h-1.856v1.035h2.383v-6.231Zm-12.52,11.348v1.7h9.844v-1.7Zm8.067,2.695h-6.27a6.5,6.5,0,0,1,1.035,1.953l-.449.137h4.883l-.371-.117A21.774,21.774,0,0,0,691.885,3549.911Z"/>
    <path id="Path_873" data-name="Path 873" d="M716.636,3542.7l1.347.215a22.751,22.751,0,0,1-2.382,6.5q.838,2.91,1.894,2.91c.222-.013.384-.2.488-.547a9.988,9.988,0,0,0,.235-1.972,2.293,2.293,0,0,0,1.055.664,6.274,6.274,0,0,1-.557,2.548,1.452,1.452,0,0,1-1.318.616q-1.623,0-2.676-2.852a14.193,14.193,0,0,1-2.774,2.871,4.716,4.716,0,0,0-1.094-.918,12.213,12.213,0,0,0,1.661-1.406H708v1.152H706.87V3542.7h5.918v1.016h-2.07v1.406h2.07v3.711h-2.07v1.465h2.246v.586a11.417,11.417,0,0,0,1.269-1.739,41.063,41.063,0,0,1-.976-7.695h-7.4v4.2q0,5.391-1.425,8.008a4.286,4.286,0,0,0-1.133-.644,12.043,12.043,0,0,0,1.23-5.215H703.12v.918a7.252,7.252,0,0,1-1.465,4.9,3.8,3.8,0,0,0-.9-.625,6.711,6.711,0,0,0,1.23-4.316v-.879h-1.093v-1.25h3.71v-1.66h-1.679v.644h-1.152v-5.254h1.152v3.379H704.6v-3.476H713.2l-.019-.723h-.7v-1.445h-5.02v1.406h-1.465v-1.406h-4.707v-1.25h4.707v-1.387h1.465v1.387h5.02v-1.387h1.464v1.387h4.825v1.25H713.94v.859h.528c0,.156,0,.378.01.664s.009.5.009.645h2.52a8.531,8.531,0,0,0-1.641-1.29l.9-.683a6.633,6.633,0,0,1,1.953,1.523l-.547.45h1.308v1.269h-4.453a47.789,47.789,0,0,0,.625,5.977A21.913,21.913,0,0,0,716.636,3542.7Zm-6.992,1.016H708v1.406h1.641Zm2.05,4.14v-1.738H708v1.738Zm-3.691.977v1.465h1.641v-1.465Z"/>
    <path id="Path_874" data-name="Path 874" d="M258.554,3587.431l.273,1.328q-.351.137-5.449,2.187l-.488-1.465q.409-.135,2.343-.82v-7.07h-2.109v-1.367h2.109v-4.629h1.387v4.629h1.9v1.367h-1.9v6.562Zm10.7-5.411,1.367.215a23.307,23.307,0,0,1-2.793,6.739q.781,3.046,1.738,3.046.547,0,.664-3.281a2.819,2.819,0,0,0,1.094.762,9.541,9.541,0,0,1-.557,3.1,1.407,1.407,0,0,1-1.376.821q-1.583,0-2.579-3.008a15.094,15.094,0,0,1-3.339,3.145,4.023,4.023,0,0,0-1.036-1.016,13.05,13.05,0,0,0,3.926-3.789,52.053,52.053,0,0,1-.957-8.965h-4.687v2.676h3.828q0,.429-.02.6-.039,3.516-.146,4.9a4.028,4.028,0,0,1-.381,1.757,1.3,1.3,0,0,1-1.016.567,13.426,13.426,0,0,1-1.8,0,3.115,3.115,0,0,0-.332-1.27c.457.039.977.059,1.563.059q.392,0,.469-.2.292-.39.371-5.156h-2.539v.879q0,6.25-2.461,9.082a3.991,3.991,0,0,0-.518-.5,4.627,4.627,0,0,0-.6-.439,7.986,7.986,0,0,0,1.767-3.6,21.89,21.89,0,0,0,.439-4.56v-6.172h6.016q-.059-1.484-.059-3.067h1.426q0,2.091.02,3.067h2.676a13.226,13.226,0,0,0-2.305-2.285l1-.645a10.325,10.325,0,0,1,2.383,2.246l-1,.684h1.465v1.367H266.8a64.562,64.562,0,0,0,.644,7.207A21.13,21.13,0,0,0,269.257,3582.02Z"/>
    <path id="Path_875" data-name="Path 875" d="M291.456,3579.579h-8.262v2.695h6.426v7.012a2.156,2.156,0,0,1-.185,1.006,1.185,1.185,0,0,1-.674.518,13.521,13.521,0,0,1-3.516.273,6.337,6.337,0,0,0-.508-1.465q1.348.041,2.891.039a.9.9,0,0,0,.352-.107.3.3,0,0,0,.1-.264V3583.7h-4.883v9.981h-1.523V3583.7H277.1v7.461h-1.485v-8.887h6.055v-2.695h-8.106v-1.465h8.086v-2.832h1.563v2.832h8.242Z"/>
    <path id="Path_876" data-name="Path 876" d="M294.71,3593.642v-8.711h7.07v8.535h-1.465v-.9h-4.179v1.075Zm5.605-7.266h-4.179v4.746h4.179Zm8.184-10.156v6.621H297.62v-6.621Zm-1.5,5.2v-3.77h-7.949v3.77Zm-3.047,3.516h7.442v8.574h-1.465v-.938h-4.531v1.075h-1.446Zm1.446,6.191h4.531v-4.746h-4.531Z"/>
    <path id="Path_877" data-name="Path 877" d="M320.249,3588.759h-3.887v1.543h-1.347v-13.125h5.234Zm-1.387-10.137h-2.5v8.692h2.5Zm13.594,6.231h-4.629a17.764,17.764,0,0,0,2.158,3.671,12.357,12.357,0,0,0,2.686,2.7,4.961,4.961,0,0,0-1.074,1.211,16.689,16.689,0,0,1-4.336-5.957v7.148H325.8v-7.129a15.572,15.572,0,0,1-5.078,5.977,5.308,5.308,0,0,0-1.055-1.153,11.084,11.084,0,0,0,3.125-2.666,16.917,16.917,0,0,0,2.422-3.8h-4.238v-1.407H325.8v-3.359h-4.063v-1.426H325.8v-3.183h1.465v3.183h4.375v1.426h-4.375v3.359h5.2Z"/>
    <path id="Path_878" data-name="Path 878" d="M340.134,3591.767a1.736,1.736,0,0,1-2.285,0,1.505,1.505,0,0,1-.459-1.153,1.474,1.474,0,0,1,.468-1.123,1.682,1.682,0,0,1,2.266,0,1.474,1.474,0,0,1,.469,1.123A1.505,1.505,0,0,1,340.134,3591.767Zm-1.807-4.512-.469-7.754-.058-2.363h2.383l-.039,2.363-.489,7.754Z"/>
  </g>
</svg>
