<svg xmlns="http://www.w3.org/2000/svg" width="458.773" height="138.398" viewBox="0 0 458.773 138.398">
  <g id="txt4" transform="translate(-78.391 -4695.302)">
    <path id="Path_896" data-name="Path 896" d="M83.273,4712.353a6.089,6.089,0,0,1-4.687-1.993l.918-1.211a4.9,4.9,0,0,0,3.633,1.68,3.145,3.145,0,0,0,2.158-.732,2.513,2.513,0,0,0,.83-1.983q0-2.929-4.57-2.929v-1.407q4.062,0,4.062-2.793a2.221,2.221,0,0,0-.664-1.7,2.686,2.686,0,0,0-1.816-.664,4.477,4.477,0,0,0-3.028,1.465l-1-1.172a5.932,5.932,0,0,1,4.1-1.758,4.707,4.707,0,0,1,3.076.967,3.3,3.3,0,0,1,1.182,2.705,3.483,3.483,0,0,1-.7,2.2,4.193,4.193,0,0,1-1.915,1.358v.078a4.2,4.2,0,0,1,2.247,1.289,3.487,3.487,0,0,1,.878,2.422,3.777,3.777,0,0,1-1.347,3.047A5.047,5.047,0,0,1,83.273,4712.353Z"/>
    <path id="Path_897" data-name="Path 897" d="M95.724,4697.45l1.543.352a18.9,18.9,0,0,1-2.021,4.013,14.936,14.936,0,0,1-2.705,3.116,7.609,7.609,0,0,0-1.25-1.075,12.234,12.234,0,0,0,2.6-2.792A15.008,15.008,0,0,0,95.724,4697.45Zm-1.465,5.742h12.032c-.014.326-.027.56-.039.7q-.255,4.531-.547,6.484a5.172,5.172,0,0,1-.821,2.519,2.1,2.1,0,0,1-1.523.684,26.567,26.567,0,0,1-2.793-.039,2.734,2.734,0,0,0-.488-1.426q1.152.1,2.734.1a1.066,1.066,0,0,0,.8-.235q.741-.741,1.113-7.382H99.591a14.384,14.384,0,0,1-2.168,5.517,10.89,10.89,0,0,1-4.082,3.506,6.008,6.008,0,0,0-1.152-1.152,9.22,9.22,0,0,0,3.818-3,12.074,12.074,0,0,0,1.963-4.873H94.259Zm3.594-7.48h6.25a14.874,14.874,0,0,0,2.236,4.58,10.978,10.978,0,0,0,3.428,3.193,4.738,4.738,0,0,0-1.035,1.309,12.761,12.761,0,0,1-3.369-3.262,17.168,17.168,0,0,1-2.334-4.433H97.853Z"/>
    <path id="Path_898" data-name="Path 898" d="M120.441,4710.165l.1,1.25q-1.271.292-3.809.83t-3.594.772l-.312-1.387q2.109-.351,3.3-.586v-6.074H113v-1.289h3.125v-2.129h-2.05v-.9q-.274.275-.821.782a4.185,4.185,0,0,0-.918-.938,13.428,13.428,0,0,0,3.731-5.117h1.348a22.862,22.862,0,0,1,3.4,3.516l-1,1.132a18.786,18.786,0,0,0-2.891-3.3,20.069,20.069,0,0,1-2.519,3.554h5.234v1.27h-2.207v2.129h2.852v1.289h-2.852v5.8q.234-.039,1.328-.264T120.441,4710.165Zm-6.973-3.887,1.016-.234a13.032,13.032,0,0,1,.8,3.75l-1.094.293A14.893,14.893,0,0,0,113.468,4706.278Zm5.664,3.438-.976-.254a26.985,26.985,0,0,0,.82-3.594l1.152.293Q119.543,4708.427,119.132,4709.716Zm7.012,2.246h4.824v1.191H119.777v-1.191h5v-1.543h-3.906v-1.133h3.906V4708h-3.75v-5.84h9.1V4708h-3.984v1.289h4.043v1.133h-4.043ZM122.1,4698.1l.84-.176h-2.324v-1.152h4.121v-1.348h1.406v1.348h4.316v1.152h-2.148l.664.195q-.429.9-1.016,1.934h2.989v1.172h-10.9v-1.172h2.813A10.842,10.842,0,0,0,122.1,4698.1Zm.137,5.058v1.426h2.539v-1.426Zm0,3.848h2.539v-1.445h-2.539Zm4.746-6.953-.274-.1a13.123,13.123,0,0,0,.938-2.031h-4.3a7.112,7.112,0,0,1,.859,1.992l-.468.137Zm1.875,4.531v-1.426h-2.715v1.426Zm0,2.422v-1.445h-2.715V4707Z"/>
    <path id="Path_899" data-name="Path 899" d="M138.985,4700.673l1.7.254q-1.5,9.122-5.391,12.754a6.8,6.8,0,0,0-1.211-1.075Q137.872,4709.189,138.985,4700.673Zm-.527-3.75h8.281q.235,2.715.625,4.922a35.262,35.262,0,0,0,1.035,4.287,15.8,15.8,0,0,0,1.641,3.682,9.7,9.7,0,0,0,2.324,2.617,8,8,0,0,0-1.445,1.191,13.036,13.036,0,0,1-3.74-5.928,42.218,42.218,0,0,1-1.807-9.209h-6.914Z"/>
    <path id="Path_900" data-name="Path 900" d="M159.874,4699.7l1.309.45a29.609,29.609,0,0,1-1.622,2.812v10.664h-1.386v-8.691q-1.113,1.425-1.973,2.324a8.042,8.042,0,0,0-.918-1.309,19.723,19.723,0,0,0,2.5-2.851A23.732,23.732,0,0,0,159.874,4699.7Zm-.371-4.316,1.328.527a28.184,28.184,0,0,1-4.609,4.727,5.577,5.577,0,0,0-.84-1.074,22.581,22.581,0,0,0,2.295-2.022A14.6,14.6,0,0,0,159.5,4695.38Zm1.973,17.93-1.094-.782a5.79,5.79,0,0,0,1.816-3.476l1.231.371A7,7,0,0,1,161.476,4713.31Zm12.265-7.383v1.211h-7.773a13.322,13.322,0,0,1,3.261,1.777l-.8,1a13.664,13.664,0,0,0-3.36-1.933l.684-.84H161.1v-1.211Zm-11.7-6.25H166.3q.1-.664.176-1.465h-5.313V4697h5.43c.012-.117.032-.381.058-.791s.046-.713.059-.908l1.523.078-.2,1.621h5.606v1.211H167.9c-.026.208-.062.492-.107.85s-.075.563-.088.615h5.215v4.922H162.042Zm3.2,3.828v-2.734h-2.031v2.734Zm1.25,8.652h2.168a.526.526,0,0,0,.537-.283,4.793,4.793,0,0,0,.166-1.377,2.878,2.878,0,0,0,1.192.508,3.921,3.921,0,0,1-.459,1.894,1.469,1.469,0,0,1-1.26.489h-2.52a2.4,2.4,0,0,1-1.552-.352,1.854,1.854,0,0,1-.381-1.367v-2.715h1.367v2.695c0,.222.042.362.127.42A1.3,1.3,0,0,0,166.495,4712.157Zm1.934-8.652v-2.734h-2.09v2.734Zm1.094-2.734v2.734h2.128v-2.734Zm.546,8.574,1.094-.567a13.448,13.448,0,0,1,2.676,3.77l-1.172.625a11.127,11.127,0,0,0-1.065-1.885A15.807,15.807,0,0,0,170.069,4709.345Z"/>
    <path id="Path_901" data-name="Path 901" d="M184.161,4708.446h-5.118v1.836h-1.406v-13.691h6.524Zm-1.387-10.507h-3.731v3.789h3.731Zm-3.731,9.121h3.731v-3.985h-3.731Zm15.411-10.84v15.429a2.521,2.521,0,0,1-.186,1.094,1.22,1.22,0,0,1-.654.567,13.461,13.461,0,0,1-3.438.273,4.134,4.134,0,0,0-.566-1.445q.663.018,2.891.019a.459.459,0,0,0,.507-.508v-4.394h-5.9a10.18,10.18,0,0,1-3.711,6.5,4.572,4.572,0,0,0-1.094-1.016,9.089,9.089,0,0,0,1.983-2.08,7.886,7.886,0,0,0,1.132-2.49,17.156,17.156,0,0,0,.459-2.412,22.982,22.982,0,0,0,.118-2.471v-7.07Zm-7.129,9.687h5.683v-3.515h-5.566v.9A24.722,24.722,0,0,1,187.325,4705.907Zm5.683-8.281h-5.566v3.418h5.566Z"/>
    <path id="Path_902" data-name="Path 902" d="M208.135,4711.806h7.891v1.308H198.7v-1.308h7.91v-2.168h-5.586v-1.192h5.586v-1.894h-4.9a17.909,17.909,0,0,1-2.05,2.226,5.267,5.267,0,0,0-1.27-.937,11.757,11.757,0,0,0,2.09-2.061,12.334,12.334,0,0,0,1.582-2.529l1.445.41q-.234.489-.9,1.621h4v-1.6h1.523v1.6h6.641v1.27h-6.641v1.894h5.821v1.192h-5.821Zm5.86-15.625v7.05H200.752v-7.05Zm-1.5,2.929v-1.738H202.217v1.738Zm0,2.93v-1.777H202.217v1.777Z"/>
    <path id="Path_903" data-name="Path 903" d="M237.422,4708.485v1.211h-7.969v2.383a1.79,1.79,0,0,1-.176.889,1.027,1.027,0,0,1-.625.439,13.8,13.8,0,0,1-3.222.215,3.835,3.835,0,0,0-.508-1.25q1.758.059,2.676,0a.741.741,0,0,0,.322-.078c.059-.039.088-.124.088-.254V4709.7h-7.949v-1.211h7.949v-1.113h.859a16.809,16.809,0,0,0,2.4-1.269h-7.715v-1.133h9.218l.313-.078.879.742a20.044,20.044,0,0,1-4.512,2.6v.254Zm-15.7-4.863v2.481h-1.406v-3.633H221.9l-.411-6.231,1.055.254q1.249-.352,2.813-.957l.781.84a19.076,19.076,0,0,1-3.184.977l.059.878h2.969v1.036h-2.911l.079,1.074h2.91v1.015H223.2l.059,1.114h11q.039-.332.117-1.114h-2.93v-1.015h3.008l.1-1.074h-3.008v-1.036h3.066l.059-1.093h-3.2v-1.016h4.648q-.117,2.988-.449,6.348h1.563v3.633h-1.465v-2.481Zm9-5.664-.782.742a8.482,8.482,0,0,0-1.132-.976,11.712,11.712,0,0,1-1.817,1.191,10.07,10.07,0,0,0-.84-.723,12.188,12.188,0,0,0,1.8-1.054q-.078-.04-.547-.332c-.312-.2-.547-.332-.7-.41l.723-.625q.332.156,1.348.742a5.366,5.366,0,0,0,.878-.938l1.036.313a7.909,7.909,0,0,1-1.094,1.172A7.477,7.477,0,0,1,230.723,4697.958Zm-.86.879,1.055.312a9.377,9.377,0,0,1-1.191,1.309,8.322,8.322,0,0,1,1.211,1l-.782.723a7.266,7.266,0,0,0-1.23-1.035,13.93,13.93,0,0,1-1.875,1.23,4.441,4.441,0,0,0-.86-.742,9.186,9.186,0,0,0,1.875-1.113q-.175-.1-.6-.371c-.281-.183-.492-.313-.635-.391l.742-.625q.312.156,1.309.762A7.116,7.116,0,0,0,229.863,4698.837Z"/>
    <path id="Path_904" data-name="Path 904" d="M259.15,4711.3v1.367H243.486v.957h-1.465v-17.4h16.6v1.347H243.486V4711.3Zm-13.945-1.5v-5.117H250.4v5.117Zm1.25-4.043v2.969h2.656v-2.969Zm8.339-6.855v4.433h-7.421V4698.9Zm-1.464,3.359v-2.3h-4.59v2.3Zm3.789,2.422v5.117h-5.371v-5.117Zm-1.309,4.043v-2.969h-2.773v2.969Z"/>
    <path id="Path_905" data-name="Path 905" d="M264.218,4703.9h14.531v1.386H264.218Z"/>
    <path id="Path_906" data-name="Path 906" d="M301.649,4702.606h-7.558a18.347,18.347,0,0,0,3.086,5.938,11.817,11.817,0,0,0,4.785,3.652,5.944,5.944,0,0,0-1.113,1.407q-5.41-2.559-7.969-9.9a13.992,13.992,0,0,1-7.988,9.9,3.389,3.389,0,0,0-1.114-1.231,13.016,13.016,0,0,0,7.774-9.766h-7.363v-1.523h7.617a48.184,48.184,0,0,0,.293-5.684h1.6a50.017,50.017,0,0,1-.312,5.684h8.261Z"/>
    <path id="Path_907" data-name="Path 907" d="M320.468,4701.767l1.5.371a22.14,22.14,0,0,1-3.516,6.758q1.172,3.1,2.676,3.1.41,0,.625-.84a16.331,16.331,0,0,0,.312-2.871,3.093,3.093,0,0,0,1.289.8,9.806,9.806,0,0,1-.693,3.467,1.727,1.727,0,0,1-1.65.927q-2.189,0-3.653-3.281a17.345,17.345,0,0,1-4.121,3.32,6.248,6.248,0,0,0-1.074-1.191,15.8,15.8,0,0,0,4.59-3.691,37.368,37.368,0,0,1-1.465-8.418H308.4v2.6h5.1v.645q-.078,3.478-.2,4.883a3.872,3.872,0,0,1-.439,1.8,1.654,1.654,0,0,1-1.192.566,23.656,23.656,0,0,1-2.383,0,2.887,2.887,0,0,0-.41-1.387q1.152.1,2.11.1c.312,0,.514-.071.6-.215q.351-.371.449-5H308.4v.156q0,6.368-2.11,9.414a5.931,5.931,0,0,0-.586-.537,4.268,4.268,0,0,0-.644-.459q1.816-2.7,1.816-8.437v-5.586h8.34q-.078-1.094-.117-3.36h1.543q0,1.935.078,3.36h6.465v1.465h-6.368a35.01,35.01,0,0,0,1.094,6.933A20.581,20.581,0,0,0,320.468,4701.767Zm-2.832-5.411.879-.9a16.938,16.938,0,0,1,3.574,2.285l-.918,1.016A17.492,17.492,0,0,0,317.636,4696.356Z"/>
    <path id="Path_908" data-name="Path 908" d="M327.313,4696.278h16.6v17.4H342.45v-.918H328.739v.918h-1.426Zm1.426,15.137H342.45v-13.769H328.739Zm6.875-4.082.058,1.055q-.664.116-2.783.527t-3.056.586l-.2-1.113q.879-.137,3.076-.537T335.614,4707.333Zm3.808-5.039,1.211.273a15.792,15.792,0,0,1-2.226,4.883q.7,1.719,1.621,1.856.39.116.625-2.071a3,3,0,0,0,.957.664q-.372,3.185-1.973,2.579a3.234,3.234,0,0,1-2.09-1.934,13.258,13.258,0,0,1-2.636,2.285,5.515,5.515,0,0,0-.879-.937,11.013,11.013,0,0,0,3.027-2.618,27.111,27.111,0,0,1-1.113-5.9h-6.113v-1.113h6.015q-.117-1.407-.156-2.129h1.289q.039.724.117,2.129h4.356v1.113H337.2a27.9,27.9,0,0,0,.742,4.609A12.724,12.724,0,0,0,339.422,4702.294Zm-8.886.352h4.414v3.867h-4.414Zm3.34,2.929v-1.992h-2.3v1.992Zm7.07-6.308-.7.781a6.685,6.685,0,0,0-2.149-1.406l.7-.743A7.292,7.292,0,0,1,340.946,4699.267Z"/>
    <path id="Path_909" data-name="Path 909" d="M357.713,4698.915h7.266v9.356h-1.524v-1.133h-5.742v6.484H356.17v-6.484h-5.723v1.25h-1.465v-9.473h7.188v-3.555h1.543Zm-7.266,6.758h5.723v-5.293h-5.723Zm7.266,0h5.742v-5.293h-5.742Z"/>
    <path id="Path_910" data-name="Path 910" d="M376.727,4708.329l-.43-1.055q2.382-1,2.519-2.929a2.389,2.389,0,0,1-.351.019,1.58,1.58,0,0,1-1.074-.371,1.315,1.315,0,0,1-.43-1.054,1.334,1.334,0,0,1,.439-1.065,1.6,1.6,0,0,1,1.084-.381,1.46,1.46,0,0,1,1.25.615,2.814,2.814,0,0,1,.45,1.69,4.374,4.374,0,0,1-.928,2.783A5.419,5.419,0,0,1,376.727,4708.329Z"/>
    <path id="Path_911" data-name="Path 911" d="M394.451,4695.478l1.367.39a34.475,34.475,0,0,1-1.563,3.887v13.867h-1.406v-11.211a21.086,21.086,0,0,1-1.894,2.695,7.793,7.793,0,0,0-.762-1.5,18.757,18.757,0,0,0,2.412-3.643A27.145,27.145,0,0,0,394.451,4695.478Zm11.66,12.832.937.527a8.689,8.689,0,0,1-3.242,2.656,25.619,25.619,0,0,0,5.274.957,4.944,4.944,0,0,0-.821,1.25,21.985,21.985,0,0,1-6.093-1.484,27.982,27.982,0,0,1-6.211,1.445,5.306,5.306,0,0,0-.7-1.113,27.388,27.388,0,0,0,5.41-1.074,9.412,9.412,0,0,1-2.09-1.563,21.371,21.371,0,0,1-2.344,1.153,3.555,3.555,0,0,0-.9-.918,13,13,0,0,0,4.746-2.715.882.882,0,0,1-.547-.391,1.737,1.737,0,0,1-.156-.84v-1.269h1.23v1.269c0,.17.045.281.137.332a1.6,1.6,0,0,0,.644.078h2.481a.581.581,0,0,0,.468-.146,1.565,1.565,0,0,0,.157-.733,3.286,3.286,0,0,0,1.015.352,1.871,1.871,0,0,1-.39,1.162,1.561,1.561,0,0,1-1.094.3h-2.383q-.351.371-.879.84h5.078Zm-8.535-9.864h3.5l.117-.527.117-.527h-5.117v-1.133h12.344v1.133h-5.645q-.254.643-.43,1.054h4.551v5h1.856v2.676h-1.348V4704.4h-5.059a5.483,5.483,0,0,1,1.309,1.055l-.9.645a6.866,6.866,0,0,0-2.051-1.582l.156-.118h-4.043v1.719h-1.308v-2.676h1.953Zm-.567,9.336-.918-.761a6.193,6.193,0,0,0,2.11-2.032l.976.547A7.8,7.8,0,0,1,397.009,4707.782Zm8.594-7.636v-.84h-6.66v.84Zm0,1.64v-.859h-6.66v.859Zm-6.66,1.66h6.66v-.859h-6.66Zm5.957,5.9h-5.215a9.386,9.386,0,0,0,2.539,1.582A9.676,9.676,0,0,0,404.9,4709.345Zm.273-3.887.938-.547a10.2,10.2,0,0,1,2.3,2.3l-1,.586A9.583,9.583,0,0,0,405.173,4705.458Z"/>
    <path id="Path_912" data-name="Path 912" d="M417.351,4699.4h-2.422a6.034,6.034,0,0,1-1.875,3.594,3.473,3.473,0,0,0-1-.957,5.366,5.366,0,0,0,1.66-4.16v-1.973l1.192.332a31.807,31.807,0,0,0,4.609-.82l1,.918a29.86,29.86,0,0,1-5.469.879v1.015h6v1.172h-2.363v2.5h-1.328Zm.762,11.231,1.347.644a26.36,26.36,0,0,1-6.093,2.4,13.838,13.838,0,0,0-1.114-1.114A21.648,21.648,0,0,0,418.113,4710.634Zm-3.379-.195v-8.145h12.988v8.145Zm1.426-7.149v1.387h10.078v-1.387Zm0,2.344v1.406h10.078v-1.406Zm0,2.363v1.445h10.078V4708Zm6.972-9.766h6.875v1.172h-2.968v2.539h-1.348V4699.4h-2.774a4.942,4.942,0,0,1-2.07,2.754,2.648,2.648,0,0,0-.918-.976,3.9,3.9,0,0,0,1.914-3.438v-1.777l1.133.273a29.53,29.53,0,0,0,5.039-.8l1,.937a32.668,32.668,0,0,1-5.859.859v.547A3.85,3.85,0,0,1,423.132,4698.231Zm-.351,13.223,1.211-.762a57.265,57.265,0,0,1,6.015,2.227l-1.64.742A40.214,40.214,0,0,0,422.781,4711.454Z"/>
    <path id="Path_913" data-name="Path 913" d="M451.56,4700.673h-1.192a23.3,23.3,0,0,1-2.617,7.871,10.018,10.018,0,0,0,3.984,3.926,4.138,4.138,0,0,0-1.035,1.25,10.662,10.662,0,0,1-3.808-3.906,13.38,13.38,0,0,1-4.707,3.925,5.825,5.825,0,0,0-.86-1.328,11.539,11.539,0,0,0,4.8-4,26.96,26.96,0,0,1-1.8-5.664,12.216,12.216,0,0,1-1.269,2.285,6.411,6.411,0,0,0-1.172-.976q.351-.487.468-.684h-4.883q-.137.372-.742,1.563h4.278l.312-.078.84.7a16.757,16.757,0,0,1-2.813,2.636v.2q.781-.059,2.286-.2c1-.09,1.575-.143,1.718-.156v1.211l-4,.352v2.578a1.855,1.855,0,0,1-.146.83.911.911,0,0,1-.537.42,9.76,9.76,0,0,1-2.6.2,3.74,3.74,0,0,0-.449-1.211h2.012q.351,0,.351-.273v-2.422l-4.179.39-.2-1.289q.665-.037,2.217-.156t2.158-.156v-1.035h.567a12.26,12.26,0,0,0,1.425-1.367h-3.945a12.717,12.717,0,0,1-1.66,2.07,5.148,5.148,0,0,0-1.094-.957,11.371,11.371,0,0,0,2.715-3.848h-2.578v-1.289h3.125q.429-1.211.664-2.168l1.348.274a17.336,17.336,0,0,1-.567,1.894h4.785v.527a25.777,25.777,0,0,0,2.169-7.246l1.464.235a31.489,31.489,0,0,1-.839,3.711h6Zm-9.063-.84-1.016,1.074a19.127,19.127,0,0,0-2.812-1.992,28.97,28.97,0,0,1-4.375,2.305,6.446,6.446,0,0,0-.977-1.153,25.11,25.11,0,0,0,4.063-1.894,29.746,29.746,0,0,0-2.949-1.426l.937-.957q1.719.743,3.281,1.582a12.94,12.94,0,0,0,2.54-2.07l1.288.586a18.161,18.161,0,0,1-2.558,2.207A19.7,19.7,0,0,1,442.5,4699.833Zm6.387.84h-3.731A25.918,25.918,0,0,0,446.97,4707,20.876,20.876,0,0,0,448.884,4700.673Z"/>
    <path id="Path_914" data-name="Path 914" d="M472.6,4697.314v1.328H467.39a29.819,29.819,0,0,1,2.783,1.982,23.005,23.005,0,0,1,2.256,2l-1.231.879a15.01,15.01,0,0,0-1.367-1.348q-8.047.313-13.828.41l-.078-1.386,2.773-.039a24.821,24.821,0,0,0,1.68-2.5h-5.215v-1.328h7.93v-1.954h1.5v1.954Zm-2.734,6.464v8.262a1.915,1.915,0,0,1-.176.918,1.023,1.023,0,0,1-.644.449,14.724,14.724,0,0,1-3.262.215,5.309,5.309,0,0,0-.469-1.23q1.152.018,2.657.019a.537.537,0,0,0,.3-.1.354.354,0,0,0,.088-.274v-1.719h-8.887v3.3h-1.484v-9.844Zm-1.5,1.25h-8.887v1.524h8.887Zm-8.887,4.18h8.887v-1.543h-8.887Zm7.852-10.566h-5.058q-1.017,1.386-1.954,2.48,2.539-.039,8.067-.156-1.173-.918-2.168-1.582Z"/>
    <path id="Path_915" data-name="Path 915" d="M480.641,4699.423l1.328.449a22.166,22.166,0,0,1-1.738,2.617v11.192h-1.387v-9.571a19.13,19.13,0,0,1-2.246,2.149,7.853,7.853,0,0,0-.84-1.328,17.822,17.822,0,0,0,2.715-2.5A16.82,16.82,0,0,0,480.641,4699.423Zm-.469-4.043,1.368.508a17.857,17.857,0,0,1-2.149,2.529,20.836,20.836,0,0,1-2.578,2.2,7.271,7.271,0,0,0-.84-1.074,15.335,15.335,0,0,0,2.373-1.953A12.47,12.47,0,0,0,480.172,4695.38Zm8.77,12.4v4.16a10.056,10.056,0,0,0,1.777.137h3.692a3.144,3.144,0,0,0-.469,1.348h-3.32a8.445,8.445,0,0,1-3.916-.791,5.709,5.709,0,0,1-2.452-2.9,8.815,8.815,0,0,1-2.382,3.848,5.406,5.406,0,0,0-1.114-.957,6.809,6.809,0,0,0,2.11-3.154,18.571,18.571,0,0,0,.82-4.873l1.426.1a26.455,26.455,0,0,1-.352,2.95,5.686,5.686,0,0,0,2.813,3.867v-8.36h.254a6.8,6.8,0,0,0-1.016-.761q2.871-2.111,3.574-7.012l1.426.176a17.832,17.832,0,0,1-.8,3.261,23.736,23.736,0,0,1,3.5,3.477l-1.015,1.016a27.955,27.955,0,0,0-3.008-3.223,9.634,9.634,0,0,1-2.3,3.066h.762v3.36h4.453v1.269Zm-1.113-7.148-.723,1.152a19.179,19.179,0,0,0-1.992-1.933,12.093,12.093,0,0,1-2.578,3.75,5.235,5.235,0,0,0-.538-.538,4.169,4.169,0,0,0-.595-.459,12.178,12.178,0,0,0,3.633-7.226l1.425.215a22.44,22.44,0,0,1-.859,3.066A18.682,18.682,0,0,1,487.829,4700.634Z"/>
    <path id="Path_916" data-name="Path 916" d="M500.709,4700.3l1.641.293q-1.31,5.878-3.594,8.711a6.936,6.936,0,0,0-1.406-.782,12.917,12.917,0,0,0,2.09-3.7A24.9,24.9,0,0,0,500.709,4700.3Zm5.215-4.649h1.582v15.9a2.486,2.486,0,0,1-.235,1.211,1.393,1.393,0,0,1-.761.6,14.652,14.652,0,0,1-3.828.254,6.411,6.411,0,0,0-.606-1.543q2.07.078,3.262.02.586,0,.586-.547Zm4.785,5.039,1.406-.527a37.875,37.875,0,0,1,2.451,4.6,21.372,21.372,0,0,1,1.475,4.209l-1.562.664a24.788,24.788,0,0,0-1.426-4.278A36.467,36.467,0,0,0,510.709,4700.692Z"/>
    <path id="Path_917" data-name="Path 917" d="M522.926,4701.571v5.86q.468-.176,1.357-.528t1.123-.429l.274,1.367q-.255.1-6.446,2.637l-.488-1.5q.957-.312,2.774-1v-6.407h-2.4v-1.406h2.4v-4.648h1.406v4.648h2.226v1.406Zm14.238,1.192v1.347H524.645v-1.347Zm-.351-5.02v1.328H525.348v-1.328h4.98V4695.4h1.465v2.344ZM526.48,4713.6V4706h9.356v7.539h-1.445v-.957h-6.524v1.016Zm2.989-11.211-1.406.351a9.991,9.991,0,0,0-.938-3.222l1.348-.313A9.73,9.73,0,0,1,529.469,4702.392Zm4.922,4.961h-6.524v3.886h6.524Zm-.606-8.243,1.524.43q-.177.391-.459,1.084t-.518,1.231q-.234.537-.43.908l-1.25-.371A20.28,20.28,0,0,0,533.785,4699.11Z"/>
    <path id="Path_918" data-name="Path 918" d="M96.789,4742.626H92.082a11.233,11.233,0,0,0,5.176,3.2A4.122,4.122,0,0,0,96.32,4747a12.626,12.626,0,0,1-5.8-4.375H85.6a14.055,14.055,0,0,1-2.578,2.637h10.1v4.629H88.8a8.166,8.166,0,0,0,2.324,1.289,27.117,27.117,0,0,0,3.184-1.739l1.074.645a19.244,19.244,0,0,1-2.969,1.523,23.728,23.728,0,0,0,4.473.762,4.437,4.437,0,0,0-.8,1.211,18.1,18.1,0,0,1-6.016-1.6l-.019.625q-4.884.411-9.2.684l-.215-1.23,2.3-.118v-6.621a19.253,19.253,0,0,1-3.222,1.973,4.514,4.514,0,0,0-1.016-1.074,13.631,13.631,0,0,0,5.176-3.594H79.23v-1.094h7.989v-1.054H81.457v-1h5.762v-.976H80.383v-1.074h3.75a9.877,9.877,0,0,0-1.094-1.621l1.289-.45a6.394,6.394,0,0,1,1.426,2.071h4.59a18.217,18.217,0,0,0,1.152-2.09l1.582.39q-.371.587-1.191,1.7h3.73v1.074H88.723v.976h5.8v1h-5.8v1.054h8.066Zm-5.156,3.574H84.426v.938h7.207Zm-7.207,2.754h7.207v-.976H84.426Zm0,.938v1.953q.507-.02,4.785-.332a8.053,8.053,0,0,1-1.934-1.621Zm6.426-5.528H85.129v-.879h5.723Z"/>
    <path id="Path_919" data-name="Path 919" d="M107.312,4748.329l-.43-1.055q2.383-1,2.52-2.929a2.4,2.4,0,0,1-.352.019,1.581,1.581,0,0,1-1.074-.371,1.318,1.318,0,0,1-.43-1.054,1.334,1.334,0,0,1,.44-1.065,1.6,1.6,0,0,1,1.084-.381,1.462,1.462,0,0,1,1.25.615,2.821,2.821,0,0,1,.449,1.69,4.374,4.374,0,0,1-.928,2.783A5.414,5.414,0,0,1,107.312,4748.329Z"/>
    <path id="Path_920" data-name="Path 920" d="M127.171,4738.681v1.211h-6.426v-1.211Zm-.527,8.027v5.742h-3.907v.957h-1.191v-6.7Zm-5.079-4.141v-1.191h5.079v1.191Zm0,2.657v-1.211h5.079v1.211Zm5.039-9.16v1.191h-4.921v-1.191Zm-1.191,11.855h-2.676v3.34h2.676Zm12.441.8.782.761a14.85,14.85,0,0,1-2.5,1.426,7.429,7.429,0,0,0,3.086,1.68,4.066,4.066,0,0,0-.84,1.074,8.244,8.244,0,0,1-5.274-5.254h-.332a9.707,9.707,0,0,1-1.582,1.114v2.285c.247-.039.759-.127,1.533-.264s1.371-.237,1.788-.3l.078,1.114q-.548.1-2.852.517t-3.34.6l-.371-1.192q.254-.039.879-.126c.417-.059.742-.108.977-.147v-1.816a21.584,21.584,0,0,1-2.285.859,7,7,0,0,0-.743-.977,14.279,14.279,0,0,0,4.18-1.66h-3.867v-1.113h3.047v-1.113h-2.07v-1h2.07v-1.055h-2.442v-1h2.442v-1.074h-2.032v-3.34H132.6v3.34h-1.055v1.074h3.008v-1.074h-.879v-3.34h4.511v3.34H135.9v1.074h2.657v1H135.9v1.055h2.3v1h-2.3v1.113h3.047v1.113h-4.59a7.185,7.185,0,0,0,1.094,1.758A26.4,26.4,0,0,0,137.854,4748.72Zm.977-11.953v1.113H127.425v-1.113h4.863v-1.407h1.485v1.407Zm-9.512,2.851v1.543h2.11v-1.543Zm2.227,4.512v1.055h3.008v-1.055Zm0,2.051v1.113h3.008v-1.113Zm3.281-6.563v1.543h2.149v-1.543Z"/>
    <path id="Path_921" data-name="Path 921" d="M149.061,4743.036l.1,1.348q-.489.1-1.5.332t-1.524.332v6.777a2.459,2.459,0,0,1-.156.987,1.038,1.038,0,0,1-.566.517,7.8,7.8,0,0,1-2.637.293,4.5,4.5,0,0,0-.469-1.5q.957.019,2.07.02.333,0,.333-.313v-6.465q-1.6.372-2.793.625l-.352-1.406q.175-.039,3.145-.625V4740.6h.468a15.491,15.491,0,0,0,2.071-2.637h-5.1v-1.387h6.074l.274-.078,1.015.664q-.292.527-.527.9h4.609v-2.7h1.465v2.7h4.863v1.386h-5.625l.469.215a34.571,34.571,0,0,1-2.988,3.555q.879.781,1.621,1.543a15.641,15.641,0,0,0,3.3-3.731l1.347.547a19.179,19.179,0,0,1-3.857,4.356,23.107,23.107,0,0,1-5.049,3.281,5.564,5.564,0,0,0-.957-1.133,22.822,22.822,0,0,0,4.063-2.383,28.225,28.225,0,0,0-3.262-3.046l.918-1q.409.313.9.723a25.578,25.578,0,0,0,2.285-2.93h-4.238v-1.191a19.465,19.465,0,0,1-2.715,3.3v2.109Zm9.18,1.7,1.289.645a17.876,17.876,0,0,1-3.223,3.711,27.784,27.784,0,0,1,3.848,3.476l-1.192,1.094a30.961,30.961,0,0,0-3.808-3.594,24.353,24.353,0,0,1-6.172,3.536,5.946,5.946,0,0,0-.977-1.231,23.46,23.46,0,0,0,5.948-3.183A16.949,16.949,0,0,0,158.241,4744.735Z"/>
    <path id="Path_922" data-name="Path 922" d="M180.853,4744.247v1.465h-8.242v6a2.3,2.3,0,0,1-.225,1.143,1.314,1.314,0,0,1-.771.556,15.506,15.506,0,0,1-3.946.254,6.007,6.007,0,0,0-.644-1.523q1.094.039,2.187.049t1.309-.01a.882.882,0,0,0,.449-.108.432.432,0,0,0,.117-.361v-6h-8.261v-1.465h8.261v-3.2h.938a23.624,23.624,0,0,0,4.121-2.852H164.9v-1.425h12.812l.372-.1,1.074.82a24.029,24.029,0,0,1-3.047,2.569,31.635,31.635,0,0,1-3.5,2.216v1.973Z"/>
    <path id="Path_923" data-name="Path 923" d="M201.493,4739.345H190.751q-.606,1.269-1.23,2.3h9.648v10.118a2.275,2.275,0,0,1-.186,1.035,1.156,1.156,0,0,1-.654.527,13.51,13.51,0,0,1-3.5.274,5.333,5.333,0,0,0-.469-1.465q.879.039,2.871.039c.313-.013.469-.15.469-.41v-2.09h-8.34v3.945H187.9v-9.648a16.182,16.182,0,0,1-3.339,3.164,5.3,5.3,0,0,0-.938-1.133,16.567,16.567,0,0,0,5.508-6.66h-5.02v-1.406h5.625a24.2,24.2,0,0,0,.879-2.579l1.485.352q-.431,1.347-.782,2.227h10.176Zm-3.789,5.683V4743h-8.34v2.031Zm-8.34,3.379h8.34v-2.09h-8.34Z"/>
    <path id="Path_924" data-name="Path 924" d="M222.543,4744.384h-3.632a11.477,11.477,0,0,1-2.95,5.273,38.256,38.256,0,0,1,5.606,2.754l-1.074,1.25a34.079,34.079,0,0,0-5.8-2.969,20.067,20.067,0,0,1-8.418,2.969,4.5,4.5,0,0,0-.9-1.347,19.836,19.836,0,0,0,7.714-2.247q-2.343-.937-3.906-1.386c-.234.39-.4.671-.508.84l-1.5-.411q1.152-1.912,2.618-4.726h-4.883v-1.406h5.625q.879-1.758,1.582-3.223l1.523.351q-.567,1.212-1.426,2.872h10.332ZM207,4738.856v2.891h-1.5v-4.277h7.4v-2.11h1.543v2.11h7.6v4.277h-1.543v-2.891Zm10.214,5.528h-5.722q-1.134,2.148-1.68,3.1,2.4.724,4.629,1.563A9.264,9.264,0,0,0,217.211,4744.384Z"/>
    <path id="Path_925" data-name="Path 925" d="M227.461,4742.528l1.445.274q-.626,5.411-2.363,7.734l-1.328-.82Q226.973,4747.451,227.461,4742.528Zm3.34-1.621h1.5v10a1.135,1.135,0,0,0,.254.889,1.87,1.87,0,0,0,1.074.205H237.3a1.1,1.1,0,0,0,1.152-.771,14.93,14.93,0,0,0,.391-3.409,3.219,3.219,0,0,0,1.386.684,10.242,10.242,0,0,1-.7,3.877,2.234,2.234,0,0,1-2.148.986h-3.867a3.276,3.276,0,0,1-2.159-.517,2.659,2.659,0,0,1-.556-1.963Zm.156-4.316.938-1.133a29.565,29.565,0,0,1,3.632,1.514,29.174,29.174,0,0,1,3.2,1.787l-.937,1.308a24.684,24.684,0,0,0-3.145-1.875A28.132,28.132,0,0,0,230.957,4736.591Zm8.106,5.937,1.308-.664a22.781,22.781,0,0,1,2.344,3.731,16.688,16.688,0,0,1,1.406,3.652l-1.445.684a17.038,17.038,0,0,0-1.367-3.662A23.892,23.892,0,0,0,239.063,4742.528Z"/>
    <path id="Path_926" data-name="Path 926" d="M255.738,4751.2h8.808v1.485H246.714V4751.2h7.461v-15.527h1.563v6.133h7.441v1.465h-7.441Z"/>
    <path id="Path_927" data-name="Path 927" d="M285.265,4748.485v1.211H277.3v2.383a1.8,1.8,0,0,1-.176.889,1.03,1.03,0,0,1-.625.439,13.8,13.8,0,0,1-3.222.215,3.858,3.858,0,0,0-.508-1.25q1.756.059,2.675,0a.743.743,0,0,0,.323-.078.292.292,0,0,0,.088-.254V4749.7H267.9v-1.211h7.95v-1.113h.859a16.742,16.742,0,0,0,2.4-1.269H271.4v-1.133h9.218l.313-.078.879.742a20.045,20.045,0,0,1-4.512,2.6v.254Zm-15.7-4.863v2.481h-1.406v-3.633h1.582l-.41-6.231,1.055.254q1.25-.352,2.812-.957l.782.84a19.077,19.077,0,0,1-3.184.977l.059.878h2.968v1.036h-2.91l.078,1.074H273.9v1.015h-2.852l.059,1.114h11q.039-.332.117-1.114h-2.93v-1.015H282.3l.1-1.074h-3.008v-1.036h3.066l.059-1.093h-3.2v-1.016h4.648q-.117,2.988-.449,6.348h1.562v3.633h-1.464v-2.481Zm9-5.664-.781.742a8.493,8.493,0,0,0-1.133-.976,11.658,11.658,0,0,1-1.816,1.191,10.072,10.072,0,0,0-.84-.723,12.189,12.189,0,0,0,1.8-1.054q-.078-.04-.547-.332c-.312-.2-.547-.332-.7-.41l.723-.625q.331.156,1.347.742a5.337,5.337,0,0,0,.879-.938l1.035.313a7.851,7.851,0,0,1-1.093,1.172A7.464,7.464,0,0,1,278.565,4737.958Zm-.859.879,1.055.312a9.4,9.4,0,0,1-1.192,1.309,8.218,8.218,0,0,1,1.211,1l-.781.723a7.305,7.305,0,0,0-1.23-1.035,13.93,13.93,0,0,1-1.875,1.23,4.442,4.442,0,0,0-.86-.742,9.186,9.186,0,0,0,1.875-1.113c-.117-.065-.316-.189-.6-.371s-.492-.313-.635-.391l.742-.625q.312.156,1.309.762A7.17,7.17,0,0,0,277.706,4738.837Z"/>
    <path id="Path_928" data-name="Path 928" d="M304.342,4737.333l.918.43a15.417,15.417,0,0,1-2.91,5.312,13.2,13.2,0,0,0,4.551,2.949,4.777,4.777,0,0,0-.918,1.211,2.52,2.52,0,0,0-.322-.146l-.323-.127v6.582h-1.406v-.664h-5v.723h-1.387v-6.661q-.215.119-1.191.547a4.218,4.218,0,0,0-.723-1h-2.109v3.594q.859-.195,2.617-.625l.156,1.328q-.527.136-3.476.85t-4.2,1.025l-.274-1.445,1.016-.215v-6.836h1.269v6.562l1.543-.351v-8.086h-2.812V4736.2h6.465v5.293a13.769,13.769,0,0,0,3.613-6.133l1.426.332q-.138.392-.645,1.7h3.867Zm-13.652.156V4741h3.75v-3.516Zm5.312,7.7v.957a13.864,13.864,0,0,0,4.532-3.125,19.535,19.535,0,0,1-1.856-2.735,15.556,15.556,0,0,1-1.816,2.3,7.163,7.163,0,0,0-1.035-.879v.586h-2.3v2.891Zm2.442,1.23H304.4a15.268,15.268,0,0,1-2.949-2.363A16.217,16.217,0,0,1,298.444,4746.415Zm.488,5.137h5v-3.828h-5Zm4.492-12.852H299.6l-.2.371a16.274,16.274,0,0,0,1.992,3.008A13.318,13.318,0,0,0,303.424,4738.7Z"/>
    <path id="Path_929" data-name="Path 929" d="M316.9,4741.825a31.315,31.315,0,0,1,4.473,4.434l-1.348,1.133a31.564,31.564,0,0,0-4.414-4.434Z"/>
    <path id="Path_930" data-name="Path 930" d="M346.345,4742.47l1.152,1a29,29,0,0,1-4.141,2.812,10.635,10.635,0,0,0,5.137,4.493,5.535,5.535,0,0,0-1.016,1.289q-5.313-2.4-7.343-10.254H340.1a14.2,14.2,0,0,1-2.051,1.386,9.208,9.208,0,0,1,2.178,2.715,8.208,8.208,0,0,1,.957,2.92,6.806,6.806,0,0,1-.166,2.52,2.8,2.8,0,0,1-1.055,1.65,3.325,3.325,0,0,1-2.129.664q-.665.019-1.738-.039a3.378,3.378,0,0,0-.43-1.426,17.629,17.629,0,0,0,1.875.1,2.068,2.068,0,0,0,1.367-.371,2.214,2.214,0,0,0,.752-1.426,5.874,5.874,0,0,0-.088-2.285,24.821,24.821,0,0,1-3.886,2.559,27.782,27.782,0,0,1-4.356,1.933,5.52,5.52,0,0,0-.781-1.25,23.812,23.812,0,0,0,4.717-1.894,17.283,17.283,0,0,0,3.877-2.637,10.1,10.1,0,0,0-.7-1.289,24.022,24.022,0,0,1-3.028,1.836,27.945,27.945,0,0,1-3.359,1.5,4.886,4.886,0,0,0-.8-1.153,23.27,23.27,0,0,0,3.506-1.347,16.957,16.957,0,0,0,3-1.739,12.023,12.023,0,0,0-.918-.9,32.957,32.957,0,0,1-4.9,1.894,6.485,6.485,0,0,0-.821-1.152,23.275,23.275,0,0,0,6.934-2.773h-4.258v-1.289h11.191v1.289h-3.535a16.7,16.7,0,0,0,1.289,3.34A28.153,28.153,0,0,0,346.345,4742.47Zm-13.653-3.946v2.559h-1.465v-3.945h7.442v-1.758h1.484v1.758h7.6v3.945h-1.524v-2.559Z"/>
    <path id="Path_931" data-name="Path 931" d="M367.161,4746.4l1.23.8a29.505,29.505,0,0,1-4.512,2.715,13.767,13.767,0,0,0,5.7,2.461,3.6,3.6,0,0,0-.918,1.309,12.544,12.544,0,0,1-9.3-7.461h-2.852v5.273q.938-.156,2.793-.469t2.461-.41l.059,1.328q-5.021.9-8.985,1.543l-.39-1.367q.193-.02,2.558-.371v-5.527H351.5v-1.348h3.515v-8.711h12.3v1.25h-10.8v1.66h10.215v1.231H356.516v1.66h10.215v1.211H356.516v1.7H369.27v1.348h-8.379a10.53,10.53,0,0,0,2.051,2.871A28.194,28.194,0,0,0,367.161,4746.4Z"/>
    <path id="Path_932" data-name="Path 932" d="M388.719,4747.138H382a6.433,6.433,0,0,1-1.777,3.4,15.044,15.044,0,0,0,4.238,1.133,59.216,59.216,0,0,0,6.152.43,3.35,3.35,0,0,0-.625,1.465,50.337,50.337,0,0,1-6.435-.616,15.291,15.291,0,0,1-4.541-1.474,16.989,16.989,0,0,1-5.8,2.168,5.089,5.089,0,0,0-.879-1.309,18.04,18.04,0,0,0,5.313-1.719,9.865,9.865,0,0,1-2.461-2.812l1.23-.508a8.62,8.62,0,0,0,2.422,2.48,4.961,4.961,0,0,0,1.621-2.636H374.52v-7.676h6.171v-1.68H372.7v-1.347h17.266v1.347h-7.754v1.68h6.5Zm-12.774-6.446v2.012h4.746v-2.012Zm0,5.215h4.707q.039-.39.039-1.23v-.8h-4.746Zm11.309,0v-2.031h-5.039v.82q0,.469-.039,1.211Zm0-5.215h-5.039v2.012h5.039Z"/>
    <path id="Path_933" data-name="Path 933" d="M398.968,4737.235l1.211-.468a17.9,17.9,0,0,1,2.617,4.433l-1.269.567q-.117-.333-.528-1.192-.859.04-3.7.2t-4.013.225l-.137-1.406q.84-.039,1.523-.059a29.285,29.285,0,0,0,1.836-4.18l1.5.352q-1.269,2.832-1.8,3.769l4.1-.175A21.583,21.583,0,0,0,398.968,4737.235Zm2.461,5.2v9.492a2.188,2.188,0,0,1-.146.9,1.032,1.032,0,0,1-.537.489,9,9,0,0,1-2.676.254,4.617,4.617,0,0,0-.488-1.348,17.98,17.98,0,0,0,2.07,0,.245.245,0,0,0,.312-.313v-2.363h-4.218v4.063h-1.387v-11.172Zm-1.465,1.25h-4.218v1.718h4.218Zm-4.218,4.726h4.218v-1.855h-4.218Zm13.378-4.336h-3.417a3.08,3.08,0,0,1-1.915-.42,2.142,2.142,0,0,1-.488-1.65v-6.6h1.465v3.34a32.034,32.034,0,0,0,4.629-1.875l1,1.075a42.8,42.8,0,0,1-5.625,2.011v2.031c0,.326.065.535.195.625a1.714,1.714,0,0,0,.86.137h3.183a.721.721,0,0,0,.742-.41,6.771,6.771,0,0,0,.235-1.894,3.809,3.809,0,0,0,1.367.585,5.164,5.164,0,0,1-.586,2.432A1.911,1.911,0,0,1,409.124,4744.071Zm-3.242,8.067h3.282a.791.791,0,0,0,.82-.479,8.258,8.258,0,0,0,.273-2.158,3.485,3.485,0,0,0,1.328.566,6.232,6.232,0,0,1-.615,2.7,1.891,1.891,0,0,1-1.689.683h-3.535a3.125,3.125,0,0,1-1.944-.429,2.152,2.152,0,0,1-.5-1.661v-6.718h1.465v3.164a20.282,20.282,0,0,0,4.863-2.11l.977,1.133a29.065,29.065,0,0,1-5.84,2.207v2.324q0,.489.2.635A1.8,1.8,0,0,0,405.882,4752.138Z"/>
    <path id="Path_934" data-name="Path 934" d="M428.046,4736.962l.937.6a12.486,12.486,0,0,1-2.46,3.125,17.23,17.23,0,0,1-3.4,2.481,27.928,27.928,0,0,1-3.809,1.767,28.9,28.9,0,0,1-4,1.182,3.944,3.944,0,0,0-.7-1.308,25.164,25.164,0,0,0,7.52-2.657,19.173,19.173,0,0,0-3.516-2.265,31.126,31.126,0,0,1-2.832,1.347,4.013,4.013,0,0,0-1.015-1.093,20.632,20.632,0,0,0,4.492-2.188,14.084,14.084,0,0,0,3.066-2.617l1.66.351a13.688,13.688,0,0,1-1.328,1.348h5.118Zm2.91,6.953.957.547q-3.222,7.461-15.156,9.2a4.507,4.507,0,0,0-.664-1.347,25.012,25.012,0,0,0,8.769-2.52,18.047,18.047,0,0,0-3.847-2.676,33.423,33.423,0,0,1-3.321,1.406,5.1,5.1,0,0,0-.918-1.132,23.511,23.511,0,0,0,5.254-2.364,14.394,14.394,0,0,0,3.516-2.91l1.64.371a17.842,17.842,0,0,1-1.464,1.485h4.961Zm-4.121-5.625h-5.723q-.7.528-1.25.859a16.938,16.938,0,0,1,3.536,2.247A13.6,13.6,0,0,0,426.835,4738.29Zm3.027,6.973H424.12q-1.016.723-1.738,1.133a20.315,20.315,0,0,1,3.808,2.617A11.185,11.185,0,0,0,429.862,4745.263Z"/>
    <path id="Path_935" data-name="Path 935" d="M441.069,4736.513v13.73h-4v1.738h-1.328v-15.468Zm-1.348,1.308h-2.656v2.793h2.656Zm-2.656,4.063v2.812h2.656v-2.812Zm0,7.031h2.656V4746h-2.656Zm16.289-4.023h-1.992v2.929h1.562v1.25h-5.039v2.774h5.469v1.308H441.127v-1.308h5.411v-2.774h-4.844v-1.25h1.523v-2.929h-1.875V4743.6h1.875v-2.7h-1.5v-1.25h4.825v-2.109q-2.559.2-4.317.254a3.677,3.677,0,0,0-.39-1.153,58.806,58.806,0,0,0,9.667-1.093l1.016,1.093a38.473,38.473,0,0,1-4.629.743v2.265h5.02v1.25h-1.543v2.7h1.992Zm-8.906-3.985v2.7h2.09v-2.7Zm0,6.914h2.09v-2.929h-2.09Zm5.625-6.914h-2.188v2.7h2.188Zm0,6.914v-2.929h-2.188v2.929Z"/>
    <path id="Path_936" data-name="Path 936" d="M474.131,4742.8v1.523h-8.164v9.3h-1.582v-9.3h-8.067V4742.8h8.067v-7.4h1.582v7.4Z"/>
    <path id="Path_937" data-name="Path 937" d="M481.352,4737.45l1.543.352a18.85,18.85,0,0,1-2.021,4.013,14.907,14.907,0,0,1-2.7,3.116,7.611,7.611,0,0,0-1.25-1.075,12.26,12.26,0,0,0,2.6-2.792A14.968,14.968,0,0,0,481.352,4737.45Zm-1.464,5.742h12.031c-.013.326-.026.56-.039.7q-.255,4.531-.547,6.484a5.173,5.173,0,0,1-.82,2.519,2.1,2.1,0,0,1-1.524.684,26.569,26.569,0,0,1-2.793-.039,2.734,2.734,0,0,0-.488-1.426q1.152.1,2.734.1a1.065,1.065,0,0,0,.8-.235q.742-.741,1.113-7.382H485.22a14.416,14.416,0,0,1-2.168,5.517,10.905,10.905,0,0,1-4.082,3.506,6.012,6.012,0,0,0-1.153-1.152,9.217,9.217,0,0,0,3.819-3,12.088,12.088,0,0,0,1.963-4.873h-3.711Zm3.593-7.48h6.25a14.877,14.877,0,0,0,2.237,4.58,10.976,10.976,0,0,0,3.427,3.193,4.757,4.757,0,0,0-1.035,1.309,12.761,12.761,0,0,1-3.369-3.262,17.2,17.2,0,0,1-2.334-4.433h-5.176Z"/>
    <path id="Path_938" data-name="Path 938" d="M505.645,4750.165l.1,1.25q-1.271.292-3.809.83t-3.594.772l-.312-1.387q2.109-.351,3.3-.586v-6.074H498.2v-1.289h3.125v-2.129h-2.051v-.9q-.275.275-.82.782a4.229,4.229,0,0,0-.918-.938,13.436,13.436,0,0,0,3.73-5.117h1.348a22.863,22.863,0,0,1,3.4,3.516l-1,1.132a18.784,18.784,0,0,0-2.891-3.3,20.069,20.069,0,0,1-2.519,3.554h5.234v1.27h-2.207v2.129h2.852v1.289h-2.852v5.8q.234-.039,1.328-.264T505.645,4750.165Zm-6.973-3.887,1.016-.234a13.032,13.032,0,0,1,.8,3.75l-1.094.293A14.893,14.893,0,0,0,498.672,4746.278Zm5.664,3.438-.976-.254a26.984,26.984,0,0,0,.82-3.594l1.153.293Q504.746,4748.427,504.336,4749.716Zm7.012,2.246h4.824v1.191H504.981v-1.191h5v-1.543h-3.906v-1.133h3.906V4748h-3.75v-5.84h9.1V4748h-3.985v1.289h4.043v1.133h-4.043ZM507.3,4738.1l.84-.176h-2.324v-1.152h4.121v-1.348h1.406v1.348h4.317v1.152h-2.149l.664.195q-.429.9-1.015,1.934h2.988v1.172h-10.9v-1.172h2.813A10.839,10.839,0,0,0,507.3,4738.1Zm.137,5.058v1.426h2.539v-1.426Zm0,3.848h2.539v-1.445h-2.539Zm4.746-6.953-.273-.1a13.213,13.213,0,0,0,.937-2.031h-4.3a7.15,7.15,0,0,1,.86,1.992l-.469.137Zm1.875,4.531v-1.426h-2.715v1.426Zm0,2.422v-1.445h-2.715V4747Z"/>
    <path id="Path_939" data-name="Path 939" d="M526.383,4754.149l-.449-1.054a3.774,3.774,0,0,0,2.539-3.36,1.236,1.236,0,0,1-.371.039,1.562,1.562,0,0,1-1.075-.38,1.35,1.35,0,0,1-.429-1.065,1.311,1.311,0,0,1,.439-1.045,1.594,1.594,0,0,1,1.084-.381,1.453,1.453,0,0,1,1.27.655,3.119,3.119,0,0,1,.449,1.787,4.828,4.828,0,0,1-.908,2.949A5.513,5.513,0,0,1,526.383,4754.149Zm2.7-13.349a1.519,1.519,0,0,1-1.074.42,1.48,1.48,0,0,1-1.064-.42,1.555,1.555,0,0,1,0-2.168,1.482,1.482,0,0,1,1.064-.42,1.521,1.521,0,0,1,1.074.42,1.533,1.533,0,0,1,0,2.168Z"/>
    <path id="Path_940" data-name="Path 940" d="M88.469,4786.591v1.465H86.516v4.043H84.777v-4.043H78.391v-1.192l6.113-9.433h2.012v9.16Zm-8.164,0h4.472V4782.1q0-.371.118-2.657h-.079q-.468.979-1.171,2.149Z"/>
    <path id="Path_941" data-name="Path 941" d="M95.724,4777.45l1.543.352a18.9,18.9,0,0,1-2.021,4.013,14.936,14.936,0,0,1-2.705,3.116,7.609,7.609,0,0,0-1.25-1.075,12.234,12.234,0,0,0,2.6-2.792A15.008,15.008,0,0,0,95.724,4777.45Zm-1.465,5.742h12.032c-.014.326-.027.56-.039.7q-.255,4.531-.547,6.484a5.172,5.172,0,0,1-.821,2.519,2.1,2.1,0,0,1-1.523.684,26.567,26.567,0,0,1-2.793-.039,2.734,2.734,0,0,0-.488-1.426q1.152.1,2.734.1a1.066,1.066,0,0,0,.8-.235q.741-.741,1.113-7.382H99.591a14.384,14.384,0,0,1-2.168,5.517,10.89,10.89,0,0,1-4.082,3.506,6.008,6.008,0,0,0-1.152-1.152,9.22,9.22,0,0,0,3.818-3,12.074,12.074,0,0,0,1.963-4.873H94.259Zm3.594-7.48h6.25a14.874,14.874,0,0,0,2.236,4.58,10.978,10.978,0,0,0,3.428,3.193,4.738,4.738,0,0,0-1.035,1.309,12.761,12.761,0,0,1-3.369-3.262,17.168,17.168,0,0,1-2.334-4.433H97.853Z"/>
    <path id="Path_942" data-name="Path 942" d="M120.441,4790.165l.1,1.25q-1.271.292-3.809.83t-3.594.772l-.312-1.387q2.109-.351,3.3-.586v-6.074H113v-1.289h3.125v-2.129h-2.05v-.9q-.274.275-.821.782a4.185,4.185,0,0,0-.918-.938,13.428,13.428,0,0,0,3.731-5.117h1.348a22.862,22.862,0,0,1,3.4,3.516l-1,1.132a18.786,18.786,0,0,0-2.891-3.3,20.069,20.069,0,0,1-2.519,3.554h5.234v1.27h-2.207v2.129h2.852v1.289h-2.852v5.8q.234-.039,1.328-.264T120.441,4790.165Zm-6.973-3.887,1.016-.234a13.032,13.032,0,0,1,.8,3.75l-1.094.293A14.893,14.893,0,0,0,113.468,4786.278Zm5.664,3.438-.976-.254a26.985,26.985,0,0,0,.82-3.594l1.152.293Q119.543,4788.427,119.132,4789.716Zm7.012,2.246h4.824v1.191H119.777v-1.191h5v-1.543h-3.906v-1.133h3.906V4788h-3.75v-5.84h9.1V4788h-3.984v1.289h4.043v1.133h-4.043ZM122.1,4778.1l.84-.176h-2.324v-1.152h4.121v-1.348h1.406v1.348h4.316v1.152h-2.148l.664.195q-.429.9-1.016,1.934h2.989v1.172h-10.9v-1.172h2.813A10.842,10.842,0,0,0,122.1,4778.1Zm.137,5.058v1.426h2.539v-1.426Zm0,3.848h2.539v-1.445h-2.539Zm4.746-6.953-.274-.1a13.123,13.123,0,0,0,.938-2.031h-4.3a7.112,7.112,0,0,1,.859,1.992l-.468.137Zm1.875,4.531v-1.426h-2.715v1.426Zm0,2.422v-1.445h-2.715V4787Z"/>
    <path id="Path_943" data-name="Path 943" d="M151.915,4778.1h-5.957v2.89h5.254v12.481h-1.5v-1.152h-12.93v1.23h-1.426v-12.559h4.727v-2.89h-5.586v-1.426h17.422Zm-15.137,12.851h12.93v-4.316a1.418,1.418,0,0,1-.508.791,1.66,1.66,0,0,1-.937.225H146.29a2.024,2.024,0,0,1-1.445-.372,2.19,2.19,0,0,1-.352-1.464v-3.457h-2.949v.937a5.827,5.827,0,0,1-3.555,5.527,3.554,3.554,0,0,0-1.054-.976q3.2-1.542,3.2-4.57v-.918h-3.36Zm7.715-9.961v-2.89h-2.949v2.89Zm5.215,4.3v-2.929H145.9v3.457a.6.6,0,0,0,.1.42.848.848,0,0,0,.488.087h1.6a.425.425,0,0,0,.439-.263,4.593,4.593,0,0,0,.127-1.26A3.319,3.319,0,0,0,149.708,4785.282Z"/>
    <path id="Path_944" data-name="Path 944" d="M161.573,4786.278l.332,1.309q-2.187,1.016-5.976,2.676l-.567-1.426q1.211-.448,2.7-1.074v-6.211H155.6v-1.406h2.461V4775.6h1.406v4.551h2.187v1.406h-2.187v5.625q.39-.155,1.113-.469Zm10.274-3.183.918.371a14.4,14.4,0,0,1-3.438,6.465,12.238,12.238,0,0,0,4.512,2.383,4.039,4.039,0,0,0-.938,1.269,13.4,13.4,0,0,1-4.628-2.637,15.919,15.919,0,0,1-4.512,2.676,4.222,4.222,0,0,0-.84-1.211,13.61,13.61,0,0,0,4.375-2.48,16.089,16.089,0,0,1-3.086-5.45h-.234q-.2,6.017-3.145,8.985a3.516,3.516,0,0,0-.508-.527,3.86,3.86,0,0,0-.586-.45,8.726,8.726,0,0,0,2.276-4.023,20.4,20.4,0,0,0,.576-4.981v-5.195h4.531v-2.91h1.445v2.91h3.809l.254-.059,1.074.293a34.384,34.384,0,0,1-1.308,4l-1.309-.312a22.284,22.284,0,0,0,.781-2.52h-3.3v3.457h3.008Zm-4.727-3.4h-3.125v3.457h3.125Zm3.887,4.785h-5.449a13,13,0,0,0,2.734,4.493A11.993,11.993,0,0,0,171.007,4784.481Z"/>
    <path id="Path_945" data-name="Path 945" d="M182.969,4786.415l.352,1.328q-3.966,1.719-6.016,2.6l-.586-1.465q1.269-.429,2.715-1.035v-6.231h-2.363v-1.386h2.363v-4.61h1.387v4.61h2.109v1.386h-2.109v5.684Zm12.149,2.051v1.289h-3.457v3.867h-1.407v-3.867h-7.343v-1.289h7.343v-3.184h1.407v3.184Zm-.938-3.535h-5.156a7.151,7.151,0,0,1-3.984,3.359,4,4,0,0,0-.86-1.016,6.652,6.652,0,0,0,3.34-2.343h-3.477v-7.481h3.614a20.466,20.466,0,0,0,.722-2.09l1.6.313q-.41.918-.859,1.777h5.058Zm-8.808-6.25v1.933h2.968v-1.933Zm0,5.039h2.734a7.1,7.1,0,0,0,.234-1.934v-.039h-2.968Zm7.382,0v-1.973h-3.1v.039a8.659,8.659,0,0,1-.2,1.934Zm0-3.106v-1.933h-3.1v1.933Z"/>
    <path id="Path_946" data-name="Path 946" d="M203.917,4786.513l.371,1.347q-1.6.744-5.645,2.539l-.527-1.5q.371-.136,2.5-.977v-6.309h-2.149v-1.386h2.149v-4.61h1.347v4.61H203.9v1.386h-1.934v5.743c.157-.065.459-.2.909-.391S203.669,4786.617,203.917,4786.513Zm12.5-7.6H206.065v4.649q0,6.913-2.656,10.058a4.242,4.242,0,0,0-1.172-.84,8.772,8.772,0,0,0,1.328-2.109,10.239,10.239,0,0,0,.752-2.471q.224-1.3.3-2.324t.078-2.314v-5.938h5.019v-2.207h1.406v2.207h5.294Zm-1.407,3.867h1.5v1.25h-1.5v2.422H211.4v1.094H210.03v-1.094h-3.067v-1.094h3.067v-1.406h-3.848v-1.074h3.848v-1.328h-3.008v-1.094h3.008v-1.426H211.4v1.426h3.613Zm-8.32,10.84v-5.762h8.437v5.743h-1.386v-.7h-5.7v.723Zm7.051-4.531h-5.7v2.578h5.7Zm-2.344-7.539v1.328h2.3v-1.328Zm0,3.808h2.3v-1.406h-2.3Z"/>
    <path id="Path_947" data-name="Path 947" d="M224.023,4778.29l1.6.469a19.837,19.837,0,0,1-2.119,3.379,15.471,15.471,0,0,1-2.705,2.773,8.317,8.317,0,0,0-1.172-1.015,13.891,13.891,0,0,0,2.559-2.569A13.549,13.549,0,0,0,224.023,4778.29Zm7.149,8.652,1.367-.644q1.407,1.563,2.783,3.437a29.347,29.347,0,0,1,2.1,3.2l-1.426.8q-.254-.508-.937-1.64-11.036.546-14.219.683l-.195-1.543q.6-.018,2.812-.1a52.237,52.237,0,0,0,3.77-8.731l1.7.43a88.388,88.388,0,0,1-3.809,8.242q.508-.02,8.965-.391A40.1,40.1,0,0,0,231.172,4786.942Zm-5.8-10.7H232.7a19.232,19.232,0,0,0,2.344,4.131,15.469,15.469,0,0,0,3.027,3.194,4.844,4.844,0,0,0-1.308,1.054,16.738,16.738,0,0,1-2.764-3.037,25.522,25.522,0,0,1-2.334-3.877h-6.289Z"/>
    <path id="Path_948" data-name="Path 948" d="M241.806,4776.239h16.6v17.383h-1.465v-.84H243.232v.84h-1.426Zm1.426,15.2h13.711v-13.829H243.232Zm11.543-5.293.957.586a16.917,16.917,0,0,1-2.5,1.7,12.381,12.381,0,0,0,3.164,1.289,3.458,3.458,0,0,0-.82.976,13.44,13.44,0,0,1-2.774-1.259,11.461,11.461,0,0,1-2.363-1.827v3.262h-1.328V4787.9a21.685,21.685,0,0,1-4.395,2.305,4.642,4.642,0,0,0-.879-1,16.378,16.378,0,0,0,5.274-2.676h-3.633v-3.379h9.3Zm1.172-4.864v.957H244.208v-.957h5.157v-1.25h-4v-.937h4v-1.113h1.347v1.113h4.18v.937h-4.18v1.25Zm-9.219,2.754v1.582h6.719v-1.582Zm7.559,2.5h-3.418a9.3,9.3,0,0,0,1.543,1.367Q253.545,4787.119,254.287,4786.532Z"/>
    <path id="Path_949" data-name="Path 949" d="M269.843,4788.329l-.429-1.055q2.382-1,2.519-2.929a2.389,2.389,0,0,1-.351.019,1.582,1.582,0,0,1-1.075-.371,1.317,1.317,0,0,1-.429-1.054,1.334,1.334,0,0,1,.439-1.065,1.6,1.6,0,0,1,1.084-.381,1.462,1.462,0,0,1,1.25.615,2.821,2.821,0,0,1,.449,1.69,4.374,4.374,0,0,1-.927,2.783A5.417,5.417,0,0,1,269.843,4788.329Z"/>
    <path id="Path_950" data-name="Path 950" d="M287.177,4787.978a.765.765,0,0,0,.674-.44,3.15,3.15,0,0,0,.166-1.182,6.9,6.9,0,0,0-1.465-4.14q.624-1.816,1.308-4.649h-2.031v16.055H284.52v-17.4h3.829l.175-.059.918.547q-1.23,4.181-1.66,5.371a7.516,7.516,0,0,1,1.5,4.434q0,1.778-.722,2.3a2.82,2.82,0,0,1-1.993.391,2.99,2.99,0,0,0-.293-1.269A7.809,7.809,0,0,0,287.177,4787.978Zm5.351-2.93v4.766a4,4,0,0,0,3.633,2.226,55.175,55.175,0,0,0,6.055-.1,5.4,5.4,0,0,0-.391,1.329q-3.4.135-5.7.039a4.932,4.932,0,0,1-4.18-2.325q-1.191,1.251-2.539,2.539l-.742-1.289q1.171-.937,2.6-2.3V4786.3h-1.68v-1.25Zm-3.242-4.219,1.016-.664a9.159,9.159,0,0,1,1.992,2.5l-1.074.8A8.989,8.989,0,0,0,289.286,4780.829Zm3.477-2.305-1.114.723a10.1,10.1,0,0,0-1.738-2.676l1.074-.625A9.29,9.29,0,0,1,292.763,4778.524Zm2.832,1.68v-.937a11.6,11.6,0,0,1-2.285,3.379,8.415,8.415,0,0,0-1.036-.84,9.579,9.579,0,0,0,2.442-3.672h-1.875v-1.074h2.265a16.627,16.627,0,0,0,.43-1.7l1.27.2q-.059.312-.391,1.5h5.41v1.074h-5.761q-.235.645-.45,1.094h5.528v.976h-2.266v1.289h3.086v.977H294.5v-.977h3.086V4780.2Zm5.332,3.379v6.27a1.7,1.7,0,0,1-.117.712.8.8,0,0,1-.43.381,7.248,7.248,0,0,1-2.09.176,3.393,3.393,0,0,0-.371-1.016c.442.014.918.02,1.426.02a.245.245,0,0,0,.254-.273v-1.211h-4.082v2.441h-1.25v-7.5ZM299.6,4784.6h-4.082v1.035H299.6Zm-4.082,3.047H299.6v-1.055h-4.082Z"/>
    <path id="Path_951" data-name="Path 951" d="M323.124,4788.5v1.269h-8.145v2.344a1.726,1.726,0,0,1-.205.938,1.182,1.182,0,0,1-.732.449,22.682,22.682,0,0,1-3.633.156,4.715,4.715,0,0,0-.508-1.23q.684.018,3.047.019a.846.846,0,0,0,.391-.088.329.329,0,0,0,.1-.283v-2.305H305.39V4788.5h8.046v-1.191h.879a22.03,22.03,0,0,0,3.379-1.211H307.265v-1.231h12.578l.351-.058.977.8a23.423,23.423,0,0,1-6.192,2.559v.332Zm-.273-11.406v1.308H305.585V4777.1h7.832v-1.739h1.543v1.739Zm-2.325,6.562H308.1v-3.984h12.422Zm-10.976-2.91v1.836h9.414v-1.836Z"/>
    <path id="Path_952" data-name="Path 952" d="M331.59,4781.649v1.973h3.36v1.25h-3.36v2.09h2.832v6.074h-1.406v-.625h-4.16v1h-1.387v-6.445h2.7v-2.09h-3.438v-1.25h3.438v-1.973h-2.383v-.839c-.066.065-.176.166-.332.3s-.267.238-.332.3a3.623,3.623,0,0,0-.977-.957,15.141,15.141,0,0,0,3.867-5.078h1.387a22.293,22.293,0,0,1,3.731,3.711l-1,1.152a20.7,20.7,0,0,0-3.2-3.515,20.4,20.4,0,0,1-2.754,3.671h5.957v1.25Zm1.426,9.532v-2.969h-4.16v2.969Zm10.684-8.828,1.035.293a38.757,38.757,0,0,1-1.621,4.316l-1.231-.332a20.062,20.062,0,0,0,1.016-2.891h-2.578v8.145a2.28,2.28,0,0,1-.166.967,1.084,1.084,0,0,1-.6.517,11.719,11.719,0,0,1-3.047.235,5.074,5.074,0,0,0-.449-1.407q1.074.02,2.4.02.411-.019.411-.352v-8.125h-3.809v-1.328h5.859a14.34,14.34,0,0,0-2.09-1.553,21.383,21.383,0,0,0-2.539-1.377l.918-.957a15.06,15.06,0,0,1,2.286,1.133,12.629,12.629,0,0,0,2.187-2.07h-6.27v-1.328H342.8l.274-.078.976.664a15.189,15.189,0,0,1-3.4,3.535,11.972,11.972,0,0,1,1.562,1.23l-.742.8h1.973Z"/>
    <path id="Path_953" data-name="Path 953" d="M351.971,4784.618v5.059q1.386,2.09,5.058,2.246,1.6.059,4.512.029t4.629-.146a4.634,4.634,0,0,0-.488,1.406q-4.845.176-8.633.039a10.352,10.352,0,0,1-3.379-.625,5.737,5.737,0,0,1-2.344-1.7q-1,.977-2.832,2.558l-.742-1.425q1.542-1.152,2.793-2.266V4786h-2.617v-1.387Zm.469-2.656L351.4,4783a11.767,11.767,0,0,0-3.359-2.4l.937-.938A11.662,11.662,0,0,1,352.44,4781.962Zm.566-3.945-1.035,1a8.808,8.808,0,0,0-1.377-1.27,14.375,14.375,0,0,0-1.826-1.211l.976-.918A11.924,11.924,0,0,1,353.006,4778.017Zm2.539.41.684-.2h-3.164v-1.191h5.527v-1.68h1.465v1.68h5.8v1.191h-3.086l.528.157q-.176.351-1.074,1.914h2.929v8.789a2.2,2.2,0,0,1-.136.869.992.992,0,0,1-.528.479,8.266,8.266,0,0,1-2.519.234,4.659,4.659,0,0,0-.469-1.289q1.407.059,1.953.019.293,0,.293-.312v-7.617h-3.789v1.367h2.988v1.015h-2.988v1.426h2.129v3.594H357.83v.762h-1.074v-4.356h2.051v-1.426h-2.969v-1.015h2.969v-1.367h-3.653v9.218h-1.367V4780.3h2.578A7.349,7.349,0,0,0,355.545,4778.427Zm5.547,1.875-.215-.059a15,15,0,0,0,.938-2.012h-4.942a6.275,6.275,0,0,1,.859,1.973l-.371.1Zm-.1,7.637v-1.719H357.83v1.719Z"/>
    <path id="Path_954" data-name="Path 954" d="M374.266,4775.5l1.484.469a29.513,29.513,0,0,1-2.187,4.277v13.36H372.1v-11.231a20.88,20.88,0,0,1-2.344,2.656,6.15,6.15,0,0,0-.9-1.5,17.625,17.625,0,0,0,3.1-3.554A21.455,21.455,0,0,0,374.266,4775.5Zm13.105,6.387h-4.922a24.626,24.626,0,0,0,2.442,4.619,15.334,15.334,0,0,0,2.988,3.408,4.562,4.562,0,0,0-1.113,1.211,17.688,17.688,0,0,1-2.784-3.457,30.514,30.514,0,0,1-2.392-4.59v10.567h-1.465V4783.5a26.782,26.782,0,0,1-2.383,4.394,16.971,16.971,0,0,1-2.812,3.3,7.085,7.085,0,0,0-1.114-1.133,14.6,14.6,0,0,0,3.077-3.466,24.806,24.806,0,0,0,2.451-4.717H374.5v-1.445h5.625v-4.805h1.465v4.805h5.781Z"/>
    <path id="Path_955" data-name="Path 955" d="M398.552,4782.958h-5.371v10.664h-1.445v-17.344h6.816Zm-1.386-5.469h-3.985v1.524h3.985Zm-3.985,4.258h3.985v-1.562h-3.985Zm9.824,2.344v7.363a2.057,2.057,0,0,1-.136.85.871.871,0,0,1-.528.42,8.819,8.819,0,0,1-2.558.215,3.422,3.422,0,0,0-.41-1.192q1.6.039,1.992,0c.208-.013.312-.11.312-.293v-1.6h-3.984a6.6,6.6,0,0,1-1.465,3.4,4,4,0,0,0-1.152-.7,7,7,0,0,0,1.445-4.844v-3.613Zm-5.214,4.726h3.886v-1.289H397.83v.2C397.83,4788.206,397.816,4788.57,397.791,4788.817Zm3.886-3.593H397.83v1.25h3.847Zm6.075-8.946v15.508q0,1.25-.782,1.582a11.533,11.533,0,0,1-3.144.254,4.587,4.587,0,0,0-.528-1.406q.586.02,2.539.019a.4.4,0,0,0,.43-.449v-8.828h-5.508v-6.68Zm-1.485,1.211h-4.1v1.524h4.1Zm-4.1,4.258h4.1v-1.562h-4.1Z"/>
    <path id="Path_956" data-name="Path 956" d="M421.921,4791.552h8.106V4793H412.292v-1.445H420.4v-5.078H414.46v-1.426H420.4v-4.375h-4.707a17.08,17.08,0,0,1-2.09,3.262,6.471,6.471,0,0,0-1.348-.879,17.5,17.5,0,0,0,3.711-7.364l1.5.332a26.425,26.425,0,0,1-1.133,3.2H420.4v-3.848h1.523v3.848h7.168v1.445h-7.168v4.375h6.426v1.426h-6.426Z"/>
    <path id="Path_957" data-name="Path 957" d="M437.927,4783.075l-.86,1.231a36.55,36.55,0,0,0-3.672-2.168l.821-1.074Q437.009,4782.489,437.927,4783.075Zm-2.813,10.293-1.23-1.015a50,50,0,0,0,3.769-6.387l1.074.976A66.366,66.366,0,0,1,435.114,4793.368Zm3.828-15.683-.859,1.191a41.068,41.068,0,0,0-3.711-2.207l.82-1.055A33.482,33.482,0,0,1,438.942,4777.685Zm12.618,4.941h-5.489v3.281h4.18v7.617h-1.406v-.742h-7.129v.84h-1.367v-7.715h4.316v-3.281H438.9v-1.445h5.762v-3.242q-2.442.351-4.414.546a6.551,6.551,0,0,0-.391-1.269,45.126,45.126,0,0,0,9.668-1.777l1.192,1.152a29.038,29.038,0,0,1-4.649,1.133v3.457h5.489Zm-2.715,8.77v-4.122h-7.129v4.122Z"/>
    <path id="Path_958" data-name="Path 958" d="M462.233,4788.329l-.429-1.055q2.382-1,2.519-2.929a2.389,2.389,0,0,1-.351.019,1.58,1.58,0,0,1-1.074-.371,1.315,1.315,0,0,1-.43-1.054,1.334,1.334,0,0,1,.439-1.065,1.6,1.6,0,0,1,1.084-.381,1.462,1.462,0,0,1,1.25.615,2.814,2.814,0,0,1,.449,1.69,4.374,4.374,0,0,1-.927,2.783A5.417,5.417,0,0,1,462.233,4788.329Z"/>
    <path id="Path_959" data-name="Path 959" d="M484.782,4784.228H481.93a14.026,14.026,0,0,0,1.133,3.252,8.8,8.8,0,0,0,1.514,2.2,6.243,6.243,0,0,0,1.884,1.308,8.277,8.277,0,0,0,2.1.655,14.7,14.7,0,0,0,2.334.166q1.308.039,3.691-.02a3.815,3.815,0,0,0-.507,1.426H490.8a16.2,16.2,0,0,1-2.734-.205,9.281,9.281,0,0,1-2.4-.781,6.922,6.922,0,0,1-2.119-1.553,10.272,10.272,0,0,1-1.68-2.6,18.536,18.536,0,0,1-1.279-3.847H479.1a24.408,24.408,0,0,1-1.933,9.453,3.317,3.317,0,0,0-.616-.45,4.66,4.66,0,0,0-.673-.351q1.8-3.633,1.8-11.309V4776.2h7.11Zm-5.625-6.661v4q0,.821-.02,1.27h4.2v-5.274Zm8.633,7.168,1.289.352a14.5,14.5,0,0,1-3.028,4.785,7.123,7.123,0,0,0-1.093-.8A12.248,12.248,0,0,0,487.79,4784.735Zm5.546-8.457v7.364h-6.953v-7.364Zm-1.425,6.055v-4.746h-4.18v4.746Zm-1.368,2.891,1.133-.528a24.148,24.148,0,0,1,2.617,4.219l-1.23.625A28.227,28.227,0,0,0,490.543,4785.224Z"/>
    <path id="Path_960" data-name="Path 960" d="M513.795,4784.13h-5.371q1.8,6.426,7.285,8.125a3.732,3.732,0,0,0-1.035,1.348q-5.8-2.13-7.754-9.473h-5.176q-.391,6.348-3.144,9.59a4.619,4.619,0,0,0-1.231-1.055,10.149,10.149,0,0,0,1.553-2.461,12.313,12.313,0,0,0,.888-2.881,26.154,26.154,0,0,0,.362-2.705q.087-1.191.088-2.676v-5.6h13.535ZM501.8,4777.8v4.883h10.468V4777.8Z"/>
    <path id="Path_961" data-name="Path 961" d="M524.293,4783.446l.234,1.289c-.221.092-.553.228-1,.411s-.775.312-1,.39v6.445q0,1.094-.625,1.407a7.7,7.7,0,0,1-2.4.234,5.292,5.292,0,0,0-.43-1.308q1.425.037,1.817,0,.351,0,.351-.333v-5.937l-2.266.879-.332-1.406q.9-.294,2.6-.938v-3.848H518.9v-1.347h2.344v-4h1.289v4h1.66v1.347h-1.66v3.36Zm4.082-2.343,1.113.449a65.869,65.869,0,0,1-3.32,5.84l1.953-.313c.091-.377.169-.8.234-1.269l1.211.214q-.9,5.49-4.941,7.676a2.927,2.927,0,0,0-.879-1,8.091,8.091,0,0,0,3.965-4.375q-2.109.411-3.984.723l-.2-1.231q.586-.1,1.25-.175.528-.762,1.543-2.481a12.251,12.251,0,0,0-2.422-2.91l.7-.957q.508.45.625.586a17.3,17.3,0,0,0,1.407-3.086l1.172.508q-1.251,2.5-1.817,3.359a9.172,9.172,0,0,1,1,1.289A31.1,31.1,0,0,0,528.375,4781.1Zm8.555-3.868v1.309h-12.5v-1.309h5.449v-1.855H531.3v1.855Zm.234,14.278v1.211H531.5v.879h-1.172v-8.965c-.208.351-.417.671-.625.957a6.574,6.574,0,0,0-.976-.821,16.37,16.37,0,0,0,2.558-6l1.192.274q-.216.9-.743,2.461H533.4a26.985,26.985,0,0,0,.8-2.735l1.27.352-.43,1.143q-.312.83-.469,1.24h2.344v1.172h-2.4v2.148h2.09v1.094h-2.09v2.187h2.129v1.094h-2.129v2.305Zm-3.789-6.68v-2.148H531.5v2.148Zm0,3.281v-2.187H531.5v2.187Zm-1.875,1.094v2.305h1.875v-2.305Z"/>
    <path id="Path_962" data-name="Path 962" d="M84.992,4824.11l.2,1.348-2.11.664v5.7q0,1.171-.683,1.5a7.619,7.619,0,0,1-2.637.274,4.983,4.983,0,0,0-.43-1.426q1.425.059,1.973.019a.382.382,0,0,0,.273-.078.415.415,0,0,0,.078-.293v-5.293l-2.695.84-.332-1.426q.586-.135,3.027-.84v-4.375H78.957v-1.347h2.695v-4h1.426v4h1.934v1.347H83.078v3.946Zm4.356,8.047h4.98a1.186,1.186,0,0,0,1.172-.537,7.432,7.432,0,0,0,.391-2.373,3.414,3.414,0,0,0,1.367.547,6.068,6.068,0,0,1-.742,2.92,2.557,2.557,0,0,1-2.149.752H89.309a4.138,4.138,0,0,1-2.413-.5,2.408,2.408,0,0,1-.634-1.963v-9.043a9.423,9.423,0,0,1-.645.781,9.533,9.533,0,0,0-1.172-.937,13.967,13.967,0,0,0,3.4-6.465l1.445.312a23.856,23.856,0,0,1-.8,2.305h7.95v.684q-.158,5-.333,6.963a5.393,5.393,0,0,1-.585,2.47,1.5,1.5,0,0,1-1.172.645,12.289,12.289,0,0,1-2.188.019,3.276,3.276,0,0,0-.371-1.386q.82.078,1.856.078a.7.7,0,0,0,.644-.254q.507-.723.7-7.871H87.883q-.313.625-1.094,1.914h5.879v5.742H87.707V4831q0,.723.3.937A2.648,2.648,0,0,0,89.348,4832.157Zm1.933-9.629H87.707v3.125h3.574Z"/>
    <path id="Path_963" data-name="Path 963" d="M105.063,4827.431l.273,1.328q-.351.137-5.449,2.187l-.489-1.465q.411-.135,2.344-.82v-7.07H99.633v-1.367h2.109V4815.6h1.387v4.629h1.894v1.367h-1.894v6.562Zm10.7-5.41,1.367.214a23.334,23.334,0,0,1-2.793,6.739q.78,3.046,1.738,3.047.546,0,.664-3.282a2.808,2.808,0,0,0,1.094.762,9.569,9.569,0,0,1-.557,3.1,1.41,1.41,0,0,1-1.377.821q-1.581,0-2.578-3.008a15.125,15.125,0,0,1-3.34,3.145,4.009,4.009,0,0,0-1.035-1.016,13.041,13.041,0,0,0,3.926-3.789,51.941,51.941,0,0,1-.957-8.965H107.23v2.676h3.829c0,.286-.007.488-.02.6q-.039,3.516-.146,4.9a4.043,4.043,0,0,1-.381,1.757,1.3,1.3,0,0,1-1.016.567,13.428,13.428,0,0,1-1.8,0,3.128,3.128,0,0,0-.332-1.27q.684.058,1.563.059.39,0,.468-.195.294-.392.372-5.157h-2.54v.879q0,6.25-2.46,9.082a3.928,3.928,0,0,0-.518-.5,4.509,4.509,0,0,0-.6-.439,7.978,7.978,0,0,0,1.768-3.6,21.893,21.893,0,0,0,.439-4.56v-6.172h6.016q-.059-1.483-.059-3.067h1.426q0,2.091.02,3.067h2.675a13.233,13.233,0,0,0-2.3-2.285l1-.645a10.32,10.32,0,0,1,2.383,2.246l-1,.684h1.464v1.367h-4.179a64.335,64.335,0,0,0,.644,7.207A21.187,21.187,0,0,0,115.766,4822.021Z"/>
    <path id="Path_964" data-name="Path 964" d="M137.965,4819.579H129.7v2.695h6.426v7.012a2.153,2.153,0,0,1-.186,1.006,1.179,1.179,0,0,1-.673.518,13.509,13.509,0,0,1-3.516.273,6.327,6.327,0,0,0-.508-1.465q1.349.04,2.891.039a.883.883,0,0,0,.351-.107.3.3,0,0,0,.1-.264V4823.7H129.7v9.981H128.18V4823.7h-4.571v7.461h-1.484v-8.887h6.055v-2.695h-8.106v-1.465h8.086v-2.832h1.563v2.832h8.242Z"/>
    <path id="Path_965" data-name="Path 965" d="M141.336,4826.708l1.269.215a16.854,16.854,0,0,1-1.386,5.078,3.854,3.854,0,0,0-1.094-.547A14.665,14.665,0,0,0,141.336,4826.708Zm5-1.6-1.582.1v8.418h-1.309v-8.34l-3.144.2-.137-1.348,1.367-.059q.938-1.21,1.25-1.66a16.378,16.378,0,0,0-2.48-2.89l.8-.938.6.547a28.277,28.277,0,0,0,1.777-3.75l1.289.488a35.078,35.078,0,0,1-2.285,4.1q.489.526,1.075,1.289a39.325,39.325,0,0,0,2.128-3.613l1.27.566a59.8,59.8,0,0,1-4.023,5.781l2.89-.137a18.567,18.567,0,0,0-.9-1.679l1.093-.43a14.687,14.687,0,0,1,1.915,4.082l-1.172.547A7.026,7.026,0,0,0,146.336,4825.106Zm-.9,1.875,1.093-.332a12.449,12.449,0,0,1,1.074,3.614l-1.171.332A11.518,11.518,0,0,0,145.438,4826.981Zm5.976,1.543.449,1.114q-3.242,2.343-4.179,2.988l-.762-1.289Q148,4830.692,151.414,4828.524Zm5.781-3.886,1.133.879a25.892,25.892,0,0,1-3.066,2.636,8.174,8.174,0,0,0,3.574,3.321,6.685,6.685,0,0,0-.938,1.23,9.779,9.779,0,0,1-4.277-5.176v4.59a2.179,2.179,0,0,1-.137.869.847.847,0,0,1-.527.44,7.644,7.644,0,0,1-2.441.234,5.44,5.44,0,0,0-.411-1.289,18.1,18.1,0,0,0,1.836.02c.208,0,.313-.1.313-.293v-8.321h-4.746v-1.25H154.4c.013-.065.059-.279.137-.644s.137-.645.176-.84h-4.59l-.2.664-1.426-.234a54.279,54.279,0,0,0,1.6-6.094l1.407.176-.332,1.386h4.414l.254-.058,1,.156q-.274,2.091-1.035,5.488h2.617v1.25h-4.785a13.791,13.791,0,0,0,1.054,3.321A17.341,17.341,0,0,0,157.2,4824.638Zm-5.781,2.715-1.055.9a10.948,10.948,0,0,0-2.3-2.656l1.015-.8A12.108,12.108,0,0,1,151.414,4827.353Zm-.976-7.5h4.531q.059-.333.166-.918c.071-.391.12-.664.146-.821h-4.375q-.059.256-.224.84C150.571,4819.345,150.489,4819.645,150.438,4819.853Z"/>
    <path id="Path_966" data-name="Path 966" d="M162.051,4833.173l-1.133-.781a6.34,6.34,0,0,0,2.793-3.457l1.269.468A7.357,7.357,0,0,1,162.051,4833.173Zm16.523-13.125v1.211H161.523v-1.211h4.747a8.833,8.833,0,0,0-.84-1.992l.664-.157h-3.672v-1.191h6.816v-1.348H170.7v1.348h6.856v1.191H174l.762.157q-.411.781-1.153,1.992Zm-2.187,2.207v5.684h-7.442a11.936,11.936,0,0,1,3.125,1.855l-.918.937a12.11,12.11,0,0,0-3.32-2.05l.762-.742H163.77v-5.684Zm-1.446,2.305v-1.172h-9.765v1.172Zm0,2.265v-1.23h-9.765v1.23Zm-6.308,5.391h3.535q.645,0,.82-.342a5.388,5.388,0,0,0,.254-1.67,4.128,4.128,0,0,0,1.25.488,4.2,4.2,0,0,1-.537,2.207,2.03,2.03,0,0,1-1.65.547h-3.789a3.786,3.786,0,0,1-2.022-.371,1.68,1.68,0,0,1-.517-1.445v-2.559h1.464v2.559c0,.247.072.407.215.478A2.691,2.691,0,0,0,168.633,4832.216Zm4.551-14.317h-6.329a8.359,8.359,0,0,1,.86,1.973l-.567.176H172.7l-.488-.156Q172.831,4818.74,173.184,4817.9Zm1.25,11.563,1.152-.7a18.5,18.5,0,0,1,2.031,1.748,11.643,11.643,0,0,1,1.524,1.787l-1.192.742a9.807,9.807,0,0,0-1.474-1.787A19.813,19.813,0,0,0,174.434,4829.462Z"/>
    <path id="Path_967" data-name="Path 967" d="M188.41,4826.669a3.031,3.031,0,1,1,2.149.9A2.931,2.931,0,0,1,188.41,4826.669Zm.733-3.584a1.954,1.954,0,0,0-.6,1.436,1.918,1.918,0,0,0,.6,1.425,2.007,2.007,0,0,0,3.427-1.425,1.972,1.972,0,0,0-.586-1.436,1.99,1.99,0,0,0-2.841,0Z"/>
  </g>
</svg>
