<svg xmlns="http://www.w3.org/2000/svg" width="469.715" height="178.476" viewBox="0 0 469.715 178.476">
  <g id="txt5" transform="translate(-249.636 -5975.185)">
    <path id="Path_978" data-name="Path 978" d="M252.37,5988.114v-12.929h6.309v1.367h-4.844v11.562Z"/>
    <path id="Path_979" data-name="Path 979" d="M273.715,5991.864h2.578a.873.873,0,0,0,.488-.117.926.926,0,0,0,.284-.547,6.654,6.654,0,0,0,.156-1.064q.048-.635.088-1.865a3.93,3.93,0,0,0,1.386.664,9.738,9.738,0,0,1-.566,3.457,1.765,1.765,0,0,1-1.738.879h-2.852a2.611,2.611,0,0,1-1.8-.459,2.459,2.459,0,0,1-.469-1.748v-7.129h-3.73q-.117,1.406-.313,2.48a13.327,13.327,0,0,1-.615,2.217,8.176,8.176,0,0,1-1.045,2,8.082,8.082,0,0,1-1.63,1.631,10.071,10.071,0,0,1-2.354,1.318,3.281,3.281,0,0,0-.938-1.172,8.367,8.367,0,0,0,2.159-1.162,7.486,7.486,0,0,0,1.464-1.435,6.578,6.578,0,0,0,.919-1.768,12.048,12.048,0,0,0,.517-1.943q.154-.918.254-2.168H260.9v-1.446h17.5v1.446h-5.625v7.109a.9.9,0,0,0,.176.664A1.239,1.239,0,0,0,273.715,5991.864Zm3.008-14.922v1.426H262.641v-1.426Z"/>
    <path id="Path_980" data-name="Path 980" d="M290.918,5992.079h8.047v1.094H281.543v-1.094h7.91v-1.055h-6v-.976h6v-1.016q-1.406.021-3.672.039t-2.715.02l-.078-1.016q.858.021,2.93.02.468-.469,1-1.094h-3.066v-.918h12.7V5987H294.1a20.789,20.789,0,0,1,3.671,2.012l-.878.8a10.468,10.468,0,0,0-1.309-.86q-1.543.04-4.668.078v1.016h6.25v.976h-6.25Zm-1.465-13.457v-1.035h-7.89v-1.055h7.89v-1.172h1.465v1.172h8.027v1.055h-8.027v1.035H297.5v.977H282.988v-.977Zm9.1,8.4h-1.387v-1.8H283.262v1.8h-1.348v-2.852h16.641Zm-14.668-6.582h12.754v2.89H283.887Zm11.308,2.011v-1.133h-9.922v1.133ZM292.7,5987h-4.062q-.489.528-1.094,1.113,4.219,0,6.465-.019-1.172-.546-1.738-.742Z"/>
    <path id="Path_981" data-name="Path 981" d="M308,5986.181l.312,1.347-6.171,2.93-.547-1.484q.938-.332,2.7-1.114v-6.25h-2.324v-1.386h2.324v-4.649h1.387v4.649h2.09v.215h3.32a8.741,8.741,0,0,0-.781-2.051l.937-.254h-2.851v-1.211H313.1V5975.4h1.425v1.524h4.981v1.211h-2.93l1.094.273q-.82,1.6-1.074,2.032h3.379v1.23H307.73v-.059h-2.05v5.625l1.25-.566Q307.75,5986.3,308,5986.181Zm8.672,6.035h1.6a.459.459,0,0,0,.469-.352,7.139,7.139,0,0,0,.137-1.64,3.054,3.054,0,0,0,1.25.507,5.213,5.213,0,0,1-.449,2.2,1.363,1.363,0,0,1-1.25.556H316.5a2.109,2.109,0,0,1-1.445-.351,2.032,2.032,0,0,1-.352-1.406v-3.008h-2.09a5.981,5.981,0,0,1-1.6,3.125,8.026,8.026,0,0,1-3.77,1.8,3.667,3.667,0,0,0-.84-1.25,7.743,7.743,0,0,0,3.36-1.328,4.2,4.2,0,0,0,1.386-2.344h-1.992V5982.7h9.707v6.016h-2.754v2.988a.6.6,0,0,0,.1.42A.793.793,0,0,0,316.676,5992.216Zm-6.113-8.477v1.485H317.4v-1.485Zm0,2.461v1.485H317.4V5986.2Zm5.644-8.066H311.6a7.236,7.236,0,0,1,.859,2.09l-.82.215h4.238l-.625-.157A21.1,21.1,0,0,0,316.207,5978.134Z"/>
    <path id="Path_982" data-name="Path 982" d="M328.1,5980.888v12.929H321.79v-1.386h4.844v-11.543Z"/>
    <path id="Path_983" data-name="Path 983" d="M340.985,5989.54l-1.035,1.094a36.347,36.347,0,0,0-2.617-3.34,10.269,10.269,0,0,1-3.418,6.113,3.712,3.712,0,0,0-1-1.093q3.047-2.265,3.359-7.7h-3.242v-1.347h3.3v-3.282h-2.871v-1.308h2.871v-3.106h1.387v3.106h2.812v1.308h-2.812v3.282h3.183v1.347h-3.242q-.021.45-.1,1.153Q338.7,5986.9,340.985,5989.54Zm7.285,2.422h1.27a.424.424,0,0,0,.274-.078.7.7,0,0,0,.165-.371,4.825,4.825,0,0,0,.1-.772c.02-.318.035-.791.049-1.416a3.3,3.3,0,0,0,1.23.547,7.523,7.523,0,0,1-.429,2.705,1.264,1.264,0,0,1-1.231.694h-1.621a1.744,1.744,0,0,1-1.338-.381,2.363,2.363,0,0,1-.322-1.455V5987.2h-1.777a9.039,9.039,0,0,1-1.338,4.014,6.609,6.609,0,0,1-3.448,2.393,3.372,3.372,0,0,0-.839-1.133,5.775,5.775,0,0,0,3.047-1.963,7.127,7.127,0,0,0,1.171-3.311h-1.6v-11.054h8.535V5987.2h-2.383v4.239a.767.767,0,0,0,.078.439C347.912,5991.933,348.049,5991.962,348.27,5991.962Zm-5.253-14.473v1.953h5.7v-1.953Zm0,3.184v1.973h5.7v-1.973Zm0,3.183v2.012h5.7v-2.012Z"/>
    <path id="Path_984" data-name="Path 984" d="M353.716,5993.134l-.117-1.192q.254-.018,11.465-.527l-.04,1.152Q355.924,5993.036,353.716,5993.134Zm10.136-16.485v1.934h1.25v1.016h-1.25v2.011h-3.906v.918h4.2v.938h-4.2v.918h5.039v1.035h-11.25v-1.035h4.844v-.918h-3.906v-.938h3.906v-.918h-3.75v-.937h3.75V5979.6h-4.961v-1.016h4.961v-.977h-3.672v-.957h3.672v-1.269h1.367v1.269Zm-8.906,9.629h8.887v4.4h-8.887Zm1.211.821v.957h2.578v-.957Zm0,1.777v.957h2.578v-.957Zm3.789-11.27v.977h2.618v-.977Zm2.618,3.067V5979.6h-2.618v1.074Zm.019,7.383v-.957h-2.559v.957Zm0,1.777v-.957h-2.559v.957Zm4.609-12.07v11h-1.347v-11Zm2.422-2.012h1.406v16.016a2.344,2.344,0,0,1-.185,1.045,1.234,1.234,0,0,1-.615.556,11.313,11.313,0,0,1-3.106.254,4.468,4.468,0,0,0-.449-1.445q1.875.059,2.48.019c.313-.012.469-.156.469-.429Z"/>
    <path id="Path_985" data-name="Path 985" d="M375.1,5992.1v-1.524h3.261v-10.937h-2.6v-1.153a8.925,8.925,0,0,0,3.046-1.054H380.2v13.144h2.949v1.524Z"/>
    <path id="Path_986" data-name="Path 986" d="M390.271,5992.353a6.337,6.337,0,0,1-4.648-1.934l.9-1.191a4.969,4.969,0,0,0,3.594,1.6,2.945,2.945,0,0,0,2.227-.947,3.5,3.5,0,0,0,.9-2.51,3.454,3.454,0,0,0-.83-2.451,2.893,2.893,0,0,0-2.217-.889,4.376,4.376,0,0,0-2.441.86l-.977-.586.469-6.875h7.129v1.562h-5.527l-.371,4.238a4.494,4.494,0,0,1,2.187-.566,4.431,4.431,0,0,1,3.184,1.172,4.583,4.583,0,0,1,1.23,3.477,4.863,4.863,0,0,1-1.416,3.671A4.706,4.706,0,0,1,390.271,5992.353Z"/>
    <path id="Path_987" data-name="Path 987" d="M406.107,5981.064h5.879a6.064,6.064,0,0,0,1.543,1.865,9.613,9.613,0,0,0,2.188,1.4,4.561,4.561,0,0,0-1.055.938,5.618,5.618,0,0,1-.781-.489v2.7H402.65v-2.852q-.742.489-1.015.625-.117-.155-.567-.644-.293,5.82-2.285,8.925a5.863,5.863,0,0,0-1.289-.761,12.409,12.409,0,0,0,1.729-4.776,38.588,38.588,0,0,0,.42-5.908V5976.3h14.824v3.984h-13.34v1.8q0,.645-.039,2.129a10.941,10.941,0,0,0,1.953-1.416,7.105,7.105,0,0,0,1.387-1.631l1.289.371a10.417,10.417,0,0,1-1.621,1.934h8.125a8.4,8.4,0,0,1-1.114-1.367h-5Zm6.875-3.575H401.127v1.582h11.855Zm-9.8,16.133v-5.391h10.137v5.352h-1.387v-.449h-7.4v.488Zm.7-9.277v2.226h3.75v-2.226Zm8.047,4.824h-7.4v1.074h7.4Zm-7.4,3.008h7.4v-1.113h-7.4Zm.2-7.344.761-.254a5.878,5.878,0,0,1,.977,1.582l-.781.293A5.389,5.389,0,0,0,404.721,5984.833Zm7.851,1.738v-2.226H408.7v2.226Zm-2.168-.078-.7-.273a15.243,15.243,0,0,0,.977-1.68l.918.313A14.623,14.623,0,0,1,410.4,5986.493Z"/>
    <path id="Path_988" data-name="Path 988" d="M423.232,5989.755l1.368.547a20.855,20.855,0,0,1-5.176,2.988,7.1,7.1,0,0,0-1.074-1.055A17.881,17.881,0,0,0,423.232,5989.755Zm12.891-6.875v1.211H418.584v-1.211h8.027v-1.25h-5.7v-5.547h12.969v5.547H428.1v1.25Zm-2.637,6.445h-5.351v2.871a1.672,1.672,0,0,1-.166.83.934.934,0,0,1-.6.4,12.358,12.358,0,0,1-2.91.2,4,4,0,0,0-.43-1.211q1.016.04,2.285.039a.5.5,0,0,0,.264-.078.271.271,0,0,0,.068-.215v-2.832h-5.273v-4.179h12.109ZM422.334,5977.1v1.269h10.078V5977.1Zm0,2.246v1.269h10.078v-1.269Zm.449,6.894v1.973h9.238v-1.973Zm7.149,4.317.957-.84a25.315,25.315,0,0,1,5.273,2.6l-1.035.917A24.936,24.936,0,0,0,429.932,5990.556Z"/>
    <path id="Path_989" data-name="Path 989" d="M454.773,5992.06h.917a.288.288,0,0,0,.215-.079.832.832,0,0,0,.147-.361,4.324,4.324,0,0,0,.088-.781q.018-.5.039-1.377a4.357,4.357,0,0,0,1.132.508,7.855,7.855,0,0,1-.371,2.646,1.11,1.11,0,0,1-1.093.674h-1.27a1.44,1.44,0,0,1-1.152-.361,2.3,2.3,0,0,1-.293-1.377v-4.336H451.8a10.859,10.859,0,0,1-.928,4.1,5.059,5.059,0,0,1-2.686,2.305,4.372,4.372,0,0,0-.839-1.074l.136-.078H441.53v.976H440.3v-6.015a9.269,9.269,0,0,1-.957,1.23,6.625,6.625,0,0,0-.8-1,11.6,11.6,0,0,0,2.6-4.492h-1.582v-3.652h3.808v3.652h-1.758l.723.215q-.2.508-.586,1.426h2.188q.505-1.368.586-1.641h-.274v-3.652h3.965v3.652h-3.516l1.075.293-.645,1.348h3.2v1.093H444.89v1.153h3.027v.976H444.89v1.192h3.027v1H444.89v1.172h3.5v.625a3.79,3.79,0,0,0,1.582-1.827,9.57,9.57,0,0,0,.547-2.978h-1.27v-11.074h7.07v11.074h-1.894v4.336a.926.926,0,0,0,.058.42C454.519,5992.03,454.616,5992.06,454.773,5992.06Zm-13.536-12.969V5977.8H439.05v-1.074h2.187v-1.309h1.289v1.309h2.657v-1.309h1.269v1.309h2.09v1.074h-2.09v1.289h-1.269V5977.8h-2.657v1.289Zm-.625,1.426v1.679h1.68v-1.679Zm3.047,6.543v-1.153H441.53v1.153Zm0,2.168v-1.192H441.53v1.192Zm-2.129,1v1.172h2.129v-1.172Zm3.789-9.707v1.679h1.8v-1.679Zm5.215-3.067v2.012h4.434v-2.012Zm0,3.2v2.012h4.434v-2.012Zm0,3.2v2.051h4.434v-2.051Z"/>
    <path id="Path_990" data-name="Path 990" d="M464.554,5982.255l.859.215a23.892,23.892,0,0,1-1.64,6.933,7.105,7.105,0,0,0,3.291,1.768,19.89,19.89,0,0,0,4.7.478q5.117,0,6.152-.019a4.4,4.4,0,0,0-.625,1.465h-5.566a20.8,20.8,0,0,1-5.049-.528,8.094,8.094,0,0,1-3.565-1.894,9.031,9.031,0,0,1-2.617,2.988,3.785,3.785,0,0,0-1.113-1.035,8.781,8.781,0,0,0,2.734-3.086,13.008,13.008,0,0,1-1.875-3.906l1.153-.43a10.121,10.121,0,0,0,1.347,2.969,18.563,18.563,0,0,0,1.133-4.551h-2.3l-.41.781-1.367-.39q1.484-2.774,2.969-6.055h-3.223v-1.328H463.5l.234-.078,1.016.312q-.625,1.485-2.539,5.43h2.07Zm5.879-.02v-1.484h-5.489v-1.172h5.489v-1.445h-4.082v-1.172h4.082v-1.445h1.445v1.445h4.4v2.617h1.5v1.172h-1.5v2.695h-4.4v1.465h4.59v1.153h-4.59v1.582h5.449v1.21h-5.449v2.129h-1.445v-2.129H465.2v-1.21h5.235v-1.582h-4.317v-1.153h4.317v-1.465h-4.219v-1.211Zm1.445-4.1v1.445h2.949v-1.445Zm2.949,4.1v-1.484h-2.949v1.484Z"/>
    <path id="Path_991" data-name="Path 991" d="M498.456,5983.837q-.02.645-.039.957a4.8,4.8,0,0,1-.107.713,1.164,1.164,0,0,1-.264.576,1.461,1.461,0,0,1-.479.3,2,2,0,0,1-.771.127h-.918a1.553,1.553,0,0,1-1.094-.332,2.459,2.459,0,0,1-.371-1.66v-3.008H491.64v.351a7.572,7.572,0,0,1-.059.938h2.09v1.074h-2.383a4.641,4.641,0,0,1-2.012,2.207h.684v1.5h8.2v1.211h-7.051a15.129,15.129,0,0,0,3.369,1.806,21.965,21.965,0,0,0,4.053,1.2,5.235,5.235,0,0,0-.957,1.25,22.51,22.51,0,0,1-4.15-1.524,15.271,15.271,0,0,1-3.467-2.207v4.278h-1.426v-4.3a15.659,15.659,0,0,1-3.476,2.275,20.235,20.235,0,0,1-4.122,1.533,4.391,4.391,0,0,0-.937-1.191,22.258,22.258,0,0,0,3.984-1.27,14.581,14.581,0,0,0,3.3-1.855h-6.875v-1.211h8.125v-1.113a9.67,9.67,0,0,1-1.015.429,3.675,3.675,0,0,0-.9-.976,5.976,5.976,0,0,0,3.184-2.051h-2.012V5982.8h2.461a4.165,4.165,0,0,0,.1-.957v-.332h-1.7v-1.055H495.8v4.121c0,.4.032.632.1.684a.5.5,0,0,0,.312.078h.527a.721.721,0,0,0,.449-.108.59.59,0,0,0,.176-.4c.027-.169.052-.684.078-1.543A2.8,2.8,0,0,0,498.456,5983.837Zm-14.59-5.723h-.879a13.361,13.361,0,0,1-1.7,2.071,6.928,6.928,0,0,0-1.191-.821,10.32,10.32,0,0,0,2.851-4.082l1.387.352c-.091.222-.293.644-.606,1.269H489v1.153a8.894,8.894,0,0,0,1.758-2.774l1.425.332a10.654,10.654,0,0,1-.625,1.289h6.563v1.211h-4.238a7.377,7.377,0,0,1,1.015,1.582l-1.269.45a9.173,9.173,0,0,0-1.289-2.032h-1.6a13.038,13.038,0,0,1-1.777,1.875,9.772,9.772,0,0,0-1.289-.722,8.166,8.166,0,0,0,1.269-1.153h-3.73a7.652,7.652,0,0,1,.781,1.621l-1.211.371A11.6,11.6,0,0,0,483.866,5978.114Zm-3.437,8.028-.176-1.25,3.223-.411v-2.714h-2.813v-1.094h6.914v1.094h-2.734v2.539q.879-.137,2.715-.41l.058,1.171q-1.25.2-3.73.557T480.429,5986.142Z"/>
    <path id="Path_992" data-name="Path 992" d="M508.238,5988.329l-.429-1.055q2.381-1,2.519-2.929a2.389,2.389,0,0,1-.351.019,1.584,1.584,0,0,1-1.075-.371,1.314,1.314,0,0,1-.429-1.054,1.334,1.334,0,0,1,.439-1.065,1.6,1.6,0,0,1,1.084-.381,1.463,1.463,0,0,1,1.25.615,2.821,2.821,0,0,1,.449,1.69,4.374,4.374,0,0,1-.927,2.783A5.422,5.422,0,0,1,508.238,5988.329Z"/>
    <path id="Path_993" data-name="Path 993" d="M525.207,5975.907h6.074a17.3,17.3,0,0,0,3.711,3.907,20.645,20.645,0,0,0,4.746,2.871,5.612,5.612,0,0,0-1,1.289,21.418,21.418,0,0,1-4.482-2.862,23.715,23.715,0,0,1-3.78-3.818,26.116,26.116,0,0,1-3.808,3.77,28.137,28.137,0,0,1-4.434,3.046,4.028,4.028,0,0,0-.918-1.191,21.547,21.547,0,0,0,3.907-2.412,24.745,24.745,0,0,0,3.535-3.213h-3.555Zm6,12.5v3.321H539v1.347H522.1v-1.347h7.578v-3.321h-5.606v-1.328h5.606v-3.066h-4.746v-1.328H536.1v1.328h-4.9v3.066h5.684v1.328Z"/>
    <path id="Path_994" data-name="Path 994" d="M554.832,5992.2H558c.378,0,.618-.1.723-.312a4.927,4.927,0,0,0,.215-1.524,4.607,4.607,0,0,0,1.269.469,3.873,3.873,0,0,1-.547,2.041,1.893,1.893,0,0,1-1.523.518H554.7a3.693,3.693,0,0,1-1.9-.332,1.553,1.553,0,0,1-.478-1.348v-1.426H549.4a3.8,3.8,0,0,1-1.992,2.266,14.516,14.516,0,0,1-4.707,1.074,3.232,3.232,0,0,0-.683-1.172,16,16,0,0,0,4.15-.674,2.85,2.85,0,0,0,1.728-1.494h-2.851v-6.426H557.2v6.426h-3.437v1.387c0,.234.061.381.185.439A2.658,2.658,0,0,0,554.832,5992.2Zm-3.769-10.117v.957h-8.106v-6.992h7.949V5977h-3.34v.977h2.774v2.949h-2.774v1.152ZM546.336,5977h-2.07v.977h2.07Zm2.715,3.027V5978.9h-4.785v1.132Zm-4.785.9v1.152h2.07v-1.152Zm2.187,3.828v.937h9.277v-.937Zm0,1.816v.977h9.277v-.977Zm0,1.856v.976h9.277v-.976Zm13.516-10.86h-6.621a8.936,8.936,0,0,1-1.739,2.012,2.888,2.888,0,0,0-1.015-.84,7.524,7.524,0,0,0,2.383-3.359l1.347.2q-.156.391-.429.957h6.074Zm-8.008,5.606v-3.106h7.676v3.106Zm1.074-4.844h5.918v.957h-5.918Zm0,2.559v1.445h1.231v-1.445Zm2.09,0v1.445h1.27v-1.445Zm2.129,0v1.445h1.289v-1.445Z"/>
    <path id="Path_995" data-name="Path 995" d="M567.017,5992.353a6.089,6.089,0,0,1-4.688-1.993l.918-1.211a4.9,4.9,0,0,0,3.633,1.68,3.145,3.145,0,0,0,2.158-.732,2.513,2.513,0,0,0,.83-1.983q0-2.929-4.57-2.929v-1.407q4.062,0,4.062-2.793a2.221,2.221,0,0,0-.664-1.7,2.686,2.686,0,0,0-1.816-.664,4.473,4.473,0,0,0-3.027,1.465l-1-1.172a5.932,5.932,0,0,1,4.1-1.758,4.7,4.7,0,0,1,3.076.967,3.3,3.3,0,0,1,1.182,2.705,3.483,3.483,0,0,1-.7,2.2,4.2,4.2,0,0,1-1.914,1.358v.078a4.208,4.208,0,0,1,2.246,1.289,3.487,3.487,0,0,1,.879,2.422,3.778,3.778,0,0,1-1.348,3.047A5.039,5.039,0,0,1,567.017,5992.353Z"/>
    <path id="Path_996" data-name="Path 996" d="M583.419,5978.661l-1,1.133a2.925,2.925,0,0,0-2.363-1.113,3.184,3.184,0,0,0-2.686,1.445,8.35,8.35,0,0,0-1.1,4.648,5.023,5.023,0,0,1,1.573-1.3,3.78,3.78,0,0,1,1.767-.479,3.845,3.845,0,0,1,2.979,1.182,4.9,4.9,0,0,1,1.084,3.427,4.848,4.848,0,0,1-1.221,3.418,3.89,3.89,0,0,1-2.978,1.329,4.192,4.192,0,0,1-3.545-1.866,9.046,9.046,0,0,1-1.358-5.381,13.7,13.7,0,0,1,.44-3.652,6.411,6.411,0,0,1,1.22-2.49,5.26,5.26,0,0,1,1.729-1.358,4.724,4.724,0,0,1,2.041-.449A4.508,4.508,0,0,1,583.419,5978.661Zm-3.945,12.285a2.142,2.142,0,0,0,1.777-.927,3.886,3.886,0,0,0,.7-2.413,3.814,3.814,0,0,0-.664-2.382,2.337,2.337,0,0,0-1.973-.86,3.691,3.691,0,0,0-3.007,1.875,7.1,7.1,0,0,0,.976,3.5A2.525,2.525,0,0,0,579.474,5990.946Z"/>
    <path id="Path_997" data-name="Path 997" d="M590.739,5992.353a3.79,3.79,0,0,1-3.369-1.944,10.811,10.811,0,0,1-1.221-5.693,10.608,10.608,0,0,1,1.221-5.645,3.9,3.9,0,0,1,6.709,0,10.663,10.663,0,0,1,1.211,5.645,10.867,10.867,0,0,1-1.211,5.693A3.753,3.753,0,0,1,590.739,5992.353Zm0-1.446a2.261,2.261,0,0,0,2.031-1.533,11.145,11.145,0,0,0,.743-4.658,10.879,10.879,0,0,0-.733-4.58,2.251,2.251,0,0,0-2.041-1.494,2.287,2.287,0,0,0-2.06,1.494,10.643,10.643,0,0,0-.752,4.58,11.041,11.041,0,0,0,.752,4.658A2.29,2.29,0,0,0,590.739,5990.907Z"/>
    <path id="Path_998" data-name="Path 998" d="M601.732,5975.321l1.6.293q-.625,1.838-1.055,2.95H605.6v12.968h-5.547v1.582h-1.368v-14.55h2.247A23.835,23.835,0,0,0,601.732,5975.321Zm2.52,8.75v-4.179h-4.2v4.179Zm-4.2,6.133h4.2V5985.4h-4.2Zm15.332-11.7v.762q-.234,7.031-.508,9.736a7.541,7.541,0,0,1-.859,3.428,2.117,2.117,0,0,1-1.583.8,20.225,20.225,0,0,1-2.968-.019,3.119,3.119,0,0,0-.508-1.445q1.308.117,2.969.117a.961.961,0,0,0,.82-.313,6.686,6.686,0,0,0,.752-3.095q.264-2.568.459-8.6h-5.078a17.662,17.662,0,0,1-1.875,3.516,9.793,9.793,0,0,0-1.211-.84,19.163,19.163,0,0,0,3.047-7.266l1.426.332q-.352,1.447-.86,2.891Zm-3.164,8.984-1.25.782a32.737,32.737,0,0,0-3.047-4.61l1.172-.683A38.75,38.75,0,0,1,612.221,5987.489Z"/>
    <path id="Path_999" data-name="Path 999" d="M621.435,5982.353v-2.579a17.448,17.448,0,0,1-1.8,1.778,5.739,5.739,0,0,0-1.231-.977,13.21,13.21,0,0,0,2.432-2.334,13.805,13.805,0,0,0,1.826-2.881l1.426.411a13.81,13.81,0,0,1-1.055,1.894h12.617v1.309h-2.07v3.379H636.4v1.328h-2.812v3.418h2.52v1.347H618.975V5987.1h2.46v-3.418h-2.792v-1.328Zm-1.523,11.289-1.406-.586a6.754,6.754,0,0,0,1.426-1.631,10.064,10.064,0,0,0,1.054-2.139l1.387.332A8.923,8.923,0,0,1,619.912,5993.642Zm2.852-14.668v3.379h2.226v-3.379Zm0,4.707v3.418h2.226v-3.418Zm1.679,6.093,1.367-.136a20.868,20.868,0,0,1,.489,3.593l-1.426.215A22.1,22.1,0,0,0,624.443,5989.774Zm1.8-7.421h2.325v-3.379H626.24Zm2.325,1.328H626.24v3.418h2.325Zm-.079,6.113,1.387-.254a15.073,15.073,0,0,1,1.27,3.613l-1.426.313A19.3,19.3,0,0,0,628.486,5989.794Zm3.711-7.441v-3.379h-2.343v3.379Zm0,4.746v-3.418h-2.343v3.418Zm.352,2.558,1.367-.449a22.2,22.2,0,0,1,2.715,3.906l-1.485.547A21.059,21.059,0,0,0,632.549,5989.657Z"/>
    <path id="Path_1000" data-name="Path 1000" d="M644.967,5976.161l.976.606q-1.23,3.321-2.187,5.273a6.036,6.036,0,0,1,1.973,4.3,3.216,3.216,0,0,1-.43,1.9,2.06,2.06,0,0,1-1.5.772,10.046,10.046,0,0,1-1.485.019,2.83,2.83,0,0,0-.37-1.347,3.869,3.869,0,0,0,1.992-.137q.468-.312.468-1.367a5.709,5.709,0,0,0-2.011-3.965q.626-1.407,1.777-4.629h-2.93v16.035H639.83v-17.4h4.9Zm10.7,9.375,1.152.82a26.311,26.311,0,0,1-3.2,2.618,8.5,8.5,0,0,0,3.711,3.359,3.728,3.728,0,0,0-.976,1.231q-4.161-2.128-5.723-8.5h-2.168v6.153q.663-.137,1.953-.391t1.855-.371l.1,1.289q-1.347.313-3.789.85t-3.3.732l-.488-1.426q.333-.059,1.084-.2l1.162-.224v-15.235h8.945v8.828H651.92a13.774,13.774,0,0,0,1.094,2.872A20.826,20.826,0,0,0,655.67,5985.536Zm-1.152-7.969h-6.055v2.422h6.055Zm-6.055,3.692v2.48h6.055v-2.48Z"/>
    <path id="Path_1001" data-name="Path 1001" d="M660.3,5985.751v-2.324h1.074v2.344a17.388,17.388,0,0,1-.879,6.269,2.489,2.489,0,0,0-.937-.7A16.309,16.309,0,0,0,660.3,5985.751Zm6.6-3.75h-2.833v11.621H662.8V5982h-2.988v-1.328h7.09Zm-.391-5.332V5978h-6.133v-1.328Zm.039,6.738v7.11h-1.055v-7.11Zm8.183,8.809h1.5c.235,0,.387-.137.459-.41a11.816,11.816,0,0,0,.147-1.992,2.614,2.614,0,0,0,1.211.566,6.437,6.437,0,0,1-.449,2.461,1.274,1.274,0,0,1-1.211.625h-1.856a1.849,1.849,0,0,1-1.367-.371,2.253,2.253,0,0,1-.332-1.446v-4.121h-1.621a8.763,8.763,0,0,1-1.27,3.809,6.305,6.305,0,0,1-3.222,2.285,3.985,3.985,0,0,0-.86-1.152,5.516,5.516,0,0,0,2.823-1.846,6.764,6.764,0,0,0,1.1-3.1h-1.582v-11.152h8.34v11.152h-2.363v4.121a.8.8,0,0,0,.087.469C674.329,5992.184,674.481,5992.216,674.729,5992.216Zm-5.156-14.59v2.07h5.547v-2.07Zm0,3.242v2.11h5.547v-2.11Zm0,3.281v2.129h5.547v-2.129Z"/>
    <path id="Path_1002" data-name="Path 1002" d="M685.9,5987.978v2.714l4.062-.546.039,1.308q-.47.079-9.59,1.426l-.176-1.465q1.191-.117,4.219-.527v-2.91h-3.594v-1.368h3.594v-2.246H680.9v-8.008h8.574v8.008H685.9v2.246h3.574v1.368Zm-3.75-10.372v2.168h2.382v-2.168Zm0,3.34v2.168h2.382v-2.168Zm6.035-1.172v-2.168h-2.364v2.168Zm0,3.34v-2.168h-2.364v2.168Zm9.492-.371,1,.254a36.029,36.029,0,0,1-1.68,4.727l-1.211-.352a25.213,25.213,0,0,0,1.133-3.164H694.55v7.617a2.346,2.346,0,0,1-.176,1.006,1.1,1.1,0,0,1-.625.537,11.2,11.2,0,0,1-3.086.254,5.25,5.25,0,0,0-.508-1.484q1.857.058,2.539.019a.454.454,0,0,0,.313-.078.415.415,0,0,0,.078-.293v-7.578h-3.2V5982.8h5.2a18.559,18.559,0,0,0-4.179-2.93l.937-.9a13.165,13.165,0,0,1,1.992,1.191,15.478,15.478,0,0,0,2.207-2.422h-5.9V5976.4h6.933l.332-.079.957.684a17.217,17.217,0,0,1-3.476,3.887,14.483,14.483,0,0,1,1.758,1.465l-.43.449h1.23Z"/>
    <path id="Path_1003" data-name="Path 1003" d="M708.354,5988.329l-.429-1.055q2.383-1,2.519-2.929a2.387,2.387,0,0,1-.351.019,1.58,1.58,0,0,1-1.074-.371,1.315,1.315,0,0,1-.43-1.054,1.334,1.334,0,0,1,.439-1.065,1.6,1.6,0,0,1,1.084-.381,1.46,1.46,0,0,1,1.25.615,2.814,2.814,0,0,1,.449,1.69,4.373,4.373,0,0,1-.927,2.783A5.412,5.412,0,0,1,708.354,5988.329Z"/>
    <path id="Path_1004" data-name="Path 1004" d="M255.28,6023.446l.235,1.289-1,.411q-.664.273-1,.39v6.445q0,1.095-.625,1.407a7.709,7.709,0,0,1-2.4.234,5.292,5.292,0,0,0-.43-1.308q1.427.039,1.817,0,.351,0,.351-.333v-5.937l-2.265.879-.332-1.406q.9-.294,2.6-.938v-3.848H249.89v-1.347h2.343v-4h1.29v4h1.66v1.347h-1.66v3.36Zm4.082-2.343,1.114.449a65.6,65.6,0,0,1-3.321,5.84l1.953-.313c.091-.377.169-.8.235-1.269l1.211.214q-.9,5.49-4.942,7.676a2.916,2.916,0,0,0-.879-1,8.091,8.091,0,0,0,3.965-4.375q-2.109.411-3.984.723l-.2-1.231q.585-.1,1.25-.175.526-.762,1.542-2.481a12.247,12.247,0,0,0-2.421-2.91l.7-.957q.509.45.625.586a17.216,17.216,0,0,0,1.406-3.086l1.172.508a38.146,38.146,0,0,1-1.817,3.359,9.282,9.282,0,0,1,1,1.289A30.818,30.818,0,0,0,259.362,6021.1Zm8.555-3.868v1.309h-12.5v-1.309h5.449v-1.855h1.426v1.855Zm.234,14.278v1.211h-5.664v.879h-1.172v-8.965c-.208.351-.417.671-.625.957a6.584,6.584,0,0,0-.976-.821,16.37,16.37,0,0,0,2.559-6l1.191.274q-.216.9-.742,2.461h1.66a27.009,27.009,0,0,0,.8-2.735l1.269.352c-.078.209-.222.59-.429,1.142s-.365.967-.469,1.241H267.9v1.172h-2.4v2.148h2.09v1.094h-2.09v2.187h2.129v1.094h-2.129v2.305Zm-3.789-6.68v-2.148h-1.875v2.148Zm0,3.281v-2.187h-1.875v2.187Zm-1.875,1.094v2.305h1.875v-2.305Z"/>
    <path id="Path_1005" data-name="Path 1005" d="M288.222,6019.345H277.48q-.606,1.269-1.231,2.3H285.9v10.118a2.272,2.272,0,0,1-.186,1.035,1.159,1.159,0,0,1-.654.527,13.474,13.474,0,0,1-3.5.274,5.268,5.268,0,0,0-.468-1.465q.879.039,2.871.039c.312-.013.469-.15.469-.41v-2.09h-8.34v3.945h-1.465v-9.648a16.161,16.161,0,0,1-3.34,3.164,5.29,5.29,0,0,0-.937-1.133,16.557,16.557,0,0,0,5.507-6.66h-5.019v-1.406h5.625a24.661,24.661,0,0,0,.879-2.579l1.484.352q-.429,1.347-.781,2.227h10.176Zm-3.789,5.683V6023h-8.34v2.031Zm-8.34,3.379h8.34v-2.09h-8.34Z"/>
    <path id="Path_1006" data-name="Path 1006" d="M308.663,6017.9h-7.969q-.351,1.487-.761,2.969h6.738v12.793h-1.543v-1.308H295.069v1.308h-1.484v-12.793h4.824q.392-1.776.586-2.969h-7.656v-1.464h17.324Zm-3.535,7.989v-3.633H295.069v3.633Zm-10.059,5.1h10.059v-3.75H295.069Z"/>
    <path id="Path_1007" data-name="Path 1007" d="M329.651,6025.536v1.406H324.4v6.68h-1.465v-6.68h-4.727l.215,1.309q-1.387.469-3.985,1.328l-2.773.918-.43-1.5q.469-.117,1.543-.439c.716-.215,1.159-.348,1.328-.4v-6.5h-2.5v-1.406h2.5V6015.6h1.465v4.648h2.422v1.406h-2.422v6.055c.3-.091.74-.23,1.319-.42s.934-.3,1.064-.342h-.566v-1.406h5.547v-7.519h-4.785v-1.387h11v1.387H324.4v7.519Zm-9.394-6.523,1.387.351a16.948,16.948,0,0,1-2.481,5.2,5.823,5.823,0,0,0-1.133-.684,10.836,10.836,0,0,0,1.348-2.275A13.149,13.149,0,0,0,320.257,6019.013Zm5.488.488,1.211-.488a19.252,19.252,0,0,1,2.246,4.922l-1.289.546A18.988,18.988,0,0,0,325.745,6019.5Z"/>
    <path id="Path_1008" data-name="Path 1008" d="M336.655,6023.993v-3.554H338.1v13.183h-1.446v-5.156h-1.972a6.9,6.9,0,0,1-1.836,5.215,4.335,4.335,0,0,0-1.114-.879,5.626,5.626,0,0,0,1.7-4.336h-1.446v-1.328h4.668v-1.856H333v-4.551h1.348v3.262Zm6.856-5.7h-5.117v1.66h-1.485v-1.66h-4.687v-1.367h4.687v-1.543h1.485v1.543h5.117v-1.543h1.484v1.543h4.844v1.367h-4.844v1.66h-1.484Zm6.5,7.539h-4.864v5.7h4.493v1.407H339.292v-1.407h4.394v-5.7h-4.843v-1.406h4.843v-3.984h1.465v3.984h4.864Z"/>
    <path id="Path_1009" data-name="Path 1009" d="M353.19,6016.239h16.6v17.383h-1.465v-.84H354.616v.84H353.19Zm1.426,15.2h13.711v-13.829H354.616Zm11.543-5.293.957.586a16.864,16.864,0,0,1-2.5,1.7,12.381,12.381,0,0,0,3.164,1.289,3.458,3.458,0,0,0-.82.976,13.385,13.385,0,0,1-2.774-1.259,11.461,11.461,0,0,1-2.363-1.827v3.262h-1.328V6027.9a21.628,21.628,0,0,1-4.394,2.305,4.641,4.641,0,0,0-.879-1,16.383,16.383,0,0,0,5.273-2.676h-3.633v-3.379h9.3Zm1.172-4.864v.957H355.593v-.957h5.156v-1.25h-4v-.937h4v-1.113H362.1v1.113h4.179v.937H362.1v1.25Zm-9.219,2.754v1.582h6.719v-1.582Zm7.559,2.5h-3.418a9.3,9.3,0,0,0,1.543,1.367Q364.928,6027.119,365.671,6026.532Z"/>
    <path id="Path_1010" data-name="Path 1010" d="M390.858,6020.536h-5.839a34.8,34.8,0,0,0,1.484,8.36q1.094,3.222,2.539,3.222.41,0,.615-.869a17.81,17.81,0,0,0,.3-2.881,3.522,3.522,0,0,0,1.309.8,10.245,10.245,0,0,1-.694,3.535,1.718,1.718,0,0,1-1.65.957,2.9,2.9,0,0,1-2.129-1,7.762,7.762,0,0,1-1.6-2.812,26.684,26.684,0,0,1-1.064-4.131,50.435,50.435,0,0,1-.635-5.186H373.163v-1.465H383.4q-.06-1.171-.1-3.613h1.543q0,1.66.1,3.613h5.918Zm-11.972,4.4v5.488q3.339-.7,4.277-.9l.137,1.308q-4.863,1.154-9.59,2.207l-.449-1.465q.527-.1,1.943-.39t2.236-.45v-5.8h-3.574V6023.5h8.77v1.426Zm11.152-7.032-1.055.938a15.205,15.205,0,0,0-2.832-2.5l1-.82A15.871,15.871,0,0,1,390.038,6017.9Z"/>
    <path id="Path_1011" data-name="Path 1011" d="M396.222,6018.544v4.531q0,7.168-1.8,10.606a3.513,3.513,0,0,0-1.231-.821q1.621-3.066,1.621-9.785V6017.2h7.5v-1.816h1.524v1.816h7.578v1.348Zm5.39,5.781.8.274a15.042,15.042,0,0,1-2.031,5.918q1.855,1.5,5.918,1.5,4.589,0,5.488-.02a4.307,4.307,0,0,0-.488,1.328h-5.078a16.759,16.759,0,0,1-3.877-.381,6.414,6.414,0,0,1-2.725-1.377,8.764,8.764,0,0,1-2.637,2.129,5.286,5.286,0,0,0-.937-1.035,7.717,7.717,0,0,0,2.637-2.07,11.1,11.1,0,0,1-1.582-3.477l1.074-.371a8.294,8.294,0,0,0,1.269,2.774,11.825,11.825,0,0,0,1.465-3.985h-2.324l-.391.625-1.171-.41q1.386-2.128,2.714-4.492h-2.773v-1.231h3.555l.234-.078.937.352q-1.289,2.306-2.363,4.062h2.031Zm9.824,1.114h-3.73v3.281h3.3v1.269h-7.754v-1.269h3.086v-3.281h-3.5v-1.309h3.5v-2.539q-1.914.313-2.91.39a3.318,3.318,0,0,0-.391-1.054,27.015,27.015,0,0,0,6.68-1.406l1.035,1.015a19.514,19.514,0,0,1-3.047.82v2.774h3.73Z"/>
    <path id="Path_1012" data-name="Path 1012" d="M422.034,6021.786l.254-.039.918.352q-1.582,8.476-7.773,11.562a4.81,4.81,0,0,0-1-1.191,11.822,11.822,0,0,0,4.962-4.219,21.165,21.165,0,0,0-3.34-2.266,13.112,13.112,0,0,1-1.329,1.446,5.056,5.056,0,0,0-1.132-1,14.5,14.5,0,0,0,4.121-6.407l1.133.274v-1.719h-4.493V6017.2h4.493v-1.777h1.464v1.777h5.43v-1.777h1.465v1.777h4.609v1.387H427.21v1.953h-1.465v-1.953h-5.43v1.953h-1.25a10.557,10.557,0,0,1-.488,1.25Zm-.508,1.309h-3.593a15.6,15.6,0,0,1-1.094,1.816,25.558,25.558,0,0,1,3.281,2.129A15.63,15.63,0,0,0,421.526,6023.1Zm4.981,8.828h3.359a.738.738,0,0,0,.762-.41,6.453,6.453,0,0,0,.234-1.817,3.613,3.613,0,0,0,1.367.586,5.254,5.254,0,0,1-.605,2.4,1.919,1.919,0,0,1-1.66.625H426.37a2.981,2.981,0,0,1-1.934-.459,2.461,2.461,0,0,1-.507-1.827v-9.531h7.109v5.645a2.267,2.267,0,0,1-.146.908.936.936,0,0,1-.557.478,10.406,10.406,0,0,1-2.774.215,4.145,4.145,0,0,0-.429-1.308q1.7.039,2.148,0a.445.445,0,0,0,.254-.078.3.3,0,0,0,.059-.215v-4.3h-4.2v8.183q0,.587.195.743A1.7,1.7,0,0,0,426.507,6031.923Z"/>
    <path id="Path_1013" data-name="Path 1013" d="M441.851,6028.329l-.43-1.055q2.384-1,2.519-2.929a2.389,2.389,0,0,1-.351.019,1.58,1.58,0,0,1-1.074-.371,1.318,1.318,0,0,1-.43-1.054,1.334,1.334,0,0,1,.439-1.065,1.6,1.6,0,0,1,1.084-.381,1.459,1.459,0,0,1,1.25.615,2.814,2.814,0,0,1,.45,1.69,4.375,4.375,0,0,1-.928,2.783A5.414,5.414,0,0,1,441.851,6028.329Z"/>
    <path id="Path_1014" data-name="Path 1014" d="M463.093,6015.36h1.484a23.355,23.355,0,0,0,3.955,4.112,23.957,23.957,0,0,0,4.756,3.134,8.186,8.186,0,0,0-.977,1.27,29.789,29.789,0,0,1-4.7-3.252,22.192,22.192,0,0,1-3.7-3.8,21.05,21.05,0,0,1-3.486,3.779,28.8,28.8,0,0,1-4.737,3.389,4.627,4.627,0,0,0-.937-1.172,24.362,24.362,0,0,0,4.834-3.437A19.086,19.086,0,0,0,463.093,6015.36Zm7.636,9.707v5.469a2.091,2.091,0,0,1-.175.957,1.135,1.135,0,0,1-.625.508,11.9,11.9,0,0,1-3.184.254,5.73,5.73,0,0,0-.508-1.426q1.173.04,2.578.039c.287-.012.43-.13.43-.351v-4.082h-5.781v7.187h-1.543v-7.187h-5.293v-1.368Zm-10.918-3.769h8.4v1.348h-8.4Z"/>
    <path id="Path_1015" data-name="Path 1015" d="M483.476,6015.985h1.64c-.012.092-.022.242-.029.45s-.01.365-.01.468q.059.743.147,1.514t.361,2.07a24.676,24.676,0,0,0,.654,2.481,20.446,20.446,0,0,0,1.065,2.6,16.356,16.356,0,0,0,1.543,2.588,13.143,13.143,0,0,0,2.158,2.266,12.33,12.33,0,0,0,2.842,1.8,3.666,3.666,0,0,0-1.094,1.23,13.441,13.441,0,0,1-3.32-2.246,13.128,13.128,0,0,1-2.442-2.988,21.727,21.727,0,0,1-2.558-6.328q-1.8,8.2-8.008,11.562a4.979,4.979,0,0,0-1.192-1.152,12.835,12.835,0,0,0,2.871-1.973,14.673,14.673,0,0,0,2.11-2.324,13.651,13.651,0,0,0,1.445-2.637,22.425,22.425,0,0,0,.938-2.6,20.135,20.135,0,0,0,.517-2.53q.205-1.414.254-2.119t.088-1.679C483.469,6016.227,483.476,6016.077,483.476,6015.985Z"/>
    <path id="Path_1016" data-name="Path 1016" d="M499.7,6022.646h4.18c0,.3-.007.514-.02.644q-.1,5.157-.254,7.119a5.83,5.83,0,0,1-.527,2.471,1.643,1.643,0,0,1-1.211.644,18.814,18.814,0,0,1-2.148,0,2.793,2.793,0,0,0-.391-1.347q.82.059,1.875.058a.65.65,0,0,0,.606-.254,5.354,5.354,0,0,0,.41-2.109q.137-1.737.215-5.9H499.7v.136a20.541,20.541,0,0,1-.615,5.264,9.741,9.741,0,0,1-2.432,4.229,5.824,5.824,0,0,0-1.074-.957,8.7,8.7,0,0,0,2.178-3.838,19.065,19.065,0,0,0,.537-4.717v-4.141h-2.363V6018.6H499.6v-3.2h1.425v3.2h3.731v1.347H499.7Zm14.473-2.188h-1.485a23.332,23.332,0,0,1-2.636,7.988,10.094,10.094,0,0,0,4.238,3.868,3.823,3.823,0,0,0-1.015,1.269,10.915,10.915,0,0,1-4.122-3.848,13.8,13.8,0,0,1-4.882,3.926,6.189,6.189,0,0,0-.86-1.289,11.7,11.7,0,0,0,4.961-3.965,25.3,25.3,0,0,1-1.953-5.449,12.775,12.775,0,0,1-1.25,2.227,8.89,8.89,0,0,0-1.269-.977q2.127-2.85,3.163-8.848l1.524.215q-.333,1.8-.8,3.5h6.387Zm-2.949,0h-3.828a2.758,2.758,0,0,0-.1.273,24.753,24.753,0,0,0,1.933,6.25A21.729,21.729,0,0,0,511.222,6020.458Z"/>
    <path id="Path_1017" data-name="Path 1017" d="M521.429,6027.274v.782q2.012,1.446,2.871,2.187l-.84,1.016a18.219,18.219,0,0,0-2.031-1.992v4.336H520.1V6028.9a13.676,13.676,0,0,1-2.93,3.359,3.394,3.394,0,0,0-.918-1,9.826,9.826,0,0,0,1.924-1.7,14.121,14.121,0,0,0,1.689-2.286H516.78V6026.1H520.1v-1.7h1.328v1.7h2.89v1.171Zm-4.375-3.847,1.328-.059a10.316,10.316,0,0,0,.664-1.289h-2.422v-.957h1.719v-5.176h7.4v.977H519.71v.82h5.527v.879H519.71v.82h5.527v.86H519.71v.82H526.7v.957h-2.48a9.137,9.137,0,0,1,2.089,2.09l-.976.566a8.326,8.326,0,0,0-.566-.722q-5.527.351-7.637.449Zm2.636-.137,4.18-.176a9.626,9.626,0,0,0-.84-.7l.625-.332h-3.242Q520.1,6022.666,519.69,6023.29Zm6.289,2.227,1.27.273a8.643,8.643,0,0,1-2.617,3.77,6.129,6.129,0,0,0-.977-.9A6.86,6.86,0,0,0,525.979,6025.517Zm4.122,4.355,1.074-.488a16.1,16.1,0,0,1,1.592,1.865,9.461,9.461,0,0,1,1.084,1.807l-1.114.566q-.176-.392-.488-.937-1.446.117-7.949.586l-.137-1.29,2.031-.1a25.141,25.141,0,0,0,1.563-4.082l1.426.371q-1.27,2.871-1.66,3.633c.495-.026,1.213-.069,2.158-.127s1.546-.094,1.806-.108A16.521,16.521,0,0,0,530.1,6029.872Zm3.007-9.141,1.231.489q-2.051,2.13-7.149,3.144a3.7,3.7,0,0,0-.761-1.074Q531.331,6022.51,533.108,6020.731Zm-1.23-5.234,1.152.567a19.992,19.992,0,0,1-5.605,2.617,5.248,5.248,0,0,0-.9-.938A17.8,17.8,0,0,0,531.878,6015.5Zm.683,2.559,1.192.547a15.765,15.765,0,0,1-5.84,2.675,4.1,4.1,0,0,0-.859-.957,21.955,21.955,0,0,0,3.115-.967A9.275,9.275,0,0,0,532.561,6018.056Zm-5.136,6.621h4a5.432,5.432,0,0,0,1.26,2.09,6.969,6.969,0,0,0,2,1.484,4.2,4.2,0,0,0-.859,1.133,7.621,7.621,0,0,1-3.281-3.516h-3.125Z"/>
    <path id="Path_1018" data-name="Path 1018" d="M541.479,6022.88l-.859,1.191a36.246,36.246,0,0,0-3.789-2.07l.82-1.035A27.26,27.26,0,0,1,541.479,6022.88Zm-.2,2.891,1.114.976q-1.565,3.1-3.731,6.641l-1.231-1.016A63.279,63.279,0,0,0,541.284,6025.771Zm1.094-7.95-.918,1.153q-1.1-.821-3.613-2.344l.879-1Q541.03,6016.9,542.378,6017.821Zm10.078,14.043h1.113c.208,0,.342-.2.4-.6s.1-1.341.127-2.813a3.294,3.294,0,0,0,1.328.606,12.131,12.131,0,0,1-.43,3.33,1.277,1.277,0,0,1-1.309.849h-1.464a1.629,1.629,0,0,1-1.309-.429,2.724,2.724,0,0,1-.352-1.641v-8.3h-3.886v2.832q0,5.47-3.985,7.969a3.55,3.55,0,0,0-.439-.644,2,2,0,0,0-.518-.489,7.731,7.731,0,0,0,1.846-1.533,5.678,5.678,0,0,0,1.074-1.806,9.261,9.261,0,0,0,.459-1.758,12.357,12.357,0,0,0,.117-1.778v-4.2h6.8v9.707a1.189,1.189,0,0,0,.088.576A.391.391,0,0,0,552.456,6031.864Zm-8.1-13.828v2.578h-1.407v-4h11.739v4h-1.446v-2.578Z"/>
    <path id="Path_1019" data-name="Path 1019" d="M561.023,6022.88l-.9,1.113a12.336,12.336,0,0,0-2.871-2.09l.859-1A12.1,12.1,0,0,1,561.023,6022.88Zm-1.27,3.418,1.133.683q-.937,3.282-2.11,6.309l-1.308-.664A55.467,55.467,0,0,0,559.753,6026.3Zm1.66-8.535-.9,1.074a11.885,11.885,0,0,0-2.793-2.227l.9-.976A10.632,10.632,0,0,1,561.413,6017.763Zm1.7,2.832v2.6q0,6.915-1.836,10.059a3.142,3.142,0,0,0-1.054-.723q1.7-2.947,1.7-9.336V6016.1h6.523v4.492Zm1.172,8.476,1.211.469a12.85,12.85,0,0,1-2.09,3.945,6.309,6.309,0,0,0-1-.722,7.3,7.3,0,0,0,1.1-1.7A11.3,11.3,0,0,0,564.284,6029.071Zm4.336-4.375h-1.035v2.832h1.426v1.192h-5.977v-1.192h1.192V6024.7h-.938v-1.152h.938v-2.324h.976v2.324h1.387v-2.324h1v2.324h1.035Zm-1.445-7.363h-4.063v2.012h4.063Zm-.586,10.195V6024.7H565.2v2.832Zm2.265,3.633-.976.606a10.127,10.127,0,0,0-1.445-2.266l.918-.508A8.051,8.051,0,0,1,568.854,6031.161Zm5.313-7.129.84.313a14.721,14.721,0,0,1-2.383,5.683,8.35,8.35,0,0,0,3.164,2.5,5.59,5.59,0,0,0-.918,1.114,9.114,9.114,0,0,1-3.066-2.618,11.325,11.325,0,0,1-3.692,2.637,4.138,4.138,0,0,0-.8-1,9.661,9.661,0,0,0,3.75-2.734,15.509,15.509,0,0,1-1.718-4.356l.937-.215h-1.367v-1.269h5Zm-.254-2.949v.449a.377.377,0,0,0,.01.108l.029.078a.223.223,0,0,0,.039.068.118.118,0,0,0,.069.029.516.516,0,0,0,.107.01h.332c.144,0,.231-.022.264-.068a1.1,1.1,0,0,0,.107-.322,6.785,6.785,0,0,0,.078-1.309,3.692,3.692,0,0,0,.879.449,6.086,6.086,0,0,1-.2,1.739.984.984,0,0,1-.41.449,1.255,1.255,0,0,1-.664.156h-.7a1.145,1.145,0,0,1-.878-.313,2.563,2.563,0,0,1-.313-1.6v-3.672h-1.894v1.563a6.273,6.273,0,0,1-1.6,4.687,4.025,4.025,0,0,0-.469-.469,3.908,3.908,0,0,0-.508-.39,5.007,5.007,0,0,0,1.348-3.848v-2.793h4.375Zm-.488,4.277h-2.989a12.853,12.853,0,0,0,1.407,3.516A11.059,11.059,0,0,0,573.425,6025.36Z"/>
    <path id="Path_1020" data-name="Path 1020" d="M581.835,6015.321l1.6.293q-.624,1.838-1.054,2.95h3.32v12.968h-5.547v1.582h-1.367v-14.55h2.246A23.721,23.721,0,0,0,581.835,6015.321Zm2.519,8.75v-4.179h-4.2v4.179Zm-4.2,6.133h4.2V6025.4h-4.2Zm15.332-11.7v.762q-.234,7.031-.508,9.736a7.514,7.514,0,0,1-.859,3.428,2.114,2.114,0,0,1-1.582.8,20.239,20.239,0,0,1-2.969-.019,3.107,3.107,0,0,0-.508-1.445q1.31.117,2.969.117a.963.963,0,0,0,.821-.313,6.686,6.686,0,0,0,.752-3.095q.262-2.568.458-8.6h-5.078a17.561,17.561,0,0,1-1.875,3.516,9.669,9.669,0,0,0-1.21-.84,19.179,19.179,0,0,0,3.046-7.266l1.426.332a30.024,30.024,0,0,1-.859,2.891Zm-3.164,8.984-1.25.782a32.378,32.378,0,0,0-3.047-4.61l1.172-.683A38.5,38.5,0,0,1,592.323,6027.489Z"/>
    <path id="Path_1021" data-name="Path 1021" d="M616.319,6024.384h-3.633a11.467,11.467,0,0,1-2.949,5.273,38.257,38.257,0,0,1,5.606,2.754l-1.074,1.25a34.04,34.04,0,0,0-5.8-2.969,20.053,20.053,0,0,1-8.418,2.969,4.508,4.508,0,0,0-.9-1.347,19.836,19.836,0,0,0,7.715-2.247q-2.343-.937-3.906-1.386c-.234.39-.4.671-.508.84l-1.5-.411q1.153-1.912,2.617-4.726h-4.882v-1.406h5.625q.879-1.758,1.582-3.223l1.523.351q-.567,1.212-1.426,2.872h10.332Zm-15.546-5.528v2.891h-1.5v-4.277h7.4v-2.11h1.543v2.11h7.6v4.277h-1.542v-2.891Zm10.214,5.528h-5.722q-1.133,2.148-1.68,3.1,2.4.725,4.629,1.563A9.271,9.271,0,0,0,610.987,6024.384Z"/>
    <path id="Path_1022" data-name="Path 1022" d="M620.784,6022.528l1.445.274q-.624,5.411-2.363,7.734l-1.328-.82Q620.3,6027.451,620.784,6022.528Zm3.34-1.621h1.5v10a1.139,1.139,0,0,0,.254.889,1.872,1.872,0,0,0,1.074.205h3.672a1.1,1.1,0,0,0,1.152-.772,14.844,14.844,0,0,0,.391-3.408,3.223,3.223,0,0,0,1.387.684,10.253,10.253,0,0,1-.7,3.877,2.234,2.234,0,0,1-2.148.986h-3.867a3.27,3.27,0,0,1-2.158-.517,2.657,2.657,0,0,1-.557-1.963Zm.156-4.316.938-1.133a29.732,29.732,0,0,1,3.633,1.514,29.111,29.111,0,0,1,3.2,1.787l-.938,1.308a24.666,24.666,0,0,0-3.144-1.875A28.141,28.141,0,0,0,624.28,6016.591Zm8.106,5.937,1.308-.664a22.713,22.713,0,0,1,2.344,3.731,16.585,16.585,0,0,1,1.406,3.652l-1.445.684a16.932,16.932,0,0,0-1.367-3.662A23.882,23.882,0,0,0,632.386,6022.528Z"/>
    <path id="Path_1023" data-name="Path 1023" d="M645.679,6027.372l.215,1.27q-1.895.643-6.25,1.992l-.43-1.387q.663-.176,2.715-.762v-4.668h-2.266v-1.289h2.266V6018.1h-2.481v-1.328h6.309v1.328h-2.5v4.433h2.109v1.289h-2.109v4.278c.3-.078.722-.2,1.269-.371S645.457,6027.438,645.679,6027.372Zm10.488.625,1.055.8q-1.387.918-2.813,1.7a7.866,7.866,0,0,0,3.418,1.973,4.963,4.963,0,0,0-.9,1.191,8.509,8.509,0,0,1-3.389-2.187,10.45,10.45,0,0,1-2.217-3.575,12.376,12.376,0,0,1-1.679,1.192v2.676l3.2-.606.078,1.172q-5.665,1.132-6.094,1.211l-.312-1.211c1.093-.195,1.706-.306,1.835-.332v-2.168a18.783,18.783,0,0,1-3.281,1.387,3.385,3.385,0,0,0-.84-1.035,19.238,19.238,0,0,0,5.606-2.481H646.87v-4.18h9.356v4.18h-3.75a8.9,8.9,0,0,0,1.21,2.012A25.57,25.57,0,0,0,656.167,6028Zm-10.664-5.625v-1.191h12.168v1.191Zm11.172-6.328v4.062H646.343v-4.062Zm-7.246,2.949v-1.855h-1.836v1.855Zm-1.231,5.645v1.914h6.66v-1.914Zm4.2-5.645v-1.855h-1.915v1.855Zm2.988,0v-1.855h-1.934v1.855Z"/>
    <path id="Path_1024" data-name="Path 1024" d="M666.14,6026.181l.312,1.347-6.172,2.93-.547-1.484q.938-.332,2.7-1.114v-6.25H660.1v-1.386h2.325v-4.649h1.386v4.649h2.09v.215h3.321a8.7,8.7,0,0,0-.782-2.051l.938-.254H666.53v-1.211h4.707V6015.4h1.426v1.524h4.981v1.211h-2.93l1.094.273q-.82,1.6-1.075,2.032h3.379v1.23H665.866v-.059h-2.051v5.625q.43-.193,1.25-.566T666.14,6026.181Zm8.671,6.035h1.6a.459.459,0,0,0,.469-.352,7.14,7.14,0,0,0,.137-1.64,3.054,3.054,0,0,0,1.25.507,5.192,5.192,0,0,1-.45,2.2,1.361,1.361,0,0,1-1.25.556h-1.933a2.114,2.114,0,0,1-1.446-.351,2.038,2.038,0,0,1-.351-1.406v-3.008h-2.09a5.988,5.988,0,0,1-1.6,3.125,8.026,8.026,0,0,1-3.77,1.8,3.667,3.667,0,0,0-.84-1.25,7.744,7.744,0,0,0,3.36-1.328,4.2,4.2,0,0,0,1.386-2.344h-1.992V6022.7H677v6.016h-2.754v2.988c0,.222.032.361.1.42A.789.789,0,0,0,674.811,6032.216Zm-6.113-8.477v1.485h6.836v-1.485Zm0,2.461v1.485h6.836V6026.2Zm5.645-8.066h-4.61a7.268,7.268,0,0,1,.86,2.09l-.82.215h4.238l-.625-.157A21.323,21.323,0,0,0,674.343,6018.134Z"/>
    <path id="Path_1025" data-name="Path 1025" d="M687.851,6028.329l-.43-1.055q2.383-1,2.519-2.929a2.389,2.389,0,0,1-.351.019,1.58,1.58,0,0,1-1.074-.371,1.318,1.318,0,0,1-.43-1.054,1.334,1.334,0,0,1,.439-1.065,1.6,1.6,0,0,1,1.084-.381,1.459,1.459,0,0,1,1.25.615,2.814,2.814,0,0,1,.45,1.69,4.374,4.374,0,0,1-.928,2.783A5.414,5.414,0,0,1,687.851,6028.329Z"/>
    <path id="Path_1026" data-name="Path 1026" d="M701.866,6026.708l1.289.234a16.453,16.453,0,0,1-1.426,5.079,3.8,3.8,0,0,0-1.152-.567A13.282,13.282,0,0,0,701.866,6026.708Zm3.848-4.473,1.094-.468a14.415,14.415,0,0,1,1.992,4.043l-1.192.566a8.266,8.266,0,0,0-.371-1.152l-1.718.117v8.32h-1.368v-8.242q-2.772.138-3.261.156l-.117-1.328q.39,0,1.328-.039.41-.488,1.328-1.8a16.289,16.289,0,0,0-2.618-2.871l.762-.957c.247.195.45.365.606.508a24.709,24.709,0,0,0,1.777-3.711l1.309.508a37.484,37.484,0,0,1-2.266,4,11.959,11.959,0,0,1,1.211,1.386q1.27-1.951,2.148-3.632l1.27.546a51.485,51.485,0,0,1-4.141,5.938q2.422-.1,3.2-.137A18.93,18.93,0,0,0,705.714,6022.235Zm.488,4.746,1.133-.371a14.9,14.9,0,0,1,1.328,3.848l-1.172.41A17,17,0,0,0,706.2,6026.981Zm12.93-7.441h-4.746v3.008h4.3v1.328h-9.766v-1.328h3.965v-3.008h-4.59v-1.367h4.59v-2.813h1.5v2.813h4.746Zm-9.59,14.063v-7.539h8.594v7.48H716.69v-.938h-5.761v1Zm7.148-6.211h-5.761v3.867h5.761Z"/>
    <path id="Path_1027" data-name="Path 1027" d="M258.112,6055.419h1.5a21.641,21.641,0,0,0,3.975,4.121,22.447,22.447,0,0,0,4.795,3.027,6.166,6.166,0,0,0-.977,1.27,28.208,28.208,0,0,1-4.736-3.174,21.051,21.051,0,0,1-3.721-3.8,19.439,19.439,0,0,1-3.516,3.8,26.578,26.578,0,0,1-4.785,3.291,4.961,4.961,0,0,0-.918-1.172,22.6,22.6,0,0,0,4.873-3.349A18.263,18.263,0,0,0,258.112,6055.419Zm-5.156,18.223v-7.969H265.1v7.969h-1.5v-.821h-9.18v.821Zm1.035-11.778h10.02v1.309h-10.02Zm9.61,5.157h-9.18v4.453h9.18Z"/>
    <path id="Path_1028" data-name="Path 1028" d="M274.653,6055.907h6.074a17.308,17.308,0,0,0,3.712,3.907,20.6,20.6,0,0,0,4.746,2.871,5.5,5.5,0,0,0-1,1.289,21.45,21.45,0,0,1-4.483-2.862,23.583,23.583,0,0,1-3.779-3.818,26.181,26.181,0,0,1-3.809,3.77,28.178,28.178,0,0,1-4.433,3.046,4.063,4.063,0,0,0-.918-1.191,21.576,21.576,0,0,0,3.906-2.412,24.8,24.8,0,0,0,3.535-3.213h-3.555Zm6,12.5v3.321h7.793v1.347H271.548v-1.347h7.578v-3.321H273.52v-1.328h5.606v-3.066H274.38v-1.328h11.172v1.328h-4.9v3.066h5.684v1.328Z"/>
    <path id="Path_1029" data-name="Path 1029" d="M301.155,6059.774v1.211h-9.394v-1.211h1.445v-3.261H294.4v3.261h1.581v-4.394h1.29v1.758h3.242v1.133h-3.242v1.5Zm-1.914,1.875h1.153v11.524h-1.153v-.82h-5.664v1.093h-1.094v-11.8h1.094v4.043h5.664Zm-3.281,3.106-.215.176a7.414,7.414,0,0,0-.6-.86,4.455,4.455,0,0,1-.9,1.368,3.109,3.109,0,0,0-.664-.625,4.865,4.865,0,0,0,1.27-3.145l.879.117a11.094,11.094,0,0,1-.293,1.406,10.7,10.7,0,0,1,.937,1.153,4.967,4.967,0,0,0,.977-2.637l.859.117a7.052,7.052,0,0,1-.312,1.367,14.171,14.171,0,0,1,1.308,1.543l-.625.625a15.365,15.365,0,0,0-1-1.347,4.185,4.185,0,0,1-.977,1.367A2.706,2.706,0,0,0,295.96,6064.755Zm-2.383,6.465h5.664v-4.414h-5.664v3.457a5.08,5.08,0,0,0,1.25-3.164l.879.1a9.9,9.9,0,0,1-.293,1.426,12.468,12.468,0,0,1,1,1.192,5.35,5.35,0,0,0,.957-2.7l.86.1a9.748,9.748,0,0,1-.332,1.445,9.339,9.339,0,0,1,1.347,1.6l-.625.6a11.814,11.814,0,0,0-1.035-1.387,4.068,4.068,0,0,1-.957,1.348c-.026-.025-.234-.215-.625-.566l.176-.176-.391.352q-.215-.352-.664-.938a4.428,4.428,0,0,1-.9,1.387,7.807,7.807,0,0,0-.645-.586Zm10.957-15.84h1.348a19.22,19.22,0,0,0,1.963,3.486,13.55,13.55,0,0,0,2.412,2.7,7.475,7.475,0,0,0-.821,1.309,16.668,16.668,0,0,1-2.324-2.764,19.783,19.783,0,0,1-1.836-3.252,19.649,19.649,0,0,1-1.757,3.321,14.305,14.305,0,0,1-2.344,2.812,9.6,9.6,0,0,0-.781-1.191,13.515,13.515,0,0,0,2.412-2.9A16.134,16.134,0,0,0,304.534,6055.38Zm4.512,9.3v5.41a2.132,2.132,0,0,1-.127.82.874.874,0,0,1-.5.449,8.146,8.146,0,0,1-2.461.215,3.478,3.478,0,0,0-.391-1.25q1.465.041,1.836,0a.224.224,0,0,0,.274-.273V6066h-2.715v7.6H303.6V6066h-2.52v-1.328Zm-1.152-2.969v1.231h-5.235v-1.231Z"/>
    <path id="Path_1030" data-name="Path 1030" d="M318.164,6055.673l1.406.488a25.8,25.8,0,0,1-2.207,4.16v13.262h-1.5v-11.172a23.7,23.7,0,0,1-2.6,2.832,7.5,7.5,0,0,0-.9-1.5,18.938,18.938,0,0,0,3.262-3.574A23.376,23.376,0,0,0,318.164,6055.673Zm6.387,16.074h3.691a.877.877,0,0,0,.918-.586,10.783,10.783,0,0,0,.313-2.539,3.691,3.691,0,0,0,1.406.664,7.326,7.326,0,0,1-.664,3.047,2.028,2.028,0,0,1-1.875.82h-3.906a2.876,2.876,0,0,1-2.051-.556,3.136,3.136,0,0,1-.547-2.158v-4.668q-1.8,1.035-1.875,1.074a8,8,0,0,0-.84-1.25q1.621-.821,2.715-1.5v-8.477h1.5v7.539a28.716,28.716,0,0,0,5.39-4.433l1.387.742a42.8,42.8,0,0,1-6.777,5.391v5.625a1.6,1.6,0,0,0,.225,1.025A1.384,1.384,0,0,0,324.551,6071.747Z"/>
    <path id="Path_1031" data-name="Path 1031" d="M346.268,6072H351.6v1.152H334.021V6072h5.333a7.9,7.9,0,0,0-1-1.934l.489-.156H336.58v-3.672h12.676v3.672h-2.129l.391.137A14.843,14.843,0,0,1,346.268,6072Zm5.078-7.832v1.094H334.373v-1.094Zm-.86-8.3v7.3H335.174v-7.3h1.269v6.231h2.344v-1.035H337.01v-.821h1.777v-.937h-1.5v-.821h1.5v-.918h-1.7v-.82h1.7v-1.074h.957v1.074h1.719v.82h-1.719v.918h1.563v.821h-1.563v.937H341.6v.821h-1.856v1.035h2.4v-6.739h1.309v6.739h2.363v-1.035h-1.836v-.821h1.836v-.937h-1.543v-.821h1.543v-.918H344.1v-.82h1.718v-1.074h.977v1.074h1.738v.82H346.8v.918h1.543v.821H346.8v.937h1.855v.821H346.8v1.035h2.383v-6.231Zm-12.519,11.348v1.7h9.843v-1.7Zm8.066,2.7h-6.269a6.555,6.555,0,0,1,1.035,1.953l-.449.137h4.882l-.371-.117A21.743,21.743,0,0,0,346.033,6069.911Z"/>
    <path id="Path_1032" data-name="Path 1032" d="M364.468,6056.669h7.676v3.77h-1.465v-2.481H356.87v2.481h-1.426v-3.77h7.52v-1.309h1.5Zm-7.539,16.953v-7.148h13.789v7.07h-1.445v-.566H358.335v.644Zm12.578-14.336v1.074H358.1v-1.074Zm-.059,6.074H358.237v-3.828h11.211Zm-6.465,2.246h-4.648v1.563h4.648Zm-4.648,2.618v1.621h4.648v-1.621Zm1.269-7.618v1.7H368v-1.7Zm9.669,6.563v-1.563h-4.844v1.563Zm-4.844,2.676h4.844v-1.621h-4.844Z"/>
    <path id="Path_1033" data-name="Path 1033" d="M380.013,6058.29l1.6.469a19.715,19.715,0,0,1-2.119,3.379,15.438,15.438,0,0,1-2.7,2.773,8.261,8.261,0,0,0-1.172-1.015,13.861,13.861,0,0,0,2.559-2.569A13.554,13.554,0,0,0,380.013,6058.29Zm7.148,8.652,1.367-.644q1.407,1.563,2.783,3.437a29.3,29.3,0,0,1,2.1,3.2l-1.426.8q-.253-.508-.937-1.64-11.035.546-14.219.683l-.2-1.543q.6-.018,2.812-.1a52.154,52.154,0,0,0,3.77-8.731l1.7.43a88.391,88.391,0,0,1-3.809,8.242q.509-.02,8.965-.391A39.769,39.769,0,0,0,387.161,6066.942Zm-5.8-10.7h7.325a19.292,19.292,0,0,0,2.343,4.131,15.471,15.471,0,0,0,3.028,3.194,4.848,4.848,0,0,0-1.309,1.054,16.811,16.811,0,0,1-2.764-3.037,25.556,25.556,0,0,1-2.334-3.877H381.36Z"/>
    <path id="Path_1034" data-name="Path 1034" d="M404.054,6058.681v1.211h-7.539v-1.211Zm-.7,8.027v5.762h-4.629v.937h-1.309v-6.7Zm-5.9-4.141v-1.191h5.918v1.191Zm0,2.657v-1.211h5.918v1.211Zm5.859-9.16v1.191H397.55v-1.191Zm-1.25,11.855h-3.339v3.359h3.339Zm4.981-10.6v1.113a5.826,5.826,0,0,1-2.559,5.215,5.615,5.615,0,0,0-1.093-.977,4.7,4.7,0,0,0,2.226-4.258V6056h6.231v4.883a.711.711,0,0,0,.078.42.417.417,0,0,0,.312.088h1c.182,0,.306-.13.371-.391a10.3,10.3,0,0,0,.118-1.777,2.773,2.773,0,0,0,1.23.527,6.029,6.029,0,0,1-.41,2.334,1.192,1.192,0,0,1-1.133.6h-1.367a1.643,1.643,0,0,1-1.25-.371,2.212,2.212,0,0,1-.332-1.426v-3.574Zm5.762,6.582.957.39a12.931,12.931,0,0,1-3.379,5.9,12.938,12.938,0,0,0,4.59,2.148,4.96,4.96,0,0,0-.957,1.27,14.048,14.048,0,0,1-4.766-2.461,15.489,15.489,0,0,1-5.02,2.48,3.765,3.765,0,0,0-.8-1.308,13.871,13.871,0,0,0,4.726-2.188,13.609,13.609,0,0,1-2.793-4.375l1.309-.391a11.075,11.075,0,0,0,2.578,3.868,10.866,10.866,0,0,0,2.617-3.907h-7.558v-1.367h8.222Z"/>
    <path id="Path_1035" data-name="Path 1035" d="M424.988,6068.329l-.429-1.055q2.384-1,2.519-2.929a2.389,2.389,0,0,1-.351.019,1.584,1.584,0,0,1-1.075-.371,1.317,1.317,0,0,1-.429-1.054,1.334,1.334,0,0,1,.439-1.065,1.6,1.6,0,0,1,1.084-.381,1.462,1.462,0,0,1,1.25.615,2.814,2.814,0,0,1,.449,1.69,4.374,4.374,0,0,1-.927,2.783A5.417,5.417,0,0,1,424.988,6068.329Z"/>
    <path id="Path_1036" data-name="Path 1036" d="M456.412,6058.114h-8.2q-.275.959-.781,2.5h8.007v13.028h-1.484v-1.055H441.158v1.055h-1.426v-13.028H445.9q.332-1.191.586-2.5h-7.675v-1.406h17.6ZM441.158,6062v9.2h2.852V6062Zm8.418,2.207V6062h-4.219v2.207Zm0,3.457v-2.246h-4.219v2.246Zm-4.219,1.211v2.324h4.219v-2.324Zm8.594,2.324V6062h-3.008v9.2Z"/>
    <path id="Path_1037" data-name="Path 1037" d="M477.367,6058.114h-8.2q-.275.959-.781,2.5h8.008v13.028h-1.485v-1.055H462.113v1.055h-1.425v-13.028h6.171q.331-1.191.586-2.5H459.77v-1.406h17.6ZM462.113,6062v9.2h2.852V6062Zm8.418,2.207V6062h-4.218v2.207Zm0,3.457v-2.246h-4.218v2.246Zm-4.218,1.211v2.324h4.218v-2.324Zm8.593,2.324V6062H471.9v9.2Z"/>
    <path id="Path_1038" data-name="Path 1038" d="M484.845,6055.4l1.406.411a29.686,29.686,0,0,1-2.031,4.3v13.5h-1.426v-11.27a23.949,23.949,0,0,1-2.012,2.461,6.909,6.909,0,0,0-.84-1.426,18.7,18.7,0,0,0,2.764-3.564A24.725,24.725,0,0,0,484.845,6055.4Zm4.687,13.907,1.172.8a14.135,14.135,0,0,1-4.551,3.555,5.755,5.755,0,0,0-.937-1.015,14.755,14.755,0,0,0,2.422-1.534A11.27,11.27,0,0,0,489.532,6069.306Zm-4.2-1.621h1.973v-11.563H496.7v11.563h1.836v1.328h-13.2Zm9.9-10.332h-6.5v1.7h6.5Zm0,4.55v-1.757h-6.5v1.757Zm0,1.094h-6.5v1.777h6.5Zm-6.5,2.871v1.817h6.5v-1.817Zm4.61,4.356.937-.9a25.814,25.814,0,0,1,4.278,3.3l-1,1.035A25.892,25.892,0,0,0,493.341,6070.224Z"/>
    <path id="Path_1039" data-name="Path 1039" d="M507.362,6070.79l4.414-.566.039,1.328q-2.852.431-10.273,1.465l-.234-1.485q1.308-.137,4.628-.547v-3.515h-3.828v-1.348h3.828v-2.383h1.426v2.383h3.77v1.348h-3.77Zm.469-11.133,1.094-.625a22.082,22.082,0,0,1,3.164,4.473l-1.153.7q-.273-.546-.683-1.25-1.134.08-8.652.527l-.118-1.425,1.817-.079a27.587,27.587,0,0,0,1.484-3.984h-3.261v-1.328h10.214V6058h-5.293q-1.23,3.087-1.64,3.926,3.846-.156,4.609-.195Q508.592,6060.555,507.831,6059.657Zm6.172-1.894v11H512.6v-11Zm3.281-1.836h1.445v15.683a2.608,2.608,0,0,1-.205,1.162,1.268,1.268,0,0,1-.693.6,13.846,13.846,0,0,1-3.457.254,7.4,7.4,0,0,0-.508-1.543q.879.04,2.949.039a.541.541,0,0,0,.371-.127.57.57,0,0,0,.1-.381Z"/>
    <path id="Path_1040" data-name="Path 1040" d="M526.246,6055.321l1.6.293q-.625,1.838-1.055,2.95h3.32v12.968h-5.547v1.582H523.2v-14.55h2.246A23.71,23.71,0,0,0,526.246,6055.321Zm2.52,8.75v-4.179h-4.2v4.179Zm-4.2,6.133h4.2V6065.4h-4.2Zm15.332-11.7v.762q-.234,7.031-.507,9.736a7.523,7.523,0,0,1-.86,3.428,2.115,2.115,0,0,1-1.582.8,20.238,20.238,0,0,1-2.969-.019,3.106,3.106,0,0,0-.507-1.445q1.308.117,2.968.117a.963.963,0,0,0,.821-.313,6.686,6.686,0,0,0,.752-3.095q.264-2.568.459-8.6H533.4a17.669,17.669,0,0,1-1.875,3.516,9.8,9.8,0,0,0-1.211-.84,19.163,19.163,0,0,0,3.046-7.266l1.426.332a30.024,30.024,0,0,1-.859,2.891Zm-3.164,8.984-1.25.782a32.442,32.442,0,0,0-3.046-4.61l1.171-.683A38.377,38.377,0,0,1,536.734,6067.489Z"/>
    <path id="Path_1041" data-name="Path 1041" d="M551.244,6069.54l-1.035,1.094a36.521,36.521,0,0,0-2.617-3.34,10.268,10.268,0,0,1-3.418,6.113,3.711,3.711,0,0,0-1-1.093q3.047-2.265,3.359-7.7h-3.242v-1.347h3.3v-3.282h-2.871v-1.308H546.6v-3.106h1.386v3.106h2.813v1.308h-2.813v3.282h3.184v1.347h-3.242q-.02.45-.1,1.153Q548.958,6066.9,551.244,6069.54Zm7.285,2.422h1.27a.419.419,0,0,0,.273-.078.7.7,0,0,0,.166-.371,4.824,4.824,0,0,0,.1-.772q.028-.478.049-1.416a3.3,3.3,0,0,0,1.23.547,7.471,7.471,0,0,1-.43,2.705,1.262,1.262,0,0,1-1.23.694h-1.621a1.744,1.744,0,0,1-1.338-.381,2.356,2.356,0,0,1-.322-1.455V6067.2H554.9a9.026,9.026,0,0,1-1.337,4.014,6.605,6.605,0,0,1-3.448,2.393,3.363,3.363,0,0,0-.84-1.133,5.771,5.771,0,0,0,3.047-1.963,7.094,7.094,0,0,0,1.172-3.311h-1.6v-11.054h8.535V6067.2h-2.383v4.239a.767.767,0,0,0,.078.439C558.171,6071.933,558.308,6071.962,558.529,6071.962Zm-5.254-14.473v1.953h5.7v-1.953Zm0,3.184v1.973h5.7v-1.973Zm0,3.183v2.012h5.7v-2.012Z"/>
    <path id="Path_1042" data-name="Path 1042" d="M564.309,6073.134l-.118-1.192q.254-.018,11.465-.527l-.039,1.152Q566.515,6073.036,564.309,6073.134Zm10.136-16.485v1.934h1.25v1.016h-1.25v2.011h-3.906v.918h4.2v.938h-4.2v.918h5.039v1.035h-11.25v-1.035h4.844v-.918h-3.906v-.938h3.906v-.918h-3.75v-.937h3.75V6059.6h-4.961v-1.016h4.961v-.977H565.5v-.957h3.672v-1.269h1.367v1.269Zm-8.906,9.629h8.887v4.4h-8.887Zm1.211.821v.957h2.578v-.957Zm0,1.777v.957h2.578v-.957Zm3.789-11.27v.977h2.617v-.977Zm2.617,3.067V6059.6h-2.617v1.074Zm.02,7.383v-.957h-2.559v.957Zm0,1.777v-.957h-2.559v.957Zm4.609-12.07v11h-1.347v-11Zm2.422-2.012h1.406v16.016a2.357,2.357,0,0,1-.185,1.045,1.234,1.234,0,0,1-.615.556,11.323,11.323,0,0,1-3.106.254,4.516,4.516,0,0,0-.449-1.445q1.875.059,2.48.019c.313-.012.469-.156.469-.429Z"/>
    <path id="Path_1043" data-name="Path 1043" d="M590.39,6065.458a1.628,1.628,0,0,1-2.246,0,1.518,1.518,0,0,1-.459-1.133,1.483,1.483,0,0,1,.468-1.113,1.606,1.606,0,0,1,2.227,0,1.484,1.484,0,0,1,.469,1.113A1.522,1.522,0,0,1,590.39,6065.458Z"/>
    <path id="Path_1044" data-name="Path 1044" d="M597.1,6066.708l1.289.234a16.48,16.48,0,0,1-1.426,5.079,3.805,3.805,0,0,0-1.152-.567A13.3,13.3,0,0,0,597.1,6066.708Zm3.613-4.473,1.035-.41a13.671,13.671,0,0,1,1.875,4.082l-1.113.489c-.066-.248-.189-.631-.371-1.153l-1.582.1v8.32h-1.309v-8.242q-2.051.1-3.144.176l-.118-1.309,1.309-.058q.528-.664,1.328-1.856a17.406,17.406,0,0,0-2.578-2.832l.762-.957c.13.1.325.273.586.508a23.546,23.546,0,0,0,1.8-3.711l1.29.527a41.363,41.363,0,0,1-2.247,4,16.056,16.056,0,0,1,1.153,1.309,40.271,40.271,0,0,0,2.012-3.574l1.269.546a60,60,0,0,1-3.984,5.957l2.969-.117A15.171,15.171,0,0,0,600.71,6062.235Zm.508,4.688,1.074-.371a15.3,15.3,0,0,1,1.289,3.652l-1.133.371A16.793,16.793,0,0,0,601.218,6066.923Zm6.484-11.367h1.465a25.754,25.754,0,0,0,2.627,3.486,19.192,19.192,0,0,0,2.979,2.783,9.977,9.977,0,0,0-.919,1.348,25.687,25.687,0,0,1-2.949-2.91,23.935,23.935,0,0,1-2.4-3.184,22.19,22.19,0,0,1-2.275,3.262,19.563,19.563,0,0,1-2.979,2.949,4.755,4.755,0,0,0-.879-1.25,18.57,18.57,0,0,0,3.066-3.027A17.35,17.35,0,0,0,607.7,6055.556Zm-3.2,18.047v-7.95h8.516v7.871h-1.407v-1.074h-5.742v1.153Zm.84-11.7h6.621v1.368h-6.621Zm6.269,5.1h-5.742v4.141h5.742Z"/>
    <path id="Path_1045" data-name="Path 1045" d="M633.384,6065.458l.9.352a11.456,11.456,0,0,1-2.949,4.707,10.468,10.468,0,0,0,4.043,1.914,3.772,3.772,0,0,0-.9,1.172,11.319,11.319,0,0,1-4.18-2.207,14.144,14.144,0,0,1-3.984,2.109,4.025,4.025,0,0,0-.782-1.133v1.25h-1.406v-1.953q-4.356.528-6.758.8l-.137-1.309q.879-.059,1.914-.176v-6.718h-1.738v-1.25h17.481v1.25h-9.356v8.086a11.564,11.564,0,0,0,3.77-1.9,11.557,11.557,0,0,1-2.207-3.516l.859-.273h-1.719V6065.5h6.875Zm-.723-9.453v5.9H619.79V6056Zm-8.535,8.262h-3.633v1.328h3.633Zm-3.633,2.461v1.386h3.633v-1.386Zm0,2.519v1.582c.169-.013.7-.064,1.582-.156s1.569-.162,2.051-.215v-1.211Zm10.7-10.8v-1.386h-10v1.386Zm0,2.383v-1.387h-10v1.387Zm1.27,5.84h-4.121a9.39,9.39,0,0,0,1.953,2.949A9.58,9.58,0,0,0,632.466,6066.669Z"/>
    <path id="Path_1046" data-name="Path 1046" d="M651.584,6067.1l.937.625a10.351,10.351,0,0,1-3.75,3.261,31.338,31.338,0,0,0,7.325,1.348,5.528,5.528,0,0,0-.86,1.309,28.658,28.658,0,0,1-8.086-1.9,32.42,32.42,0,0,1-8.105,1.914,4.261,4.261,0,0,0-.781-1.25,32.3,32.3,0,0,0,7.324-1.426,11.653,11.653,0,0,1-2.715-2.05,24.07,24.07,0,0,1-3.281,1.8,9.278,9.278,0,0,0-1.035-.976,15.325,15.325,0,0,0,6.191-4,1.187,1.187,0,0,1-.85-.43,1.88,1.88,0,0,1-.224-1.035v-1.933h1.386v1.914a.382.382,0,0,0,.176.38,2.216,2.216,0,0,0,.8.088h2.91a.691.691,0,0,0,.616-.224,2.8,2.8,0,0,0,.205-1.084,3.19,3.19,0,0,0,1.191.41,2.764,2.764,0,0,1-.469,1.6,1.864,1.864,0,0,1-1.367.39H645.9l.352.137a8.21,8.21,0,0,1-1.113,1.191h6.211Zm-11.406-5.9v2.266h-1.387v-3.477h3.672a8.134,8.134,0,0,0-1.27-2.129l.586-.234c-.456.026-1.139.053-2.05.078a3.457,3.457,0,0,0-.313-1.152,92.381,92.381,0,0,0,14.082-1.192l.977,1.036a61.617,61.617,0,0,1-7.54.918,7.171,7.171,0,0,1,1.075,2.246l-1.231.429h3.594a22.849,22.849,0,0,0,1.836-2.929l1.406.546q-.9,1.348-1.738,2.383h3.594v3.614h-1.446v-2.4h-7.578a12.88,12.88,0,0,1,2.559,1.485l-.781.9a11.409,11.409,0,0,0-2.95-1.758l.567-.625Zm.137,5.059-1.016-.86a5.369,5.369,0,0,0,2.441-3.027l1.114.488A6.183,6.183,0,0,1,640.315,6066.259Zm5.234-8.77.234-.078q-.546.04-1.621.108t-1.582.087a6.07,6.07,0,0,1,1.25,2.11l-.664.273H646.7A7.257,7.257,0,0,0,645.549,6057.489Zm4.785,10.762h-6.426a10.7,10.7,0,0,0,3.262,2.109A10.341,10.341,0,0,0,650.334,6068.251Zm.508-5.41,1.035-.7a18.336,18.336,0,0,1,1.777,1.552,11.5,11.5,0,0,1,1.328,1.514l-1.054.82a12.513,12.513,0,0,0-1.338-1.582A18.607,18.607,0,0,0,650.842,6062.841Z"/>
    <path id="Path_1047" data-name="Path 1047" d="M662.93,6055.321l1.6.293q-.625,1.838-1.054,2.95h3.32v12.968H661.25v1.582h-1.367v-14.55h2.246A23.875,23.875,0,0,0,662.93,6055.321Zm2.519,8.75v-4.179h-4.2v4.179Zm-4.2,6.133h4.2V6065.4h-4.2Zm15.332-11.7v.762q-.234,7.031-.508,9.736a7.527,7.527,0,0,1-.859,3.428,2.115,2.115,0,0,1-1.582.8,20.24,20.24,0,0,1-2.969-.019,3.119,3.119,0,0,0-.508-1.445q1.308.117,2.969.117a.96.96,0,0,0,.82-.313,6.686,6.686,0,0,0,.752-3.095q.264-2.568.459-8.6h-5.078a17.561,17.561,0,0,1-1.875,3.516,9.793,9.793,0,0,0-1.211-.84,19.163,19.163,0,0,0,3.047-7.266l1.426.332q-.353,1.447-.86,2.891Zm-3.164,8.984-1.25.782a32.645,32.645,0,0,0-3.047-4.61l1.172-.683A38.758,38.758,0,0,1,673.418,6067.489Z"/>
    <path id="Path_1048" data-name="Path 1048" d="M695.955,6062.47l1.152,1a29.042,29.042,0,0,1-4.14,2.812,10.63,10.63,0,0,0,5.137,4.493,5.51,5.51,0,0,0-1.016,1.289q-5.313-2.4-7.344-10.254h-.039a14.144,14.144,0,0,1-2.051,1.386,9.207,9.207,0,0,1,2.178,2.715,8.214,8.214,0,0,1,.957,2.92,6.785,6.785,0,0,1-.166,2.52,2.8,2.8,0,0,1-1.055,1.65,3.324,3.324,0,0,1-2.128.664q-.666.019-1.739-.039a3.363,3.363,0,0,0-.43-1.426,17.375,17.375,0,0,0,1.875.1,2.073,2.073,0,0,0,1.368-.371,2.218,2.218,0,0,0,.752-1.426,5.913,5.913,0,0,0-.088-2.285,24.833,24.833,0,0,1-3.887,2.559,27.781,27.781,0,0,1-4.356,1.933,5.542,5.542,0,0,0-.781-1.25,23.787,23.787,0,0,0,4.717-1.894,17.25,17.25,0,0,0,3.877-2.637,10.1,10.1,0,0,0-.7-1.289,24,24,0,0,1-3.027,1.836,27.875,27.875,0,0,1-3.36,1.5,4.905,4.905,0,0,0-.8-1.153,23.269,23.269,0,0,0,3.506-1.347,16.994,16.994,0,0,0,3-1.739,12.017,12.017,0,0,0-.918-.9,32.894,32.894,0,0,1-4.9,1.894,6.484,6.484,0,0,0-.82-1.152,23.279,23.279,0,0,0,6.933-2.773H683.4v-1.289h11.192v1.289h-3.535a16.586,16.586,0,0,0,1.289,3.34A28.116,28.116,0,0,0,695.955,6062.47Zm-13.652-3.946v2.559h-1.465v-3.945h7.441v-1.758h1.485v1.758h7.6v3.945h-1.523v-2.559Z"/>
    <path id="Path_1049" data-name="Path 1049" d="M708.979,6055.985h1.641c-.013.092-.022.242-.029.45s-.01.365-.01.468q.059.743.147,1.514t.361,2.07a24.426,24.426,0,0,0,.654,2.481,20.451,20.451,0,0,0,1.065,2.6,16.349,16.349,0,0,0,1.543,2.588,13.142,13.142,0,0,0,2.158,2.266,12.331,12.331,0,0,0,2.842,1.8,3.666,3.666,0,0,0-1.094,1.23,13.467,13.467,0,0,1-3.321-2.246,13.151,13.151,0,0,1-2.441-2.988,21.769,21.769,0,0,1-2.559-6.328q-1.8,8.2-8.007,11.562a5,5,0,0,0-1.192-1.152,12.833,12.833,0,0,0,2.871-1.973,14.671,14.671,0,0,0,2.11-2.324,13.654,13.654,0,0,0,1.445-2.637,22.431,22.431,0,0,0,.938-2.6,20.124,20.124,0,0,0,.517-2.53q.206-1.414.254-2.119t.088-1.679C708.973,6056.227,708.979,6056.077,708.979,6055.985Z"/>
    <path id="Path_1050" data-name="Path 1050" d="M266.2,6105.458l.9.352a11.455,11.455,0,0,1-2.949,4.707,10.457,10.457,0,0,0,4.042,1.914,3.788,3.788,0,0,0-.9,1.172,11.334,11.334,0,0,1-4.18-2.207,14.143,14.143,0,0,1-3.984,2.109,4,4,0,0,0-.781-1.133v1.25H256.94v-1.953q-4.354.528-6.757.8l-.137-1.309q.879-.059,1.914-.176v-6.718h-1.738v-1.25H267.7v1.25h-9.355v8.086a11.559,11.559,0,0,0,3.769-1.9,11.556,11.556,0,0,1-2.207-3.516l.86-.273H259.05V6105.5h6.875Zm-.722-9.453v5.9H252.6V6096Zm-8.536,8.262h-3.632v1.328h3.632Zm-3.632,2.461v1.386h3.632v-1.386Zm0,2.519v1.582c.169-.013.7-.064,1.582-.156s1.569-.162,2.05-.215v-1.211Zm10.7-10.8v-1.386h-10v1.386Zm0,2.383v-1.387h-10v1.387Zm1.269,5.84h-4.121a9.4,9.4,0,0,0,1.953,2.949A9.531,9.531,0,0,0,265.28,6106.669Z"/>
    <path id="Path_1051" data-name="Path 1051" d="M284.433,6111.708h4v1.367H270.624v-1.367h3.867v-10.586h9.942Zm-11.758-12.734v2.832H271.23v-4.18h7.46v-2.266h1.5v2.266h7.6v4.18h-1.5v-2.832Zm10.254,3.457h-7.012v2.226h7.012Zm0,5.722v-2.246h-7.012v2.246Zm-7.012,1.27v2.285h7.012v-2.285Z"/>
    <path id="Path_1052" data-name="Path 1052" d="M308.78,6104.833h-6.523v2.363h5.058v6.387h-1.484v-.664h-8.379v.7h-1.445V6107.2h4.766v-2.363h-5.9v-1.309h5.9V6101.3h-6.348v.918q0,7.756-2.422,11.426a4.83,4.83,0,0,0-1.289-.782,12.227,12.227,0,0,0,1.787-4.765,36.621,36.621,0,0,0,.439-5.879v-5.781h14.629v4.863h-5.312v2.226h6.523Zm-14.355-7.07v2.187h11.66v-2.187Zm11.406,13.828v-3.067h-8.379v3.067Z"/>
    <path id="Path_1053" data-name="Path 1053" d="M315.335,6095.321l1.6.293q-.624,1.838-1.054,2.95h3.32v12.968h-5.547v1.582h-1.367v-14.55h2.246A23.72,23.72,0,0,0,315.335,6095.321Zm2.519,8.75v-4.179h-4.2v4.179Zm-4.2,6.133h4.2V6105.4h-4.2Zm15.332-11.7v.762q-.234,7.031-.508,9.736a7.514,7.514,0,0,1-.859,3.428,2.115,2.115,0,0,1-1.582.8,20.238,20.238,0,0,1-2.969-.019,3.108,3.108,0,0,0-.508-1.445q1.309.117,2.969.117a.963.963,0,0,0,.821-.313,6.677,6.677,0,0,0,.751-3.095q.264-2.568.459-8.6h-5.078a17.561,17.561,0,0,1-1.875,3.516,9.675,9.675,0,0,0-1.21-.84,19.179,19.179,0,0,0,3.046-7.266l1.426.332a30.015,30.015,0,0,1-.859,2.891Zm-3.164,8.984-1.25.782a32.373,32.373,0,0,0-3.047-4.61l1.172-.683A38.495,38.495,0,0,1,325.823,6107.489Z"/>
    <path id="Path_1054" data-name="Path 1054" d="M341.694,6111.649h8.028v1.368H332.261v-1.368h7.929v-4h-5.859V6106.3H348v1.348h-6.309Zm.723-12.871h-2.93a11.535,11.535,0,0,1-.488,2.393,5.986,5.986,0,0,1-1.025,1.846,5.548,5.548,0,0,1-1.856,1.445,12.586,12.586,0,0,1-2.9.977,3.523,3.523,0,0,0-.82-1.231,12.164,12.164,0,0,0,2.617-.781,4.649,4.649,0,0,0,1.64-1.172,4.573,4.573,0,0,0,.879-1.494,9.371,9.371,0,0,0,.41-1.983H334.1v2.657h-1.465v-4h7.558v-2.071h1.5v2.071h7.715V6101h-1.5v-2.227h-4.043v3.965c0,.248.049.4.147.469a1.572,1.572,0,0,0,.713.1H347.3c.3,0,.491-.091.576-.274a4.481,4.481,0,0,0,.166-1.328,3.9,3.9,0,0,0,1.289.527,3.57,3.57,0,0,1-.488,1.885,1.735,1.735,0,0,1-1.407.479h-2.871a2.773,2.773,0,0,1-1.728-.371,1.972,1.972,0,0,1-.42-1.485Z"/>
    <path id="Path_1055" data-name="Path 1055" d="M360.573,6103.036h-5.742v10.606h-1.484V6096.22h7.226Zm-1.425-5.664h-4.317v1.66h4.317Zm-4.317,4.531h4.317v-1.757h-4.317Zm10.332,9.883h-6.074v1h-1.328v-8.242h7.4Zm-1.367-6.113h-4.707v1.875H363.8Zm-4.707,4.922H363.8v-1.934h-4.707Zm10.664-14.375v15.429q0,1.388-.879,1.719a13.089,13.089,0,0,1-3.359.254,4.366,4.366,0,0,0-.528-1.523q1.7.076,2.813.019c.3,0,.449-.162.449-.488v-8.574h-5.9v-6.836Zm-1.5,1.152h-4.473v1.66h4.473Zm-4.473,4.551h4.473v-1.777h-4.473Z"/>
    <path id="Path_1056" data-name="Path 1056" d="M380.351,6108.329l-.43-1.055q2.384-1,2.519-2.929a2.389,2.389,0,0,1-.351.019,1.58,1.58,0,0,1-1.074-.371,1.318,1.318,0,0,1-.43-1.054,1.334,1.334,0,0,1,.439-1.065,1.6,1.6,0,0,1,1.084-.381,1.459,1.459,0,0,1,1.25.615,2.814,2.814,0,0,1,.45,1.69,4.375,4.375,0,0,1-.928,2.783A5.414,5.414,0,0,1,380.351,6108.329Z"/>
    <path id="Path_1057" data-name="Path 1057" d="M399.757,6098.681v1.211h-6.426v-1.211Zm-.528,8.027v5.742h-3.906v.957h-1.191v-6.7Zm-5.078-4.141v-1.191h5.078v1.191Zm0,2.657v-1.211h5.078v1.211Zm5.039-9.16v1.191h-4.921v-1.191ZM398,6107.919h-2.676v3.34H398Zm12.441.8.782.761a14.808,14.808,0,0,1-2.5,1.426,7.418,7.418,0,0,0,3.086,1.68,4.067,4.067,0,0,0-.84,1.074,8.244,8.244,0,0,1-5.274-5.254h-.332a9.558,9.558,0,0,1-1.582,1.114v2.285q.371-.059,1.534-.264c.774-.137,1.37-.237,1.787-.3l.078,1.114q-.546.1-2.852.517t-3.34.6l-.371-1.192q.254-.039.879-.127c.417-.058.742-.107.977-.146v-1.816a21.515,21.515,0,0,1-2.286.859,6.929,6.929,0,0,0-.742-.977,14.268,14.268,0,0,0,4.18-1.66h-3.867v-1.113H402.8v-1.113h-2.071v-1H402.8v-1.055h-2.442v-1H402.8v-1.074h-2.031v-3.34h4.413v3.34h-1.054v1.074h3.008v-1.074h-.879v-3.34h4.512v3.34h-2.286v1.074h2.657v1h-2.657v1.055h2.3v1h-2.3v1.113h3.047v1.113h-4.59a7.216,7.216,0,0,0,1.094,1.758A26.543,26.543,0,0,0,410.44,6108.72Zm.977-11.953v1.113H400.011v-1.113h4.863v-1.407h1.484v1.407Zm-9.512,2.851v1.543h2.11v-1.543Zm2.227,4.512v1.055h3.008v-1.055Zm0,2.051v1.113h3.008v-1.113Zm3.281-6.563v1.543h2.148v-1.543Z"/>
    <path id="Path_1058" data-name="Path 1058" d="M418.519,6102.743l-.821,1.25a15.112,15.112,0,0,0-3.867-1.972l.781-1.114A14.907,14.907,0,0,1,418.519,6102.743Zm-.176,3.223,1.093.976a68.567,68.567,0,0,1-3.632,6.426l-1.231-1.015A52.305,52.305,0,0,0,418.343,6105.966Zm1.23-8.34-.859,1.211a9.092,9.092,0,0,0-1.641-1.182,15.159,15.159,0,0,0-2.109-1.045l.8-1.093A12.391,12.391,0,0,1,419.573,6097.626Zm6.817,13.965h5.761v1.426H419.1v-1.426h5.762v-4.824h-4.355v-1.407h4.355v-4.3h-5.117v-1.407h7.07a14.346,14.346,0,0,0-1.992-1.67,19.405,19.405,0,0,0-2.519-1.552l.957-1.114a22.243,22.243,0,0,1,2.587,1.514,14.157,14.157,0,0,1,2.042,1.611l-1,1.211h4.824v1.407H426.39v4.3h4.629v1.407H426.39Z"/>
    <path id="Path_1059" data-name="Path 1059" d="M444.155,6111.786h8.262V6113H434.6v-1.211h8.086v-1.719h-6.582v-1.211h6.582v-1.386h-5.976v-6.153h5.976v-1.191H434.7v-1.23h7.988v-1.446q-3.261.216-6.152.274a3.4,3.4,0,0,0-.332-1.192,93.757,93.757,0,0,0,13.359-1.054l.8,1.152q-2.363.431-6.211.723v1.543H452.3v1.23h-8.145v1.191h6.25v6.153h-6.25v1.386h6.993v1.211h-6.993Zm-5.976-9.394v1.5h4.511v-1.5Zm0,4.023h4.511v-1.523h-4.511Zm10.742-4.023h-4.766v1.5h4.766Zm0,4.023v-1.523h-4.766v1.523Z"/>
    <path id="Path_1060" data-name="Path 1060" d="M464.792,6111.552H472.9V6113H455.163v-1.445h8.106v-5.078h-5.938v-1.426h5.938v-4.375h-4.708a17,17,0,0,1-2.089,3.262,6.47,6.47,0,0,0-1.348-.879,17.5,17.5,0,0,0,3.711-7.364l1.5.332a26.712,26.712,0,0,1-1.133,3.2h4.063v-3.848h1.523v3.848h7.168v1.445h-7.168v4.375h6.426v1.426h-6.426Z"/>
    <path id="Path_1061" data-name="Path 1061" d="M479.921,6103.075l-.86,1.231a36.525,36.525,0,0,0-3.671-2.168l.82-1.074Q479,6102.491,479.921,6103.075Zm-2.813,10.293-1.23-1.015a49.992,49.992,0,0,0,3.77-6.387l1.074.976A66.253,66.253,0,0,1,477.108,6113.368Zm3.828-15.683-.859,1.191a41.305,41.305,0,0,0-3.711-2.207l.82-1.055A33.488,33.488,0,0,1,480.936,6097.685Zm12.618,4.941h-5.489v3.281h4.18v7.617h-1.406v-.742H483.71v.84h-1.367v-7.715h4.316v-3.281H480.9v-1.445h5.761v-3.242q-2.442.351-4.414.546a6.483,6.483,0,0,0-.391-1.269,45.032,45.032,0,0,0,9.669-1.777l1.191,1.152a28.906,28.906,0,0,1-4.649,1.133v3.457h5.489Zm-2.715,8.77v-4.122H483.71v4.122Z"/>
    <path id="Path_1062" data-name="Path 1062" d="M496.71,6113.642v-8.711h7.07v8.535h-1.465v-.9h-4.179v1.075Zm5.605-7.266h-4.179v4.746h4.179Zm8.184-10.156v6.621H499.62v-6.621Zm-1.5,5.195v-3.769h-7.949v3.769Zm-3.047,3.516h7.442v8.574h-1.465v-.938h-4.531v1.075h-1.446Zm1.446,6.191h4.531v-4.746h-4.531Z"/>
    <path id="Path_1063" data-name="Path 1063" d="M521.722,6099.4H519.3a6.044,6.044,0,0,1-1.875,3.594,3.5,3.5,0,0,0-1-.957,5.369,5.369,0,0,0,1.66-4.16v-1.973l1.191.332a31.8,31.8,0,0,0,4.61-.82l1,.918a29.875,29.875,0,0,1-5.469.879v1.015h6v1.172H523.05v2.5h-1.328Zm.761,11.231,1.348.644a26.353,26.353,0,0,1-6.094,2.4,13.729,13.729,0,0,0-1.113-1.114A21.65,21.65,0,0,0,522.483,6110.634Zm-3.379-.195v-8.145h12.989v8.145Zm1.426-7.149v1.387h10.078v-1.387Zm0,2.344v1.406h10.078v-1.406Zm0,2.363v1.445h10.078V6108Zm6.973-9.766h6.875v1.172h-2.969v2.539h-1.348V6099.4h-2.773a4.942,4.942,0,0,1-2.07,2.754,2.657,2.657,0,0,0-.918-.976,3.9,3.9,0,0,0,1.914-3.438v-1.777l1.133.273a29.448,29.448,0,0,0,5.039-.8l1,.937a32.684,32.684,0,0,1-5.859.859v.547A3.838,3.838,0,0,1,527.5,6098.231Zm-.352,13.223,1.211-.762a57.3,57.3,0,0,1,6.016,2.227l-1.641.742A40.162,40.162,0,0,0,527.151,6111.454Z"/>
    <path id="Path_1064" data-name="Path 1064" d="M540.835,6095.321l1.6.293q-.624,1.838-1.054,2.95h3.32v12.968h-5.547v1.582h-1.367v-14.55h2.246A23.721,23.721,0,0,0,540.835,6095.321Zm2.519,8.75v-4.179h-4.2v4.179Zm-4.2,6.133h4.2V6105.4h-4.2Zm15.332-11.7v.762q-.234,7.031-.508,9.736a7.514,7.514,0,0,1-.859,3.428,2.114,2.114,0,0,1-1.582.8,20.239,20.239,0,0,1-2.969-.019,3.107,3.107,0,0,0-.508-1.445q1.31.117,2.969.117a.963.963,0,0,0,.821-.313,6.686,6.686,0,0,0,.752-3.095q.262-2.568.458-8.6h-5.078a17.561,17.561,0,0,1-1.875,3.516,9.669,9.669,0,0,0-1.21-.84,19.179,19.179,0,0,0,3.046-7.266l1.426.332a30.024,30.024,0,0,1-.859,2.891Zm-3.164,8.984-1.25.782a32.378,32.378,0,0,0-3.047-4.61l1.172-.683A38.5,38.5,0,0,1,551.323,6107.489Z"/>
    <path id="Path_1065" data-name="Path 1065" d="M562.019,6095.36l1.289.43a22.662,22.662,0,0,1-1.719,2.774v8.164h-1.445v-6.407a20.262,20.262,0,0,1-2.032,1.953,7.094,7.094,0,0,0-.957-1.152,17.226,17.226,0,0,0,2.725-2.6A16.377,16.377,0,0,0,562.019,6095.36Zm-3.458,17.618-1.21-.84a6.639,6.639,0,0,0,2.753-4.2l1.309.449A7.621,7.621,0,0,1,558.561,6112.978Zm6.641-1.036h3.672c.442,0,.726-.129.85-.39a6.092,6.092,0,0,0,.244-1.856,3.148,3.148,0,0,0,1.347.586,4.982,4.982,0,0,1-.615,2.393,2.078,2.078,0,0,1-1.728.6H565.1a3.693,3.693,0,0,1-2.07-.4,1.864,1.864,0,0,1-.527-1.553V6107.7h1.484v3.613c0,.261.072.43.215.508A2.594,2.594,0,0,0,565.2,6111.942Zm3.4-13.3h-2.793a13.751,13.751,0,0,1-2.012,2.558,5.1,5.1,0,0,0-1.133-.918,11.5,11.5,0,0,0,3.2-4.9l1.367.332a14.919,14.919,0,0,1-.7,1.621h7.559l.234-.039,1.055.273q-1.289,2.99-1.582,3.555l-1.016-.2a16.608,16.608,0,0,1,1.934,3.554l-1.309.606a19.73,19.73,0,0,0-2.285-4.3l1.211-.508.273.371a18.683,18.683,0,0,0,.86-2.011h-3.457v6.5a2.1,2.1,0,0,1-.147.888.947.947,0,0,1-.537.459,9.285,9.285,0,0,1-2.6.235,3.906,3.906,0,0,0-.469-1.309q.918.021,1.992.02c.234-.013.352-.111.352-.293Zm-2.813,1.738,1.387.332a12.437,12.437,0,0,1-2.637,4.16,10.528,10.528,0,0,0-1.23-.781A9.636,9.636,0,0,0,565.788,6100.38Zm2.949,8.262-1.074.976a8.426,8.426,0,0,0-1.5-1.328,14.245,14.245,0,0,0-1.953-1.191l1-.879a15.366,15.366,0,0,1,1.983,1.152A9.268,9.268,0,0,1,568.737,6108.642Zm2.012-.332,1.211-.7a19.747,19.747,0,0,1,2.168,2.2,10.3,10.3,0,0,1,1.484,2.2l-1.328.762a10.664,10.664,0,0,0-1.426-2.237A16.036,16.036,0,0,0,570.749,6108.31Z"/>
    <path id="Path_1066" data-name="Path 1066" d="M585.351,6108.329l-.43-1.055q2.383-1,2.519-2.929a2.389,2.389,0,0,1-.351.019,1.58,1.58,0,0,1-1.074-.371,1.318,1.318,0,0,1-.43-1.054,1.334,1.334,0,0,1,.439-1.065,1.6,1.6,0,0,1,1.084-.381,1.459,1.459,0,0,1,1.25.615,2.814,2.814,0,0,1,.45,1.69,4.374,4.374,0,0,1-.928,2.783A5.414,5.414,0,0,1,585.351,6108.329Z"/>
    <path id="Path_1067" data-name="Path 1067" d="M605.44,6105.321l-2.675.782v5.644q0,1.154-.723,1.445a7.991,7.991,0,0,1-2.715.293,4.775,4.775,0,0,0-.449-1.386q.488.018,2.051.019c.273,0,.41-.123.41-.371v-5.215q-.567.175-1.6.469c-.69.195-1.047.3-1.074.313l-.43-1.426q.489-.117,3.106-.821v-4.3h-2.871v-1.387h2.871v-4h1.426v4h2.441v1.387h-2.441v3.886q.351-.1,1.191-.342t1.289-.361Zm8.575-2.5,1.211.743a19.741,19.741,0,0,1-3.516,5.175q1.172,2.912,2.813,3.086.273.021.478-.332a3.672,3.672,0,0,0,.352-1.074,17.368,17.368,0,0,0,.244-1.855,3.077,3.077,0,0,0,1.25.82,9.892,9.892,0,0,1-.879,3.271,1.439,1.439,0,0,1-1.348.889q-2.578-.195-4.082-3.652a17.352,17.352,0,0,1-4.531,3.047,4.8,4.8,0,0,0-1.153-1.153,16.216,16.216,0,0,0,5.118-3.34,32.545,32.545,0,0,1-1.328-6.367l-3.047.313L605.46,6101l3.047-.332q-.275-2.871-.371-5.234h1.484q.117,2.676.352,5.078l6.113-.625.176,1.367-6.133.664a36.8,36.8,0,0,0,1.035,5.254A16.685,16.685,0,0,0,614.015,6102.821Zm.839-4.121-1.191.86a14.712,14.712,0,0,0-2.676-2.969l1.114-.723A16.768,16.768,0,0,1,614.854,6098.7Z"/>
    <path id="Path_1068" data-name="Path 1068" d="M624.905,6110.79l4.414-.566.039,1.328q-2.852.431-10.273,1.465l-.234-1.485q1.308-.137,4.628-.547v-3.515h-3.828v-1.348h3.828v-2.383h1.426v2.383h3.77v1.348h-3.77Zm.469-11.133,1.094-.625a22.082,22.082,0,0,1,3.164,4.473l-1.153.7q-.273-.546-.683-1.25-1.133.08-8.652.527l-.118-1.425,1.817-.079a27.48,27.48,0,0,0,1.484-3.984h-3.262v-1.328H629.28V6098h-5.293q-1.23,3.087-1.64,3.926,3.848-.156,4.609-.195Q626.135,6100.555,625.374,6099.657Zm6.172-1.894v11H630.14v-11Zm3.281-1.836h1.446v15.683a2.607,2.607,0,0,1-.206,1.162,1.268,1.268,0,0,1-.693.6,13.836,13.836,0,0,1-3.457.254,7.338,7.338,0,0,0-.508-1.543q.879.04,2.949.039a.539.539,0,0,0,.371-.127.564.564,0,0,0,.1-.381Z"/>
    <path id="Path_1069" data-name="Path 1069" d="M643.589,6102.841l-.86,1.211a12.944,12.944,0,0,0-3.418-2.09l.84-1.094A12.4,12.4,0,0,1,643.589,6102.841Zm4.922,1.621h8.476c-.012.3-.026.521-.039.664q-.176,3.946-.41,5.645a4.6,4.6,0,0,1-.684,2.207,1.74,1.74,0,0,1-1.25.6,21.278,21.278,0,0,1-2.382-.019,3.447,3.447,0,0,0-.371-1.348q1.152.1,2.128.1a.825.825,0,0,0,.665-.235q.566-.683.879-6.348h-7.911c-.065.079-.166.2-.3.362l-.3.361h.312v4.317h6.543V6112h-6.543v.879h-1.308v-5.332q-.684.645-1.192,1.055a9.585,9.585,0,0,0-.976-.918q-1.191,2.774-2.7,5.683l-1.309-.937a48.5,48.5,0,0,0,3.184-6.367l1.152.878-.156.391a13.382,13.382,0,0,0,3.691-4.277h-1.445V6096.3h9.609v6.758h-6.543Q649.136,6103.466,648.511,6104.462Zm-3.926-6.777-.879,1.171a12.4,12.4,0,0,0-3.379-2.246l.84-1.074A11.962,11.962,0,0,1,644.585,6097.685Zm3.066-.254v1.679h6.817v-1.679Zm0,2.793v1.7h6.817v-1.7Zm2.754,5.781,1.211.137a6.306,6.306,0,0,1-.527,1.562,25.843,25.843,0,0,1,2.441,2.129l-.8.723a24.313,24.313,0,0,0-2.109-1.973,5.765,5.765,0,0,1-2.09,1.914,4.543,4.543,0,0,0-.722-.8,4.762,4.762,0,0,0,1.748-1.562A5.173,5.173,0,0,0,650.405,6106Z"/>
    <path id="Path_1070" data-name="Path 1070" d="M661.335,6102.079v-3.34h-1.5v-1.289h4.121v-2.07h1.406v2.07h4v1.289h-6.679v3.36a1.109,1.109,0,0,0,.136.644.672.672,0,0,0,.547.176h3.4a7.487,7.487,0,0,0,1.523-.117q.02.314.137,1.269a6.338,6.338,0,0,1-1.641.137h-3.4a2.164,2.164,0,0,1-1.631-.469A2.506,2.506,0,0,1,661.335,6102.079Zm8.379,9.824h8.1v1.25H660.183v-1.25h8.046v-1.738H662.39v-1.23h5.839v-1.719h-6.7v-1.25h15.059v1.25h-6.875v1.719h5.918v1.23h-5.918Zm6.094-9.8h-4.571a6.513,6.513,0,0,1-2.363,3.34,2.593,2.593,0,0,0-.879-.977,5.133,5.133,0,0,0,1.348-1.406,6.176,6.176,0,0,0,.791-1.983,18.155,18.155,0,0,0,.371-2.246q.106-1.085.146-2.763h6.856c0,.273-.007.475-.02.6q-.137,3.984-.322,5.635a4.769,4.769,0,0,1-.557,2.119,1.536,1.536,0,0,1-1.152.527,18.491,18.491,0,0,1-2.09,0,2.729,2.729,0,0,0-.332-1.172c.534.053,1.133.078,1.8.078a.641.641,0,0,0,.6-.234A3.352,3.352,0,0,0,675.808,6102.1Zm-4.3-1.075h4.394c.013-.142.03-.383.049-.722s.036-.567.049-.684h-4.258Q671.647,6100.343,671.511,6101.024Zm4.609-3.847h-4.141l-.117,1.406h4.18Z"/>
    <path id="Path_1071" data-name="Path 1071" d="M686.561,6111.591h7.618a4.962,4.962,0,0,0,1.328-.137,1.369,1.369,0,0,0,.771-.6,3.183,3.183,0,0,0,.43-1.143q.128-.674.244-1.982a3.781,3.781,0,0,0,1.5.586,16.876,16.876,0,0,1-.371,2.3,3.658,3.658,0,0,1-.693,1.426,2.408,2.408,0,0,1-1.231.8,7.533,7.533,0,0,1-2,.215h-7.48a6.411,6.411,0,0,1-3.33-.6,2.757,2.757,0,0,1-.87-2.412v-10h1.485v3.262h10.449v-5.235H681.405v-1.465h14.531v9.161h-1.523v-1H683.964v5.293q0,.959.488,1.241A4.965,4.965,0,0,0,686.561,6111.591Z"/>
    <path id="Path_1072" data-name="Path 1072" d="M712.589,6098.524l1.055.469a26.65,26.65,0,0,1-1.817,5.1,16.038,16.038,0,0,0,3,4.971,12.125,12.125,0,0,0,4.424,3.232,4.663,4.663,0,0,0-1.055,1.309,13.213,13.213,0,0,1-4.179-3.145,18.375,18.375,0,0,1-3.086-4.746,19.651,19.651,0,0,1-8.809,7.969,5.408,5.408,0,0,0-.537-.713,3.582,3.582,0,0,0-.615-.6,18.573,18.573,0,0,0,10.742-12.285h-5.215a20.343,20.343,0,0,1-4.434,5.9,9.2,9.2,0,0,0-1.308-1.093,16.391,16.391,0,0,0,3.525-4.082,23.692,23.692,0,0,0,2.491-5.43l1.562.351a26.122,26.122,0,0,1-1.113,2.872h5.1Z"/>
    <path id="Path_1073" data-name="Path 1073" d="M253.835,6135.321l1.6.293q-.624,1.838-1.054,2.95h3.32v12.968h-5.547v1.582h-1.367v-14.55h2.246A23.718,23.718,0,0,0,253.835,6135.321Zm2.519,8.75v-4.179h-4.2v4.179Zm-4.2,6.133h4.2V6145.4h-4.2Zm15.332-11.7v.762q-.234,7.031-.507,9.736a7.524,7.524,0,0,1-.86,3.428,2.115,2.115,0,0,1-1.582.8,20.238,20.238,0,0,1-2.969-.019,3.108,3.108,0,0,0-.508-1.445q1.309.117,2.969.117a.963.963,0,0,0,.821-.313,6.677,6.677,0,0,0,.751-3.095q.264-2.568.459-8.6h-5.078a17.561,17.561,0,0,1-1.875,3.516,9.675,9.675,0,0,0-1.21-.84,19.179,19.179,0,0,0,3.046-7.266l1.426.332a30.015,30.015,0,0,1-.859,2.891Zm-3.164,8.984-1.25.782a32.373,32.373,0,0,0-3.047-4.61l1.172-.683A38.495,38.495,0,0,1,264.323,6147.489Z"/>
    <path id="Path_1074" data-name="Path 1074" d="M274.823,6135.439l1.387.429a30.463,30.463,0,0,1-2.051,4.317v13.4h-1.406v-11.23a19.018,19.018,0,0,1-2.031,2.461,6.008,6.008,0,0,0-.84-1.426,19.34,19.34,0,0,0,2.783-3.565A24.147,24.147,0,0,0,274.823,6135.439Zm13.789,8.242H284.1a24.515,24.515,0,0,0,1.279,5.595q.831,2.139,1.728,2.12.586,0,.7-2.754a3.027,3.027,0,0,0,1.153.781,6.672,6.672,0,0,1-.576,2.705,1.508,1.508,0,0,1-1.4.732,2.461,2.461,0,0,1-1.972-1.22,10.431,10.431,0,0,1-1.455-3.233,32.455,32.455,0,0,1-.928-4.726h-4.375v5.117q1.446-.234,4.609-.82l.059,1.328q-5.04.976-7.129,1.328l-.332-1.367,1.347-.235v-11.64l.977.332a42.346,42.346,0,0,0,8.711-1.7l1.172,1.133a35.163,35.163,0,0,1-3.945.938q.018,2.089.214,4.238h4.668Zm-12.558,9.414v-1.309h8.476v1.309Zm2.207-10.762H282.5q-.234-2.148-.254-3.965-1.777.294-3.984.547Z"/>
    <path id="Path_1075" data-name="Path 1075" d="M302.706,6146.474h-4.043a3.9,3.9,0,0,1-2.012-.352,35.948,35.948,0,0,1-4.98,1.777,4.427,4.427,0,0,0-.86-1.23,31.761,31.761,0,0,0,5.293-1.758v-4.18h1.368v3.575a17.128,17.128,0,0,0,6.054-4.785l1.289.566a19.035,19.035,0,0,1-6.425,5.2h4.179a.916.916,0,0,0,.87-.361,4.584,4.584,0,0,0,.263-1.67,3.228,3.228,0,0,0,1.25.488,4.322,4.322,0,0,1-.576,2.2A2.085,2.085,0,0,1,302.706,6146.474Zm-9.043-5.41,1.25.449a6.856,6.856,0,0,1-2.754,3.886l-1.152-.8A6.029,6.029,0,0,0,293.663,6141.064Zm-.6-2.637v2.539h-1.446v-3.887h7.578v-1.7h1.5v1.7h7.735v3.887h-1.5v-2.539Zm12.4,12.969v-3.477h1.465v5.664H305.46v-.82H294.718v.859h-1.445v-5.7h1.445v3.477h4.492v-4.61h1.484v4.61Zm-4.18-10.606-.8.977a9.947,9.947,0,0,0-1.5-1.133,15.2,15.2,0,0,0-1.934-1.055l.762-.859A13.391,13.391,0,0,1,301.28,6140.79Zm3.223,1.094,1.074-.723a18.421,18.421,0,0,1,2.051,1.865,11.5,11.5,0,0,1,1.523,1.905l-1.132.82a12.47,12.47,0,0,0-1.485-1.914A20.325,20.325,0,0,0,304.5,6141.884Z"/>
    <path id="Path_1076" data-name="Path 1076" d="M329.3,6138.7H314.378v4.356q0,7.129-1.973,10.6a4.281,4.281,0,0,0-1.211-.84q1.777-3.066,1.778-9.765v-5.723h7.343v-1.953h1.524v1.953H329.3Zm-2.442,7.949.938.508a9.883,9.883,0,0,1-4.023,3.985,24.764,24.764,0,0,0,5.878,1.25,3.913,3.913,0,0,0-.859,1.269,22.276,22.276,0,0,1-6.582-1.758,26.232,26.232,0,0,1-7.031,1.719,4.329,4.329,0,0,0-.625-1.25,26.065,26.065,0,0,0,6.152-1.269,10.089,10.089,0,0,1-3.145-2.872l.8-.292H315.3v-1.211h11.289Zm-.918-1.191h-7.714v-3.3h-3.184v-1.211h3.184v-1.738h1.425v1.738h4.844v-1.738h1.445v1.738h3.2v1.211h-3.2Zm-.332,2.481h-6.621a8.939,8.939,0,0,0,3.242,2.539A9.161,9.161,0,0,0,325.608,6147.939Zm-1.113-5.782h-4.844v2.11h4.844Z"/>
    <path id="Path_1077" data-name="Path 1077" d="M340.444,6141.649v1.133h-8.593v-1.133H335.5v-1.269h-2.852v-1.074H335.5V6138.1H332.28v-1.114H335.5v-1.621h1.367v1.621h3.281v1.114H336.87v1.211h2.988v1.074H336.87v1.269Zm-.644,2.227v8.3q0,.938-.547,1.211a7.194,7.194,0,0,1-2.09.195,4,4,0,0,0-.43-1.172,13.283,13.283,0,0,0,1.524,0,.225.225,0,0,0,.254-.254v-3.125H334v4.571H332.71v-9.727Zm-5.8,1.152v2.871h1.68v-2.871Zm2.715,2.871h1.8v-2.871h-1.8Zm11.152-12.324,1.016,1.094a28.645,28.645,0,0,1-6.172,1.211,15.285,15.285,0,0,1-1.8,3.75,6.443,6.443,0,0,0-1.094-.7,9.894,9.894,0,0,0,1.1-2.061,13.412,13.412,0,0,0,.732-2.353l.879.215A27.848,27.848,0,0,0,347.866,6135.575Zm1.153,6.074v3.106h1.21v1.289h-1.21v3.984h-1.368v-.82h-2.343v2.773a2.176,2.176,0,0,1-.157.928.98.98,0,0,1-.547.479,8.559,8.559,0,0,1-2.636.254,5.027,5.027,0,0,0-.469-1.348q1.641.039,2.09,0,.351,0,.351-.313v-2.773h-2.734v-1.25h2.734v-1.914h-3.711v-1.289h3.711v-1.875H341.3v-1.231Zm-3.028-.742-1.308.313a10.841,10.841,0,0,0-.821-2.891l1.231-.254A11.868,11.868,0,0,1,345.991,6140.907Zm-.683,1.973v1.875h2.343v-1.875Zm2.343,5.078v-1.914h-2.343v1.914Zm-.683-10.156,1.133-.449a15.044,15.044,0,0,1,2.128,3.593l-1.191.508A15.243,15.243,0,0,0,346.968,6137.8Z"/>
    <path id="Path_1078" data-name="Path 1078" d="M354.284,6142.528l1.445.274q-.624,5.411-2.363,7.734l-1.328-.82Q353.8,6147.451,354.284,6142.528Zm3.34-1.621h1.5v10a1.139,1.139,0,0,0,.254.889,1.872,1.872,0,0,0,1.074.205h3.672a1.1,1.1,0,0,0,1.152-.772,14.842,14.842,0,0,0,.391-3.408,3.223,3.223,0,0,0,1.387.684,10.253,10.253,0,0,1-.7,3.877,2.234,2.234,0,0,1-2.148.986h-3.867a3.271,3.271,0,0,1-2.158-.517,2.657,2.657,0,0,1-.557-1.963Zm.156-4.316.938-1.133a29.728,29.728,0,0,1,3.633,1.514,29.1,29.1,0,0,1,3.2,1.787l-.938,1.308a24.665,24.665,0,0,0-3.144-1.875A28.14,28.14,0,0,0,357.78,6136.591Zm8.106,5.937,1.308-.664a22.713,22.713,0,0,1,2.344,3.731,16.587,16.587,0,0,1,1.406,3.652l-1.445.684a16.931,16.931,0,0,0-1.367-3.662A23.882,23.882,0,0,0,365.886,6142.528Z"/>
    <path id="Path_1079" data-name="Path 1079" d="M382.792,6151.552H390.9V6153H373.163v-1.445h8.106v-5.078h-5.938v-1.426h5.938v-4.375h-4.708a17,17,0,0,1-2.089,3.262,6.47,6.47,0,0,0-1.348-.879,17.5,17.5,0,0,0,3.711-7.364l1.5.332a26.712,26.712,0,0,1-1.133,3.2h4.063v-3.848h1.523v3.848h7.168v1.445h-7.168v4.375h6.426v1.426h-6.426Z"/>
    <path id="Path_1080" data-name="Path 1080" d="M397.921,6143.075l-.86,1.231a36.525,36.525,0,0,0-3.671-2.168l.82-1.074Q397,6142.491,397.921,6143.075Zm-2.813,10.293-1.23-1.015a49.992,49.992,0,0,0,3.77-6.387l1.074.976A66.253,66.253,0,0,1,395.108,6153.368Zm3.828-15.683-.859,1.191a41.305,41.305,0,0,0-3.711-2.207l.82-1.055A33.488,33.488,0,0,1,398.936,6137.685Zm12.618,4.941h-5.489v3.281h4.18v7.617h-1.406v-.742H401.71v.84h-1.367v-7.715h4.316v-3.281H398.9v-1.445h5.761v-3.242q-2.442.351-4.414.546a6.483,6.483,0,0,0-.391-1.269,45.032,45.032,0,0,0,9.669-1.777l1.191,1.152a28.906,28.906,0,0,1-4.649,1.133v3.457h5.489Zm-2.715,8.77v-4.122H401.71v4.122Z"/>
    <path id="Path_1081" data-name="Path 1081" d="M419.134,6151.767a1.737,1.737,0,0,1-2.285,0,1.5,1.5,0,0,1-.459-1.153,1.473,1.473,0,0,1,.468-1.123,1.68,1.68,0,0,1,2.266,0,1.474,1.474,0,0,1,.469,1.123A1.5,1.5,0,0,1,419.134,6151.767Zm-1.807-4.512-.469-7.754-.058-2.363h2.383l-.039,2.363-.489,7.754Z"/>
  </g>
</svg>
