<svg xmlns="http://www.w3.org/2000/svg" width="489.422" height="138.457" viewBox="0 0 489.422 138.457">
  <g id="txt6" transform="translate(-78.742 -7250.002)">
    <path id="Path_1621" data-name="Path 1621" d="M78.957,7258.244H97.121v1.621H78.957Z"/>
    <path id="Path_1622" data-name="Path 1622" d="M107.378,7260.94l-.84,1.132a32.168,32.168,0,0,0-1.777-3.027v9.3h-1.387v-9.3a19.843,19.843,0,0,1-2.52,5.566,7.1,7.1,0,0,0-.761-1.308,16.38,16.38,0,0,0,1.8-3.36,25.451,25.451,0,0,0,1.347-4.179H100.5v-1.387h2.871V7250.1h1.387v4.277H107.2v1.387h-2.441v1.523q.429.528,1.367,1.846T107.378,7260.94Zm10.332,1.074h-3.418a15.375,15.375,0,0,0,2.129,2.382,14.615,14.615,0,0,0,2.422,1.856,7.164,7.164,0,0,0-1.055,1.152,17.478,17.478,0,0,1-2.246-2.041,20.729,20.729,0,0,1-2.07-2.548v5.546h-1.446v-5.312a16.118,16.118,0,0,1-2.295,2.6,14.5,14.5,0,0,1-2.627,1.954,5.24,5.24,0,0,0-1.015-1.153,12.736,12.736,0,0,0,2.822-1.875,13.069,13.069,0,0,0,2.334-2.558h-3.32v-6.758h4.1v-1.641H107.28v-1.25h4.746v-2.246h1.446v2.246h4.785v1.25h-4.785v1.641h4.238Zm-8.437-5.645v1.7h2.753v-1.7Zm0,2.793v1.719h2.753v-1.719Zm7.031-2.793h-2.832v1.7H116.3Zm0,4.512v-1.719h-2.832v1.719Z"/>
    <path id="Path_1623" data-name="Path 1623" d="M128.787,7260.94l-.84,1.132a32.165,32.165,0,0,0-1.777-3.027v9.3h-1.387v-9.3a19.873,19.873,0,0,1-2.519,5.566,7.173,7.173,0,0,0-.762-1.308,16.381,16.381,0,0,0,1.8-3.36,25.451,25.451,0,0,0,1.347-4.179h-2.734v-1.387h2.871V7250.1h1.387v4.277h2.441v1.387H126.17v1.523q.429.528,1.367,1.846T128.787,7260.94Zm10.332,1.074H135.7a15.375,15.375,0,0,0,2.129,2.382,14.615,14.615,0,0,0,2.422,1.856,7.164,7.164,0,0,0-1.055,1.152,17.477,17.477,0,0,1-2.246-2.041,20.728,20.728,0,0,1-2.07-2.548v5.546h-1.446v-5.312a16.111,16.111,0,0,1-2.294,2.6,14.534,14.534,0,0,1-2.627,1.954,5.269,5.269,0,0,0-1.016-1.153,12.736,12.736,0,0,0,2.822-1.875,13.069,13.069,0,0,0,2.334-2.558h-3.32v-6.758h4.1v-1.641H128.69v-1.25h4.745v-2.246h1.446v2.246h4.785v1.25h-4.785v1.641h4.238Zm-8.437-5.645v1.7h2.753v-1.7Zm0,2.793v1.719h2.753v-1.719Zm7.031-2.793h-2.832v1.7h2.832Zm0,4.512v-1.719h-2.832v1.719Z"/>
    <path id="Path_1624" data-name="Path 1624" d="M147.072,7250.061l1.6.293q-.626,1.835-1.054,2.949h3.32v12.968h-5.547v1.583h-1.367V7253.3h2.246A23.763,23.763,0,0,0,147.072,7250.061Zm2.519,8.75v-4.18h-4.2v4.18Zm-4.2,6.132h4.2v-4.8h-4.2Zm15.332-11.7v.762q-.234,7.031-.508,9.736a7.509,7.509,0,0,1-.859,3.428,2.124,2.124,0,0,1-1.582.8,20.644,20.644,0,0,1-2.969-.02,3.115,3.115,0,0,0-.508-1.445q1.308.117,2.969.117a.962.962,0,0,0,.82-.312,6.678,6.678,0,0,0,.752-3.1q.264-2.568.459-8.6H154.22a17.617,17.617,0,0,1-1.875,3.516,9.727,9.727,0,0,0-1.211-.84,19.159,19.159,0,0,0,3.047-7.266l1.426.333q-.351,1.444-.859,2.89Zm-3.164,8.985-1.25.781a32.551,32.551,0,0,0-3.047-4.61l1.172-.683A38.531,38.531,0,0,1,157.56,7262.229Z"/>
    <path id="Path_1625" data-name="Path 1625" d="M171.137,7254.162l.879.195a26.776,26.776,0,0,1-1.855,8.711,13.318,13.318,0,0,1,2.285,2.129l-.918,1.172a14.906,14.906,0,0,0-2.031-1.992,10.682,10.682,0,0,1-3.848,4.023,5.266,5.266,0,0,0-.918-1.21,8.784,8.784,0,0,0,3.633-3.711q-.82-.625-2.071-1.426l-.214.84-1.25-.625q.6-2.128,1.64-6.7h-1.894v-1.347h2.187q.548-2.5.821-4.1l1.406.156q-.137.744-.821,3.946h2.715Zm-.625,1.406h-2.636q-.509,2.286-1.211,5.157,1.484.879,2.3,1.465A22.383,22.383,0,0,0,170.512,7255.568Zm12.324,2.559v1.367h-4.765v6.992a2.275,2.275,0,0,1-.186,1.035,1.156,1.156,0,0,1-.654.528,12.182,12.182,0,0,1-3.242.273,4.9,4.9,0,0,0-.547-1.445q1.992.059,2.715.019c.3-.013.449-.149.449-.41v-6.992h-4.688v-1.367h4.688v-2.676h.586a18.274,18.274,0,0,0,2.871-2.949h-7.48v-1.367h8.554l.293-.1,1,.723a22.273,22.273,0,0,1-2.021,2.441,19.671,19.671,0,0,1-2.334,2.129v1.8Z"/>
    <path id="Path_1626" data-name="Path 1626" d="M190.789,7250.178l1.425.468a33.687,33.687,0,0,1-2.05,4.278v13.418h-1.485v-11.133a21.433,21.433,0,0,1-1.972,2.383,5.01,5.01,0,0,0-.86-1.465,17.972,17.972,0,0,0,2.793-3.545A24.42,24.42,0,0,0,190.789,7250.178Zm13.418,4.687h-6.153v2.852h5.684v1.387h-5.684v3.007h5.977v1.407h-5.977v4.843h-1.5v-13.5h-1.386a21.311,21.311,0,0,1-2.832,4.16,7.537,7.537,0,0,0-1.172-1.015,16.959,16.959,0,0,0,2.509-3.418,23.8,23.8,0,0,0,1.9-4.238l1.406.39q-.333,1-1.094,2.7h8.321Z"/>
    <path id="Path_1627" data-name="Path 1627" d="M208.174,7268.381v-8.711h7.071v8.535H213.78v-.9H209.6v1.074Zm5.606-7.266H209.6v4.746h4.18Zm8.183-10.156v6.621H211.084v-6.621Zm-1.5,5.195v-3.769H212.51v3.769Zm-3.046,3.516h7.441v8.574h-1.465v-.937h-4.531v1.074h-1.445Zm1.445,6.191h4.531v-4.746h-4.531Z"/>
    <path id="Path_1628" data-name="Path 1628" d="M235.169,7251.213v13.926h-4.375v1.64h-1.367v-15.566Zm-1.406,1.308h-2.969v2.872h2.969Zm-2.969,4.161v2.89h2.969v-2.89Zm0,7.109h2.969v-2.91h-2.969Zm15.176-3.516.977,1.016a24.283,24.283,0,0,1-3.438,2.422,8.4,8.4,0,0,0,3.731,3.379,5.52,5.52,0,0,0-1.016,1.269q-4.159-2.147-5.664-8.671h-2.109v6.386q1.23-.253,3.926-.84l.136,1.309q-1.738.429-6.953,1.6l-.371-1.386,1.816-.391v-15.39h8.926v8.711h-4.062a13.9,13.9,0,0,0,1.035,2.929A25.519,25.519,0,0,0,245.97,7260.275Zm-1.5-7.968h-6.015v2.383h6.015Zm-6.015,3.633v2.46h6.015v-2.46Z"/>
    <path id="Path_1629" data-name="Path 1629" d="M263.083,7266.8h2.949a.758.758,0,0,0,.791-.488,9.489,9.489,0,0,0,.244-2.325,3.533,3.533,0,0,0,1.387.586,6.982,6.982,0,0,1-.6,2.9,1.858,1.858,0,0,1-1.709.732h-3.223a2.935,2.935,0,0,1-1.884-.43,2.171,2.171,0,0,1-.479-1.64v-4h-3.281a10.115,10.115,0,0,1-.567,2.2,5.992,5.992,0,0,1-1.074,1.729,5.915,5.915,0,0,1-1.846,1.367,13.1,13.1,0,0,1-2.822.957,3.235,3.235,0,0,0-.84-1.309,10.057,10.057,0,0,0,3.174-1.093,4.512,4.512,0,0,0,1.68-1.583,6.943,6.943,0,0,0,.732-2.265H253V7250.8h12.6v11.328h-3.555v3.984c0,.286.065.472.2.557A1.777,1.777,0,0,0,263.083,7266.8Zm-8.633-14.668v2.051H264.1v-2.051Zm0,3.281v2.07H264.1v-2.07Zm0,3.32v2.09H264.1v-2.09Z"/>
    <path id="Path_1630" data-name="Path 1630" d="M286.973,7261.408h2.246a4.617,4.617,0,0,1-.059.625q-.2,2.813-.43,4.1a3.54,3.54,0,0,1-.644,1.719,1.71,1.71,0,0,1-1.133.507q-1.113.04-2.051-.019a2.465,2.465,0,0,0-.332-1.192q.762.06,1.739.059a.772.772,0,0,0,.586-.176q.507-.546.82-4.316h-12.3a12.1,12.1,0,0,1-2.734,5.293,3.7,3.7,0,0,0-1.094-.938q2.988-3.182,2.988-9.375v-2.656h5.645a7.933,7.933,0,0,0-1-2.422l1.269-.332a7.512,7.512,0,0,1,1.094,2.481l-.84.273h4.785q-.1,1.055-.41,3.184H287.4Q287.012,7261.135,286.973,7261.408Zm-2.3-9.1,1.133-.664q-4.746.585-10.2.8a16.506,16.506,0,0,1-2.617,4.317,6.353,6.353,0,0,0-1.23-.879,13.412,13.412,0,0,0,2.832-4.844l1.055.254a88.814,88.814,0,0,0,10.918-1l1.093,1.055q-1.035.175-1.816.273a18.568,18.568,0,0,1,3.281,3.828l-1.211.781a13.689,13.689,0,0,0-1.387-1.953A19.51,19.51,0,0,0,284.668,7252.307Zm-8.555,15.957-1.093-.606a6.647,6.647,0,0,0,1.7-3.828l1.152.332A7.353,7.353,0,0,1,276.113,7268.264Zm9.766-8.809H275.9a18.933,18.933,0,0,1-.234,1.953h9.922Q285.684,7260.823,285.879,7259.455Zm-1.856-3.164h-8.066v1.934h7.793Q283.926,7257.229,284.023,7256.291Zm-5,7.949,1.075-.117a13.763,13.763,0,0,1,.41,3.457l-1.153.156A12.416,12.416,0,0,0,279.023,7264.24Zm2.52-.117,1-.254a9.487,9.487,0,0,1,1.035,3.067l-1.074.273A10.675,10.675,0,0,0,281.543,7264.123Zm4.746,1.7-.957.391a9.551,9.551,0,0,0-1.387-2.481l.918-.351A8.132,8.132,0,0,1,286.289,7265.822Z"/>
    <path id="Path_1631" data-name="Path 1631" d="M294.241,7267.971l-1.191-.821a7.374,7.374,0,0,0,2.656-3.828l1.25.489A8.866,8.866,0,0,1,294.241,7267.971Zm2.988-11.934.9.938q-1.68,2.518-3.672,5l-1.152-1.055A46.8,46.8,0,0,0,297.229,7256.037Zm.684-3.32-.937,1.152a13.836,13.836,0,0,0-3.477-2.168l.9-1.035A13.935,13.935,0,0,1,297.913,7252.717Zm1.094,6.25,1.113.39a7.047,7.047,0,0,1-1.7,3.321l-1.055-.664A6.175,6.175,0,0,0,299.007,7258.967Zm1.914,7.871h3.769c.443,0,.729-.11.86-.332a4.422,4.422,0,0,0,.254-1.621,3.357,3.357,0,0,0,1.347.488,4.2,4.2,0,0,1-.605,2.227,2.164,2.164,0,0,1-1.7.546H300.8a3.876,3.876,0,0,1-2.11-.39,1.779,1.779,0,0,1-.527-1.5v-2.676h1.465v2.676a.471.471,0,0,0,.234.479A3.191,3.191,0,0,0,300.921,7266.838Zm4.59-9.356h5.039c-.013.247-.027.43-.039.547a29.176,29.176,0,0,1-.352,3.125,2.685,2.685,0,0,1-.527,1.328,1.558,1.558,0,0,1-1.035.45,17.517,17.517,0,0,1-1.817-.02,3.094,3.094,0,0,0-.332-1.133,14,14,0,0,0,1.543.078c.274,0,.449-.058.528-.175q.39-.392.625-3.086h-9.512v-7.637H310.1v1.133h-4.59v1.133h3.847v.976h-3.847v1.133h3.847v1h-3.847Zm-1.153,7.149-1.054.84a8.249,8.249,0,0,0-1.338-1.231,12.353,12.353,0,0,0-1.768-1.133l.977-.8A11.117,11.117,0,0,1,304.358,7264.631Zm-1.7-2.695-1.133.254a9.185,9.185,0,0,0-.586-2.579l1.055-.215A10.188,10.188,0,0,1,302.659,7261.936Zm1.485-9.844h-3.106v1.133h3.106Zm0,3.242V7254.2h-3.106v1.133Zm-3.106,1v1.152h3.106v-1.152Zm4.434,5.156-1.036.332a9.819,9.819,0,0,0-.976-2.246l1-.273A6.993,6.993,0,0,1,305.472,7261.486Zm.312-2.148.84-.371a6.348,6.348,0,0,1,1.328,1.7l-.9.43A5.154,5.154,0,0,0,305.784,7259.338Zm1.016,4.746,1.152-.684a16.738,16.738,0,0,1,1.943,1.856,11.329,11.329,0,0,1,1.416,1.875l-1.269.742a11.959,11.959,0,0,0-1.357-1.894A15.784,15.784,0,0,0,306.8,7264.084Z"/>
    <path id="Path_1632" data-name="Path 1632" d="M321.861,7263.068l-.429-1.054q2.382-1,2.519-2.93a2.28,2.28,0,0,1-.351.02,1.588,1.588,0,0,1-1.075-.372,1.317,1.317,0,0,1-.429-1.054,1.335,1.335,0,0,1,.439-1.065,1.6,1.6,0,0,1,1.084-.381,1.462,1.462,0,0,1,1.25.616,2.814,2.814,0,0,1,.449,1.689,4.376,4.376,0,0,1-.927,2.783A5.424,5.424,0,0,1,321.861,7263.068Z"/>
    <path id="Path_1633" data-name="Path 1633" d="M352.587,7251.525v14.825a2.311,2.311,0,0,1-.205,1.093,1.313,1.313,0,0,1-.693.567,13.655,13.655,0,0,1-3.712.254,5.364,5.364,0,0,0-.507-1.446q.938.04,3.125.039a.476.476,0,0,0,.527-.527v-4.043h-5.371v5.9h-1.484v-5.9h-5a11.3,11.3,0,0,1-2.5,6.192,3.308,3.308,0,0,0-.528-.528,4.572,4.572,0,0,0-.605-.449,8.03,8.03,0,0,0,1.6-2.822,13.072,13.072,0,0,0,.684-2.949q.117-1.28.117-3.018v-7.188Zm-13.184,9.336h4.864v-3.32h-4.786v1.172Q339.481,7259.865,339.4,7260.861Zm4.864-7.929h-4.786v3.2h4.786Zm6.855,3.2v-3.2h-5.371v3.2Zm-5.371,4.726h5.371v-3.32h-5.371Z"/>
    <path id="Path_1634" data-name="Path 1634" d="M359.113,7257.268l1.446.273q-.625,5.409-2.364,7.734l-1.328-.82Q358.625,7262.188,359.113,7257.268Zm3.34-1.622h1.5v10a1.139,1.139,0,0,0,.254.889,1.876,1.876,0,0,0,1.074.205h3.672a1.1,1.1,0,0,0,1.152-.771,14.873,14.873,0,0,0,.391-3.408,3.232,3.232,0,0,0,1.387.683,10.287,10.287,0,0,1-.7,3.877,2.238,2.238,0,0,1-2.149.986h-3.867a3.262,3.262,0,0,1-2.158-.517,2.658,2.658,0,0,1-.557-1.963Zm.156-4.316.938-1.133a29.664,29.664,0,0,1,3.633,1.514,29.344,29.344,0,0,1,3.2,1.787l-.938,1.309a24.665,24.665,0,0,0-3.144-1.875A27.958,27.958,0,0,0,362.609,7251.33Zm8.106,5.938,1.308-.664a22.7,22.7,0,0,1,2.344,3.73,16.647,16.647,0,0,1,1.406,3.652l-1.445.684a16.97,16.97,0,0,0-1.367-3.662A23.776,23.776,0,0,0,370.715,7257.268Z"/>
    <path id="Path_1635" data-name="Path 1635" d="M382.574,7250.061l1.6.293q-.625,1.835-1.054,2.949h3.32v12.968h-5.547v1.583h-1.367V7253.3h2.246A23.765,23.765,0,0,0,382.574,7250.061Zm2.519,8.75v-4.18h-4.2v4.18Zm-4.2,6.132h4.2v-4.8h-4.2Zm15.332-11.7v.762q-.234,7.031-.508,9.736a7.522,7.522,0,0,1-.859,3.428,2.124,2.124,0,0,1-1.582.8,20.644,20.644,0,0,1-2.969-.02,3.115,3.115,0,0,0-.508-1.445q1.308.117,2.969.117a.962.962,0,0,0,.82-.312,6.678,6.678,0,0,0,.752-3.1q.264-2.568.459-8.6h-5.078a17.614,17.614,0,0,1-1.875,3.516,9.725,9.725,0,0,0-1.211-.84,19.159,19.159,0,0,0,3.047-7.266l1.426.333q-.353,1.444-.86,2.89Zm-3.164,8.985-1.25.781a32.554,32.554,0,0,0-3.047-4.61l1.172-.683A38.535,38.535,0,0,1,393.062,7262.229Z"/>
    <path id="Path_1636" data-name="Path 1636" d="M417.5,7253.752H404.354a21.112,21.112,0,0,1-2.949,3.828,12.162,12.162,0,0,0-1.387-.918,15.471,15.471,0,0,0,2.578-2.969,20.037,20.037,0,0,0,2.012-3.691l1.5.43q-.469,1.054-.977,1.992H417.5Zm.762,7.5h-2.89q-.08,1.68-.215,3.184h2.4v1.347H415a4.14,4.14,0,0,1-.585,1.836,1.9,1.9,0,0,1-1.387.723,22.4,22.4,0,0,1-2.559-.039,2.5,2.5,0,0,0-.39-1.172q1.64.1,2.324.059a.971.971,0,0,0,.742-.254,3.212,3.212,0,0,0,.371-1.153h-9.863l-.137.762-1.5-.1q.586-2.929.9-5.195h-2.852V7259.9H403.1q.371-2.637.547-4.453H415.6c-.013.364-.02.613-.02.742q-.059,2.462-.136,3.711h2.812Zm-7.832,3.184h3.262q.176-1.8.254-3.223h-9.59q-.314,2.226-.469,3.223h6.153a15.65,15.65,0,0,0-3.575-2.4l.84-.82a19.774,19.774,0,0,1,2.129,1.2,10.236,10.236,0,0,1,1.66,1.279Zm3.692-7.657h-9.161q-.059.568-.214,1.641t-.215,1.523h6a12.985,12.985,0,0,0-3.574-2.265l.84-.84a17.672,17.672,0,0,1,2.011,1.055,10.876,10.876,0,0,1,1.641,1.172l-.84.878H414Q414.062,7258.537,414.12,7256.779Z"/>
    <path id="Path_1637" data-name="Path 1637" d="M421.505,7258.244h18.164v1.621H421.505Z"/>
    <path id="Path_1638" data-name="Path 1638" d="M450.063,7260.744l.254,1.309q-4.239,1.542-7.051,2.519l-.6-1.386q.429-.136,1.435-.469t1.572-.508v-8.418h-2.6v-1.367h6.758v1.367h-2.657v7.93Zm2.969,4.219,1.308.82a17.155,17.155,0,0,1-5.1,2.6q-.117-.175-.938-1.055a17.9,17.9,0,0,0,2.666-1.074A9.949,9.949,0,0,0,453.032,7264.963Zm-2.129-10.645h3.281q.254-1.035.43-1.972h-4.688v-1.289h11.211v1.289h-4.844q-.117.409-.361,1.142c-.163.489-.257.765-.283.83h4.707v10.313H450.9Zm8.008,3.067v-1.934H452.29v1.934Zm0,3.027v-1.933H452.29v1.933Zm0,3.067v-1.954H452.29v1.954Zm-2.578,2.363,1.113-.8a21.507,21.507,0,0,1,4,2.461l-1.172.9A21.048,21.048,0,0,0,456.333,7265.842Z"/>
    <path id="Path_1639" data-name="Path 1639" d="M469.246,7256.916l1.113-.469a15.483,15.483,0,0,1,2.109,4.082l-1.211.586a12.349,12.349,0,0,0-.547-1.484l-1.8.176v8.535h-1.348v-8.4l-3.3.293-.215-1.367c.235-.013.755-.046,1.563-.1q.663-.8,1.191-1.562a14.224,14.224,0,0,0-2.617-2.871l.762-.977q.371.294.6.508a26.058,26.058,0,0,0,1.817-3.769l1.328.527a43.02,43.02,0,0,1-2.325,4.063,11.876,11.876,0,0,1,1.211,1.406q1.31-1.975,2.247-3.711l1.23.586a47.8,47.8,0,0,1-4.023,5.7l3.105-.195Q469.772,7257.756,469.246,7256.916Zm-3.965,4.531,1.289.215a17.351,17.351,0,0,1-1.367,5.078,3.81,3.81,0,0,0-1.153-.566A14.583,14.583,0,0,0,465.281,7261.447Zm4.316.293,1.152-.39a16.545,16.545,0,0,1,1.348,3.867l-1.191.41A15.537,15.537,0,0,0,469.6,7261.74Zm2.91-10.039h9.375v16.25h-1.367v-.918h-6.66v1.094h-1.348Zm3.946,1.367h-2.6v5.508h2.6Zm-2.6,6.875v5.723h2.6v-5.723Zm6.66-1.367v-5.508h-2.754v5.508Zm-2.754,7.09h2.754v-5.723h-2.754Z"/>
    <path id="Path_1640" data-name="Path 1640" d="M488.506,7264.318v1.211h6.153v1.133h-6.153v1.719h-1.367V7256.35H489.5q.43-1.132.469-1.289l.371.039a10.087,10.087,0,0,0-.957-2.09h-.762a14.483,14.483,0,0,1-1.835,2.461,9.019,9.019,0,0,0-1.211-.821,11.7,11.7,0,0,0,2.91-4.629l1.406.352a15.319,15.319,0,0,1-.645,1.484H494.5v1.153h-3.671a8.364,8.364,0,0,1,.839,1.816l-.781.332.645.059a12.393,12.393,0,0,1-.586,1.133h3.4v5.683h-5.84v1.211h5.762v1.074Zm4.453-6.914h-4.453v1.25h4.453ZM488.506,7261h4.453v-1.328h-4.453Zm8.555-9.141h6.7v1.153h-4.433a9.281,9.281,0,0,1,1.23,2.031l-1.309.488a9.479,9.479,0,0,0-1.484-2.519h-1.406a11.707,11.707,0,0,1-2.09,2.422,7.254,7.254,0,0,0-1.191-.86,9.974,9.974,0,0,0,3.242-4.551l1.426.352Q497.49,7251.018,497.061,7251.857Zm5.84,3.946v8.4a2.243,2.243,0,0,1-.156.947,1.06,1.06,0,0,1-.586.5,10.276,10.276,0,0,1-2.989.254,3.791,3.791,0,0,0-.429-1.406,22.346,22.346,0,0,0,2.382,0q.353,0,.352-.312v-7.032h-4.258v11.075h-1.386V7255.8Z"/>
    <path id="Path_1641" data-name="Path 1641" d="M514.545,7263.068l-.43-1.054q2.383-1,2.52-2.93a2.287,2.287,0,0,1-.352.02,1.587,1.587,0,0,1-1.074-.372,1.314,1.314,0,0,1-.43-1.054,1.336,1.336,0,0,1,.44-1.065,1.6,1.6,0,0,1,1.084-.381,1.463,1.463,0,0,1,1.25.616,2.814,2.814,0,0,1,.449,1.689,4.377,4.377,0,0,1-.928,2.783A5.421,5.421,0,0,1,514.545,7263.068Z"/>
    <path id="Path_1642" data-name="Path 1642" d="M537.478,7250.861l1.308.43a29.959,29.959,0,0,1-2.851,4.922h2.929v1.289h-3.906a28.194,28.194,0,0,1-2.266,2.461h3.848a7.9,7.9,0,0,0-1.7-1.66l.976-.742a7.347,7.347,0,0,1,1.856,1.718l-.859.684h1.054v8.008H536.5v-.84h-4.336v1.015h-1.328v-6.562a16.42,16.42,0,0,1-1.836,1.309,7.759,7.759,0,0,0-.977-1.153,22.4,22.4,0,0,0,5.137-4.238h-4.687v-1.289h3.671v-2.4h-2.812v-1.29h2.812V7250.2h1.368v2.324h2.617v.919A20.14,20.14,0,0,0,537.478,7250.861Zm-.977,12.09v-1.8h-4.336v1.8Zm-4.336,2.989H536.5V7264.1h-4.336Zm1.348-9.727h.722a27.248,27.248,0,0,0,1.68-2.4h-2.4Zm12.226-5.039,1.055.683q-1.641,3.653-2.871,6,2.616,2.343,2.617,4.843.039,2.795-2.363,3.067a12.453,12.453,0,0,1-1.856.019,3.445,3.445,0,0,0-.429-1.465,5.543,5.543,0,0,0,2.617-.175q.624-.352.586-1.582,0-2.286-2.715-4.493,1.055-2.05,2.461-5.429h-3.75v15.722h-1.465v-17.129h5.859Z"/>
    <path id="Path_1643" data-name="Path 1643" d="M559.9,7263.732v2.735a22.252,22.252,0,0,0,2.364.117q4.881,0,5.9-.019a3.939,3.939,0,0,0-.527,1.406h-5.43a15.222,15.222,0,0,1-5.127-.7,5.9,5.9,0,0,1-3.057-2.637,10.242,10.242,0,0,1-3.125,3.769,6.032,6.032,0,0,0-1.093-1.054q3.047-1.975,3.886-6.5l1.485.2q-.176.879-.508,1.992a5.43,5.43,0,0,0,3.77,3.184V7260.2h-8.2v-1.347h17.579v1.347H559.9v2.227h6.6v1.308Zm5.7-12.812v6.6H552.324v-6.6Zm-1.484,2.754v-1.621H553.789v1.621Zm0,2.7v-1.6H553.789v1.6Z"/>
    <path id="Path_1644" data-name="Path 1644" d="M92.1,7306.6H94.68a.864.864,0,0,0,.488-.118.918.918,0,0,0,.283-.546,6.476,6.476,0,0,0,.156-1.065q.049-.634.088-1.865a3.927,3.927,0,0,0,1.387.664,9.731,9.731,0,0,1-.566,3.457,1.766,1.766,0,0,1-1.739.879H91.926a2.609,2.609,0,0,1-1.8-.459,2.453,2.453,0,0,1-.469-1.748v-7.129H85.93q-.117,1.406-.313,2.48a13.357,13.357,0,0,1-.615,2.217,8.211,8.211,0,0,1-1.045,2A8.073,8.073,0,0,1,82.326,7307a10.081,10.081,0,0,1-2.353,1.318,3.287,3.287,0,0,0-.938-1.172,8.358,8.358,0,0,0,2.158-1.162,7.477,7.477,0,0,0,1.465-1.435,6.562,6.562,0,0,0,.918-1.768,11.917,11.917,0,0,0,.518-1.943q.156-.919.254-2.168H79.289v-1.445h17.5v1.445H91.164v7.109a.9.9,0,0,0,.176.664A1.236,1.236,0,0,0,92.1,7306.6Zm3.007-14.922v1.425H81.027v-1.425Z"/>
    <path id="Path_1645" data-name="Path 1645" d="M109.6,7306.818h8.047v1.094H100.222v-1.094h7.91v-1.054h-6v-.977h6v-1.016q-1.407.02-3.672.04t-2.715.019l-.078-1.015q.859.018,2.93.019.468-.469,1-1.094h-3.067v-.918h12.7v.918H112.78a20.826,20.826,0,0,1,3.672,2.012l-.879.8a10.377,10.377,0,0,0-1.308-.86q-1.543.041-4.668.078v1.016h6.25v.977H109.6Zm-1.465-13.457v-1.035h-7.891v-1.055h7.891V7290.1H109.6v1.171h8.027v1.055H109.6v1.035h6.582v.977H101.667v-.977Zm9.1,8.4h-1.386v-1.8H101.94v1.8h-1.347v-2.852h16.64Zm-14.668-6.582h12.754v2.89H102.565Zm11.309,2.012v-1.133h-9.922v1.133Zm-2.5,4.55h-4.063q-.487.527-1.093,1.114,4.218,0,6.465-.02-1.173-.546-1.739-.742Z"/>
    <path id="Path_1646" data-name="Path 1646" d="M125.745,7296.994l.859.215a23.9,23.9,0,0,1-1.641,6.934,7.135,7.135,0,0,0,3.291,1.767,19.926,19.926,0,0,0,4.7.479q5.117,0,6.152-.02a4.4,4.4,0,0,0-.625,1.465h-5.566a20.853,20.853,0,0,1-5.049-.527,8.116,8.116,0,0,1-3.565-1.9,9.066,9.066,0,0,1-2.617,2.988,3.788,3.788,0,0,0-1.113-1.035,8.778,8.778,0,0,0,2.734-3.086,13,13,0,0,1-1.875-3.906l1.153-.43a10.084,10.084,0,0,0,1.347,2.969,18.561,18.561,0,0,0,1.133-4.551h-2.305l-.41.782-1.367-.391q1.484-2.774,2.969-6.055h-3.223v-1.328h3.965l.234-.078,1.016.313q-.625,1.483-2.539,5.429h2.07Zm5.878-.019v-1.485h-5.488v-1.172h5.488v-1.445h-4.081V7291.7h4.081v-1.445h1.446v1.445h4.394v2.617h1.5v1.172h-1.5v2.7h-4.394v1.464h4.59v1.153h-4.59v1.582h5.449v1.211h-5.449v2.129h-1.446V7303.6h-5.234v-1.211h5.234V7300.8h-4.316v-1.153h4.316v-1.464H127.4v-1.211Zm1.446-4.1v1.445h2.949v-1.445Zm2.949,4.1v-1.485h-2.949v1.485Z"/>
    <path id="Path_1647" data-name="Path 1647" d="M149.119,7293.42v1.211H141.58v-1.211Zm-.7,8.027v5.762h-4.629v.937h-1.309v-6.7Zm-5.9-4.14v-1.192h5.918v1.192Zm0,2.656v-1.211h5.918v1.211Zm5.86-9.16v1.191h-5.762V7290.8Zm-1.25,11.855h-3.34v3.36h3.34Zm4.98-10.6v1.113a5.825,5.825,0,0,1-2.559,5.215,5.571,5.571,0,0,0-1.093-.977,4.7,4.7,0,0,0,2.226-4.258v-2.4h6.231v4.883a.716.716,0,0,0,.078.42.413.413,0,0,0,.312.088h1q.273,0,.371-.391a10.311,10.311,0,0,0,.118-1.777,2.773,2.773,0,0,0,1.23.527,6.011,6.011,0,0,1-.41,2.334,1.189,1.189,0,0,1-1.133.6h-1.367a1.649,1.649,0,0,1-1.25-.371,2.21,2.21,0,0,1-.332-1.426v-3.574Zm5.762,6.582.957.39a12.929,12.929,0,0,1-3.379,5.9,12.954,12.954,0,0,0,4.59,2.148,4.943,4.943,0,0,0-.957,1.27,14.031,14.031,0,0,1-4.766-2.461,15.48,15.48,0,0,1-5.02,2.48,3.749,3.749,0,0,0-.8-1.308,13.889,13.889,0,0,0,4.726-2.188,13.63,13.63,0,0,1-2.793-4.375l1.309-.39a11.082,11.082,0,0,0,2.578,3.867,10.881,10.881,0,0,0,2.617-3.906h-7.558v-1.368H157.6Z"/>
    <path id="Path_1648" data-name="Path 1648" d="M180.442,7296.994v.684q-.157,5.292-.352,7.373a6,6,0,0,1-.6,2.607,1.474,1.474,0,0,1-1.152.645,12.924,12.924,0,0,1-1.934.019,3.1,3.1,0,0,0-.352-1.308c.052,0,.137,0,.254.009a1.324,1.324,0,0,1,.254.03q-.039-.176-.254-.762-1.934.195-7.675.762l-.157-1.27q.8-.04,4.2-.332v-1.758h-3.32v-3.886h3.32v-1.172h1.211v1.172h3.282v3.886h-3.282v1.68l1.9-.156c-.222-.391-.423-.716-.606-.977l1.016-.371a9.079,9.079,0,0,1,1.5,2.891l-.84.293c.235.012.514.019.84.019a.644.644,0,0,0,.586-.273,5.949,5.949,0,0,0,.459-2.295q.165-1.905.283-6.26h-8.5a13.58,13.58,0,0,1-1.934,2.031,10.193,10.193,0,0,0-1.015-.839q.018.468.019,1.406,0,5.468-.976,6.777a1.489,1.489,0,0,1-1.094.625,9.452,9.452,0,0,1-2.109.1,2.85,2.85,0,0,0-.391-1.426,14.047,14.047,0,0,0,1.934.02.818.818,0,0,0,.586-.313q.663-.839.664-5.8v-.859a15.486,15.486,0,0,1-2.93,3.457,4.954,4.954,0,0,0-.957-1.113,10.83,10.83,0,0,0,2.051-1.992,13.62,13.62,0,0,0,1.679-2.579,11.609,11.609,0,0,0-.664-2.695,27.052,27.052,0,0,1-2.05,1.914,4.349,4.349,0,0,0-1-.918,15.965,15.965,0,0,0,2.461-2.344,11.82,11.82,0,0,0-2.109-2.656l1.035-.762a12.8,12.8,0,0,1,1.973,2.305,15.616,15.616,0,0,0,1.523-2.363l1.25.644a20.028,20.028,0,0,1-2.051,3.008,14.564,14.564,0,0,1,1.153,5.469,10.684,10.684,0,0,0,3.008-3.672h-1.621v-4.726h11.035v4.726h-7.95q-.2.45-.683,1.328Zm-10.234-4.883v2.364h2.011v-2.364Zm.312,10.567h2.148v-1.856H170.52Zm2.832-10.567v2.364h2.09v-2.364Zm2.617,8.711h-2.09v1.856h2.09Zm.586-8.711v2.364h2.11v-2.364Z"/>
    <path id="Path_1649" data-name="Path 1649" d="M189.48,7305.529l4.414-.566.039,1.328q-2.852.429-10.273,1.465l-.235-1.485q1.308-.135,4.629-.546v-3.516h-3.828v-1.348h3.828v-2.382h1.426v2.382h3.769v1.348H189.48Zm.469-11.133,1.093-.625a22.029,22.029,0,0,1,3.165,4.473l-1.153.7q-.273-.546-.683-1.25-1.134.078-8.653.528l-.117-1.426,1.816-.078a27.536,27.536,0,0,0,1.485-3.985H183.64v-1.328h10.215v1.328h-5.293q-1.23,3.087-1.641,3.926,3.847-.156,4.61-.2Q190.71,7295.3,189.949,7294.4Zm6.172-1.894v11h-1.407v-11Zm3.281-1.836h1.445v15.684a2.618,2.618,0,0,1-.205,1.162,1.273,1.273,0,0,1-.693.595,13.841,13.841,0,0,1-3.457.254,7.424,7.424,0,0,0-.508-1.543q.879.04,2.949.039a.554.554,0,0,0,.371-.126.571.571,0,0,0,.1-.381Z"/>
    <path id="Path_1650" data-name="Path 1650" d="M208.323,7290.061l1.6.293q-.626,1.835-1.055,2.949h3.32v12.968h-5.546v1.583h-1.368V7293.3h2.247A23.883,23.883,0,0,0,208.323,7290.061Zm2.52,8.75v-4.18h-4.2v4.18Zm-4.2,6.132h4.2v-4.8h-4.2Zm15.332-11.7v.762q-.235,7.031-.508,9.736a7.519,7.519,0,0,1-.86,3.428,2.124,2.124,0,0,1-1.582.8,20.63,20.63,0,0,1-2.968-.02,3.127,3.127,0,0,0-.508-1.445q1.308.117,2.969.117a.964.964,0,0,0,.82-.312,6.7,6.7,0,0,0,.752-3.1q.264-2.568.459-8.6h-5.078a17.72,17.72,0,0,1-1.875,3.516,9.809,9.809,0,0,0-1.211-.84,19.174,19.174,0,0,0,3.047-7.266l1.425.333q-.351,1.444-.859,2.89Zm-3.165,8.985-1.25.781a32.528,32.528,0,0,0-3.046-4.61l1.171-.683A38.408,38.408,0,0,1,218.811,7302.229Z"/>
    <path id="Path_1651" data-name="Path 1651" d="M229.1,7290.217l1.367.39a34.521,34.521,0,0,1-1.563,3.887v13.867H227.5V7297.15a21.081,21.081,0,0,1-1.894,2.7,7.738,7.738,0,0,0-.762-1.5,18.706,18.706,0,0,0,2.412-3.643A27.186,27.186,0,0,0,229.1,7290.217Zm5.566,15.351,1.094.743a14.666,14.666,0,0,1-4.942,2.07,5.849,5.849,0,0,0-.839-1,16.5,16.5,0,0,0,2.578-.791A12.76,12.76,0,0,0,234.666,7305.568Zm-.156-12.128v-1.172H230.6v-1.153h12.734v1.153h-4.16v1.172h3.535v3.867H231.072v-3.867Zm7.988,11.992h-11v-7.168h11Zm-10.117-11.016v1.914h2.129v-1.914Zm.488,4.805v1.113h8.184v-1.113Zm0,2.031v1.152h8.184v-1.152Zm0,2.07v1.172h8.184v-1.172Zm5.059-9.882v-1.172H235.74v1.172Zm-2.188.976v1.914h2.188v-1.914Zm2.188,12.031.957-.84a39.08,39.08,0,0,1,4.805,1.934l-1.25.879A25.654,25.654,0,0,0,237.928,7306.447Zm3.437-12.031h-2.187v1.914h2.187Z"/>
    <path id="Path_1652" data-name="Path 1652" d="M250.638,7290.178l1.386.429a30.508,30.508,0,0,1-2.05,4.317v13.4h-1.407v-11.23a18.924,18.924,0,0,1-2.031,2.461,5.97,5.97,0,0,0-.84-1.426,19.247,19.247,0,0,0,2.783-3.564A24.27,24.27,0,0,0,250.638,7290.178Zm13.789,15.879v1.308H253.509v.977h-1.387v-12.207h1.387v9.922Zm-9.16-10.918h2.246q.1-.567.2-1.68h-5.352v-1.309h5.469q.136-1.581.156-2.031l1.485.078c-.013.247-.043.6-.088,1.065s-.075.759-.088.888h5.02v1.309h-5.176q-.041.429-.235,1.68h4.3v9.355h-7.929Zm6.5,2.754v-1.622h-5.1v1.622Zm0,2.734v-1.641h-5.1v1.641Zm0,2.734v-1.66h-5.1v1.66Z"/>
    <path id="Path_1653" data-name="Path 1653" d="M282.977,7302.482l1.113.782a23.29,23.29,0,0,1-3.184,2.011,10.564,10.564,0,0,0,4.453,1.875,4.037,4.037,0,0,0-.879,1.25,10.364,10.364,0,0,1-7.48-6.035h-2.461v3.809q.2-.04,4.219-.684l.058,1.309q-1.64.273-4.6.781t-3.115.527l-.235-1.386q.294-.041,2.285-.352v-4h-2.519v-1.289h3.594v-2.031h-2.989v-1.289h2.989v-1.816h-3.653v.937q0,7.775-2.363,11.5a4.5,4.5,0,0,0-1.289-.762,11.648,11.648,0,0,0,1.172-2.5,15.134,15.134,0,0,0,.664-2.91q.2-1.524.254-2.686t.058-2.646v-5.82h14.9v4.883H281v1.816h3.359v1.289H281v2.031h4.16v1.289h-6.777a8.857,8.857,0,0,0,1.6,2.129A20.718,20.718,0,0,0,282.977,7302.482Zm-12.4-10.117v2.266h11.953v-2.266Zm5.039,3.575v1.816h4v-1.816Zm0,3.1v2.031h4v-2.031Z"/>
    <path id="Path_1654" data-name="Path 1654" d="M295.14,7301.818l.176,1.328q-1.055.312-3.555,1.045t-3.554,1.045l-.391-1.425q1.308-.312,3.144-.84v-4.825h-2.519v-1.386h2.519V7292.5h-2.773v-1.367H295v1.367h-2.636v4.258h2.461v1.386h-2.461v4.454Zm7.988,5.118h1.563q.351,0,.459-.411a11.605,11.605,0,0,0,.146-1.953,2.91,2.91,0,0,0,1.231.586,6.18,6.18,0,0,1-.43,2.442,1.311,1.311,0,0,1-1.25.625h-1.933a1.925,1.925,0,0,1-1.416-.391,2.233,2.233,0,0,1-.362-1.484v-4.434h-1.972a8.666,8.666,0,0,1-1.465,4.16,7.336,7.336,0,0,1-3.887,2.4,3.427,3.427,0,0,0-.84-1.211,9.1,9.1,0,0,0,2.178-.87,4.559,4.559,0,0,0,1.406-1.22,5.488,5.488,0,0,0,.781-1.465,8.4,8.4,0,0,0,.381-1.8h-1.777v-10.937h9.336v10.937h-2.715v4.434a.767.767,0,0,0,.1.488A.733.733,0,0,0,303.128,7306.936Zm-5.8-14.707v2.011h6.484v-2.011Zm0,3.183v2.012h6.484v-2.012Zm0,3.2v2.051h6.484v-2.051Z"/>
    <path id="Path_1655" data-name="Path 1655" d="M316.424,7308.889l-.449-1.055a3.77,3.77,0,0,0,2.539-3.359,1.281,1.281,0,0,1-.371.039,1.556,1.556,0,0,1-1.074-.381,1.347,1.347,0,0,1-.43-1.065,1.312,1.312,0,0,1,.44-1.045,1.6,1.6,0,0,1,1.084-.38,1.449,1.449,0,0,1,1.269.654,3.12,3.12,0,0,1,.449,1.787,4.826,4.826,0,0,1-.908,2.949A5.5,5.5,0,0,1,316.424,7308.889Zm2.7-13.35a1.521,1.521,0,0,1-1.075.42,1.484,1.484,0,0,1-1.064-.42,1.558,1.558,0,0,1,0-2.168,1.482,1.482,0,0,1,1.064-.42,1.519,1.519,0,0,1,1.075.42,1.533,1.533,0,0,1,0,2.168Z"/>
    <path id="Path_1656" data-name="Path 1656" d="M337.923,7301.232l.332,1.426q-2.91,1.348-7.968,3.535l-.547-1.543q1.386-.527,2.754-1.113l-.332-12.363,1.523-.059.293,11.8Q335.267,7302.366,337.923,7301.232Zm10.371,5.918-1.23,1.153a43.528,43.528,0,0,0-4.492-5.293,14.759,14.759,0,0,1-6.856,5.41,6.015,6.015,0,0,0-1.172-1.289,15.636,15.636,0,0,0,4.3-2.324,11.218,11.218,0,0,0,2.881-3.418,18.392,18.392,0,0,0,1.729-4.444,42.182,42.182,0,0,0,.957-5.81l1.6.156q-.781,6.837-2.636,10.371A48.732,48.732,0,0,1,348.294,7307.15Zm-7.539-9.785-1.406.762a15.047,15.047,0,0,0-1.269-2.432,19.167,19.167,0,0,0-1.8-2.451l1.308-.664A17.065,17.065,0,0,1,340.755,7297.365Z"/>
    <path id="Path_1657" data-name="Path 1657" d="M353.251,7302.854v-12.93h6.308v1.367h-4.844v11.563Z"/>
    <path id="Path_1658" data-name="Path 1658" d="M367.836,7305.139l1.309.84a21.792,21.792,0,0,1-2.93,1.337,26.984,26.984,0,0,1-3.262,1.026,8.538,8.538,0,0,0-1.015-1.035A22.035,22.035,0,0,0,367.836,7305.139Zm11.836-1.446v1.153H363.227v-9.1h1.425v7.949Zm-3.516-9h-7.6a8.913,8.913,0,0,1-3.155-.362,1.508,1.508,0,0,1-.791-1.533V7290.1h1.446v1.406a80.109,80.109,0,0,0,9.375-.977l.839.977a80.422,80.422,0,0,1-10.214.976v.313a.589.589,0,0,0,.429.625,8.462,8.462,0,0,0,1.973.137h7.6a2.546,2.546,0,0,0,1.3-.215,1.489,1.489,0,0,0,.4-1.035,4.551,4.551,0,0,0,1.308.41,2.079,2.079,0,0,1-.722,1.592A4.365,4.365,0,0,1,376.156,7294.69Zm-9.531,7.89v-6.953h10.7v6.953Zm1.387-6.055v1.114h7.89v-1.114Zm0,1.993v1.132h7.89v-1.132Zm0,1.992v1.172h7.89v-1.172Zm4.57,5.547.957-.957q3.75,1.211,6.191,2.285l-1.23,1.015A44.5,44.5,0,0,0,372.582,7306.057Z"/>
    <path id="Path_1659" data-name="Path 1659" d="M388.964,7293.42v1.211h-6.426v-1.211Zm-.528,13.77H384.53v.956h-1.191v-6.7h5.1Zm0-11.075v1.192h-5.078v-1.192Zm-5.078,3.848v-1.211h5.078v1.211Zm5.04-9.16v1.191h-4.922V7290.8Zm-1.192,11.855H384.53V7306h2.676Zm11.875-5.918,1.25.489a26.225,26.225,0,0,1-2.5,6.562q.566,2.851,1.465,2.91.546,0,.742-3.125a2.955,2.955,0,0,0,1.035.723q-.45,4.1-1.8,4.062-1.563-.059-2.4-3.007a15.248,15.248,0,0,1-2.578,2.929,4.482,4.482,0,0,0-.938-.781,14.856,14.856,0,0,0,3.125-3.828,67.392,67.392,0,0,1-.761-8.555H391.19v2.7h3.75v.6q-.078,3.321-.185,4.629a3.655,3.655,0,0,1-.381,1.66,1.152,1.152,0,0,1-.976.508,10.24,10.24,0,0,1-1.719.039,3.118,3.118,0,0,0-.332-1.367,12.409,12.409,0,0,0,1.445.1.561.561,0,0,0,.488-.215,20.366,20.366,0,0,0,.352-4.687H391.19q0,6.229-1.738,9.316a3.929,3.929,0,0,0-1.094-.9q1.485-2.734,1.485-8.477v-5.273h5.84q-.041-1.171-.079-3.594h1.309q0,1.875.059,3.594h3.73v1.367h-3.691q.117,3.653.488,6.582A24.818,24.818,0,0,0,399.081,7296.74Zm1.641-4.219-1.036.665a11.614,11.614,0,0,0-2.031-2.364l.977-.566A11.973,11.973,0,0,1,400.722,7292.521Z"/>
    <path id="Path_1660" data-name="Path 1660" d="M411.029,7296.565A31.236,31.236,0,0,1,415.5,7301l-1.348,1.133a31.615,31.615,0,0,0-4.414-4.434Z"/>
    <path id="Path_1661" data-name="Path 1661" d="M430.575,7305.139l1.309.84a21.735,21.735,0,0,1-2.93,1.337,26.927,26.927,0,0,1-3.262,1.026,8.535,8.535,0,0,0-1.015-1.035A22.023,22.023,0,0,0,430.575,7305.139Zm11.836-1.446v1.153H425.966v-9.1h1.426v7.949Zm-3.516-9h-7.6a8.9,8.9,0,0,1-3.154-.362,1.507,1.507,0,0,1-.792-1.533V7290.1H428.8v1.406a80.11,80.11,0,0,0,9.375-.977l.84.977a80.441,80.441,0,0,1-10.215.976v.313a.589.589,0,0,0,.429.625,8.469,8.469,0,0,0,1.973.137h7.6a2.551,2.551,0,0,0,1.3-.215,1.489,1.489,0,0,0,.4-1.035,4.559,4.559,0,0,0,1.309.41,2.08,2.08,0,0,1-.723,1.592A4.365,4.365,0,0,1,438.895,7294.69Zm-9.531,7.89v-6.953h10.7v6.953Zm1.387-6.055v1.114h7.891v-1.114Zm0,1.993v1.132h7.891v-1.132Zm0,1.992v1.172h7.891v-1.172Zm4.57,5.547.957-.957q3.75,1.211,6.192,2.285l-1.231,1.015A44.452,44.452,0,0,0,435.321,7306.057Z"/>
    <path id="Path_1662" data-name="Path 1662" d="M447.231,7297.268l1.445.273q-.625,5.409-2.363,7.734l-1.328-.82Q446.743,7302.188,447.231,7297.268Zm3.34-1.622h1.5v10a1.135,1.135,0,0,0,.254.889,1.876,1.876,0,0,0,1.074.205h3.672a1.105,1.105,0,0,0,1.152-.771,14.931,14.931,0,0,0,.391-3.408,3.234,3.234,0,0,0,1.386.683,10.247,10.247,0,0,1-.7,3.877,2.236,2.236,0,0,1-2.148.986h-3.867a3.265,3.265,0,0,1-2.159-.517,2.658,2.658,0,0,1-.556-1.963Zm.156-4.316.938-1.133a29.72,29.72,0,0,1,3.632,1.514,29.372,29.372,0,0,1,3.2,1.787l-.938,1.309a24.683,24.683,0,0,0-3.145-1.875A27.949,27.949,0,0,0,450.727,7291.33Zm8.106,5.938,1.308-.664a22.764,22.764,0,0,1,2.344,3.73,16.645,16.645,0,0,1,1.406,3.652l-1.445.684a17.077,17.077,0,0,0-1.367-3.662A23.852,23.852,0,0,0,458.833,7297.268Z"/>
    <path id="Path_1663" data-name="Path 1663" d="M473.769,7296.565a31.341,31.341,0,0,1,4.473,4.433l-1.348,1.133a31.618,31.618,0,0,0-4.414-4.434Z"/>
    <path id="Path_1664" data-name="Path 1664" d="M493.315,7305.139l1.308.84a21.716,21.716,0,0,1-2.929,1.337,26.984,26.984,0,0,1-3.262,1.026,8.538,8.538,0,0,0-1.015-1.035A22.036,22.036,0,0,0,493.315,7305.139Zm11.836-1.446v1.153H488.706v-9.1h1.425v7.949Zm-3.516-9h-7.6a8.913,8.913,0,0,1-3.155-.362,1.508,1.508,0,0,1-.791-1.533V7290.1h1.446v1.406a80.109,80.109,0,0,0,9.375-.977l.839.977a80.422,80.422,0,0,1-10.214.976v.313a.589.589,0,0,0,.429.625,8.462,8.462,0,0,0,1.973.137h7.6a2.546,2.546,0,0,0,1.3-.215,1.489,1.489,0,0,0,.4-1.035,4.551,4.551,0,0,0,1.308.41,2.079,2.079,0,0,1-.722,1.592A4.365,4.365,0,0,1,501.635,7294.69Zm-9.531,7.89v-6.953h10.7v6.953Zm1.387-6.055v1.114h7.89v-1.114Zm0,1.993v1.132h7.89v-1.132Zm0,1.992v1.172h7.89v-1.172Zm4.57,5.547.957-.957q3.75,1.211,6.191,2.285l-1.23,1.015A44.5,44.5,0,0,0,498.061,7306.057Z"/>
    <path id="Path_1665" data-name="Path 1665" d="M517.939,7305.354h8.184v1.484H508.271v-1.484h8.047v-11.485h-6.992v-1.5h15.8v1.5h-7.188Z"/>
    <path id="Path_1666" data-name="Path 1666" d="M536.509,7296.565a31.281,31.281,0,0,1,4.472,4.433l-1.347,1.133a31.613,31.613,0,0,0-4.414-4.434Z"/>
    <path id="Path_1667" data-name="Path 1667" d="M556.055,7305.139l1.308.84a21.715,21.715,0,0,1-2.929,1.337,26.983,26.983,0,0,1-3.262,1.026,8.607,8.607,0,0,0-1.016-1.035A22.044,22.044,0,0,0,556.055,7305.139Zm11.836-1.446v1.153H551.445v-9.1h1.426v7.949Zm-3.516-9h-7.6a8.907,8.907,0,0,1-3.154-.362,1.508,1.508,0,0,1-.791-1.533V7290.1h1.445v1.406a80.063,80.063,0,0,0,9.375-.977l.84.977a80.423,80.423,0,0,1-10.215.976v.313a.588.588,0,0,0,.43.625,8.463,8.463,0,0,0,1.973.137h7.6a2.551,2.551,0,0,0,1.3-.215,1.488,1.488,0,0,0,.4-1.035,4.55,4.55,0,0,0,1.308.41,2.079,2.079,0,0,1-.722,1.592A4.368,4.368,0,0,1,564.375,7294.69Zm-9.531,7.89v-6.953h10.7v6.953Zm1.386-6.055v1.114h7.891v-1.114Zm0,1.993v1.132h7.891v-1.132Zm0,1.992v1.172h7.891v-1.172Zm4.571,5.547.957-.957q3.75,1.211,6.191,2.285l-1.23,1.015A44.506,44.506,0,0,0,560.8,7306.057Z"/>
    <path id="Path_1668" data-name="Path 1668" d="M79.113,7345.275v-.957H96.867v.957H91.594a19.194,19.194,0,0,1,2.49,1.26,16.726,16.726,0,0,1,2.08,1.416l-1.016.723a8.582,8.582,0,0,0-1.445-1.055q-8.418.469-13.3.7l-.156-1.093,2.715-.1a13.912,13.912,0,0,0,1.23-1.856Zm5.274-8.554H82.746a2.4,2.4,0,0,1-.918,1.357,5.307,5.307,0,0,1-2.051.772,2.127,2.127,0,0,0-.586-.782,5.626,5.626,0,0,0,1.739-.478,1.528,1.528,0,0,0,.761-.869H79.484v-.879h3.653v-.821h-2.7v-.859h2.7v-.664h1.289v.664h2.637v.859H84.426v.821H87.98v.879H85.363v.6c0,.144.023.235.069.274a.465.465,0,0,0,.283.058h1.074a.354.354,0,0,0,.313-.117,1.244,1.244,0,0,0,.1-.527,2.672,2.672,0,0,0,.821.312,1.5,1.5,0,0,1-.313.86,1.017,1.017,0,0,1-.742.234H85.6a1.585,1.585,0,0,1-.977-.205,1.2,1.2,0,0,1-.234-.889Zm-.449-3.262v-.918H79.211v-1.133h4.727V7330.1H85.4v1.308h5.157V7330.1h1.464v1.308h4.805v1.133H92.023v.918H90.559v-.918H85.4v.918Zm10.839,6.445a2.26,2.26,0,0,0,.049.606c.032.091.14.136.322.136h.43a.474.474,0,0,0,.547-.468q.039-.294.078-1.543a2.643,2.643,0,0,0,.9.488,6.314,6.314,0,0,1-.235,1.973,1.233,1.233,0,0,1-1.211.6h-.8a1.3,1.3,0,0,1-.957-.332q-.332-.273-.332-1.543v-3.691h-1.66a9.09,9.09,0,0,1-.312,2.011,8.452,8.452,0,0,1,1.582,1.192l-.762.937a7.918,7.918,0,0,0-1.25-1.015,7.216,7.216,0,0,1-2.734,2.832,3.676,3.676,0,0,0-.762-.7q-5.8.45-8.164.6l-.1-.976q.567-.02,3.731-.2v-.976H80.246v-.86h2.891v-1.035h1.289v1.035h2.929v.86H84.426v.9l3.515-.234v.508a6.809,6.809,0,0,0,2.188-2.442q-1.192-.664-1.895-.976l.723-.84q.332.137,1.563.742a7.951,7.951,0,0,0,.195-1.367H88.488v-1.114h2.246v-1.367h1.192v1.367h2.851Zm-13.164,2.461H94.484v.957H81.613Zm9.825,2.91H85.695q-.859,1.25-1.289,1.8,3.516-.116,7.832-.332a18.685,18.685,0,0,0-1.738-.84Z"/>
    <path id="Path_1669" data-name="Path 1669" d="M107.331,7336.565A31.34,31.34,0,0,1,111.8,7341l-1.348,1.133a31.616,31.616,0,0,0-4.414-4.434Z"/>
    <path id="Path_1670" data-name="Path 1670" d="M126.877,7345.139l1.309.84a21.735,21.735,0,0,1-2.93,1.337,26.971,26.971,0,0,1-3.261,1.026,8.609,8.609,0,0,0-1.016-1.035A22.022,22.022,0,0,0,126.877,7345.139Zm11.836-1.446v1.153H122.268v-9.1h1.426v7.949Zm-3.515-9h-7.6a8.9,8.9,0,0,1-3.154-.362,1.506,1.506,0,0,1-.791-1.533V7330.1H125.1v1.406a80.063,80.063,0,0,0,9.375-.977l.84.977a80.422,80.422,0,0,1-10.215.976v.313a.588.588,0,0,0,.43.625,8.458,8.458,0,0,0,1.972.137h7.6a2.551,2.551,0,0,0,1.3-.215,1.484,1.484,0,0,0,.4-1.035,4.57,4.57,0,0,0,1.309.41,2.076,2.076,0,0,1-.723,1.592A4.361,4.361,0,0,1,135.2,7334.69Zm-9.531,7.89v-6.953h10.7v6.953Zm1.386-6.055v1.114h7.891v-1.114Zm0,1.993v1.132h7.891v-1.132Zm0,1.992v1.172h7.891v-1.172Zm4.57,5.547.958-.957q3.75,1.211,6.191,2.285l-1.23,1.015A44.469,44.469,0,0,0,131.623,7346.057Z"/>
    <path id="Path_1671" data-name="Path 1671" d="M157.224,7339.162v6.309h-9.043l1.152.742a13.186,13.186,0,0,1-2.978,1.3,27.194,27.194,0,0,1-3.721.908,8.2,8.2,0,0,0-.879-1.035,24.429,24.429,0,0,0,3.565-.8,12.483,12.483,0,0,0,2.744-1.113h-3.672v-6.309Zm-12.5-.84.234-1.777H141.97v-1.133H145.1l.215-1.719H156.7l-.137,1.719h3.008v1.133h-3.106l-.156,1.777Zm-.918-5.566v1.953h-1.367v-3.144h7.539V7330.1h1.465v1.465h7.637v3.144h-1.407v-1.953Zm11.934,8.2v-.879h-9.9v.879Zm0,1.8v-.918h-9.9v.918Zm0,1.8v-.918h-9.9v.918Zm-9.434-8.106-.117.977h3.594c.012-.1.051-.43.117-.977Zm3.77-1.875h-3.535l-.118.938H150c.012-.1.029-.264.048-.479S150.076,7334.663,150.076,7334.572Zm.957,2.852h3.984l.078-.977H151.13C151.117,7336.733,151.084,7337.06,151.033,7337.424Zm4.121-1.914.078-.938h-3.926l-.058.938Zm-3.106,10.8.977-.84q4.023,1.113,6.621,2.031l-1.289.879Q155.837,7347.385,152.048,7346.311Z"/>
    <path id="Path_1672" data-name="Path 1672" d="M168.274,7335.627v12.93h-6.309v-1.387h4.844v-11.543Z"/>
    <path id="Path_1673" data-name="Path 1673" d="M177.41,7330.061l1.6.293q-.626,1.835-1.054,2.949h3.32v12.968H175.73v1.583h-1.367V7333.3h2.246A24.067,24.067,0,0,0,177.41,7330.061Zm2.519,8.75v-4.18h-4.2v4.18Zm-4.2,6.132h4.2v-4.8h-4.2Zm15.332-11.7v.762q-.234,7.031-.508,9.736a7.522,7.522,0,0,1-.859,3.428,2.124,2.124,0,0,1-1.582.8,20.644,20.644,0,0,1-2.969-.02,3.127,3.127,0,0,0-.508-1.445q1.308.117,2.969.117a.962.962,0,0,0,.82-.312,6.678,6.678,0,0,0,.752-3.1q.264-2.568.459-8.6h-5.078a17.617,17.617,0,0,1-1.875,3.516,9.726,9.726,0,0,0-1.211-.84,19.159,19.159,0,0,0,3.047-7.266l1.426.333q-.353,1.444-.86,2.89Zm-3.164,8.985-1.25.781a32.551,32.551,0,0,0-3.047-4.61l1.172-.683A38.531,38.531,0,0,1,187.9,7342.229Z"/>
    <path id="Path_1674" data-name="Path 1674" d="M201.507,7340.94l-.84,1.132q-.45-.937-1.758-3.027v9.3H197.5v-9.3a19.843,19.843,0,0,1-2.52,5.566,5.317,5.317,0,0,0-.781-1.308,15.274,15.274,0,0,0,1.817-3.34,25.351,25.351,0,0,0,1.347-4.2h-2.793v-1.387h2.93V7330.1h1.406v4.277h2.324v1.387h-2.324v1.523q.411.508,1.348,1.826T201.507,7340.94Zm9.551-1.368,1.347.606a15.022,15.022,0,0,1-3.2,3.828,36.7,36.7,0,0,1,3.555,3.5l-1.192.918a29.935,29.935,0,0,0-3.417-3.535,22.385,22.385,0,0,1-6.583,3.457,5.176,5.176,0,0,0-.9-1.192,21.7,21.7,0,0,0,6.182-3.056A14.687,14.687,0,0,0,211.058,7339.572ZM201.6,7337.7l.879-.976q.45.312,1.016.742a26.414,26.414,0,0,0,2.09-2.988h-4.3v-1.348h4.981v-2.969h1.464v2.969h4.824v1.348h-5.253l.078.039q-1.641,2.265-2.91,3.691,1.347,1.095,1.777,1.524a15.386,15.386,0,0,0,3.164-3.77l1.309.527a18.479,18.479,0,0,1-3.682,4.346,21.453,21.453,0,0,1-4.932,3.272,3.387,3.387,0,0,0-.937-1.094,18.588,18.588,0,0,0,3.965-2.344A30.8,30.8,0,0,0,201.6,7337.7Z"/>
    <path id="Path_1675" data-name="Path 1675" d="M217.185,7337.268l1.446.273q-.625,5.409-2.363,7.734l-1.328-.82Q216.7,7342.188,217.185,7337.268Zm3.34-1.622h1.5v10a1.139,1.139,0,0,0,.254.889,1.876,1.876,0,0,0,1.074.205h3.672a1.107,1.107,0,0,0,1.153-.771,14.953,14.953,0,0,0,.39-3.408,3.238,3.238,0,0,0,1.387.683,10.287,10.287,0,0,1-.7,3.877,2.237,2.237,0,0,1-2.149.986H223.24a3.262,3.262,0,0,1-2.158-.517,2.658,2.658,0,0,1-.557-1.963Zm.157-4.316.937-1.133a29.664,29.664,0,0,1,3.633,1.514,29.345,29.345,0,0,1,3.2,1.787l-.937,1.309a24.756,24.756,0,0,0-3.145-1.875A27.948,27.948,0,0,0,220.682,7331.33Zm8.1,5.938,1.309-.664a22.766,22.766,0,0,1,2.344,3.73,16.748,16.748,0,0,1,1.406,3.652l-1.446.684a16.969,16.969,0,0,0-1.367-3.662A23.777,23.777,0,0,0,228.787,7337.268Z"/>
    <path id="Path_1676" data-name="Path 1676" d="M240.013,7330.217l1.367.39a34.524,34.524,0,0,1-1.563,3.887v13.867h-1.406V7337.15a21.079,21.079,0,0,1-1.894,2.7,7.739,7.739,0,0,0-.762-1.5,18.707,18.707,0,0,0,2.412-3.643A27.1,27.1,0,0,0,240.013,7330.217Zm5.566,15.351,1.094.743a14.675,14.675,0,0,1-4.942,2.07,5.849,5.849,0,0,0-.839-1,16.5,16.5,0,0,0,2.578-.791A12.76,12.76,0,0,0,245.579,7345.568Zm-.156-12.128v-1.172h-3.906v-1.153h12.734v1.153h-4.16v1.172h3.535v3.867H241.985v-3.867Zm7.988,11.992h-11v-7.168h11Zm-10.117-11.016v1.914h2.129v-1.914Zm.488,4.805v1.113h8.184v-1.113Zm0,2.031v1.152h8.184v-1.152Zm0,2.07v1.172h8.184v-1.172Zm5.059-9.882v-1.172h-2.188v1.172Zm-2.188.976v1.914h2.188v-1.914Zm2.188,12.031.957-.84a38.984,38.984,0,0,1,4.8,1.934l-1.25.879A25.638,25.638,0,0,0,248.841,7346.447Zm3.437-12.031h-2.187v1.914h2.187Z"/>
    <path id="Path_1677" data-name="Path 1677" d="M261.551,7330.178l1.387.429a30.621,30.621,0,0,1-2.051,4.317v13.4H259.48v-11.23a18.924,18.924,0,0,1-2.031,2.461,5.971,5.971,0,0,0-.84-1.426,19.292,19.292,0,0,0,2.784-3.564A24.331,24.331,0,0,0,261.551,7330.178Zm13.789,15.879v1.308H264.422v.977h-1.387v-12.207h1.387v9.922Zm-9.16-10.918h2.246q.1-.567.2-1.68H263.27v-1.309h5.468q.137-1.581.157-2.031l1.484.078c-.013.247-.043.6-.088,1.065s-.075.759-.088.888h5.02v1.309h-5.176q-.041.429-.234,1.68h4.3v9.355H266.18Zm6.5,2.754v-1.622h-5.1v1.622Zm0,2.734v-1.641h-5.1v1.641Zm0,2.734v-1.66h-5.1v1.66Z"/>
    <path id="Path_1678" data-name="Path 1678" d="M285.492,7343.068l-.43-1.054q2.382-1,2.52-2.93a2.3,2.3,0,0,1-.352.02,1.585,1.585,0,0,1-1.074-.372,1.314,1.314,0,0,1-.43-1.054,1.336,1.336,0,0,1,.44-1.065,1.594,1.594,0,0,1,1.083-.381,1.46,1.46,0,0,1,1.25.616,2.807,2.807,0,0,1,.45,1.689,4.377,4.377,0,0,1-.928,2.783A5.426,5.426,0,0,1,285.492,7343.068Z"/>
    <path id="Path_1679" data-name="Path 1679" d="M304.022,7330.295h1.367a35.281,35.281,0,0,1,4.375,3.77l-.976,1.113a28.023,28.023,0,0,0-3.868-3.594,24.247,24.247,0,0,1-2.05,2.324h4.609V7335h-4.863v-.84a19.345,19.345,0,0,1-2.891,2.246,4.186,4.186,0,0,0-.43-.537,2.678,2.678,0,0,0-.507-.459,15.081,15.081,0,0,0,3.076-2.4A15.351,15.351,0,0,0,304.022,7330.295Zm4.766,11.328h-6.7q-.059.587-.175,1.231h7.168v5.332h-1.309v-.684h-4.609v.82h-1.29v-5.195a10.818,10.818,0,0,1-2.089,4.785,3.476,3.476,0,0,0-.459-.5,2.832,2.832,0,0,0-.537-.42q2.09-2.539,2.089-7.656V7336.1h7.911Zm-6.6-1.133h5.254v-1.152h-5.234v.019C302.206,7339.853,302.2,7340.229,302.186,7340.49Zm5.254-3.281h-5.234v1.152h5.234Zm.332,6.8h-4.609v2.344h4.609Zm4.062-11.5v11h-1.406v-11Zm3.047-2.012h1.446v15.9q0,1.366-.879,1.718a11.77,11.77,0,0,1-3.457.254,5.3,5.3,0,0,0-.528-1.484q1.816.078,2.93.019a.432.432,0,0,0,.488-.488Z"/>
    <path id="Path_1680" data-name="Path 1680" d="M324.017,7339.357v5q1.367,2.111,5.039,2.266,5,.136,9.121-.137a4.138,4.138,0,0,0-.508,1.446q-4.609.155-8.593.058-3.907-.176-5.723-2.344-1.016.978-2.891,2.559l-.761-1.465q1.6-1.172,2.851-2.285v-3.711h-2.6v-1.387Zm.488-2.695-1.035,1.055a12.614,12.614,0,0,0-3.437-2.4l.976-.958A12.864,12.864,0,0,1,324.505,7336.662Zm.586-3.906-1.035,1.015a12.081,12.081,0,0,0-3.242-2.5l.977-.917A12.283,12.283,0,0,1,325.091,7332.756Zm5.664,1.152h-3.007a14.378,14.378,0,0,1-1.524,2.11,6.884,6.884,0,0,0-1.289-.743,11.389,11.389,0,0,0,2.91-4.9l1.387.352q-.216.625-.781,1.894h2.3v-2.48h1.465v2.48h4.766v1.289H332.22v2.559h5.625v1.289H325.091v-1.289h5.664Zm5.606,11.465H334.9v-.664h-6.563v.723h-1.425V7339.3h9.453Zm-8.028-1.933H334.9v-2.93h-6.563Z"/>
    <path id="Path_1681" data-name="Path 1681" d="M357.723,7334.533v11.875a2.745,2.745,0,0,1-.185,1.123,1.114,1.114,0,0,1-.674.576,14.967,14.967,0,0,1-3.516.235,4.441,4.441,0,0,0-.488-1.5q2.07.059,2.93.019a.551.551,0,0,0,.351-.117.46.46,0,0,0,.1-.332V7336h-5.1q1.191,4.824,4.863,6.387a6.651,6.651,0,0,0-1.035,1.289,9.889,9.889,0,0,1-5.019-6.543,10.032,10.032,0,0,1-5.137,6.64,5.9,5.9,0,0,0-1-1.171,9.082,9.082,0,0,0,5-6.6H343.6v12.363h-1.465v-13.828H349.4q-.158-1.172-.215-2.207h-3.594V7331h4.864a28.59,28.59,0,0,0,.351,3.535Z"/>
    <path id="Path_1682" data-name="Path 1682" d="M375.785,7330.119v9.18a17.015,17.015,0,0,0,4.629,3.164,5.449,5.449,0,0,0-1.074,1.25,18.467,18.467,0,0,1-3.555-2.481v7.09h-1.523v-8.535a21.758,21.758,0,0,1-2.969-3.926q-2.07,8.947-8.262,12.4a4.292,4.292,0,0,0-1.191-1.114,14.277,14.277,0,0,0,5.918-5.879,21.782,21.782,0,0,0-3.809-2.831,15.166,15.166,0,0,1-1.328,1.542,6.242,6.242,0,0,0-1.211-.957,14.11,14.11,0,0,0,2.832-3.818,23.051,23.051,0,0,0,1.934-5.107l1.465.293a28.734,28.734,0,0,1-.9,2.773h3.77l.273-.1.957.372q-.02.156-.293,1.679l.781-.293a17.8,17.8,0,0,0,2.032,2.91v-7.617Zm-5.7,4.414h-3.906a25.579,25.579,0,0,1-1.465,2.793,22.361,22.361,0,0,1,3.73,2.617A24.535,24.535,0,0,0,370.082,7334.533Z"/>
    <path id="Path_1683" data-name="Path 1683" d="M387.3,7331.174l1.465.488a12.825,12.825,0,0,1-2.325,2.451,16.789,16.789,0,0,1-2.988,2,5.182,5.182,0,0,0-1-1.074,14.616,14.616,0,0,0,2.8-1.758A9.448,9.448,0,0,0,387.3,7331.174Zm11.211,12.07h-3.2a14.414,14.414,0,0,0,5.645,3.4,3.707,3.707,0,0,0-.977,1.191,16.589,16.589,0,0,1-2.978-1.611,15.1,15.1,0,0,1-2.607-2.2v4.317h-1.407v-5.1h-2.773v5.1h-1.406v-4.3a15.117,15.117,0,0,1-5.293,3.848,3.527,3.527,0,0,0-.918-1.114,13.517,13.517,0,0,0,2.822-1.484,13.968,13.968,0,0,0,2.432-2.051h-2.969v-1.152h3.926v-1.6h-6.133v-1.211h6.133v-1.523h-3.77V7336.6h3.77v-1.524h-1.934v-1.23h9.8v1.23h-2.285v1.524h4.121v2.675H400.7v1.211h-2.187Zm-8.965-12.637h6.25a8.178,8.178,0,0,0,2.119,2.452,12.088,12.088,0,0,0,2.979,1.787,4.045,4.045,0,0,0-1.036,1.133,14.553,14.553,0,0,1-2.744-1.778,11.205,11.205,0,0,1-2.158-2.285h-5.41Zm.664,4.473v1.524h2.773v-1.524Zm0,2.676v1.523h2.773v-1.523Zm0,4.336h2.773v-1.6h-2.773Zm6.855-4.336h-2.675v1.523h2.675Zm0,4.336v-1.6h-2.675v1.6Z"/>
    <path id="Path_1684" data-name="Path 1684" d="M409.193,7344.143l1.407.9a25.08,25.08,0,0,1-6.035,3.34,12.308,12.308,0,0,0-1.075-1.094,23.575,23.575,0,0,0,3.184-1.465A13.923,13.923,0,0,0,409.193,7344.143Zm12.364-1.524v1.367H403.7v-1.367h3.184v-11.562h11.7v11.562Zm-4.453-10.312h-8.789v1.7H417.1Zm0,4.511v-1.679h-8.789v1.679Zm0,1.133h-8.789v1.739H417.1Zm-8.789,2.871v1.8H417.1v-1.8Zm6.406,4.278.937-1.016a48.339,48.339,0,0,1,6.113,3.184l-1.171,1.113A43.872,43.872,0,0,0,414.721,7345.1Z"/>
    <path id="Path_1685" data-name="Path 1685" d="M428.368,7330.061l1.6.293q-.625,1.835-1.055,2.949h3.32v12.968h-5.546v1.583h-1.368V7333.3h2.246A23.761,23.761,0,0,0,428.368,7330.061Zm2.52,8.75v-4.18h-4.2v4.18Zm-4.2,6.132h4.2v-4.8h-4.2Zm15.331-11.7v.762q-.234,7.031-.507,9.736a7.519,7.519,0,0,1-.86,3.428,2.124,2.124,0,0,1-1.582.8,20.644,20.644,0,0,1-2.969-.02,3.113,3.113,0,0,0-.507-1.445q1.308.117,2.969.117a.965.965,0,0,0,.82-.312,6.7,6.7,0,0,0,.752-3.1q.263-2.568.459-8.6h-5.078a17.722,17.722,0,0,1-1.875,3.516,9.807,9.807,0,0,0-1.211-.84,19.159,19.159,0,0,0,3.046-7.266l1.426.333q-.351,1.444-.859,2.89Zm-3.164,8.985-1.25.781a32.528,32.528,0,0,0-3.046-4.61l1.171-.683A38.406,38.406,0,0,1,438.856,7342.229Z"/>
    <path id="Path_1686" data-name="Path 1686" d="M451.274,7337.99l.977.45a15.237,15.237,0,0,1-2.286,5.156,12.775,12.775,0,0,1-3.593,3.515,4.757,4.757,0,0,0-1.153-1.113,11.7,11.7,0,0,0,3.067-2.695,12.151,12.151,0,0,0,2.09-3.828H445.61v-1.426h5.41Zm10.352-2.344,1.328.958a47.366,47.366,0,0,1-5.254,4.336,12.4,12.4,0,0,0,5.937,4.843,4.748,4.748,0,0,0-1.015,1.289,14.294,14.294,0,0,1-7.344-7.695v7.09a2.263,2.263,0,0,1-.2,1.045,1.2,1.2,0,0,1-.665.537,12.574,12.574,0,0,1-3.359.273,4.543,4.543,0,0,0-.547-1.484q.84.037,1.709.049t1.026-.01a.659.659,0,0,0,.371-.107.426.426,0,0,0,.1-.323v-10.8h-5.488V7334.2h7.051v1.485a20.919,20.919,0,0,0,1.719,4.16A31.024,31.024,0,0,0,461.626,7335.646Zm-3.516-2.929-.742,1.387a24.668,24.668,0,0,0-3.34-1.485,37.3,37.3,0,0,0-3.985-1.269l.723-1.211q1.934.468,4.033,1.191A22.024,22.024,0,0,1,458.11,7332.717Z"/>
    <path id="Path_1687" data-name="Path 1687" d="M466.972,7339.494l-1-.449a11.039,11.039,0,0,0,1.035-5.1l1,.137A11.685,11.685,0,0,1,466.972,7339.494Zm1.817,8.848V7330.1H470.2v18.242Zm3.808-11.231-1.015.45a15.238,15.238,0,0,0-1.231-3.868l.918-.332A12.525,12.525,0,0,1,472.6,7337.111Zm8.613,9.2h3.282v1.406H471.445v-1.406h8.242q.781-4.278,1.328-9.61h-4.922q-.664,3.438-1.386,6.621l-1.5-.1q1.152-4.454,2.129-10.528h-3.184v-1.367h12.07v1.367h-7.4q-.1.548-.488,2.676h6.347Q481.893,7342.286,481.21,7346.311Zm-5.625-4.024.743-.957a14.453,14.453,0,0,1,3.164,2.149l-.743,1.035A13.737,13.737,0,0,0,475.585,7342.287Zm.782-3.3.664-.976a11.459,11.459,0,0,1,3.086,1.66l-.664,1.113A12.532,12.532,0,0,0,476.367,7338.986Z"/>
    <path id="Path_1688" data-name="Path 1688" d="M492.182,7336.994l.86.215a23.936,23.936,0,0,1-1.641,6.934,7.13,7.13,0,0,0,3.291,1.767,19.911,19.911,0,0,0,4.7.479q5.116,0,6.153-.02a4.4,4.4,0,0,0-.625,1.465H499.35a20.858,20.858,0,0,1-5.049-.527,8.112,8.112,0,0,1-3.564-1.9,9.078,9.078,0,0,1-2.617,2.988,3.779,3.779,0,0,0-1.114-1.035,8.79,8.79,0,0,0,2.735-3.086,12.956,12.956,0,0,1-1.875-3.906l1.152-.43a10.085,10.085,0,0,0,1.348,2.969,18.608,18.608,0,0,0,1.132-4.551h-2.3l-.41.782-1.367-.391q1.484-2.774,2.968-6.055h-3.222v-1.328h3.964l.235-.078,1.015.313q-.626,1.483-2.539,5.429h2.071Zm5.879-.019v-1.485h-5.488v-1.172h5.488v-1.445h-4.082V7331.7h4.082v-1.445h1.445v1.445H503.9v2.617h1.5v1.172h-1.5v2.7h-4.395v1.464h4.59v1.153h-4.59v1.582h5.45v1.211h-5.45v2.129h-1.445V7343.6h-5.234v-1.211h5.234V7340.8h-4.316v-1.153h4.316v-1.464h-4.219v-1.211Zm1.445-4.1v1.445h2.95v-1.445Zm2.95,4.1v-1.485h-2.95v1.485Z"/>
    <path id="Path_1689" data-name="Path 1689" d="M526.377,7338.576q-.021.645-.04.957a4.7,4.7,0,0,1-.107.713,1.16,1.16,0,0,1-.264.576,1.458,1.458,0,0,1-.478.3,2.006,2.006,0,0,1-.772.127H523.8a1.541,1.541,0,0,1-1.093-.332,2.451,2.451,0,0,1-.372-1.66v-3.008H519.56v.352a7.554,7.554,0,0,1-.058.937h2.089v1.074h-2.383a4.638,4.638,0,0,1-2.011,2.207h.683v1.5h8.2v1.211h-7.05a15.125,15.125,0,0,0,3.369,1.807,22.14,22.14,0,0,0,4.053,1.2,5.19,5.19,0,0,0-.957,1.25,22.388,22.388,0,0,1-4.151-1.524,15.286,15.286,0,0,1-3.467-2.206v4.277h-1.425v-4.3a15.673,15.673,0,0,1-3.477,2.275,20.256,20.256,0,0,1-4.121,1.534,4.394,4.394,0,0,0-.938-1.192,22.435,22.435,0,0,0,3.985-1.269,14.718,14.718,0,0,0,3.3-1.856H508.33v-1.211h8.125v-1.113a9.826,9.826,0,0,1-1.016.43,3.638,3.638,0,0,0-.9-.977,5.967,5.967,0,0,0,3.183-2.051h-2.012v-1.074h2.461a4.167,4.167,0,0,0,.1-.957v-.332h-1.7V7335.2h7.148v4.121c0,.4.032.632.1.684a.5.5,0,0,0,.312.078h.528a.74.74,0,0,0,.449-.107.6.6,0,0,0,.176-.4c.026-.169.051-.683.078-1.543A2.808,2.808,0,0,0,526.377,7338.576Zm-14.59-5.722h-.879a13.442,13.442,0,0,1-1.7,2.07,6.817,6.817,0,0,0-1.191-.82,10.351,10.351,0,0,0,2.852-4.083l1.386.352q-.137.333-.605,1.27h5.273v1.152a8.89,8.89,0,0,0,1.758-2.774l1.426.333a11.153,11.153,0,0,1-.625,1.289h6.562v1.211h-4.238a7.394,7.394,0,0,1,1.016,1.582l-1.27.449a9.139,9.139,0,0,0-1.289-2.031h-1.6a13.042,13.042,0,0,1-1.778,1.875,9.42,9.42,0,0,0-1.289-.723,8.3,8.3,0,0,0,1.27-1.152h-3.731a7.578,7.578,0,0,1,.782,1.621l-1.211.371A11.653,11.653,0,0,0,511.787,7332.854Zm-3.438,8.027-.176-1.25,3.223-.41v-2.715h-2.813v-1.094H515.5v1.094h-2.735v2.539q.879-.136,2.715-.41l.059,1.172q-1.251.195-3.731.556T508.349,7340.881Z"/>
    <path id="Path_1690" data-name="Path 1690" d="M536.45,7343.068l-.43-1.054q2.383-1,2.52-2.93a2.28,2.28,0,0,1-.351.02,1.588,1.588,0,0,1-1.075-.372,1.317,1.317,0,0,1-.429-1.054,1.335,1.335,0,0,1,.439-1.065,1.6,1.6,0,0,1,1.084-.381,1.462,1.462,0,0,1,1.25.616,2.814,2.814,0,0,1,.449,1.689,4.371,4.371,0,0,1-.928,2.783A5.416,5.416,0,0,1,536.45,7343.068Z"/>
    <path id="Path_1691" data-name="Path 1691" d="M558.086,7337.639H552.3v10.742H550.84v-17.422h7.246Zm-1.406-5.547H552.3v1.621h4.375Zm-4.375,4.414h4.375v-1.719H552.3Zm12.05,7.031h-2.714v4.453h-1.309v-4.453H557.48a7.464,7.464,0,0,1-.751,2.539,5.583,5.583,0,0,1-1.924,2.188,4.588,4.588,0,0,0-.977-.879,4.523,4.523,0,0,0,1.7-1.739,5.507,5.507,0,0,0,.664-2.109h-2.5v-1.25h2.539v-2.168h-2.167v-1.23h9.863v1.23h-2.285v2.168h2.714Zm-6.835-1.25h2.812v-2.168H557.52Zm9.746-11.328v15.488q0,1.269-.782,1.6a9.5,9.5,0,0,1-3.1.273,3.814,3.814,0,0,0-.469-1.484q1.8.059,2.481.019c.273,0,.41-.149.41-.449v-8.75h-5.957v-6.7Zm-1.465,1.133H561.27v1.621H565.8Zm-4.531,4.433H565.8v-1.738H561.27Z"/>
    <path id="Path_1692" data-name="Path 1692" d="M83.977,7370.295h1.367a35.282,35.282,0,0,1,4.375,3.77l-.977,1.113a28.072,28.072,0,0,0-3.867-3.594,24.109,24.109,0,0,1-2.051,2.324h4.61V7375H82.57v-.84a19.335,19.335,0,0,1-2.89,2.246,4.37,4.37,0,0,0-.43-.537,2.678,2.678,0,0,0-.508-.459,15.053,15.053,0,0,0,3.076-2.4A15.314,15.314,0,0,0,83.977,7370.295Zm4.765,11.328h-6.7q-.059.587-.176,1.231h7.168v5.332H87.727v-.684h-4.61v.82H81.828v-5.195a10.82,10.82,0,0,1-2.09,4.785,3.416,3.416,0,0,0-.459-.5,2.8,2.8,0,0,0-.537-.42q2.09-2.539,2.09-7.656V7376.1h7.91Zm-6.6-1.133h5.254v-1.152H82.16v.019C82.16,7379.853,82.153,7380.229,82.141,7380.49Zm5.254-3.281H82.16v1.152h5.235Zm.332,6.8h-4.61v2.344h4.61Zm4.062-11.5v11H90.383v-11Zm3.047-2.012h1.445v15.9q0,1.366-.879,1.718a11.766,11.766,0,0,1-3.457.254,5.26,5.26,0,0,0-.527-1.484q1.816.078,2.93.019a.432.432,0,0,0,.488-.488Z"/>
    <path id="Path_1693" data-name="Path 1693" d="M115.512,7382.385h2.07v1.386H99.457v-1.386h2.07l-.39-10.879,1,.293a22.507,22.507,0,0,0,2.676-1.5l1.152,1.055q-1.132.585-3.418,1.543l.078,2.128h2.695v1.25H102.66l.078,2.442h2.6v1.269H102.8l.078,2.4h3.438v-4.649h1.25v4.649h1.914v-5.528h-3.145v-6.582h1.309v2.051h3.515v1.25h-3.515v2.09h3.144v6.719h3.32q.06-.82.137-2.4h-2.519v-1.269H114.3q0-.391.029-1.211t.049-1.231h-2.617v-1.25H114.4q.039-1.6.04-2.363h-2.872v-1.289h4.258Q115.785,7377.13,115.512,7382.385ZM105.16,7384.1l1.387.878a27.719,27.719,0,0,1-5.8,3.418,10.244,10.244,0,0,0-1.133-1.054,25.526,25.526,0,0,0,3.077-1.524A14.413,14.413,0,0,0,105.16,7384.1Zm5.176.937,1.094-.976a50.444,50.444,0,0,1,6.035,3.339l-1.387,1.016A38.213,38.213,0,0,0,110.336,7385.041Z"/>
    <path id="Path_1694" data-name="Path 1694" d="M125.387,7382.678l1.406.566a17.245,17.245,0,0,1-2.666,2.529,25.528,25.528,0,0,1-3.193,2.139,7.132,7.132,0,0,0-1.192-1.055,19.7,19.7,0,0,0,3.145-1.884A13.41,13.41,0,0,0,125.387,7382.678Zm-.547-4.492,1.367.527a23.219,23.219,0,0,1-5.137,3.457,6.457,6.457,0,0,0-1.132-1.016A16.743,16.743,0,0,0,124.84,7378.186Zm11.074,1.171,1.231.84a32.939,32.939,0,0,1-4.473,3.125,11.578,11.578,0,0,0,5.371,3.379,4.564,4.564,0,0,0-.977,1.289,12.117,12.117,0,0,1-4.345-2.627,13.939,13.939,0,0,1-3.057-4.228v7.265h-1.445v-7.363q-1.465.743-2.871,1.328a12.606,12.606,0,0,0-1-1.172,30.859,30.859,0,0,0,6.972-3.359h-11.23v-1.348h2.285v-4.55h5.137a14.738,14.738,0,0,0,.683-1.836l1.68.156q-.1.253-.762,1.68h6.66v4.55h2.149v1.348h-5.86l.84.449a27.2,27.2,0,0,1-2.441,1.543,11.511,11.511,0,0,0,1.465,2.578A25.437,25.437,0,0,0,135.914,7379.357Zm-12.148-6.113v3.242h2.675v-3.242Zm6.621,3.242v-3.242h-2.7v3.242Zm3.945-3.242h-2.7v3.242h2.7Z"/>
    <path id="Path_1695" data-name="Path 1695" d="M158.035,7372.99h-6.328q-.645,1.074-1.426,2.207v13.125H148.7V7377.19a25.329,25.329,0,0,1-7.246,5.82,9.123,9.123,0,0,0-1-1.289,22.355,22.355,0,0,0,5.361-3.78,21.731,21.731,0,0,0,3.975-4.951h-8.828v-1.465h17.07Zm-7.363,4.317,1.113-.977q1.895,1.212,3.838,2.705a27.869,27.869,0,0,1,2.979,2.569l-1.172,1.132a28.208,28.208,0,0,0-2.989-2.666Q152.488,7378.518,150.672,7377.307Z"/>
    <path id="Path_1696" data-name="Path 1696" d="M178.223,7371.135v15.371a2.412,2.412,0,0,1-.186,1.055,1.219,1.219,0,0,1-.635.566,12.2,12.2,0,0,1-3.339.273,3.837,3.837,0,0,0-.547-1.464q2.031.059,2.773.019c.313-.014.469-.163.469-.449v-13.945h-13.5v15.859h-1.446v-17.285Zm-3.145,3.5v1.309H165v-1.309Zm-1.055,9.707h-6.64v1.445H166v-7.773h8.027Zm-1.406-5.059h-5.234v3.77h5.234Z"/>
    <path id="Path_1697" data-name="Path 1697" d="M185.344,7370.061l1.6.293q-.626,1.835-1.054,2.949h3.32v12.968h-5.547v1.583H182.3V7373.3h2.246A23.912,23.912,0,0,0,185.344,7370.061Zm2.519,8.75v-4.18h-4.2v4.18Zm-4.2,6.132h4.2v-4.8h-4.2Zm15.332-11.7v.762q-.234,7.031-.508,9.736a7.509,7.509,0,0,1-.859,3.428,2.124,2.124,0,0,1-1.582.8,20.644,20.644,0,0,1-2.969-.02,3.115,3.115,0,0,0-.508-1.445q1.308.117,2.969.117a.962.962,0,0,0,.82-.312,6.691,6.691,0,0,0,.752-3.1q.264-2.568.459-8.6h-5.078a17.617,17.617,0,0,1-1.875,3.516,9.727,9.727,0,0,0-1.211-.84,19.159,19.159,0,0,0,3.047-7.266l1.426.333q-.351,1.444-.859,2.89Zm-3.164,8.985-1.25.781a32.552,32.552,0,0,0-3.047-4.61l1.172-.683A38.533,38.533,0,0,1,195.832,7382.229Z"/>
    <path id="Path_1698" data-name="Path 1698" d="M205.707,7370.646h6.074a17.3,17.3,0,0,0,3.711,3.907,20.624,20.624,0,0,0,4.746,2.871,5.525,5.525,0,0,0-1,1.289,21.449,21.449,0,0,1-4.482-2.861,23.8,23.8,0,0,1-3.78-3.819,26.169,26.169,0,0,1-3.808,3.77,28.428,28.428,0,0,1-4.434,3.047,4.008,4.008,0,0,0-.918-1.192,21.692,21.692,0,0,0,3.907-2.412,24.827,24.827,0,0,0,3.535-3.213h-3.555Zm6,12.5v3.321H219.5v1.348H202.6v-1.348h7.578v-3.321h-5.606v-1.328h5.606v-3.066h-4.746v-1.328H216.6v1.328h-4.9v3.066h5.684v1.328Z"/>
    <path id="Path_1699" data-name="Path 1699" d="M231.07,7384.377l-.879,1.094a26.394,26.394,0,0,0-2.265-2.227v5.078H226.48v-5.273a15.353,15.353,0,0,1-3.339,3.867,4.948,4.948,0,0,0-1-1.074,10.455,10.455,0,0,0,2.168-1.924,15.3,15.3,0,0,0,1.855-2.588h-3.594v-1.25h3.906v-2.109h-3.964v-1.25h9.277v1.25h-3.867v2.109h3.711v1.25h-3.711v.488q.565.411,1.679,1.319T231.07,7384.377Zm.489-12.187v1.25h-8.75v-1.25h3.671v-2.012h1.446v2.012Zm-5.547,4.16-1.231.351a10.686,10.686,0,0,0-.781-2.89l1.152-.293A9.15,9.15,0,0,1,226.012,7376.35Zm3.242.293-1.191-.274a14.534,14.534,0,0,0,1-2.89l1.367.312Q229.645,7375.861,229.254,7376.643Zm11.367.156v1.406h-2.246v10.039H236.93v-10.039h-2.989v.488q0,6.6-3.183,9.766a2.854,2.854,0,0,0-.469-.557,3.605,3.605,0,0,0-.586-.478,8.441,8.441,0,0,0,1.5-1.983,8.582,8.582,0,0,0,.869-2.324,18.265,18.265,0,0,0,.352-2.207q.087-.986.088-2.236v-6.953l1.093.332a25.772,25.772,0,0,0,5.547-1.719l1.211,1.113a32.059,32.059,0,0,1-6.426,1.8v3.555Z"/>
    <path id="Path_1700" data-name="Path 1700" d="M252.8,7386.291h8.105v1.445H243.172v-1.445h8.1v-5.078H245.34v-1.426h5.937v-4.375H246.57a17.058,17.058,0,0,1-2.09,3.262,6.609,6.609,0,0,0-1.347-.879,17.523,17.523,0,0,0,3.711-7.363l1.5.332a26.75,26.75,0,0,1-1.133,3.2h4.062v-3.848H252.8v3.848h7.168v1.445H252.8v4.375h6.426v1.426H252.8Z"/>
    <path id="Path_1701" data-name="Path 1701" d="M271.582,7370.061h1.5a21.764,21.764,0,0,0,4.131,3.72,23.983,23.983,0,0,0,4.912,2.725,6.062,6.062,0,0,0-1,1.309,29.736,29.736,0,0,1-4.844-2.872,21.152,21.152,0,0,1-3.867-3.457,20.126,20.126,0,0,1-3.652,3.438,29.674,29.674,0,0,1-4.9,3.027,4.7,4.7,0,0,0-.9-1.211,25.475,25.475,0,0,0,5.01-3.056A17.157,17.157,0,0,0,271.582,7370.061Zm-.137,8.3v6.8h-4.824v1.68h-1.367v-8.477Zm-1.386,1.289h-3.438v4.18h3.438Zm6.6-4.433v1.328h-8.144v-1.328Zm3.32,3.125v6.211a2.25,2.25,0,0,1-.146.908,1.011,1.011,0,0,1-.557.5,10.822,10.822,0,0,1-2.988.234,4.435,4.435,0,0,0-.43-1.328,21.618,21.618,0,0,0,2.344,0,.522.522,0,0,0,.293-.088.343.343,0,0,0,.078-.263v-4.883h-4.023v8.769h-1.406v-10.058Z"/>
    <path id="Path_1702" data-name="Path 1702" d="M292.766,7374.455h8.32c-.013.378-.026.638-.039.781q-.333,6.192-.7,8.819a7.141,7.141,0,0,1-1.035,3.369,2.433,2.433,0,0,1-1.7.8,26.057,26.057,0,0,1-3.2-.059,3.025,3.025,0,0,0-.508-1.523q1.6.135,3.145.136a1.25,1.25,0,0,0,.918-.293,6.043,6.043,0,0,0,.908-2.939q.361-2.412.635-7.607h-6.816a24.833,24.833,0,0,1-.313,2.568,15.117,15.117,0,0,1-.742,2.607,13.646,13.646,0,0,1-1.309,2.617,14.209,14.209,0,0,1-2.07,2.461,16.57,16.57,0,0,1-2.969,2.266,4.3,4.3,0,0,0-1.152-1.172,15.824,15.824,0,0,0,3.33-2.568,11.379,11.379,0,0,0,2.119-2.949,15.735,15.735,0,0,0,1.094-2.9,16.917,16.917,0,0,0,.469-2.929h-6.407v-1.485h6.485v-4.316h1.543Z"/>
    <path id="Path_1703" data-name="Path 1703" d="M311.859,7383.068l-.429-1.054q2.382-1,2.519-2.93a2.281,2.281,0,0,1-.351.02,1.59,1.59,0,0,1-1.075-.372,1.317,1.317,0,0,1-.429-1.054,1.335,1.335,0,0,1,.439-1.065,1.6,1.6,0,0,1,1.084-.381,1.462,1.462,0,0,1,1.25.616,2.807,2.807,0,0,1,.449,1.689,4.376,4.376,0,0,1-.927,2.783A5.424,5.424,0,0,1,311.859,7383.068Z"/>
    <path id="Path_1704" data-name="Path 1704" d="M329.332,7370.178l1.387.429a30.625,30.625,0,0,1-2.051,4.317v13.4h-1.406v-11.23a18.93,18.93,0,0,1-2.032,2.461,5.974,5.974,0,0,0-.839-1.426,19.332,19.332,0,0,0,2.783-3.564A24.265,24.265,0,0,0,329.332,7370.178Zm11.016,11.23v1.348h2.793v1.211h-2.793v2.832a1.967,1.967,0,0,1-.176.937,1.018,1.018,0,0,1-.625.45,14.31,14.31,0,0,1-3.125.195,4.81,4.81,0,0,0-.488-1.27,25.265,25.265,0,0,0,2.558,0,.56.56,0,0,0,.323-.068.324.324,0,0,0,.087-.264v-2.812H329.84v-1.211H338.9v-1.289q-6.445.2-8.515.234l-.157-1.211q2.422,0,5.645-.058v-1.211h-4.668v-5.313h4.668v-1.133h-5.469v-1.132h5.469v-1.387h1.445v1.387h5.625v1.132H337.32v1.133h4.825v5.313H340.66a15.565,15.565,0,0,1,2.6,2.363l-1.055.684a9.516,9.516,0,0,0-.8-.9Zm-4.746,5.157-1.133.8a14.516,14.516,0,0,0-2.5-2.715l1.094-.683A15.082,15.082,0,0,1,335.6,7386.565Zm-3.047-11.7v1.231h3.32v-1.231Zm0,3.418h3.32v-1.289h-3.32Zm8.164-3.418h-3.4v1.231h3.4Zm0,3.418v-1.289h-3.4v1.289Zm-3.4.938v1.172l2.969-.059q-.527-.45-1.191-.938l.332-.175Z"/>
    <path id="Path_1705" data-name="Path 1705" d="M349.129,7379.338v5.137q1.425,2.068,5.2,2.187,1.7.078,4.658.039t4.8-.156a3.625,3.625,0,0,0-.449,1.387q-4.746.195-8.984.058-3.946-.138-5.8-2.285-.781.8-2.52,2.5l-.781-1.387a27.388,27.388,0,0,0,2.52-2.207v-3.906h-2.344v-1.367Zm.586-2.676-1,1.016a8.756,8.756,0,0,0-1.4-1.2,14.722,14.722,0,0,0-1.806-1.123l.937-.918A11.654,11.654,0,0,1,349.715,7376.662Zm.469-3.984-1.055.957a10.456,10.456,0,0,0-2.93-2.422l.977-.84A11.157,11.157,0,0,1,350.184,7372.678Zm2.363.039v3.476q0,5.666-2.227,8.692a2.389,2.389,0,0,0-.957-.879q1.914-2.637,1.914-7.832v-4.785l1.036.273a48.771,48.771,0,0,0,9.082-1.562l1.23.957a37.013,37.013,0,0,1-4.082.9v1h3.809v.918h-3.809v.957h3.77l.253-.058.84.253a20.43,20.43,0,0,1-.742,2.169l-1.055-.352q.156-.508.313-1.055h-3.438v1.172l2.7-.215.078.84-2.774.254v.547c0,.2.039.315.118.361a1.394,1.394,0,0,0,.566.069h2.07a.572.572,0,0,0,.459-.137,1.4,1.4,0,0,0,.127-.684,2.791,2.791,0,0,0,1,.371,1.854,1.854,0,0,1-.39,1.133,1.4,1.4,0,0,1-1.016.313h-2.363a2.4,2.4,0,0,1-1.406-.284,1.427,1.427,0,0,1-.352-1.142v-.449l-1.738.175-.1-.9,1.836-.156v-1.27h-2.188v2.227q0,4.98-2.207,7.539a4.6,4.6,0,0,0-1-.723q1.992-2.284,1.993-6.836v-3.164h3.378v-2.676Q354.871,7372.5,352.547,7372.717Zm4.16,7.754h1.211a14.4,14.4,0,0,1-.244,1.9,6.814,6.814,0,0,1-.508,1.514,3.783,3.783,0,0,1-.918,1.23,5.368,5.368,0,0,1-1.435.879,2.455,2.455,0,0,0-.7-.859,3.729,3.729,0,0,0,1.954-1.68A7.561,7.561,0,0,0,356.707,7380.471Zm3.809,3.418a.935.935,0,0,0,.078.478c.051.072.182.108.39.108h.684a1.465,1.465,0,0,0,.459-.049.419.419,0,0,0,.2-.283,9.747,9.747,0,0,0,.1-1.172,2.447,2.447,0,0,0,.976.508,5.71,5.71,0,0,1-.166,1.3.854.854,0,0,1-.576.577,2.6,2.6,0,0,1-.879.117H360.77a1.684,1.684,0,0,1-1.075-.274q-.351-.292-.351-1.465v-3.261h1.172Z"/>
    <path id="Path_1706" data-name="Path 1706" d="M374.453,7376.389v1.132h-8.594v-1.132h3.653v-1.27H366.66v-1.074h2.852v-1.211h-3.223v-1.113h3.223V7370.1h1.367v1.621h3.281v1.113h-3.281v1.211h2.988v1.074h-2.988v1.27Zm-.644,2.226v8.3q0,.938-.547,1.211a7.2,7.2,0,0,1-2.09.195,3.98,3.98,0,0,0-.43-1.172,13.784,13.784,0,0,0,1.524,0,.225.225,0,0,0,.254-.254v-3.125h-4.512v4.571h-1.289v-9.727Zm-5.8,1.153v2.871h1.68v-2.871Zm2.715,2.871h1.8v-2.871h-1.8Zm11.152-12.324,1.016,1.093a28.748,28.748,0,0,1-6.172,1.211,15.321,15.321,0,0,1-1.8,3.75,6.555,6.555,0,0,0-1.094-.7,10,10,0,0,0,1.1-2.06,13.472,13.472,0,0,0,.732-2.354l.879.215A27.911,27.911,0,0,0,381.875,7370.315Zm1.152,6.074v3.1h1.211v1.289h-1.211v3.985H381.66v-.821h-2.344v2.774a2.184,2.184,0,0,1-.156.927.983.983,0,0,1-.547.479,8.568,8.568,0,0,1-2.636.254,5.1,5.1,0,0,0-.469-1.348q1.641.039,2.09,0,.351,0,.351-.312v-2.774h-2.734v-1.25h2.734v-1.914h-3.711v-1.289h3.711v-1.875h-2.636v-1.23Zm-3.027-.743-1.309.313a10.794,10.794,0,0,0-.82-2.891l1.231-.253A11.842,11.842,0,0,1,380,7375.646Zm-.684,1.973v1.875h2.344v-1.875Zm2.344,5.078v-1.914h-2.344v1.914Zm-.683-10.156,1.132-.449a15.052,15.052,0,0,1,2.129,3.594l-1.191.507A15.276,15.276,0,0,0,380.977,7372.541Z"/>
    <path id="Path_1707" data-name="Path 1707" d="M404.484,7383.3h-7.421a6.507,6.507,0,0,0,2.871,2.549,14.34,14.34,0,0,0,4.843,1.181,3.987,3.987,0,0,0-.918,1.348,13.555,13.555,0,0,1-5.263-1.621,7.768,7.768,0,0,1-3.076-3.457h-.1a6.559,6.559,0,0,1-2.686,3.242,15.335,15.335,0,0,1-5.654,1.816,3.383,3.383,0,0,0-.762-1.308,16.317,16.317,0,0,0,4.981-1.387,5.5,5.5,0,0,0,2.461-2.363h-7.188v-1.309h7.7a14.242,14.242,0,0,0,.312-1.836h-7.871v-1.367h8.008v-1.66h-6.211v-1.289h6.211v-1.621h-7.207v-1.348h4.043a8.287,8.287,0,0,0-1.5-2.266l1.289-.527a7.464,7.464,0,0,1,1.738,2.5l-.644.293h5.957l-.723-.254a19.384,19.384,0,0,0,1.719-2.539l1.5.449a17.587,17.587,0,0,1-1.8,2.344h4.414v1.348h-7.3v1.621h6.426v1.289H396.2v1.66h8.086v1.367h-8.164a15.082,15.082,0,0,1-.312,1.836h8.671Z"/>
    <path id="Path_1708" data-name="Path 1708" d="M410.844,7370.061l1.6.293q-.625,1.835-1.054,2.949h3.32v12.968h-5.547v1.583H407.8V7373.3h2.246A23.912,23.912,0,0,0,410.844,7370.061Zm2.519,8.75v-4.18h-4.2v4.18Zm-4.2,6.132h4.2v-4.8h-4.2Zm15.332-11.7v.762q-.234,7.031-.508,9.736a7.509,7.509,0,0,1-.859,3.428,2.124,2.124,0,0,1-1.582.8,20.644,20.644,0,0,1-2.969-.02,3.115,3.115,0,0,0-.508-1.445q1.308.117,2.969.117a.962.962,0,0,0,.82-.312,6.691,6.691,0,0,0,.752-3.1q.264-2.568.459-8.6h-5.078a17.617,17.617,0,0,1-1.875,3.516,9.727,9.727,0,0,0-1.211-.84,19.159,19.159,0,0,0,3.047-7.266l1.426.333q-.351,1.444-.859,2.89Zm-3.164,8.985-1.25.781a32.551,32.551,0,0,0-3.047-4.61l1.172-.683A38.531,38.531,0,0,1,421.332,7382.229Z"/>
    <path id="Path_1709" data-name="Path 1709" d="M437.3,7386.291h8.105v1.445H427.672v-1.445h8.105v-5.078H429.84v-1.426h5.937v-4.375H431.07a17.058,17.058,0,0,1-2.09,3.262,6.609,6.609,0,0,0-1.347-.879,17.523,17.523,0,0,0,3.711-7.363l1.5.332a26.745,26.745,0,0,1-1.133,3.2h4.062v-3.848H437.3v3.848h7.168v1.445H437.3v4.375h6.426v1.426H437.3Z"/>
    <path id="Path_1710" data-name="Path 1710" d="M452.43,7377.815l-.86,1.23a36.557,36.557,0,0,0-3.672-2.168l.821-1.074Q451.512,7377.228,452.43,7377.815Zm-2.813,10.292-1.23-1.015a49.92,49.92,0,0,0,3.769-6.387l1.074.977A66.518,66.518,0,0,1,449.617,7388.107Zm3.828-15.683-.859,1.191a41.1,41.1,0,0,0-3.711-2.207l.82-1.054A33.358,33.358,0,0,1,453.445,7372.424Zm12.618,4.941h-5.489v3.281h4.18v7.618h-1.406v-.743h-7.129v.84h-1.367v-7.715h4.316v-3.281h-5.762v-1.445h5.762v-3.242q-2.442.351-4.414.547a6.45,6.45,0,0,0-.391-1.27,45.126,45.126,0,0,0,9.668-1.777l1.192,1.152a28.988,28.988,0,0,1-4.649,1.133v3.457h5.489Zm-2.715,8.77v-4.121h-7.129v4.121Z"/>
    <path id="Path_1711" data-name="Path 1711" d="M473.613,7376.7v2.637a2.039,2.039,0,0,1-.136.859.952.952,0,0,1-.528.43,9.4,9.4,0,0,1-2.578.215,4.7,4.7,0,0,0-.43-1.25q1.5.04,1.914,0,.333,0,.333-.293v-2.4q-.528.078-1.69.245t-1.689.244l-.2-1.289q1.211-.137,3.575-.45v-2.187h-3.262v-1.23h3.262V7370.1h1.425v2.129h2.871v1.23h-2.871v1.973l3.028-.411.039,1.211Zm-2.3,11.68v-7.07h12.6v7.011h-1.5v-.781h-9.648v.84Zm11.093-5.742h-9.648v3.574H482.4Zm-3.5-8.2h7.442v1.347H483.4v4.942h-1.464v-4.942h-3.125a7.122,7.122,0,0,1-2.793,4.942,2.462,2.462,0,0,0-.44-.567,3.668,3.668,0,0,0-.556-.488,6.358,6.358,0,0,0,2.46-5.41v-3.2l1.211.332a32.485,32.485,0,0,0,5.8-1.133l1.074,1.094a35.142,35.142,0,0,1-6.66,1.171Z"/>
    <path id="Path_1712" data-name="Path 1712" d="M506.691,7383.225v1.211h-7.968v2.382a1.8,1.8,0,0,1-.176.889,1.028,1.028,0,0,1-.625.439,13.777,13.777,0,0,1-3.223.215,3.822,3.822,0,0,0-.508-1.25q1.758.059,2.676,0a.748.748,0,0,0,.323-.078q.087-.059.087-.254v-2.343h-7.949v-1.211h7.949v-1.114h.86a16.693,16.693,0,0,0,2.4-1.269h-7.715v-1.133h9.219l.312-.078.879.742a20.069,20.069,0,0,1-4.511,2.6v.254Zm-15.7-4.864v2.481h-1.406v-3.633h1.582l-.41-6.23,1.055.253q1.25-.351,2.812-.957l.781.84a19.066,19.066,0,0,1-3.183.977l.058.879h2.969v1.035h-2.91l.078,1.074h2.91v1.016h-2.851l.058,1.113h11q.039-.333.118-1.113h-2.93v-1.016h3.008l.1-1.074h-3.007v-1.035h3.066l.059-1.094h-3.2v-1.016h4.649q-.117,2.99-.449,6.348H506.5v3.633h-1.465v-2.481Zm9-5.664-.781.743a8.462,8.462,0,0,0-1.133-.977,11.777,11.777,0,0,1-1.816,1.191,10.277,10.277,0,0,0-.84-.722,12.482,12.482,0,0,0,1.8-1.055c-.052-.026-.235-.137-.547-.332s-.547-.332-.7-.41l.722-.625q.333.156,1.348.742a5.333,5.333,0,0,0,.879-.937l1.035.312a7.786,7.786,0,0,1-1.094,1.172A7.458,7.458,0,0,1,499.992,7372.7Zm-.859.879,1.055.313A9.374,9.374,0,0,1,499,7375.2a8.332,8.332,0,0,1,1.211,1l-.781.723a7.322,7.322,0,0,0-1.231-1.035,14.121,14.121,0,0,1-1.875,1.23,4.389,4.389,0,0,0-.859-.742,9.211,9.211,0,0,0,1.875-1.113c-.117-.066-.316-.189-.6-.371s-.492-.313-.635-.391l.743-.625q.312.157,1.308.762A7.053,7.053,0,0,0,499.133,7373.576Z"/>
    <path id="Path_1713" data-name="Path 1713" d="M516.41,7381.408a3.029,3.029,0,1,1,2.149.9A2.93,2.93,0,0,1,516.41,7381.408Zm.733-3.584a1.955,1.955,0,0,0-.6,1.436,1.925,1.925,0,0,0,.6,1.426,2.007,2.007,0,0,0,3.427-1.426,1.974,1.974,0,0,0-.586-1.436,1.993,1.993,0,0,0-2.841,0Z"/>
  </g>
</svg>
