<svg xmlns="http://www.w3.org/2000/svg" width="818.568" height="27.717" viewBox="0 0 818.568 27.717">
  <g id="txt7_pc" transform="translate(-5652.952 -8452.303)">
    <g id="Group_692" data-name="Group 692" transform="translate(5504.023 1234.26)">
      <path id="Path_9611" data-name="Path 9611" d="M158.564,7238.365l.15,1.606q-2.885.627-8.781,1.856l-.427-1.757q1.556-.249,3.965-.7v-7.929h-3.689v-1.655h3.689v-2.66h-2.51v-1c-.083.084-.217.227-.4.427a5.214,5.214,0,0,1-.426.427,4.222,4.222,0,0,0-1.205-1.18,17.453,17.453,0,0,0,4.567-6.623H155.2a28.575,28.575,0,0,1,3.939,4.616v-3.864h7v1.48h-2.284v2.008h2.058v4.742h-2.058v1.982h2.534v1.5h-7.25v-7.727l-1.305,1.355a25.013,25.013,0,0,0-3.236-4.29,23.512,23.512,0,0,1-3.061,4.541h6.222v1.6h-2.685v2.66h3.111v1.655h-3.111v7.627Zm-8.28-5.219,1.28-.275a22.152,22.152,0,0,1,.928,4.817l-1.38.351A21.437,21.437,0,0,0,150.284,7233.146Zm6.8,4.417-1.254-.352a26.794,26.794,0,0,0,1-4.642l1.43.4Q157.634,7235.781,157.083,7237.563Zm14.8,2.759h1.229v1.631H157.736v-1.631h1.956v-7.076h12.194Zm-9.408-18.918h-1.907v2.008h1.907Zm2.107,5.446v-2.159h-4.014v2.159Zm-2.107,3.286v-1.982h-1.907v1.982Zm-1.205,4.667v5.519h2.082V7234.8Zm5.519,0H164.66v5.519h2.132Zm6.2-10.137h-4.316a17.416,17.416,0,0,1-1.229,3.061,16.2,16.2,0,0,0-1.505-.853,21.487,21.487,0,0,0,2.183-7.577l1.68.3a32.186,32.186,0,0,1-.677,3.363h3.864Zm-5.821,6.473v-1.606h5.57v1.606Zm3.061,3.664h-2.158v5.519h2.158Z"/>
      <path id="Path_9612" data-name="Path 9612" d="M183.717,7239.344l1.832.677a27.72,27.72,0,0,1-7.753,2.71,8.251,8.251,0,0,0-1.4-1.456A22.974,22.974,0,0,0,183.717,7239.344Zm-4.867-15.882v3.061h-1.781v-4.441h4.215a13.3,13.3,0,0,0-1.731-2.207l1.655-.553a10.39,10.39,0,0,1,2.058,2.459l-.7.3h3.988v-2.936h1.907v2.936H192.4l-.4-.125a17.191,17.191,0,0,0,2.082-2.734l1.907.576a19.776,19.776,0,0,1-2.057,2.283h4.365v4.441h-1.832v-3.061Zm.728,15.681v-8.907h16.433v8.907Zm1.4-14.327h13.5v4.191h-13.5Zm.376,6.6v1.4h12.8v-1.4Zm0,2.534v1.4h12.8v-1.4Zm0,2.559v1.431h12.8v-1.431Zm11.29-8.7v-1.782h-9.885v1.782Zm-3.061,12.569,1.43-1.079a63.744,63.744,0,0,1,7.753,2.258l-1.882,1.1A53.129,53.129,0,0,0,189.588,7240.372Z"/>
      <path id="Path_9613" data-name="Path 9613" d="M225.48,7235.329v1.556h-6.121v3.687a2.587,2.587,0,0,1-.213,1.18,1.265,1.265,0,0,1-.816.577,17.654,17.654,0,0,1-4.14.277,4.982,4.982,0,0,0-.6-1.657q2.51.075,3.413.026c.334-.018.5-.168.5-.453v-3.637h-9.735a26.654,26.654,0,0,1,2.358,1.568,13.78,13.78,0,0,1,1.857,1.593l-1.355,1.279a20.251,20.251,0,0,0-4.24-3.337l1.254-1.1h-5.319v-1.556H217.5v-1.581q-7.3.2-14.1.3l-.075-1.5q4.089,0,9.584-.076v-1.4h-7.853v-6.951h7.853v-1.455h-9.835v-1.53h9.835V7219.2h1.857v1.932h9.684v1.53h-9.684v1.455h8.1v6.951h-2.96a19.006,19.006,0,0,1,4.591,2.483l-1.129,1.079a17.638,17.638,0,0,0-1.48-1.029l-2.534.076v1.655Zm-18.641-9.91v1.53h6.072v-1.53Zm0,4.366h6.072v-1.606h-6.072Zm14.176-4.366h-6.247v1.53h6.247Zm0,4.366v-1.606h-6.247v1.606Zm-6.247,1.28v1.4l4.842-.075a18.686,18.686,0,0,0-1.932-.779l.6-.55Z"/>
      <path id="Path_9614" data-name="Path 9614" d="M229.735,7233.724l1.631.276a21.658,21.658,0,0,1-1.781,6.522,4.986,4.986,0,0,0-1.405-.7A18.833,18.833,0,0,0,229.735,7233.724Zm6.423-2.058-2.032.125v10.815h-1.681v-10.713l-4.039.25-.176-1.731,1.756-.076q1.2-1.556,1.606-2.133a21.163,21.163,0,0,0-3.186-3.713l1.028-1.2c.5.451.761.686.778.7a36.245,36.245,0,0,0,2.283-4.816l1.656.627a44.987,44.987,0,0,1-2.936,5.269q.627.678,1.38,1.656a50,50,0,0,0,2.735-4.642l1.606.728a76.736,76.736,0,0,1-5.144,7.426l3.714-.175a23.844,23.844,0,0,0-1.154-2.159l1.379-.551a18.652,18.652,0,0,1,2.484,5.243l-1.5.7A8.957,8.957,0,0,0,236.158,7231.666ZM235,7234.074l1.4-.426a17.161,17.161,0,0,1,1.38,4.567l-1.505.451A14.7,14.7,0,0,0,235,7234.074Zm7.2-1.1,1.053.4q-1.279,5.8-5.444,8.2a4.542,4.542,0,0,0-1.2-1.305,9.452,9.452,0,0,0,4.591-5.644h-3.462V7233h4.19Zm8.028-1.054,1.556,1.129a36.393,36.393,0,0,1-3.965,3.212A10.452,10.452,0,0,0,252.34,7240a7.121,7.121,0,0,0-1.154,1.555,12.3,12.3,0,0,1-5.6-6.222v5.243a2.894,2.894,0,0,1-.175,1.143,1.176,1.176,0,0,1-.678.589,11.689,11.689,0,0,1-3.261.276,5.223,5.223,0,0,0-.5-1.656q1.981.05,2.459,0a.494.494,0,0,0,.326-.075.392.392,0,0,0,.076-.277v-9.759h-5.144v-9.032h4.19a19.563,19.563,0,0,0,1.029-2.66l2.107.4q-.176.352-1.179,2.258h6.046v9.032h-5.294v.326a14.774,14.774,0,0,0,1.456,3.84A29.286,29.286,0,0,0,250.233,7231.917Zm-9.81-8.581v2.209h8.631v-2.209Zm0,3.664v2.232h8.631V7227Z"/>
      <path id="Path_9615" data-name="Path 9615" d="M266,7218.043h1.1v25.691H266Z"/>
      <path id="Path_9616" data-name="Path 9616" d="M287.194,7240.975a4.867,4.867,0,0,1-4.328-2.5q-1.569-2.5-1.568-7.314,0-4.791,1.568-7.25a4.881,4.881,0,0,1,4.328-2.459,4.832,4.832,0,0,1,4.29,2.459q1.555,2.459,1.556,7.25,0,4.816-1.556,7.314A4.819,4.819,0,0,1,287.194,7240.975Zm0-1.858a2.907,2.907,0,0,0,2.609-1.969,14.345,14.345,0,0,0,.953-5.984,13.981,13.981,0,0,0-.941-5.883,2.892,2.892,0,0,0-2.621-1.92,2.94,2.94,0,0,0-2.647,1.92,13.669,13.669,0,0,0-.966,5.883,14.183,14.183,0,0,0,.966,5.984A2.943,2.943,0,0,0,287.194,7239.117Z"/>
      <path id="Path_9617" data-name="Path 9617" d="M301.71,7240.975a7.825,7.825,0,0,1-6.021-2.56l1.179-1.556a6.3,6.3,0,0,0,4.666,2.159,4.038,4.038,0,0,0,2.773-.942,3.222,3.222,0,0,0,1.066-2.547q0-3.762-5.87-3.762v-1.807q5.217,0,5.218-3.587a2.856,2.856,0,0,0-.853-2.183,3.449,3.449,0,0,0-2.334-.854,5.754,5.754,0,0,0-3.888,1.883l-1.28-1.506a7.618,7.618,0,0,1,5.269-2.258,6.042,6.042,0,0,1,3.951,1.242,4.241,4.241,0,0,1,1.518,3.475,4.473,4.473,0,0,1-.9,2.822,5.4,5.4,0,0,1-2.459,1.744v.1a5.4,5.4,0,0,1,2.886,1.656,4.481,4.481,0,0,1,1.128,3.112,4.853,4.853,0,0,1-1.731,3.914A6.483,6.483,0,0,1,301.71,7240.975Z"/>
      <path id="Path_9618" data-name="Path 9618" d="M311.008,7234.351v-1.806h6.574v1.806Z"/>
      <path id="Path_9619" data-name="Path 9619" d="M326.152,7240.975a7.828,7.828,0,0,1-6.022-2.56l1.18-1.556a6.293,6.293,0,0,0,4.666,2.159,4.038,4.038,0,0,0,2.773-.942,3.225,3.225,0,0,0,1.066-2.547q0-3.762-5.871-3.762v-1.807q5.219,0,5.219-3.587a2.856,2.856,0,0,0-.853-2.183,3.449,3.449,0,0,0-2.334-.854,5.758,5.758,0,0,0-3.889,1.883l-1.279-1.506a7.616,7.616,0,0,1,5.269-2.258,6.042,6.042,0,0,1,3.951,1.242,4.241,4.241,0,0,1,1.518,3.475,4.473,4.473,0,0,1-.9,2.822,5.4,5.4,0,0,1-2.459,1.744v.1a5.4,5.4,0,0,1,2.885,1.656,4.477,4.477,0,0,1,1.129,3.112,4.853,4.853,0,0,1-1.731,3.914A6.485,6.485,0,0,1,326.152,7240.975Z"/>
      <path id="Path_9620" data-name="Path 9620" d="M339.364,7240.648a36.5,36.5,0,0,1,1.4-9.233,27.113,27.113,0,0,1,3.889-7.6h-9.133v-2.007h11.792v1.429a23.369,23.369,0,0,0-4.214,7.728,41.222,41.222,0,0,0-1.3,9.684Z"/>
      <path id="Path_9621" data-name="Path 9621" d="M361.959,7223.387l-1.28,1.455a3.757,3.757,0,0,0-3.035-1.43,4.087,4.087,0,0,0-3.45,1.857q-1.342,1.855-1.418,5.971a6.444,6.444,0,0,1,2.02-1.669,4.87,4.87,0,0,1,2.27-.614,4.935,4.935,0,0,1,3.827,1.518,7.273,7.273,0,0,1-.176,8.793,5,5,0,0,1-3.826,1.707,5.385,5.385,0,0,1-4.554-2.4q-1.743-2.4-1.743-6.912a17.6,17.6,0,0,1,.564-4.691,8.241,8.241,0,0,1,1.568-3.2,6.787,6.787,0,0,1,2.221-1.744,6.047,6.047,0,0,1,2.621-.576A5.79,5.79,0,0,1,361.959,7223.387Zm-5.068,15.781a2.755,2.755,0,0,0,2.283-1.191,5,5,0,0,0,.9-3.1,4.9,4.9,0,0,0-.853-3.061,3.007,3.007,0,0,0-2.534-1.1,4.742,4.742,0,0,0-3.863,2.408,9.135,9.135,0,0,0,1.254,4.491A3.244,3.244,0,0,0,356.891,7239.168Z"/>
      <path id="Path_9622" data-name="Path 9622" d="M365.235,7234.351v-1.806h6.574v1.806Z"/>
      <path id="Path_9623" data-name="Path 9623" d="M380.756,7240.975a4.867,4.867,0,0,1-4.328-2.5q-1.569-2.5-1.568-7.314,0-4.791,1.568-7.25a4.881,4.881,0,0,1,4.328-2.459,4.832,4.832,0,0,1,4.29,2.459q1.556,2.459,1.556,7.25,0,4.816-1.556,7.314A4.819,4.819,0,0,1,380.756,7240.975Zm0-1.858a2.907,2.907,0,0,0,2.609-1.969,14.344,14.344,0,0,0,.953-5.984,14,14,0,0,0-.94-5.883,2.894,2.894,0,0,0-2.622-1.92,2.941,2.941,0,0,0-2.647,1.92,13.669,13.669,0,0,0-.966,5.883,14.183,14.183,0,0,0,.966,5.984A2.944,2.944,0,0,0,380.756,7239.117Z"/>
      <path id="Path_9624" data-name="Path 9624" d="M389.979,7239.067l1.3-1.48a4.073,4.073,0,0,0,3.161,1.431,3.874,3.874,0,0,0,3.3-1.87q1.291-1.869,1.418-5.984a6.5,6.5,0,0,1-2.007,1.707,4.847,4.847,0,0,1-2.334.627,4.9,4.9,0,0,1-3.8-1.519,7.29,7.29,0,0,1,.175-8.805,4.98,4.98,0,0,1,3.826-1.719,5.471,5.471,0,0,1,4.579,2.309q1.743,2.309,1.744,6.648a18.762,18.762,0,0,1-.565,4.855,9.093,9.093,0,0,1-1.53,3.311,6.4,6.4,0,0,1-2.158,1.807,5.735,5.735,0,0,1-2.571.59A6.039,6.039,0,0,1,389.979,7239.067Zm5.218-7.3q2.183,0,3.939-2.535a8.547,8.547,0,0,0-1.242-4.416,3.348,3.348,0,0,0-2.873-1.5,2.765,2.765,0,0,0-2.283,1.178,5.8,5.8,0,0,0-.037,6.16A2.965,2.965,0,0,0,395.2,7231.767Z"/>
      <path id="Path_9625" data-name="Path 9625" d="M414.819,7239.594a6.39,6.39,0,0,1-4.253,1.381,6.559,6.559,0,0,1-4.315-1.406,4.44,4.44,0,0,1-1.706-3.588,5.036,5.036,0,0,1,.991-3.073,7.2,7.2,0,0,1,2.471-2.12v-.126a5.156,5.156,0,0,1-2.534-4.34,4.474,4.474,0,0,1,1.455-3.463,5.3,5.3,0,0,1,3.713-1.329,5.128,5.128,0,0,1,3.776,1.38,4.827,4.827,0,0,1,1.393,3.588,4.705,4.705,0,0,1-.765,2.559,7.738,7.738,0,0,1-1.769,1.982v.125a5.539,5.539,0,0,1,3.186,4.943A4.362,4.362,0,0,1,414.819,7239.594Zm-4.2-.351a3.793,3.793,0,0,0,2.61-.89,2.932,2.932,0,0,0,1-2.3,3.38,3.38,0,0,0-.364-1.594,3.576,3.576,0,0,0-1.192-1.254,11.155,11.155,0,0,0-1.492-.878q-.666-.313-1.945-.841a4.933,4.933,0,0,0-2.559,4.266,3.192,3.192,0,0,0,1.117,2.5A4.091,4.091,0,0,0,410.616,7239.243Zm1.23-8.831a5.031,5.031,0,0,0,1.957-3.789,3.459,3.459,0,0,0-.866-2.4,2.994,2.994,0,0,0-2.346-.965,2.883,2.883,0,0,0-2.145.852,3.013,3.013,0,0,0-.841,2.208,3.129,3.129,0,0,0,.327,1.443,3.193,3.193,0,0,0,1,1.129,9.9,9.9,0,0,0,1.293.8Q410.841,7230.01,411.846,7230.412Z"/>
      <path id="Path_9626" data-name="Path 9626" d="M429.712,7239.594a6.39,6.39,0,0,1-4.253,1.381,6.559,6.559,0,0,1-4.315-1.406,4.44,4.44,0,0,1-1.706-3.588,5.037,5.037,0,0,1,.991-3.073,7.2,7.2,0,0,1,2.471-2.12v-.126a5.158,5.158,0,0,1-2.534-4.34,4.474,4.474,0,0,1,1.455-3.463,5.3,5.3,0,0,1,3.713-1.329,5.129,5.129,0,0,1,3.776,1.38,4.827,4.827,0,0,1,1.393,3.588,4.705,4.705,0,0,1-.765,2.559,7.737,7.737,0,0,1-1.769,1.982v.125a5.539,5.539,0,0,1,3.186,4.943A4.362,4.362,0,0,1,429.712,7239.594Zm-4.2-.351a3.792,3.792,0,0,0,2.61-.89,2.932,2.932,0,0,0,1-2.3,3.368,3.368,0,0,0-.364-1.594,3.577,3.577,0,0,0-1.192-1.254,11.155,11.155,0,0,0-1.492-.878q-.666-.313-1.945-.841a4.933,4.933,0,0,0-2.559,4.266,3.192,3.192,0,0,0,1.117,2.5A4.091,4.091,0,0,0,425.509,7239.243Zm1.23-8.831a5.031,5.031,0,0,0,1.957-3.789,3.459,3.459,0,0,0-.866-2.4,2.994,2.994,0,0,0-2.346-.965,2.883,2.883,0,0,0-2.145.852,3.012,3.012,0,0,0-.84,2.208,3.129,3.129,0,0,0,.326,1.443,3.193,3.193,0,0,0,1,1.129,9.965,9.965,0,0,0,1.293.8Q425.734,7230.01,426.739,7230.412Z"/>
    </g>
    <g id="Group_709" data-name="Group 709" transform="translate(5504.023 1234.26)">
      <path id="Path_9812" data-name="Path 9812" d="M503.6,7231.559h-8.079q-.2.451-.615,1.33t-.564,1.2h9.157v1.607h-3.06a10.512,10.512,0,0,1-2.334,4.841,29.407,29.407,0,0,1,4.918,2.635l-1.205,1.48a28.581,28.581,0,0,0-5.143-2.861q-2.936,2.084-8.731,2.836a4.485,4.485,0,0,0-.752-1.606,18.468,18.468,0,0,0,7.626-2.058q-2.208-.852-3.261-1.2l-.4.727-1.655-.6q.8-1.479,2.132-4.189h-3.814v-1.407l-2.232.7v7.327q0,1.5-.878,1.931a9.784,9.784,0,0,1-3.388.352,6.4,6.4,0,0,0-.551-1.832q1.83.077,2.534.025a.44.44,0,0,0,.338-.1.589.589,0,0,0,.088-.376v-6.775l-3.437,1.054-.427-1.831q.98-.228,3.864-1.079v-5.619h-3.437v-1.733h3.437V7221.2h1.857v5.142h2.483v1.733h-2.483v5.067l2.459-.728.251,1.681h4.064q.677-1.455,1.1-2.534h-5.77v-1.681h4.466a19.016,19.016,0,0,0-1.029-4.089l1.23-.252h-3.638v-1.63h6.071v-2.735h1.857v2.735h6.222v1.63h-3.237l.929.126q-1,2.862-1.606,4.215H503.6Zm-5.068,4.141h-4.943q-.325.726-1.33,2.658a39.241,39.241,0,0,1,4.09,1.43A8.539,8.539,0,0,0,498.528,7235.7Zm.125-10.163h-5.871a14.294,14.294,0,0,1,1.1,4.165l-.7.176h4.641l-.6-.1A33.189,33.189,0,0,0,498.653,7225.537Z"/>
      <path id="Path_9813" data-name="Path 9813" d="M512.441,7226.867l1.657.678a22.038,22.038,0,0,1-2.058,3.136v13.95h-1.856v-11.768a23.707,23.707,0,0,1-2.936,2.811,10.054,10.054,0,0,0-1.028-1.857,23.206,23.206,0,0,0,3.474-3.174A20.166,20.166,0,0,0,512.441,7226.867Zm-.451-5.619,1.806.7a21.656,21.656,0,0,1-2.81,3.3,23.339,23.339,0,0,1-3.412,2.8,7.552,7.552,0,0,0-.978-1.531,20.113,20.113,0,0,0,3.073-2.471A14.234,14.234,0,0,0,511.99,7221.248Zm18.039,10.01h-3.613v2.835h3.438v1.757h-3.438v6.473a3.14,3.14,0,0,1-.213,1.316,1.393,1.393,0,0,1-.815.666,16.151,16.151,0,0,1-4.115.3,7.861,7.861,0,0,0-.627-1.832q2.484.077,3.336.025a.775.775,0,0,0,.439-.125.448.448,0,0,0,.114-.351v-6.473H514.122v-1.757h10.413v-2.835H513.847V7229.5h7.125v-3.261h-5.645v-1.756h5.645V7221.3h1.857v3.188h5.87v1.756h-5.87v3.261h7.2ZM516.1,7237.43l1.531-.878a19.32,19.32,0,0,1,3.086,4.415l-1.606.954A18.524,18.524,0,0,0,516.1,7237.43Z"/>
      <path id="Path_9814" data-name="Path 9814" d="M543.467,7221.172h1.781a23.465,23.465,0,0,0,5.156,3.727,31.065,31.065,0,0,0,6.109,2.57,9.539,9.539,0,0,0-1.129,1.582,35.036,35.036,0,0,1-6.323-2.935v1.1h-8.906v-1.18a39.055,39.055,0,0,1-6.448,3.187,6.134,6.134,0,0,0-1.028-1.48,31,31,0,0,0,6.221-2.911A19.275,19.275,0,0,0,543.467,7221.172Zm-7.477,13.875v-6.473h17.361v6.473Zm1.506,9.584v-8.381h14.426v8.33H549.99v-.752H539.352v.8Zm.15-14.727v3.838h6.046V7229.9Zm1.53.727,1.355-.451a8.9,8.9,0,0,1,1.556,2.91l-1.481.551A9.391,9.391,0,0,0,539.176,7230.631Zm10.814,6.975H539.352v1.73H549.99Zm-10.638,4.867H549.99v-1.781H539.352Zm1.154-16.659h8.1a24.013,24.013,0,0,1-4.165-3.111A24.443,24.443,0,0,1,540.506,7225.814Zm11.115,7.928V7229.9h-6.348v3.838Zm-3.388-.1-1.329-.477a21.491,21.491,0,0,0,1.48-3.086l1.606.528Q548.884,7232.638,548.233,7233.641Z"/>
      <path id="Path_9815" data-name="Path 9815" d="M563.527,7221.2h1.882a25.408,25.408,0,0,1,4.215,4.54l-1.2,1.28a25.2,25.2,0,0,0-3.688-4.34,27.984,27.984,0,0,1-2.133,3.111h4.767v1.4h-4.993v-1.155a18.874,18.874,0,0,1-2.508,2.535,5.562,5.562,0,0,0-1.23-1.154A16.25,16.25,0,0,0,563.527,7221.2Zm-1.154,18.138v1.707h6.674v1.555h-6.674v2.008h-1.681v-15.957h7.9v7.451h-6.222v1.731H568.7v1.5Zm4.592-9.332h-4.592v1.705h4.592Zm-4.592,4.741h4.592v-1.731h-4.592Zm20.046-6.5h-1.856v-2.659H571.38v2.383h9.058v6.248h-7.527v2.133h8.68v8.153h-1.806v-1.2h-6.874v1.33h-1.757v-16.384h-1.53v-4.19h5.219V7221.2H576.7v2.859h5.72Zm-3.738,1.281h-5.77v3.11h5.77Zm1.1,8.455h-6.874v3.662h6.874Z"/>
      <path id="Path_9816" data-name="Path 9816" d="M596.685,7220.069h1.1v25.691h-1.1Z"/>
      <path id="Path_9817" data-name="Path 9817" d="M618.126,7228l2.183.327q-1.932,11.716-6.925,16.382a8.7,8.7,0,0,0-1.555-1.379Q616.7,7238.935,618.126,7228Zm-.678-4.816h10.638q.3,3.486.8,6.322a45.035,45.035,0,0,0,1.33,5.507,20.268,20.268,0,0,0,2.107,4.729,12.427,12.427,0,0,0,2.985,3.362,10.317,10.317,0,0,0-1.856,1.531,16.757,16.757,0,0,1-4.8-7.615,54.22,54.22,0,0,1-2.321-11.829h-8.882Z"/>
      <path id="Path_9818" data-name="Path 9818" d="M643.832,7226.742l1.681.577a38.212,38.212,0,0,1-2.083,3.613v13.7h-1.781v-11.165q-1.431,1.833-2.534,2.985a10.246,10.246,0,0,0-1.18-1.68,25.378,25.378,0,0,0,3.212-3.663A30.533,30.533,0,0,0,643.832,7226.742Zm-.477-5.544,1.706.677a36.214,36.214,0,0,1-5.921,6.072,7.134,7.134,0,0,0-1.079-1.38,29.066,29.066,0,0,0,2.948-2.6A18.781,18.781,0,0,0,643.355,7221.2Zm2.534,23.031-1.4-1a7.435,7.435,0,0,0,2.333-4.465l1.581.477A8.977,8.977,0,0,1,645.889,7244.229Zm15.756-9.484v1.556h-9.986a17.119,17.119,0,0,1,4.19,2.283l-1.028,1.279a17.617,17.617,0,0,0-4.316-2.484l.878-1.078h-5.971v-1.556Zm-15.028-8.028h5.469q.125-.852.225-1.882h-6.824v-1.555h6.975c.017-.151.042-.489.076-1.016s.058-.916.075-1.167l1.957.1-.251,2.082h7.2v1.555h-7.377l-.138,1.091c-.059.461-.1.725-.113.791h6.7v6.322H646.617Zm4.114,4.918v-3.514h-2.609v3.514Zm1.606,11.113h2.785a.674.674,0,0,0,.689-.363,6.176,6.176,0,0,0,.214-1.768,3.7,3.7,0,0,0,1.53.652,5.023,5.023,0,0,1-.589,2.433,1.888,1.888,0,0,1-1.618.627h-3.237a3.079,3.079,0,0,1-1.995-.452,2.381,2.381,0,0,1-.489-1.756v-3.487h1.756v3.462c0,.285.055.465.163.54A1.7,1.7,0,0,0,652.337,7242.748Zm2.484-11.113v-3.514h-2.685v3.514Zm1.405-3.514v3.514h2.734v-3.514Zm.7,11.015,1.405-.727a17.269,17.269,0,0,1,3.437,4.841l-1.505.8a14.242,14.242,0,0,0-1.368-2.42A20.245,20.245,0,0,0,656.928,7239.136Z"/>
      <path id="Path_9819" data-name="Path 9819" d="M687.853,7241.645v1.756H667.731v1.23H665.85v-22.355h21.325v1.732H667.731v17.637Zm-17.914-1.932v-6.573h6.674v6.573Zm1.606-5.193v3.813h3.412v-3.813Zm10.713-8.807v5.7h-9.534v-5.7Zm-1.882,4.316v-2.96h-5.9v2.96Zm4.868,3.111v6.573h-6.9v-6.573Zm-1.681,5.193v-3.813H680v3.813Z"/>
      <path id="Path_9820" data-name="Path 9820" d="M698,7224.108v4.617h4.466v1.781H698v.653q1.733,1.83,4.29,4.966l-1.153,1.556q-.854-1.38-3.137-4.341v11.24h-1.881v-11.314a26.252,26.252,0,0,1-4.591,7.651,6.966,6.966,0,0,0-1.055-1.731,19.417,19.417,0,0,0,2.874-3.851,28.5,28.5,0,0,0,2.3-4.829H691.1v-1.781h5.018v-4.266q-2.736.426-4.24.627a5.858,5.858,0,0,0-.527-1.53,42.1,42.1,0,0,0,9.659-2.133l1.279,1.505A31.863,31.863,0,0,1,698,7224.108Zm5.344-.552h9.509v19.77h-1.907V7241.4H705.2v2.107h-1.857Zm1.857,15.981h5.745v-14.15H705.2Z"/>
      <path id="Path_9821" data-name="Path 9821" d="M719.344,7233.241h5.495q0,.576-.026.852-.25,5.043-.514,7.063a5.426,5.426,0,0,1-.815,2.647,2.164,2.164,0,0,1-1.656.752,19.459,19.459,0,0,1-3.161,0,4.328,4.328,0,0,0-.552-1.856q1.28.125,2.96.126a1.188,1.188,0,0,0,.9-.277q.726-.8,1.053-7.627h-3.888c-.067.536-.118.92-.151,1.154l-1.706-.276q.6-3.888.828-7.678h4.867v-3.888h-5.344V7222.5h7.175v7.352h-5.167Q719.619,7230.129,719.344,7233.241Zm21.727,10.812-1.6.8a18.1,18.1,0,0,0-.879-1.781q-3.462.3-13,1.08l-.251-1.858q.627-.022,6.7-.451v-4.215H726.47v-6.875h5.569v-2.683q-5.52.375-6.1.4l-.251-1.831,2.182-.1a35.1,35.1,0,0,0,2.785-5.444l2.008.526q-1.531,2.886-2.785,4.843,2.281-.1,7.125-.4-1-1.2-1.907-2.108l1.556-.777a23.251,23.251,0,0,1,4.164,5.168l-1.656.878a17.544,17.544,0,0,0-.978-1.556q-2.709.2-4.315.277v2.809h5.67v6.875h-5.67v4.089l3.663-.276a25.84,25.84,0,0,0-1.857-2.434l1.556-.752a31.541,31.541,0,0,1,2.3,3.024A15.94,15.94,0,0,1,741.071,7244.053Zm-12.87-8.027h3.838v-3.664H728.2Zm9.508-3.664h-3.838v3.664h3.838Z"/>
      <path id="Path_9822" data-name="Path 9822" d="M763.992,7223.706l1.179.552a19.789,19.789,0,0,1-3.738,6.824,16.951,16.951,0,0,0,5.846,3.789,6.117,6.117,0,0,0-1.179,1.555,3.2,3.2,0,0,0-.415-.188c-.192-.076-.33-.128-.414-.163v8.455h-1.806v-.853h-6.423v.929h-1.781v-8.556q-.276.152-1.53.7a5.44,5.44,0,0,0-.928-1.279h-2.71v4.617q1.1-.252,3.362-.8l.2,1.706q-.678.177-4.466,1.092t-5.4,1.317l-.351-1.856,1.305-.276v-8.781h1.631v8.429l1.982-.452v-10.387h-3.613v-7.827h8.3v6.8a17.7,17.7,0,0,0,4.642-7.879l1.831.427q-.176.5-.828,2.183h4.968Zm-17.537.2v4.516h4.817v-4.516Zm6.824,9.885v1.23a17.833,17.833,0,0,0,5.821-4.015,25.1,25.1,0,0,1-2.384-3.513,19.948,19.948,0,0,1-2.333,2.961,9.1,9.1,0,0,0-1.33-1.129v.752h-2.96v3.714Zm3.137,1.581h7.651a19.694,19.694,0,0,1-3.788-3.036A20.79,20.79,0,0,1,756.416,7235.373Zm.626,6.6h6.423v-4.918h-6.423Zm5.771-16.508H757.9l-.251.477a20.835,20.835,0,0,0,2.559,3.863A17.117,17.117,0,0,0,762.813,7225.463Z"/>
      <path id="Path_9823" data-name="Path 9823" d="M779.863,7232.914a1.627,1.627,0,0,1,.5-1.216,1.721,1.721,0,0,1,2.408,0,1.71,1.71,0,0,1,.013,2.408,1.757,1.757,0,0,1-2.433,0A1.619,1.619,0,0,1,779.863,7232.914Z"/>
      <path id="Path_9824" data-name="Path 9824" d="M803.336,7224.108v4.617H807.8v1.781h-4.466v.653q1.733,1.83,4.29,4.966l-1.153,1.556q-.854-1.38-3.137-4.341v11.24h-1.881v-11.314a26.252,26.252,0,0,1-4.591,7.651,7.02,7.02,0,0,0-1.054-1.731,19.455,19.455,0,0,0,2.873-3.851,28.5,28.5,0,0,0,2.3-4.829h-4.541v-1.781h5.018v-4.266q-2.736.426-4.24.627a5.822,5.822,0,0,0-.527-1.53,42.085,42.085,0,0,0,9.659-2.133l1.279,1.505A31.859,31.859,0,0,1,803.336,7224.108Zm5.344-.552h9.509v19.77h-1.907V7241.4h-5.745v2.107H808.68Zm1.857,15.981h5.745v-14.15h-5.745Z"/>
      <path id="Path_9825" data-name="Path 9825" d="M845.7,7233.742v1.856H835.114v9.008h-1.957V7235.6H822.82v-1.856h10.337v-8.982h-8.982v-1.832h20.071v1.832h-9.132v8.982Zm-16.684-7.9,1.907.577a21.943,21.943,0,0,1-4.591,6.222,6.546,6.546,0,0,0-1.531-1.079,15.735,15.735,0,0,0,2.409-2.659A16.6,16.6,0,0,0,829.017,7225.839Zm8.229.8,1.556-.853a34.977,34.977,0,0,1,2.835,2.985,19.092,19.092,0,0,1,2.057,2.836l-1.681.953a18.874,18.874,0,0,0-2.007-2.9A33.763,33.763,0,0,0,837.246,7226.642Z"/>
      <path id="Path_9826" data-name="Path 9826" d="M869.325,7223.706l1.179.552a19.823,19.823,0,0,1-3.738,6.824,16.947,16.947,0,0,0,5.845,3.789,6.117,6.117,0,0,0-1.179,1.555,3.232,3.232,0,0,0-.414-.188c-.192-.076-.33-.128-.414-.163v8.455H868.8v-.853h-6.423v.929h-1.781v-8.556q-.276.152-1.531.7a5.382,5.382,0,0,0-.928-1.279h-2.71v4.617q1.1-.252,3.363-.8l.2,1.706q-.676.177-4.466,1.092t-5.394,1.317l-.351-1.856,1.3-.276v-8.781h1.63v8.429l1.982-.452v-10.387h-3.612v-7.827h8.3v6.8a17.7,17.7,0,0,0,4.641-7.879l1.832.427q-.176.5-.828,2.183H869Zm-17.537.2v4.516H856.6v-4.516Zm6.824,9.885v1.23a17.819,17.819,0,0,0,5.82-4.015,25.179,25.179,0,0,1-2.383-3.513,19.948,19.948,0,0,1-2.333,2.961,9.157,9.157,0,0,0-1.33-1.129v.752h-2.961v3.714Zm3.136,1.581H869.4a19.665,19.665,0,0,1-3.789-3.036A20.757,20.757,0,0,1,861.748,7235.373Zm.627,6.6H868.8v-4.918h-6.423Zm5.77-16.508h-4.917l-.251.477a20.937,20.937,0,0,0,2.559,3.863A17.12,17.12,0,0,0,868.145,7225.463Z"/>
      <path id="Path_9827" data-name="Path 9827" d="M875.537,7241.093l1.3-1.48a4.073,4.073,0,0,0,3.162,1.43,3.876,3.876,0,0,0,3.3-1.869q1.292-1.868,1.417-5.984a6.51,6.51,0,0,1-2.007,1.707,4.84,4.84,0,0,1-2.333.627,4.9,4.9,0,0,1-3.8-1.519,7.287,7.287,0,0,1,.176-8.8,4.979,4.979,0,0,1,3.826-1.719,5.47,5.47,0,0,1,4.579,2.308q1.743,2.309,1.743,6.649a18.753,18.753,0,0,1-.564,4.854,9.116,9.116,0,0,1-1.531,3.312,6.381,6.381,0,0,1-2.158,1.806,5.719,5.719,0,0,1-2.571.59A6.038,6.038,0,0,1,875.537,7241.093Zm5.218-7.3q2.183,0,3.939-2.534a8.548,8.548,0,0,0-1.241-4.416,3.349,3.349,0,0,0-2.873-1.5,2.766,2.766,0,0,0-2.283,1.179,5.807,5.807,0,0,0-.038,6.16A2.969,2.969,0,0,0,880.755,7233.792Z"/>
      <path id="Path_9828" data-name="Path 9828" d="M890.43,7241.093l1.3-1.48a4.072,4.072,0,0,0,3.161,1.43,3.875,3.875,0,0,0,3.3-1.869q1.293-1.868,1.418-5.984a6.51,6.51,0,0,1-2.007,1.707,4.844,4.844,0,0,1-2.334.627,4.9,4.9,0,0,1-3.8-1.519,7.289,7.289,0,0,1,.175-8.8,4.981,4.981,0,0,1,3.826-1.719,5.47,5.47,0,0,1,4.579,2.308q1.743,2.309,1.744,6.649a18.748,18.748,0,0,1-.565,4.854,9.1,9.1,0,0,1-1.53,3.312,6.39,6.39,0,0,1-2.158,1.806,5.722,5.722,0,0,1-2.571.59A6.036,6.036,0,0,1,890.43,7241.093Zm5.218-7.3q2.183,0,3.939-2.534a8.539,8.539,0,0,0-1.242-4.416,3.347,3.347,0,0,0-2.873-1.5,2.767,2.767,0,0,0-2.283,1.179,5.8,5.8,0,0,0-.037,6.16A2.968,2.968,0,0,0,895.648,7233.792Z"/>
      <path id="Path_9829" data-name="Path 9829" d="M906.1,7242.674v-1.957h4.19v-14.051h-3.337v-1.479a11.5,11.5,0,0,0,3.914-1.355h1.781v16.885h3.789v1.957Z"/>
      <path id="Path_9830" data-name="Path 9830" d="M943.222,7231.082h-6.6a15.938,15.938,0,0,0,3.111,3.187,15.3,15.3,0,0,0,3.839,2.233,6.065,6.065,0,0,0-1.33,1.631,15.791,15.791,0,0,1-4.968-3.562v4.765H927.24v1.883a.973.973,0,0,0,.477.979,5.759,5.759,0,0,0,2.032.224h7.5a1.962,1.962,0,0,0,1.668-.551,5.68,5.68,0,0,0,.514-2.484,4.914,4.914,0,0,0,1.781.728,5.661,5.661,0,0,1-.99,3.236,3.991,3.991,0,0,1-2.9.8h-7.577a6.957,6.957,0,0,1-3.475-.59,2.629,2.629,0,0,1-.891-2.346v-6.072a20.994,20.994,0,0,1-4.39,3.287,10.014,10.014,0,0,0-1.4-1.43,16.056,16.056,0,0,0,6.774-5.922h-6.348v-1.706h6.549v-3.462H921.62v-1.681h4.943v-3.061h1.881v3.061h6.172v-3.061h1.907v3.061h5.143v1.681h-5.143v3.462h6.7Zm-16.208,2.258h9.158a16.306,16.306,0,0,1-1.531-2.258h-6.1A13.716,13.716,0,0,1,927.014,7233.34Zm8.48,4.391v-2.76H927.24v2.76Zm-7.05-11.817v3.462h6.172v-3.462Z"/>
      <path id="Path_9831" data-name="Path 9831" d="M948.43,7223.832H967.5v20.045h-2.032v-2.056h-15.1V7244H948.43Zm1.932,16.057h15.1v-14.151h-15.1Z"/>
    </g>
  </g>
</svg>
