<svg xmlns="http://www.w3.org/2000/svg" width="487.888" height="71.189" viewBox="0 0 487.888 71.189">
  <g id="txt7" transform="translate(-84.507 -1893.826)">
    <g id="Group_432" data-name="Group 432" transform="translate(0 -6881)">
      <path id="Path_2735" data-name="Path 2735" d="M94.142,8795.148l.15,1.605q-2.884.627-8.781,1.856l-.427-1.757q1.557-.248,3.965-.7v-7.929H85.36v-1.655h3.689v-2.66H86.54v-1q-.126.126-.4.427a5.189,5.189,0,0,1-.426.427,4.219,4.219,0,0,0-1.2-1.18,17.416,17.416,0,0,0,4.567-6.623H90.78a28.616,28.616,0,0,1,3.939,4.616v-3.864h7v1.481H99.435v2.007h2.058v4.743H99.435v1.98h2.534v1.5h-7.25V8780.7l-1.305,1.354a24.981,24.981,0,0,0-3.236-4.29,23.481,23.481,0,0,1-3.061,4.541h6.222v1.605H90.654v2.66h3.111v1.655H90.654v7.627Zm-8.28-5.219,1.28-.275a22.159,22.159,0,0,1,.928,4.816l-1.38.352A21.434,21.434,0,0,0,85.862,8789.93Zm6.8,4.416-1.255-.352a26.809,26.809,0,0,0,1-4.642l1.43.4Q93.212,8792.563,92.662,8794.346Zm14.8,2.761h1.229v1.63H93.314v-1.63h1.957v-7.077h12.193Zm-9.408-18.918H96.149v2.007h1.907Zm2.107,5.444v-2.158H96.149v2.158Zm-2.107,3.286v-1.98H96.149v1.98Zm-1.205,4.667v5.521h2.083v-5.521Zm5.52,0h-2.133v5.521h2.133Zm6.2-10.137h-4.316a17.379,17.379,0,0,1-1.229,3.061,16.333,16.333,0,0,0-1.505-.853,21.463,21.463,0,0,0,2.183-7.577l1.68.3a32.119,32.119,0,0,1-.677,3.363h3.864Zm-5.821,6.473v-1.605h5.57v1.605Zm3.061,3.664H103.65v5.521h2.158Z"/>
      <path id="Path_2736" data-name="Path 2736" d="M119.295,8796.127l1.832.677a27.673,27.673,0,0,1-7.753,2.71,8.263,8.263,0,0,0-1.4-1.455A22.931,22.931,0,0,0,119.295,8796.127Zm-4.867-15.882v3.062h-1.781v-4.441h4.215a13.3,13.3,0,0,0-1.731-2.207l1.656-.552a10.339,10.339,0,0,1,2.057,2.459l-.7.3h3.988v-2.936h1.907v2.936h3.939l-.4-.125a17.171,17.171,0,0,0,2.082-2.734l1.907.576a19.644,19.644,0,0,1-2.057,2.283h4.365v4.441h-1.831v-3.062Zm.728,15.681v-8.906h16.433v8.906Zm1.4-14.326h13.5v4.19h-13.5Zm.376,6.6v1.405h12.795V8788.2Zm0,2.534v1.4h12.795v-1.4Zm0,2.559v1.431h12.795v-1.431Zm11.29-8.705V8782.8h-9.885v1.781Zm-3.06,12.569,1.429-1.079a63.568,63.568,0,0,1,7.753,2.258l-1.882,1.105A52.868,52.868,0,0,0,125.167,8797.155Z"/>
      <path id="Path_2737" data-name="Path 2737" d="M161.059,8792.112v1.556h-6.122v3.688a2.583,2.583,0,0,1-.213,1.179,1.261,1.261,0,0,1-.816.577,17.689,17.689,0,0,1-4.139.276,5.006,5.006,0,0,0-.6-1.656q2.508.075,3.412.025c.334-.018.5-.168.5-.452v-3.638h-9.735a26.758,26.758,0,0,1,2.358,1.568,13.716,13.716,0,0,1,1.857,1.593l-1.355,1.279a20.25,20.25,0,0,0-4.24-3.337l1.254-1.1H137.9v-1.556h15.18v-1.581q-7.3.2-14.1.3l-.075-1.5q4.089,0,9.584-.076v-1.4h-7.853V8780.9h7.853v-1.456h-9.835v-1.53h9.835v-1.931h1.857v1.931h9.684v1.53h-9.684v1.456h8.1v6.949h-2.96a19.022,19.022,0,0,1,4.591,2.483l-1.129,1.079a17.755,17.755,0,0,0-1.48-1.029l-2.534.076v1.655Zm-18.642-9.91v1.53h6.072v-1.53Zm0,4.366h6.072v-1.606h-6.072Zm14.176-4.366h-6.247v1.53h6.247Zm0,4.366v-1.606h-6.247v1.606Zm-6.247,1.279v1.4l4.842-.075a18.772,18.772,0,0,0-1.932-.778l.6-.551Z"/>
      <path id="Path_2738" data-name="Path 2738" d="M165.314,8790.507l1.63.276a21.666,21.666,0,0,1-1.781,6.522,4.947,4.947,0,0,0-1.4-.7A18.84,18.84,0,0,0,165.314,8790.507Zm6.422-2.058-2.032.125v10.814h-1.681v-10.713l-4.039.25-.176-1.73,1.757-.076q1.2-1.556,1.6-2.133a21.2,21.2,0,0,0-3.186-3.713l1.028-1.2q.753.677.778.7a36.251,36.251,0,0,0,2.283-4.816l1.656.627a45.043,45.043,0,0,1-2.936,5.27q.627.677,1.38,1.655a50.05,50.05,0,0,0,2.735-4.642l1.606.728a77.021,77.021,0,0,1-5.143,7.427l3.713-.176a23.773,23.773,0,0,0-1.154-2.158l1.38-.552a18.675,18.675,0,0,1,2.483,5.243l-1.505.7A8.879,8.879,0,0,0,171.736,8788.449Zm-1.154,2.408,1.4-.426a17.11,17.11,0,0,1,1.38,4.566l-1.505.451A14.7,14.7,0,0,0,170.582,8790.857Zm7.2-1.1,1.053.4q-1.279,5.8-5.444,8.2a4.54,4.54,0,0,0-1.2-1.3,9.454,9.454,0,0,0,4.591-5.645h-3.462v-1.631h4.19Zm8.028-1.054,1.556,1.129a36.45,36.45,0,0,1-3.965,3.212,10.458,10.458,0,0,0,4.516,3.738,7.092,7.092,0,0,0-1.153,1.555,12.3,12.3,0,0,1-5.6-6.222v5.244a2.891,2.891,0,0,1-.175,1.142,1.176,1.176,0,0,1-.678.589,11.638,11.638,0,0,1-3.261.276,5.223,5.223,0,0,0-.5-1.656q1.981.05,2.459,0a.488.488,0,0,0,.326-.075.388.388,0,0,0,.076-.275V8787.6H174.27v-9.03h4.19a19.674,19.674,0,0,0,1.029-2.661l2.107.4q-.175.352-1.179,2.259h6.046v9.03h-5.294v.326a14.767,14.767,0,0,0,1.456,3.84A29.19,29.19,0,0,0,185.811,8788.7ZM176,8780.119v2.209h8.63v-2.209Zm0,3.664v2.232h8.63v-2.232Z"/>
      <path id="Path_2739" data-name="Path 2739" d="M201.582,8774.826h1.1v25.691h-1.1Z"/>
      <path id="Path_2740" data-name="Path 2740" d="M222.772,8797.758a4.867,4.867,0,0,1-4.328-2.5q-1.569-2.5-1.568-7.313,0-4.792,1.568-7.25a4.882,4.882,0,0,1,4.328-2.459,4.833,4.833,0,0,1,4.29,2.459q1.556,2.458,1.556,7.25,0,4.816-1.556,7.313A4.819,4.819,0,0,1,222.772,8797.758Zm0-1.857a2.907,2.907,0,0,0,2.609-1.969,14.349,14.349,0,0,0,.953-5.984,13.987,13.987,0,0,0-.94-5.882,2.893,2.893,0,0,0-2.622-1.921,2.94,2.94,0,0,0-2.647,1.921,13.657,13.657,0,0,0-.966,5.882,14.187,14.187,0,0,0,.966,5.984A2.944,2.944,0,0,0,222.772,8795.9Z"/>
      <path id="Path_2741" data-name="Path 2741" d="M237.288,8797.758a7.825,7.825,0,0,1-6.021-2.56l1.179-1.556a6.3,6.3,0,0,0,4.666,2.158,4.038,4.038,0,0,0,2.773-.941,3.222,3.222,0,0,0,1.066-2.546q0-3.763-5.87-3.764v-1.807q5.217,0,5.218-3.587a2.858,2.858,0,0,0-.853-2.184,3.459,3.459,0,0,0-2.334-.854,5.751,5.751,0,0,0-3.888,1.883l-1.28-1.506a7.618,7.618,0,0,1,5.269-2.258,6.039,6.039,0,0,1,3.952,1.243,4.238,4.238,0,0,1,1.517,3.474,4.472,4.472,0,0,1-.9,2.822,5.4,5.4,0,0,1-2.459,1.744v.1a5.4,5.4,0,0,1,2.886,1.656,4.48,4.48,0,0,1,1.128,3.111,4.854,4.854,0,0,1-1.73,3.914A6.477,6.477,0,0,1,237.288,8797.758Z"/>
      <path id="Path_2742" data-name="Path 2742" d="M246.586,8791.134v-1.806h6.574v1.806Z"/>
      <path id="Path_2743" data-name="Path 2743" d="M261.73,8797.758a7.829,7.829,0,0,1-6.022-2.56l1.18-1.556a6.3,6.3,0,0,0,4.666,2.158,4.038,4.038,0,0,0,2.773-.941,3.222,3.222,0,0,0,1.066-2.546q0-3.763-5.87-3.764v-1.807q5.217,0,5.218-3.587a2.858,2.858,0,0,0-.853-2.184,3.459,3.459,0,0,0-2.334-.854,5.751,5.751,0,0,0-3.888,1.883l-1.28-1.506a7.618,7.618,0,0,1,5.269-2.258,6.034,6.034,0,0,1,3.951,1.243,4.236,4.236,0,0,1,1.518,3.474,4.472,4.472,0,0,1-.9,2.822,5.4,5.4,0,0,1-2.459,1.744v.1a5.4,5.4,0,0,1,2.886,1.656,4.48,4.48,0,0,1,1.128,3.111,4.852,4.852,0,0,1-1.731,3.914A6.473,6.473,0,0,1,261.73,8797.758Z"/>
      <path id="Path_2744" data-name="Path 2744" d="M274.942,8797.432a36.5,36.5,0,0,1,1.4-9.233,27.11,27.11,0,0,1,3.889-7.6H271.1v-2.007h11.791v1.43a23.367,23.367,0,0,0-4.214,7.728,41.219,41.219,0,0,0-1.3,9.685Z"/>
      <path id="Path_2745" data-name="Path 2745" d="M297.537,8780.17l-1.28,1.455a3.756,3.756,0,0,0-3.035-1.43,4.093,4.093,0,0,0-3.45,1.856q-1.342,1.856-1.417,5.972a6.411,6.411,0,0,1,2.019-1.668,4.856,4.856,0,0,1,2.271-.615,4.936,4.936,0,0,1,3.826,1.518,7.273,7.273,0,0,1-.176,8.793,4.994,4.994,0,0,1-3.826,1.707,5.383,5.383,0,0,1-4.553-2.4q-1.744-2.4-1.744-6.912a17.605,17.605,0,0,1,.564-4.691,8.233,8.233,0,0,1,1.568-3.2,6.758,6.758,0,0,1,2.221-1.743,6.035,6.035,0,0,1,2.621-.577A5.79,5.79,0,0,1,297.537,8780.17Zm-5.068,15.781a2.756,2.756,0,0,0,2.283-1.191,5,5,0,0,0,.9-3.1,4.9,4.9,0,0,0-.853-3.061,3,3,0,0,0-2.533-1.1,4.741,4.741,0,0,0-3.864,2.408,9.157,9.157,0,0,0,1.254,4.492A3.245,3.245,0,0,0,292.469,8795.951Z"/>
      <path id="Path_2746" data-name="Path 2746" d="M300.814,8791.134v-1.806h6.573v1.806Z"/>
      <path id="Path_2747" data-name="Path 2747" d="M316.334,8797.758a4.867,4.867,0,0,1-4.328-2.5q-1.569-2.5-1.568-7.313,0-4.792,1.568-7.25a4.882,4.882,0,0,1,4.328-2.459,4.833,4.833,0,0,1,4.29,2.459q1.556,2.458,1.556,7.25,0,4.816-1.556,7.313A4.819,4.819,0,0,1,316.334,8797.758Zm0-1.857a2.907,2.907,0,0,0,2.609-1.969,14.348,14.348,0,0,0,.953-5.984,13.987,13.987,0,0,0-.94-5.882,2.893,2.893,0,0,0-2.622-1.921,2.94,2.94,0,0,0-2.647,1.921,13.657,13.657,0,0,0-.966,5.882,14.187,14.187,0,0,0,.966,5.984A2.944,2.944,0,0,0,316.334,8795.9Z"/>
      <path id="Path_2748" data-name="Path 2748" d="M325.557,8795.851l1.3-1.48a4.073,4.073,0,0,0,3.162,1.431,3.875,3.875,0,0,0,3.3-1.869q1.293-1.869,1.418-5.984a6.5,6.5,0,0,1-2.007,1.707,4.844,4.844,0,0,1-2.334.627,4.9,4.9,0,0,1-3.8-1.519,7.29,7.29,0,0,1,.175-8.806,4.982,4.982,0,0,1,3.826-1.719,5.47,5.47,0,0,1,4.579,2.309q1.743,2.309,1.744,6.648a18.756,18.756,0,0,1-.565,4.854,9.1,9.1,0,0,1-1.53,3.312,6.391,6.391,0,0,1-2.158,1.807,5.728,5.728,0,0,1-2.571.59A6.04,6.04,0,0,1,325.557,8795.851Zm5.218-7.3q2.183,0,3.939-2.534a8.536,8.536,0,0,0-1.242-4.416,3.347,3.347,0,0,0-2.873-1.5,2.766,2.766,0,0,0-2.283,1.179,5.805,5.805,0,0,0-.037,6.16A2.968,2.968,0,0,0,330.775,8788.55Z"/>
      <path id="Path_2749" data-name="Path 2749" d="M350.4,8796.377a6.39,6.39,0,0,1-4.253,1.381,6.561,6.561,0,0,1-4.315-1.405,4.442,4.442,0,0,1-1.706-3.588,5.036,5.036,0,0,1,.991-3.073,7.185,7.185,0,0,1,2.471-2.12v-.126a5.156,5.156,0,0,1-2.534-4.339,4.474,4.474,0,0,1,1.455-3.464,5.294,5.294,0,0,1,3.713-1.328,5.128,5.128,0,0,1,3.776,1.379,4.828,4.828,0,0,1,1.393,3.588,4.7,4.7,0,0,1-.765,2.559,7.713,7.713,0,0,1-1.769,1.982v.125a5.539,5.539,0,0,1,3.186,4.943A4.361,4.361,0,0,1,350.4,8796.377Zm-4.2-.351a3.782,3.782,0,0,0,2.61-.891,2.931,2.931,0,0,0,1-2.3,3.379,3.379,0,0,0-.364-1.594,3.582,3.582,0,0,0-1.191-1.254,11.223,11.223,0,0,0-1.493-.878q-.666-.313-1.944-.841a4.931,4.931,0,0,0-2.56,4.266,3.192,3.192,0,0,0,1.117,2.5A4.091,4.091,0,0,0,346.194,8796.026Zm1.23-8.831a5.028,5.028,0,0,0,1.957-3.789,3.462,3.462,0,0,0-.866-2.4,3,3,0,0,0-2.346-.965,2.879,2.879,0,0,0-2.145.854,3.007,3.007,0,0,0-.84,2.208,3.122,3.122,0,0,0,.326,1.441,3.177,3.177,0,0,0,1,1.129,10.031,10.031,0,0,0,1.293.8Q346.419,8786.795,347.424,8787.2Z"/>
      <path id="Path_2750" data-name="Path 2750" d="M365.29,8796.377a6.39,6.39,0,0,1-4.253,1.381,6.562,6.562,0,0,1-4.315-1.405,4.442,4.442,0,0,1-1.706-3.588,5.036,5.036,0,0,1,.991-3.073,7.185,7.185,0,0,1,2.471-2.12v-.126a5.158,5.158,0,0,1-2.534-4.339,4.474,4.474,0,0,1,1.455-3.464,5.294,5.294,0,0,1,3.713-1.328,5.128,5.128,0,0,1,3.776,1.379,4.828,4.828,0,0,1,1.393,3.588,4.7,4.7,0,0,1-.765,2.559,7.713,7.713,0,0,1-1.769,1.982v.125a5.537,5.537,0,0,1,3.186,4.943A4.361,4.361,0,0,1,365.29,8796.377Zm-4.2-.351a3.782,3.782,0,0,0,2.61-.891,2.931,2.931,0,0,0,1-2.3,3.367,3.367,0,0,0-.364-1.594,3.582,3.582,0,0,0-1.191-1.254,11.223,11.223,0,0,0-1.493-.878q-.666-.313-1.944-.841a4.933,4.933,0,0,0-2.56,4.266,3.192,3.192,0,0,0,1.117,2.5A4.091,4.091,0,0,0,361.087,8796.026Zm1.23-8.831a5.027,5.027,0,0,0,1.957-3.789,3.462,3.462,0,0,0-.866-2.4,3,3,0,0,0-2.345-.965,2.88,2.88,0,0,0-2.146.854,3.007,3.007,0,0,0-.84,2.208,3.122,3.122,0,0,0,.326,1.441,3.176,3.176,0,0,0,1,1.129,10.1,10.1,0,0,0,1.293.8Q361.313,8786.795,362.317,8787.2Z"/>
    </g>
    <g id="Group_433" data-name="Group 433" transform="translate(0 -6881)">
      <path id="Path_2769" data-name="Path 2769" d="M108.493,8831.815h-8.079q-.2.45-.615,1.329t-.564,1.2h9.157v1.606h-3.06A10.513,10.513,0,0,1,103,8840.8a29.3,29.3,0,0,1,4.918,2.635l-1.205,1.479a28.554,28.554,0,0,0-5.143-2.86q-2.936,2.084-8.731,2.836a4.476,4.476,0,0,0-.753-1.606,18.47,18.47,0,0,0,7.627-2.058q-2.208-.853-3.261-1.2l-.4.727-1.655-.6q.8-1.479,2.132-4.189H92.711v-1.406l-2.232.7v7.326q0,1.506-.878,1.932a9.775,9.775,0,0,1-3.388.352,6.394,6.394,0,0,0-.551-1.832q1.83.076,2.534.025a.438.438,0,0,0,.338-.1.585.585,0,0,0,.088-.376V8835.8l-3.437,1.054-.427-1.831q.979-.227,3.864-1.079v-5.619H85.185V8826.6h3.437v-5.143h1.857v5.143h2.483v1.732H90.479v5.068l2.459-.729.251,1.681h4.064q.677-1.455,1.1-2.533h-5.77v-1.682h4.466a19.009,19.009,0,0,0-1.029-4.089l1.23-.252H93.615v-1.631h6.071v-2.734h1.857v2.734h6.222v1.631h-3.237l.929.126q-1,2.861-1.606,4.215h4.642Zm-5.068,4.14H98.482q-.326.728-1.33,2.658a39.241,39.241,0,0,1,4.09,1.431A8.54,8.54,0,0,0,103.425,8835.955Zm.125-10.162H97.679a14.29,14.29,0,0,1,1.1,4.165l-.7.176h4.641l-.6-.1A33.16,33.16,0,0,0,103.55,8825.793Z"/>
      <path id="Path_2770" data-name="Path 2770" d="M117.338,8827.123l1.657.678a22.006,22.006,0,0,1-2.058,3.136v13.95h-1.856v-11.768a23.773,23.773,0,0,1-2.936,2.811,10.06,10.06,0,0,0-1.028-1.857,23.18,23.18,0,0,0,3.474-3.174A20.181,20.181,0,0,0,117.338,8827.123Zm-.451-5.619,1.806.7a21.579,21.579,0,0,1-2.81,3.3,23.371,23.371,0,0,1-3.412,2.8,7.568,7.568,0,0,0-.978-1.531,20.138,20.138,0,0,0,3.073-2.471A14.248,14.248,0,0,0,116.887,8821.5Zm18.039,10.01h-3.613v2.835h3.438v1.758h-3.438v6.472a3.139,3.139,0,0,1-.213,1.316,1.387,1.387,0,0,1-.815.666,16.127,16.127,0,0,1-4.115.3,7.833,7.833,0,0,0-.628-1.832q2.485.076,3.337.025a.79.79,0,0,0,.439-.125.451.451,0,0,0,.114-.352v-6.472H119.02v-1.758h10.412v-2.835H118.744v-1.756h7.125V8826.5h-5.645v-1.756h5.645v-3.187h1.857v3.188h5.87v1.756h-5.87v3.262h7.2ZM121,8837.686l1.53-.878a19.308,19.308,0,0,1,3.086,4.415l-1.606.954A18.54,18.54,0,0,0,121,8837.686Z"/>
      <path id="Path_2771" data-name="Path 2771" d="M148.364,8821.428h1.781a23.447,23.447,0,0,0,5.156,3.727,31.007,31.007,0,0,0,6.109,2.57,9.544,9.544,0,0,0-1.129,1.582,35.007,35.007,0,0,1-6.323-2.936v1.1h-8.906v-1.18a39.052,39.052,0,0,1-6.448,3.187,6.1,6.1,0,0,0-1.028-1.479,31.023,31.023,0,0,0,6.221-2.911A19.275,19.275,0,0,0,148.364,8821.428Zm-7.477,13.875v-6.474h17.361v6.474Zm1.506,9.584v-8.381h14.426v8.33h-1.932v-.752H144.249v.8Zm.15-14.728V8834h6.046v-3.839Zm1.53.728,1.355-.451a8.917,8.917,0,0,1,1.556,2.91l-1.481.551A9.4,9.4,0,0,0,144.073,8830.887Zm10.814,6.975H144.249v1.73h10.638Zm-10.638,4.867h10.638v-1.781H144.249Zm1.154-16.659h8.1a23.988,23.988,0,0,1-4.165-3.11A24.474,24.474,0,0,1,145.4,8826.069ZM156.518,8834v-3.839H150.17V8834Zm-3.388-.1-1.329-.477a21.568,21.568,0,0,0,1.48-3.086l1.606.527Q153.781,8832.895,153.13,8833.9Z"/>
      <path id="Path_2772" data-name="Path 2772" d="M168.424,8821.453h1.882a25.446,25.446,0,0,1,4.215,4.541l-1.2,1.279a25.225,25.225,0,0,0-3.688-4.34,28.084,28.084,0,0,1-2.133,3.111h4.767v1.4h-4.992v-1.154a18.933,18.933,0,0,1-2.509,2.534,5.56,5.56,0,0,0-1.23-1.153A16.257,16.257,0,0,0,168.424,8821.453Zm-1.153,18.139v1.707h6.673v1.555h-6.673v2.008h-1.682V8828.9h7.9v7.452h-6.221v1.73h6.322v1.5Zm4.591-9.332h-4.591v1.705h4.591ZM167.271,8835h4.591v-1.731h-4.591Zm20.045-6.5H185.46v-2.659h-9.183v2.383h9.057v6.248h-7.526v2.133h8.68v8.153h-1.806v-1.2h-6.874v1.33h-1.757V8828.5h-1.53v-4.189h5.219v-2.86H181.6v2.86h5.72Zm-3.738,1.28h-5.77v3.11h5.77Zm1.1,8.455h-6.874v3.662h6.874Z"/>
      <path id="Path_2773" data-name="Path 2773" d="M201.582,8820.324h1.1v25.691h-1.1Z"/>
      <path id="Path_2774" data-name="Path 2774" d="M223.023,8828.252l2.183.326q-1.933,11.717-6.925,16.383a8.7,8.7,0,0,0-1.555-1.379Q221.592,8839.19,223.023,8828.252Zm-.678-4.816h10.638q.3,3.486.8,6.322a45.07,45.07,0,0,0,1.33,5.507,20.238,20.238,0,0,0,2.107,4.729,12.455,12.455,0,0,0,2.985,3.362,10.29,10.29,0,0,0-1.856,1.53,16.761,16.761,0,0,1-4.8-7.615,54.216,54.216,0,0,1-2.321-11.829h-8.882Z"/>
      <path id="Path_2775" data-name="Path 2775" d="M248.729,8827l1.681.576a38.413,38.413,0,0,1-2.083,3.614v13.7h-1.781v-11.165q-1.431,1.833-2.534,2.985a10.3,10.3,0,0,0-1.179-1.681,25.36,25.36,0,0,0,3.211-3.663A30.5,30.5,0,0,0,248.729,8827Zm-.477-5.545,1.706.678a36.212,36.212,0,0,1-5.921,6.071,7.134,7.134,0,0,0-1.079-1.38,28.951,28.951,0,0,0,2.948-2.6A18.688,18.688,0,0,0,248.252,8821.453Zm2.534,23.031-1.4-1a7.442,7.442,0,0,0,2.333-4.466l1.581.477A8.975,8.975,0,0,1,250.786,8844.484ZM266.542,8835v1.556h-9.986a17.087,17.087,0,0,1,4.19,2.283l-1.028,1.279a17.618,17.618,0,0,0-4.316-2.484l.878-1.078h-5.971V8835Zm-15.028-8.028h5.469q.125-.853.225-1.882h-6.824v-1.556h6.975c.017-.15.042-.488.076-1.016s.058-.916.075-1.167l1.957.1-.251,2.082h7.2v1.556H259.04l-.138,1.091c-.059.461-.1.725-.113.791h6.7v6.322H251.514Zm4.114,4.918v-3.514h-2.609v3.514ZM257.234,8843h2.785a.674.674,0,0,0,.689-.363,6.187,6.187,0,0,0,.214-1.769,3.68,3.68,0,0,0,1.53.652,5.029,5.029,0,0,1-.589,2.434,1.888,1.888,0,0,1-1.618.627h-3.237a3.083,3.083,0,0,1-1.995-.452,2.382,2.382,0,0,1-.489-1.756v-3.487h1.756v3.462q0,.428.163.54A1.689,1.689,0,0,0,257.234,8843Zm2.484-11.113v-3.514h-2.685v3.514Zm1.4-3.514v3.514h2.734v-3.514Zm.7,11.015,1.4-.728a17.278,17.278,0,0,1,3.437,4.842l-1.505.8a14.24,14.24,0,0,0-1.368-2.42A20.393,20.393,0,0,0,261.825,8839.392Z"/>
      <path id="Path_2776" data-name="Path 2776" d="M292.75,8841.9v1.756H272.628v1.23h-1.881v-22.355h21.325v1.732H272.628V8841.9Zm-17.914-1.932V8833.4h6.674v6.572Zm1.606-5.193v3.813h3.412v-3.813Zm10.713-8.807v5.7h-9.534v-5.7Zm-1.882,4.315v-2.96h-5.9v2.96Zm4.868,3.112v6.572h-6.9V8833.4Zm-1.682,5.192v-3.813H284.9v3.813Z"/>
      <path id="Path_2777" data-name="Path 2777" d="M302.9,8824.363v4.618h4.466v1.78H302.9v.652q1.732,1.831,4.29,4.967l-1.153,1.556q-.854-1.38-3.137-4.341v11.24h-1.881v-11.314a26.261,26.261,0,0,1-4.591,7.651,6.951,6.951,0,0,0-1.055-1.731,19.385,19.385,0,0,0,2.874-3.851,28.485,28.485,0,0,0,2.295-4.829H296v-1.78h5.018v-4.267q-2.736.426-4.24.627a5.834,5.834,0,0,0-.527-1.53,42.13,42.13,0,0,0,9.659-2.133l1.279,1.5A31.789,31.789,0,0,1,302.9,8824.363Zm5.344-.552h9.509v19.771h-1.907v-1.932H310.1v2.107h-1.857Zm1.857,15.981h5.745v-14.15H310.1Z"/>
      <path id="Path_2778" data-name="Path 2778" d="M324.241,8833.5h5.495q0,.577-.026.853-.25,5.043-.514,7.063a5.422,5.422,0,0,1-.815,2.647,2.162,2.162,0,0,1-1.656.752,19.459,19.459,0,0,1-3.161,0,4.334,4.334,0,0,0-.552-1.856q1.279.125,2.96.126a1.19,1.19,0,0,0,.9-.276q.726-.8,1.053-7.627h-3.888c-.067.536-.118.92-.151,1.154l-1.706-.276q.6-3.888.828-7.678h4.867v-3.889h-5.344v-1.73h7.175v7.352h-5.168Q324.516,8830.385,324.241,8833.5Zm21.727,10.813-1.6.8a18.2,18.2,0,0,0-.879-1.781q-3.462.3-13,1.08l-.251-1.857q.627-.023,6.7-.451v-4.215h-5.569v-6.875h5.569v-2.684q-5.52.375-6.1.4l-.251-1.83,2.182-.1a35.106,35.106,0,0,0,2.785-5.444l2.008.526q-1.531,2.886-2.785,4.843,2.281-.1,7.125-.4-1-1.2-1.907-2.107l1.556-.777a23.262,23.262,0,0,1,4.164,5.168l-1.656.878a17.551,17.551,0,0,0-.978-1.556q-2.709.2-4.315.276v2.81h5.67v6.875h-5.67v4.089l3.663-.276a25.834,25.834,0,0,0-1.857-2.434l1.556-.752a31.593,31.593,0,0,1,2.295,3.023A15.96,15.96,0,0,1,345.968,8844.309Zm-12.87-8.027h3.838v-3.664H333.1Zm9.508-3.664h-3.838v3.664h3.838Z"/>
      <path id="Path_2779" data-name="Path 2779" d="M368.889,8823.962l1.179.552a19.793,19.793,0,0,1-3.738,6.824,16.955,16.955,0,0,0,5.846,3.789,6.107,6.107,0,0,0-1.179,1.555,3.116,3.116,0,0,0-.414-.187c-.193-.076-.331-.129-.415-.163v8.454h-1.806v-.853H361.94v.929h-1.782v-8.556q-.276.151-1.53.7a5.442,5.442,0,0,0-.928-1.279h-2.71v4.617q1.1-.252,3.362-.8l.2,1.706q-.678.176-4.466,1.092t-5.4,1.316l-.351-1.855,1.3-.276v-8.781h1.631v8.43l1.982-.452v-10.387h-3.613v-7.827h8.3v6.8a17.7,17.7,0,0,0,4.642-7.879l1.831.428q-.176.5-.828,2.182h4.968Zm-17.537.2v4.517h4.817v-4.517Zm6.824,9.886v1.229a17.824,17.824,0,0,0,5.821-4.015,25.152,25.152,0,0,1-2.384-3.513,19.923,19.923,0,0,1-2.333,2.961,9.044,9.044,0,0,0-1.33-1.129v.752h-2.96v3.714Zm3.137,1.581h7.651a19.712,19.712,0,0,1-3.788-3.036A20.829,20.829,0,0,1,361.313,8835.629Zm.627,6.6h6.422v-4.918H361.94Zm5.77-16.508h-4.918l-.25.477a20.837,20.837,0,0,0,2.559,3.863A17.116,17.116,0,0,0,367.71,8825.719Z"/>
      <path id="Path_2780" data-name="Path 2780" d="M384.76,8833.17a1.629,1.629,0,0,1,.5-1.217,1.724,1.724,0,0,1,2.408,0,1.711,1.711,0,0,1,.013,2.408,1.758,1.758,0,0,1-2.434,0A1.621,1.621,0,0,1,384.76,8833.17Z"/>
      <path id="Path_2781" data-name="Path 2781" d="M408.233,8824.363v4.618H412.7v1.78h-4.466v.652q1.732,1.831,4.29,4.967l-1.153,1.556q-.854-1.38-3.137-4.341v11.24h-1.881v-11.314a26.26,26.26,0,0,1-4.591,7.651,7,7,0,0,0-1.054-1.731,19.422,19.422,0,0,0,2.873-3.851,28.485,28.485,0,0,0,2.3-4.829h-4.541v-1.78h5.018v-4.267q-2.736.426-4.24.627a5.87,5.87,0,0,0-.527-1.53,42.116,42.116,0,0,0,9.659-2.133l1.279,1.5A31.79,31.79,0,0,1,408.233,8824.363Zm5.344-.552h9.509v19.771h-1.907v-1.932h-5.745v2.107h-1.857Zm1.857,15.981h5.745v-14.15h-5.745Z"/>
      <path id="Path_2782" data-name="Path 2782" d="M450.6,8834v1.855H440.011v9.008h-1.957v-9.008H427.717V8834h10.337v-8.982h-8.982v-1.832h20.071v1.832h-9.132V8834Zm-16.684-7.9,1.907.577a21.939,21.939,0,0,1-4.592,6.222,6.5,6.5,0,0,0-1.53-1.078,15.743,15.743,0,0,0,2.409-2.66A16.588,16.588,0,0,0,433.914,8826.095Zm8.229.8,1.556-.854a34.887,34.887,0,0,1,2.835,2.984,19.142,19.142,0,0,1,2.057,2.836l-1.681.953a18.875,18.875,0,0,0-2.007-2.9A33.635,33.635,0,0,0,442.143,8826.9Z"/>
      <path id="Path_2783" data-name="Path 2783" d="M474.222,8823.962l1.179.552a19.826,19.826,0,0,1-3.738,6.824,16.961,16.961,0,0,0,5.845,3.789,6.107,6.107,0,0,0-1.179,1.555,3.116,3.116,0,0,0-.414-.187c-.192-.076-.331-.129-.414-.163v8.454H473.7v-.853h-6.423v.929h-1.781v-8.556q-.276.151-1.531.7a5.384,5.384,0,0,0-.928-1.279h-2.71v4.617q1.1-.252,3.363-.8l.2,1.706q-.677.176-4.466,1.092t-5.394,1.316l-.351-1.855,1.3-.276v-8.781h1.63v8.43l1.982-.452v-10.387h-3.612v-7.827h8.3v6.8a17.7,17.7,0,0,0,4.641-7.879l1.832.428q-.176.5-.828,2.182h4.967Zm-17.537.2v4.517H461.5v-4.517Zm6.824,9.886v1.229a17.81,17.81,0,0,0,5.82-4.015,25.237,25.237,0,0,1-2.383-3.513,19.925,19.925,0,0,1-2.333,2.961,9.1,9.1,0,0,0-1.33-1.129v.752h-2.961v3.714Zm3.136,1.581H474.3a19.685,19.685,0,0,1-3.789-3.036A20.829,20.829,0,0,1,466.645,8835.629Zm.627,6.6H473.7v-4.918h-6.423Zm5.77-16.508h-4.917l-.251.477a20.937,20.937,0,0,0,2.559,3.863A17.116,17.116,0,0,0,473.042,8825.719Z"/>
      <path id="Path_2784" data-name="Path 2784" d="M480.434,8841.349l1.3-1.48a4.073,4.073,0,0,0,3.162,1.431,3.876,3.876,0,0,0,3.3-1.869q1.291-1.869,1.417-5.984a6.5,6.5,0,0,1-2.007,1.707,4.84,4.84,0,0,1-2.333.627,4.9,4.9,0,0,1-3.8-1.519,7.292,7.292,0,0,1,.176-8.806,4.981,4.981,0,0,1,3.826-1.719,5.47,5.47,0,0,1,4.579,2.309q1.743,2.309,1.743,6.648a18.758,18.758,0,0,1-.564,4.854,9.112,9.112,0,0,1-1.531,3.312,6.382,6.382,0,0,1-2.158,1.807,5.722,5.722,0,0,1-2.571.59A6.041,6.041,0,0,1,480.434,8841.349Zm5.218-7.3q2.182,0,3.939-2.534a8.546,8.546,0,0,0-1.241-4.416,3.349,3.349,0,0,0-2.873-1.5,2.766,2.766,0,0,0-2.283,1.179,5.808,5.808,0,0,0-.038,6.16A2.969,2.969,0,0,0,485.652,8834.048Z"/>
      <path id="Path_2785" data-name="Path 2785" d="M495.327,8841.349l1.3-1.48a4.073,4.073,0,0,0,3.161,1.431,3.875,3.875,0,0,0,3.3-1.869q1.293-1.869,1.418-5.984a6.5,6.5,0,0,1-2.007,1.707,4.844,4.844,0,0,1-2.334.627,4.9,4.9,0,0,1-3.8-1.519,7.29,7.29,0,0,1,.175-8.806,4.982,4.982,0,0,1,3.826-1.719,5.47,5.47,0,0,1,4.579,2.309q1.743,2.309,1.744,6.648a18.757,18.757,0,0,1-.565,4.854,9.1,9.1,0,0,1-1.53,3.312,6.391,6.391,0,0,1-2.158,1.807,5.725,5.725,0,0,1-2.571.59A6.04,6.04,0,0,1,495.327,8841.349Zm5.218-7.3q2.182,0,3.939-2.534a8.536,8.536,0,0,0-1.242-4.416,3.347,3.347,0,0,0-2.873-1.5,2.767,2.767,0,0,0-2.283,1.179,5.806,5.806,0,0,0-.037,6.16A2.969,2.969,0,0,0,500.545,8834.048Z"/>
      <path id="Path_2786" data-name="Path 2786" d="M511,8842.93v-1.957h4.19v-14.051H511.85v-1.479a11.49,11.49,0,0,0,3.914-1.354h1.781v16.885h3.789v1.957Z"/>
      <path id="Path_2787" data-name="Path 2787" d="M548.119,8831.338h-6.6a15.938,15.938,0,0,0,3.111,3.187,15.285,15.285,0,0,0,3.839,2.233,6.043,6.043,0,0,0-1.33,1.631,15.777,15.777,0,0,1-4.968-3.562v4.766H532.137v1.883a.971.971,0,0,0,.477.979,5.739,5.739,0,0,0,2.032.225h7.5a1.961,1.961,0,0,0,1.668-.551,5.681,5.681,0,0,0,.514-2.484,4.888,4.888,0,0,0,1.781.728,5.661,5.661,0,0,1-.99,3.236,3.991,3.991,0,0,1-2.9.8h-7.577a6.952,6.952,0,0,1-3.475-.59,2.629,2.629,0,0,1-.891-2.346V8835.4a21.035,21.035,0,0,1-4.39,3.288,9.968,9.968,0,0,0-1.405-1.431,16.059,16.059,0,0,0,6.774-5.922h-6.348v-1.706h6.548v-3.462h-4.942v-1.682h4.942v-3.061h1.882v3.061h6.172v-3.061h1.907v3.061h5.143v1.682H541.42v3.462h6.7Zm-16.208,2.258h9.158a16.3,16.3,0,0,1-1.531-2.258h-6.1A13.715,13.715,0,0,1,531.911,8833.6Zm8.48,4.391v-2.76h-8.254v2.76Zm-7.05-11.816v3.462h6.172v-3.462Z"/>
      <path id="Path_2788" data-name="Path 2788" d="M553.327,8824.088H572.4v20.045h-2.033v-2.057h-15.1v2.183h-1.932Zm1.932,16.057h15.1v-14.15h-15.1Z"/>
    </g>
  </g>
</svg>
